M48
;Layer_Color=9474304
;FILE_FORMAT=2:5
INCH,LZ
;TYPE=PLATED
T1F00S00C0.02362
T2F00S00C0.03000
T3F00S00C0.03150
T5F00S00C0.03937
T6F00S00C0.05906
T7F00S00C0.11811
%
T01
X0237178Y-0059029
X0247178
X0137712Y-0076255
X0127712
X-006572Y0007596
X-007572
T02
X0158205Y-0086023
X0157776Y0036598
X0095524Y0058256
X0063736Y-0049722
X-0044403Y-0005242
X0077094Y0095433
X0110462Y0095358
T03
X0089891Y-000976
Y0009925
X0145224Y0024324
Y-0017015
X0187634Y-0043265
Y-0057265
T05
X-0215354Y-009
X-0115354
X0184799Y-0012
Y-0005307
Y0001386
Y0008078
Y0014771
X-0115354Y001
Y002
Y003
Y004
Y005
Y006
Y0
Y-001
Y-002
Y-003
Y-004
Y-005
Y-006
Y-007
Y-008
X-0215354
Y-007
Y-006
Y-005
Y-004
Y-003
Y-002
Y-001
Y0
Y001
Y002
Y003
Y004
Y005
Y006
Y007
Y008
Y009
X-0115354
Y008
Y007
X0074981Y0071451
X0084981
X0094981
X0104981
X011498
T06
X-0090315Y-011811
X-0074724
X-0059134
X-0043543
X-0023386
X-0007795
X0007795
X0023386
X0043543
X0059134
X0074724
X0090315
X0110472
X0126063
X0141654
X0157244
X0177402
X0192992
X0208583
X0224173
X0158637Y-0039449
X0098637
X-0090315Y011811
X-0074724
X-0059134
X-0043543
X-0023386
X-0007795
X0007795
X0023386
X0043543
X0059134
X0074724
X0090315
X0110472
X0126063
X0141654
X0157244
X0177402
X0192992
X0208583
X0224173
T07
X-0228346Y-0129921
X0248031
X-0228346Y0129921
X0248031
M30
