M48
;Layer_Color=9474304
;FILE_FORMAT=2:5
INCH,LZ
;TYPE=PLATED
T1F00S00C0.02362
T2F00S00C0.03000
T3F00S00C0.03150
T5F00S00C0.03937
T6F00S00C0.04724
T7F00S00C0.05906
T8F00S00C0.11811
%
T01
X0237178Y-0059029
X0247178
X0137712Y-0076255
X0127712
X-006572Y0007596
X-007572
T02
X0227986Y-0021614
X0228032Y-0020003
X0228095Y-0018742
X0228079Y-0017701
X0228095Y-0016724
X0228142Y-0015699
X0228111Y-0014343
X0228126Y-0013019
X0205297Y-0013114
X0205282Y-0014438
X0205313Y-0015794
X0205266Y-0016819
X020525Y-0017797
X0205266Y-0018837
X0205203Y-0020099
X0205157Y-002171
X0210558Y0001618
X0211882Y0001602
X0213238Y0001633
X0214263Y0001586
X021524Y000157
X0216281Y0001586
X0217542Y0001523
X0219153Y0001477
X0157776Y0036598
X0095524Y0058256
X0158205Y-0086023
X0063736Y-0049722
X-0044403Y-0005242
X0077094Y0095433
X0110462Y0095358
T03
X0089891Y-000976
Y0009925
X0145224Y0024324
Y-0017015
X0187634Y-0043265
Y-0057265
T05
X-0215354Y-009
X-0115354
X0184799Y-0012
Y-0005307
Y0001386
Y0008078
Y0014771
X-0115354Y001
Y0
Y-001
Y-002
Y-003
Y-004
Y-005
Y-006
Y-007
Y-008
Y002
Y003
Y004
Y005
Y006
X-0215354
Y005
Y004
Y003
Y002
Y001
Y0
Y-001
Y-002
Y-003
Y-004
Y-005
Y-006
Y-007
Y-008
Y007
Y008
Y009
X-0115354
Y008
Y007
X0074981Y0071451
X0084981
X0094981
X0104981
X011498
T06
X0231999Y003995
Y0059635
T07
X-0090315Y-011811
X-0074724
X-0059134
X-0043543
X-0023386
X-0007795
X0007795
X0023386
X0043543
X0059134
X0074724
X0090315
X0110472
X0126063
X0141654
X0157244
X0177402
X0192992
X0208583
X0224173
X0158637Y-0039449
X0098637
X-0090315Y011811
X-0074724
X-0059134
X-0043543
X-0023386
X-0007795
X0007795
X0023386
X0043543
X0059134
X0074724
X0090315
X0110472
X0126063
X0141654
X0157244
X0177402
X0192992
X0208583
X0224173
T08
X-0228346Y-0129921
X0248031
X-0228346Y0129921
X0248031
M30
