G04 Layer_Color=16711935*
%FSLAX25Y25*%
%MOIN*%
G70*
G01*
G75*
%ADD35C,0.01000*%
%ADD36C,0.00600*%
D35*
X-267511Y141732D02*
X-241657D01*
X-267511Y-141732D02*
X-241657D01*
X-266511Y13995D02*
Y141732D01*
Y-141732D02*
Y-17196D01*
X-268511Y135732D02*
X-266511Y141732D01*
X-264511Y135732D01*
X-266511Y-141732D02*
X-264511Y-135732D01*
X-268511D02*
X-266511Y-141732D01*
X259842Y143232D02*
Y169339D01*
X-240158Y143232D02*
Y169339D01*
X26337Y168339D02*
X259842D01*
X-240158D02*
X-9852D01*
X253842Y170339D02*
X259842Y168339D01*
X253842Y166339D02*
X259842Y168339D01*
X-240158D02*
X-234157Y166339D01*
X-240158Y168339D02*
X-234157Y170339D01*
X-240158Y141732D02*
X259842D01*
X-240158Y-141732D02*
Y141732D01*
Y-141732D02*
X259842D01*
Y141732D01*
D36*
X-267910Y-15596D02*
Y-11597D01*
X-266910D01*
X-262912Y-15596D01*
X-261912D01*
Y-5599D02*
Y-9597D01*
X-265911Y-5599D01*
X-266910D01*
X-267910Y-6598D01*
Y-8598D01*
X-266910Y-9597D01*
X-260912Y-2600D02*
X-261912Y-1600D01*
X-262912D01*
Y-2600D01*
X-261912D01*
Y-1600D01*
X-260912Y-2600D01*
X-259913Y-3599D01*
X-266910Y2399D02*
X-267910Y3398D01*
Y5398D01*
X-266910Y6397D01*
X-262912D01*
X-261912Y5398D01*
Y3398D01*
X-262912Y2399D01*
X-266910D01*
Y8397D02*
X-267910Y9396D01*
Y11396D01*
X-266910Y12395D01*
X-262912D01*
X-261912Y11396D01*
Y9396D01*
X-262912Y8397D01*
X-266910D01*
X-8252Y163740D02*
X-6253D01*
X-7253D01*
Y169738D01*
X-8252Y168739D01*
X745Y163740D02*
X-3254D01*
X745Y167739D01*
Y168739D01*
X-255Y169738D01*
X-2254D01*
X-3254Y168739D01*
X2744Y169738D02*
X6743D01*
Y168739D01*
X2744Y164740D01*
Y163740D01*
X9742Y162741D02*
X10742Y163740D01*
Y164740D01*
X9742D01*
Y163740D01*
X10742D01*
X9742Y162741D01*
X8742Y161741D01*
X14740Y168739D02*
X15740Y169738D01*
X17739D01*
X18739Y168739D01*
Y164740D01*
X17739Y163740D01*
X15740D01*
X14740Y164740D01*
Y168739D01*
X20739D02*
X21738Y169738D01*
X23738D01*
X24737Y168739D01*
Y164740D01*
X23738Y163740D01*
X21738D01*
X20739Y164740D01*
Y168739D01*
M02*
