G04 Layer_Color=16711935*
%FSLAX25Y25*%
%MOIN*%
G70*
G01*
G75*
%ADD52C,0.12611*%
%ADD54C,0.20485*%
%ADD55C,0.08674*%
G04:AMPARAMS|DCode=56|XSize=165.48mil|YSize=86.74mil|CornerRadius=23.68mil|HoleSize=0mil|Usage=FLASHONLY|Rotation=0.000|XOffset=0mil|YOffset=0mil|HoleType=Round|Shape=RoundedRectangle|*
%AMROUNDEDRECTD56*
21,1,0.16548,0.03937,0,0,0.0*
21,1,0.11811,0.08674,0,0,0.0*
1,1,0.04737,0.05905,-0.01968*
1,1,0.04737,-0.05905,-0.01968*
1,1,0.04737,-0.05905,0.01968*
1,1,0.04737,0.05905,0.01968*
%
%ADD56ROUNDEDRECTD56*%
G04:AMPARAMS|DCode=57|XSize=165.48mil|YSize=86.74mil|CornerRadius=23.68mil|HoleSize=0mil|Usage=FLASHONLY|Rotation=90.000|XOffset=0mil|YOffset=0mil|HoleType=Round|Shape=RoundedRectangle|*
%AMROUNDEDRECTD57*
21,1,0.16548,0.03937,0,0,90.0*
21,1,0.11811,0.08674,0,0,90.0*
1,1,0.04737,0.01968,0.05905*
1,1,0.04737,0.01968,-0.05905*
1,1,0.04737,-0.01968,-0.05905*
1,1,0.04737,-0.01968,0.05905*
%
%ADD57ROUNDEDRECTD57*%
%ADD58C,0.06312*%
%ADD59C,0.10642*%
%ADD60C,0.07887*%
%ADD61C,0.07099*%
%ADD62R,0.07099X0.07099*%
%ADD63C,0.13874*%
%ADD64C,0.05800*%
D52*
X-79240Y-79185D02*
D03*
X-78740Y-18685D02*
D03*
D54*
X118110Y-118110D02*
D03*
X-118110D02*
D03*
Y118110D02*
D03*
X118110D02*
D03*
D55*
X26575Y26575D02*
D03*
Y52165D02*
D03*
X44291Y26575D02*
D03*
Y52165D02*
D03*
X128740Y-19685D02*
D03*
Y19685D02*
D03*
X88583Y-19685D02*
D03*
Y19685D02*
D03*
X78740Y0D02*
D03*
X81693Y105315D02*
D03*
Y130905D02*
D03*
X99410Y105315D02*
D03*
Y130905D02*
D03*
D56*
X-84240Y-66185D02*
D03*
X-75740Y-53685D02*
D03*
D57*
X-96457Y-43685D02*
D03*
D58*
X73740Y39370D02*
D03*
X83740D02*
D03*
X35433Y-44370D02*
D03*
Y-34370D02*
D03*
X78740D02*
D03*
Y-44370D02*
D03*
X-35433D02*
D03*
Y-34370D02*
D03*
D59*
X94488Y-118110D02*
D03*
X-62992D02*
D03*
X129921Y-74803D02*
D03*
X-27559D02*
D03*
D60*
X56929Y129921D02*
D03*
X66929D02*
D03*
X19370D02*
D03*
X29370D02*
D03*
X39370D02*
D03*
D61*
X60118Y12563D02*
D03*
X50118D02*
D03*
X60118Y-20437D02*
D03*
D62*
X50118D02*
D03*
D63*
X118110Y94488D02*
D03*
X-94488Y-118110D02*
D03*
D64*
X-82677Y23622D02*
D03*
X-94488D02*
D03*
X-46654Y12402D02*
D03*
X-19685Y-47244D02*
D03*
X-94488Y82677D02*
D03*
Y71339D02*
D03*
Y59055D02*
D03*
Y47244D02*
D03*
X39370Y-11811D02*
D03*
M02*
