G04 Layer_Physical_Order=1*
G04 Layer_Color=2232046*
%FSLAX25Y25*%
%MOIN*%
G70*
G01*
G75*
%ADD10R,0.19685X0.19685*%
%ADD11R,0.03543X0.07874*%
%ADD12R,0.07874X0.03543*%
%ADD13R,0.08268X0.06890*%
%ADD14R,0.05905X0.05118*%
%ADD15R,0.23622X0.27559*%
%ADD16R,0.06299X0.11811*%
%ADD17R,0.05118X0.05905*%
%ADD18R,0.04724X0.03150*%
G04:AMPARAMS|DCode=19|XSize=150mil|YSize=80mil|CornerRadius=20mil|HoleSize=0mil|Usage=FLASHONLY|Rotation=90.000|XOffset=0mil|YOffset=0mil|HoleType=Round|Shape=RoundedRectangle|*
%AMROUNDEDRECTD19*
21,1,0.15000,0.04000,0,0,90.0*
21,1,0.11000,0.08000,0,0,90.0*
1,1,0.04000,0.02000,0.05500*
1,1,0.04000,0.02000,-0.05500*
1,1,0.04000,-0.02000,-0.05500*
1,1,0.04000,-0.02000,0.05500*
%
%ADD19ROUNDEDRECTD19*%
%ADD20C,0.11811*%
%ADD21R,0.03150X0.04724*%
%ADD22C,0.01968*%
%ADD23C,0.02756*%
%ADD24C,0.03150*%
%ADD25C,0.03937*%
%ADD26C,0.19685*%
%ADD27C,0.07874*%
G04:AMPARAMS|DCode=28|XSize=157.48mil|YSize=78.74mil|CornerRadius=19.68mil|HoleSize=0mil|Usage=FLASHONLY|Rotation=0.000|XOffset=0mil|YOffset=0mil|HoleType=Round|Shape=RoundedRectangle|*
%AMROUNDEDRECTD28*
21,1,0.15748,0.03937,0,0,0.0*
21,1,0.11811,0.07874,0,0,0.0*
1,1,0.03937,0.05905,-0.01968*
1,1,0.03937,-0.05905,-0.01968*
1,1,0.03937,-0.05905,0.01968*
1,1,0.03937,0.05905,0.01968*
%
%ADD28ROUNDEDRECTD28*%
G04:AMPARAMS|DCode=29|XSize=157.48mil|YSize=78.74mil|CornerRadius=19.68mil|HoleSize=0mil|Usage=FLASHONLY|Rotation=90.000|XOffset=0mil|YOffset=0mil|HoleType=Round|Shape=RoundedRectangle|*
%AMROUNDEDRECTD29*
21,1,0.15748,0.03937,0,0,90.0*
21,1,0.11811,0.07874,0,0,90.0*
1,1,0.03937,0.01968,0.05905*
1,1,0.03937,0.01968,-0.05905*
1,1,0.03937,-0.01968,-0.05905*
1,1,0.03937,-0.01968,0.05905*
%
%ADD29ROUNDEDRECTD29*%
%ADD30C,0.05512*%
%ADD31C,0.09842*%
%ADD32C,0.07087*%
%ADD33C,0.06299*%
%ADD34R,0.06299X0.06299*%
%ADD35C,0.06000*%
%ADD36C,0.05000*%
G36*
X-14937Y-17717D02*
X-14956Y-17529D01*
X-15016Y-17362D01*
X-15115Y-17215D01*
X-15254Y-17087D01*
X-15432Y-16978D01*
X-15650Y-16890D01*
X-15907Y-16821D01*
X-16204Y-16772D01*
X-16541Y-16742D01*
X-16917Y-16732D01*
Y-14764D01*
X-16541Y-14754D01*
X-16204Y-14724D01*
X-15907Y-14675D01*
X-15650Y-14606D01*
X-15432Y-14518D01*
X-15254Y-14410D01*
X-15115Y-14281D01*
X-15016Y-14134D01*
X-14956Y-13966D01*
X-14937Y-13780D01*
Y-17717D01*
D02*
G37*
G36*
X-2156Y-18697D02*
X-2323Y-18757D01*
X-2471Y-18856D01*
X-2598Y-18995D01*
X-2707Y-19173D01*
X-2795Y-19391D01*
X-2864Y-19648D01*
X-2913Y-19945D01*
X-2943Y-20281D01*
X-2953Y-20657D01*
X-4921D01*
X-4931Y-20283D01*
X-4960Y-19949D01*
X-5009Y-19653D01*
X-5077Y-19397D01*
X-5164Y-19181D01*
X-5271Y-19004D01*
X-5398Y-18866D01*
X-5544Y-18767D01*
X-5709Y-18709D01*
X-5894Y-18689D01*
X-1969Y-18677D01*
X-2156Y-18697D01*
D02*
G37*
G36*
X-780Y-13966D02*
X-721Y-14134D01*
X-622Y-14281D01*
X-484Y-14410D01*
X-307Y-14518D01*
X-91Y-14606D01*
X165Y-14675D01*
X460Y-14724D01*
X795Y-14754D01*
X1169Y-14764D01*
Y-16732D01*
X795Y-16742D01*
X460Y-16772D01*
X165Y-16821D01*
X-91Y-16890D01*
X-307Y-16978D01*
X-484Y-17087D01*
X-622Y-17215D01*
X-721Y-17362D01*
X-780Y-17529D01*
X-799Y-17717D01*
Y-13780D01*
X-780Y-13966D01*
D02*
G37*
G36*
X26768D02*
X26827Y-14134D01*
X26926Y-14281D01*
X27064Y-14410D01*
X27243Y-14518D01*
X27461Y-14606D01*
X27718Y-14675D01*
X28015Y-14724D01*
X28352Y-14754D01*
X28728Y-14764D01*
Y-16732D01*
X28352Y-16742D01*
X28015Y-16772D01*
X27718Y-16821D01*
X27461Y-16890D01*
X27243Y-16978D01*
X27064Y-17087D01*
X26926Y-17215D01*
X26827Y-17362D01*
X26768Y-17529D01*
X26748Y-17717D01*
Y-13780D01*
X26768Y-13966D01*
D02*
G37*
G36*
X12610Y-17717D02*
X12591Y-17529D01*
X12532Y-17362D01*
X12433Y-17215D01*
X12296Y-17087D01*
X12118Y-16978D01*
X11902Y-16890D01*
X11646Y-16821D01*
X11351Y-16772D01*
X11016Y-16742D01*
X10642Y-16732D01*
Y-14764D01*
X11016Y-14754D01*
X11351Y-14724D01*
X11646Y-14675D01*
X11902Y-14606D01*
X12118Y-14518D01*
X12296Y-14410D01*
X12433Y-14281D01*
X12532Y-14134D01*
X12591Y-13966D01*
X12610Y-13780D01*
Y-17717D01*
D02*
G37*
G36*
X-45463Y-22830D02*
X-45630Y-22890D01*
X-45778Y-22989D01*
X-45906Y-23128D01*
X-46014Y-23306D01*
X-46102Y-23524D01*
X-46171Y-23781D01*
X-46220Y-24078D01*
X-46250Y-24415D01*
X-46260Y-24791D01*
X-48228D01*
X-48238Y-24415D01*
X-48268Y-24078D01*
X-48317Y-23781D01*
X-48386Y-23524D01*
X-48474Y-23306D01*
X-48583Y-23128D01*
X-48711Y-22989D01*
X-48858Y-22890D01*
X-49026Y-22830D01*
X-49213Y-22811D01*
X-45276D01*
X-45463Y-22830D01*
D02*
G37*
G36*
X28326Y-36476D02*
X28326Y-36476D01*
X28943Y-36949D01*
X29202Y-37057D01*
X30024Y-38697D01*
X29377Y-40222D01*
X28951Y-40688D01*
X28330Y-40430D01*
X27559Y-40329D01*
X24896D01*
X21752Y-39764D01*
X19771Y-39737D01*
X19638Y-39764D01*
X18602Y-39764D01*
X13681D01*
X13091Y-39764D01*
X10531Y-38338D01*
Y-36024D01*
X5090D01*
X4268Y-34258D01*
X6016Y-32480D01*
X8465D01*
X11614Y-32480D01*
X17520D01*
Y-30551D01*
X17560Y-30550D01*
X17615Y-30537D01*
X22388D01*
X28326Y-36476D01*
D02*
G37*
G36*
X-95463Y-34214D02*
X-95433Y-34551D01*
X-95384Y-34848D01*
X-95315Y-35105D01*
X-95226Y-35323D01*
X-95118Y-35501D01*
X-94990Y-35640D01*
X-94842Y-35739D01*
X-94675Y-35798D01*
X-94488Y-35818D01*
X-98424Y-35818D01*
X-98237Y-35798D01*
X-98070Y-35739D01*
X-97922Y-35640D01*
X-97795Y-35501D01*
X-97687Y-35323D01*
X-97598Y-35105D01*
X-97529Y-34848D01*
X-97480Y-34551D01*
X-97451Y-34214D01*
X-97441Y-33838D01*
X-95473D01*
X-95463Y-34214D01*
D02*
G37*
G36*
X106010Y-28929D02*
X106056Y-29559D01*
X106096Y-29815D01*
X106149Y-30032D01*
X106212Y-30209D01*
X106287Y-30347D01*
X106374Y-30445D01*
X106473Y-30504D01*
X106582Y-30524D01*
X103457D01*
X103567Y-30504D01*
X103665Y-30445D01*
X103752Y-30347D01*
X103827Y-30209D01*
X103891Y-30032D01*
X103943Y-29815D01*
X103983Y-29559D01*
X104012Y-29264D01*
X104035Y-28555D01*
X106004D01*
X106010Y-28929D01*
D02*
G37*
G36*
X15547Y-25778D02*
X15606Y-25945D01*
X15705Y-26092D01*
X15844Y-26221D01*
X16022Y-26329D01*
X16240Y-26417D01*
X16498Y-26486D01*
X16795Y-26535D01*
X17131Y-26565D01*
X17508Y-26575D01*
Y-28543D01*
X17131Y-28553D01*
X16795Y-28583D01*
X16498Y-28632D01*
X16240Y-28701D01*
X16022Y-28789D01*
X15844Y-28898D01*
X15705Y-29026D01*
X15606Y-29173D01*
X15547Y-29341D01*
X15527Y-29528D01*
Y-25591D01*
X15547Y-25778D01*
D02*
G37*
G36*
X1390Y-29528D02*
X1376Y-29341D01*
X1334Y-29173D01*
X1265Y-29026D01*
X1168Y-28898D01*
X1043Y-28789D01*
X890Y-28701D01*
X709Y-28632D01*
X500Y-28583D01*
X264Y-28553D01*
X0Y-28543D01*
Y-26575D01*
X264Y-26565D01*
X500Y-26535D01*
X709Y-26486D01*
X890Y-26417D01*
X1043Y-26329D01*
X1168Y-26221D01*
X1265Y-26092D01*
X1334Y-25945D01*
X1376Y-25778D01*
X1390Y-25591D01*
Y-29528D01*
D02*
G37*
G36*
X75929Y-2756D02*
X75582Y-2419D01*
X74897Y-1852D01*
X74557Y-1622D01*
X74220Y-1427D01*
X73884Y-1268D01*
X73551Y-1144D01*
X73221Y-1055D01*
X72892Y-1002D01*
X72566Y-984D01*
Y984D01*
X72892Y1002D01*
X73221Y1055D01*
X73551Y1144D01*
X73884Y1268D01*
X74220Y1427D01*
X74557Y1622D01*
X74897Y1852D01*
X75238Y2118D01*
X75582Y2419D01*
X75929Y2756D01*
Y-2756D01*
D02*
G37*
G36*
X102041Y-11765D02*
Y-25399D01*
X101476Y-28543D01*
X101450Y-30524D01*
X101476Y-30657D01*
X101476Y-31693D01*
Y-36614D01*
X101476Y-37205D01*
X100051Y-39764D01*
X97736D01*
Y-41378D01*
X97696Y-41379D01*
X97641Y-41392D01*
X84695D01*
X82103Y-38651D01*
X82106Y-38289D01*
X82219Y-37753D01*
X82381Y-37386D01*
X82867Y-36753D01*
X83343Y-35603D01*
X83505Y-34370D01*
X83343Y-33137D01*
X82867Y-31988D01*
X82110Y-31001D01*
X81123Y-30243D01*
X79974Y-29767D01*
X78740Y-29605D01*
X77507Y-29767D01*
X76358Y-30243D01*
X75394Y-30983D01*
X75391Y-30985D01*
X75389Y-30987D01*
X75371Y-31001D01*
X75362Y-31012D01*
X75257Y-31112D01*
X75181Y-31174D01*
X75108Y-31224D01*
X75039Y-31264D01*
X74969Y-31296D01*
X74897Y-31323D01*
X74818Y-31345D01*
X74729Y-31362D01*
X74628Y-31373D01*
X74440Y-31380D01*
X74390Y-31392D01*
X51352D01*
X48425Y-28465D01*
X49630Y-25555D01*
X55236D01*
Y-25555D01*
X58386Y-25259D01*
X58782Y-25423D01*
X60118Y-25599D01*
X61454Y-25423D01*
X62699Y-24908D01*
X63768Y-24087D01*
X64589Y-23018D01*
X65105Y-21773D01*
X65280Y-20437D01*
X65105Y-19101D01*
X64589Y-17856D01*
X63768Y-16787D01*
X62699Y-15966D01*
X61454Y-15451D01*
X60118Y-15275D01*
X58782Y-15451D01*
X58386Y-15615D01*
X55236Y-15319D01*
X55236Y-15319D01*
X45000D01*
Y-20925D01*
X42090Y-22130D01*
X33602Y-13642D01*
X32985Y-13169D01*
X32267Y-12871D01*
X31496Y-12770D01*
X28835D01*
X28781Y-12757D01*
X28740Y-12756D01*
Y-10827D01*
X22835D01*
X19685Y-10827D01*
X16535Y-10827D01*
X10630D01*
Y-12756D01*
X10589Y-12757D01*
X10534Y-12770D01*
X3526D01*
X1181Y-10827D01*
X986Y-9962D01*
X3495Y-6915D01*
X66929D01*
X67700Y-6814D01*
X68418Y-6516D01*
X69035Y-6043D01*
X72100Y-2978D01*
X72417D01*
X72457Y-2988D01*
X72677Y-3000D01*
X72800Y-3020D01*
X72940Y-3058D01*
X73102Y-3118D01*
X73285Y-3205D01*
X73490Y-3324D01*
X73691Y-3460D01*
X74241Y-3915D01*
X74529Y-4195D01*
X74593Y-4236D01*
X75443Y-4934D01*
X76469Y-5482D01*
X77583Y-5820D01*
X78740Y-5934D01*
X79898Y-5820D01*
X81011Y-5482D01*
X82037Y-4934D01*
X82936Y-4196D01*
X83674Y-3297D01*
X84223Y-2271D01*
X84560Y-1158D01*
X84674Y0D01*
X84560Y1158D01*
X84515Y1307D01*
X87300Y2977D01*
X102041Y-11765D01*
D02*
G37*
G36*
X-80896Y780D02*
X-81063Y721D01*
X-81211Y622D01*
X-81339Y484D01*
X-81447Y307D01*
X-81535Y91D01*
X-81604Y-165D01*
X-81653Y-460D01*
X-81683Y-795D01*
X-81693Y-1169D01*
X-83661D01*
X-83671Y-795D01*
X-83701Y-460D01*
X-83750Y-165D01*
X-83819Y91D01*
X-83908Y307D01*
X-84016Y484D01*
X-84144Y622D01*
X-84291Y721D01*
X-84459Y780D01*
X-84646Y799D01*
X-80709D01*
X-80896Y780D01*
D02*
G37*
G36*
X-107418Y5841D02*
X-107334Y5606D01*
X-107196Y5400D01*
X-107002Y5221D01*
X-106753Y5069D01*
X-106449Y4945D01*
X-106089Y4848D01*
X-105674Y4780D01*
X-105203Y4738D01*
X-104677Y4724D01*
Y1969D01*
X-105203Y1955D01*
X-105674Y1913D01*
X-106089Y1845D01*
X-106449Y1748D01*
X-106753Y1624D01*
X-107002Y1472D01*
X-107196Y1293D01*
X-107334Y1087D01*
X-107418Y852D01*
X-107445Y591D01*
Y6102D01*
X-107418Y5841D01*
D02*
G37*
G36*
X-33652Y780D02*
X-33819Y721D01*
X-33966Y622D01*
X-34095Y484D01*
X-34203Y307D01*
X-34291Y91D01*
X-34360Y-165D01*
X-34409Y-460D01*
X-34439Y-795D01*
X-34449Y-1169D01*
X-36417D01*
X-36427Y-795D01*
X-36457Y-460D01*
X-36506Y-165D01*
X-36575Y91D01*
X-36663Y307D01*
X-36772Y484D01*
X-36900Y622D01*
X-37047Y721D01*
X-37215Y780D01*
X-37402Y799D01*
X-33465D01*
X-33652Y780D01*
D02*
G37*
G36*
X-32175Y-8853D02*
X-32146Y-9189D01*
X-32096Y-9487D01*
X-32028Y-9744D01*
X-31939Y-9962D01*
X-31831Y-10140D01*
X-31703Y-10279D01*
X-31555Y-10378D01*
X-31388Y-10437D01*
X-31201Y-10457D01*
X-35138D01*
X-34951Y-10437D01*
X-34784Y-10378D01*
X-34636Y-10279D01*
X-34508Y-10140D01*
X-34400Y-9962D01*
X-34311Y-9744D01*
X-34242Y-9487D01*
X-34193Y-9189D01*
X-34163Y-8853D01*
X-34154Y-8477D01*
X-32185D01*
X-32175Y-8853D01*
D02*
G37*
G36*
X129742Y-13837D02*
X129795Y-14166D01*
X129884Y-14496D01*
X130008Y-14829D01*
X130167Y-15165D01*
X130362Y-15502D01*
X130593Y-15842D01*
X130858Y-16183D01*
X131159Y-16527D01*
X131496Y-16873D01*
X125984D01*
X126321Y-16527D01*
X126888Y-15842D01*
X127118Y-15502D01*
X127313Y-15165D01*
X127472Y-14829D01*
X127596Y-14496D01*
X127685Y-14166D01*
X127738Y-13837D01*
X127756Y-13511D01*
X129724D01*
X129742Y-13837D01*
D02*
G37*
G36*
X-19579Y-14295D02*
X-19520Y-14393D01*
X-19421Y-14480D01*
X-19284Y-14556D01*
X-19106Y-14619D01*
X-18890Y-14671D01*
X-18634Y-14712D01*
X-18339Y-14741D01*
X-17630Y-14764D01*
Y-16732D01*
X-18004Y-16738D01*
X-18634Y-16784D01*
X-18890Y-16825D01*
X-19106Y-16877D01*
X-19284Y-16941D01*
X-19421Y-17016D01*
X-19520Y-17102D01*
X-19579Y-17201D01*
X-19599Y-17311D01*
Y-14185D01*
X-19579Y-14295D01*
D02*
G37*
G36*
X-50173Y-13189D02*
X-50193Y-13002D01*
X-50252Y-12835D01*
X-50351Y-12687D01*
X-50490Y-12559D01*
X-50668Y-12451D01*
X-50886Y-12362D01*
X-51143Y-12293D01*
X-51440Y-12244D01*
X-51777Y-12215D01*
X-52153Y-12205D01*
Y-10236D01*
X-51777Y-10226D01*
X-51440Y-10197D01*
X-51143Y-10148D01*
X-50886Y-10079D01*
X-50668Y-9990D01*
X-50490Y-9882D01*
X-50351Y-9754D01*
X-50252Y-9606D01*
X-50193Y-9439D01*
X-50173Y-9252D01*
Y-13189D01*
D02*
G37*
G36*
X-2943Y-11214D02*
X-2913Y-11551D01*
X-2864Y-11848D01*
X-2795Y-12105D01*
X-2707Y-12323D01*
X-2598Y-12501D01*
X-2471Y-12640D01*
X-2323Y-12739D01*
X-2156Y-12799D01*
X-1969Y-12819D01*
X-5894Y-12807D01*
X-5709Y-12788D01*
X-5544Y-12729D01*
X-5398Y-12630D01*
X-5271Y-12492D01*
X-5164Y-12315D01*
X-5077Y-12099D01*
X-5009Y-11843D01*
X-4960Y-11547D01*
X-4931Y-11213D01*
X-4921Y-10839D01*
X-2953D01*
X-2943Y-11214D01*
D02*
G37*
G36*
X-11407Y-11215D02*
X-11378Y-11552D01*
X-11329Y-11849D01*
X-11260Y-12106D01*
X-11171Y-12324D01*
X-11063Y-12502D01*
X-10935Y-12641D01*
X-10787Y-12740D01*
X-10620Y-12799D01*
X-10433Y-12819D01*
X-14370D01*
X-14183Y-12799D01*
X-14016Y-12740D01*
X-13868Y-12641D01*
X-13740Y-12502D01*
X-13632Y-12324D01*
X-13543Y-12106D01*
X-13474Y-11849D01*
X-13425Y-11552D01*
X-13396Y-11215D01*
X-13386Y-10839D01*
X-11417D01*
X-11407Y-11215D01*
D02*
G37*
G36*
X-113030Y-49455D02*
X-112989Y-49926D01*
X-112920Y-50341D01*
X-112823Y-50701D01*
X-112699Y-51005D01*
X-112548Y-51254D01*
X-112369Y-51448D01*
X-112162Y-51587D01*
X-111928Y-51670D01*
X-111666Y-51697D01*
X-117178D01*
X-116916Y-51670D01*
X-116682Y-51587D01*
X-116475Y-51448D01*
X-116296Y-51254D01*
X-116144Y-51005D01*
X-116020Y-50701D01*
X-115924Y-50341D01*
X-115855Y-49926D01*
X-115814Y-49455D01*
X-115800Y-48929D01*
X-113044D01*
X-113030Y-49455D01*
D02*
G37*
G36*
X-93966Y-51401D02*
X-94200Y-51489D01*
X-94406Y-51636D01*
X-94584Y-51843D01*
X-94735Y-52108D01*
X-94859Y-52433D01*
X-94955Y-52816D01*
X-95024Y-53258D01*
X-95065Y-53760D01*
X-95079Y-54320D01*
X-97835D01*
X-97848Y-53760D01*
X-97890Y-53258D01*
X-97958Y-52816D01*
X-98054Y-52433D01*
X-98178Y-52108D01*
X-98329Y-51843D01*
X-98508Y-51636D01*
X-98714Y-51489D01*
X-98947Y-51401D01*
X-99208Y-51371D01*
X-93705D01*
X-93966Y-51401D01*
D02*
G37*
G36*
X-17744Y-45640D02*
X-17579Y-45770D01*
X-17403Y-45885D01*
X-17217Y-45984D01*
X-17021Y-46068D01*
X-16815Y-46137D01*
X-16598Y-46191D01*
X-16371Y-46229D01*
X-16134Y-46252D01*
X-15887Y-46260D01*
Y-48228D01*
X-16134Y-48236D01*
X-16371Y-48259D01*
X-16598Y-48297D01*
X-16815Y-48351D01*
X-17021Y-48420D01*
X-17217Y-48504D01*
X-17403Y-48604D01*
X-17579Y-48718D01*
X-17744Y-48849D01*
X-17900Y-48994D01*
Y-45494D01*
X-17744Y-45640D01*
D02*
G37*
G36*
X33465Y-46299D02*
X33276Y-46120D01*
X33078Y-45959D01*
X32873Y-45817D01*
X32659Y-45695D01*
X32437Y-45591D01*
X32207Y-45505D01*
X31969Y-45439D01*
X31722Y-45392D01*
X31468Y-45364D01*
X31205Y-45354D01*
Y-43386D01*
X31468Y-43376D01*
X31722Y-43348D01*
X31969Y-43301D01*
X32207Y-43235D01*
X32437Y-43150D01*
X32659Y-43046D01*
X32873Y-42923D01*
X33078Y-42781D01*
X33276Y-42621D01*
X33465Y-42441D01*
Y-46299D01*
D02*
G37*
G36*
X99729Y-46339D02*
X99709Y-46152D01*
X99650Y-45984D01*
X99550Y-45837D01*
X99412Y-45709D01*
X99234Y-45600D01*
X99016Y-45512D01*
X98758Y-45443D01*
X98461Y-45394D01*
X98124Y-45364D01*
X97748Y-45354D01*
Y-43386D01*
X98124Y-43376D01*
X98461Y-43347D01*
X98758Y-43297D01*
X99016Y-43228D01*
X99234Y-43140D01*
X99412Y-43031D01*
X99550Y-42904D01*
X99650Y-42756D01*
X99709Y-42589D01*
X99729Y-42402D01*
Y-46339D01*
D02*
G37*
G36*
X-126953Y-52203D02*
X-126870Y-52401D01*
X-126733Y-52577D01*
X-126540Y-52729D01*
X-126292Y-52857D01*
X-125988Y-52962D01*
X-125630Y-53044D01*
X-125217Y-53103D01*
X-124748Y-53138D01*
X-124225Y-53150D01*
Y-55905D01*
X-124748Y-55917D01*
X-125217Y-55952D01*
X-125630Y-56011D01*
X-125988Y-56093D01*
X-126292Y-56198D01*
X-126540Y-56326D01*
X-126733Y-56478D01*
X-126870Y-56654D01*
X-126953Y-56853D01*
X-126980Y-57075D01*
Y-51981D01*
X-126953Y-52203D01*
D02*
G37*
G36*
X-73971Y-102736D02*
X-73571Y-103071D01*
X-73140Y-103366D01*
X-72677Y-103622D01*
X-72182Y-103839D01*
X-71656Y-104016D01*
X-71099Y-104154D01*
X-70509Y-104252D01*
X-69888Y-104311D01*
X-69235Y-104331D01*
Y-108268D01*
X-69888Y-108287D01*
X-70509Y-108346D01*
X-71099Y-108445D01*
X-71656Y-108583D01*
X-72182Y-108760D01*
X-72677Y-108976D01*
X-73140Y-109232D01*
X-73571Y-109528D01*
X-73971Y-109862D01*
X-74339Y-110236D01*
Y-102362D01*
X-73971Y-102736D01*
D02*
G37*
G36*
X-61009Y-111137D02*
X-60965Y-111606D01*
X-60891Y-112053D01*
X-60787Y-112480D01*
X-60654Y-112885D01*
X-60492Y-113269D01*
X-60300Y-113633D01*
X-60079Y-113975D01*
X-59828Y-114296D01*
X-59547Y-114596D01*
X-66437D01*
X-66157Y-114296D01*
X-65905Y-113975D01*
X-65684Y-113633D01*
X-65492Y-113269D01*
X-65330Y-112885D01*
X-65197Y-112480D01*
X-65093Y-112053D01*
X-65020Y-111606D01*
X-64975Y-111137D01*
X-64961Y-110647D01*
X-61024D01*
X-61009Y-111137D01*
D02*
G37*
G36*
X-111679Y-74315D02*
X-111913Y-74398D01*
X-112120Y-74536D01*
X-112299Y-74730D01*
X-112451Y-74979D01*
X-112575Y-75283D01*
X-112671Y-75643D01*
X-112740Y-76059D01*
X-112782Y-76529D01*
X-112792Y-76919D01*
X-112782Y-77307D01*
X-112740Y-77776D01*
X-112671Y-78189D01*
X-112575Y-78547D01*
X-112451Y-78851D01*
X-112299Y-79099D01*
X-112120Y-79291D01*
X-111913Y-79429D01*
X-111679Y-79512D01*
X-111417Y-79540D01*
X-116929D01*
X-116667Y-79512D01*
X-116433Y-79429D01*
X-116226Y-79291D01*
X-116047Y-79099D01*
X-115896Y-78851D01*
X-115772Y-78547D01*
X-115675Y-78189D01*
X-115606Y-77776D01*
X-115565Y-77307D01*
X-115555Y-76919D01*
X-115565Y-76529D01*
X-115606Y-76059D01*
X-115675Y-75643D01*
X-115772Y-75283D01*
X-115896Y-74979D01*
X-116047Y-74730D01*
X-116226Y-74536D01*
X-116433Y-74398D01*
X-116667Y-74315D01*
X-116929Y-74287D01*
X-111417D01*
X-111679Y-74315D01*
D02*
G37*
G36*
X-118295Y-57284D02*
X-118323Y-57022D01*
X-118405Y-56787D01*
X-118543Y-56581D01*
X-118736Y-56402D01*
X-118984Y-56250D01*
X-119287Y-56126D01*
X-119646Y-56029D01*
X-120059Y-55961D01*
X-120527Y-55919D01*
X-121051Y-55905D01*
Y-53150D01*
X-120527Y-53136D01*
X-120059Y-53095D01*
X-119646Y-53026D01*
X-119287Y-52929D01*
X-118984Y-52805D01*
X-118736Y-52653D01*
X-118543Y-52474D01*
X-118405Y-52268D01*
X-118323Y-52034D01*
X-118295Y-51772D01*
Y-57284D01*
D02*
G37*
G36*
X-110036Y-68372D02*
X-109953Y-68606D01*
X-109814Y-68813D01*
X-109620Y-68992D01*
X-109371Y-69144D01*
X-109067Y-69268D01*
X-108707Y-69364D01*
X-108292Y-69433D01*
X-107821Y-69474D01*
X-107296Y-69488D01*
Y-72244D01*
X-107821Y-72258D01*
X-108292Y-72299D01*
X-108707Y-72368D01*
X-109067Y-72465D01*
X-109371Y-72589D01*
X-109620Y-72740D01*
X-109814Y-72919D01*
X-109953Y-73126D01*
X-110036Y-73360D01*
X-110063Y-73622D01*
Y-68110D01*
X-110036Y-68372D01*
D02*
G37*
G36*
X-37401Y-36299D02*
X-37591Y-36120D01*
X-37788Y-35959D01*
X-37993Y-35817D01*
X-38207Y-35695D01*
X-38429Y-35591D01*
X-38659Y-35506D01*
X-38897Y-35439D01*
X-39144Y-35392D01*
X-39398Y-35364D01*
X-39661Y-35354D01*
Y-33386D01*
X-39398Y-33376D01*
X-39144Y-33348D01*
X-38897Y-33301D01*
X-38659Y-33235D01*
X-38429Y-33150D01*
X-38207Y-33046D01*
X-37993Y-32923D01*
X-37788Y-32781D01*
X-37591Y-32620D01*
X-37401Y-32441D01*
Y-36299D01*
D02*
G37*
G36*
X-89262Y-15397D02*
X-86500Y-17142D01*
X-86652Y-18685D01*
X-86500Y-20229D01*
X-86050Y-21713D01*
X-85319Y-23081D01*
X-84335Y-24280D01*
X-83136Y-25264D01*
X-81768Y-25995D01*
X-80284Y-26445D01*
X-78740Y-26597D01*
X-77197Y-26445D01*
X-75272Y-29153D01*
X-75171Y-29621D01*
X-86257Y-40707D01*
X-90439D01*
X-90494Y-40694D01*
X-90517Y-40694D01*
Y-37780D01*
X-90653Y-36752D01*
X-91049Y-35794D01*
X-91680Y-34972D01*
X-92503Y-34341D01*
X-93460Y-33944D01*
X-93462Y-33944D01*
X-93466Y-33785D01*
X-93479Y-33730D01*
Y-18950D01*
X-89827Y-15299D01*
X-89262Y-15397D01*
D02*
G37*
G36*
X33465Y-36299D02*
X33276Y-36120D01*
X33078Y-35959D01*
X32873Y-35817D01*
X32659Y-35695D01*
X32437Y-35591D01*
X32207Y-35506D01*
X31969Y-35439D01*
X31722Y-35392D01*
X31468Y-35364D01*
X31205Y-35354D01*
Y-33386D01*
X31468Y-33376D01*
X31722Y-33348D01*
X31969Y-33301D01*
X32207Y-33235D01*
X32437Y-33150D01*
X32659Y-33046D01*
X32873Y-32923D01*
X33078Y-32781D01*
X33276Y-32620D01*
X33465Y-32441D01*
Y-36299D01*
D02*
G37*
G36*
X-107742Y-33480D02*
X-107976Y-33563D01*
X-108183Y-33701D01*
X-108362Y-33893D01*
X-108514Y-34142D01*
X-108638Y-34445D01*
X-108734Y-34803D01*
X-108803Y-35216D01*
X-108844Y-35685D01*
X-108858Y-36209D01*
X-111614D01*
X-111628Y-35685D01*
X-111669Y-35216D01*
X-111738Y-34803D01*
X-111835Y-34445D01*
X-111959Y-34142D01*
X-112110Y-33893D01*
X-112289Y-33701D01*
X-112496Y-33563D01*
X-112730Y-33480D01*
X-112992Y-33453D01*
X-107480D01*
X-107742Y-33480D01*
D02*
G37*
G36*
X76772Y-36299D02*
X76583Y-36120D01*
X76385Y-35959D01*
X76180Y-35817D01*
X75966Y-35695D01*
X75744Y-35591D01*
X75514Y-35506D01*
X75276Y-35439D01*
X75029Y-35392D01*
X74775Y-35364D01*
X74512Y-35354D01*
Y-33386D01*
X74775Y-33376D01*
X75029Y-33348D01*
X75276Y-33301D01*
X75514Y-33235D01*
X75744Y-33150D01*
X75966Y-33046D01*
X76180Y-32923D01*
X76385Y-32781D01*
X76583Y-32620D01*
X76772Y-32441D01*
Y-36299D01*
D02*
G37*
G36*
X3851Y-41130D02*
X3831Y-41020D01*
X3772Y-40921D01*
X3673Y-40835D01*
X3536Y-40760D01*
X3359Y-40696D01*
X3142Y-40644D01*
X2886Y-40603D01*
X2591Y-40574D01*
X1882Y-40551D01*
Y-38583D01*
X2256Y-38577D01*
X2886Y-38531D01*
X3142Y-38490D01*
X3359Y-38438D01*
X3536Y-38374D01*
X3673Y-38299D01*
X3772Y-38212D01*
X3831Y-38114D01*
X3851Y-38004D01*
Y-41130D01*
D02*
G37*
G36*
X-92507Y-41904D02*
X-92448Y-42071D01*
X-92349Y-42219D01*
X-92210Y-42347D01*
X-92032Y-42455D01*
X-91814Y-42543D01*
X-91556Y-42612D01*
X-91259Y-42661D01*
X-90923Y-42691D01*
X-90546Y-42701D01*
Y-44669D01*
X-90923Y-44679D01*
X-91259Y-44709D01*
X-91556Y-44758D01*
X-91814Y-44827D01*
X-92032Y-44915D01*
X-92210Y-45024D01*
X-92349Y-45152D01*
X-92448Y-45299D01*
X-92507Y-45467D01*
X-92527Y-45654D01*
Y-41717D01*
X-92507Y-41904D01*
D02*
G37*
G36*
X80898Y-42621D02*
X81095Y-42781D01*
X81301Y-42923D01*
X81514Y-43046D01*
X81736Y-43150D01*
X81966Y-43235D01*
X82205Y-43301D01*
X82451Y-43348D01*
X82705Y-43376D01*
X82968Y-43386D01*
Y-45354D01*
X82705Y-45364D01*
X82451Y-45392D01*
X82205Y-45439D01*
X81966Y-45505D01*
X81736Y-45591D01*
X81514Y-45695D01*
X81301Y-45817D01*
X81095Y-45959D01*
X80898Y-46120D01*
X80708Y-46299D01*
Y-42441D01*
X80898Y-42621D01*
D02*
G37*
G36*
X19791Y-41854D02*
X19850Y-41953D01*
X19949Y-42039D01*
X20086Y-42115D01*
X20264Y-42178D01*
X20480Y-42230D01*
X20736Y-42271D01*
X21031Y-42300D01*
X21740Y-42323D01*
Y-44291D01*
X21366Y-44297D01*
X20736Y-44343D01*
X20480Y-44384D01*
X20264Y-44436D01*
X20086Y-44500D01*
X19949Y-44575D01*
X19850Y-44662D01*
X19791Y-44760D01*
X19771Y-44870D01*
Y-41744D01*
X19791Y-41854D01*
D02*
G37*
G36*
X-792Y-37785D02*
X-732Y-37953D01*
X-633Y-38100D01*
X-495Y-38228D01*
X-316Y-38337D01*
X-98Y-38425D01*
X159Y-38494D01*
X456Y-38543D01*
X793Y-38573D01*
X1169Y-38583D01*
Y-40551D01*
X793Y-40561D01*
X456Y-40591D01*
X159Y-40640D01*
X-98Y-40709D01*
X-316Y-40797D01*
X-495Y-40905D01*
X-633Y-41034D01*
X-732Y-41181D01*
X-792Y-41348D01*
X-811Y-41535D01*
Y-37598D01*
X-792Y-37785D01*
D02*
G37*
G36*
X-10620Y-42315D02*
X-10787Y-42363D01*
X-10935Y-42443D01*
X-11063Y-42555D01*
X-11171Y-42698D01*
X-11260Y-42874D01*
X-11329Y-43082D01*
X-11378Y-43322D01*
X-11407Y-43594D01*
X-11417Y-43898D01*
X-13386D01*
X-13396Y-43594D01*
X-13425Y-43322D01*
X-13474Y-43082D01*
X-13543Y-42874D01*
X-13632Y-42698D01*
X-13740Y-42555D01*
X-13868Y-42443D01*
X-14016Y-42363D01*
X-14183Y-42315D01*
X-14370Y-42299D01*
X-10433D01*
X-10620Y-42315D01*
D02*
G37*
G36*
X-92548Y72943D02*
X-92382Y72813D01*
X-92206Y72698D01*
X-92020Y72598D01*
X-91824Y72514D01*
X-91618Y72445D01*
X-91401Y72392D01*
X-91175Y72354D01*
X-90937Y72330D01*
X-90690Y72323D01*
Y70354D01*
X-90937Y70347D01*
X-91175Y70324D01*
X-91401Y70285D01*
X-91618Y70232D01*
X-91824Y70163D01*
X-92020Y70079D01*
X-92206Y69979D01*
X-92382Y69864D01*
X-92548Y69734D01*
X-92703Y69589D01*
Y73089D01*
X-92548Y72943D01*
D02*
G37*
G36*
X-91981Y58817D02*
X-91957Y58608D01*
X-91913Y58403D01*
X-91852Y58201D01*
X-91773Y58003D01*
X-91676Y57808D01*
X-91561Y57617D01*
X-91427Y57430D01*
X-91276Y57246D01*
X-91107Y57065D01*
X-92498Y55673D01*
X-92679Y55843D01*
X-92863Y55994D01*
X-93050Y56128D01*
X-93241Y56243D01*
X-93436Y56340D01*
X-93634Y56419D01*
X-93836Y56480D01*
X-94042Y56523D01*
X-94251Y56548D01*
X-94463Y56555D01*
X-91988Y59030D01*
X-91981Y58817D01*
D02*
G37*
G36*
X-107288Y81703D02*
X-107228Y81535D01*
X-107129Y81388D01*
X-106991Y81260D01*
X-106812Y81152D01*
X-106595Y81063D01*
X-106337Y80994D01*
X-106040Y80945D01*
X-105703Y80915D01*
X-105327Y80905D01*
Y78937D01*
X-105703Y78927D01*
X-106040Y78898D01*
X-106337Y78848D01*
X-106595Y78780D01*
X-106812Y78691D01*
X-106991Y78583D01*
X-107129Y78455D01*
X-107228Y78307D01*
X-107288Y78140D01*
X-107308Y77953D01*
Y81890D01*
X-107288Y81703D01*
D02*
G37*
G36*
X-109242Y84063D02*
X-109213Y83728D01*
X-109163Y83433D01*
X-109095Y83177D01*
X-109006Y82960D01*
X-108898Y82783D01*
X-108770Y82645D01*
X-108622Y82547D01*
X-108455Y82488D01*
X-108268Y82468D01*
X-112205D01*
X-112018Y82488D01*
X-111850Y82547D01*
X-111703Y82645D01*
X-111575Y82783D01*
X-111467Y82960D01*
X-111378Y83177D01*
X-111309Y83433D01*
X-111260Y83728D01*
X-111230Y84063D01*
X-111221Y84437D01*
X-109252D01*
X-109242Y84063D01*
D02*
G37*
G36*
X-96274Y80927D02*
X-96429Y81073D01*
X-96594Y81203D01*
X-96770Y81318D01*
X-96956Y81417D01*
X-97152Y81502D01*
X-97358Y81570D01*
X-97575Y81624D01*
X-97802Y81662D01*
X-98039Y81685D01*
X-98286Y81693D01*
Y83661D01*
X-98039Y83669D01*
X-97802Y83692D01*
X-97575Y83730D01*
X-97358Y83784D01*
X-97152Y83853D01*
X-96956Y83937D01*
X-96770Y84037D01*
X-96594Y84152D01*
X-96429Y84282D01*
X-96274Y84427D01*
Y80927D01*
D02*
G37*
G36*
X99237Y37402D02*
X99217Y37589D01*
X99157Y37756D01*
X99058Y37904D01*
X98920Y38032D01*
X98742Y38140D01*
X98524Y38228D01*
X98266Y38297D01*
X97969Y38346D01*
X97632Y38376D01*
X97256Y38386D01*
Y40354D01*
X97632Y40364D01*
X97969Y40394D01*
X98266Y40443D01*
X98524Y40512D01*
X98742Y40600D01*
X98920Y40709D01*
X99058Y40837D01*
X99157Y40984D01*
X99217Y41152D01*
X99237Y41339D01*
Y37402D01*
D02*
G37*
G36*
X112608Y36421D02*
X112441Y36362D01*
X112293Y36263D01*
X112165Y36125D01*
X112057Y35946D01*
X111969Y35728D01*
X111900Y35471D01*
X111850Y35174D01*
X111821Y34837D01*
X111811Y34461D01*
X109843D01*
X109833Y34837D01*
X109803Y35174D01*
X109754Y35471D01*
X109685Y35728D01*
X109597Y35946D01*
X109488Y36125D01*
X109360Y36263D01*
X109213Y36362D01*
X109045Y36421D01*
X108858Y36441D01*
X112795D01*
X112608Y36421D01*
D02*
G37*
G36*
X85898Y41120D02*
X86095Y40959D01*
X86301Y40817D01*
X86514Y40694D01*
X86736Y40591D01*
X86966Y40505D01*
X87204Y40439D01*
X87451Y40392D01*
X87705Y40364D01*
X87968Y40354D01*
Y38386D01*
X87705Y38376D01*
X87451Y38348D01*
X87204Y38301D01*
X86966Y38235D01*
X86736Y38150D01*
X86514Y38046D01*
X86301Y37923D01*
X86095Y37781D01*
X85898Y37620D01*
X85708Y37441D01*
Y41299D01*
X85898Y41120D01*
D02*
G37*
G36*
X-91107Y49234D02*
X-91276Y49053D01*
X-91427Y48870D01*
X-91561Y48682D01*
X-91676Y48491D01*
X-91773Y48296D01*
X-91852Y48098D01*
X-91913Y47896D01*
X-91957Y47691D01*
X-91981Y47482D01*
X-91988Y47269D01*
X-94463Y49744D01*
X-94251Y49751D01*
X-94042Y49776D01*
X-93836Y49819D01*
X-93634Y49880D01*
X-93436Y49959D01*
X-93241Y50056D01*
X-93050Y50172D01*
X-92863Y50305D01*
X-92679Y50456D01*
X-92498Y50626D01*
X-91107Y49234D01*
D02*
G37*
G36*
X51453Y130555D02*
X51370Y129921D01*
X51559Y128482D01*
X52115Y127142D01*
X52998Y125990D01*
X53049Y125951D01*
X53250Y125743D01*
X53425Y125540D01*
X53569Y125350D01*
X53684Y125173D01*
X53773Y125012D01*
X53838Y124867D01*
X53884Y124735D01*
X53913Y124614D01*
X53930Y124502D01*
X53940Y124293D01*
X53951Y124251D01*
Y101470D01*
X10650Y58169D01*
X10177Y57552D01*
X9879Y56834D01*
X9778Y56063D01*
Y49423D01*
X4672Y44317D01*
X-1575D01*
Y47598D01*
Y52598D01*
Y57598D01*
Y62598D01*
Y67598D01*
X-1535D01*
Y72598D01*
Y77598D01*
Y83360D01*
X7598D01*
X8369Y83462D01*
X9087Y83759D01*
X9704Y84233D01*
X41476Y116005D01*
X41950Y116621D01*
X42247Y117340D01*
X42298Y117725D01*
X42349Y118111D01*
X42349Y118111D01*
Y124251D01*
X42359Y124293D01*
X42369Y124502D01*
X42386Y124615D01*
X42416Y124735D01*
X42461Y124867D01*
X42527Y125013D01*
X42615Y125174D01*
X42730Y125350D01*
X42874Y125540D01*
X43049Y125743D01*
X43250Y125951D01*
X43301Y125990D01*
X44185Y127142D01*
X44740Y128482D01*
X44929Y129921D01*
X44846Y130555D01*
X46820Y133074D01*
X49479D01*
X51453Y130555D01*
D02*
G37*
G36*
X41566Y127097D02*
X41312Y126802D01*
X41088Y126505D01*
X40893Y126207D01*
X40729Y125908D01*
X40594Y125607D01*
X40489Y125305D01*
X40414Y125002D01*
X40370Y124697D01*
X40355Y124391D01*
X38386Y124391D01*
X38371Y124697D01*
X38326Y125002D01*
X38252Y125305D01*
X38147Y125607D01*
X38012Y125908D01*
X37848Y126207D01*
X37653Y126505D01*
X37429Y126802D01*
X37174Y127097D01*
X36890Y127391D01*
X41851Y127391D01*
X41566Y127097D01*
D02*
G37*
G36*
X-113165Y97047D02*
X-113185Y97234D01*
X-113244Y97402D01*
X-113343Y97549D01*
X-113482Y97677D01*
X-113660Y97785D01*
X-113878Y97874D01*
X-114135Y97943D01*
X-114433Y97992D01*
X-114769Y98022D01*
X-115146Y98032D01*
Y100000D01*
X-114769Y100010D01*
X-114433Y100039D01*
X-114135Y100089D01*
X-113878Y100157D01*
X-113660Y100246D01*
X-113482Y100354D01*
X-113343Y100482D01*
X-113244Y100630D01*
X-113185Y100797D01*
X-113165Y100984D01*
Y97047D01*
D02*
G37*
G36*
X31566Y127097D02*
X31312Y126802D01*
X31087Y126505D01*
X30893Y126207D01*
X30729Y125908D01*
X30594Y125607D01*
X30489Y125305D01*
X30414Y125002D01*
X30369Y124697D01*
X30354Y124391D01*
X28386Y124391D01*
X28371Y124697D01*
X28326Y125002D01*
X28251Y125305D01*
X28147Y125607D01*
X28012Y125908D01*
X27847Y126207D01*
X27653Y126505D01*
X27428Y126802D01*
X27174Y127097D01*
X26890Y127391D01*
X31850Y127391D01*
X31566Y127097D01*
D02*
G37*
G36*
X133858Y27107D02*
X133692Y26880D01*
X131386Y25407D01*
X130709Y25259D01*
X129898Y25505D01*
X128740Y25619D01*
X127583Y25505D01*
X126469Y25167D01*
X125443Y24619D01*
X124544Y23881D01*
X123806Y22982D01*
X123258Y21956D01*
X122920Y20843D01*
X122806Y19685D01*
X122920Y18527D01*
X123258Y17414D01*
X123806Y16388D01*
X124544Y15489D01*
X125443Y14751D01*
X126469Y14203D01*
X127583Y13865D01*
X128740Y13751D01*
X129898Y13865D01*
X130709Y14111D01*
X131386Y13963D01*
X133692Y12489D01*
X133858Y12263D01*
Y-7373D01*
X131302Y-8350D01*
X130709Y-8387D01*
X113805Y8517D01*
Y34354D01*
X113817Y34408D01*
X113819Y34449D01*
X115354D01*
Y44291D01*
X109449D01*
X106299Y44291D01*
X103150Y44291D01*
X97244D01*
Y42362D01*
X97204Y42361D01*
X97149Y42348D01*
X88090D01*
X88040Y42360D01*
X87853Y42367D01*
X87751Y42378D01*
X87663Y42395D01*
X87584Y42417D01*
X87511Y42444D01*
X87442Y42476D01*
X87372Y42516D01*
X87300Y42566D01*
X87223Y42629D01*
X87119Y42728D01*
X87110Y42740D01*
X87092Y42753D01*
X87089Y42756D01*
X87086Y42758D01*
X86123Y43497D01*
X84974Y43973D01*
X83740Y44135D01*
X82507Y43973D01*
X81358Y43497D01*
X80371Y42740D01*
X79613Y41753D01*
X79137Y40603D01*
X78975Y39370D01*
X79137Y38137D01*
X79613Y36988D01*
X80371Y36001D01*
X81358Y35243D01*
X82507Y34767D01*
X83740Y34605D01*
X84974Y34767D01*
X86123Y35243D01*
X87086Y35983D01*
X87089Y35985D01*
X87092Y35987D01*
X87110Y36001D01*
X87119Y36013D01*
X87223Y36112D01*
X87300Y36174D01*
X87372Y36224D01*
X87442Y36264D01*
X87511Y36296D01*
X87584Y36323D01*
X87663Y36345D01*
X87751Y36362D01*
X87853Y36373D01*
X88040Y36380D01*
X88090Y36392D01*
X97149D01*
X97204Y36380D01*
X97244Y36378D01*
Y34449D01*
X103150D01*
X104739Y34449D01*
X106329Y34400D01*
X107849Y31941D01*
Y7283D01*
X107950Y6513D01*
X108248Y5794D01*
X108721Y5178D01*
X125762Y-11863D01*
Y-13362D01*
X125752Y-13402D01*
X125740Y-13622D01*
X125720Y-13745D01*
X125682Y-13885D01*
X125622Y-14047D01*
X125535Y-14230D01*
X125416Y-14435D01*
X125280Y-14636D01*
X124826Y-15186D01*
X124545Y-15474D01*
X124504Y-15538D01*
X123806Y-16388D01*
X123258Y-17414D01*
X122920Y-18527D01*
X122806Y-19685D01*
X122920Y-20843D01*
X123258Y-21956D01*
X123806Y-22982D01*
X124544Y-23881D01*
X125443Y-24619D01*
X126469Y-25167D01*
X127583Y-25505D01*
X128740Y-25619D01*
X129898Y-25505D01*
X130709Y-25259D01*
X131386Y-25407D01*
X133692Y-26880D01*
X133858Y-27107D01*
Y-133858D01*
X-71064D01*
X-71359Y-133535D01*
X-72431Y-130709D01*
X-72162Y-130380D01*
X-71430Y-129012D01*
X-70980Y-127528D01*
X-70828Y-125984D01*
X-70980Y-124441D01*
X-71095Y-124062D01*
X-68263Y-122548D01*
X-67888Y-123006D01*
X-66838Y-123867D01*
X-65641Y-124506D01*
X-64343Y-124900D01*
X-62992Y-125033D01*
X-61642Y-124900D01*
X-60343Y-124506D01*
X-59146Y-123867D01*
X-58097Y-123006D01*
X-57236Y-121957D01*
X-56596Y-120760D01*
X-56202Y-119461D01*
X-56069Y-118110D01*
X-56202Y-116760D01*
X-56596Y-115461D01*
X-57236Y-114264D01*
X-58059Y-113261D01*
X-58081Y-113225D01*
X-58301Y-112990D01*
X-58442Y-112809D01*
X-58567Y-112617D01*
X-58677Y-112408D01*
X-58773Y-112181D01*
X-58855Y-111930D01*
X-58923Y-111653D01*
X-58973Y-111347D01*
X-59005Y-111012D01*
X-59017Y-110587D01*
X-59021Y-110571D01*
Y-110236D01*
X-59157Y-109209D01*
X-59553Y-108251D01*
X-60184Y-107428D01*
X-64121Y-103491D01*
X-64944Y-102860D01*
X-65901Y-102464D01*
X-66929Y-102328D01*
X-69159D01*
X-69175Y-102324D01*
X-69763Y-102307D01*
X-70249Y-102261D01*
X-70692Y-102187D01*
X-71094Y-102087D01*
X-71458Y-101965D01*
X-71787Y-101821D01*
X-72085Y-101656D01*
X-72357Y-101470D01*
X-72608Y-101260D01*
X-72908Y-100955D01*
X-72915Y-100950D01*
X-72919Y-100943D01*
X-72987Y-100898D01*
X-73146Y-100705D01*
X-74344Y-99721D01*
X-75712Y-98989D01*
X-77197Y-98539D01*
X-78740Y-98387D01*
X-80284Y-98539D01*
X-81768Y-98989D01*
X-83136Y-99721D01*
X-84335Y-100705D01*
X-85319Y-101903D01*
X-86050Y-103271D01*
X-86500Y-104756D01*
X-86652Y-106299D01*
X-86500Y-107843D01*
X-86050Y-109327D01*
X-85319Y-110695D01*
X-84335Y-111894D01*
X-83136Y-112878D01*
X-81768Y-113609D01*
X-80284Y-114059D01*
X-78740Y-114211D01*
X-77197Y-114059D01*
X-75712Y-113609D01*
X-74344Y-112878D01*
X-73146Y-111894D01*
X-72987Y-111700D01*
X-72919Y-111655D01*
X-72915Y-111648D01*
X-72908Y-111644D01*
X-72608Y-111339D01*
X-72357Y-111129D01*
X-72113Y-110962D01*
X-72041Y-110954D01*
X-70371Y-111405D01*
X-69952Y-111590D01*
X-69567Y-111834D01*
X-68717Y-112571D01*
X-68430Y-113876D01*
X-68748Y-114264D01*
X-69388Y-115461D01*
X-69782Y-116760D01*
X-69915Y-118110D01*
X-69782Y-119461D01*
X-69752Y-119559D01*
X-72584Y-121073D01*
X-73146Y-120389D01*
X-74344Y-119406D01*
X-75712Y-118674D01*
X-77197Y-118224D01*
X-78740Y-118072D01*
X-80284Y-118224D01*
X-81768Y-118674D01*
X-83136Y-119406D01*
X-84335Y-120389D01*
X-85319Y-121589D01*
X-86050Y-122956D01*
X-86312Y-123821D01*
X-85824Y-123701D01*
X-85298Y-123524D01*
X-84803Y-123307D01*
X-84341Y-123051D01*
X-83909Y-122756D01*
X-83510Y-122421D01*
X-83142Y-122047D01*
Y-129921D01*
X-83510Y-129547D01*
X-83909Y-129213D01*
X-84341Y-128917D01*
X-84803Y-128661D01*
X-85298Y-128445D01*
X-85824Y-128268D01*
X-86312Y-128147D01*
X-86050Y-129012D01*
X-85319Y-130380D01*
X-85049Y-130709D01*
X-86121Y-133535D01*
X-86416Y-133858D01*
X-133858D01*
Y-59055D01*
X-128150D01*
X-127262Y-59055D01*
X-127228Y-59066D01*
X-127061Y-59066D01*
X-126980Y-59082D01*
X-125000Y-59055D01*
X-123425Y-58476D01*
X-120276Y-60392D01*
Y-60532D01*
X-108071D01*
Y-49705D01*
X-110991D01*
X-110996Y-49673D01*
X-111025Y-49341D01*
X-111037Y-48877D01*
X-111046Y-48837D01*
Y-44954D01*
X-107850Y-41757D01*
X-107313Y-41058D01*
X-106976Y-40244D01*
X-106861Y-39370D01*
Y-36301D01*
X-106852Y-36261D01*
X-106840Y-35800D01*
X-106811Y-35470D01*
X-106805Y-35433D01*
X-105118D01*
Y-19685D01*
X-115354D01*
Y-35433D01*
X-115086D01*
X-114222Y-38583D01*
X-116808Y-41169D01*
X-117345Y-41868D01*
X-117682Y-42682D01*
X-117797Y-43556D01*
Y-48837D01*
X-117806Y-48877D01*
X-117818Y-49341D01*
X-117847Y-49673D01*
X-117853Y-49705D01*
X-120276D01*
Y-51096D01*
X-120312Y-51102D01*
X-120642Y-51131D01*
X-121104Y-51143D01*
X-121144Y-51152D01*
X-124138D01*
X-124180Y-51143D01*
X-124651Y-51133D01*
X-125000Y-51106D01*
X-125000Y-50000D01*
X-126980Y-49973D01*
X-127061Y-49990D01*
X-127228Y-49989D01*
X-127262Y-50000D01*
X-133858D01*
Y-15421D01*
X-133012Y-12622D01*
X-130709Y-12622D01*
X-105453D01*
Y-84D01*
X-105421Y-79D01*
X-105089Y-50D01*
X-104625Y-38D01*
X-104585Y-29D01*
X-100271D01*
X-100230Y-38D01*
X-99759Y-49D01*
X-99410Y-75D01*
X-99410Y-1181D01*
X-97429Y-1208D01*
X-97348Y-1192D01*
X-97182Y-1192D01*
X-97148Y-1181D01*
X-90748D01*
X-89567Y-1181D01*
X-87598D01*
X-87283Y-4331D01*
X-98563Y-15611D01*
X-99036Y-16227D01*
X-99334Y-16946D01*
X-99435Y-17717D01*
Y-33730D01*
X-99447Y-33785D01*
X-99452Y-33944D01*
X-99453Y-33944D01*
X-100411Y-34341D01*
X-101233Y-34972D01*
X-101864Y-35794D01*
X-102261Y-36752D01*
X-102396Y-37780D01*
Y-49591D01*
X-102261Y-50618D01*
X-101864Y-51576D01*
X-101233Y-52399D01*
X-100411Y-53030D01*
X-100184Y-53123D01*
X-100180Y-53127D01*
X-100158Y-53134D01*
X-100038Y-53184D01*
X-99976Y-53225D01*
X-99924Y-53236D01*
X-99884Y-53495D01*
X-99853Y-53866D01*
X-99841Y-54369D01*
X-99832Y-54409D01*
Y-59626D01*
X-105137Y-64931D01*
X-108071Y-65453D01*
Y-65453D01*
X-120276D01*
Y-76279D01*
X-120276D01*
X-119095Y-77559D01*
Y-86614D01*
X-109252D01*
Y-77559D01*
X-108071Y-76279D01*
X-105793Y-74175D01*
X-105426Y-74126D01*
X-104612Y-73789D01*
X-103912Y-73253D01*
X-94070Y-63410D01*
X-93534Y-62711D01*
X-93196Y-61897D01*
X-93081Y-61024D01*
Y-54409D01*
X-93072Y-54369D01*
X-93060Y-53866D01*
X-93029Y-53495D01*
X-92989Y-53236D01*
X-92937Y-53225D01*
X-92875Y-53184D01*
X-92755Y-53134D01*
X-92734Y-53127D01*
X-92729Y-53123D01*
X-92503Y-53030D01*
X-91680Y-52399D01*
X-91049Y-51576D01*
X-90653Y-50618D01*
X-90517Y-49591D01*
Y-46676D01*
X-90494Y-46676D01*
X-90439Y-46663D01*
X-85024D01*
X-84253Y-46562D01*
X-83534Y-46264D01*
X-82918Y-45791D01*
X-55315Y-18188D01*
X-52165Y-19493D01*
Y-24803D01*
X-50236D01*
X-50235Y-24844D01*
X-50222Y-24898D01*
Y-31496D01*
X-50121Y-32267D01*
X-49823Y-32985D01*
X-49350Y-33602D01*
X-46476Y-36476D01*
X-45859Y-36949D01*
X-45141Y-37247D01*
X-44370Y-37348D01*
X-44370Y-37348D01*
X-39783D01*
X-39733Y-37360D01*
X-39546Y-37367D01*
X-39444Y-37378D01*
X-39356Y-37395D01*
X-39277Y-37417D01*
X-39204Y-37444D01*
X-39135Y-37477D01*
X-39065Y-37516D01*
X-38993Y-37566D01*
X-38916Y-37629D01*
X-38812Y-37728D01*
X-38803Y-37740D01*
X-38785Y-37753D01*
X-38782Y-37756D01*
X-38779Y-37758D01*
X-37816Y-38497D01*
X-36666Y-38973D01*
X-35433Y-39135D01*
X-34200Y-38973D01*
X-33051Y-38497D01*
X-32064Y-37740D01*
X-31306Y-36753D01*
X-30830Y-35603D01*
X-30668Y-34370D01*
X-30830Y-33137D01*
X-31306Y-31988D01*
X-32064Y-31001D01*
X-33051Y-30243D01*
X-34200Y-29767D01*
X-35433Y-29605D01*
X-36666Y-29767D01*
X-37816Y-30243D01*
X-38779Y-30983D01*
X-38782Y-30985D01*
X-38785Y-30987D01*
X-38803Y-31001D01*
X-38812Y-31012D01*
X-38916Y-31112D01*
X-38993Y-31174D01*
X-39065Y-31224D01*
X-39135Y-31264D01*
X-39204Y-31296D01*
X-39277Y-31323D01*
X-39356Y-31345D01*
X-39444Y-31362D01*
X-39546Y-31373D01*
X-39733Y-31380D01*
X-39783Y-31392D01*
X-43136D01*
X-44266Y-30262D01*
Y-24898D01*
X-44254Y-24844D01*
X-44252Y-24803D01*
X-42323D01*
Y-18898D01*
X-42323Y-15748D01*
X-42323Y-12598D01*
Y-6693D01*
X-52165D01*
X-52559Y-8242D01*
X-53330Y-8344D01*
X-54048Y-8641D01*
X-54665Y-9115D01*
X-54665Y-9115D01*
X-67805Y-22254D01*
X-68273Y-22153D01*
X-70980Y-20229D01*
X-70828Y-18685D01*
X-70980Y-17142D01*
X-71430Y-15657D01*
X-72162Y-14289D01*
X-73146Y-13090D01*
X-74344Y-12106D01*
X-75712Y-11375D01*
X-77197Y-10925D01*
X-78740Y-10773D01*
X-80284Y-10925D01*
X-82028Y-8163D01*
X-82126Y-7598D01*
X-80571Y-6043D01*
X-80098Y-5426D01*
X-79800Y-4708D01*
X-79699Y-3937D01*
X-78741Y-1181D01*
X-77756D01*
X-77756Y5540D01*
X-75787Y7874D01*
X-74606Y7874D01*
X-65945D01*
Y7874D01*
X-63976Y7874D01*
X-63976Y7874D01*
X-54134D01*
Y10856D01*
X-51007Y11235D01*
X-50557Y10148D01*
X-49841Y9215D01*
X-48907Y8498D01*
X-47820Y8048D01*
X-46654Y7895D01*
X-45487Y8048D01*
X-44400Y8498D01*
X-43531Y9165D01*
X-43496Y9187D01*
X-42815Y9137D01*
X-42070Y8846D01*
X-41818Y8668D01*
X-40354Y7552D01*
Y-1181D01*
X-38425D01*
X-38424Y-1222D01*
X-38411Y-1277D01*
Y-3937D01*
X-38310Y-4708D01*
X-38012Y-5426D01*
X-37953Y-5503D01*
X-37500Y-8465D01*
X-37500D01*
Y-15551D01*
X-29429D01*
X-28839Y-15551D01*
X-26280Y-16977D01*
Y-19291D01*
X-19732D01*
X-19599Y-19318D01*
X-16929Y-20669D01*
Y-20669D01*
X-7874D01*
X-6915Y-23422D01*
Y-23622D01*
X-6814Y-24393D01*
X-6516Y-25111D01*
X-6043Y-25728D01*
X-2106Y-29665D01*
X-2106Y-29665D01*
X-1881Y-29837D01*
X-1597Y-31849D01*
X-3542Y-34449D01*
X-7874Y-34449D01*
X-11024Y-34449D01*
X-16929D01*
Y-40140D01*
X-17272Y-40733D01*
X-19685Y-42737D01*
X-20852Y-42891D01*
X-21939Y-43341D01*
X-22872Y-44057D01*
X-23588Y-44991D01*
X-24038Y-46078D01*
X-24192Y-47244D01*
X-24038Y-48411D01*
X-23588Y-49498D01*
X-22872Y-50431D01*
X-21939Y-51147D01*
X-20852Y-51598D01*
X-19685Y-51751D01*
X-18519Y-51598D01*
X-17432Y-51147D01*
X-16563Y-50481D01*
X-16527Y-50459D01*
X-16435Y-50372D01*
X-16407Y-50350D01*
X-16378Y-50331D01*
X-16346Y-50314D01*
X-16306Y-50297D01*
X-16255Y-50280D01*
X-16190Y-50264D01*
X-16107Y-50250D01*
X-16006Y-50240D01*
X-15825Y-50234D01*
X-15772Y-50222D01*
X-15748D01*
X-14977Y-50121D01*
X-14259Y-49823D01*
X-13642Y-49350D01*
X-10309Y-46017D01*
X-9747Y-45619D01*
X-8873Y-45006D01*
X-7323Y-44383D01*
X-6615Y-44291D01*
X-4724Y-44291D01*
X1181D01*
Y-44291D01*
X3852Y-43137D01*
X3984Y-43110D01*
X9941D01*
X10531Y-43110D01*
X13091Y-44536D01*
Y-46850D01*
X18602D01*
X19638Y-46850D01*
X19771Y-46877D01*
X21752Y-46850D01*
X24896Y-46285D01*
X26325D01*
X26516Y-46476D01*
X26516Y-46476D01*
X27133Y-46949D01*
X27851Y-47247D01*
X28622Y-47348D01*
X31083D01*
X31133Y-47360D01*
X31321Y-47367D01*
X31422Y-47378D01*
X31510Y-47395D01*
X31589Y-47417D01*
X31662Y-47444D01*
X31732Y-47477D01*
X31801Y-47517D01*
X31873Y-47566D01*
X31950Y-47629D01*
X32054Y-47728D01*
X32064Y-47740D01*
X32081Y-47753D01*
X32084Y-47756D01*
X32087Y-47758D01*
X33051Y-48497D01*
X34200Y-48973D01*
X35433Y-49135D01*
X36666Y-48973D01*
X37816Y-48497D01*
X38803Y-47740D01*
X39560Y-46753D01*
X40036Y-45603D01*
X40198Y-44370D01*
X40036Y-43137D01*
X39560Y-41987D01*
X39074Y-41354D01*
X38912Y-40987D01*
X38803Y-40470D01*
Y-38271D01*
X38912Y-37753D01*
X39074Y-37386D01*
X39560Y-36753D01*
X40036Y-35603D01*
X40198Y-34370D01*
X40036Y-33137D01*
X39907Y-32825D01*
X42577Y-31040D01*
X48012Y-36476D01*
X48012Y-36476D01*
X48629Y-36949D01*
X49347Y-37247D01*
X50118Y-37348D01*
X50118Y-37348D01*
X72785D01*
X75377Y-40089D01*
X75373Y-40734D01*
X75099Y-41354D01*
X74613Y-41987D01*
X74137Y-43137D01*
X73975Y-44370D01*
X74137Y-45603D01*
X74613Y-46753D01*
X75371Y-47740D01*
X76358Y-48497D01*
X77507Y-48973D01*
X78740Y-49135D01*
X79974Y-48973D01*
X81123Y-48497D01*
X82086Y-47758D01*
X82089Y-47756D01*
X82092Y-47753D01*
X82110Y-47740D01*
X82119Y-47728D01*
X82223Y-47629D01*
X82300Y-47566D01*
X82372Y-47517D01*
X82442Y-47477D01*
X82511Y-47444D01*
X82584Y-47417D01*
X82663Y-47395D01*
X82751Y-47378D01*
X82853Y-47367D01*
X83040Y-47360D01*
X83090Y-47348D01*
X97641D01*
X97696Y-47361D01*
X97736Y-47362D01*
Y-48425D01*
X104823D01*
Y-40354D01*
X104823Y-39764D01*
X106248Y-37205D01*
X108563D01*
Y-31693D01*
X108563Y-30657D01*
X108590Y-30524D01*
X108563Y-28543D01*
X107998Y-25399D01*
Y-10531D01*
X107896Y-9761D01*
X107599Y-9042D01*
X107126Y-8426D01*
X107126Y-8426D01*
X88063Y10637D01*
X88282Y11952D01*
X89330Y13825D01*
X89740Y13865D01*
X90854Y14203D01*
X91879Y14751D01*
X92779Y15489D01*
X93517Y16388D01*
X94065Y17414D01*
X94403Y18527D01*
X94517Y19685D01*
X94403Y20843D01*
X94065Y21956D01*
X93517Y22982D01*
X92779Y23881D01*
X91879Y24619D01*
X90854Y25167D01*
X89740Y25505D01*
X88583Y25619D01*
X87425Y25505D01*
X86312Y25167D01*
X85286Y24619D01*
X84387Y23881D01*
X83649Y22982D01*
X83100Y21956D01*
X82763Y20843D01*
X82722Y20432D01*
X80850Y19385D01*
X79535Y19165D01*
X57224Y41476D01*
X56607Y41949D01*
X55889Y42247D01*
X55118Y42348D01*
X19960D01*
X19189Y42247D01*
X18471Y41949D01*
X17854Y41476D01*
X2515Y26137D01*
X-0Y24606D01*
X-9055D01*
Y22677D01*
X-9096Y22676D01*
X-9150Y22663D01*
X-55768D01*
X-56417Y23622D01*
X-54746Y26772D01*
X-19410D01*
Y38583D01*
X-59409D01*
Y38622D01*
X-66890D01*
Y26811D01*
X-66128D01*
Y23779D01*
X-66026Y23009D01*
X-65729Y22290D01*
X-65255Y21674D01*
X-63661Y20079D01*
X-63976Y16929D01*
X-65945D01*
X-65945Y16929D01*
X-75787D01*
Y16929D01*
X-77756D01*
X-79531Y19322D01*
X-79667Y19886D01*
X-79671Y20044D01*
X-79658Y20127D01*
X-79641Y20192D01*
X-79624Y20243D01*
X-79607Y20283D01*
X-79590Y20315D01*
X-79571Y20344D01*
X-79549Y20372D01*
X-79463Y20464D01*
X-79441Y20500D01*
X-78774Y21369D01*
X-78324Y22456D01*
X-78170Y23622D01*
X-78324Y24789D01*
X-78774Y25876D01*
X-79490Y26809D01*
X-80424Y27525D01*
X-81511Y27975D01*
X-82677Y28129D01*
X-83844Y27975D01*
X-84931Y27525D01*
X-85864Y26809D01*
X-86580Y25876D01*
X-87031Y24789D01*
X-90135D01*
X-90585Y25876D01*
X-91301Y26809D01*
X-92235Y27525D01*
X-93322Y27975D01*
X-94488Y28129D01*
X-95655Y27975D01*
X-96742Y27525D01*
X-97675Y26809D01*
X-98391Y25876D01*
X-98842Y24789D01*
X-98995Y23622D01*
X-98842Y22456D01*
X-98391Y21369D01*
X-97725Y20500D01*
X-97703Y20464D01*
X-97616Y20372D01*
X-97594Y20344D01*
X-97576Y20315D01*
X-97558Y20283D01*
X-97541Y20243D01*
X-97524Y20192D01*
X-97508Y20127D01*
X-97494Y20044D01*
X-97498Y19886D01*
X-97635Y19322D01*
X-98484Y16929D01*
X-99409D01*
Y9707D01*
X-99410Y7874D01*
X-102082Y6722D01*
X-104585D01*
X-104625Y6731D01*
X-105089Y6743D01*
X-105421Y6772D01*
X-105453Y6777D01*
Y18874D01*
X-111635D01*
X-112345Y19360D01*
X-112646Y19638D01*
X-112907Y19966D01*
X-113191Y20471D01*
X-113770Y22024D01*
X-113747Y22083D01*
X-113573Y22449D01*
X-113369Y22817D01*
X-113133Y23187D01*
X-112831Y23603D01*
X-112783Y23709D01*
X-112727Y23781D01*
X-112678Y23899D01*
X-112603Y24012D01*
X-112576Y24146D01*
X-112519Y24284D01*
X-112504Y24315D01*
X-112504Y24319D01*
X-112327Y24747D01*
X-112191Y25783D01*
Y36783D01*
X-112327Y37819D01*
X-112727Y38784D01*
X-113363Y39613D01*
X-114192Y40249D01*
X-115157Y40649D01*
X-116193Y40786D01*
X-120194D01*
X-121229Y40649D01*
X-122195Y40249D01*
X-123024Y39613D01*
X-123198Y39386D01*
X-125711Y39874D01*
X-126347Y40212D01*
Y93008D01*
X-124888Y94468D01*
X-124803Y94488D01*
X-118307D01*
X-117126Y94488D01*
X-115157Y92154D01*
Y85433D01*
X-115157D01*
X-115157Y84449D01*
X-115157Y84449D01*
Y75394D01*
X-105315D01*
Y76930D01*
X-105274Y76931D01*
X-105220Y76943D01*
X-101181D01*
X-100410Y77044D01*
X-99692Y77342D01*
X-99476Y77508D01*
X-99084Y77414D01*
X-98281Y75767D01*
X-98184Y75378D01*
X-98343Y73655D01*
X-98391Y73592D01*
X-98842Y72505D01*
X-98995Y71339D01*
X-98842Y70172D01*
X-98391Y69085D01*
X-97675Y68152D01*
X-96742Y67435D01*
X-95655Y66985D01*
X-94488Y66831D01*
X-93172Y65197D01*
X-94488Y63562D01*
X-95655Y63409D01*
X-96742Y62958D01*
X-97675Y62242D01*
X-98391Y61309D01*
X-98842Y60222D01*
X-98995Y59055D01*
X-98842Y57889D01*
X-98391Y56802D01*
X-97675Y55868D01*
X-96742Y55152D01*
X-95655Y54702D01*
Y51598D01*
X-96742Y51147D01*
X-97675Y50431D01*
X-98391Y49498D01*
X-98842Y48411D01*
X-98995Y47244D01*
X-98842Y46078D01*
X-98391Y44991D01*
X-97675Y44057D01*
X-96742Y43341D01*
X-95655Y42891D01*
X-94488Y42737D01*
X-93322Y42891D01*
X-92913Y43060D01*
X-92317Y42972D01*
X-91029Y42329D01*
X-89764Y41267D01*
Y37598D01*
X-77953D01*
Y42598D01*
Y47598D01*
Y52598D01*
Y57598D01*
Y62598D01*
Y67598D01*
X-77913D01*
Y72598D01*
Y77598D01*
Y82598D01*
Y87598D01*
Y92598D01*
Y97598D01*
Y105079D01*
X-89724D01*
Y104317D01*
X-99449D01*
X-100220Y104215D01*
X-100938Y103918D01*
X-101555Y103445D01*
X-101555Y103445D01*
X-102165Y102834D01*
X-105315Y103543D01*
Y103543D01*
X-114700D01*
X-115073Y106693D01*
X-114449Y106843D01*
X-112732Y107554D01*
X-111146Y108525D01*
X-109733Y109733D01*
X-108525Y111146D01*
X-107554Y112732D01*
X-106843Y114449D01*
X-106409Y116257D01*
X-106263Y118110D01*
X-106409Y119964D01*
X-106843Y121771D01*
X-107554Y123489D01*
X-108525Y125074D01*
X-109733Y126488D01*
X-111146Y127695D01*
X-112732Y128666D01*
X-114449Y129378D01*
X-116257Y129812D01*
X-118110Y129958D01*
X-119964Y129812D01*
X-121771Y129378D01*
X-123489Y128666D01*
X-125074Y127695D01*
X-126488Y126488D01*
X-127695Y125074D01*
X-128666Y123489D01*
X-129378Y121771D01*
X-129812Y119964D01*
X-129958Y118110D01*
X-129812Y116257D01*
X-129378Y114449D01*
X-128666Y112732D01*
X-127695Y111146D01*
X-126488Y109733D01*
X-125074Y108525D01*
X-123489Y107554D01*
X-121771Y106843D01*
X-121148Y106693D01*
X-121521Y103543D01*
X-123819D01*
X-124820Y103543D01*
X-124934Y103569D01*
X-124981Y103569D01*
X-124988Y103570D01*
X-126969Y103543D01*
Y102083D01*
X-127377Y101914D01*
X-128118Y101346D01*
X-130709Y98755D01*
X-133858Y100060D01*
Y133858D01*
X-100432D01*
Y114173D01*
Y113786D01*
X-100394Y113592D01*
Y113394D01*
X-100242Y112633D01*
X-100167Y112451D01*
X-100128Y112257D01*
X-99831Y111540D01*
X-99722Y111376D01*
X-99646Y111193D01*
X-99215Y110548D01*
X-99075Y110409D01*
X-98965Y110244D01*
X-98417Y109696D01*
X-98253Y109586D01*
X-98113Y109446D01*
X-97468Y109016D01*
X-97285Y108940D01*
X-97121Y108830D01*
X-96405Y108533D01*
X-96211Y108495D01*
X-96028Y108419D01*
X-95267Y108268D01*
X-95070D01*
X-94876Y108229D01*
X-94488D01*
X3937Y108229D01*
X4325D01*
X4519Y108268D01*
X4716D01*
X5477Y108419D01*
X5660Y108495D01*
X5853Y108533D01*
X6570Y108830D01*
X6734Y108940D01*
X6917Y109016D01*
X7562Y109446D01*
X7701Y109586D01*
X7866Y109696D01*
X8414Y110244D01*
X8524Y110409D01*
X8664Y110548D01*
X9095Y111193D01*
X9170Y111376D01*
X9280Y111540D01*
X9577Y112257D01*
X9616Y112451D01*
X9691Y112633D01*
X9843Y113394D01*
Y113592D01*
X9881Y113786D01*
Y114173D01*
X9881Y114173D01*
Y133858D01*
X21626D01*
X22803Y132620D01*
X23914Y130709D01*
X23811Y129921D01*
X24000Y128482D01*
X24555Y127142D01*
X25439Y125990D01*
X25490Y125951D01*
X25691Y125743D01*
X25866Y125540D01*
X26010Y125349D01*
X26125Y125173D01*
X26214Y125013D01*
X26279Y124867D01*
X26325Y124735D01*
X26355Y124614D01*
X26371Y124502D01*
X26381Y124293D01*
X26392Y124251D01*
Y117218D01*
X3491Y94317D01*
X-1535D01*
Y97598D01*
Y105079D01*
X-13346D01*
Y97598D01*
Y92598D01*
Y87598D01*
Y82598D01*
Y77598D01*
Y72598D01*
Y70079D01*
X-13386D01*
Y62598D01*
Y57598D01*
Y52598D01*
Y47598D01*
Y42598D01*
Y37598D01*
X-1575D01*
Y38360D01*
X5906D01*
X6676Y38462D01*
X7395Y38759D01*
X8011Y39233D01*
X14862Y46083D01*
X14862Y46083D01*
X15335Y46700D01*
X15633Y47418D01*
X15734Y48189D01*
Y54829D01*
X59035Y98130D01*
X59508Y98747D01*
X59806Y99465D01*
X59907Y100236D01*
Y124251D01*
X59918Y124293D01*
X59928Y124502D01*
X59945Y124614D01*
X59975Y124735D01*
X60020Y124867D01*
X60086Y125012D01*
X60174Y125173D01*
X60289Y125350D01*
X60433Y125540D01*
X60608Y125743D01*
X60809Y125951D01*
X60860Y125990D01*
X61744Y127142D01*
X62299Y128482D01*
X62489Y129921D01*
X62385Y130709D01*
X63497Y132620D01*
X64673Y133858D01*
X90843D01*
X91645Y133334D01*
X93475Y130905D01*
X93589Y129748D01*
X93927Y128635D01*
X94475Y127609D01*
X95213Y126709D01*
X96113Y125971D01*
X97139Y125423D01*
X98252Y125085D01*
X99410Y124971D01*
X100567Y125085D01*
X101680Y125423D01*
X102706Y125971D01*
X103605Y126709D01*
X104343Y127609D01*
X104892Y128635D01*
X105229Y129748D01*
X105343Y130905D01*
X107174Y133334D01*
X107976Y133858D01*
X133858D01*
Y27107D01*
D02*
G37*
G36*
X59125Y127097D02*
X58871Y126802D01*
X58647Y126505D01*
X58452Y126207D01*
X58287Y125908D01*
X58153Y125607D01*
X58048Y125305D01*
X57973Y125002D01*
X57928Y124697D01*
X57913Y124391D01*
X55945D01*
X55930Y124697D01*
X55885Y125002D01*
X55810Y125305D01*
X55705Y125607D01*
X55571Y125908D01*
X55406Y126207D01*
X55212Y126505D01*
X54987Y126802D01*
X54733Y127097D01*
X54449Y127391D01*
X59409D01*
X59125Y127097D01*
D02*
G37*
G36*
X-107288Y91742D02*
X-107228Y91575D01*
X-107129Y91427D01*
X-106991Y91299D01*
X-106812Y91191D01*
X-106595Y91102D01*
X-106337Y91034D01*
X-106040Y90984D01*
X-105703Y90955D01*
X-105327Y90945D01*
Y88976D01*
X-105703Y88967D01*
X-106040Y88937D01*
X-106337Y88888D01*
X-106595Y88819D01*
X-106812Y88730D01*
X-106991Y88622D01*
X-107129Y88494D01*
X-107228Y88346D01*
X-107288Y88179D01*
X-107308Y87992D01*
Y91929D01*
X-107288Y91742D01*
D02*
G37*
G36*
X-108455Y87406D02*
X-108622Y87346D01*
X-108770Y87247D01*
X-108898Y87109D01*
X-109006Y86931D01*
X-109095Y86713D01*
X-109163Y86455D01*
X-109213Y86158D01*
X-109242Y85821D01*
X-109252Y85445D01*
X-111221D01*
X-111230Y85821D01*
X-111260Y86158D01*
X-111309Y86455D01*
X-111378Y86713D01*
X-111467Y86931D01*
X-111575Y87109D01*
X-111703Y87247D01*
X-111850Y87346D01*
X-112018Y87406D01*
X-112205Y87426D01*
X-108268D01*
X-108455Y87406D01*
D02*
G37*
G36*
X-124988Y96469D02*
X-124994Y96616D01*
X-125012Y96748D01*
X-125042Y96864D01*
X-125084Y96965D01*
X-125139Y97050D01*
X-125205Y97120D01*
X-125283Y97174D01*
X-125374Y97213D01*
X-125476Y97236D01*
X-125591Y97244D01*
Y100394D01*
X-125476Y100405D01*
X-125374Y100441D01*
X-125283Y100499D01*
X-125205Y100581D01*
X-125139Y100686D01*
X-125084Y100815D01*
X-125042Y100967D01*
X-125012Y101142D01*
X-124994Y101341D01*
X-124988Y101563D01*
Y96469D01*
D02*
G37*
G36*
X-119099Y100797D02*
X-119039Y100630D01*
X-118940Y100482D01*
X-118802Y100354D01*
X-118623Y100246D01*
X-118405Y100157D01*
X-118148Y100089D01*
X-117851Y100039D01*
X-117514Y100010D01*
X-117138Y100000D01*
Y98032D01*
X-117514Y98022D01*
X-117851Y97992D01*
X-118148Y97943D01*
X-118405Y97874D01*
X-118623Y97785D01*
X-118802Y97677D01*
X-118940Y97549D01*
X-119039Y97402D01*
X-119099Y97234D01*
X-119118Y97047D01*
Y100984D01*
X-119099Y100797D01*
D02*
G37*
G36*
X-107288Y100707D02*
X-107228Y100540D01*
X-107129Y100392D01*
X-106991Y100265D01*
X-106812Y100156D01*
X-106595Y100068D01*
X-106337Y99999D01*
X-106040Y99950D01*
X-105703Y99920D01*
X-105327Y99910D01*
Y97942D01*
X-105703Y97932D01*
X-106040Y97902D01*
X-106337Y97853D01*
X-106595Y97784D01*
X-106812Y97696D01*
X-106991Y97587D01*
X-107129Y97459D01*
X-107228Y97312D01*
X-107288Y97145D01*
X-107308Y96957D01*
Y100894D01*
X-107288Y100707D01*
D02*
G37*
G36*
X5522Y23686D02*
X5551Y23461D01*
X5600Y23262D01*
X5669Y23090D01*
X5758Y22945D01*
X5866Y22826D01*
X5994Y22733D01*
X6142Y22667D01*
X6309Y22627D01*
X6496Y22614D01*
X2559D01*
X2746Y22627D01*
X2913Y22667D01*
X3061Y22733D01*
X3189Y22826D01*
X3297Y22945D01*
X3386Y23090D01*
X3455Y23262D01*
X3504Y23461D01*
X3534Y23686D01*
X3543Y23938D01*
X5512D01*
X5522Y23686D01*
D02*
G37*
G36*
X-67918Y14183D02*
X-67858Y14016D01*
X-67759Y13868D01*
X-67620Y13740D01*
X-67442Y13632D01*
X-67224Y13543D01*
X-66967Y13474D01*
X-66670Y13425D01*
X-66333Y13396D01*
X-65957Y13386D01*
Y11417D01*
X-66333Y11407D01*
X-66670Y11378D01*
X-66967Y11329D01*
X-67224Y11260D01*
X-67442Y11171D01*
X-67620Y11063D01*
X-67759Y10935D01*
X-67858Y10787D01*
X-67918Y10620D01*
X-67937Y10433D01*
Y14370D01*
X-67918Y14183D01*
D02*
G37*
G36*
X-73795Y10433D02*
X-73815Y10620D01*
X-73874Y10787D01*
X-73973Y10935D01*
X-74112Y11063D01*
X-74290Y11171D01*
X-74508Y11260D01*
X-74765Y11329D01*
X-75062Y11378D01*
X-75399Y11407D01*
X-75775Y11417D01*
Y13386D01*
X-75399Y13396D01*
X-75062Y13425D01*
X-74765Y13474D01*
X-74508Y13543D01*
X-74290Y13632D01*
X-74112Y13740D01*
X-73973Y13868D01*
X-73874Y14016D01*
X-73815Y14183D01*
X-73795Y14370D01*
Y10433D01*
D02*
G37*
G36*
X-61984D02*
X-62004Y10620D01*
X-62063Y10787D01*
X-62162Y10935D01*
X-62301Y11063D01*
X-62479Y11171D01*
X-62697Y11260D01*
X-62954Y11329D01*
X-63251Y11378D01*
X-63588Y11407D01*
X-63964Y11417D01*
Y13386D01*
X-63588Y13396D01*
X-63251Y13425D01*
X-62954Y13474D01*
X-62697Y13543D01*
X-62479Y13632D01*
X-62301Y13740D01*
X-62162Y13868D01*
X-62063Y14016D01*
X-62004Y14183D01*
X-61984Y14370D01*
Y10433D01*
D02*
G37*
G36*
X-44713Y14006D02*
X-44548Y13876D01*
X-44372Y13761D01*
X-44186Y13661D01*
X-43990Y13577D01*
X-43783Y13508D01*
X-43567Y13455D01*
X-43340Y13417D01*
X-43103Y13394D01*
X-42855Y13386D01*
Y11417D01*
X-43103Y11410D01*
X-43340Y11387D01*
X-43567Y11348D01*
X-43783Y11295D01*
X-43990Y11226D01*
X-44186Y11142D01*
X-44372Y11042D01*
X-44548Y10927D01*
X-44713Y10797D01*
X-44868Y10652D01*
Y14152D01*
X-44713Y14006D01*
D02*
G37*
G36*
X-38362Y10433D02*
X-38382Y10620D01*
X-38441Y10787D01*
X-38540Y10935D01*
X-38679Y11063D01*
X-38857Y11171D01*
X-39075Y11260D01*
X-39332Y11329D01*
X-39629Y11378D01*
X-39966Y11407D01*
X-40342Y11417D01*
Y13386D01*
X-39966Y13396D01*
X-39629Y13425D01*
X-39332Y13474D01*
X-39075Y13543D01*
X-38857Y13632D01*
X-38679Y13740D01*
X-38540Y13868D01*
X-38441Y14016D01*
X-38382Y14183D01*
X-38362Y14370D01*
Y10433D01*
D02*
G37*
G36*
X-32484Y5128D02*
X-32425Y4961D01*
X-32326Y4813D01*
X-32187Y4685D01*
X-32009Y4577D01*
X-31791Y4488D01*
X-31534Y4419D01*
X-31237Y4370D01*
X-30900Y4341D01*
X-30524Y4331D01*
Y2362D01*
X-30900Y2352D01*
X-31237Y2323D01*
X-31534Y2274D01*
X-31791Y2205D01*
X-32009Y2116D01*
X-32187Y2008D01*
X-32326Y1880D01*
X-32425Y1732D01*
X-32484Y1565D01*
X-32504Y1378D01*
Y5315D01*
X-32484Y5128D01*
D02*
G37*
G36*
X-97429Y799D02*
X-97457Y1022D01*
X-97539Y1220D01*
X-97677Y1396D01*
X-97870Y1548D01*
X-98118Y1676D01*
X-98421Y1781D01*
X-98779Y1863D01*
X-99193Y1922D01*
X-99661Y1957D01*
X-100185Y1969D01*
Y4724D01*
X-99661Y4736D01*
X-99193Y4771D01*
X-98779Y4830D01*
X-98421Y4911D01*
X-98118Y5017D01*
X-97870Y5145D01*
X-97677Y5297D01*
X-97539Y5473D01*
X-97457Y5671D01*
X-97429Y5894D01*
Y799D01*
D02*
G37*
G36*
X81717Y8560D02*
X80047Y5775D01*
X79898Y5820D01*
X78740Y5934D01*
X77583Y5820D01*
X76469Y5482D01*
X75443Y4934D01*
X74593Y4236D01*
X74529Y4195D01*
X74221Y3895D01*
X73960Y3667D01*
X73716Y3477D01*
X73490Y3324D01*
X73285Y3205D01*
X73102Y3118D01*
X72940Y3058D01*
X72800Y3020D01*
X72677Y3000D01*
X72457Y2988D01*
X72417Y2978D01*
X70866D01*
X70095Y2877D01*
X69377Y2579D01*
X68760Y2106D01*
X68760Y2106D01*
X65696Y-959D01*
X59544D01*
X58239Y2191D01*
X61161Y5113D01*
X61161Y5113D01*
X61634Y5730D01*
X61932Y6448D01*
X62033Y7219D01*
X62033Y7219D01*
Y7387D01*
X62044Y7431D01*
X62053Y7627D01*
X62064Y7696D01*
X62074Y7733D01*
X62080Y7748D01*
X62081Y7751D01*
X62084Y7755D01*
X62095Y7766D01*
X62125Y7791D01*
X62183Y7829D01*
X62357Y7919D01*
X62439Y7984D01*
X62699Y8092D01*
X63768Y8913D01*
X64589Y9982D01*
X65105Y11227D01*
X65280Y12563D01*
X65105Y13899D01*
X64589Y15144D01*
X63768Y16213D01*
X62699Y17034D01*
X61454Y17549D01*
X60118Y17725D01*
X58782Y17549D01*
X57537Y17034D01*
X56468Y16213D01*
X55647Y15144D01*
X55132Y13899D01*
X54956Y12563D01*
X55132Y11227D01*
X55415Y10542D01*
X55464Y10343D01*
X55599Y10052D01*
X55698Y9819D01*
X55879Y9319D01*
X55929Y9149D01*
X56024Y8721D01*
X56045Y8576D01*
X56058Y8433D01*
X52709Y5084D01*
X-5768D01*
X-5768Y5084D01*
X-6539Y4983D01*
X-7257Y4685D01*
X-7874Y4212D01*
X-7874Y4212D01*
X-14507Y-2422D01*
X-14981Y-3038D01*
X-15278Y-3757D01*
X-15380Y-4528D01*
Y-8319D01*
X-16929Y-10827D01*
Y-10827D01*
X-19599Y-12178D01*
X-19732Y-12205D01*
X-25689D01*
X-26280Y-12205D01*
X-28839Y-10779D01*
Y-8465D01*
X-30178D01*
X-30179Y-8424D01*
X-30191Y-8369D01*
Y-6201D01*
X-30292Y-5430D01*
X-30590Y-4712D01*
X-30882Y-4331D01*
X-30512Y-1181D01*
X-28012Y386D01*
X-27379Y470D01*
X-26660Y767D01*
X-26044Y1240D01*
X-18451Y8833D01*
X11811D01*
X12582Y8934D01*
X13300Y9232D01*
X13917Y9705D01*
X24210Y19998D01*
X24245Y20019D01*
X24409Y20166D01*
X24510Y20239D01*
X24636Y20312D01*
X24792Y20383D01*
X24984Y20451D01*
X25213Y20512D01*
X25451Y20558D01*
X26162Y20626D01*
X26564Y20631D01*
X26638Y20647D01*
X27733Y20755D01*
X28846Y21092D01*
X29872Y21641D01*
X30771Y22379D01*
X31509Y23278D01*
X32057Y24304D01*
X32395Y25417D01*
X32509Y26575D01*
X32395Y27733D01*
X32057Y28846D01*
X31509Y29872D01*
X30771Y30771D01*
X29872Y31509D01*
X28846Y32057D01*
X27733Y32395D01*
X26575Y32509D01*
X25417Y32395D01*
X24304Y32057D01*
X23278Y31509D01*
X22379Y30771D01*
X21641Y29872D01*
X21092Y28846D01*
X20755Y27733D01*
X20647Y26638D01*
X20631Y26564D01*
X20625Y26133D01*
X20602Y25787D01*
X20564Y25481D01*
X20512Y25213D01*
X20451Y24984D01*
X20383Y24792D01*
X20312Y24636D01*
X20239Y24510D01*
X20166Y24409D01*
X20019Y24245D01*
X19998Y24210D01*
X12205Y16417D01*
X9055Y17721D01*
Y24253D01*
X21193Y36392D01*
X53885D01*
X81717Y8560D01*
D02*
G37*
G36*
X-79729Y14183D02*
X-79669Y14016D01*
X-79570Y13868D01*
X-79431Y13740D01*
X-79253Y13632D01*
X-79035Y13543D01*
X-78778Y13474D01*
X-78481Y13425D01*
X-78144Y13396D01*
X-77768Y13386D01*
Y11417D01*
X-78144Y11407D01*
X-78481Y11378D01*
X-78778Y11329D01*
X-79035Y11260D01*
X-79253Y11171D01*
X-79431Y11063D01*
X-79570Y10935D01*
X-79669Y10787D01*
X-79729Y10620D01*
X-79748Y10433D01*
Y14370D01*
X-79729Y14183D01*
D02*
G37*
G36*
X61434Y9702D02*
X61169Y9564D01*
X60932Y9409D01*
X60723Y9236D01*
X60542Y9045D01*
X60388Y8837D01*
X60263Y8610D01*
X60165Y8365D01*
X60095Y8103D01*
X60053Y7823D01*
X60039Y7525D01*
X58071Y8280D01*
X58063Y8540D01*
X58039Y8807D01*
X58000Y9081D01*
X57874Y9650D01*
X57788Y9944D01*
X57567Y10553D01*
X57433Y10868D01*
X57284Y11190D01*
X61434Y9702D01*
D02*
G37*
G36*
X-93494Y16541D02*
X-93465Y16204D01*
X-93415Y15907D01*
X-93347Y15650D01*
X-93258Y15432D01*
X-93150Y15254D01*
X-93022Y15115D01*
X-92874Y15016D01*
X-92707Y14956D01*
X-92520Y14937D01*
X-96457D01*
X-96270Y14956D01*
X-96102Y15016D01*
X-95955Y15115D01*
X-95827Y15254D01*
X-95718Y15432D01*
X-95630Y15650D01*
X-95561Y15907D01*
X-95512Y16204D01*
X-95482Y16541D01*
X-95472Y16917D01*
X-93504D01*
X-93494Y16541D01*
D02*
G37*
G36*
X-92884Y21681D02*
X-93014Y21516D01*
X-93129Y21340D01*
X-93228Y21154D01*
X-93313Y20958D01*
X-93381Y20752D01*
X-93435Y20535D01*
X-93473Y20308D01*
X-93496Y20071D01*
X-93504Y19824D01*
X-95472D01*
X-95480Y20071D01*
X-95503Y20308D01*
X-95541Y20535D01*
X-95595Y20752D01*
X-95664Y20958D01*
X-95748Y21154D01*
X-95848Y21340D01*
X-95963Y21516D01*
X-96093Y21681D01*
X-96238Y21837D01*
X-92738D01*
X-92884Y21681D01*
D02*
G37*
G36*
X-7063Y17717D02*
X-7082Y17904D01*
X-7142Y18071D01*
X-7241Y18218D01*
X-7379Y18347D01*
X-7558Y18455D01*
X-7776Y18543D01*
X-8033Y18612D01*
X-8330Y18661D01*
X-8667Y18691D01*
X-9043Y18701D01*
Y20669D01*
X-8667Y20679D01*
X-8330Y20709D01*
X-8033Y20758D01*
X-7776Y20827D01*
X-7558Y20915D01*
X-7379Y21024D01*
X-7241Y21152D01*
X-7142Y21299D01*
X-7082Y21466D01*
X-7063Y21654D01*
Y17717D01*
D02*
G37*
G36*
X-81073Y21681D02*
X-81203Y21516D01*
X-81318Y21340D01*
X-81417Y21154D01*
X-81502Y20958D01*
X-81570Y20752D01*
X-81624Y20535D01*
X-81662Y20308D01*
X-81685Y20071D01*
X-81693Y19824D01*
X-83661D01*
X-83669Y20071D01*
X-83692Y20308D01*
X-83730Y20535D01*
X-83784Y20752D01*
X-83853Y20958D01*
X-83937Y21154D01*
X-84037Y21340D01*
X-84152Y21516D01*
X-84282Y21681D01*
X-84427Y21837D01*
X-80927D01*
X-81073Y21681D01*
D02*
G37*
G36*
X26535Y22638D02*
X26053Y22631D01*
X25167Y22547D01*
X24764Y22470D01*
X24387Y22369D01*
X24038Y22245D01*
X23715Y22097D01*
X23418Y21926D01*
X23148Y21731D01*
X22905Y21513D01*
X21513Y22905D01*
X21731Y23148D01*
X21926Y23418D01*
X22097Y23715D01*
X22245Y24038D01*
X22369Y24387D01*
X22470Y24764D01*
X22547Y25167D01*
X22601Y25596D01*
X22631Y26053D01*
X22638Y26535D01*
X26535Y22638D01*
D02*
G37*
G36*
X-81683Y16541D02*
X-81653Y16204D01*
X-81604Y15907D01*
X-81535Y15650D01*
X-81447Y15432D01*
X-81339Y15254D01*
X-81211Y15115D01*
X-81063Y15016D01*
X-80896Y14956D01*
X-80709Y14937D01*
X-84646D01*
X-84459Y14956D01*
X-84291Y15016D01*
X-84144Y15115D01*
X-84016Y15254D01*
X-83908Y15432D01*
X-83819Y15650D01*
X-83750Y15907D01*
X-83701Y16204D01*
X-83671Y16541D01*
X-83661Y16917D01*
X-81693D01*
X-81683Y16541D01*
D02*
G37*
G36*
X-128331Y19443D02*
X-128284Y18906D01*
X-128205Y18433D01*
X-128094Y18022D01*
X-127953Y17674D01*
X-127779Y17390D01*
X-127575Y17168D01*
X-127339Y17009D01*
X-127071Y16914D01*
X-126772Y16882D01*
X-131031Y16894D01*
X-131120Y16925D01*
X-131199Y17019D01*
X-131268Y17177D01*
X-131329Y17398D01*
X-131380Y17681D01*
X-131422Y18027D01*
X-131477Y18909D01*
X-131496Y20043D01*
X-128347D01*
X-128331Y19443D01*
D02*
G37*
G36*
X-114793Y24316D02*
X-115093Y23845D01*
X-115359Y23368D01*
X-115588Y22884D01*
X-115783Y22393D01*
X-115942Y21896D01*
X-116066Y21392D01*
X-116154Y20881D01*
X-116207Y20364D01*
X-116210Y20273D01*
X-116205Y20080D01*
X-116146Y19409D01*
X-116048Y18816D01*
X-115910Y18303D01*
X-115733Y17869D01*
X-115516Y17513D01*
X-115260Y17237D01*
X-114965Y17040D01*
X-114630Y16921D01*
X-114256Y16882D01*
X-122131D01*
X-121756Y16921D01*
X-121422Y17040D01*
X-121126Y17237D01*
X-120871Y17513D01*
X-120654Y17869D01*
X-120477Y18303D01*
X-120339Y18816D01*
X-120241Y19409D01*
X-120182Y20080D01*
X-120177Y20273D01*
X-120180Y20364D01*
X-120233Y20881D01*
X-120321Y21392D01*
X-120445Y21896D01*
X-120604Y22393D01*
X-120798Y22884D01*
X-121028Y23368D01*
X-121293Y23845D01*
X-121594Y24316D01*
X-121930Y24780D01*
X-114457D01*
X-114793Y24316D01*
D02*
G37*
%LPC*%
G36*
X88583Y-13751D02*
X87425Y-13865D01*
X86312Y-14203D01*
X85286Y-14751D01*
X84387Y-15489D01*
X83649Y-16388D01*
X83100Y-17414D01*
X82763Y-18527D01*
X82649Y-19685D01*
X82763Y-20843D01*
X83100Y-21956D01*
X83649Y-22982D01*
X84387Y-23881D01*
X85286Y-24619D01*
X86312Y-25167D01*
X87425Y-25505D01*
X88583Y-25619D01*
X89740Y-25505D01*
X90854Y-25167D01*
X91879Y-24619D01*
X92779Y-23881D01*
X93517Y-22982D01*
X94065Y-21956D01*
X94403Y-20843D01*
X94517Y-19685D01*
X94403Y-18527D01*
X94065Y-17414D01*
X93517Y-16388D01*
X92779Y-15489D01*
X91879Y-14751D01*
X90854Y-14203D01*
X89740Y-13865D01*
X88583Y-13751D01*
D02*
G37*
G36*
X-79240Y-71273D02*
X-80784Y-71425D01*
X-82268Y-71875D01*
X-83636Y-72606D01*
X-84835Y-73590D01*
X-85819Y-74789D01*
X-86550Y-76157D01*
X-87000Y-77641D01*
X-87152Y-79185D01*
X-87000Y-80729D01*
X-86550Y-82213D01*
X-85819Y-83581D01*
X-84835Y-84780D01*
X-83636Y-85764D01*
X-82268Y-86495D01*
X-80784Y-86945D01*
X-79240Y-87097D01*
X-77697Y-86945D01*
X-76212Y-86495D01*
X-74844Y-85764D01*
X-73646Y-84780D01*
X-72662Y-83581D01*
X-71930Y-82213D01*
X-71480Y-80729D01*
X-71328Y-79185D01*
X-71480Y-77641D01*
X-71930Y-76157D01*
X-72662Y-74789D01*
X-73646Y-73590D01*
X-74844Y-72606D01*
X-76212Y-71875D01*
X-77697Y-71425D01*
X-79240Y-71273D01*
D02*
G37*
G36*
X-118110Y-106263D02*
X-119964Y-106409D01*
X-121771Y-106843D01*
X-123489Y-107554D01*
X-125074Y-108525D01*
X-126488Y-109733D01*
X-127695Y-111146D01*
X-128666Y-112732D01*
X-129378Y-114449D01*
X-129812Y-116257D01*
X-129958Y-118110D01*
X-129812Y-119964D01*
X-129378Y-121771D01*
X-128666Y-123489D01*
X-127695Y-125074D01*
X-126488Y-126488D01*
X-125074Y-127695D01*
X-123489Y-128666D01*
X-121771Y-129378D01*
X-119964Y-129812D01*
X-118110Y-129958D01*
X-116257Y-129812D01*
X-114449Y-129378D01*
X-112732Y-128666D01*
X-111146Y-127695D01*
X-109733Y-126488D01*
X-108525Y-125074D01*
X-107554Y-123489D01*
X-106843Y-121771D01*
X-106409Y-119964D01*
X-106263Y-118110D01*
X-106409Y-116257D01*
X-106843Y-114449D01*
X-107554Y-112732D01*
X-108525Y-111146D01*
X-109733Y-109733D01*
X-111146Y-108525D01*
X-112732Y-107554D01*
X-114449Y-106843D01*
X-116257Y-106409D01*
X-118110Y-106263D01*
D02*
G37*
G36*
X118110D02*
X116257Y-106409D01*
X114449Y-106843D01*
X112732Y-107554D01*
X111146Y-108525D01*
X109733Y-109733D01*
X108525Y-111146D01*
X107554Y-112732D01*
X106843Y-114449D01*
X106409Y-116257D01*
X106263Y-118110D01*
X106409Y-119964D01*
X106843Y-121771D01*
X107554Y-123489D01*
X108525Y-125074D01*
X109733Y-126488D01*
X111146Y-127695D01*
X112732Y-128666D01*
X114449Y-129378D01*
X116257Y-129812D01*
X118110Y-129958D01*
X119964Y-129812D01*
X121771Y-129378D01*
X123489Y-128666D01*
X125074Y-127695D01*
X126488Y-126488D01*
X127695Y-125074D01*
X128666Y-123489D01*
X129378Y-121771D01*
X129812Y-119964D01*
X129958Y-118110D01*
X129812Y-116257D01*
X129378Y-114449D01*
X128666Y-112732D01*
X127695Y-111146D01*
X126488Y-109733D01*
X125074Y-108525D01*
X123489Y-107554D01*
X121771Y-106843D01*
X119964Y-106409D01*
X118110Y-106263D01*
D02*
G37*
G36*
X-94488Y-113099D02*
X-95785Y-113270D01*
X-96994Y-113770D01*
X-98032Y-114567D01*
X-98828Y-115605D01*
X-99329Y-116813D01*
X-99500Y-118110D01*
X-99329Y-119407D01*
X-98828Y-120616D01*
X-98032Y-121654D01*
X-96994Y-122450D01*
X-95785Y-122951D01*
X-94488Y-123122D01*
X-93191Y-122951D01*
X-91983Y-122450D01*
X-90945Y-121654D01*
X-90148Y-120616D01*
X-89648Y-119407D01*
X-89477Y-118110D01*
X-89648Y-116813D01*
X-90148Y-115605D01*
X-90945Y-114567D01*
X-91983Y-113770D01*
X-93191Y-113270D01*
X-94488Y-113099D01*
D02*
G37*
G36*
X99410Y111249D02*
X98252Y111135D01*
X97139Y110797D01*
X96113Y110249D01*
X95213Y109511D01*
X94475Y108612D01*
X93927Y107586D01*
X93589Y106473D01*
X93475Y105315D01*
X93589Y104157D01*
X93927Y103044D01*
X94475Y102018D01*
X95213Y101119D01*
X96113Y100381D01*
X97139Y99833D01*
X98252Y99495D01*
X99410Y99381D01*
X100567Y99495D01*
X101680Y99833D01*
X102706Y100381D01*
X103605Y101119D01*
X104343Y102018D01*
X104892Y103044D01*
X105229Y104157D01*
X105343Y105315D01*
X105229Y106473D01*
X104892Y107586D01*
X104343Y108612D01*
X103605Y109511D01*
X102706Y110249D01*
X101680Y110797D01*
X100567Y111135D01*
X99410Y111249D01*
D02*
G37*
G36*
X26575Y58099D02*
X25417Y57985D01*
X24304Y57648D01*
X23278Y57099D01*
X22379Y56361D01*
X21641Y55462D01*
X21092Y54436D01*
X20755Y53323D01*
X20641Y52165D01*
X20755Y51008D01*
X21092Y49894D01*
X21641Y48869D01*
X22379Y47969D01*
X23278Y47231D01*
X24304Y46683D01*
X25417Y46345D01*
X26575Y46231D01*
X27733Y46345D01*
X28846Y46683D01*
X29872Y47231D01*
X30771Y47969D01*
X31509Y48869D01*
X32057Y49894D01*
X32395Y51008D01*
X32509Y52165D01*
X32395Y53323D01*
X32057Y54436D01*
X31509Y55462D01*
X30771Y56361D01*
X29872Y57099D01*
X28846Y57648D01*
X27733Y57985D01*
X26575Y58099D01*
D02*
G37*
G36*
X118110Y99500D02*
X116813Y99329D01*
X115605Y98828D01*
X114567Y98032D01*
X113770Y96994D01*
X113270Y95785D01*
X113099Y94488D01*
X113270Y93191D01*
X113770Y91983D01*
X114567Y90945D01*
X115605Y90148D01*
X116813Y89648D01*
X118110Y89477D01*
X119407Y89648D01*
X120616Y90148D01*
X121654Y90945D01*
X122450Y91983D01*
X122951Y93191D01*
X123122Y94488D01*
X122951Y95785D01*
X122450Y96994D01*
X121654Y98032D01*
X120616Y98828D01*
X119407Y99329D01*
X118110Y99500D01*
D02*
G37*
G36*
X-27559Y-67880D02*
X-28910Y-68013D01*
X-30208Y-68407D01*
X-31405Y-69047D01*
X-32454Y-69908D01*
X-33315Y-70957D01*
X-33955Y-72154D01*
X-34349Y-73453D01*
X-34482Y-74803D01*
X-34349Y-76154D01*
X-33955Y-77452D01*
X-33315Y-78649D01*
X-32454Y-79698D01*
X-31405Y-80559D01*
X-30208Y-81199D01*
X-28910Y-81593D01*
X-27559Y-81726D01*
X-26208Y-81593D01*
X-24910Y-81199D01*
X-23713Y-80559D01*
X-22664Y-79698D01*
X-21803Y-78649D01*
X-21163Y-77452D01*
X-20769Y-76154D01*
X-20636Y-74803D01*
X-20769Y-73453D01*
X-21163Y-72154D01*
X-21803Y-70957D01*
X-22664Y-69908D01*
X-23713Y-69047D01*
X-24910Y-68407D01*
X-26208Y-68013D01*
X-27559Y-67880D01*
D02*
G37*
G36*
X118110Y129958D02*
X116257Y129812D01*
X114449Y129378D01*
X112732Y128666D01*
X111146Y127695D01*
X109733Y126488D01*
X108525Y125074D01*
X107554Y123489D01*
X106843Y121771D01*
X106409Y119964D01*
X106263Y118110D01*
X106409Y116257D01*
X106843Y114449D01*
X107554Y112732D01*
X108525Y111146D01*
X109733Y109733D01*
X111146Y108525D01*
X112732Y107554D01*
X114449Y106843D01*
X116257Y106409D01*
X118110Y106263D01*
X119964Y106409D01*
X121771Y106843D01*
X123489Y107554D01*
X125074Y108525D01*
X126488Y109733D01*
X127695Y111146D01*
X128666Y112732D01*
X129378Y114449D01*
X129812Y116257D01*
X129958Y118110D01*
X129812Y119964D01*
X129378Y121771D01*
X128666Y123489D01*
X127695Y125074D01*
X126488Y126488D01*
X125074Y127695D01*
X123489Y128666D01*
X121771Y129378D01*
X119964Y129812D01*
X118110Y129958D01*
D02*
G37*
G36*
X44291Y32509D02*
X43134Y32395D01*
X42020Y32057D01*
X40995Y31509D01*
X40095Y30771D01*
X39357Y29872D01*
X38809Y28846D01*
X38471Y27733D01*
X38357Y26575D01*
X38471Y25417D01*
X38809Y24304D01*
X39357Y23278D01*
X40095Y22379D01*
X40995Y21641D01*
X42020Y21092D01*
X43134Y20755D01*
X44291Y20641D01*
X45449Y20755D01*
X46562Y21092D01*
X47588Y21641D01*
X48487Y22379D01*
X49225Y23278D01*
X49774Y24304D01*
X50111Y25417D01*
X50225Y26575D01*
X50111Y27733D01*
X49774Y28846D01*
X49225Y29872D01*
X48487Y30771D01*
X47588Y31509D01*
X46562Y32057D01*
X45449Y32395D01*
X44291Y32509D01*
D02*
G37*
%LPD*%
D10*
X-46457Y79134D02*
D03*
D11*
X-63150Y32717D02*
D03*
X-68150D02*
D03*
X-43150Y32677D02*
D03*
X-48150D02*
D03*
X-53150D02*
D03*
X-58150D02*
D03*
X-38150D02*
D03*
X-33150D02*
D03*
X-28150D02*
D03*
X-23150D02*
D03*
D12*
X-83819Y106339D02*
D03*
Y101339D02*
D03*
Y96339D02*
D03*
Y91339D02*
D03*
Y71339D02*
D03*
Y76339D02*
D03*
Y81339D02*
D03*
Y86339D02*
D03*
X-83858Y46339D02*
D03*
Y41339D02*
D03*
Y51339D02*
D03*
Y56339D02*
D03*
Y61339D02*
D03*
Y66339D02*
D03*
X-7480D02*
D03*
Y61339D02*
D03*
Y56339D02*
D03*
Y51339D02*
D03*
Y41339D02*
D03*
Y46339D02*
D03*
X-7441Y86339D02*
D03*
Y81339D02*
D03*
Y76339D02*
D03*
Y71339D02*
D03*
Y91339D02*
D03*
Y96339D02*
D03*
Y101339D02*
D03*
Y106339D02*
D03*
D13*
X-114173Y-55118D02*
D03*
Y-70866D02*
D03*
D14*
X-129921Y-63583D02*
D03*
Y-54528D02*
D03*
X-110236Y70866D02*
D03*
Y79921D02*
D03*
X-122047Y89961D02*
D03*
Y99016D02*
D03*
X-110236D02*
D03*
Y89961D02*
D03*
X-70866Y12402D02*
D03*
Y3347D02*
D03*
X-82677D02*
D03*
Y12402D02*
D03*
X-59055Y3347D02*
D03*
Y12402D02*
D03*
X-114173Y-91142D02*
D03*
Y-82087D02*
D03*
X-35433Y3347D02*
D03*
Y12402D02*
D03*
X-47244Y-11220D02*
D03*
Y-20276D02*
D03*
X-94488Y3347D02*
D03*
Y12402D02*
D03*
D15*
X-119232Y3126D02*
D03*
D16*
X-110236Y-27559D02*
D03*
X-128228D02*
D03*
D17*
X110827Y39370D02*
D03*
X101772D02*
D03*
X4528Y19685D02*
D03*
X-4528D02*
D03*
X15157Y-15748D02*
D03*
X24213D02*
D03*
X-3347D02*
D03*
X-12402D02*
D03*
X3937Y-27559D02*
D03*
X12992D02*
D03*
X-12402Y-39370D02*
D03*
X-3347D02*
D03*
D18*
X17421Y-43307D02*
D03*
X6201Y-47047D02*
D03*
Y-39567D02*
D03*
X-21949Y-15748D02*
D03*
X-33169Y-19488D02*
D03*
Y-12008D02*
D03*
D19*
X-118193Y55283D02*
D03*
Y31283D02*
D03*
D20*
X-78740Y-106299D02*
D03*
Y-125984D02*
D03*
X-79240Y-79185D02*
D03*
X-78740Y-18685D02*
D03*
D21*
X101279Y-44094D02*
D03*
X97539Y-32874D02*
D03*
X105020D02*
D03*
D22*
X-101862Y98926D02*
X-99449Y101339D01*
X-87756D01*
X-110237Y98926D02*
X-101862D01*
X-96575Y96339D02*
X-87756D01*
X-102953Y89961D02*
X-96575Y96339D01*
X-110236Y89961D02*
X-102953D01*
X-110236Y79921D02*
Y89961D01*
X-7441Y86339D02*
X7598D01*
X-7441Y91339D02*
X4724D01*
X-96457Y-43685D02*
Y-17717D01*
X-90394Y51339D02*
X-87795D01*
X-115012Y-54528D02*
X-114422Y-55118D01*
X-96457Y-17717D02*
X-82677Y-3937D01*
Y3347D01*
Y12402D02*
X-70866D01*
X-59055D01*
X-82677D02*
Y23622D01*
X-44370Y-34370D02*
X-35433D01*
X-47244Y-31496D02*
X-44370Y-34370D01*
X-47244Y-31496D02*
Y-20276D01*
X-96457Y-43685D02*
X-85024D01*
X-52559Y-11220D01*
X-47244D01*
X-21949Y-15748D02*
X-12402D01*
X78740Y-44370D02*
X101083D01*
X50118Y-34370D02*
X78740D01*
X31496Y-15748D02*
X50118Y-34370D01*
X24213Y-15748D02*
X31496D01*
X28622Y-44370D02*
X35433D01*
X27559Y-43307D02*
X28622Y-44370D01*
X17421Y-43307D02*
X27559D01*
X-3150Y-39567D02*
X6201D01*
X-3347Y-39370D02*
X-3150Y-39567D01*
X23621Y-27559D02*
X30432Y-34370D01*
X35433D01*
X12992Y-27559D02*
X23621D01*
X0D02*
X3937D01*
X-3937Y-23622D02*
X0Y-27559D01*
X-3937Y-23622D02*
Y-16339D01*
X-12402Y-15748D02*
Y-4528D01*
X-3347Y-15748D02*
X15157D01*
X-3937Y-16339D02*
X-3347Y-15748D01*
X-3937Y-7874D02*
X0Y-3937D01*
X-3937Y-16339D02*
Y-7874D01*
X83740Y39370D02*
X101772D01*
X128740Y-19685D02*
Y-10630D01*
X110827Y7283D02*
X128740Y-10630D01*
X110827Y7283D02*
Y39370D01*
X-91772Y56339D02*
X-87795D01*
X0Y-3937D02*
X66929D01*
X70866Y0D01*
X78740D01*
X59055Y7219D02*
Y13315D01*
X-94488Y12402D02*
Y23622D01*
X-33169Y-12008D02*
Y-6201D01*
X-35433Y-3937D02*
X-33169Y-6201D01*
X-35433Y-3937D02*
Y3347D01*
X-46654Y12402D02*
X-35433D01*
X-59055Y19685D02*
X-4528D01*
X-19685Y-47244D02*
X-15748D01*
X-12402Y-43898D01*
Y-39370D01*
X4724Y91339D02*
X29370Y115984D01*
X7598Y86339D02*
X39370Y118111D01*
X-110236Y79921D02*
X-101181D01*
X-122047Y99016D02*
X-110236D01*
X-119232Y3126D02*
X-119012Y3347D01*
X-118193Y4165D01*
X39370Y118111D02*
Y129921D01*
X29370Y115984D02*
Y129921D01*
X12756Y56063D02*
X56929Y100236D01*
Y129921D01*
X-101181Y79921D02*
X-98425Y82677D01*
X-94488D01*
Y71339D02*
X-87756D01*
X-94488Y59055D02*
X-91772Y56339D01*
X-94488Y47244D02*
X-90394Y51339D01*
X-63150Y23779D02*
X-59055Y19685D01*
X-63150Y23779D02*
Y32717D01*
X-7480Y41339D02*
X5906D01*
X12756Y48189D01*
Y56063D01*
X-35433Y3347D02*
X-28150D01*
X-19685Y11811D01*
X11811D01*
X26575Y26575D01*
X-12402Y-4528D02*
X-5768Y2106D01*
X53942D01*
X59055Y7219D01*
X105020Y-32874D02*
Y-10531D01*
X55118Y39370D02*
X105020Y-10531D01*
X4528Y23938D02*
X19960Y39370D01*
X55118D01*
X4528Y19685D02*
Y23938D01*
D23*
X-110236Y-39370D02*
Y-27559D01*
X-114422Y-43556D02*
X-110236Y-39370D01*
X-129921Y-54528D02*
X-115012D01*
X-114422Y-55118D02*
Y-43556D01*
X-114173Y-82087D02*
Y-70866D01*
X-96457Y-61024D02*
Y-43685D01*
X-114173Y-70866D02*
X-114173Y-70866D01*
X-106299D01*
X-119012Y3347D02*
X-94488D01*
X-106299Y-70866D02*
X-96457Y-61024D01*
D24*
X-129921Y-7875D02*
Y94488D01*
X-125591Y98819D01*
X-122193D01*
D25*
X-118193Y4165D02*
Y31283D01*
X-78740Y-106299D02*
X-66929D01*
X-62992Y-110236D01*
Y-118110D02*
Y-110236D01*
X-90551Y-125984D02*
X-78740D01*
D26*
X118110Y-118110D02*
D03*
X-118110D02*
D03*
Y118110D02*
D03*
X118110D02*
D03*
D27*
X26575Y26575D02*
D03*
Y52165D02*
D03*
X44291Y26575D02*
D03*
Y52165D02*
D03*
X128740Y-19685D02*
D03*
Y19685D02*
D03*
X88583Y-19685D02*
D03*
Y19685D02*
D03*
X78740Y0D02*
D03*
X81693Y105315D02*
D03*
Y130905D02*
D03*
X99410Y105315D02*
D03*
Y130905D02*
D03*
D28*
X-84240Y-66185D02*
D03*
X-75740Y-53685D02*
D03*
D29*
X-96457Y-43685D02*
D03*
D30*
X73740Y39370D02*
D03*
X83740D02*
D03*
X35433Y-44370D02*
D03*
Y-34370D02*
D03*
X78740D02*
D03*
Y-44370D02*
D03*
X-35433D02*
D03*
Y-34370D02*
D03*
D31*
X94488Y-118110D02*
D03*
X-62992D02*
D03*
X129921Y-74803D02*
D03*
X-27559D02*
D03*
D32*
X56929Y129921D02*
D03*
X66929D02*
D03*
X19370D02*
D03*
X29370D02*
D03*
X39370D02*
D03*
D33*
X60118Y12563D02*
D03*
X50118D02*
D03*
X60118Y-20437D02*
D03*
D34*
X50118D02*
D03*
D35*
X118110Y94488D02*
D03*
X-94488Y-118110D02*
D03*
D36*
X-82677Y23622D02*
D03*
X-94488D02*
D03*
X-46654Y12402D02*
D03*
X-19685Y-47244D02*
D03*
X-94488Y82677D02*
D03*
Y71339D02*
D03*
Y59055D02*
D03*
Y47244D02*
D03*
X39370Y-11811D02*
D03*
M02*
