G04 Layer_Physical_Order=2*
G04 Layer_Color=16711680*
%FSLAX25Y25*%
%MOIN*%
G70*
G01*
G75*
%ADD20C,0.11811*%
%ADD22C,0.01968*%
%ADD25C,0.03937*%
%ADD26C,0.19685*%
%ADD27C,0.07874*%
G04:AMPARAMS|DCode=28|XSize=157.48mil|YSize=78.74mil|CornerRadius=19.68mil|HoleSize=0mil|Usage=FLASHONLY|Rotation=0.000|XOffset=0mil|YOffset=0mil|HoleType=Round|Shape=RoundedRectangle|*
%AMROUNDEDRECTD28*
21,1,0.15748,0.03937,0,0,0.0*
21,1,0.11811,0.07874,0,0,0.0*
1,1,0.03937,0.05905,-0.01968*
1,1,0.03937,-0.05905,-0.01968*
1,1,0.03937,-0.05905,0.01968*
1,1,0.03937,0.05905,0.01968*
%
%ADD28ROUNDEDRECTD28*%
G04:AMPARAMS|DCode=29|XSize=157.48mil|YSize=78.74mil|CornerRadius=19.68mil|HoleSize=0mil|Usage=FLASHONLY|Rotation=90.000|XOffset=0mil|YOffset=0mil|HoleType=Round|Shape=RoundedRectangle|*
%AMROUNDEDRECTD29*
21,1,0.15748,0.03937,0,0,90.0*
21,1,0.11811,0.07874,0,0,90.0*
1,1,0.03937,0.01968,0.05905*
1,1,0.03937,0.01968,-0.05905*
1,1,0.03937,-0.01968,-0.05905*
1,1,0.03937,-0.01968,0.05905*
%
%ADD29ROUNDEDRECTD29*%
%ADD30C,0.05512*%
%ADD31C,0.09842*%
%ADD32C,0.07087*%
%ADD33C,0.06299*%
%ADD34R,0.06299X0.06299*%
%ADD35C,0.06000*%
%ADD36C,0.05000*%
%ADD37C,0.05905*%
G36*
X-23924Y-71452D02*
X-23755Y-71535D01*
X-23538Y-71609D01*
X-23273Y-71673D01*
X-22960Y-71727D01*
X-22188Y-71806D01*
X-21224Y-71846D01*
X-20669Y-71850D01*
Y-77756D01*
X-21224Y-77761D01*
X-22960Y-77879D01*
X-23273Y-77933D01*
X-23538Y-77997D01*
X-23755Y-78071D01*
X-23924Y-78154D01*
X-24045Y-78248D01*
Y-71358D01*
X-23924Y-71452D01*
D02*
G37*
G36*
X-59357Y-114759D02*
X-59188Y-114842D01*
X-58971Y-114916D01*
X-58706Y-114980D01*
X-58393Y-115034D01*
X-57621Y-115113D01*
X-56657Y-115153D01*
X-56102Y-115157D01*
Y-121063D01*
X-56657Y-121068D01*
X-58393Y-121186D01*
X-58706Y-121240D01*
X-58971Y-121304D01*
X-59188Y-121378D01*
X-59357Y-121462D01*
X-59478Y-121555D01*
Y-114665D01*
X-59357Y-114759D01*
D02*
G37*
G36*
X133858Y27107D02*
X133692Y26880D01*
X131386Y25407D01*
X130709Y25259D01*
X129898Y25505D01*
X128740Y25619D01*
X127583Y25505D01*
X126469Y25167D01*
X125443Y24619D01*
X124544Y23881D01*
X123806Y22982D01*
X123258Y21956D01*
X122920Y20843D01*
X122806Y19685D01*
X122920Y18527D01*
X123258Y17414D01*
X123806Y16388D01*
X124544Y15489D01*
X125443Y14751D01*
X126469Y14203D01*
X127583Y13865D01*
X128740Y13751D01*
X129898Y13865D01*
X130709Y14111D01*
X131386Y13963D01*
X133692Y12489D01*
X133858Y12263D01*
Y-12263D01*
X133692Y-12489D01*
X131386Y-13963D01*
X130709Y-14111D01*
X129898Y-13865D01*
X128740Y-13751D01*
X127583Y-13865D01*
X126469Y-14203D01*
X125443Y-14751D01*
X124544Y-15489D01*
X123806Y-16388D01*
X123258Y-17414D01*
X122920Y-18527D01*
X122806Y-19685D01*
X122920Y-20843D01*
X123258Y-21956D01*
X123776Y-22926D01*
Y-26684D01*
X80621Y-69839D01*
X-21099D01*
X-21174Y-69839D01*
X-22045Y-69803D01*
X-22687Y-69738D01*
X-22866Y-69707D01*
X-22926Y-69692D01*
X-23713Y-69047D01*
X-24910Y-68407D01*
X-26208Y-68013D01*
X-27559Y-67880D01*
X-28910Y-68013D01*
X-30208Y-68407D01*
X-31405Y-69047D01*
X-32454Y-69908D01*
X-33315Y-70957D01*
X-33955Y-72154D01*
X-34349Y-73453D01*
X-34482Y-74803D01*
X-34349Y-76154D01*
X-33955Y-77452D01*
X-33315Y-78649D01*
X-32670Y-79436D01*
X-32656Y-79496D01*
X-32630Y-79642D01*
X-32523Y-81216D01*
X-32523Y-81263D01*
Y-88495D01*
X-57151Y-113124D01*
X-57478Y-113110D01*
X-58120Y-113045D01*
X-58299Y-113014D01*
X-58359Y-112999D01*
X-59146Y-112354D01*
X-60343Y-111714D01*
X-61642Y-111320D01*
X-62992Y-111187D01*
X-64343Y-111320D01*
X-65641Y-111714D01*
X-66838Y-112354D01*
X-67888Y-113215D01*
X-68748Y-114264D01*
X-69388Y-115461D01*
X-69782Y-116760D01*
X-69915Y-118110D01*
X-69782Y-119461D01*
X-69388Y-120760D01*
X-68748Y-121957D01*
X-67888Y-123006D01*
X-66838Y-123867D01*
X-65641Y-124506D01*
X-64343Y-124900D01*
X-62992Y-125033D01*
X-61642Y-124900D01*
X-60343Y-124506D01*
X-59146Y-123867D01*
X-58359Y-123221D01*
X-58299Y-123207D01*
X-58153Y-123181D01*
X-56580Y-123074D01*
X-56532Y-123074D01*
X-55118D01*
X-53833Y-122905D01*
X-52636Y-122409D01*
X-51608Y-121620D01*
X-24049Y-94061D01*
X-23260Y-93033D01*
X-22764Y-91836D01*
X-22595Y-90551D01*
Y-81263D01*
X-22595Y-81188D01*
X-22559Y-80317D01*
X-22512Y-79860D01*
X-21147Y-79767D01*
X-21099Y-79767D01*
X82677D01*
X83962Y-79598D01*
X85159Y-79102D01*
X86187Y-78313D01*
X130709Y-33791D01*
X133858Y-35096D01*
Y-133858D01*
X-133858D01*
Y133858D01*
X-100432D01*
Y114173D01*
Y113786D01*
X-100394Y113592D01*
Y113394D01*
X-100242Y112633D01*
X-100167Y112451D01*
X-100128Y112257D01*
X-99831Y111540D01*
X-99722Y111376D01*
X-99646Y111193D01*
X-99215Y110548D01*
X-99075Y110409D01*
X-98965Y110244D01*
X-98417Y109696D01*
X-98253Y109586D01*
X-98113Y109446D01*
X-97468Y109016D01*
X-97285Y108940D01*
X-97121Y108830D01*
X-96405Y108533D01*
X-96211Y108495D01*
X-96028Y108419D01*
X-95267Y108268D01*
X-95070D01*
X-94876Y108229D01*
X-94488D01*
X3937Y108229D01*
X4325D01*
X4519Y108268D01*
X4716D01*
X5477Y108419D01*
X5660Y108495D01*
X5853Y108533D01*
X6570Y108830D01*
X6734Y108940D01*
X6917Y109016D01*
X7562Y109446D01*
X7701Y109586D01*
X7866Y109696D01*
X8414Y110244D01*
X8524Y110409D01*
X8664Y110548D01*
X9095Y111193D01*
X9170Y111376D01*
X9280Y111540D01*
X9577Y112257D01*
X9616Y112451D01*
X9691Y112633D01*
X9843Y113394D01*
Y113592D01*
X9881Y113786D01*
Y114173D01*
X9881Y114173D01*
Y133858D01*
X21626D01*
X22803Y132620D01*
X23914Y130709D01*
X23811Y129921D01*
X24000Y128482D01*
X24555Y127142D01*
X25439Y125990D01*
X26590Y125107D01*
X27931Y124551D01*
X29370Y124362D01*
X30809Y124551D01*
X32150Y125107D01*
X33301Y125990D01*
X35439D01*
X36590Y125107D01*
X37931Y124551D01*
X39370Y124362D01*
X40809Y124551D01*
X42150Y125107D01*
X43301Y125990D01*
X44185Y127142D01*
X44740Y128482D01*
X44929Y129921D01*
X44846Y130555D01*
X46820Y133074D01*
X49479D01*
X51453Y130555D01*
X51370Y129921D01*
X51559Y128482D01*
X52115Y127142D01*
X52998Y125990D01*
X54150Y125107D01*
X55490Y124551D01*
X56929Y124362D01*
X58368Y124551D01*
X59709Y125107D01*
X60860Y125990D01*
X61744Y127142D01*
X62299Y128482D01*
X62489Y129921D01*
X62385Y130709D01*
X63497Y132620D01*
X64673Y133858D01*
X90843D01*
X91645Y133334D01*
X93475Y130905D01*
X93589Y129748D01*
X93927Y128635D01*
X94475Y127609D01*
X95213Y126709D01*
X96113Y125971D01*
X97139Y125423D01*
X98252Y125085D01*
X99410Y124971D01*
X100567Y125085D01*
X101680Y125423D01*
X102706Y125971D01*
X103605Y126709D01*
X104343Y127609D01*
X104892Y128635D01*
X105229Y129748D01*
X105343Y130905D01*
X107174Y133334D01*
X107976Y133858D01*
X133858D01*
Y27107D01*
D02*
G37*
G36*
X-24208Y-78438D02*
X-24291Y-78607D01*
X-24365Y-78824D01*
X-24429Y-79089D01*
X-24483Y-79403D01*
X-24562Y-80174D01*
X-24601Y-81138D01*
X-24606Y-81693D01*
X-30512D01*
X-30517Y-81138D01*
X-30635Y-79403D01*
X-30689Y-79089D01*
X-30753Y-78824D01*
X-30827Y-78607D01*
X-30910Y-78438D01*
X-31004Y-78318D01*
X-24114D01*
X-24208Y-78438D01*
D02*
G37*
%LPC*%
G36*
X26575Y32509D02*
X25417Y32395D01*
X24304Y32057D01*
X23278Y31509D01*
X22379Y30771D01*
X21641Y29872D01*
X21092Y28846D01*
X20755Y27733D01*
X20641Y26575D01*
X20755Y25417D01*
X21092Y24304D01*
X21641Y23278D01*
X22379Y22379D01*
X23278Y21641D01*
X24304Y21092D01*
X25417Y20755D01*
X26575Y20641D01*
X27733Y20755D01*
X28846Y21092D01*
X29872Y21641D01*
X30771Y22379D01*
X31509Y23278D01*
X32057Y24304D01*
X32395Y25417D01*
X32509Y26575D01*
X32395Y27733D01*
X32057Y28846D01*
X31509Y29872D01*
X30771Y30771D01*
X29872Y31509D01*
X28846Y32057D01*
X27733Y32395D01*
X26575Y32509D01*
D02*
G37*
G36*
X44291D02*
X43134Y32395D01*
X42020Y32057D01*
X40995Y31509D01*
X40095Y30771D01*
X39357Y29872D01*
X38809Y28846D01*
X38471Y27733D01*
X38357Y26575D01*
X38471Y25417D01*
X38809Y24304D01*
X39357Y23278D01*
X40095Y22379D01*
X40995Y21641D01*
X42020Y21092D01*
X43134Y20755D01*
X44291Y20641D01*
X45449Y20755D01*
X46562Y21092D01*
X47588Y21641D01*
X48487Y22379D01*
X49225Y23278D01*
X49774Y24304D01*
X50111Y25417D01*
X50225Y26575D01*
X50111Y27733D01*
X49774Y28846D01*
X49225Y29872D01*
X48487Y30771D01*
X47588Y31509D01*
X46562Y32057D01*
X45449Y32395D01*
X44291Y32509D01*
D02*
G37*
G36*
X-35433Y-29605D02*
X-36666Y-29767D01*
X-37816Y-30243D01*
X-38803Y-31001D01*
X-39560Y-31988D01*
X-40036Y-33137D01*
X-40198Y-34370D01*
X-40036Y-35603D01*
X-39560Y-36753D01*
X-38803Y-37740D01*
X-37816Y-38497D01*
X-36666Y-38973D01*
X-35433Y-39135D01*
X-34200Y-38973D01*
X-33051Y-38497D01*
X-32064Y-37740D01*
X-31306Y-36753D01*
X-30830Y-35603D01*
X-30668Y-34370D01*
X-30830Y-33137D01*
X-31306Y-31988D01*
X-32064Y-31001D01*
X-33051Y-30243D01*
X-34200Y-29767D01*
X-35433Y-29605D01*
D02*
G37*
G36*
X-78740Y-10773D02*
X-80284Y-10925D01*
X-81768Y-11375D01*
X-83136Y-12106D01*
X-84335Y-13090D01*
X-85319Y-14289D01*
X-86050Y-15657D01*
X-86500Y-17142D01*
X-86652Y-18685D01*
X-86500Y-20229D01*
X-86050Y-21713D01*
X-85319Y-23081D01*
X-84335Y-24280D01*
X-83136Y-25264D01*
X-81768Y-25995D01*
X-80284Y-26445D01*
X-78740Y-26597D01*
X-77197Y-26445D01*
X-75712Y-25995D01*
X-74344Y-25264D01*
X-73146Y-24280D01*
X-72162Y-23081D01*
X-71430Y-21713D01*
X-70980Y-20229D01*
X-70828Y-18685D01*
X-70980Y-17142D01*
X-71430Y-15657D01*
X-72162Y-14289D01*
X-73146Y-13090D01*
X-74344Y-12106D01*
X-75712Y-11375D01*
X-77197Y-10925D01*
X-78740Y-10773D01*
D02*
G37*
G36*
X88583Y-13751D02*
X87425Y-13865D01*
X86312Y-14203D01*
X85286Y-14751D01*
X84516Y-15383D01*
X84439Y-15428D01*
X84369Y-15490D01*
X84337Y-15507D01*
X84255Y-15540D01*
X84126Y-15579D01*
X83950Y-15620D01*
X83752Y-15652D01*
X83133Y-15703D01*
X82774Y-15710D01*
X82754Y-15714D01*
X63571D01*
X63548Y-15710D01*
X63375Y-15714D01*
X62090D01*
X61454Y-15451D01*
X60118Y-15275D01*
X58782Y-15451D01*
X58386Y-15615D01*
X55236Y-15319D01*
X53256Y-15292D01*
X53227Y-15298D01*
X53119Y-15297D01*
X53038Y-15319D01*
X45000D01*
Y-25555D01*
X52993D01*
X53040Y-25570D01*
X53192Y-25569D01*
X53256Y-25582D01*
X55236Y-25555D01*
X58386Y-25259D01*
X58782Y-25423D01*
X60118Y-25599D01*
X61454Y-25423D01*
X62699Y-24908D01*
X63768Y-24087D01*
X64064Y-23702D01*
X64636Y-23664D01*
X64935Y-23661D01*
X64956Y-23656D01*
X82721D01*
X82734Y-23659D01*
X83484Y-23688D01*
X83728Y-23714D01*
X83950Y-23750D01*
X84126Y-23791D01*
X84255Y-23830D01*
X84337Y-23863D01*
X84369Y-23880D01*
X84439Y-23942D01*
X84516Y-23987D01*
X85286Y-24619D01*
X86312Y-25167D01*
X87425Y-25505D01*
X88583Y-25619D01*
X89740Y-25505D01*
X90854Y-25167D01*
X91879Y-24619D01*
X92779Y-23881D01*
X93517Y-22982D01*
X94065Y-21956D01*
X94403Y-20843D01*
X94517Y-19685D01*
X94403Y-18527D01*
X94065Y-17414D01*
X93517Y-16388D01*
X92779Y-15489D01*
X91879Y-14751D01*
X90854Y-14203D01*
X89740Y-13865D01*
X88583Y-13751D01*
D02*
G37*
G36*
X35433Y-29605D02*
X34200Y-29767D01*
X33051Y-30243D01*
X32064Y-31001D01*
X31306Y-31988D01*
X30830Y-33137D01*
X30668Y-34370D01*
X30830Y-35603D01*
X31306Y-36753D01*
X31792Y-37386D01*
X31954Y-37753D01*
X32064Y-38271D01*
Y-40470D01*
X31954Y-40987D01*
X31792Y-41354D01*
X31306Y-41987D01*
X30830Y-43137D01*
X30668Y-44370D01*
X30830Y-45603D01*
X31306Y-46753D01*
X32064Y-47740D01*
X33051Y-48497D01*
X34200Y-48973D01*
X35433Y-49135D01*
X36666Y-48973D01*
X37816Y-48497D01*
X38803Y-47740D01*
X39560Y-46753D01*
X40036Y-45603D01*
X40198Y-44370D01*
X40036Y-43137D01*
X39560Y-41987D01*
X39074Y-41354D01*
X38912Y-40987D01*
X38803Y-40470D01*
Y-38271D01*
X38912Y-37753D01*
X39074Y-37386D01*
X39560Y-36753D01*
X40036Y-35603D01*
X40198Y-34370D01*
X40036Y-33137D01*
X39560Y-31988D01*
X38803Y-31001D01*
X37816Y-30243D01*
X36666Y-29767D01*
X35433Y-29605D01*
D02*
G37*
G36*
X78740D02*
X77507Y-29767D01*
X76358Y-30243D01*
X75371Y-31001D01*
X74613Y-31988D01*
X74137Y-33137D01*
X73975Y-34370D01*
X74137Y-35603D01*
X74613Y-36753D01*
X75099Y-37386D01*
X75371Y-38002D01*
Y-40738D01*
X75099Y-41354D01*
X74613Y-41987D01*
X74137Y-43137D01*
X73975Y-44370D01*
X74137Y-45603D01*
X74613Y-46753D01*
X75371Y-47740D01*
X76358Y-48497D01*
X77507Y-48973D01*
X78740Y-49135D01*
X79974Y-48973D01*
X81123Y-48497D01*
X82110Y-47740D01*
X82867Y-46753D01*
X83343Y-45603D01*
X83505Y-44370D01*
X83343Y-43137D01*
X82867Y-41987D01*
X82381Y-41354D01*
X82110Y-40738D01*
Y-38002D01*
X82381Y-37386D01*
X82867Y-36753D01*
X83343Y-35603D01*
X83505Y-34370D01*
X83343Y-33137D01*
X82867Y-31988D01*
X82110Y-31001D01*
X81123Y-30243D01*
X79974Y-29767D01*
X78740Y-29605D01*
D02*
G37*
G36*
X83740Y44135D02*
X82507Y43973D01*
X81358Y43497D01*
X80371Y42740D01*
X79613Y41753D01*
X79137Y40603D01*
X78975Y39370D01*
X79137Y38137D01*
X79613Y36988D01*
X80371Y36001D01*
X81358Y35243D01*
X82507Y34767D01*
X83740Y34605D01*
X84974Y34767D01*
X86123Y35243D01*
X87110Y36001D01*
X87867Y36988D01*
X88343Y38137D01*
X88505Y39370D01*
X88343Y40603D01*
X87867Y41753D01*
X87110Y42740D01*
X86123Y43497D01*
X84974Y43973D01*
X83740Y44135D01*
D02*
G37*
G36*
X118110Y99500D02*
X116813Y99329D01*
X115605Y98828D01*
X114567Y98032D01*
X113770Y96994D01*
X113270Y95785D01*
X113099Y94488D01*
X113270Y93191D01*
X113770Y91983D01*
X114567Y90945D01*
X115605Y90148D01*
X116813Y89648D01*
X118110Y89477D01*
X119407Y89648D01*
X120616Y90148D01*
X121654Y90945D01*
X122450Y91983D01*
X122951Y93191D01*
X123122Y94488D01*
X122951Y95785D01*
X122450Y96994D01*
X121654Y98032D01*
X120616Y98828D01*
X119407Y99329D01*
X118110Y99500D01*
D02*
G37*
G36*
X99410Y111249D02*
X98252Y111135D01*
X97139Y110797D01*
X96113Y110249D01*
X95213Y109511D01*
X94475Y108612D01*
X93927Y107586D01*
X93589Y106473D01*
X93482Y105378D01*
X93466Y105304D01*
X93460Y104874D01*
X93437Y104528D01*
X93398Y104221D01*
X93347Y103953D01*
X93286Y103724D01*
X93218Y103533D01*
X93146Y103376D01*
X93073Y103250D01*
X93001Y103149D01*
X92854Y102985D01*
X92833Y102950D01*
X75538Y85655D01*
X-90575D01*
X-90628Y85668D01*
X-90809Y85673D01*
X-90910Y85683D01*
X-90993Y85697D01*
X-91058Y85713D01*
X-91109Y85730D01*
X-91149Y85747D01*
X-91182Y85765D01*
X-91210Y85783D01*
X-91238Y85805D01*
X-91330Y85892D01*
X-91366Y85914D01*
X-92235Y86580D01*
X-93322Y87031D01*
X-94488Y87184D01*
X-95655Y87031D01*
X-96742Y86580D01*
X-97675Y85864D01*
X-98391Y84931D01*
X-98842Y83844D01*
X-98995Y82677D01*
X-98842Y81511D01*
X-98391Y80424D01*
X-97675Y79490D01*
X-96742Y78774D01*
X-96389Y78628D01*
X-96327Y78377D01*
Y75639D01*
X-96389Y75388D01*
X-96742Y75242D01*
X-97675Y74525D01*
X-98391Y73592D01*
X-98842Y72505D01*
X-98995Y71339D01*
X-98842Y70172D01*
X-98391Y69085D01*
X-97675Y68152D01*
X-96742Y67435D01*
X-96624Y67386D01*
X-96163Y66475D01*
X-96112Y66171D01*
X-96742Y62958D01*
X-97675Y62242D01*
X-98391Y61309D01*
X-98842Y60222D01*
X-98995Y59055D01*
X-98842Y57889D01*
X-98391Y56802D01*
X-97675Y55868D01*
X-96742Y55152D01*
X-95655Y54702D01*
Y51598D01*
X-96742Y51147D01*
X-97675Y50431D01*
X-98391Y49498D01*
X-98842Y48411D01*
X-98995Y47244D01*
X-98842Y46078D01*
X-98391Y44991D01*
X-97725Y44122D01*
X-97703Y44086D01*
X-97616Y43994D01*
X-97594Y43966D01*
X-97576Y43938D01*
X-97558Y43905D01*
X-97541Y43865D01*
X-97524Y43814D01*
X-97508Y43749D01*
X-97494Y43666D01*
X-97484Y43565D01*
X-97478Y43384D01*
X-97466Y43331D01*
Y36667D01*
X-104468Y29665D01*
X-104941Y29048D01*
X-105239Y28330D01*
X-105340Y27559D01*
Y11811D01*
X-105239Y11040D01*
X-104941Y10322D01*
X-104468Y9705D01*
X-92657Y-2106D01*
X-92657Y-2106D01*
X-92040Y-2579D01*
X-91322Y-2877D01*
X-90551Y-2978D01*
X-76848D01*
X-58536Y-21290D01*
X-57919Y-21763D01*
X-57201Y-22061D01*
X-56430Y-22162D01*
X-33231D01*
X-22663Y-32730D01*
Y-43331D01*
X-22675Y-43384D01*
X-22681Y-43565D01*
X-22691Y-43666D01*
X-22705Y-43749D01*
X-22721Y-43814D01*
X-22738Y-43865D01*
X-22755Y-43905D01*
X-22772Y-43938D01*
X-22791Y-43966D01*
X-22813Y-43994D01*
X-22899Y-44086D01*
X-22921Y-44122D01*
X-23588Y-44991D01*
X-24038Y-46078D01*
X-24192Y-47244D01*
X-26071Y-49729D01*
X-26725Y-50154D01*
X-49125D01*
X-59104Y-40175D01*
X-60132Y-39386D01*
X-61330Y-38890D01*
X-62614Y-38721D01*
X-86731D01*
X-87619Y-38698D01*
X-88487Y-38622D01*
X-89201Y-38503D01*
X-89755Y-38354D01*
X-90140Y-38197D01*
X-90364Y-38061D01*
X-90457Y-37974D01*
X-90482Y-37937D01*
X-90496Y-37896D01*
X-90531Y-37571D01*
X-90555Y-37492D01*
X-90653Y-36752D01*
X-91049Y-35794D01*
X-91680Y-34972D01*
X-92503Y-34341D01*
X-93460Y-33944D01*
X-94488Y-33809D01*
X-98425D01*
X-99453Y-33944D01*
X-100411Y-34341D01*
X-101233Y-34972D01*
X-101864Y-35794D01*
X-102261Y-36752D01*
X-102396Y-37780D01*
Y-49591D01*
X-102261Y-50618D01*
X-101864Y-51576D01*
X-101233Y-52399D01*
X-100411Y-53030D01*
X-99453Y-53426D01*
X-98425Y-53562D01*
X-94488D01*
X-93460Y-53426D01*
X-92503Y-53030D01*
X-91680Y-52399D01*
X-91049Y-51576D01*
X-90653Y-50618D01*
X-90555Y-49880D01*
X-90531Y-49801D01*
X-90496Y-49475D01*
X-90482Y-49434D01*
X-90457Y-49396D01*
X-90363Y-49310D01*
X-90140Y-49173D01*
X-89754Y-49016D01*
X-89201Y-48867D01*
X-88487Y-48748D01*
X-87619Y-48672D01*
X-86731Y-48649D01*
X-64670D01*
X-54691Y-58628D01*
X-53663Y-59417D01*
X-52466Y-59913D01*
X-51181Y-60082D01*
X3937D01*
X5222Y-59913D01*
X6419Y-59417D01*
X7447Y-58628D01*
X12565Y-53510D01*
X13354Y-52482D01*
X13850Y-51285D01*
X14019Y-50000D01*
Y-8749D01*
X17804Y-4964D01*
X75499D01*
X76469Y-5482D01*
X77583Y-5820D01*
X78740Y-5934D01*
X79898Y-5820D01*
X81011Y-5482D01*
X82037Y-4934D01*
X82936Y-4196D01*
X83674Y-3297D01*
X84223Y-2271D01*
X84560Y-1158D01*
X84674Y0D01*
X84560Y1158D01*
X84223Y2271D01*
X83674Y3297D01*
X83042Y4067D01*
X82997Y4144D01*
X82935Y4214D01*
X82918Y4246D01*
X82885Y4327D01*
X82846Y4456D01*
X82805Y4633D01*
X82783Y4770D01*
X82715Y8147D01*
X82711Y8166D01*
Y8198D01*
X87246Y12732D01*
X87257Y12739D01*
X87808Y13249D01*
X87999Y13403D01*
X88181Y13534D01*
X88335Y13631D01*
X88454Y13694D01*
X88535Y13728D01*
X88570Y13739D01*
X88662Y13745D01*
X88749Y13767D01*
X89740Y13865D01*
X90854Y14203D01*
X91879Y14751D01*
X92779Y15489D01*
X93517Y16388D01*
X94065Y17414D01*
X94403Y18527D01*
X94517Y19685D01*
X94403Y20843D01*
X94065Y21956D01*
X93517Y22982D01*
X92779Y23881D01*
X91879Y24619D01*
X90854Y25167D01*
X89740Y25505D01*
X88583Y25619D01*
X87425Y25505D01*
X86312Y25167D01*
X85286Y24619D01*
X84387Y23881D01*
X83649Y22982D01*
X83100Y21956D01*
X82763Y20843D01*
X82665Y19851D01*
X82642Y19765D01*
X82637Y19672D01*
X82626Y19637D01*
X82592Y19556D01*
X82528Y19437D01*
X82432Y19284D01*
X82315Y19121D01*
X81914Y18647D01*
X81664Y18388D01*
X81653Y18372D01*
X75932Y12650D01*
X75301Y11828D01*
X74905Y10870D01*
X74769Y9843D01*
Y8145D01*
X74765Y8124D01*
X74739Y5138D01*
X74737Y5099D01*
X74723Y4964D01*
X63376D01*
X62699Y8092D01*
X63768Y8913D01*
X64589Y9982D01*
X65105Y11227D01*
X65280Y12563D01*
X65105Y13899D01*
X64589Y15144D01*
X63768Y16213D01*
X62699Y17034D01*
X61454Y17549D01*
X60118Y17725D01*
X58782Y17549D01*
X57537Y17034D01*
X56468Y16213D01*
X55647Y15144D01*
X55132Y13899D01*
X54956Y12563D01*
X55132Y11227D01*
X55647Y9982D01*
X56468Y8913D01*
X57537Y8092D01*
X56860Y4964D01*
X15748D01*
X14463Y4795D01*
X13266Y4299D01*
X12238Y3510D01*
X5545Y-3183D01*
X4756Y-4211D01*
X4261Y-5408D01*
X4091Y-6693D01*
Y-47944D01*
X1881Y-50154D01*
X-12645D01*
X-13299Y-49729D01*
X-15178Y-47244D01*
X-15331Y-46078D01*
X-15782Y-44991D01*
X-16449Y-44122D01*
X-16471Y-44086D01*
X-16557Y-43994D01*
X-16579Y-43966D01*
X-16598Y-43938D01*
X-16615Y-43905D01*
X-16632Y-43865D01*
X-16649Y-43814D01*
X-16665Y-43749D01*
X-16679Y-43666D01*
X-16689Y-43565D01*
X-16695Y-43384D01*
X-16707Y-43331D01*
Y-31496D01*
X-16707Y-31496D01*
X-16808Y-30725D01*
X-17106Y-30007D01*
X-17579Y-29390D01*
X-29891Y-17078D01*
X-30508Y-16605D01*
X-31226Y-16307D01*
X-31997Y-16206D01*
X-55196D01*
X-73508Y2106D01*
X-74125Y2579D01*
X-74843Y2877D01*
X-75614Y2978D01*
X-89318D01*
X-92954Y6615D01*
X-92432Y8075D01*
X-91334Y9449D01*
X-91142Y9423D01*
X-50566D01*
X-50514Y9411D01*
X-50332Y9406D01*
X-50231Y9396D01*
X-50149Y9382D01*
X-50084Y9366D01*
X-50032Y9349D01*
X-49992Y9331D01*
X-49960Y9314D01*
X-49931Y9295D01*
X-49903Y9273D01*
X-49811Y9187D01*
X-49776Y9165D01*
X-48907Y8498D01*
X-47820Y8048D01*
X-46654Y7895D01*
X-45487Y8048D01*
X-44400Y8498D01*
X-43467Y9215D01*
X-42750Y10148D01*
X-42300Y11235D01*
X-42147Y12402D01*
X-42300Y13568D01*
X-42750Y14655D01*
X-43467Y15589D01*
X-44400Y16305D01*
X-45487Y16755D01*
X-46654Y16909D01*
X-47820Y16755D01*
X-48907Y16305D01*
X-49776Y15638D01*
X-49811Y15616D01*
X-49903Y15530D01*
X-49931Y15508D01*
X-49960Y15489D01*
X-49992Y15472D01*
X-50032Y15454D01*
X-50084Y15438D01*
X-50149Y15421D01*
X-50231Y15407D01*
X-50332Y15398D01*
X-50514Y15392D01*
X-50566Y15380D01*
X-89908D01*
X-91510Y16982D01*
Y19709D01*
X-91498Y19762D01*
X-91492Y19943D01*
X-91482Y20044D01*
X-91469Y20127D01*
X-91452Y20192D01*
X-91435Y20243D01*
X-91418Y20283D01*
X-91401Y20315D01*
X-91382Y20344D01*
X-91360Y20372D01*
X-91274Y20464D01*
X-91252Y20500D01*
X-90585Y21369D01*
X-90135Y22456D01*
X-87031D01*
X-86580Y21369D01*
X-85864Y20435D01*
X-84931Y19719D01*
X-83844Y19269D01*
X-82677Y19115D01*
X-81511Y19269D01*
X-80424Y19719D01*
X-79490Y20435D01*
X-78774Y21369D01*
X-78324Y22456D01*
X-78170Y23622D01*
X-78324Y24789D01*
X-78774Y25876D01*
X-79441Y26745D01*
X-79463Y26780D01*
X-79549Y26872D01*
X-79571Y26900D01*
X-79590Y26929D01*
X-79607Y26961D01*
X-79624Y27001D01*
X-79641Y27052D01*
X-79658Y27117D01*
X-79671Y27200D01*
X-79681Y27301D01*
X-79687Y27482D01*
X-79699Y27535D01*
Y59528D01*
X-79800Y60298D01*
X-80098Y61017D01*
X-80571Y61633D01*
X-80571Y61633D01*
X-89616Y70678D01*
X-89644Y70723D01*
X-89768Y70856D01*
X-89833Y70934D01*
X-89881Y71002D01*
X-89916Y71060D01*
X-89940Y71108D01*
X-89956Y71149D01*
X-89967Y71184D01*
X-89974Y71217D01*
X-89978Y71253D01*
X-89982Y71379D01*
X-89992Y71419D01*
X-90135Y72505D01*
X-90585Y73592D01*
X-91301Y74525D01*
X-91544Y74712D01*
X-91774Y77609D01*
X-91640Y78298D01*
X-90048Y79699D01*
X76772D01*
X77543Y79800D01*
X78261Y80098D01*
X78878Y80571D01*
X97045Y98738D01*
X97080Y98759D01*
X97244Y98906D01*
X97344Y98979D01*
X97470Y99052D01*
X97627Y99123D01*
X97818Y99191D01*
X98048Y99252D01*
X98286Y99298D01*
X98996Y99366D01*
X99398Y99371D01*
X99472Y99387D01*
X100567Y99495D01*
X101680Y99833D01*
X102706Y100381D01*
X103605Y101119D01*
X104343Y102018D01*
X104892Y103044D01*
X105229Y104157D01*
X105343Y105315D01*
X105229Y106473D01*
X104892Y107586D01*
X104343Y108612D01*
X103605Y109511D01*
X102706Y110249D01*
X101680Y110797D01*
X100567Y111135D01*
X99410Y111249D01*
D02*
G37*
G36*
X-118110Y-106263D02*
X-119964Y-106409D01*
X-121771Y-106843D01*
X-123489Y-107554D01*
X-125074Y-108525D01*
X-126488Y-109733D01*
X-127695Y-111146D01*
X-128666Y-112732D01*
X-129378Y-114449D01*
X-129812Y-116257D01*
X-129958Y-118110D01*
X-129812Y-119964D01*
X-129378Y-121771D01*
X-128666Y-123489D01*
X-127695Y-125074D01*
X-126488Y-126488D01*
X-125074Y-127695D01*
X-123489Y-128666D01*
X-121771Y-129378D01*
X-119964Y-129812D01*
X-118110Y-129958D01*
X-116257Y-129812D01*
X-114449Y-129378D01*
X-112732Y-128666D01*
X-111146Y-127695D01*
X-109733Y-126488D01*
X-108525Y-125074D01*
X-107554Y-123489D01*
X-106843Y-121771D01*
X-106409Y-119964D01*
X-106263Y-118110D01*
X-106409Y-116257D01*
X-106843Y-114449D01*
X-107554Y-112732D01*
X-108525Y-111146D01*
X-109733Y-109733D01*
X-111146Y-108525D01*
X-112732Y-107554D01*
X-114449Y-106843D01*
X-116257Y-106409D01*
X-118110Y-106263D01*
D02*
G37*
G36*
X118110Y129958D02*
X116257Y129812D01*
X114449Y129378D01*
X112732Y128666D01*
X111146Y127695D01*
X109733Y126488D01*
X108525Y125074D01*
X107554Y123489D01*
X106843Y121771D01*
X106409Y119964D01*
X106263Y118110D01*
X106409Y116257D01*
X106843Y114449D01*
X107554Y112732D01*
X108525Y111146D01*
X109733Y109733D01*
X111146Y108525D01*
X112732Y107554D01*
X114449Y106843D01*
X116257Y106409D01*
X118110Y106263D01*
X119964Y106409D01*
X121771Y106843D01*
X123489Y107554D01*
X125074Y108525D01*
X126488Y109733D01*
X127695Y111146D01*
X128666Y112732D01*
X129378Y114449D01*
X129812Y116257D01*
X129958Y118110D01*
X129812Y119964D01*
X129378Y121771D01*
X128666Y123489D01*
X127695Y125074D01*
X126488Y126488D01*
X125074Y127695D01*
X123489Y128666D01*
X121771Y129378D01*
X119964Y129812D01*
X118110Y129958D01*
D02*
G37*
G36*
X-118110D02*
X-119964Y129812D01*
X-121771Y129378D01*
X-123489Y128666D01*
X-125074Y127695D01*
X-126488Y126488D01*
X-127695Y125074D01*
X-128666Y123489D01*
X-129378Y121771D01*
X-129812Y119964D01*
X-129958Y118110D01*
X-129812Y116257D01*
X-129378Y114449D01*
X-128666Y112732D01*
X-127695Y111146D01*
X-126488Y109733D01*
X-125074Y108525D01*
X-123489Y107554D01*
X-121771Y106843D01*
X-119964Y106409D01*
X-118110Y106263D01*
X-116257Y106409D01*
X-114449Y106843D01*
X-112732Y107554D01*
X-111146Y108525D01*
X-109733Y109733D01*
X-108525Y111146D01*
X-107554Y112732D01*
X-106843Y114449D01*
X-106409Y116257D01*
X-106263Y118110D01*
X-106409Y119964D01*
X-106843Y121771D01*
X-107554Y123489D01*
X-108525Y125074D01*
X-109733Y126488D01*
X-111146Y127695D01*
X-112732Y128666D01*
X-114449Y129378D01*
X-116257Y129812D01*
X-118110Y129958D01*
D02*
G37*
G36*
X26575Y58099D02*
X25417Y57985D01*
X24304Y57648D01*
X23278Y57099D01*
X22379Y56361D01*
X21641Y55462D01*
X21092Y54436D01*
X20755Y53323D01*
X20641Y52165D01*
X20755Y51008D01*
X21092Y49894D01*
X21641Y48869D01*
X22379Y47969D01*
X23278Y47231D01*
X24304Y46683D01*
X25417Y46345D01*
X26575Y46231D01*
X27733Y46345D01*
X28846Y46683D01*
X29872Y47231D01*
X30771Y47969D01*
X31509Y48869D01*
X32057Y49894D01*
X32395Y51008D01*
X32509Y52165D01*
X32395Y53323D01*
X32057Y54436D01*
X31509Y55462D01*
X30771Y56361D01*
X29872Y57099D01*
X28846Y57648D01*
X27733Y57985D01*
X26575Y58099D01*
D02*
G37*
G36*
X-94488Y-113099D02*
X-95785Y-113270D01*
X-96994Y-113770D01*
X-98032Y-114567D01*
X-98828Y-115605D01*
X-99329Y-116813D01*
X-99500Y-118110D01*
X-99329Y-119407D01*
X-98828Y-120616D01*
X-98032Y-121654D01*
X-96994Y-122450D01*
X-95785Y-122951D01*
X-94488Y-123122D01*
X-93191Y-122951D01*
X-91983Y-122450D01*
X-90945Y-121654D01*
X-90148Y-120616D01*
X-89648Y-119407D01*
X-89477Y-118110D01*
X-89648Y-116813D01*
X-90148Y-115605D01*
X-90945Y-114567D01*
X-91983Y-113770D01*
X-93191Y-113270D01*
X-94488Y-113099D01*
D02*
G37*
G36*
X-79240Y-71273D02*
X-80784Y-71425D01*
X-82268Y-71875D01*
X-83636Y-72606D01*
X-84835Y-73590D01*
X-85819Y-74789D01*
X-86550Y-76157D01*
X-87000Y-77641D01*
X-87152Y-79185D01*
X-87000Y-80729D01*
X-86550Y-82213D01*
X-85819Y-83581D01*
X-84835Y-84780D01*
X-83636Y-85764D01*
X-82268Y-86495D01*
X-80784Y-86945D01*
X-79240Y-87097D01*
X-77697Y-86945D01*
X-76212Y-86495D01*
X-74844Y-85764D01*
X-73646Y-84780D01*
X-72662Y-83581D01*
X-71930Y-82213D01*
X-71480Y-80729D01*
X-71328Y-79185D01*
X-71480Y-77641D01*
X-71930Y-76157D01*
X-72662Y-74789D01*
X-73646Y-73590D01*
X-74844Y-72606D01*
X-76212Y-71875D01*
X-77697Y-71425D01*
X-79240Y-71273D01*
D02*
G37*
G36*
X118110Y-106263D02*
X116257Y-106409D01*
X114449Y-106843D01*
X112732Y-107554D01*
X111146Y-108525D01*
X109733Y-109733D01*
X108525Y-111146D01*
X107554Y-112732D01*
X106843Y-114449D01*
X106409Y-116257D01*
X106263Y-118110D01*
X106409Y-119964D01*
X106843Y-121771D01*
X107554Y-123489D01*
X108525Y-125074D01*
X109733Y-126488D01*
X111146Y-127695D01*
X112732Y-128666D01*
X114449Y-129378D01*
X116257Y-129812D01*
X118110Y-129958D01*
X119964Y-129812D01*
X121771Y-129378D01*
X123489Y-128666D01*
X125074Y-127695D01*
X126488Y-126488D01*
X127695Y-125074D01*
X128666Y-123489D01*
X129378Y-121771D01*
X129812Y-119964D01*
X129958Y-118110D01*
X129812Y-116257D01*
X129378Y-114449D01*
X128666Y-112732D01*
X127695Y-111146D01*
X126488Y-109733D01*
X125074Y-108525D01*
X123489Y-107554D01*
X121771Y-106843D01*
X119964Y-106409D01*
X118110Y-106263D01*
D02*
G37*
%LPD*%
G36*
X85771Y-22441D02*
X85603Y-22291D01*
X85406Y-22158D01*
X85180Y-22039D01*
X84927Y-21937D01*
X84645Y-21850D01*
X84335Y-21779D01*
X83996Y-21724D01*
X83630Y-21685D01*
X82811Y-21654D01*
Y-17717D01*
X83234Y-17709D01*
X83996Y-17646D01*
X84335Y-17591D01*
X84645Y-17520D01*
X84927Y-17433D01*
X85180Y-17331D01*
X85406Y-17213D01*
X85603Y-17079D01*
X85771Y-16929D01*
Y-22441D01*
D02*
G37*
G36*
X64913Y-21654D02*
X64558Y-21657D01*
X63689Y-21715D01*
X63464Y-21750D01*
X63272Y-21793D01*
X63113Y-21843D01*
X62985Y-21902D01*
X62891Y-21967D01*
X62829Y-22041D01*
X60118Y-19384D01*
X61776Y-17759D01*
X63595Y-17717D01*
X64913Y-21654D01*
D02*
G37*
G36*
X53295Y-17379D02*
X53413Y-17450D01*
X53610Y-17512D01*
X53886Y-17566D01*
X54240Y-17612D01*
X55185Y-17679D01*
X57193Y-17717D01*
Y-17729D01*
X58460Y-17759D01*
X60118Y-19384D01*
X57407Y-22041D01*
X57345Y-21967D01*
X57251Y-21902D01*
X57124Y-21843D01*
X56964Y-21793D01*
X56772Y-21750D01*
X56547Y-21715D01*
X56210Y-21693D01*
X55775Y-21730D01*
X55185Y-21826D01*
X54673Y-21961D01*
X54240Y-22134D01*
X53886Y-22345D01*
X53610Y-22595D01*
X53413Y-22883D01*
X53295Y-23210D01*
X53256Y-23575D01*
Y-17299D01*
X53295Y-17379D01*
D02*
G37*
G36*
X-92467Y-38342D02*
X-92290Y-38844D01*
X-91994Y-39286D01*
X-91580Y-39670D01*
X-91047Y-39994D01*
X-90396Y-40260D01*
X-89627Y-40467D01*
X-88740Y-40614D01*
X-87734Y-40703D01*
X-86609Y-40732D01*
Y-46638D01*
X-87734Y-46667D01*
X-88740Y-46756D01*
X-89627Y-46903D01*
X-90396Y-47110D01*
X-91047Y-47376D01*
X-91580Y-47701D01*
X-91994Y-48085D01*
X-92290Y-48528D01*
X-92468Y-49029D01*
X-92527Y-49591D01*
X-92527Y-37781D01*
X-92467Y-38342D01*
D02*
G37*
G36*
X-18693Y-43693D02*
X-18670Y-43930D01*
X-18632Y-44157D01*
X-18578Y-44374D01*
X-18509Y-44580D01*
X-18425Y-44776D01*
X-18326Y-44962D01*
X-18211Y-45138D01*
X-18080Y-45303D01*
X-17935Y-45459D01*
X-21435D01*
X-21290Y-45303D01*
X-21159Y-45138D01*
X-21045Y-44962D01*
X-20945Y-44776D01*
X-20861Y-44580D01*
X-20792Y-44374D01*
X-20738Y-44157D01*
X-20700Y-43930D01*
X-20677Y-43693D01*
X-20669Y-43446D01*
X-18701D01*
X-18693Y-43693D01*
D02*
G37*
G36*
X-91981Y58817D02*
X-91957Y58608D01*
X-91913Y58403D01*
X-91852Y58201D01*
X-91773Y58003D01*
X-91676Y57808D01*
X-91561Y57617D01*
X-91427Y57430D01*
X-91276Y57246D01*
X-91107Y57065D01*
X-92498Y55673D01*
X-92679Y55843D01*
X-92863Y55994D01*
X-93050Y56128D01*
X-93241Y56243D01*
X-93436Y56340D01*
X-93634Y56419D01*
X-93836Y56480D01*
X-94042Y56523D01*
X-94251Y56548D01*
X-94463Y56555D01*
X-91988Y59030D01*
X-91981Y58817D01*
D02*
G37*
G36*
X-92884Y45303D02*
X-93014Y45138D01*
X-93129Y44962D01*
X-93228Y44776D01*
X-93313Y44580D01*
X-93381Y44374D01*
X-93435Y44157D01*
X-93473Y43930D01*
X-93496Y43693D01*
X-93504Y43446D01*
X-95472D01*
X-95480Y43693D01*
X-95503Y43930D01*
X-95541Y44157D01*
X-95595Y44374D01*
X-95664Y44580D01*
X-95748Y44776D01*
X-95848Y44962D01*
X-95963Y45138D01*
X-96093Y45303D01*
X-96238Y45459D01*
X-92738D01*
X-92884Y45303D01*
D02*
G37*
G36*
X-81685Y27173D02*
X-81662Y26936D01*
X-81624Y26709D01*
X-81570Y26492D01*
X-81502Y26286D01*
X-81417Y26090D01*
X-81318Y25904D01*
X-81203Y25728D01*
X-81073Y25563D01*
X-80927Y25407D01*
X-84427D01*
X-84282Y25563D01*
X-84152Y25728D01*
X-84037Y25904D01*
X-83937Y26090D01*
X-83853Y26286D01*
X-83784Y26492D01*
X-83730Y26709D01*
X-83692Y26936D01*
X-83669Y27173D01*
X-83661Y27420D01*
X-81693D01*
X-81685Y27173D01*
D02*
G37*
G36*
X99370Y101378D02*
X98887Y101371D01*
X98001Y101287D01*
X97598Y101210D01*
X97222Y101109D01*
X96872Y100985D01*
X96549Y100837D01*
X96253Y100666D01*
X95983Y100471D01*
X95740Y100253D01*
X94348Y101645D01*
X94566Y101888D01*
X94761Y102158D01*
X94932Y102455D01*
X95079Y102778D01*
X95204Y103128D01*
X95305Y103504D01*
X95382Y103907D01*
X95436Y104337D01*
X95466Y104793D01*
X95473Y105276D01*
X99370Y101378D01*
D02*
G37*
G36*
X-92548Y84282D02*
X-92382Y84152D01*
X-92206Y84037D01*
X-92020Y83937D01*
X-91824Y83853D01*
X-91618Y83784D01*
X-91401Y83730D01*
X-91175Y83692D01*
X-90937Y83669D01*
X-90690Y83661D01*
Y81693D01*
X-90937Y81685D01*
X-91175Y81662D01*
X-91401Y81624D01*
X-91618Y81570D01*
X-91824Y81502D01*
X-92020Y81417D01*
X-92206Y81318D01*
X-92382Y81203D01*
X-92548Y81073D01*
X-92703Y80927D01*
Y84427D01*
X-92548Y84282D01*
D02*
G37*
G36*
X-91981Y71101D02*
X-91957Y70892D01*
X-91913Y70686D01*
X-91852Y70485D01*
X-91773Y70286D01*
X-91676Y70092D01*
X-91561Y69901D01*
X-91427Y69713D01*
X-91276Y69529D01*
X-91107Y69349D01*
X-92498Y67957D01*
X-92679Y68126D01*
X-92863Y68278D01*
X-93050Y68411D01*
X-93241Y68526D01*
X-93436Y68624D01*
X-93634Y68703D01*
X-93836Y68764D01*
X-94042Y68807D01*
X-94251Y68832D01*
X-94463Y68839D01*
X-91988Y71314D01*
X-91981Y71101D01*
D02*
G37*
G36*
X-91107Y25612D02*
X-91276Y25431D01*
X-91427Y25248D01*
X-91561Y25060D01*
X-91676Y24869D01*
X-91773Y24674D01*
X-91852Y24476D01*
X-91913Y24274D01*
X-91957Y24069D01*
X-91981Y23860D01*
X-91988Y23647D01*
X-94463Y26122D01*
X-94251Y26129D01*
X-94042Y26154D01*
X-93836Y26197D01*
X-93634Y26258D01*
X-93436Y26337D01*
X-93241Y26434D01*
X-93050Y26550D01*
X-92863Y26683D01*
X-92679Y26834D01*
X-92498Y27004D01*
X-91107Y25612D01*
D02*
G37*
G36*
X80779Y4591D02*
X80779Y4586D01*
X80835Y4248D01*
X80905Y3937D01*
X80992Y3656D01*
X81094Y3402D01*
X81213Y3177D01*
X81346Y2980D01*
X81496Y2812D01*
X80815D01*
X80829Y2087D01*
X76651D01*
X76674Y2169D01*
X76694Y2366D01*
X76715Y2812D01*
X75984D01*
X76134Y2980D01*
X76268Y3177D01*
X76386Y3402D01*
X76488Y3656D01*
X76575Y3937D01*
X76646Y4248D01*
X76701Y4586D01*
X76740Y4953D01*
X76745Y5090D01*
X76772Y8106D01*
X80709D01*
X80779Y4591D01*
D02*
G37*
G36*
X-92884Y21681D02*
X-93014Y21516D01*
X-93129Y21340D01*
X-93228Y21154D01*
X-93313Y20958D01*
X-93381Y20752D01*
X-93435Y20535D01*
X-93473Y20308D01*
X-93496Y20071D01*
X-93504Y19824D01*
X-95472D01*
X-95480Y20071D01*
X-95503Y20308D01*
X-95541Y20535D01*
X-95595Y20752D01*
X-95664Y20958D01*
X-95748Y21154D01*
X-95848Y21340D01*
X-95963Y21516D01*
X-96093Y21681D01*
X-96238Y21837D01*
X-92738D01*
X-92884Y21681D01*
D02*
G37*
G36*
X88543Y15748D02*
X88318Y15735D01*
X88085Y15690D01*
X87842Y15615D01*
X87590Y15508D01*
X87330Y15370D01*
X87060Y15200D01*
X86782Y15000D01*
X86494Y14769D01*
X85893Y14212D01*
X83109Y16996D01*
X83403Y17301D01*
X83898Y17884D01*
X84098Y18162D01*
X84267Y18432D01*
X84405Y18692D01*
X84512Y18944D01*
X84588Y19187D01*
X84632Y19421D01*
X84646Y19646D01*
X88543Y15748D01*
D02*
G37*
G36*
X-48439Y10652D02*
X-48594Y10797D01*
X-48760Y10927D01*
X-48935Y11042D01*
X-49121Y11142D01*
X-49317Y11226D01*
X-49524Y11295D01*
X-49740Y11348D01*
X-49967Y11387D01*
X-50204Y11410D01*
X-50452Y11417D01*
Y13386D01*
X-50204Y13394D01*
X-49967Y13417D01*
X-49740Y13455D01*
X-49524Y13508D01*
X-49317Y13577D01*
X-49121Y13661D01*
X-48935Y13761D01*
X-48760Y13876D01*
X-48594Y14006D01*
X-48439Y14152D01*
Y10652D01*
D02*
G37*
D20*
X-79240Y-79185D02*
D03*
X-78740Y-18685D02*
D03*
D22*
X-102362Y11811D02*
Y27559D01*
Y11811D02*
X-90551Y0D01*
X-94488Y15748D02*
Y23622D01*
Y15748D02*
X-91142Y12402D01*
X-46654D01*
X-19685Y-47244D02*
Y-31496D01*
X-90551Y0D02*
X-75614D01*
X-94488Y35433D02*
Y47244D01*
X-102362Y27559D02*
X-94488Y35433D01*
Y71339D02*
X-82677Y59528D01*
Y23622D02*
Y59528D01*
X-94488Y23622D02*
X-87795Y30315D01*
Y52362D01*
X-94488Y59055D02*
X-87795Y52362D01*
X-94488Y82677D02*
X76772D01*
X99410Y105315D01*
X-75614Y0D02*
X-56430Y-19184D01*
X-31997D01*
X-19685Y-31496D01*
D25*
X49055Y-19685D02*
X88583D01*
X78740Y0D02*
Y9843D01*
X88583Y19685D01*
D26*
X118110Y-118110D02*
D03*
X-118110D02*
D03*
Y118110D02*
D03*
X118110D02*
D03*
D27*
X26575Y26575D02*
D03*
Y52165D02*
D03*
X44291Y26575D02*
D03*
Y52165D02*
D03*
X128740Y-19685D02*
D03*
Y19685D02*
D03*
X88583Y-19685D02*
D03*
Y19685D02*
D03*
X78740Y0D02*
D03*
X81693Y105315D02*
D03*
Y130905D02*
D03*
X99410Y105315D02*
D03*
Y130905D02*
D03*
D28*
X-84240Y-66185D02*
D03*
X-75740Y-53685D02*
D03*
D29*
X-96457Y-43685D02*
D03*
D30*
X73740Y39370D02*
D03*
X83740D02*
D03*
X35433Y-44370D02*
D03*
Y-34370D02*
D03*
X78740D02*
D03*
Y-44370D02*
D03*
X-35433D02*
D03*
Y-34370D02*
D03*
D31*
X94488Y-118110D02*
D03*
X-62992D02*
D03*
X129921Y-74803D02*
D03*
X-27559D02*
D03*
D32*
X56929Y129921D02*
D03*
X66929D02*
D03*
X19370D02*
D03*
X29370D02*
D03*
X39370D02*
D03*
D33*
X60118Y12563D02*
D03*
X50118D02*
D03*
X60118Y-20437D02*
D03*
D34*
X50118D02*
D03*
D35*
X118110Y94488D02*
D03*
X-94488Y-118110D02*
D03*
D36*
X-82677Y23622D02*
D03*
X-94488D02*
D03*
X-46654Y12402D02*
D03*
X-19685Y-47244D02*
D03*
X-94488Y82677D02*
D03*
Y71339D02*
D03*
Y59055D02*
D03*
Y47244D02*
D03*
X39370Y-11811D02*
D03*
D37*
X-62992Y-118110D02*
X-55118D01*
X-27559Y-90551D01*
Y-74803D01*
X82677D01*
X128740Y-28740D01*
Y-19685D01*
X9055Y-6693D02*
X15748Y0D01*
X78740D01*
X9055Y-50000D02*
Y-6693D01*
X-51181Y-55118D02*
X3937D01*
X9055Y-50000D01*
X-96457Y-43685D02*
X-62614D01*
X-51181Y-55118D01*
M02*
