G04 Layer_Color=255*
%FSLAX25Y25*%
%MOIN*%
G70*
G01*
G75*
%ADD20C,0.11811*%
%ADD26C,0.19685*%
%ADD27C,0.07874*%
G04:AMPARAMS|DCode=28|XSize=157.48mil|YSize=78.74mil|CornerRadius=19.68mil|HoleSize=0mil|Usage=FLASHONLY|Rotation=0.000|XOffset=0mil|YOffset=0mil|HoleType=Round|Shape=RoundedRectangle|*
%AMROUNDEDRECTD28*
21,1,0.15748,0.03937,0,0,0.0*
21,1,0.11811,0.07874,0,0,0.0*
1,1,0.03937,0.05905,-0.01968*
1,1,0.03937,-0.05905,-0.01968*
1,1,0.03937,-0.05905,0.01968*
1,1,0.03937,0.05905,0.01968*
%
%ADD28ROUNDEDRECTD28*%
G04:AMPARAMS|DCode=29|XSize=157.48mil|YSize=78.74mil|CornerRadius=19.68mil|HoleSize=0mil|Usage=FLASHONLY|Rotation=90.000|XOffset=0mil|YOffset=0mil|HoleType=Round|Shape=RoundedRectangle|*
%AMROUNDEDRECTD29*
21,1,0.15748,0.03937,0,0,90.0*
21,1,0.11811,0.07874,0,0,90.0*
1,1,0.03937,0.01968,0.05905*
1,1,0.03937,0.01968,-0.05905*
1,1,0.03937,-0.01968,-0.05905*
1,1,0.03937,-0.01968,0.05905*
%
%ADD29ROUNDEDRECTD29*%
%ADD30C,0.05512*%
%ADD31C,0.09842*%
%ADD32C,0.07087*%
%ADD33C,0.06299*%
%ADD34R,0.06299X0.06299*%
%ADD35C,0.06000*%
D20*
X-79240Y-79185D02*
D03*
X-78740Y-18685D02*
D03*
D26*
X118110Y-118110D02*
D03*
X-118110D02*
D03*
Y118110D02*
D03*
X118110D02*
D03*
D27*
X26575Y26575D02*
D03*
Y52165D02*
D03*
X44291Y26575D02*
D03*
Y52165D02*
D03*
X128740Y-19685D02*
D03*
Y19685D02*
D03*
X88583Y-19685D02*
D03*
Y19685D02*
D03*
X78740Y0D02*
D03*
X81693Y105315D02*
D03*
Y130905D02*
D03*
X99410Y105315D02*
D03*
Y130905D02*
D03*
D28*
X-84240Y-66185D02*
D03*
X-75740Y-53685D02*
D03*
D29*
X-96457Y-43685D02*
D03*
D30*
X73740Y39370D02*
D03*
X83740D02*
D03*
X35433Y-44370D02*
D03*
Y-34370D02*
D03*
X78740D02*
D03*
Y-44370D02*
D03*
X-35433D02*
D03*
Y-34370D02*
D03*
D31*
X94488Y-118110D02*
D03*
X-62992D02*
D03*
X129921Y-74803D02*
D03*
X-27559D02*
D03*
D32*
X56929Y129921D02*
D03*
X66929D02*
D03*
X19370D02*
D03*
X29370D02*
D03*
X39370D02*
D03*
D33*
X60118Y12563D02*
D03*
X50118D02*
D03*
X60118Y-20437D02*
D03*
D34*
X50118D02*
D03*
D35*
X118110Y94488D02*
D03*
X-94488Y-118110D02*
D03*
M02*
