G04 Layer_Color=127485*
%FSLAX25Y25*%
%MOIN*%
G70*
G01*
G75*
%ADD38C,0.01000*%
%ADD39C,0.00787*%
%ADD40C,0.02362*%
%ADD41C,0.00984*%
D38*
X42323Y39370D02*
G03*
X42323Y39370I-6890J0D01*
G01*
X97441Y118110D02*
G03*
X97441Y118110I-6890J0D01*
G01*
X23622Y27559D02*
Y51181D01*
X47244D01*
Y27559D02*
Y51181D01*
X23622Y27559D02*
X47244D01*
X133858Y-24409D02*
Y24409D01*
X72835Y-24409D02*
X133858D01*
X72835D02*
Y24409D01*
X133858D01*
X-96457Y-8685D02*
X-61024D01*
Y-88685D02*
Y-8685D01*
X-96457Y-88685D02*
Y-8685D01*
Y-88685D02*
X-61024D01*
X-119673Y-57992D02*
X-108673D01*
X-119685Y-72047D02*
X-108661D01*
X-119685Y-53937D02*
X-108661D01*
X-119685Y-72047D02*
Y-53937D01*
X-108661Y-72047D02*
Y-53937D01*
X-57087Y-98610D02*
X88583D01*
Y-137610D02*
Y-98610D01*
X-57087Y-137610D02*
Y-98610D01*
Y-137610D02*
X88583D01*
X-21654Y-55303D02*
X124016D01*
Y-94303D02*
Y-55303D01*
X-21654Y-94303D02*
Y-55303D01*
Y-94303D02*
X124016D01*
X51429Y124421D02*
X71850D01*
X51429Y135421D02*
X71850D01*
Y124421D02*
Y135421D01*
X51429Y124421D02*
Y135421D01*
X-133232Y-17374D02*
Y8126D01*
Y-17374D02*
X-105232D01*
Y8126D01*
X-133232D02*
X-105232D01*
X78740Y129921D02*
X102362D01*
X78740Y106299D02*
Y129921D01*
Y106299D02*
X102362D01*
Y129921D01*
X44870Y124421D02*
Y135421D01*
X13870Y124421D02*
Y135421D01*
Y124421D02*
X44870D01*
X13870Y135421D02*
X44870D01*
X-105193Y30283D02*
Y51783D01*
X-131193Y30283D02*
X-105193D01*
X-131193Y51783D02*
X-126693Y56283D01*
X-131193Y30283D02*
Y51783D01*
X-109694Y56283D02*
X-105193Y51783D01*
X-126693Y56283D02*
X-109694D01*
D39*
X90551Y39370D02*
G03*
X90551Y39370I-11811J0D01*
G01*
X47244Y-39370D02*
G03*
X47244Y-39370I-11811J0D01*
G01*
X90551D02*
G03*
X90551Y-39370I-11811J0D01*
G01*
X44473Y-6466D02*
G03*
X44473Y-1466I0J2500D01*
G01*
X-23622Y-39370D02*
G03*
X-23622Y-39370I-11811J0D01*
G01*
X-10236Y35433D02*
Y135827D01*
X-81102Y35433D02*
X-10236D01*
X-81102D02*
Y135827D01*
X-10236D01*
X-81102Y108661D02*
X-10236D01*
X84646Y34465D02*
Y39370D01*
X35433Y-33465D02*
X40339D01*
X78740D02*
X83646D01*
X-133858Y-51181D02*
X-125984D01*
X-133858Y-66929D02*
X-125984D01*
X-133858D02*
Y-51181D01*
X-125984Y-66929D02*
Y-51181D01*
X-114173Y83268D02*
X-106299D01*
X-114173Y67520D02*
X-106299D01*
X-114173D02*
Y83268D01*
X-106299Y67520D02*
Y83268D01*
X-125984Y102362D02*
X-118110D01*
X-125984Y86614D02*
X-118110D01*
X-125984D02*
Y102362D01*
X-118110Y86614D02*
Y102362D01*
X-106299Y86614D02*
Y102362D01*
X-114173Y86614D02*
Y102362D01*
Y86614D02*
X-106299D01*
X-114173Y102362D02*
X-106299D01*
X64552Y-14399D02*
Y6467D01*
X44473Y-1466D02*
Y6467D01*
Y-14399D02*
Y-6466D01*
Y6467D02*
X64552D01*
X44473Y-14399D02*
X64552D01*
X-66929Y0D02*
Y15748D01*
X-74803Y0D02*
Y15748D01*
Y0D02*
X-66929D01*
X-74803Y15748D02*
X-66929D01*
X-86614Y0D02*
Y15748D01*
X-78740Y0D02*
Y15748D01*
X-86614D02*
X-78740D01*
X-86614Y0D02*
X-78740D01*
X-62992Y15748D02*
X-55118D01*
X-62992Y0D02*
X-55118D01*
X-62992D02*
Y15748D01*
X-55118Y0D02*
Y15748D01*
X98425Y35433D02*
X114173D01*
X98425Y43307D02*
X114173D01*
X98425Y35433D02*
Y43307D01*
X114173Y35433D02*
Y43307D01*
X-7874Y15748D02*
X7874D01*
X-7874Y23622D02*
X7874D01*
X-7874Y15748D02*
Y23622D01*
X7874Y15748D02*
Y23622D01*
X-118110Y-78740D02*
X-110236D01*
X-118110Y-94488D02*
X-110236D01*
X-118110D02*
Y-78740D01*
X-110236Y-94488D02*
Y-78740D01*
X-39370Y0D02*
Y15748D01*
X-31496Y0D02*
Y15748D01*
X-39370D02*
X-31496D01*
X-39370Y0D02*
X-31496D01*
X11811Y-11811D02*
X27559D01*
X11811Y-19685D02*
X27559D01*
Y-11811D01*
X11811Y-19685D02*
Y-11811D01*
X-15748Y-19685D02*
X0D01*
X-15748Y-11811D02*
X0D01*
X-15748Y-19685D02*
Y-11811D01*
X0Y-19685D02*
Y-11811D01*
X591Y-23622D02*
X16339D01*
X591Y-31496D02*
X16339D01*
Y-23622D01*
X591Y-31496D02*
Y-23622D01*
X-15748Y-35433D02*
X0D01*
X-15748Y-43307D02*
X0D01*
Y-35433D01*
X-15748Y-43307D02*
Y-35433D01*
X14567Y-49213D02*
Y-46063D01*
X11024Y-49213D02*
X14567D01*
Y-40551D02*
Y-37402D01*
X11024D02*
X14567D01*
X-35433Y-33465D02*
X-30528D01*
X-43307Y-23622D02*
Y-7874D01*
X-51181Y-23622D02*
Y-7874D01*
Y-23622D02*
X-43307D01*
X-51181Y-7874D02*
X-43307D01*
X-24803Y-21654D02*
Y-18504D01*
X-28346Y-21654D02*
X-24803D01*
Y-12992D02*
Y-9843D01*
X-28346D02*
X-24803D01*
X-98425Y0D02*
Y15748D01*
X-90551Y0D02*
Y15748D01*
X-98425D02*
X-90551D01*
X-98425Y0D02*
X-90551D01*
X95374Y-41240D02*
X98524D01*
X95374D02*
Y-37697D01*
X104035Y-41240D02*
X107185D01*
Y-37697D01*
X-122047Y23621D02*
Y20341D01*
X-121391Y19685D01*
X-120079D01*
X-119423Y20341D01*
Y23621D01*
X-115488Y19685D02*
X-118112D01*
X-115488Y22309D01*
Y22965D01*
X-116144Y23621D01*
X-117455D01*
X-118112Y22965D01*
X3937Y106298D02*
Y103018D01*
X4593Y102362D01*
X5905D01*
X6561Y103018D01*
Y106298D01*
X7873Y102362D02*
X9185D01*
X8529D01*
Y106298D01*
X7873Y105642D01*
X25624Y62580D02*
X24968Y63236D01*
X23656D01*
X23000Y62580D01*
Y61924D01*
X23656Y61268D01*
X24968D01*
X25624Y60612D01*
Y59956D01*
X24968Y59300D01*
X23656D01*
X23000Y59956D01*
X26936Y63236D02*
Y59300D01*
X28248Y60612D01*
X29560Y59300D01*
Y63236D01*
X33495Y59300D02*
X30871D01*
X33495Y61924D01*
Y62580D01*
X32839Y63236D01*
X31527D01*
X30871Y62580D01*
X69553Y113516D02*
X68897Y114172D01*
X67585D01*
X66929Y113516D01*
Y112860D01*
X67585Y112204D01*
X68897D01*
X69553Y111548D01*
Y110892D01*
X68897Y110236D01*
X67585D01*
X66929Y110892D01*
X70865Y114172D02*
Y110236D01*
X72177Y111548D01*
X73489Y110236D01*
Y114172D01*
X74801Y110236D02*
X76113D01*
X75457D01*
Y114172D01*
X74801Y113516D01*
X118110Y27559D02*
Y31495D01*
X120078D01*
X120734Y30839D01*
Y29527D01*
X120078Y28871D01*
X118110D01*
X119422D02*
X120734Y27559D01*
X124670Y31495D02*
X122046D01*
Y27559D01*
X124670D01*
X122046Y29527D02*
X123358D01*
X125982Y31495D02*
Y27559D01*
X128605D01*
X132541Y31495D02*
X129918D01*
Y27559D01*
X132541D01*
X129918Y29527D02*
X131229D01*
X-55118Y-31496D02*
Y-27560D01*
X-53150D01*
X-52494Y-28216D01*
Y-29528D01*
X-53150Y-30184D01*
X-55118D01*
X-53806D02*
X-52494Y-31496D01*
X-51182D02*
X-49870D01*
X-50526D01*
Y-27560D01*
X-51182Y-28216D01*
X-45935Y-31496D02*
Y-27560D01*
X-47903Y-29528D01*
X-45279D01*
X106299Y47244D02*
Y51180D01*
X108267D01*
X108923Y50524D01*
Y49212D01*
X108267Y48556D01*
X106299D01*
X107611D02*
X108923Y47244D01*
X110235D02*
X111547D01*
X110891D01*
Y51180D01*
X110235Y50524D01*
X113515D02*
X114171Y51180D01*
X115483D01*
X116139Y50524D01*
Y49868D01*
X115483Y49212D01*
X114827D01*
X115483D01*
X116139Y48556D01*
Y47900D01*
X115483Y47244D01*
X114171D01*
X113515Y47900D01*
X-11220Y-27559D02*
Y-23623D01*
X-9253D01*
X-8597Y-24279D01*
Y-25591D01*
X-9253Y-26247D01*
X-11220D01*
X-9909D02*
X-8597Y-27559D01*
X-7285D02*
X-5973D01*
X-6629D01*
Y-23623D01*
X-7285Y-24279D01*
X-1381Y-27559D02*
X-4005D01*
X-1381Y-24935D01*
Y-24279D01*
X-2037Y-23623D01*
X-3349D01*
X-4005Y-24279D01*
X-19685Y-33465D02*
Y-29529D01*
X-17717D01*
X-17061Y-30185D01*
Y-31497D01*
X-17717Y-32153D01*
X-19685D01*
X-18373D02*
X-17061Y-33465D01*
X-15749D02*
X-14437D01*
X-15093D01*
Y-29529D01*
X-15749Y-30185D01*
X-12470Y-33465D02*
X-11158D01*
X-11814D01*
Y-29529D01*
X-12470Y-30185D01*
X19685Y-7874D02*
Y-3938D01*
X21653D01*
X22309Y-4594D01*
Y-5906D01*
X21653Y-6562D01*
X19685D01*
X20997D02*
X22309Y-7874D01*
X23621D02*
X24933D01*
X24277D01*
Y-3938D01*
X23621Y-4594D01*
X26901D02*
X27556Y-3938D01*
X28868D01*
X29524Y-4594D01*
Y-7218D01*
X28868Y-7874D01*
X27556D01*
X26901Y-7218D01*
Y-4594D01*
X0Y7874D02*
Y11810D01*
X1968D01*
X2624Y11154D01*
Y9842D01*
X1968Y9186D01*
X0D01*
X1312D02*
X2624Y7874D01*
X3936Y8530D02*
X4592Y7874D01*
X5904D01*
X6560Y8530D01*
Y11154D01*
X5904Y11810D01*
X4592D01*
X3936Y11154D01*
Y10498D01*
X4592Y9842D01*
X6560D01*
X-7874Y-7874D02*
Y-3938D01*
X-5906D01*
X-5250Y-4594D01*
Y-5906D01*
X-5906Y-6562D01*
X-7874D01*
X-6562D02*
X-5250Y-7874D01*
X-3938Y-4594D02*
X-3282Y-3938D01*
X-1970D01*
X-1314Y-4594D01*
Y-5250D01*
X-1970Y-5906D01*
X-1314Y-6562D01*
Y-7218D01*
X-1970Y-7874D01*
X-3282D01*
X-3938Y-7218D01*
Y-6562D01*
X-3282Y-5906D01*
X-3938Y-5250D01*
Y-4594D01*
X-3282Y-5906D02*
X-1970D01*
X-39370Y19685D02*
Y23621D01*
X-37402D01*
X-36746Y22965D01*
Y21653D01*
X-37402Y20997D01*
X-39370D01*
X-38058D02*
X-36746Y19685D01*
X-35434Y23621D02*
X-32811D01*
Y22965D01*
X-35434Y20341D01*
Y19685D01*
X-98425Y-5906D02*
Y-1970D01*
X-96457D01*
X-95801Y-2626D01*
Y-3938D01*
X-96457Y-4594D01*
X-98425D01*
X-97113D02*
X-95801Y-5906D01*
X-91866Y-1970D02*
X-93177Y-2626D01*
X-94490Y-3938D01*
Y-5249D01*
X-93834Y-5906D01*
X-92522D01*
X-91866Y-5249D01*
Y-4594D01*
X-92522Y-3938D01*
X-94490D01*
X-74803Y19685D02*
Y23621D01*
X-72835D01*
X-72179Y22965D01*
Y21653D01*
X-72835Y20997D01*
X-74803D01*
X-73491D02*
X-72179Y19685D01*
X-68244Y23621D02*
X-70867D01*
Y21653D01*
X-69555Y22309D01*
X-68900D01*
X-68244Y21653D01*
Y20341D01*
X-68900Y19685D01*
X-70211D01*
X-70867Y20341D01*
X-86614Y-5906D02*
Y-1970D01*
X-84646D01*
X-83990Y-2626D01*
Y-3938D01*
X-84646Y-4594D01*
X-86614D01*
X-85302D02*
X-83990Y-5906D01*
X-80711D02*
Y-1970D01*
X-82678Y-3938D01*
X-80055D01*
X-39370Y-86614D02*
Y-82678D01*
X-37402D01*
X-36746Y-83334D01*
Y-84646D01*
X-37402Y-85302D01*
X-39370D01*
X-38058D02*
X-36746Y-86614D01*
X-35434Y-83334D02*
X-34778Y-82678D01*
X-33467D01*
X-32811Y-83334D01*
Y-83990D01*
X-33467Y-84646D01*
X-34122D01*
X-33467D01*
X-32811Y-85302D01*
Y-85958D01*
X-33467Y-86614D01*
X-34778D01*
X-35434Y-85958D01*
X-55118Y-94488D02*
Y-90552D01*
X-53150D01*
X-52494Y-91208D01*
Y-92520D01*
X-53150Y-93176D01*
X-55118D01*
X-53806D02*
X-52494Y-94488D01*
X-48559D02*
X-51182D01*
X-48559Y-91864D01*
Y-91208D01*
X-49215Y-90552D01*
X-50526D01*
X-51182Y-91208D01*
X-106299Y106299D02*
Y110235D01*
X-104331D01*
X-103675Y109579D01*
Y108267D01*
X-104331Y107611D01*
X-106299D01*
X-104987D02*
X-103675Y106299D01*
X-102364D02*
X-101052D01*
X-101707D01*
Y110235D01*
X-102364Y109579D01*
X18372Y-34777D02*
Y-32153D01*
X17716Y-31497D01*
X16404D01*
X15748Y-32153D01*
Y-34777D01*
X16404Y-35433D01*
X17716D01*
X17060Y-34121D02*
X18372Y-35433D01*
X17716D02*
X18372Y-34777D01*
X21652Y-35433D02*
Y-31497D01*
X19684Y-33465D01*
X22308D01*
X99771Y-51574D02*
Y-48951D01*
X99115Y-48295D01*
X97803D01*
X97148Y-48951D01*
Y-51574D01*
X97803Y-52230D01*
X99115D01*
X98459Y-50918D02*
X99771Y-52230D01*
X99115D02*
X99771Y-51574D01*
X101083Y-48951D02*
X101739Y-48295D01*
X103051D01*
X103707Y-48951D01*
Y-49606D01*
X103051Y-50262D01*
X102395D01*
X103051D01*
X103707Y-50918D01*
Y-51574D01*
X103051Y-52230D01*
X101739D01*
X101083Y-51574D01*
X35183Y-2529D02*
Y95D01*
X34527Y751D01*
X33215D01*
X32559Y95D01*
Y-2529D01*
X33215Y-3185D01*
X34527D01*
X33871Y-1873D02*
X35183Y-3185D01*
X34527D02*
X35183Y-2529D01*
X39119Y-3185D02*
X36495D01*
X39119Y-561D01*
Y95D01*
X38463Y751D01*
X37151D01*
X36495Y95D01*
X-24935Y-3281D02*
Y-657D01*
X-25591Y-1D01*
X-26903D01*
X-27559Y-657D01*
Y-3281D01*
X-26903Y-3937D01*
X-25591D01*
X-26247Y-2625D02*
X-24935Y-3937D01*
X-25591D02*
X-24935Y-3281D01*
X-23623Y-3937D02*
X-22311D01*
X-22967D01*
Y-1D01*
X-23623Y-657D01*
X-94488Y-94488D02*
Y-90552D01*
X-92520D01*
X-91864Y-91208D01*
Y-92520D01*
X-92520Y-93176D01*
X-94488D01*
X-90552Y-91208D02*
X-89897Y-90552D01*
X-88585D01*
X-87929Y-91208D01*
Y-91864D01*
X-88585Y-92520D01*
X-89240D01*
X-88585D01*
X-87929Y-93176D01*
Y-93832D01*
X-88585Y-94488D01*
X-89897D01*
X-90552Y-93832D01*
X52992Y118110D02*
Y122046D01*
X54960D01*
X55616Y121390D01*
Y120078D01*
X54960Y119422D01*
X52992D01*
X59552Y118110D02*
X56928D01*
X59552Y120734D01*
Y121390D01*
X58896Y122046D01*
X57584D01*
X56928Y121390D01*
X13622Y118110D02*
Y122046D01*
X15590D01*
X16246Y121390D01*
Y120078D01*
X15590Y119422D01*
X13622D01*
X17558Y118110D02*
X18870D01*
X18214D01*
Y122046D01*
X17558Y121390D01*
X-47244Y-55119D02*
Y-59055D01*
X-44620D01*
X-43308Y-55119D02*
Y-59055D01*
X-41341D01*
X-40685Y-58399D01*
Y-55775D01*
X-41341Y-55119D01*
X-43308D01*
X-37405Y-59055D02*
Y-55119D01*
X-39373Y-57087D01*
X-36749D01*
X67300Y58336D02*
Y54400D01*
X69924D01*
X71236Y58336D02*
Y54400D01*
X73204D01*
X73860Y55056D01*
Y57680D01*
X73204Y58336D01*
X71236D01*
X75172Y57680D02*
X75827Y58336D01*
X77139D01*
X77795Y57680D01*
Y57024D01*
X77139Y56368D01*
X76483D01*
X77139D01*
X77795Y55712D01*
Y55056D01*
X77139Y54400D01*
X75827D01*
X75172Y55056D01*
X31496Y-19686D02*
Y-23622D01*
X34120D01*
X35432Y-19686D02*
Y-23622D01*
X37400D01*
X38056Y-22966D01*
Y-20342D01*
X37400Y-19686D01*
X35432D01*
X41991Y-23622D02*
X39367D01*
X41991Y-20998D01*
Y-20342D01*
X41335Y-19686D01*
X40023D01*
X39367Y-20342D01*
X59055Y-47245D02*
Y-51181D01*
X61679D01*
X62991Y-47245D02*
Y-51181D01*
X64959D01*
X65615Y-50525D01*
Y-47901D01*
X64959Y-47245D01*
X62991D01*
X66927Y-51181D02*
X68239D01*
X67583D01*
Y-47245D01*
X66927Y-47901D01*
X-119396Y-44593D02*
Y-48529D01*
X-117428D01*
X-116772Y-47873D01*
Y-45249D01*
X-117428Y-44593D01*
X-119396D01*
X-115460Y-48529D02*
X-114148D01*
X-114804D01*
Y-44593D01*
X-115460Y-45249D01*
X-60368Y22965D02*
X-61024Y23621D01*
X-62336D01*
X-62992Y22965D01*
Y20341D01*
X-62336Y19685D01*
X-61024D01*
X-60368Y20341D01*
X-56433Y23621D02*
X-57744Y22965D01*
X-59056Y21653D01*
Y20341D01*
X-58400Y19685D01*
X-57089D01*
X-56433Y20341D01*
Y20997D01*
X-57089Y21653D01*
X-59056D01*
X-127297Y-83334D02*
X-127953Y-82678D01*
X-129265D01*
X-129921Y-83334D01*
Y-85958D01*
X-129265Y-86614D01*
X-127953D01*
X-127297Y-85958D01*
X-123362Y-82678D02*
X-125986D01*
Y-84646D01*
X-124674Y-83990D01*
X-124018D01*
X-123362Y-84646D01*
Y-85958D01*
X-124018Y-86614D01*
X-125330D01*
X-125986Y-85958D01*
X-128276Y69217D02*
X-128932Y69873D01*
X-130244D01*
X-130900Y69217D01*
Y66593D01*
X-130244Y65937D01*
X-128932D01*
X-128276Y66593D01*
X-124996Y65937D02*
Y69873D01*
X-126964Y67905D01*
X-124340D01*
X-130791Y-44683D02*
X-131447Y-44027D01*
X-132759D01*
X-133415Y-44683D01*
Y-47307D01*
X-132759Y-47963D01*
X-131447D01*
X-130791Y-47307D01*
X-129479Y-44683D02*
X-128823Y-44027D01*
X-127511D01*
X-126855Y-44683D01*
Y-45339D01*
X-127511Y-45995D01*
X-128167D01*
X-127511D01*
X-126855Y-46651D01*
Y-47307D01*
X-127511Y-47963D01*
X-128823D01*
X-129479Y-47307D01*
X-119423Y78083D02*
X-120079Y78739D01*
X-121391D01*
X-122047Y78083D01*
Y75459D01*
X-121391Y74803D01*
X-120079D01*
X-119423Y75459D01*
X-115488Y74803D02*
X-118112D01*
X-115488Y77427D01*
Y78083D01*
X-116144Y78739D01*
X-117455D01*
X-118112Y78083D01*
X-131234Y109579D02*
X-131890Y110235D01*
X-133202D01*
X-133858Y109579D01*
Y106955D01*
X-133202Y106299D01*
X-131890D01*
X-131234Y106955D01*
X-129922Y106299D02*
X-128611D01*
X-129267D01*
Y110235D01*
X-129922Y109579D01*
D40*
X49592Y-10462D02*
G03*
X49592Y-10462I-1181J0D01*
G01*
D41*
X44887Y-18966D02*
G03*
X44887Y-18966I-492J0D01*
G01*
X7874Y-36220D02*
G03*
X7874Y-36220I-492J0D01*
G01*
X-31496Y-8661D02*
G03*
X-31496Y-8661I-492J0D01*
G01*
X108858Y-34055D02*
G03*
X108858Y-34055I-492J0D01*
G01*
M02*
