M48
;Layer_Color=9474304
;FILE_FORMAT=2:5
INCH,LZ
;TYPE=PLATED
T1F00S00C0.02362
T3F00S00C0.03937
T4F00S00C0.07874
T5F00S00C0.11811
%
T01
X007874Y-004437
Y-003437
X0035433
Y-004437
X003937Y-0011811
X-0019685Y-0047244
X-0035433Y-004437
Y-003437
X-0082677Y0023622
X-0094488
Y0047244
Y0059055
Y0071339
Y0082677
X-0046654Y0012402
X007374Y003937
X008374
T03
X0094488Y-011811
X0129921Y-0074803
X012874Y-0019685
X0088583
X007874Y0
X0060118Y-0020437
X0050118
X-0027559Y-0074803
X-0062992Y-011811
X0026575Y0026575
X0044291
X0050118Y0012563
X0060118
X0044291Y0052165
X0026575
X002937Y0129921
X001937
X003937
X0056929
X0066929
X0081693Y0130905
X009941
Y0105315
X0081693
X0088583Y0019685
X012874
T04
X-007924Y-0079185
X-007874Y-0018685
T05
X011811Y-011811
X-011811
Y011811
X011811
M30
