G04 Layer_Color=128*
%FSLAX25Y25*%
%MOIN*%
G70*
G01*
G75*
%ADD22R,0.05905X0.05118*%
%ADD23R,0.05118X0.05905*%
%ADD24R,0.19685X0.19685*%
%ADD25R,0.03543X0.09842*%
%ADD26R,0.09842X0.03543*%
%ADD27R,0.03150X0.04724*%
%ADD28R,0.04724X0.03150*%
%ADD29R,0.06299X0.11811*%
%ADD30R,0.23622X0.27559*%
D22*
X42500Y79028D02*
D03*
Y69972D02*
D03*
X55500Y87472D02*
D03*
Y96528D02*
D03*
X42000Y126028D02*
D03*
Y116972D02*
D03*
Y105528D02*
D03*
Y96472D02*
D03*
X12260Y36555D02*
D03*
Y27500D02*
D03*
X83500Y-56972D02*
D03*
Y-66028D02*
D03*
X58000Y70028D02*
D03*
Y60972D02*
D03*
X74500D02*
D03*
Y70028D02*
D03*
X-500Y22528D02*
D03*
Y13472D02*
D03*
D23*
X-107472Y-15500D02*
D03*
X-116528D02*
D03*
X-126028Y-83500D02*
D03*
X-116972D02*
D03*
X-44528Y-26000D02*
D03*
X-35472D02*
D03*
X103472Y35500D02*
D03*
X112528D02*
D03*
X39972Y0D02*
D03*
X49028D02*
D03*
X22028Y-47000D02*
D03*
X12972D02*
D03*
X-472Y-36000D02*
D03*
X-9528D02*
D03*
X12972Y-58500D02*
D03*
X22028D02*
D03*
D24*
X-40157Y79134D02*
D03*
D25*
X-23465Y34685D02*
D03*
X-18465D02*
D03*
X-43465Y34646D02*
D03*
X-38465D02*
D03*
X-33465D02*
D03*
X-28465D02*
D03*
X-48465D02*
D03*
X-53465D02*
D03*
X-58465D02*
D03*
X-63465D02*
D03*
D26*
X-4764Y106339D02*
D03*
Y101339D02*
D03*
Y96339D02*
D03*
Y91339D02*
D03*
Y71339D02*
D03*
Y76339D02*
D03*
Y81339D02*
D03*
Y86339D02*
D03*
X-4724Y46339D02*
D03*
Y41339D02*
D03*
Y51339D02*
D03*
Y56339D02*
D03*
Y61339D02*
D03*
Y66339D02*
D03*
X-77165D02*
D03*
Y61339D02*
D03*
Y56339D02*
D03*
Y51339D02*
D03*
Y41339D02*
D03*
Y46339D02*
D03*
X-77205Y86339D02*
D03*
Y81339D02*
D03*
Y76339D02*
D03*
Y71339D02*
D03*
Y91339D02*
D03*
Y96339D02*
D03*
Y101339D02*
D03*
Y106339D02*
D03*
D27*
X54760Y-40890D02*
D03*
X62240D02*
D03*
X58500Y-52110D02*
D03*
X12260Y11110D02*
D03*
X19740D02*
D03*
X16000Y-110D02*
D03*
D28*
X13890Y-35740D02*
D03*
Y-28260D02*
D03*
X25110Y-32000D02*
D03*
D29*
X-98504Y1315D02*
D03*
X-116496D02*
D03*
D30*
X-107500Y32000D02*
D03*
M02*
