G04 Layer_Color=127485*
%FSLAX25Y25*%
%MOIN*%
G70*
G01*
G75*
%ADD36C,0.00787*%
%ADD37C,0.01000*%
%ADD38C,0.00984*%
%ADD39C,0.02362*%
%ADD40C,0.00394*%
D36*
X-23622Y-42126D02*
G03*
X-23622Y-42126I-11811J0D01*
G01*
X90551D02*
G03*
X90551Y-42126I-11811J0D01*
G01*
X47244D02*
G03*
X47244Y-42126I-11811J0D01*
G01*
X90551Y40551D02*
G03*
X90551Y40551I-11811J0D01*
G01*
X26757Y-2529D02*
G03*
X26757Y2471I0J2500D01*
G01*
X3685Y-4000D02*
G03*
X3685Y-4000I-19685J0D01*
G01*
X-35433Y-36220D02*
X-30528D01*
X84646Y-47032D02*
Y-42126D01*
X30528Y-48031D02*
X35433D01*
X73835Y34646D02*
X78740D01*
X26757Y-10462D02*
X46836D01*
X26757Y10404D02*
X46836D01*
X26757Y-10462D02*
Y-2529D01*
Y2471D02*
Y10404D01*
X46836Y-10462D02*
Y10404D01*
X-10000Y-8968D02*
X-12624D01*
X-11312Y-10280D02*
Y-7656D01*
D37*
X42323Y40551D02*
G03*
X42323Y40551I-6890J0D01*
G01*
X87890Y105500D02*
G03*
X87890Y105500I-6890J0D01*
G01*
X23622Y28740D02*
X47244D01*
Y52362D01*
X23622D02*
X47244D01*
X23622Y28740D02*
Y52362D01*
X-96457Y-86717D02*
X-61024D01*
X-96457D02*
Y-6717D01*
X-61024Y-86717D02*
Y-6717D01*
X-96457D02*
X-61024D01*
X57087Y24409D02*
X118110D01*
X57087Y-24409D02*
Y24409D01*
Y-24409D02*
X118110D01*
Y24409D01*
X92811Y93689D02*
Y117311D01*
X69189D02*
X92811D01*
X69189Y93689D02*
Y117311D01*
Y93689D02*
X92811D01*
X-94500Y87000D02*
Y94685D01*
X-105500Y87000D02*
Y95185D01*
X-94500Y94685D02*
Y107000D01*
X-105500D02*
X-94500D01*
X-105500Y95185D02*
Y107000D01*
X-94500Y66000D02*
Y72685D01*
X-105500Y66000D02*
Y73185D01*
Y66000D02*
X-94500D01*
Y72685D02*
Y76000D01*
X-105500Y73185D02*
Y76000D01*
Y84185D02*
Y87000D01*
X-94500Y83685D02*
Y87000D01*
X-105500Y76000D02*
Y84185D01*
X-94500Y76000D02*
Y83685D01*
X-85000Y6500D02*
X-64579D01*
X-85000Y17500D02*
X-64579D01*
Y6500D02*
Y17500D01*
X-85000Y6500D02*
Y17500D01*
X-74075Y-98000D02*
X71595D01*
Y-137000D02*
Y-98000D01*
X-74075Y-137000D02*
Y-98000D01*
Y-137000D02*
X71595D01*
X-33094Y-57500D02*
X112575D01*
Y-96500D02*
Y-57500D01*
X-33094Y-96500D02*
Y-57500D01*
Y-96500D02*
X112575D01*
D38*
X27170Y-15029D02*
G03*
X27170Y-15029I-492J0D01*
G01*
D39*
X31875Y-6525D02*
G03*
X31875Y-6525I-1181J0D01*
G01*
D40*
X78624Y123280D02*
X77968Y123936D01*
X76656D01*
X76000Y123280D01*
Y122624D01*
X76656Y121968D01*
X77968D01*
X78624Y121312D01*
Y120656D01*
X77968Y120000D01*
X76656D01*
X76000Y120656D01*
X79936Y123936D02*
Y120000D01*
X81248Y121312D01*
X82560Y120000D01*
Y123936D01*
X86495Y120000D02*
X83872D01*
X86495Y122624D01*
Y123280D01*
X85839Y123936D01*
X84527D01*
X83872Y123280D01*
X-58500Y9000D02*
X-62436D01*
Y10968D01*
X-61780Y11624D01*
X-60468D01*
X-59812Y10968D01*
Y9000D01*
X-58500Y15560D02*
Y12936D01*
X-61124Y15560D01*
X-61780D01*
X-62436Y14904D01*
Y13592D01*
X-61780Y12936D01*
X-107809Y-41564D02*
Y-45500D01*
X-105841D01*
X-105185Y-44844D01*
Y-42220D01*
X-105841Y-41564D01*
X-107809D01*
X-103873Y-45500D02*
X-102561D01*
X-103217D01*
Y-41564D01*
X-103873Y-42220D01*
X-49000Y-24064D02*
Y-28000D01*
X-46376D01*
X-45064Y-24064D02*
Y-28000D01*
X-43096D01*
X-42440Y-27344D01*
Y-24720D01*
X-43096Y-24064D01*
X-45064D01*
X-41129Y-28000D02*
X-39817D01*
X-40473D01*
Y-24064D01*
X-41129Y-24720D01*
X91500Y-32064D02*
Y-36000D01*
X94124D01*
X95436Y-32064D02*
Y-36000D01*
X97404D01*
X98060Y-35344D01*
Y-32720D01*
X97404Y-32064D01*
X95436D01*
X101995Y-36000D02*
X99371D01*
X101995Y-33376D01*
Y-32720D01*
X101339Y-32064D01*
X100027D01*
X99371Y-32720D01*
X48500Y-31564D02*
Y-35500D01*
X51124D01*
X52436Y-31564D02*
Y-35500D01*
X54404D01*
X55060Y-34844D01*
Y-32220D01*
X54404Y-31564D01*
X52436D01*
X56371Y-32220D02*
X57027Y-31564D01*
X58339D01*
X58995Y-32220D01*
Y-32876D01*
X58339Y-33532D01*
X57683D01*
X58339D01*
X58995Y-34188D01*
Y-34844D01*
X58339Y-35500D01*
X57027D01*
X56371Y-34844D01*
X82000Y58936D02*
Y55000D01*
X84624D01*
X85936Y58936D02*
Y55000D01*
X87904D01*
X88560Y55656D01*
Y58280D01*
X87904Y58936D01*
X85936D01*
X91839Y55000D02*
Y58936D01*
X89872Y56968D01*
X92495D01*
X-113000Y100000D02*
Y103936D01*
X-111032D01*
X-110376Y103280D01*
Y101968D01*
X-111032Y101312D01*
X-113000D01*
X-109064Y100000D02*
X-107752D01*
X-108408D01*
Y103936D01*
X-109064Y103280D01*
X22124Y-9844D02*
Y-7220D01*
X21468Y-6564D01*
X20156D01*
X19500Y-7220D01*
Y-9844D01*
X20156Y-10500D01*
X21468D01*
X20812Y-9188D02*
X22124Y-10500D01*
X21468D02*
X22124Y-9844D01*
X23436Y-10500D02*
X24748D01*
X24092D01*
Y-6564D01*
X23436Y-7220D01*
X26124Y63280D02*
X25468Y63936D01*
X24156D01*
X23500Y63280D01*
Y62624D01*
X24156Y61968D01*
X25468D01*
X26124Y61312D01*
Y60656D01*
X25468Y60000D01*
X24156D01*
X23500Y60656D01*
X27436Y63936D02*
Y60000D01*
X28748Y61312D01*
X30060Y60000D01*
Y63936D01*
X31372Y60000D02*
X32683D01*
X32027D01*
Y63936D01*
X31372Y63280D01*
X-86000Y-93000D02*
Y-89064D01*
X-84032D01*
X-83376Y-89720D01*
Y-91032D01*
X-84032Y-91688D01*
X-86000D01*
X-80096Y-93000D02*
Y-89064D01*
X-82064Y-91032D01*
X-79440D01*
X94492Y27315D02*
Y31251D01*
X96460D01*
X97116Y30595D01*
Y29283D01*
X96460Y28627D01*
X94492D01*
X95804D02*
X97116Y27315D01*
X101052Y31251D02*
X98428D01*
Y27315D01*
X101052D01*
X98428Y29283D02*
X99740D01*
X102364Y31251D02*
Y27315D01*
X104987D01*
X108923Y31251D02*
X106299D01*
Y27315D01*
X108923D01*
X106299Y29283D02*
X107611D01*
X110235Y27315D02*
X111547D01*
X110891D01*
Y31251D01*
X110235Y30595D01*
X77500Y-131500D02*
Y-127564D01*
X79468D01*
X80124Y-128220D01*
Y-129532D01*
X79468Y-130188D01*
X77500D01*
X78812D02*
X80124Y-131500D01*
X81436D02*
X82748D01*
X82092D01*
Y-127564D01*
X81436Y-128220D01*
X84715Y-131500D02*
X86027D01*
X85372D01*
Y-127564D01*
X84715Y-128220D01*
X110000Y-54500D02*
Y-50564D01*
X111968D01*
X112624Y-51220D01*
Y-52532D01*
X111968Y-53188D01*
X110000D01*
X111312D02*
X112624Y-54500D01*
X113936D02*
X115248D01*
X114592D01*
Y-50564D01*
X113936Y-51220D01*
X119839Y-54500D02*
X117216D01*
X119839Y-51876D01*
Y-51220D01*
X119183Y-50564D01*
X117871D01*
X117216Y-51220D01*
X-43376Y-1220D02*
X-44032Y-564D01*
X-45344D01*
X-46000Y-1220D01*
Y-3844D01*
X-45344Y-4500D01*
X-44032D01*
X-43376Y-3844D01*
X-40096Y-4500D02*
Y-564D01*
X-42064Y-2532D01*
X-39440D01*
M02*
