G04 Layer_Color=8388736*
%FSLAX25Y25*%
%MOIN*%
G70*
G01*
G75*
%ADD41C,0.20485*%
%ADD42C,0.07887*%
%ADD43C,0.08674*%
G04:AMPARAMS|DCode=44|XSize=165.48mil|YSize=86.74mil|CornerRadius=23.68mil|HoleSize=0mil|Usage=FLASHONLY|Rotation=90.000|XOffset=0mil|YOffset=0mil|HoleType=Round|Shape=RoundedRectangle|*
%AMROUNDEDRECTD44*
21,1,0.16548,0.03937,0,0,90.0*
21,1,0.11811,0.08674,0,0,90.0*
1,1,0.04737,0.01968,0.05905*
1,1,0.04737,0.01968,-0.05905*
1,1,0.04737,-0.01968,-0.05905*
1,1,0.04737,-0.01968,0.05905*
%
%ADD44ROUNDEDRECTD44*%
G04:AMPARAMS|DCode=45|XSize=165.48mil|YSize=86.74mil|CornerRadius=23.68mil|HoleSize=0mil|Usage=FLASHONLY|Rotation=0.000|XOffset=0mil|YOffset=0mil|HoleType=Round|Shape=RoundedRectangle|*
%AMROUNDEDRECTD45*
21,1,0.16548,0.03937,0,0,0.0*
21,1,0.11811,0.08674,0,0,0.0*
1,1,0.04737,0.05905,-0.01968*
1,1,0.04737,-0.05905,-0.01968*
1,1,0.04737,-0.05905,0.01968*
1,1,0.04737,0.05905,0.01968*
%
%ADD45ROUNDEDRECTD45*%
%ADD46C,0.12611*%
%ADD47C,0.06800*%
%ADD48R,0.07887X0.07887*%
%ADD49C,0.10642*%
%ADD50C,0.07099*%
D41*
X-72835Y41551D02*
D03*
X-41339Y40551D02*
D03*
X-118110Y-118110D02*
D03*
X118110D02*
D03*
Y118110D02*
D03*
X-118110D02*
D03*
D42*
X-35433Y-37126D02*
D03*
Y-47126D02*
D03*
X73740Y-42126D02*
D03*
X83740D02*
D03*
X35433Y-47126D02*
D03*
Y-37126D02*
D03*
X78740Y35551D02*
D03*
Y45551D02*
D03*
X42402Y-16500D02*
D03*
X32402Y16500D02*
D03*
X42402D02*
D03*
X-100000Y91500D02*
D03*
Y71500D02*
D03*
Y81500D02*
D03*
Y101500D02*
D03*
X-79500Y12000D02*
D03*
X-69500D02*
D03*
X-51500Y-59000D02*
D03*
X124000Y35000D02*
D03*
X51500Y111000D02*
D03*
X12500Y-14500D02*
D03*
X-500Y-47000D02*
D03*
D43*
X44291Y53347D02*
D03*
Y27756D02*
D03*
X26575Y53347D02*
D03*
Y27756D02*
D03*
X62992Y0D02*
D03*
X72835Y19685D02*
D03*
Y-19685D02*
D03*
X112992Y19685D02*
D03*
Y-19685D02*
D03*
X68205Y114358D02*
D03*
X93795D02*
D03*
X68205Y96642D02*
D03*
X93795D02*
D03*
X-107000Y56500D02*
D03*
D44*
X-96457Y-41717D02*
D03*
D45*
X-75740Y-51717D02*
D03*
X-84240Y-64217D02*
D03*
D46*
X-78740Y-16716D02*
D03*
X-79240Y-77217D02*
D03*
D47*
X-84240Y-64217D02*
D03*
X-82677D02*
D03*
X-80709D02*
D03*
X-86614D02*
D03*
X-88583D02*
D03*
X-80083Y-51717D02*
D03*
X-78114D02*
D03*
X-72209D02*
D03*
X-74177D02*
D03*
X-75740D02*
D03*
X-96457Y-46059D02*
D03*
Y-44091D02*
D03*
Y-38185D02*
D03*
Y-40154D02*
D03*
Y-41717D02*
D03*
X50000Y-27000D02*
D03*
X-54000Y12000D02*
D03*
D48*
X32402Y-16500D02*
D03*
D49*
X-116809Y-29315D02*
D03*
Y-68685D02*
D03*
X77500Y-117500D02*
D03*
X-79980D02*
D03*
X118480Y-77000D02*
D03*
X-39000D02*
D03*
D50*
X-25842Y-4000D02*
D03*
X-6157D02*
D03*
M02*
