M48
;Layer_Color=9474304
;FILE_FORMAT=2:5
INCH,LZ
;TYPE=PLATED
T2F00S00C0.03150
%
G90
G05
T02
G00X0875996Y0451532
M15
G01X0884657
M16
G00X0884496Y0464032
M15
G01X0893157
M16
G00X086811Y0469701
M15
G01Y0478362
M16
G00X0608906Y0464032
M15
G01X0617567
M16
G00X0600406Y0451532
M15
G01X0609067
M16
G00X059252Y0469701
M15
G01Y0478362
M16
G00X0333315Y0464032
M15
G01X0341976
M16
G00X0324815Y0451532
M15
G01X0333476
M16
G00X0316929Y0469701
M15
G01Y0478362
M16
G00X0875996Y074287
M15
G01X0884657
M16
G00X0884496Y075537
M15
G01X0893157
M16
G00X086811Y0761039
M15
G01Y0769701
M16
G00X0608906Y075537
M15
G01X0617567
M16
G00X0600406Y074287
M15
G01X0609067
M16
G00X059252Y0761039
M15
G01Y0769701
M16
G00X0333315Y075537
M15
G01X0341976
M16
G00X0324815Y074287
M15
G01X0333476
M16
G00X0316929Y0761039
M15
G01Y0769701
M16
M17
M30
