M48
;Layer_Color=9474304
;FILE_FORMAT=2:5
INCH,LZ
;TYPE=PLATED
T1F00S00C0.03150
T3F00S00C0.03937
T4F00S00C0.04724
T5F00S00C0.05906
T6F00S00C0.07874
T7F00S00C0.11811
T8F00S00C0.15748
%
T01
X1Y0468622
Y0478622
X1014567Y0488748
X1038307Y0473622
X1048307
X0964067Y0468748
X0929134Y0468622
Y0478622
X0913067Y0456748
X0892358Y0464032
X089039
X0888827
X0886453
X0884484
X0883858Y0451532
X088189
X0880327
X0877953
X0875984
X086811Y0469689
Y0471658
Y0474031
Y0475595
Y0477563
X0938724Y0511748
X0958409
X0977067Y0501248
X0772717Y0473622
X0762716
X0738976Y0488748
X0724409Y0478622
Y0468622
X0688476Y0468748
X0701476Y0501248
X0682819Y0511748
X0663134
X0653543Y0478622
Y0468622
X0637476Y0456748
X0616768Y0464032
X0614799
X0613236
X0610862
X0608894
X0608268Y0451532
X0606299
X0604736
X0602362
X0600394
X059252Y0469689
Y0471658
Y0474031
Y0475595
Y0477563
X0497126Y0473622
X0487126
X0463386Y0488748
X0448819Y0478622
Y0468622
X0412886Y0468748
X0377953Y0468622
Y0478622
X0387543Y0511748
X0407228
X0425886Y0501248
X0361886Y0456748
X0341177Y0464032
X0339209
X0337646
X0335272
X0333303
X0332677Y0451532
X0330709
X0329146
X0326772
X0324803
X0316929Y0469689
Y0471658
Y0474031
Y0475595
Y0477563
X0359386Y0527748
X0306386Y0572248
X0492126Y0561299
Y0551299
X0464886Y0626748
X0537386Y0550748
X0581976Y0572248
X0634976Y0527748
X0767717Y0551299
Y0561299
X0812976Y0550748
X0740476Y0626748
X0857567Y0572248
X0910567Y0527748
X1043307Y0551299
Y0561299
X1088567Y0550748
X1016067Y0626748
X1Y0759961
Y0769961
X1014567Y0780087
X1038307Y0764961
X1048307
X0964067Y0760087
X0929134Y0759961
Y0769961
X0913067Y0748087
X0892358Y075537
X089039
X0888827
X0886453
X0884484
X0883858Y074287
X088189
X0880327
X0877953
X0875984
X086811Y0761028
Y0762996
Y076537
Y0766933
Y0768902
X0910567Y0819087
X0938724Y0803087
X0958409
X0977067Y0792587
X0772717Y0764961
X0762716
X0738976Y0780087
X0724409Y0769961
Y0759961
X0688476Y0760087
X0701476Y0792587
X0682819Y0803087
X0663134
X0653543Y0769961
Y0759961
X0637476Y0748087
X0616768Y075537
X0614799
X0613236
X0610862
X0608894
X0608268Y074287
X0606299
X0604736
X0602362
X0600394
X059252Y0761028
Y0762996
Y076537
Y0766933
Y0768902
X0634976Y0819087
X0497126Y0764961
X0487126
X0463386Y0780087
X0448819Y0769961
Y0759961
X0412886Y0760087
X0377953Y0759961
Y0769961
X0387543Y0803087
X0407228
X0425886Y0792587
X0359386Y0819087
X0361886Y0748087
X0341177Y075537
X0339209
X0337646
X0335272
X0333303
X0332677Y074287
X0330709
X0329146
X0326772
X0324803
X0316929Y0761028
Y0762996
Y076537
Y0766933
Y0768902
X0306386Y0863587
X0492126Y0852638
Y0842638
X0464886Y0918087
X0537386Y0842087
X0581976Y0863587
X0767717Y0852638
Y0842638
X0812976Y0842087
X0740476Y0918087
X0857567Y0863587
X1043307Y0852638
Y0842638
X1088567Y0842087
X1016067Y0918087
T03
X1042067Y0398248
X1083047Y0438748
X1077559Y0496063
X1037402
X1027559Y0515748
X1006968Y0499248
X0996968
X0925567Y0438748
X0884587Y0398248
X0807457Y0438748
X0801968Y0496063
X0761811
X0751968Y0515748
X0731378Y0499248
X0721378
X0766476Y0398248
X0649976Y0438748
X0608996Y0398248
X0531866Y0438748
X0526378Y0496063
X0486221
X0476378Y0515748
X0455787Y0499248
X0445787
X0374386Y0438748
X0490886Y0398248
X0333405
X0333886Y0527748
X0343886
X0313386Y0587248
Y0597248
Y0607248
Y0617248
X0481591Y061239
Y0630106
X0507181
Y061239
X0457677Y0569095
X0439961
Y0543504
X0445787Y0532248
X0455787
X0457677Y0543504
X0486221Y0535433
X0526378
X0609476Y0527748
X0619476
X0588976Y0587248
Y0597248
Y0607248
Y0617248
X0757181Y061239
Y0630106
X0782772
Y061239
X0733268Y0569095
X0715551
Y0543504
X0721378Y0532248
X0731378
X0733268Y0543504
X0761811Y0535433
X0801968
X0885067Y0527748
X0895067
X0864567Y0587248
Y0597248
Y0607248
Y0617248
X0991142Y0569095
Y0543504
X0996968Y0532248
X1006968
X1008858Y0543504
Y0569095
X1037402Y0535433
X1077559
X1058362Y061239
Y0630106
X1032772
Y061239
X1042067Y0689587
X1083047Y0730087
X1077559Y0787402
Y0826772
X1037402
X1027559Y0807087
X1037402Y0787402
X1006968Y0790587
X0996968
Y0823587
X1006968
X1008858Y0834842
X0991142
X0895067Y0819087
X0885067
X0925567Y0730087
X0884587Y0689587
X0807457Y0730087
X0801968Y0787402
Y0826772
X0761811
X0751968Y0807087
X0761811Y0787402
X0731378Y0790587
X0721378
Y0823587
X0731378
X0733268Y0834842
X0715551
X0766476Y0689587
X0649976Y0730087
X0608996Y0689587
X0531866Y0730087
X0526378Y0787402
Y0826772
X0609476Y0819087
X0619476
X0486221Y0826772
X0476378Y0807087
X0486221Y0787402
X0455787Y0790587
X0445787
Y0823587
X0455787
X0457677Y0834842
X0439961
X0374386Y0730087
X0490886Y0689587
X0333405
X0333886Y0819087
X0343886
X0313386Y0878587
Y0888587
Y0898587
Y0908587
X0481591Y0903728
Y0921445
X0507181
Y0903728
X0457677Y0860433
X0439961
X0588976Y0878587
Y0888587
Y0898587
Y0908587
X0757181Y0903728
Y0921445
X0782772
Y0903728
X0733268Y0860433
X0715551
X0864567Y0878587
Y0888587
Y0898587
Y0908587
X0991142Y0860433
X1008858
X1032772Y0903728
Y0921445
X1058362
Y0903728
T04
X0847758Y0447063
Y0486433
X0572168
Y0447063
X0296577
Y0486433
X0847758Y0738402
Y0777772
X0572168
Y0738402
X0296577
Y0777772
T05
X0314961Y0362205
X1062992
X0314961Y096063
X1062992
T06
X0885327Y0438531
X0885827Y0499031
X0610236
X0609736Y0438531
X0334146
X0334646Y0499031
X0885327Y072987
X0885827Y079037
X0610236
X0609736Y072987
X0334146
X0334646Y079037
T07
X1082677Y0397638
X0846457
X0807087
X0570866
X0531496
X0295276
Y0633858
X0531496
X0570866
X0807087
X0846457
X1082677
Y0688976
X0846457
X0807087
X0570866
X0531496
X0295276
Y0925197
X0531496
X0570866
X0807087
X0846457
X1082677
T08
X0295276Y0362205
X1082677
X0295276Y096063
X1082677
M30
