G04 Layer_Color=16711935*
%FSLAX25Y25*%
%MOIN*%
G70*
G01*
G75*
%ADD42C,0.20485*%
%ADD43C,0.04737*%
%ADD44C,0.13874*%
%ADD45C,0.06800*%
%ADD46C,0.07887*%
%ADD47C,0.08674*%
G04:AMPARAMS|DCode=48|XSize=165.48mil|YSize=86.74mil|CornerRadius=23.68mil|HoleSize=0mil|Usage=FLASHONLY|Rotation=90.000|XOffset=0mil|YOffset=0mil|HoleType=Round|Shape=RoundedRectangle|*
%AMROUNDEDRECTD48*
21,1,0.16548,0.03937,0,0,90.0*
21,1,0.11811,0.08674,0,0,90.0*
1,1,0.04737,0.01968,0.05905*
1,1,0.04737,0.01968,-0.05905*
1,1,0.04737,-0.01968,-0.05905*
1,1,0.04737,-0.01968,0.05905*
%
%ADD48ROUNDEDRECTD48*%
G04:AMPARAMS|DCode=49|XSize=165.48mil|YSize=86.74mil|CornerRadius=23.68mil|HoleSize=0mil|Usage=FLASHONLY|Rotation=0.000|XOffset=0mil|YOffset=0mil|HoleType=Round|Shape=RoundedRectangle|*
%AMROUNDEDRECTD49*
21,1,0.16548,0.03937,0,0,0.0*
21,1,0.11811,0.08674,0,0,0.0*
1,1,0.04737,0.05905,-0.01968*
1,1,0.04737,-0.05905,-0.01968*
1,1,0.04737,-0.05905,0.01968*
1,1,0.04737,0.05905,0.01968*
%
%ADD49ROUNDEDRECTD49*%
%ADD50C,0.12611*%
%ADD51R,0.07887X0.07887*%
%ADD52C,0.10642*%
%ADD53C,0.07099*%
%ADD54R,0.06706X0.05918*%
%ADD55R,0.05918X0.06706*%
%ADD56R,0.20485X0.20485*%
%ADD57R,0.04343X0.10642*%
%ADD58R,0.10642X0.04343*%
%ADD59R,0.03950X0.05524*%
%ADD60R,0.05524X0.03950*%
%ADD61R,0.07099X0.12611*%
%ADD62R,0.24422X0.28359*%
D42*
X295276Y397638D02*
D03*
X531496D02*
D03*
Y633858D02*
D03*
X295276D02*
D03*
X570866Y397638D02*
D03*
X807087D02*
D03*
Y633858D02*
D03*
X570866D02*
D03*
X846457Y397638D02*
D03*
X1082677D02*
D03*
Y633858D02*
D03*
X846457D02*
D03*
X295276Y688976D02*
D03*
X531496D02*
D03*
Y925197D02*
D03*
X295276D02*
D03*
X570866Y688976D02*
D03*
X807087D02*
D03*
Y925197D02*
D03*
X570866D02*
D03*
X846457Y688976D02*
D03*
X1082677D02*
D03*
Y925197D02*
D03*
X846457D02*
D03*
D43*
X314961Y960630D02*
D03*
X1062992D02*
D03*
X314961Y362205D02*
D03*
X1062992D02*
D03*
D44*
X334646Y960630D02*
D03*
X1043307D02*
D03*
X334646Y362205D02*
D03*
X1043307D02*
D03*
D45*
X295276Y960630D02*
D03*
X1082677D02*
D03*
X295276Y362205D02*
D03*
X1082677D02*
D03*
X329146Y451532D02*
D03*
X330709D02*
D03*
X332677D02*
D03*
X326772D02*
D03*
X324803D02*
D03*
X333303Y464032D02*
D03*
X335272D02*
D03*
X341177D02*
D03*
X339209D02*
D03*
X337646D02*
D03*
X316929Y469689D02*
D03*
Y471658D02*
D03*
Y477563D02*
D03*
Y475595D02*
D03*
Y474031D02*
D03*
X463386Y488748D02*
D03*
X359386Y527748D02*
D03*
X604736Y451532D02*
D03*
X606299D02*
D03*
X608268D02*
D03*
X602362D02*
D03*
X600394D02*
D03*
X608894Y464032D02*
D03*
X610862D02*
D03*
X616768D02*
D03*
X614799D02*
D03*
X613236D02*
D03*
X592520Y469689D02*
D03*
Y471658D02*
D03*
Y477563D02*
D03*
Y475595D02*
D03*
Y474031D02*
D03*
X738976Y488748D02*
D03*
X634976Y527748D02*
D03*
X880327Y451532D02*
D03*
X881890D02*
D03*
X883858D02*
D03*
X877953D02*
D03*
X875984D02*
D03*
X884484Y464032D02*
D03*
X886453D02*
D03*
X892358D02*
D03*
X890390D02*
D03*
X888827D02*
D03*
X868110Y469689D02*
D03*
Y471658D02*
D03*
Y477563D02*
D03*
Y475595D02*
D03*
Y474031D02*
D03*
X1014567Y488748D02*
D03*
X910567Y527748D02*
D03*
X329146Y742870D02*
D03*
X330709D02*
D03*
X332677D02*
D03*
X326772D02*
D03*
X324803D02*
D03*
X333303Y755370D02*
D03*
X335272D02*
D03*
X341177D02*
D03*
X339209D02*
D03*
X337646D02*
D03*
X316929Y761028D02*
D03*
Y762996D02*
D03*
Y768902D02*
D03*
Y766933D02*
D03*
Y765370D02*
D03*
X463386Y780087D02*
D03*
X359386Y819087D02*
D03*
X604736Y742870D02*
D03*
X606299D02*
D03*
X608268D02*
D03*
X602362D02*
D03*
X600394D02*
D03*
X608894Y755370D02*
D03*
X610862D02*
D03*
X616768D02*
D03*
X614799D02*
D03*
X613236D02*
D03*
X592520Y761028D02*
D03*
Y762996D02*
D03*
Y768902D02*
D03*
Y766933D02*
D03*
Y765370D02*
D03*
X738976Y780087D02*
D03*
X634976Y819087D02*
D03*
X880327Y742870D02*
D03*
X881890D02*
D03*
X883858D02*
D03*
X877953D02*
D03*
X875984D02*
D03*
X884484Y755370D02*
D03*
X886453D02*
D03*
X892358D02*
D03*
X890390D02*
D03*
X888827D02*
D03*
X868110Y761028D02*
D03*
Y762996D02*
D03*
Y768902D02*
D03*
Y766933D02*
D03*
Y765370D02*
D03*
X1014567Y780087D02*
D03*
X910567Y819087D02*
D03*
D46*
X377953Y478622D02*
D03*
Y468622D02*
D03*
X487126Y473622D02*
D03*
X497126D02*
D03*
X448819Y468622D02*
D03*
Y478622D02*
D03*
X492126Y551299D02*
D03*
Y561299D02*
D03*
X455787Y499248D02*
D03*
X445787Y532248D02*
D03*
X455787D02*
D03*
X313386Y607248D02*
D03*
Y587248D02*
D03*
Y597248D02*
D03*
Y617248D02*
D03*
X333886Y527748D02*
D03*
X343886D02*
D03*
X361886Y456748D02*
D03*
X537386Y550748D02*
D03*
X464886Y626748D02*
D03*
X425886Y501248D02*
D03*
X412886Y468748D02*
D03*
X653543Y478622D02*
D03*
Y468622D02*
D03*
X762716Y473622D02*
D03*
X772717D02*
D03*
X724409Y468622D02*
D03*
Y478622D02*
D03*
X767717Y551299D02*
D03*
Y561299D02*
D03*
X731378Y499248D02*
D03*
X721378Y532248D02*
D03*
X731378D02*
D03*
X588976Y607248D02*
D03*
Y587248D02*
D03*
Y597248D02*
D03*
Y617248D02*
D03*
X609476Y527748D02*
D03*
X619476D02*
D03*
X637476Y456748D02*
D03*
X812976Y550748D02*
D03*
X740476Y626748D02*
D03*
X701476Y501248D02*
D03*
X688476Y468748D02*
D03*
X929134Y478622D02*
D03*
Y468622D02*
D03*
X1038307Y473622D02*
D03*
X1048307D02*
D03*
X1000000Y468622D02*
D03*
Y478622D02*
D03*
X1043307Y551299D02*
D03*
Y561299D02*
D03*
X1006968Y499248D02*
D03*
X996968Y532248D02*
D03*
X1006968D02*
D03*
X864567Y607248D02*
D03*
Y587248D02*
D03*
Y597248D02*
D03*
Y617248D02*
D03*
X885067Y527748D02*
D03*
X895067D02*
D03*
X913067Y456748D02*
D03*
X1088567Y550748D02*
D03*
X1016067Y626748D02*
D03*
X977067Y501248D02*
D03*
X964067Y468748D02*
D03*
X377953Y769961D02*
D03*
Y759961D02*
D03*
X487126Y764961D02*
D03*
X497126D02*
D03*
X448819Y759961D02*
D03*
Y769961D02*
D03*
X492126Y842638D02*
D03*
Y852638D02*
D03*
X455787Y790587D02*
D03*
X445787Y823587D02*
D03*
X455787D02*
D03*
X313386Y898587D02*
D03*
Y878587D02*
D03*
Y888587D02*
D03*
Y908587D02*
D03*
X333886Y819087D02*
D03*
X343886D02*
D03*
X361886Y748087D02*
D03*
X537386Y842087D02*
D03*
X464886Y918087D02*
D03*
X425886Y792587D02*
D03*
X412886Y760087D02*
D03*
X653543Y769961D02*
D03*
Y759961D02*
D03*
X762716Y764961D02*
D03*
X772717D02*
D03*
X724409Y759961D02*
D03*
Y769961D02*
D03*
X767717Y842638D02*
D03*
Y852638D02*
D03*
X731378Y790587D02*
D03*
X721378Y823587D02*
D03*
X731378D02*
D03*
X588976Y898587D02*
D03*
Y878587D02*
D03*
Y888587D02*
D03*
Y908587D02*
D03*
X609476Y819087D02*
D03*
X619476D02*
D03*
X637476Y748087D02*
D03*
X812976Y842087D02*
D03*
X740476Y918087D02*
D03*
X701476Y792587D02*
D03*
X688476Y760087D02*
D03*
X929134Y769961D02*
D03*
Y759961D02*
D03*
X1038307Y764961D02*
D03*
X1048307D02*
D03*
X1000000Y759961D02*
D03*
Y769961D02*
D03*
X1043307Y842638D02*
D03*
Y852638D02*
D03*
X1006968Y790587D02*
D03*
X996968Y823587D02*
D03*
X1006968D02*
D03*
X864567Y898587D02*
D03*
Y878587D02*
D03*
Y888587D02*
D03*
Y908587D02*
D03*
X885067Y819087D02*
D03*
X895067D02*
D03*
X913067Y748087D02*
D03*
X1088567Y842087D02*
D03*
X1016067Y918087D02*
D03*
X977067Y792587D02*
D03*
X964067Y760087D02*
D03*
D47*
X457677Y569095D02*
D03*
Y543504D02*
D03*
X439961Y569095D02*
D03*
Y543504D02*
D03*
X476378Y515748D02*
D03*
X486221Y535433D02*
D03*
Y496063D02*
D03*
X526378Y535433D02*
D03*
Y496063D02*
D03*
X481591Y630106D02*
D03*
X507181D02*
D03*
X481591Y612390D02*
D03*
X507181D02*
D03*
X306386Y572248D02*
D03*
X733268Y569095D02*
D03*
Y543504D02*
D03*
X715551Y569095D02*
D03*
Y543504D02*
D03*
X751968Y515748D02*
D03*
X761811Y535433D02*
D03*
Y496063D02*
D03*
X801968Y535433D02*
D03*
Y496063D02*
D03*
X757181Y630106D02*
D03*
X782772D02*
D03*
X757181Y612390D02*
D03*
X782772D02*
D03*
X581976Y572248D02*
D03*
X1008858Y569095D02*
D03*
Y543504D02*
D03*
X991142Y569095D02*
D03*
Y543504D02*
D03*
X1027559Y515748D02*
D03*
X1037402Y535433D02*
D03*
Y496063D02*
D03*
X1077559Y535433D02*
D03*
Y496063D02*
D03*
X1032772Y630106D02*
D03*
X1058362D02*
D03*
X1032772Y612390D02*
D03*
X1058362D02*
D03*
X857567Y572248D02*
D03*
X457677Y860433D02*
D03*
Y834842D02*
D03*
X439961Y860433D02*
D03*
Y834842D02*
D03*
X476378Y807087D02*
D03*
X486221Y826772D02*
D03*
Y787402D02*
D03*
X526378Y826772D02*
D03*
Y787402D02*
D03*
X481591Y921445D02*
D03*
X507181D02*
D03*
X481591Y903728D02*
D03*
X507181D02*
D03*
X306386Y863587D02*
D03*
X733268Y860433D02*
D03*
Y834842D02*
D03*
X715551Y860433D02*
D03*
Y834842D02*
D03*
X751968Y807087D02*
D03*
X761811Y826772D02*
D03*
Y787402D02*
D03*
X801968Y826772D02*
D03*
Y787402D02*
D03*
X757181Y921445D02*
D03*
X782772D02*
D03*
X757181Y903728D02*
D03*
X782772D02*
D03*
X581976Y863587D02*
D03*
X1008858Y860433D02*
D03*
Y834842D02*
D03*
X991142Y860433D02*
D03*
Y834842D02*
D03*
X1027559Y807087D02*
D03*
X1037402Y826772D02*
D03*
Y787402D02*
D03*
X1077559Y826772D02*
D03*
Y787402D02*
D03*
X1032772Y921445D02*
D03*
X1058362D02*
D03*
X1032772Y903728D02*
D03*
X1058362D02*
D03*
X857567Y863587D02*
D03*
D48*
X316929Y474031D02*
D03*
X592520D02*
D03*
X868110D02*
D03*
X316929Y765370D02*
D03*
X592520D02*
D03*
X868110D02*
D03*
D49*
X337646Y464032D02*
D03*
X329146Y451532D02*
D03*
X613236Y464032D02*
D03*
X604736Y451532D02*
D03*
X888827Y464032D02*
D03*
X880327Y451532D02*
D03*
X337646Y755370D02*
D03*
X329146Y742870D02*
D03*
X613236Y755370D02*
D03*
X604736Y742870D02*
D03*
X888827Y755370D02*
D03*
X880327Y742870D02*
D03*
D50*
X334646Y499031D02*
D03*
X334146Y438531D02*
D03*
X610236Y499031D02*
D03*
X609736Y438531D02*
D03*
X885827Y499031D02*
D03*
X885327Y438531D02*
D03*
X334646Y790370D02*
D03*
X334146Y729870D02*
D03*
X610236Y790370D02*
D03*
X609736Y729870D02*
D03*
X885827Y790370D02*
D03*
X885327Y729870D02*
D03*
D51*
X445787Y499248D02*
D03*
X721378D02*
D03*
X996968D02*
D03*
X445787Y790587D02*
D03*
X721378D02*
D03*
X996968D02*
D03*
D52*
X296577Y486433D02*
D03*
Y447063D02*
D03*
X490886Y398248D02*
D03*
X333405D02*
D03*
X531866Y438748D02*
D03*
X374386D02*
D03*
X572168Y486433D02*
D03*
Y447063D02*
D03*
X766476Y398248D02*
D03*
X608996D02*
D03*
X807457Y438748D02*
D03*
X649976D02*
D03*
X847758Y486433D02*
D03*
Y447063D02*
D03*
X1042067Y398248D02*
D03*
X884587D02*
D03*
X1083047Y438748D02*
D03*
X925567D02*
D03*
X296577Y777772D02*
D03*
Y738402D02*
D03*
X490886Y689587D02*
D03*
X333405D02*
D03*
X531866Y730087D02*
D03*
X374386D02*
D03*
X572168Y777772D02*
D03*
Y738402D02*
D03*
X766476Y689587D02*
D03*
X608996D02*
D03*
X807457Y730087D02*
D03*
X649976D02*
D03*
X847758Y777772D02*
D03*
Y738402D02*
D03*
X1042067Y689587D02*
D03*
X884587D02*
D03*
X1083047Y730087D02*
D03*
X925567D02*
D03*
D53*
X387543Y511748D02*
D03*
X407228D02*
D03*
X663134D02*
D03*
X682819D02*
D03*
X938724D02*
D03*
X958409D02*
D03*
X387543Y803087D02*
D03*
X407228D02*
D03*
X663134D02*
D03*
X682819D02*
D03*
X938724D02*
D03*
X958409D02*
D03*
D54*
X455886Y594776D02*
D03*
Y585720D02*
D03*
X468886Y603221D02*
D03*
Y612276D02*
D03*
X455386Y641776D02*
D03*
Y632721D02*
D03*
Y621276D02*
D03*
Y612220D02*
D03*
X425646Y552303D02*
D03*
Y543248D02*
D03*
X496886Y458776D02*
D03*
Y449720D02*
D03*
X471386Y585776D02*
D03*
Y576721D02*
D03*
X487886D02*
D03*
Y585776D02*
D03*
X412886Y538276D02*
D03*
Y529220D02*
D03*
X731476Y594776D02*
D03*
Y585720D02*
D03*
X744476Y603221D02*
D03*
Y612276D02*
D03*
X730976Y641776D02*
D03*
Y632721D02*
D03*
Y621276D02*
D03*
Y612220D02*
D03*
X701236Y552303D02*
D03*
Y543248D02*
D03*
X772476Y458776D02*
D03*
Y449720D02*
D03*
X746976Y585776D02*
D03*
Y576721D02*
D03*
X763476D02*
D03*
Y585776D02*
D03*
X688476Y538276D02*
D03*
Y529220D02*
D03*
X1007067Y594776D02*
D03*
Y585720D02*
D03*
X1020067Y603221D02*
D03*
Y612276D02*
D03*
X1006567Y641776D02*
D03*
Y632721D02*
D03*
Y621276D02*
D03*
Y612220D02*
D03*
X976827Y552303D02*
D03*
Y543248D02*
D03*
X1048067Y458776D02*
D03*
Y449720D02*
D03*
X1022567Y585776D02*
D03*
Y576721D02*
D03*
X1039067D02*
D03*
Y585776D02*
D03*
X964067Y538276D02*
D03*
Y529220D02*
D03*
X455886Y886114D02*
D03*
Y877059D02*
D03*
X468886Y894559D02*
D03*
Y903614D02*
D03*
X455386Y933114D02*
D03*
Y924059D02*
D03*
Y912614D02*
D03*
Y903559D02*
D03*
X425646Y843642D02*
D03*
Y834587D02*
D03*
X496886Y750114D02*
D03*
Y741059D02*
D03*
X471386Y877114D02*
D03*
Y868059D02*
D03*
X487886D02*
D03*
Y877114D02*
D03*
X412886Y829614D02*
D03*
Y820559D02*
D03*
X731476Y886114D02*
D03*
Y877059D02*
D03*
X744476Y894559D02*
D03*
Y903614D02*
D03*
X730976Y933114D02*
D03*
Y924059D02*
D03*
Y912614D02*
D03*
Y903559D02*
D03*
X701236Y843642D02*
D03*
Y834587D02*
D03*
X772476Y750114D02*
D03*
Y741059D02*
D03*
X746976Y877114D02*
D03*
Y868059D02*
D03*
X763476D02*
D03*
Y877114D02*
D03*
X688476Y829614D02*
D03*
Y820559D02*
D03*
X1007067Y886114D02*
D03*
Y877059D02*
D03*
X1020067Y894559D02*
D03*
Y903614D02*
D03*
X1006567Y933114D02*
D03*
Y924059D02*
D03*
Y912614D02*
D03*
Y903559D02*
D03*
X976827Y843642D02*
D03*
Y834587D02*
D03*
X1048067Y750114D02*
D03*
Y741059D02*
D03*
X1022567Y877114D02*
D03*
Y868059D02*
D03*
X1039067D02*
D03*
Y877114D02*
D03*
X964067Y829614D02*
D03*
Y820559D02*
D03*
D55*
X305913Y500248D02*
D03*
X296858D02*
D03*
X287358Y432248D02*
D03*
X296413D02*
D03*
X368858Y489748D02*
D03*
X377913D02*
D03*
X516858Y551248D02*
D03*
X525913D02*
D03*
X453358Y515748D02*
D03*
X462413D02*
D03*
X435413Y468748D02*
D03*
X426358D02*
D03*
X412913Y479748D02*
D03*
X403858D02*
D03*
X426358Y457248D02*
D03*
X435413D02*
D03*
X581504Y500248D02*
D03*
X572449D02*
D03*
X562949Y432248D02*
D03*
X572004D02*
D03*
X644449Y489748D02*
D03*
X653504D02*
D03*
X792449Y551248D02*
D03*
X801504D02*
D03*
X728949Y515748D02*
D03*
X738004D02*
D03*
X711004Y468748D02*
D03*
X701949D02*
D03*
X688504Y479748D02*
D03*
X679449D02*
D03*
X701949Y457248D02*
D03*
X711004D02*
D03*
X857094Y500248D02*
D03*
X848039D02*
D03*
X838539Y432248D02*
D03*
X847595D02*
D03*
X920039Y489748D02*
D03*
X929095D02*
D03*
X1068039Y551248D02*
D03*
X1077094D02*
D03*
X1004539Y515748D02*
D03*
X1013595D02*
D03*
X986594Y468748D02*
D03*
X977539D02*
D03*
X964095Y479748D02*
D03*
X955039D02*
D03*
X977539Y457248D02*
D03*
X986594D02*
D03*
X305913Y791587D02*
D03*
X296858D02*
D03*
X287358Y723587D02*
D03*
X296413D02*
D03*
X368858Y781087D02*
D03*
X377913D02*
D03*
X516858Y842587D02*
D03*
X525913D02*
D03*
X453358Y807087D02*
D03*
X462413D02*
D03*
X435413Y760087D02*
D03*
X426358D02*
D03*
X412913Y771087D02*
D03*
X403858D02*
D03*
X426358Y748587D02*
D03*
X435413D02*
D03*
X581504Y791587D02*
D03*
X572449D02*
D03*
X562949Y723587D02*
D03*
X572004D02*
D03*
X644449Y781087D02*
D03*
X653504D02*
D03*
X792449Y842587D02*
D03*
X801504D02*
D03*
X728949Y807087D02*
D03*
X738004D02*
D03*
X711004Y760087D02*
D03*
X701949D02*
D03*
X688504Y771087D02*
D03*
X679449D02*
D03*
X701949Y748587D02*
D03*
X711004D02*
D03*
X857094Y791587D02*
D03*
X848039D02*
D03*
X838539Y723587D02*
D03*
X847595D02*
D03*
X920039Y781087D02*
D03*
X929095D02*
D03*
X1068039Y842587D02*
D03*
X1077094D02*
D03*
X1004539Y807087D02*
D03*
X1013595D02*
D03*
X986594Y760087D02*
D03*
X977539D02*
D03*
X964095Y771087D02*
D03*
X955039D02*
D03*
X977539Y748587D02*
D03*
X986594D02*
D03*
D56*
X373228Y594882D02*
D03*
X648819D02*
D03*
X924409D02*
D03*
X373228Y886220D02*
D03*
X648819D02*
D03*
X924409D02*
D03*
D57*
X389921Y550433D02*
D03*
X394921D02*
D03*
X369921Y550394D02*
D03*
X374921D02*
D03*
X379921D02*
D03*
X384921D02*
D03*
X364921D02*
D03*
X359921D02*
D03*
X354921D02*
D03*
X349921D02*
D03*
X665512Y550433D02*
D03*
X670512D02*
D03*
X645512Y550394D02*
D03*
X650512D02*
D03*
X655512D02*
D03*
X660512D02*
D03*
X640512D02*
D03*
X635512D02*
D03*
X630512D02*
D03*
X625512D02*
D03*
X941102Y550433D02*
D03*
X946102D02*
D03*
X921102Y550394D02*
D03*
X926102D02*
D03*
X931102D02*
D03*
X936102D02*
D03*
X916102D02*
D03*
X911102D02*
D03*
X906102D02*
D03*
X901102D02*
D03*
X389921Y841772D02*
D03*
X394921D02*
D03*
X369921Y841732D02*
D03*
X374921D02*
D03*
X379921D02*
D03*
X384921D02*
D03*
X364921D02*
D03*
X359921D02*
D03*
X354921D02*
D03*
X349921D02*
D03*
X665512Y841772D02*
D03*
X670512D02*
D03*
X645512Y841732D02*
D03*
X650512D02*
D03*
X655512D02*
D03*
X660512D02*
D03*
X640512D02*
D03*
X635512D02*
D03*
X630512D02*
D03*
X625512D02*
D03*
X941102Y841772D02*
D03*
X946102D02*
D03*
X921102Y841732D02*
D03*
X926102D02*
D03*
X931102D02*
D03*
X936102D02*
D03*
X916102D02*
D03*
X911102D02*
D03*
X906102D02*
D03*
X901102D02*
D03*
D58*
X408622Y622087D02*
D03*
Y617087D02*
D03*
Y612087D02*
D03*
Y607087D02*
D03*
Y587087D02*
D03*
Y592087D02*
D03*
Y597087D02*
D03*
Y602087D02*
D03*
X408661Y562087D02*
D03*
Y557087D02*
D03*
Y567087D02*
D03*
Y572087D02*
D03*
Y577087D02*
D03*
Y582087D02*
D03*
X336221D02*
D03*
Y577087D02*
D03*
Y572087D02*
D03*
Y567087D02*
D03*
Y557087D02*
D03*
Y562087D02*
D03*
X336181Y602087D02*
D03*
Y597087D02*
D03*
Y592087D02*
D03*
Y587087D02*
D03*
Y607087D02*
D03*
Y612087D02*
D03*
Y617087D02*
D03*
Y622087D02*
D03*
X684213D02*
D03*
Y617087D02*
D03*
Y612087D02*
D03*
Y607087D02*
D03*
Y587087D02*
D03*
Y592087D02*
D03*
Y597087D02*
D03*
Y602087D02*
D03*
X684252Y562087D02*
D03*
Y557087D02*
D03*
Y567087D02*
D03*
Y572087D02*
D03*
Y577087D02*
D03*
Y582087D02*
D03*
X611811D02*
D03*
Y577087D02*
D03*
Y572087D02*
D03*
Y567087D02*
D03*
Y557087D02*
D03*
Y562087D02*
D03*
X611772Y602087D02*
D03*
Y597087D02*
D03*
Y592087D02*
D03*
Y587087D02*
D03*
Y607087D02*
D03*
Y612087D02*
D03*
Y617087D02*
D03*
Y622087D02*
D03*
X959803D02*
D03*
Y617087D02*
D03*
Y612087D02*
D03*
Y607087D02*
D03*
Y587087D02*
D03*
Y592087D02*
D03*
Y597087D02*
D03*
Y602087D02*
D03*
X959842Y562087D02*
D03*
Y557087D02*
D03*
Y567087D02*
D03*
Y572087D02*
D03*
Y577087D02*
D03*
Y582087D02*
D03*
X887402D02*
D03*
Y577087D02*
D03*
Y572087D02*
D03*
Y567087D02*
D03*
Y557087D02*
D03*
Y562087D02*
D03*
X887362Y602087D02*
D03*
Y597087D02*
D03*
Y592087D02*
D03*
Y587087D02*
D03*
Y607087D02*
D03*
Y612087D02*
D03*
Y617087D02*
D03*
Y622087D02*
D03*
X408622Y913425D02*
D03*
Y908425D02*
D03*
Y903425D02*
D03*
Y898425D02*
D03*
Y878425D02*
D03*
Y883425D02*
D03*
Y888425D02*
D03*
Y893425D02*
D03*
X408661Y853425D02*
D03*
Y848425D02*
D03*
Y858425D02*
D03*
Y863425D02*
D03*
Y868425D02*
D03*
Y873425D02*
D03*
X336221D02*
D03*
Y868425D02*
D03*
Y863425D02*
D03*
Y858425D02*
D03*
Y848425D02*
D03*
Y853425D02*
D03*
X336181Y893425D02*
D03*
Y888425D02*
D03*
Y883425D02*
D03*
Y878425D02*
D03*
Y898425D02*
D03*
Y903425D02*
D03*
Y908425D02*
D03*
Y913425D02*
D03*
X684213D02*
D03*
Y908425D02*
D03*
Y903425D02*
D03*
Y898425D02*
D03*
Y878425D02*
D03*
Y883425D02*
D03*
Y888425D02*
D03*
Y893425D02*
D03*
X684252Y853425D02*
D03*
Y848425D02*
D03*
Y858425D02*
D03*
Y863425D02*
D03*
Y868425D02*
D03*
Y873425D02*
D03*
X611811D02*
D03*
Y868425D02*
D03*
Y863425D02*
D03*
Y858425D02*
D03*
Y848425D02*
D03*
Y853425D02*
D03*
X611772Y893425D02*
D03*
Y888425D02*
D03*
Y883425D02*
D03*
Y878425D02*
D03*
Y898425D02*
D03*
Y903425D02*
D03*
Y908425D02*
D03*
Y913425D02*
D03*
X959803D02*
D03*
Y908425D02*
D03*
Y903425D02*
D03*
Y898425D02*
D03*
Y878425D02*
D03*
Y883425D02*
D03*
Y888425D02*
D03*
Y893425D02*
D03*
X959842Y853425D02*
D03*
Y848425D02*
D03*
Y858425D02*
D03*
Y863425D02*
D03*
Y868425D02*
D03*
Y873425D02*
D03*
X887402D02*
D03*
Y868425D02*
D03*
Y863425D02*
D03*
Y858425D02*
D03*
Y848425D02*
D03*
Y853425D02*
D03*
X887362Y893425D02*
D03*
Y888425D02*
D03*
Y883425D02*
D03*
Y878425D02*
D03*
Y898425D02*
D03*
Y903425D02*
D03*
Y908425D02*
D03*
Y913425D02*
D03*
D59*
X468146Y474858D02*
D03*
X475626D02*
D03*
X471886Y463638D02*
D03*
X425646Y526858D02*
D03*
X433126D02*
D03*
X429386Y515638D02*
D03*
X743736Y474858D02*
D03*
X751217D02*
D03*
X747476Y463638D02*
D03*
X701236Y526858D02*
D03*
X708716D02*
D03*
X704976Y515638D02*
D03*
X1019327Y474858D02*
D03*
X1026807D02*
D03*
X1023067Y463638D02*
D03*
X976827Y526858D02*
D03*
X984307D02*
D03*
X980567Y515638D02*
D03*
X468146Y766197D02*
D03*
X475626D02*
D03*
X471886Y754976D02*
D03*
X425646Y818197D02*
D03*
X433126D02*
D03*
X429386Y806976D02*
D03*
X743736Y766197D02*
D03*
X751217D02*
D03*
X747476Y754976D02*
D03*
X701236Y818197D02*
D03*
X708716D02*
D03*
X704976Y806976D02*
D03*
X1019327Y766197D02*
D03*
X1026807D02*
D03*
X1023067Y754976D02*
D03*
X976827Y818197D02*
D03*
X984307D02*
D03*
X980567Y806976D02*
D03*
D60*
X427276Y480008D02*
D03*
Y487488D02*
D03*
X438496Y483748D02*
D03*
X702866Y480008D02*
D03*
Y487488D02*
D03*
X714087Y483748D02*
D03*
X978457Y480008D02*
D03*
Y487488D02*
D03*
X989677Y483748D02*
D03*
X427276Y771347D02*
D03*
Y778827D02*
D03*
X438496Y775087D02*
D03*
X702866Y771347D02*
D03*
Y778827D02*
D03*
X714087Y775087D02*
D03*
X978457Y771347D02*
D03*
Y778827D02*
D03*
X989677Y775087D02*
D03*
D61*
X314882Y517063D02*
D03*
X296890D02*
D03*
X590472D02*
D03*
X572480D02*
D03*
X866063D02*
D03*
X848071D02*
D03*
X314882Y808402D02*
D03*
X296890D02*
D03*
X590472D02*
D03*
X572480D02*
D03*
X866063D02*
D03*
X848071D02*
D03*
D62*
X305886Y547748D02*
D03*
X581476D02*
D03*
X857067D02*
D03*
X305886Y839087D02*
D03*
X581476D02*
D03*
X857067D02*
D03*
M02*
