G04 Layer_Physical_Order=1*
G04 Layer_Color=2232046*
%FSLAX25Y25*%
%MOIN*%
G70*
G01*
G75*
%ADD10C,0.19685*%
%ADD11C,0.03937*%
%ADD12R,0.08500X0.06000*%
%ADD13C,0.03937*%
%ADD14C,0.06000*%
%ADD15C,0.07087*%
%ADD16C,0.07874*%
G04:AMPARAMS|DCode=17|XSize=157.48mil|YSize=78.74mil|CornerRadius=19.68mil|HoleSize=0mil|Usage=FLASHONLY|Rotation=90.000|XOffset=0mil|YOffset=0mil|HoleType=Round|Shape=RoundedRectangle|*
%AMROUNDEDRECTD17*
21,1,0.15748,0.03937,0,0,90.0*
21,1,0.11811,0.07874,0,0,90.0*
1,1,0.03937,0.01968,0.05905*
1,1,0.03937,0.01968,-0.05905*
1,1,0.03937,-0.01968,-0.05905*
1,1,0.03937,-0.01968,0.05905*
%
%ADD17ROUNDEDRECTD17*%
G04:AMPARAMS|DCode=18|XSize=157.48mil|YSize=78.74mil|CornerRadius=19.68mil|HoleSize=0mil|Usage=FLASHONLY|Rotation=0.000|XOffset=0mil|YOffset=0mil|HoleType=Round|Shape=RoundedRectangle|*
%AMROUNDEDRECTD18*
21,1,0.15748,0.03937,0,0,0.0*
21,1,0.11811,0.07874,0,0,0.0*
1,1,0.03937,0.05905,-0.01968*
1,1,0.03937,-0.05905,-0.01968*
1,1,0.03937,-0.05905,0.01968*
1,1,0.03937,0.05905,0.01968*
%
%ADD18ROUNDEDRECTD18*%
%ADD19C,0.11811*%
%ADD20R,0.07087X0.07087*%
%ADD21C,0.09842*%
%ADD22C,0.06299*%
G36*
X1098425Y673228D02*
X830709D01*
Y940945D01*
X868072D01*
Y921260D01*
Y920872D01*
X868110Y920678D01*
Y920481D01*
X868262Y919720D01*
X868337Y919537D01*
X868376Y919343D01*
X868672Y918627D01*
X868782Y918462D01*
X868858Y918280D01*
X869289Y917635D01*
X869429Y917495D01*
X869538Y917331D01*
X870087Y916783D01*
X870251Y916673D01*
X870391Y916533D01*
X871036Y916102D01*
X871218Y916026D01*
X871383Y915917D01*
X872099Y915620D01*
X872293Y915581D01*
X872476Y915506D01*
X873236Y915354D01*
X873434D01*
X873628Y915316D01*
X976766D01*
X976960Y915354D01*
X977157D01*
X977918Y915506D01*
X978100Y915581D01*
X978294Y915620D01*
X979011Y915917D01*
X979175Y916026D01*
X979358Y916102D01*
X980003Y916533D01*
X980142Y916673D01*
X980307Y916783D01*
X980855Y917331D01*
X980965Y917495D01*
X981105Y917635D01*
X981536Y918280D01*
X981611Y918462D01*
X981721Y918627D01*
X982018Y919343D01*
X982057Y919537D01*
X982132Y919720D01*
X982283Y920481D01*
Y920678D01*
X982322Y920872D01*
Y921260D01*
Y940945D01*
X1098425D01*
Y673228D01*
D02*
G37*
G36*
X822835D02*
X555118D01*
Y940945D01*
X592481D01*
Y921260D01*
Y920872D01*
X592520Y920678D01*
Y920481D01*
X592671Y919720D01*
X592747Y919537D01*
X592785Y919343D01*
X593082Y918627D01*
X593192Y918462D01*
X593267Y918280D01*
X593698Y917635D01*
X593838Y917495D01*
X593948Y917331D01*
X594496Y916783D01*
X594661Y916673D01*
X594800Y916533D01*
X595445Y916102D01*
X595628Y916026D01*
X595792Y915917D01*
X596509Y915620D01*
X596703Y915581D01*
X596885Y915506D01*
X597646Y915354D01*
X597844D01*
X598037Y915316D01*
X701175D01*
X701369Y915354D01*
X701567D01*
X702327Y915506D01*
X702510Y915581D01*
X702704Y915620D01*
X703420Y915917D01*
X703585Y916026D01*
X703767Y916102D01*
X704412Y916533D01*
X704552Y916673D01*
X704716Y916783D01*
X705265Y917331D01*
X705374Y917495D01*
X705514Y917635D01*
X705945Y918280D01*
X706021Y918462D01*
X706131Y918627D01*
X706427Y919343D01*
X706466Y919537D01*
X706542Y919720D01*
X706693Y920481D01*
Y920678D01*
X706732Y920872D01*
Y921260D01*
Y940945D01*
X822835D01*
Y673228D01*
D02*
G37*
G36*
X547244D02*
X279528D01*
Y940945D01*
X316891D01*
Y921260D01*
Y920872D01*
X316929Y920678D01*
Y920481D01*
X317080Y919720D01*
X317156Y919537D01*
X317195Y919343D01*
X317491Y918627D01*
X317601Y918462D01*
X317677Y918280D01*
X318108Y917635D01*
X318248Y917495D01*
X318357Y917331D01*
X318906Y916783D01*
X319070Y916673D01*
X319210Y916533D01*
X319855Y916102D01*
X320037Y916026D01*
X320202Y915917D01*
X320918Y915620D01*
X321112Y915581D01*
X321295Y915506D01*
X322055Y915354D01*
X322253D01*
X322447Y915316D01*
X425585D01*
X425778Y915354D01*
X425976D01*
X426737Y915506D01*
X426919Y915581D01*
X427113Y915620D01*
X427830Y915917D01*
X427994Y916026D01*
X428177Y916102D01*
X428822Y916533D01*
X428961Y916673D01*
X429126Y916783D01*
X429674Y917331D01*
X429784Y917495D01*
X429924Y917635D01*
X430355Y918280D01*
X430430Y918462D01*
X430540Y918627D01*
X430837Y919343D01*
X430875Y919537D01*
X430951Y919720D01*
X431102Y920481D01*
Y920678D01*
X431141Y920872D01*
Y921260D01*
Y940945D01*
X547244D01*
Y673228D01*
D02*
G37*
G36*
X1098425Y381890D02*
X830709D01*
Y649606D01*
X868072D01*
Y629921D01*
Y629533D01*
X868110Y629340D01*
Y629142D01*
X868262Y628381D01*
X868337Y628199D01*
X868376Y628005D01*
X868672Y627288D01*
X868782Y627124D01*
X868858Y626941D01*
X869289Y626297D01*
X869429Y626157D01*
X869538Y625992D01*
X870087Y625444D01*
X870251Y625334D01*
X870391Y625194D01*
X871036Y624763D01*
X871218Y624688D01*
X871383Y624578D01*
X872099Y624281D01*
X872293Y624243D01*
X872476Y624167D01*
X873236Y624016D01*
X873434D01*
X873628Y623977D01*
X976766D01*
X976960Y624016D01*
X977157D01*
X977918Y624167D01*
X978100Y624243D01*
X978294Y624281D01*
X979011Y624578D01*
X979175Y624688D01*
X979358Y624763D01*
X980003Y625194D01*
X980142Y625334D01*
X980307Y625444D01*
X980855Y625992D01*
X980965Y626157D01*
X981105Y626297D01*
X981536Y626941D01*
X981611Y627124D01*
X981721Y627288D01*
X982018Y628005D01*
X982057Y628199D01*
X982132Y628381D01*
X982283Y629142D01*
Y629340D01*
X982322Y629533D01*
Y629921D01*
Y649606D01*
X1098425D01*
Y381890D01*
D02*
G37*
G36*
X822835D02*
X555118D01*
Y649606D01*
X592481D01*
Y629921D01*
Y629533D01*
X592520Y629340D01*
Y629142D01*
X592671Y628381D01*
X592747Y628199D01*
X592785Y628005D01*
X593082Y627288D01*
X593192Y627124D01*
X593267Y626941D01*
X593698Y626297D01*
X593838Y626157D01*
X593948Y625992D01*
X594496Y625444D01*
X594661Y625334D01*
X594800Y625194D01*
X595445Y624763D01*
X595628Y624688D01*
X595792Y624578D01*
X596509Y624281D01*
X596703Y624243D01*
X596885Y624167D01*
X597646Y624016D01*
X597844D01*
X598037Y623977D01*
X701175D01*
X701369Y624016D01*
X701567D01*
X702327Y624167D01*
X702510Y624243D01*
X702704Y624281D01*
X703420Y624578D01*
X703585Y624688D01*
X703767Y624763D01*
X704412Y625194D01*
X704552Y625334D01*
X704716Y625444D01*
X705265Y625992D01*
X705374Y626157D01*
X705514Y626297D01*
X705945Y626941D01*
X706021Y627124D01*
X706131Y627288D01*
X706427Y628005D01*
X706466Y628199D01*
X706542Y628381D01*
X706693Y629142D01*
Y629340D01*
X706732Y629533D01*
Y629921D01*
Y649606D01*
X822835D01*
Y381890D01*
D02*
G37*
G36*
X547244D02*
X279528D01*
Y649606D01*
X316891D01*
Y629921D01*
Y629533D01*
X316929Y629340D01*
Y629142D01*
X317080Y628381D01*
X317156Y628199D01*
X317195Y628005D01*
X317491Y627288D01*
X317601Y627124D01*
X317677Y626941D01*
X318108Y626297D01*
X318248Y626157D01*
X318357Y625992D01*
X318906Y625444D01*
X319070Y625334D01*
X319210Y625194D01*
X319855Y624763D01*
X320037Y624688D01*
X320202Y624578D01*
X320918Y624281D01*
X321112Y624243D01*
X321295Y624167D01*
X322055Y624016D01*
X322253D01*
X322447Y623977D01*
X425585D01*
X425778Y624016D01*
X425976D01*
X426737Y624167D01*
X426919Y624243D01*
X427113Y624281D01*
X427830Y624578D01*
X427994Y624688D01*
X428177Y624763D01*
X428822Y625194D01*
X428961Y625334D01*
X429126Y625444D01*
X429674Y625992D01*
X429784Y626157D01*
X429924Y626297D01*
X430355Y626941D01*
X430430Y627124D01*
X430540Y627288D01*
X430837Y628005D01*
X430875Y628199D01*
X430951Y628381D01*
X431102Y629142D01*
Y629340D01*
X431141Y629533D01*
Y629921D01*
Y649606D01*
X547244D01*
Y381890D01*
D02*
G37*
%LPC*%
G36*
X1082677Y937044D02*
X1080824Y936899D01*
X1079016Y936465D01*
X1077299Y935753D01*
X1075713Y934782D01*
X1074300Y933574D01*
X1073092Y932161D01*
X1072121Y930575D01*
X1071410Y928858D01*
X1070975Y927050D01*
X1070830Y925197D01*
X1070975Y923343D01*
X1071410Y921536D01*
X1072121Y919818D01*
X1073092Y918233D01*
X1074300Y916819D01*
X1075713Y915612D01*
X1077299Y914641D01*
X1079016Y913929D01*
X1080824Y913495D01*
X1082677Y913349D01*
X1084531Y913495D01*
X1086338Y913929D01*
X1088056Y914641D01*
X1089641Y915612D01*
X1091055Y916819D01*
X1092262Y918233D01*
X1093233Y919818D01*
X1093945Y921536D01*
X1094379Y923343D01*
X1094525Y925197D01*
X1094379Y927050D01*
X1093945Y928858D01*
X1093233Y930575D01*
X1092262Y932161D01*
X1091055Y933574D01*
X1089641Y934782D01*
X1088056Y935753D01*
X1086338Y936465D01*
X1084531Y936899D01*
X1082677Y937044D01*
D02*
G37*
G36*
X846457D02*
X844603Y936899D01*
X842796Y936465D01*
X841078Y935753D01*
X839493Y934782D01*
X838079Y933574D01*
X836872Y932161D01*
X835900Y930575D01*
X835189Y928858D01*
X834755Y927050D01*
X834609Y925197D01*
X834755Y923343D01*
X835189Y921536D01*
X835900Y919818D01*
X836872Y918233D01*
X838079Y916819D01*
X839493Y915612D01*
X841078Y914641D01*
X842796Y913929D01*
X844603Y913495D01*
X846457Y913349D01*
X848310Y913495D01*
X850118Y913929D01*
X851835Y914641D01*
X853421Y915612D01*
X854834Y916819D01*
X856042Y918233D01*
X857013Y919818D01*
X857724Y921536D01*
X858158Y923343D01*
X858304Y925197D01*
X858158Y927050D01*
X857724Y928858D01*
X857013Y930575D01*
X856042Y932161D01*
X854834Y933574D01*
X853421Y934782D01*
X851835Y935753D01*
X850118Y936465D01*
X848310Y936899D01*
X846457Y937044D01*
D02*
G37*
G36*
X1016067Y923646D02*
X1014628Y923457D01*
X1013287Y922901D01*
X1012188Y922058D01*
X996067D01*
X995039Y921922D01*
X994081Y921526D01*
X993259Y920895D01*
X956922Y884558D01*
X890567D01*
X889539Y884422D01*
X888581Y884026D01*
X887759Y883395D01*
X871922Y867558D01*
X861948D01*
X861763Y867783D01*
X860864Y868521D01*
X859838Y869069D01*
X858725Y869407D01*
X857567Y869521D01*
X856409Y869407D01*
X855296Y869069D01*
X854270Y868521D01*
X853371Y867783D01*
X852633Y866883D01*
X852085Y865858D01*
X851747Y864744D01*
X851633Y863587D01*
X851747Y862429D01*
X852085Y861316D01*
X852633Y860290D01*
X853371Y859391D01*
X853596Y859206D01*
Y820587D01*
X853731Y819559D01*
X854128Y818601D01*
X854759Y817779D01*
X869759Y802779D01*
X870582Y802148D01*
X871539Y801751D01*
X872567Y801616D01*
X904422D01*
X922259Y783779D01*
X923081Y783148D01*
X924039Y782751D01*
X925067Y782616D01*
X971067D01*
X972095Y782751D01*
X973052Y783148D01*
X973875Y783779D01*
X977132Y787036D01*
X978506Y787217D01*
X979847Y787772D01*
X980998Y788656D01*
X981882Y789807D01*
X982437Y791148D01*
X982626Y792587D01*
X982437Y794026D01*
X981882Y795366D01*
X980998Y796518D01*
X979847Y797401D01*
X978506Y797957D01*
X977067Y798146D01*
X975628Y797957D01*
X974287Y797401D01*
X973136Y796518D01*
X972252Y795366D01*
X971697Y794026D01*
X971516Y792652D01*
X969422Y790558D01*
X926712D01*
X908875Y808395D01*
X908052Y809026D01*
X907095Y809422D01*
X906067Y809558D01*
X874212D01*
X861538Y822231D01*
Y859206D01*
X861763Y859391D01*
X861948Y859616D01*
X873567D01*
X874595Y859751D01*
X875552Y860148D01*
X876375Y860779D01*
X892212Y876616D01*
X958567D01*
X959595Y876751D01*
X960552Y877148D01*
X961375Y877779D01*
X997712Y914116D01*
X1012188D01*
X1013287Y913272D01*
X1014628Y912717D01*
X1016067Y912527D01*
X1017506Y912717D01*
X1018847Y913272D01*
X1019998Y914156D01*
X1020881Y915307D01*
X1021437Y916648D01*
X1021626Y918087D01*
X1021437Y919526D01*
X1020881Y920866D01*
X1019998Y922018D01*
X1018847Y922901D01*
X1017506Y923457D01*
X1016067Y923646D01*
D02*
G37*
G36*
X1058362Y909662D02*
X1057205Y909548D01*
X1056091Y909211D01*
X1055065Y908662D01*
X1054166Y907924D01*
X1053428Y907025D01*
X1052880Y905999D01*
X1052542Y904886D01*
X1052428Y903728D01*
X1052542Y902571D01*
X1052880Y901458D01*
X1053428Y900432D01*
X1054166Y899532D01*
X1055065Y898794D01*
X1056091Y898246D01*
X1057205Y897908D01*
X1058362Y897794D01*
X1059520Y897908D01*
X1060633Y898246D01*
X1061659Y898794D01*
X1062558Y899532D01*
X1063296Y900432D01*
X1063845Y901458D01*
X1064182Y902571D01*
X1064296Y903728D01*
X1064182Y904886D01*
X1063845Y905999D01*
X1063296Y907025D01*
X1062558Y907924D01*
X1061659Y908662D01*
X1060633Y909211D01*
X1059520Y909548D01*
X1058362Y909662D01*
D02*
G37*
G36*
X1032772D02*
X1031614Y909548D01*
X1030501Y909211D01*
X1029475Y908662D01*
X1028576Y907924D01*
X1027838Y907025D01*
X1027289Y905999D01*
X1026952Y904886D01*
X1026838Y903728D01*
X1026952Y902571D01*
X1027289Y901458D01*
X1027838Y900432D01*
X1028576Y899532D01*
X1029475Y898794D01*
X1030501Y898246D01*
X1031614Y897908D01*
X1032772Y897794D01*
X1033929Y897908D01*
X1035042Y898246D01*
X1036068Y898794D01*
X1036968Y899532D01*
X1037706Y900432D01*
X1038254Y901458D01*
X1038592Y902571D01*
X1038706Y903728D01*
X1038592Y904886D01*
X1038254Y905999D01*
X1037706Y907025D01*
X1036968Y907924D01*
X1036068Y908662D01*
X1035042Y909211D01*
X1033929Y909548D01*
X1032772Y909662D01*
D02*
G37*
G36*
X864567Y904146D02*
X863128Y903957D01*
X861787Y903401D01*
X860636Y902518D01*
X859752Y901366D01*
X859197Y900025D01*
X859008Y898587D01*
X859197Y897148D01*
X859752Y895807D01*
X860636Y894656D01*
Y892518D01*
X859752Y891366D01*
X859197Y890026D01*
X859008Y888587D01*
X859197Y887148D01*
X859752Y885807D01*
X860636Y884656D01*
Y882518D01*
X859752Y881366D01*
X859197Y880025D01*
X859008Y878587D01*
X859197Y877148D01*
X859752Y875807D01*
X860636Y874656D01*
X861787Y873772D01*
X863128Y873217D01*
X864567Y873027D01*
X866006Y873217D01*
X867347Y873772D01*
X868498Y874656D01*
X869382Y875807D01*
X869937Y877148D01*
X870126Y878587D01*
X869937Y880025D01*
X869382Y881366D01*
X868498Y882518D01*
Y884656D01*
X869382Y885807D01*
X869937Y887148D01*
X870126Y888587D01*
X869937Y890026D01*
X869382Y891366D01*
X868498Y892518D01*
Y894656D01*
X869382Y895807D01*
X869937Y897148D01*
X870126Y898587D01*
X869937Y900025D01*
X869382Y901366D01*
X868498Y902518D01*
X867347Y903401D01*
X866006Y903957D01*
X864567Y904146D01*
D02*
G37*
G36*
X991142Y866367D02*
X989984Y866253D01*
X988871Y865915D01*
X987845Y865367D01*
X986946Y864629D01*
X986208Y863730D01*
X985659Y862704D01*
X985322Y861591D01*
X985208Y860433D01*
X985322Y859275D01*
X985659Y858162D01*
X986208Y857136D01*
X986946Y856237D01*
X987845Y855499D01*
X988871Y854951D01*
X989984Y854613D01*
X991142Y854499D01*
X992299Y854613D01*
X993413Y854951D01*
X994438Y855499D01*
X995338Y856237D01*
X996076Y857136D01*
X996624Y858162D01*
X996962Y859275D01*
X997076Y860433D01*
X996962Y861591D01*
X996624Y862704D01*
X996076Y863730D01*
X995338Y864629D01*
X994438Y865367D01*
X993413Y865915D01*
X992299Y866253D01*
X991142Y866367D01*
D02*
G37*
G36*
X1043307Y848197D02*
X1041868Y848008D01*
X1040527Y847452D01*
X1039376Y846569D01*
X1038492Y845417D01*
X1037937Y844077D01*
X1037748Y842638D01*
X1037937Y841199D01*
X1038492Y839858D01*
X1039376Y838707D01*
X1040527Y837823D01*
X1041868Y837268D01*
X1043307Y837078D01*
X1044746Y837268D01*
X1046087Y837823D01*
X1047238Y838707D01*
X1048122Y839858D01*
X1048677Y841199D01*
X1048866Y842638D01*
X1048677Y844077D01*
X1048122Y845417D01*
X1047238Y846569D01*
X1046087Y847452D01*
X1044746Y848008D01*
X1043307Y848197D01*
D02*
G37*
G36*
X891732Y860485D02*
X889879Y860340D01*
X888071Y859906D01*
X886354Y859194D01*
X884768Y858223D01*
X883355Y857015D01*
X882147Y855602D01*
X881176Y854016D01*
X880465Y852299D01*
X880031Y850491D01*
X879885Y848638D01*
X880031Y846784D01*
X880465Y844977D01*
X881176Y843259D01*
X882147Y841674D01*
X883355Y840260D01*
X884768Y839053D01*
X886354Y838082D01*
X888071Y837370D01*
X889879Y836936D01*
X891732Y836790D01*
X893586Y836936D01*
X895393Y837370D01*
X897111Y838082D01*
X898696Y839053D01*
X900110Y840260D01*
X901317Y841674D01*
X902289Y843259D01*
X903000Y844977D01*
X903434Y846784D01*
X903580Y848638D01*
X903434Y850491D01*
X903000Y852299D01*
X902289Y854016D01*
X901317Y855602D01*
X900110Y857015D01*
X898696Y858223D01*
X897111Y859194D01*
X895393Y859906D01*
X893586Y860340D01*
X891732Y860485D01*
D02*
G37*
G36*
X1068067Y881558D02*
X983567D01*
X982539Y881422D01*
X981581Y881026D01*
X980759Y880394D01*
X951973Y851609D01*
X934368D01*
X933785Y853016D01*
X932813Y854602D01*
X931606Y856015D01*
X930192Y857223D01*
X928607Y858194D01*
X926889Y858906D01*
X925082Y859340D01*
X923228Y859485D01*
X921375Y859340D01*
X919567Y858906D01*
X917850Y858194D01*
X916265Y857223D01*
X914851Y856015D01*
X913643Y854602D01*
X912672Y853016D01*
X911961Y851299D01*
X911527Y849491D01*
X911381Y847638D01*
X911527Y845784D01*
X911961Y843977D01*
X912672Y842259D01*
X913643Y840674D01*
X914851Y839260D01*
X916265Y838053D01*
X917850Y837082D01*
X919567Y836370D01*
X921375Y835936D01*
X923228Y835790D01*
X925082Y835936D01*
X926889Y836370D01*
X928607Y837082D01*
X930192Y838053D01*
X931606Y839260D01*
X932813Y840674D01*
X933785Y842259D01*
X934368Y843667D01*
X953618D01*
X954646Y843802D01*
X955604Y844199D01*
X956426Y844830D01*
X985212Y873616D01*
X1066422D01*
X1084596Y855442D01*
Y845966D01*
X1083752Y844866D01*
X1083197Y843526D01*
X1083008Y842087D01*
X1083197Y840648D01*
X1083752Y839307D01*
X1084636Y838156D01*
X1085787Y837272D01*
X1087128Y836717D01*
X1088567Y836527D01*
X1090006Y836717D01*
X1091347Y837272D01*
X1092498Y838156D01*
X1093382Y839307D01*
X1093937Y840648D01*
X1094126Y842087D01*
X1093937Y843526D01*
X1093382Y844866D01*
X1092538Y845966D01*
Y857087D01*
X1092403Y858114D01*
X1092006Y859072D01*
X1091375Y859894D01*
X1070875Y880394D01*
X1070052Y881026D01*
X1069095Y881422D01*
X1068067Y881558D01*
D02*
G37*
G36*
X991142Y840777D02*
X989984Y840663D01*
X988871Y840325D01*
X987845Y839777D01*
X986946Y839039D01*
X986208Y838139D01*
X985659Y837113D01*
X985322Y836000D01*
X985208Y834842D01*
X985322Y833685D01*
X985659Y832572D01*
X986208Y831546D01*
X986946Y830647D01*
X987845Y829908D01*
X988871Y829360D01*
X989984Y829023D01*
X991142Y828908D01*
X992299Y829023D01*
X993413Y829360D01*
X994438Y829908D01*
X995338Y830647D01*
X996076Y831546D01*
X996624Y832572D01*
X996962Y833685D01*
X997076Y834842D01*
X996962Y836000D01*
X996624Y837113D01*
X996076Y838139D01*
X995338Y839039D01*
X994438Y839777D01*
X993413Y840325D01*
X992299Y840663D01*
X991142Y840777D01*
D02*
G37*
G36*
X1077559Y832706D02*
X1076401Y832592D01*
X1075288Y832254D01*
X1074262Y831706D01*
X1073363Y830968D01*
X1072625Y830068D01*
X1072077Y829043D01*
X1071739Y827929D01*
X1071625Y826772D01*
X1071739Y825614D01*
X1072077Y824501D01*
X1072625Y823475D01*
X1073363Y822576D01*
X1074262Y821838D01*
X1075288Y821289D01*
X1076401Y820952D01*
X1077559Y820838D01*
X1078717Y820952D01*
X1079830Y821289D01*
X1080856Y821838D01*
X1081755Y822576D01*
X1082493Y823475D01*
X1083041Y824501D01*
X1083379Y825614D01*
X1083493Y826772D01*
X1083379Y827929D01*
X1083041Y829043D01*
X1082493Y830068D01*
X1081755Y830968D01*
X1080856Y831706D01*
X1079830Y832254D01*
X1078717Y832592D01*
X1077559Y832706D01*
D02*
G37*
G36*
X1037402D02*
X1036244Y832592D01*
X1035131Y832254D01*
X1034105Y831706D01*
X1033206Y830968D01*
X1032468Y830068D01*
X1031919Y829043D01*
X1031581Y827929D01*
X1031468Y826772D01*
X1031581Y825614D01*
X1031919Y824501D01*
X1032468Y823475D01*
X1033206Y822576D01*
X1034105Y821838D01*
X1035131Y821289D01*
X1036244Y820952D01*
X1037402Y820838D01*
X1038559Y820952D01*
X1039672Y821289D01*
X1040698Y821838D01*
X1041598Y822576D01*
X1042336Y823475D01*
X1042884Y824501D01*
X1043222Y825614D01*
X1043336Y826772D01*
X1043222Y827929D01*
X1042884Y829043D01*
X1042336Y830068D01*
X1041598Y830968D01*
X1040698Y831706D01*
X1039672Y832254D01*
X1038559Y832592D01*
X1037402Y832706D01*
D02*
G37*
G36*
X1008858Y840777D02*
X1007701Y840663D01*
X1006587Y840325D01*
X1005562Y839777D01*
X1004662Y839039D01*
X1003924Y838139D01*
X1003376Y837113D01*
X1003038Y836000D01*
X1002924Y834842D01*
X1003038Y833685D01*
X1003376Y832572D01*
X1003856Y831673D01*
X1003930Y831478D01*
X1003984Y830836D01*
X1003654Y828498D01*
X1003282Y827705D01*
X1003037Y827518D01*
X1002154Y826366D01*
X1001599Y825025D01*
X1001409Y823587D01*
X1001599Y822148D01*
X1002154Y820807D01*
X1003037Y819656D01*
X1004189Y818772D01*
X1005530Y818217D01*
X1006968Y818027D01*
X1008407Y818217D01*
X1009748Y818772D01*
X1010900Y819656D01*
X1011783Y820807D01*
X1012338Y822148D01*
X1012528Y823587D01*
X1012338Y825025D01*
X1011819Y826278D01*
X1011766Y826444D01*
X1011714Y826684D01*
X1012098Y829494D01*
X1012543Y830227D01*
X1013054Y830647D01*
X1013792Y831546D01*
X1014341Y832572D01*
X1014678Y833685D01*
X1014792Y834842D01*
X1014678Y836000D01*
X1014341Y837113D01*
X1013792Y838139D01*
X1013054Y839039D01*
X1012155Y839777D01*
X1011129Y840325D01*
X1010016Y840663D01*
X1008858Y840777D01*
D02*
G37*
G36*
X885067Y824646D02*
X883628Y824457D01*
X882287Y823901D01*
X881136Y823018D01*
X880252Y821866D01*
X879697Y820525D01*
X879508Y819087D01*
X879697Y817648D01*
X880252Y816307D01*
X881136Y815156D01*
X882287Y814272D01*
X883628Y813717D01*
X885067Y813527D01*
X886506Y813717D01*
X887847Y814272D01*
X888998Y815156D01*
X889882Y816307D01*
X890437Y817648D01*
X890626Y819087D01*
X890437Y820525D01*
X889882Y821866D01*
X888998Y823018D01*
X887847Y823901D01*
X886506Y824457D01*
X885067Y824646D01*
D02*
G37*
G36*
X1027559Y813021D02*
X1026401Y812907D01*
X1025288Y812569D01*
X1024262Y812021D01*
X1023363Y811283D01*
X1022625Y810383D01*
X1022077Y809357D01*
X1021739Y808244D01*
X1021625Y807087D01*
X1021739Y805929D01*
X1022077Y804816D01*
X1022625Y803790D01*
X1023363Y802891D01*
X1024262Y802153D01*
X1025288Y801604D01*
X1026401Y801267D01*
X1027559Y801153D01*
X1028717Y801267D01*
X1029830Y801604D01*
X1030856Y802153D01*
X1031755Y802891D01*
X1032493Y803790D01*
X1033041Y804816D01*
X1033379Y805929D01*
X1033493Y807087D01*
X1033379Y808244D01*
X1033041Y809357D01*
X1032493Y810383D01*
X1031755Y811283D01*
X1030856Y812021D01*
X1029830Y812569D01*
X1028717Y812907D01*
X1027559Y813021D01*
D02*
G37*
G36*
X958409Y808249D02*
X957073Y808073D01*
X955828Y807557D01*
X954759Y806737D01*
X953939Y805668D01*
X953423Y804423D01*
X953247Y803087D01*
X953423Y801750D01*
X953939Y800506D01*
X954759Y799436D01*
X955828Y798616D01*
X957073Y798100D01*
X958409Y797924D01*
X959746Y798100D01*
X960991Y798616D01*
X962060Y799436D01*
X962880Y800506D01*
X963396Y801750D01*
X963572Y803087D01*
X963396Y804423D01*
X962880Y805668D01*
X962060Y806737D01*
X960991Y807557D01*
X959746Y808073D01*
X958409Y808249D01*
D02*
G37*
G36*
X1006968Y796146D02*
X1005630Y795970D01*
X1005441Y795961D01*
X1002480Y796098D01*
Y796098D01*
X991457D01*
Y785075D01*
X1002480D01*
X1002480Y785075D01*
X1005441Y785213D01*
X1005630Y785204D01*
X1006968Y785027D01*
X1008407Y785217D01*
X1009748Y785772D01*
X1010900Y786656D01*
X1011783Y787807D01*
X1012338Y789148D01*
X1012528Y790587D01*
X1012338Y792026D01*
X1011783Y793366D01*
X1010900Y794518D01*
X1009748Y795401D01*
X1008407Y795957D01*
X1006968Y796146D01*
D02*
G37*
G36*
X885827Y798282D02*
X884283Y798130D01*
X882799Y797680D01*
X881431Y796949D01*
X880232Y795965D01*
X879248Y794766D01*
X878517Y793398D01*
X878067Y791914D01*
X877915Y790370D01*
X878067Y788827D01*
X878517Y787342D01*
X879248Y785974D01*
X880232Y784775D01*
X881431Y783791D01*
X882799Y783060D01*
X884283Y782610D01*
X885827Y782458D01*
X887370Y782610D01*
X888855Y783060D01*
X890222Y783791D01*
X891422Y784775D01*
X892406Y785974D01*
X893137Y787342D01*
X893587Y788827D01*
X893739Y790370D01*
X893587Y791914D01*
X893137Y793398D01*
X892406Y794766D01*
X891422Y795965D01*
X890222Y796949D01*
X888855Y797680D01*
X887370Y798130D01*
X885827Y798282D01*
D02*
G37*
G36*
X1077559Y793336D02*
X1076401Y793222D01*
X1075288Y792884D01*
X1074262Y792336D01*
X1073363Y791598D01*
X1072625Y790698D01*
X1072077Y789673D01*
X1071739Y788559D01*
X1071625Y787402D01*
X1071739Y786244D01*
X1072077Y785131D01*
X1072625Y784105D01*
X1073363Y783206D01*
X1074262Y782468D01*
X1075288Y781919D01*
X1076401Y781581D01*
X1077559Y781467D01*
X1078717Y781581D01*
X1079830Y781919D01*
X1080856Y782468D01*
X1081755Y783206D01*
X1082493Y784105D01*
X1083041Y785131D01*
X1083379Y786244D01*
X1083493Y787402D01*
X1083379Y788559D01*
X1083041Y789673D01*
X1082493Y790698D01*
X1081755Y791598D01*
X1080856Y792336D01*
X1079830Y792884D01*
X1078717Y793222D01*
X1077559Y793336D01*
D02*
G37*
G36*
X1037402D02*
X1036244Y793222D01*
X1035131Y792884D01*
X1034105Y792336D01*
X1033206Y791598D01*
X1032468Y790698D01*
X1031919Y789673D01*
X1031581Y788559D01*
X1031468Y787402D01*
X1031581Y786244D01*
X1031919Y785131D01*
X1032468Y784105D01*
X1033206Y783206D01*
X1034105Y782468D01*
X1035131Y781919D01*
X1036244Y781581D01*
X1037402Y781467D01*
X1038559Y781581D01*
X1039672Y781919D01*
X1040698Y782468D01*
X1041598Y783206D01*
X1042336Y784105D01*
X1042884Y785131D01*
X1043222Y786244D01*
X1043336Y787402D01*
X1043222Y788559D01*
X1042884Y789673D01*
X1042336Y790698D01*
X1041598Y791598D01*
X1040698Y792336D01*
X1039672Y792884D01*
X1038559Y793222D01*
X1037402Y793336D01*
D02*
G37*
G36*
X847758Y784695D02*
X846408Y784562D01*
X845109Y784168D01*
X843912Y783528D01*
X842863Y782667D01*
X842002Y781618D01*
X841362Y780421D01*
X840968Y779122D01*
X840835Y777772D01*
X840968Y776421D01*
X841362Y775122D01*
X842002Y773925D01*
X842863Y772876D01*
X843912Y772015D01*
X845109Y771376D01*
X846408Y770982D01*
X847758Y770849D01*
X849109Y770982D01*
X850408Y771376D01*
X851604Y772015D01*
X852654Y772876D01*
X853515Y773925D01*
X854154Y775122D01*
X854548Y776421D01*
X854681Y777772D01*
X854548Y779122D01*
X854154Y780421D01*
X853515Y781618D01*
X852654Y782667D01*
X851604Y783528D01*
X850408Y784168D01*
X849109Y784562D01*
X847758Y784695D01*
D02*
G37*
G36*
X1048307Y770520D02*
X1046868Y770331D01*
X1045527Y769775D01*
X1044376Y768892D01*
X1042238D01*
X1041087Y769775D01*
X1039746Y770331D01*
X1038307Y770520D01*
X1036868Y770331D01*
X1035527Y769775D01*
X1034376Y768892D01*
X1033492Y767740D01*
X1032937Y766399D01*
X1032748Y764961D01*
X1032937Y763522D01*
X1033492Y762181D01*
X1034376Y761030D01*
X1035527Y760146D01*
X1036868Y759591D01*
X1038307Y759401D01*
X1039746Y759591D01*
X1041087Y760146D01*
X1042238Y761030D01*
X1044376D01*
X1045527Y760146D01*
X1046868Y759591D01*
X1048307Y759401D01*
X1049746Y759591D01*
X1051087Y760146D01*
X1052238Y761030D01*
X1053122Y762181D01*
X1053677Y763522D01*
X1053866Y764961D01*
X1053677Y766399D01*
X1053122Y767740D01*
X1052238Y768892D01*
X1051087Y769775D01*
X1049746Y770331D01*
X1048307Y770520D01*
D02*
G37*
G36*
X929134Y775520D02*
X927695Y775331D01*
X926354Y774775D01*
X925203Y773892D01*
X924319Y772740D01*
X923764Y771399D01*
X923575Y769961D01*
X923764Y768522D01*
X924319Y767181D01*
X925203Y766030D01*
X926354Y765146D01*
X927695Y764591D01*
X929134Y764401D01*
X930573Y764591D01*
X931913Y765146D01*
X933065Y766030D01*
X933948Y767181D01*
X934504Y768522D01*
X934693Y769961D01*
X934504Y771399D01*
X933948Y772740D01*
X933065Y773892D01*
X931913Y774775D01*
X930573Y775331D01*
X929134Y775520D01*
D02*
G37*
G36*
X870079Y775247D02*
X866142D01*
X865114Y775111D01*
X864156Y774715D01*
X863334Y774084D01*
X862703Y773261D01*
X862306Y772303D01*
X862171Y771276D01*
Y759465D01*
X862306Y758437D01*
X862703Y757479D01*
X863334Y756657D01*
X864156Y756026D01*
X865114Y755629D01*
X866142Y755494D01*
X870079D01*
X871107Y755629D01*
X872064Y756026D01*
X872887Y756657D01*
X873518Y757479D01*
X873914Y758437D01*
X874050Y759465D01*
Y771276D01*
X873914Y772303D01*
X873518Y773261D01*
X872887Y774084D01*
X872064Y774715D01*
X871107Y775111D01*
X870079Y775247D01*
D02*
G37*
G36*
X1000000Y775520D02*
X998561Y775331D01*
X997220Y774775D01*
X996069Y773892D01*
X995185Y772740D01*
X994630Y771399D01*
X994441Y769961D01*
X994630Y768522D01*
X995185Y767181D01*
X996069Y766030D01*
Y763892D01*
X995185Y762740D01*
X994630Y761400D01*
X994441Y759961D01*
X994630Y758522D01*
X995185Y757181D01*
X996069Y756030D01*
X997220Y755146D01*
X998561Y754591D01*
X1000000Y754401D01*
X1001439Y754591D01*
X1002780Y755146D01*
X1003931Y756030D01*
X1004815Y757181D01*
X1005370Y758522D01*
X1005559Y759961D01*
X1005370Y761400D01*
X1004815Y762740D01*
X1003931Y763892D01*
Y766030D01*
X1004815Y767181D01*
X1005370Y768522D01*
X1005559Y769961D01*
X1005370Y771399D01*
X1004815Y772740D01*
X1003931Y773892D01*
X1002780Y774775D01*
X1001439Y775331D01*
X1000000Y775520D01*
D02*
G37*
G36*
X964067Y765646D02*
X962628Y765456D01*
X961287Y764901D01*
X960136Y764018D01*
X959252Y762866D01*
X958697Y761525D01*
X958516Y760152D01*
X950422Y752058D01*
X916946D01*
X915847Y752901D01*
X914506Y753456D01*
X913067Y753646D01*
X911628Y753456D01*
X910287Y752901D01*
X909136Y752018D01*
X908252Y750866D01*
X907697Y749525D01*
X907508Y748087D01*
X907697Y746648D01*
X908252Y745307D01*
X909136Y744156D01*
X910287Y743272D01*
X911628Y742717D01*
X913067Y742527D01*
X914506Y742717D01*
X915847Y743272D01*
X916946Y744116D01*
X952067D01*
X953095Y744251D01*
X954052Y744648D01*
X954875Y745279D01*
X964132Y754536D01*
X965506Y754717D01*
X966847Y755272D01*
X967998Y756156D01*
X968882Y757307D01*
X969437Y758648D01*
X969626Y760087D01*
X969437Y761525D01*
X968882Y762866D01*
X967998Y764018D01*
X966847Y764901D01*
X965506Y765456D01*
X964067Y765646D01*
D02*
G37*
G36*
X847758Y745325D02*
X846408Y745192D01*
X845109Y744798D01*
X843912Y744158D01*
X842863Y743297D01*
X842002Y742248D01*
X841362Y741051D01*
X840968Y739752D01*
X840835Y738402D01*
X840968Y737051D01*
X841362Y735752D01*
X842002Y734555D01*
X842863Y733506D01*
X843912Y732645D01*
X845109Y732006D01*
X846408Y731611D01*
X847758Y731479D01*
X849109Y731611D01*
X850408Y732006D01*
X851604Y732645D01*
X852654Y733506D01*
X853515Y734555D01*
X854154Y735752D01*
X854548Y737051D01*
X854681Y738402D01*
X854548Y739752D01*
X854154Y741051D01*
X853515Y742248D01*
X852654Y743297D01*
X851604Y744158D01*
X850408Y744798D01*
X849109Y745192D01*
X847758Y745325D01*
D02*
G37*
G36*
X1083047Y737010D02*
X1081697Y736877D01*
X1080398Y736483D01*
X1079201Y735843D01*
X1078152Y734982D01*
X1077291Y733933D01*
X1076651Y732736D01*
X1076257Y731437D01*
X1076124Y730087D01*
X1076257Y728736D01*
X1076651Y727437D01*
X1077291Y726240D01*
X1078152Y725191D01*
X1079201Y724330D01*
X1080398Y723691D01*
X1081697Y723297D01*
X1083047Y723164D01*
X1084398Y723297D01*
X1085697Y723691D01*
X1086893Y724330D01*
X1087943Y725191D01*
X1088804Y726240D01*
X1089443Y727437D01*
X1089837Y728736D01*
X1089970Y730087D01*
X1089837Y731437D01*
X1089443Y732736D01*
X1088804Y733933D01*
X1087943Y734982D01*
X1086893Y735843D01*
X1085697Y736483D01*
X1084398Y736877D01*
X1083047Y737010D01*
D02*
G37*
G36*
X885327Y737782D02*
X883783Y737630D01*
X882299Y737180D01*
X880931Y736449D01*
X879732Y735465D01*
X878748Y734266D01*
X878017Y732898D01*
X877567Y731414D01*
X877415Y729870D01*
X877567Y728327D01*
X878017Y726842D01*
X878748Y725474D01*
X879732Y724275D01*
X880931Y723291D01*
X882299Y722560D01*
X883783Y722110D01*
X885327Y721958D01*
X886870Y722110D01*
X888355Y722560D01*
X889723Y723291D01*
X890921Y724275D01*
X891905Y725474D01*
X892637Y726842D01*
X893087Y728327D01*
X893239Y729870D01*
X893087Y731414D01*
X892637Y732898D01*
X891905Y734266D01*
X890921Y735465D01*
X889723Y736449D01*
X888355Y737180D01*
X886870Y737630D01*
X885327Y737782D01*
D02*
G37*
G36*
X1042067Y696510D02*
X1040716Y696377D01*
X1039418Y695983D01*
X1038221Y695343D01*
X1037172Y694482D01*
X1036311Y693433D01*
X1035671Y692236D01*
X1035277Y690937D01*
X1035144Y689587D01*
X1035277Y688236D01*
X1035671Y686937D01*
X1036311Y685740D01*
X1037172Y684691D01*
X1038221Y683830D01*
X1039418Y683190D01*
X1040716Y682797D01*
X1042067Y682663D01*
X1043418Y682797D01*
X1044716Y683190D01*
X1045913Y683830D01*
X1046962Y684691D01*
X1047823Y685740D01*
X1048463Y686937D01*
X1048857Y688236D01*
X1048990Y689587D01*
X1048857Y690937D01*
X1048463Y692236D01*
X1047823Y693433D01*
X1046962Y694482D01*
X1045913Y695343D01*
X1044716Y695983D01*
X1043418Y696377D01*
X1042067Y696510D01*
D02*
G37*
G36*
X1082677Y700824D02*
X1080824Y700678D01*
X1079016Y700244D01*
X1077299Y699533D01*
X1075713Y698561D01*
X1074300Y697354D01*
X1073092Y695940D01*
X1072121Y694355D01*
X1071410Y692637D01*
X1070975Y690830D01*
X1070830Y688976D01*
X1070975Y687123D01*
X1071410Y685315D01*
X1072121Y683598D01*
X1073092Y682013D01*
X1074300Y680599D01*
X1075713Y679391D01*
X1077299Y678420D01*
X1079016Y677709D01*
X1080824Y677275D01*
X1082677Y677129D01*
X1084531Y677275D01*
X1086338Y677709D01*
X1088056Y678420D01*
X1089641Y679391D01*
X1091055Y680599D01*
X1092262Y682013D01*
X1093233Y683598D01*
X1093945Y685315D01*
X1094379Y687123D01*
X1094525Y688976D01*
X1094379Y690830D01*
X1093945Y692637D01*
X1093233Y694355D01*
X1092262Y695940D01*
X1091055Y697354D01*
X1089641Y698561D01*
X1088056Y699533D01*
X1086338Y700244D01*
X1084531Y700678D01*
X1082677Y700824D01*
D02*
G37*
G36*
X846457D02*
X844603Y700678D01*
X842796Y700244D01*
X841078Y699533D01*
X839493Y698561D01*
X838079Y697354D01*
X836872Y695940D01*
X835900Y694355D01*
X835189Y692637D01*
X834755Y690830D01*
X834609Y688976D01*
X834755Y687123D01*
X835189Y685315D01*
X835900Y683598D01*
X836872Y682013D01*
X838079Y680599D01*
X839493Y679391D01*
X841078Y678420D01*
X842796Y677709D01*
X844603Y677275D01*
X846457Y677129D01*
X848310Y677275D01*
X850118Y677709D01*
X851835Y678420D01*
X853421Y679391D01*
X854834Y680599D01*
X856042Y682013D01*
X857013Y683598D01*
X857724Y685315D01*
X858158Y687123D01*
X858304Y688976D01*
X858158Y690830D01*
X857724Y692637D01*
X857013Y694355D01*
X856042Y695940D01*
X854834Y697354D01*
X853421Y698561D01*
X851835Y699533D01*
X850118Y700244D01*
X848310Y700678D01*
X846457Y700824D01*
D02*
G37*
G36*
X807087Y937044D02*
X805233Y936899D01*
X803426Y936465D01*
X801708Y935753D01*
X800123Y934782D01*
X798709Y933574D01*
X797502Y932161D01*
X796530Y930575D01*
X795819Y928858D01*
X795385Y927050D01*
X795239Y925197D01*
X795385Y923343D01*
X795819Y921536D01*
X796530Y919818D01*
X797502Y918233D01*
X798709Y916819D01*
X800123Y915612D01*
X801708Y914641D01*
X803426Y913929D01*
X805233Y913495D01*
X807087Y913349D01*
X808940Y913495D01*
X810748Y913929D01*
X812465Y914641D01*
X814050Y915612D01*
X815464Y916819D01*
X816671Y918233D01*
X817643Y919818D01*
X818354Y921536D01*
X818788Y923343D01*
X818934Y925197D01*
X818788Y927050D01*
X818354Y928858D01*
X817643Y930575D01*
X816671Y932161D01*
X815464Y933574D01*
X814050Y934782D01*
X812465Y935753D01*
X810748Y936465D01*
X808940Y936899D01*
X807087Y937044D01*
D02*
G37*
G36*
X570866D02*
X569013Y936899D01*
X567205Y936465D01*
X565487Y935753D01*
X563902Y934782D01*
X562489Y933574D01*
X561281Y932161D01*
X560310Y930575D01*
X559598Y928858D01*
X559164Y927050D01*
X559019Y925197D01*
X559164Y923343D01*
X559598Y921536D01*
X560310Y919818D01*
X561281Y918233D01*
X562489Y916819D01*
X563902Y915612D01*
X565487Y914641D01*
X567205Y913929D01*
X569013Y913495D01*
X570866Y913349D01*
X572719Y913495D01*
X574527Y913929D01*
X576245Y914641D01*
X577830Y915612D01*
X579244Y916819D01*
X580451Y918233D01*
X581422Y919818D01*
X582134Y921536D01*
X582568Y923343D01*
X582714Y925197D01*
X582568Y927050D01*
X582134Y928858D01*
X581422Y930575D01*
X580451Y932161D01*
X579244Y933574D01*
X577830Y934782D01*
X576245Y935753D01*
X574527Y936465D01*
X572719Y936899D01*
X570866Y937044D01*
D02*
G37*
G36*
X740476Y923646D02*
X739038Y923457D01*
X737697Y922901D01*
X736597Y922058D01*
X720476D01*
X719449Y921922D01*
X718491Y921526D01*
X717668Y920895D01*
X681331Y884558D01*
X614976D01*
X613949Y884422D01*
X612991Y884026D01*
X612169Y883395D01*
X596332Y867558D01*
X586357D01*
X586172Y867783D01*
X585273Y868521D01*
X584247Y869069D01*
X583134Y869407D01*
X581976Y869521D01*
X580819Y869407D01*
X579705Y869069D01*
X578680Y868521D01*
X577780Y867783D01*
X577042Y866883D01*
X576494Y865858D01*
X576156Y864744D01*
X576042Y863587D01*
X576156Y862429D01*
X576494Y861316D01*
X577042Y860290D01*
X577780Y859391D01*
X578005Y859206D01*
Y820587D01*
X578141Y819559D01*
X578537Y818601D01*
X579169Y817779D01*
X594169Y802779D01*
X594991Y802148D01*
X595949Y801751D01*
X596976Y801616D01*
X628831D01*
X646668Y783779D01*
X647491Y783148D01*
X648449Y782751D01*
X649476Y782616D01*
X695476D01*
X696504Y782751D01*
X697462Y783148D01*
X698284Y783779D01*
X701541Y787036D01*
X702915Y787217D01*
X704256Y787772D01*
X705407Y788656D01*
X706291Y789807D01*
X706846Y791148D01*
X707036Y792587D01*
X706846Y794026D01*
X706291Y795366D01*
X705407Y796518D01*
X704256Y797401D01*
X702915Y797957D01*
X701476Y798146D01*
X700037Y797957D01*
X698697Y797401D01*
X697545Y796518D01*
X696662Y795366D01*
X696106Y794026D01*
X695926Y792652D01*
X693831Y790558D01*
X651121D01*
X633284Y808395D01*
X632462Y809026D01*
X631504Y809422D01*
X630476Y809558D01*
X598621D01*
X585947Y822231D01*
Y859206D01*
X586172Y859391D01*
X586357Y859616D01*
X597976D01*
X599004Y859751D01*
X599962Y860148D01*
X600784Y860779D01*
X616621Y876616D01*
X682976D01*
X684004Y876751D01*
X684962Y877148D01*
X685784Y877779D01*
X722121Y914116D01*
X736597D01*
X737697Y913272D01*
X739038Y912717D01*
X740476Y912527D01*
X741915Y912717D01*
X743256Y913272D01*
X744407Y914156D01*
X745291Y915307D01*
X745846Y916648D01*
X746036Y918087D01*
X745846Y919526D01*
X745291Y920866D01*
X744407Y922018D01*
X743256Y922901D01*
X741915Y923457D01*
X740476Y923646D01*
D02*
G37*
G36*
X782772Y909662D02*
X781614Y909548D01*
X780501Y909211D01*
X779475Y908662D01*
X778576Y907924D01*
X777838Y907025D01*
X777289Y905999D01*
X776952Y904886D01*
X776838Y903728D01*
X776952Y902571D01*
X777289Y901458D01*
X777838Y900432D01*
X778576Y899532D01*
X779475Y898794D01*
X780501Y898246D01*
X781614Y897908D01*
X782772Y897794D01*
X783929Y897908D01*
X785042Y898246D01*
X786068Y898794D01*
X786968Y899532D01*
X787706Y900432D01*
X788254Y901458D01*
X788592Y902571D01*
X788706Y903728D01*
X788592Y904886D01*
X788254Y905999D01*
X787706Y907025D01*
X786968Y907924D01*
X786068Y908662D01*
X785042Y909211D01*
X783929Y909548D01*
X782772Y909662D01*
D02*
G37*
G36*
X757181D02*
X756023Y909548D01*
X754910Y909211D01*
X753884Y908662D01*
X752985Y907924D01*
X752247Y907025D01*
X751699Y905999D01*
X751361Y904886D01*
X751247Y903728D01*
X751361Y902571D01*
X751699Y901458D01*
X752247Y900432D01*
X752985Y899532D01*
X753884Y898794D01*
X754910Y898246D01*
X756023Y897908D01*
X757181Y897794D01*
X758339Y897908D01*
X759452Y898246D01*
X760478Y898794D01*
X761377Y899532D01*
X762115Y900432D01*
X762664Y901458D01*
X763001Y902571D01*
X763115Y903728D01*
X763001Y904886D01*
X762664Y905999D01*
X762115Y907025D01*
X761377Y907924D01*
X760478Y908662D01*
X759452Y909211D01*
X758339Y909548D01*
X757181Y909662D01*
D02*
G37*
G36*
X588976Y904146D02*
X587537Y903957D01*
X586197Y903401D01*
X585045Y902518D01*
X584162Y901366D01*
X583606Y900025D01*
X583417Y898587D01*
X583606Y897148D01*
X584162Y895807D01*
X585045Y894656D01*
Y892518D01*
X584162Y891366D01*
X583606Y890026D01*
X583417Y888587D01*
X583606Y887148D01*
X584162Y885807D01*
X585045Y884656D01*
Y882518D01*
X584162Y881366D01*
X583606Y880025D01*
X583417Y878587D01*
X583606Y877148D01*
X584162Y875807D01*
X585045Y874656D01*
X586197Y873772D01*
X587537Y873217D01*
X588976Y873027D01*
X590415Y873217D01*
X591756Y873772D01*
X592907Y874656D01*
X593791Y875807D01*
X594346Y877148D01*
X594536Y878587D01*
X594346Y880025D01*
X593791Y881366D01*
X592907Y882518D01*
Y884656D01*
X593791Y885807D01*
X594346Y887148D01*
X594536Y888587D01*
X594346Y890026D01*
X593791Y891366D01*
X592907Y892518D01*
Y894656D01*
X593791Y895807D01*
X594346Y897148D01*
X594536Y898587D01*
X594346Y900025D01*
X593791Y901366D01*
X592907Y902518D01*
X591756Y903401D01*
X590415Y903957D01*
X588976Y904146D01*
D02*
G37*
G36*
X715551Y866367D02*
X714394Y866253D01*
X713280Y865915D01*
X712254Y865367D01*
X711355Y864629D01*
X710617Y863730D01*
X710069Y862704D01*
X709731Y861591D01*
X709617Y860433D01*
X709731Y859275D01*
X710069Y858162D01*
X710617Y857136D01*
X711355Y856237D01*
X712254Y855499D01*
X713280Y854951D01*
X714394Y854613D01*
X715551Y854499D01*
X716709Y854613D01*
X717822Y854951D01*
X718848Y855499D01*
X719747Y856237D01*
X720485Y857136D01*
X721034Y858162D01*
X721371Y859275D01*
X721485Y860433D01*
X721371Y861591D01*
X721034Y862704D01*
X720485Y863730D01*
X719747Y864629D01*
X718848Y865367D01*
X717822Y865915D01*
X716709Y866253D01*
X715551Y866367D01*
D02*
G37*
G36*
X767717Y848197D02*
X766278Y848008D01*
X764937Y847452D01*
X763786Y846569D01*
X762902Y845417D01*
X762347Y844077D01*
X762157Y842638D01*
X762347Y841199D01*
X762902Y839858D01*
X763786Y838707D01*
X764937Y837823D01*
X766278Y837268D01*
X767717Y837078D01*
X769155Y837268D01*
X770496Y837823D01*
X771648Y838707D01*
X772531Y839858D01*
X773087Y841199D01*
X773276Y842638D01*
X773087Y844077D01*
X772531Y845417D01*
X771648Y846569D01*
X770496Y847452D01*
X769155Y848008D01*
X767717Y848197D01*
D02*
G37*
G36*
X616142Y860485D02*
X614288Y860340D01*
X612481Y859906D01*
X610763Y859194D01*
X609178Y858223D01*
X607764Y857015D01*
X606557Y855602D01*
X605585Y854016D01*
X604874Y852299D01*
X604440Y850491D01*
X604294Y848638D01*
X604440Y846784D01*
X604874Y844977D01*
X605585Y843259D01*
X606557Y841674D01*
X607764Y840260D01*
X609178Y839053D01*
X610763Y838082D01*
X612481Y837370D01*
X614288Y836936D01*
X616142Y836790D01*
X617995Y836936D01*
X619803Y837370D01*
X621520Y838082D01*
X623105Y839053D01*
X624519Y840260D01*
X625727Y841674D01*
X626698Y843259D01*
X627409Y844977D01*
X627843Y846784D01*
X627989Y848638D01*
X627843Y850491D01*
X627409Y852299D01*
X626698Y854016D01*
X625727Y855602D01*
X624519Y857015D01*
X623105Y858223D01*
X621520Y859194D01*
X619803Y859906D01*
X617995Y860340D01*
X616142Y860485D01*
D02*
G37*
G36*
X792476Y881558D02*
X707976D01*
X706949Y881422D01*
X705991Y881026D01*
X705168Y880394D01*
X676383Y851609D01*
X658777D01*
X658194Y853016D01*
X657223Y854602D01*
X656015Y856015D01*
X654602Y857223D01*
X653017Y858194D01*
X651299Y858906D01*
X649491Y859340D01*
X647638Y859485D01*
X645784Y859340D01*
X643977Y858906D01*
X642259Y858194D01*
X640674Y857223D01*
X639260Y856015D01*
X638053Y854602D01*
X637082Y853016D01*
X636370Y851299D01*
X635936Y849491D01*
X635790Y847638D01*
X635936Y845784D01*
X636370Y843977D01*
X637082Y842259D01*
X638053Y840674D01*
X639260Y839260D01*
X640674Y838053D01*
X642259Y837082D01*
X643977Y836370D01*
X645784Y835936D01*
X647638Y835790D01*
X649491Y835936D01*
X651299Y836370D01*
X653017Y837082D01*
X654602Y838053D01*
X656015Y839260D01*
X657223Y840674D01*
X658194Y842259D01*
X658777Y843667D01*
X678028D01*
X679055Y843802D01*
X680013Y844199D01*
X680835Y844830D01*
X709621Y873616D01*
X790832D01*
X809005Y855442D01*
Y845966D01*
X808162Y844866D01*
X807607Y843526D01*
X807417Y842087D01*
X807607Y840648D01*
X808162Y839307D01*
X809045Y838156D01*
X810197Y837272D01*
X811537Y836717D01*
X812976Y836527D01*
X814415Y836717D01*
X815756Y837272D01*
X816907Y838156D01*
X817791Y839307D01*
X818346Y840648D01*
X818536Y842087D01*
X818346Y843526D01*
X817791Y844866D01*
X816947Y845966D01*
Y857087D01*
X816812Y858114D01*
X816415Y859072D01*
X815784Y859894D01*
X795284Y880394D01*
X794462Y881026D01*
X793504Y881422D01*
X792476Y881558D01*
D02*
G37*
G36*
X715551Y840777D02*
X714394Y840663D01*
X713280Y840325D01*
X712254Y839777D01*
X711355Y839039D01*
X710617Y838139D01*
X710069Y837113D01*
X709731Y836000D01*
X709617Y834842D01*
X709731Y833685D01*
X710069Y832572D01*
X710617Y831546D01*
X711355Y830647D01*
X712254Y829908D01*
X713280Y829360D01*
X714394Y829023D01*
X715551Y828908D01*
X716709Y829023D01*
X717822Y829360D01*
X718848Y829908D01*
X719747Y830647D01*
X720485Y831546D01*
X721034Y832572D01*
X721371Y833685D01*
X721485Y834842D01*
X721371Y836000D01*
X721034Y837113D01*
X720485Y838139D01*
X719747Y839039D01*
X718848Y839777D01*
X717822Y840325D01*
X716709Y840663D01*
X715551Y840777D01*
D02*
G37*
G36*
X801968Y832706D02*
X800811Y832592D01*
X799698Y832254D01*
X798672Y831706D01*
X797773Y830968D01*
X797035Y830068D01*
X796486Y829043D01*
X796148Y827929D01*
X796034Y826772D01*
X796148Y825614D01*
X796486Y824501D01*
X797035Y823475D01*
X797773Y822576D01*
X798672Y821838D01*
X799698Y821289D01*
X800811Y820952D01*
X801968Y820838D01*
X803126Y820952D01*
X804239Y821289D01*
X805265Y821838D01*
X806164Y822576D01*
X806903Y823475D01*
X807451Y824501D01*
X807789Y825614D01*
X807903Y826772D01*
X807789Y827929D01*
X807451Y829043D01*
X806903Y830068D01*
X806164Y830968D01*
X805265Y831706D01*
X804239Y832254D01*
X803126Y832592D01*
X801968Y832706D01*
D02*
G37*
G36*
X761811D02*
X760653Y832592D01*
X759540Y832254D01*
X758514Y831706D01*
X757615Y830968D01*
X756877Y830068D01*
X756329Y829043D01*
X755991Y827929D01*
X755877Y826772D01*
X755991Y825614D01*
X756329Y824501D01*
X756877Y823475D01*
X757615Y822576D01*
X758514Y821838D01*
X759540Y821289D01*
X760653Y820952D01*
X761811Y820838D01*
X762969Y820952D01*
X764082Y821289D01*
X765108Y821838D01*
X766007Y822576D01*
X766745Y823475D01*
X767293Y824501D01*
X767631Y825614D01*
X767745Y826772D01*
X767631Y827929D01*
X767293Y829043D01*
X766745Y830068D01*
X766007Y830968D01*
X765108Y831706D01*
X764082Y832254D01*
X762969Y832592D01*
X761811Y832706D01*
D02*
G37*
G36*
X733268Y840777D02*
X732110Y840663D01*
X730997Y840325D01*
X729971Y839777D01*
X729072Y839039D01*
X728334Y838139D01*
X727785Y837113D01*
X727448Y836000D01*
X727334Y834842D01*
X727448Y833685D01*
X727785Y832572D01*
X728266Y831673D01*
X728339Y831478D01*
X728393Y830836D01*
X728063Y828498D01*
X727691Y827705D01*
X727447Y827518D01*
X726563Y826366D01*
X726008Y825025D01*
X725819Y823587D01*
X726008Y822148D01*
X726563Y820807D01*
X727447Y819656D01*
X728598Y818772D01*
X729939Y818217D01*
X731378Y818027D01*
X732817Y818217D01*
X734158Y818772D01*
X735309Y819656D01*
X736193Y820807D01*
X736748Y822148D01*
X736937Y823587D01*
X736748Y825025D01*
X736229Y826278D01*
X736176Y826444D01*
X736123Y826684D01*
X736508Y829494D01*
X736952Y830227D01*
X737464Y830647D01*
X738202Y831546D01*
X738750Y832572D01*
X739088Y833685D01*
X739202Y834842D01*
X739088Y836000D01*
X738750Y837113D01*
X738202Y838139D01*
X737464Y839039D01*
X736564Y839777D01*
X735539Y840325D01*
X734425Y840663D01*
X733268Y840777D01*
D02*
G37*
G36*
X609476Y824646D02*
X608038Y824457D01*
X606697Y823901D01*
X605545Y823018D01*
X604662Y821866D01*
X604107Y820525D01*
X603917Y819087D01*
X604107Y817648D01*
X604662Y816307D01*
X605545Y815156D01*
X606697Y814272D01*
X608038Y813717D01*
X609476Y813527D01*
X610915Y813717D01*
X612256Y814272D01*
X613407Y815156D01*
X614291Y816307D01*
X614846Y817648D01*
X615036Y819087D01*
X614846Y820525D01*
X614291Y821866D01*
X613407Y823018D01*
X612256Y823901D01*
X610915Y824457D01*
X609476Y824646D01*
D02*
G37*
G36*
X751968Y813021D02*
X750811Y812907D01*
X749698Y812569D01*
X748672Y812021D01*
X747773Y811283D01*
X747035Y810383D01*
X746486Y809357D01*
X746148Y808244D01*
X746034Y807087D01*
X746148Y805929D01*
X746486Y804816D01*
X747035Y803790D01*
X747773Y802891D01*
X748672Y802153D01*
X749698Y801604D01*
X750811Y801267D01*
X751968Y801153D01*
X753126Y801267D01*
X754239Y801604D01*
X755265Y802153D01*
X756165Y802891D01*
X756903Y803790D01*
X757451Y804816D01*
X757789Y805929D01*
X757903Y807087D01*
X757789Y808244D01*
X757451Y809357D01*
X756903Y810383D01*
X756165Y811283D01*
X755265Y812021D01*
X754239Y812569D01*
X753126Y812907D01*
X751968Y813021D01*
D02*
G37*
G36*
X682819Y808249D02*
X681483Y808073D01*
X680238Y807557D01*
X679169Y806737D01*
X678348Y805668D01*
X677833Y804423D01*
X677657Y803087D01*
X677833Y801750D01*
X678348Y800506D01*
X679169Y799436D01*
X680238Y798616D01*
X681483Y798100D01*
X682819Y797924D01*
X684155Y798100D01*
X685400Y798616D01*
X686469Y799436D01*
X687289Y800506D01*
X687805Y801750D01*
X687981Y803087D01*
X687805Y804423D01*
X687289Y805668D01*
X686469Y806737D01*
X685400Y807557D01*
X684155Y808073D01*
X682819Y808249D01*
D02*
G37*
G36*
X731378Y796146D02*
X730039Y795970D01*
X729850Y795961D01*
X726890Y796098D01*
Y796098D01*
X715866D01*
Y785075D01*
X726890D01*
X726890Y785075D01*
X729850Y785213D01*
X730039Y785204D01*
X731378Y785027D01*
X732817Y785217D01*
X734158Y785772D01*
X735309Y786656D01*
X736193Y787807D01*
X736748Y789148D01*
X736937Y790587D01*
X736748Y792026D01*
X736193Y793366D01*
X735309Y794518D01*
X734158Y795401D01*
X732817Y795957D01*
X731378Y796146D01*
D02*
G37*
G36*
X610236Y798282D02*
X608693Y798130D01*
X607208Y797680D01*
X605840Y796949D01*
X604641Y795965D01*
X603657Y794766D01*
X602926Y793398D01*
X602476Y791914D01*
X602324Y790370D01*
X602476Y788827D01*
X602926Y787342D01*
X603657Y785974D01*
X604641Y784775D01*
X605840Y783791D01*
X607208Y783060D01*
X608693Y782610D01*
X610236Y782458D01*
X611780Y782610D01*
X613264Y783060D01*
X614632Y783791D01*
X615831Y784775D01*
X616815Y785974D01*
X617546Y787342D01*
X617996Y788827D01*
X618148Y790370D01*
X617996Y791914D01*
X617546Y793398D01*
X616815Y794766D01*
X615831Y795965D01*
X614632Y796949D01*
X613264Y797680D01*
X611780Y798130D01*
X610236Y798282D01*
D02*
G37*
G36*
X801968Y793336D02*
X800811Y793222D01*
X799698Y792884D01*
X798672Y792336D01*
X797773Y791598D01*
X797035Y790698D01*
X796486Y789673D01*
X796148Y788559D01*
X796034Y787402D01*
X796148Y786244D01*
X796486Y785131D01*
X797035Y784105D01*
X797773Y783206D01*
X798672Y782468D01*
X799698Y781919D01*
X800811Y781581D01*
X801968Y781467D01*
X803126Y781581D01*
X804239Y781919D01*
X805265Y782468D01*
X806164Y783206D01*
X806903Y784105D01*
X807451Y785131D01*
X807789Y786244D01*
X807903Y787402D01*
X807789Y788559D01*
X807451Y789673D01*
X806903Y790698D01*
X806164Y791598D01*
X805265Y792336D01*
X804239Y792884D01*
X803126Y793222D01*
X801968Y793336D01*
D02*
G37*
G36*
X761811D02*
X760653Y793222D01*
X759540Y792884D01*
X758514Y792336D01*
X757615Y791598D01*
X756877Y790698D01*
X756329Y789673D01*
X755991Y788559D01*
X755877Y787402D01*
X755991Y786244D01*
X756329Y785131D01*
X756877Y784105D01*
X757615Y783206D01*
X758514Y782468D01*
X759540Y781919D01*
X760653Y781581D01*
X761811Y781467D01*
X762969Y781581D01*
X764082Y781919D01*
X765108Y782468D01*
X766007Y783206D01*
X766745Y784105D01*
X767293Y785131D01*
X767631Y786244D01*
X767745Y787402D01*
X767631Y788559D01*
X767293Y789673D01*
X766745Y790698D01*
X766007Y791598D01*
X765108Y792336D01*
X764082Y792884D01*
X762969Y793222D01*
X761811Y793336D01*
D02*
G37*
G36*
X572168Y784695D02*
X570817Y784562D01*
X569518Y784168D01*
X568321Y783528D01*
X567272Y782667D01*
X566411Y781618D01*
X565772Y780421D01*
X565378Y779122D01*
X565245Y777772D01*
X565378Y776421D01*
X565772Y775122D01*
X566411Y773925D01*
X567272Y772876D01*
X568321Y772015D01*
X569518Y771376D01*
X570817Y770982D01*
X572168Y770849D01*
X573518Y770982D01*
X574817Y771376D01*
X576014Y772015D01*
X577063Y772876D01*
X577924Y773925D01*
X578564Y775122D01*
X578958Y776421D01*
X579091Y777772D01*
X578958Y779122D01*
X578564Y780421D01*
X577924Y781618D01*
X577063Y782667D01*
X576014Y783528D01*
X574817Y784168D01*
X573518Y784562D01*
X572168Y784695D01*
D02*
G37*
G36*
X772717Y770520D02*
X771278Y770331D01*
X769937Y769775D01*
X768785Y768892D01*
X766648D01*
X765496Y769775D01*
X764155Y770331D01*
X762716Y770520D01*
X761278Y770331D01*
X759937Y769775D01*
X758785Y768892D01*
X757902Y767740D01*
X757347Y766399D01*
X757157Y764961D01*
X757347Y763522D01*
X757902Y762181D01*
X758785Y761030D01*
X759937Y760146D01*
X761278Y759591D01*
X762716Y759401D01*
X764155Y759591D01*
X765496Y760146D01*
X766648Y761030D01*
X768785D01*
X769937Y760146D01*
X771278Y759591D01*
X772717Y759401D01*
X774155Y759591D01*
X775496Y760146D01*
X776648Y761030D01*
X777531Y762181D01*
X778087Y763522D01*
X778276Y764961D01*
X778087Y766399D01*
X777531Y767740D01*
X776648Y768892D01*
X775496Y769775D01*
X774155Y770331D01*
X772717Y770520D01*
D02*
G37*
G36*
X653543Y775520D02*
X652104Y775331D01*
X650764Y774775D01*
X649612Y773892D01*
X648729Y772740D01*
X648173Y771399D01*
X647984Y769961D01*
X648173Y768522D01*
X648729Y767181D01*
X649612Y766030D01*
X650764Y765146D01*
X652104Y764591D01*
X653543Y764401D01*
X654982Y764591D01*
X656323Y765146D01*
X657474Y766030D01*
X658358Y767181D01*
X658913Y768522D01*
X659103Y769961D01*
X658913Y771399D01*
X658358Y772740D01*
X657474Y773892D01*
X656323Y774775D01*
X654982Y775331D01*
X653543Y775520D01*
D02*
G37*
G36*
X594488Y775247D02*
X590551D01*
X589523Y775111D01*
X588566Y774715D01*
X587743Y774084D01*
X587112Y773261D01*
X586716Y772303D01*
X586580Y771276D01*
Y759465D01*
X586716Y758437D01*
X587112Y757479D01*
X587743Y756657D01*
X588566Y756026D01*
X589523Y755629D01*
X590551Y755494D01*
X594488D01*
X595516Y755629D01*
X596474Y756026D01*
X597296Y756657D01*
X597927Y757479D01*
X598324Y758437D01*
X598459Y759465D01*
Y771276D01*
X598324Y772303D01*
X597927Y773261D01*
X597296Y774084D01*
X596474Y774715D01*
X595516Y775111D01*
X594488Y775247D01*
D02*
G37*
G36*
X724409Y775520D02*
X722971Y775331D01*
X721630Y774775D01*
X720478Y773892D01*
X719595Y772740D01*
X719039Y771399D01*
X718850Y769961D01*
X719039Y768522D01*
X719595Y767181D01*
X720478Y766030D01*
Y763892D01*
X719595Y762740D01*
X719039Y761400D01*
X718850Y759961D01*
X719039Y758522D01*
X719595Y757181D01*
X720478Y756030D01*
X721630Y755146D01*
X722971Y754591D01*
X724409Y754401D01*
X725848Y754591D01*
X727189Y755146D01*
X728340Y756030D01*
X729224Y757181D01*
X729779Y758522D01*
X729969Y759961D01*
X729779Y761400D01*
X729224Y762740D01*
X728340Y763892D01*
Y766030D01*
X729224Y767181D01*
X729779Y768522D01*
X729969Y769961D01*
X729779Y771399D01*
X729224Y772740D01*
X728340Y773892D01*
X727189Y774775D01*
X725848Y775331D01*
X724409Y775520D01*
D02*
G37*
G36*
X688476Y765646D02*
X687038Y765456D01*
X685697Y764901D01*
X684545Y764018D01*
X683662Y762866D01*
X683107Y761525D01*
X682926Y760152D01*
X674831Y752058D01*
X641355D01*
X640256Y752901D01*
X638915Y753456D01*
X637476Y753646D01*
X636037Y753456D01*
X634697Y752901D01*
X633545Y752018D01*
X632662Y750866D01*
X632106Y749525D01*
X631917Y748087D01*
X632106Y746648D01*
X632662Y745307D01*
X633545Y744156D01*
X634697Y743272D01*
X636037Y742717D01*
X637476Y742527D01*
X638915Y742717D01*
X640256Y743272D01*
X641355Y744116D01*
X676476D01*
X677504Y744251D01*
X678462Y744648D01*
X679284Y745279D01*
X688541Y754536D01*
X689915Y754717D01*
X691256Y755272D01*
X692407Y756156D01*
X693291Y757307D01*
X693846Y758648D01*
X694036Y760087D01*
X693846Y761525D01*
X693291Y762866D01*
X692407Y764018D01*
X691256Y764901D01*
X689915Y765456D01*
X688476Y765646D01*
D02*
G37*
G36*
X572168Y745325D02*
X570817Y745192D01*
X569518Y744798D01*
X568321Y744158D01*
X567272Y743297D01*
X566411Y742248D01*
X565772Y741051D01*
X565378Y739752D01*
X565245Y738402D01*
X565378Y737051D01*
X565772Y735752D01*
X566411Y734555D01*
X567272Y733506D01*
X568321Y732645D01*
X569518Y732006D01*
X570817Y731611D01*
X572168Y731479D01*
X573518Y731611D01*
X574817Y732006D01*
X576014Y732645D01*
X577063Y733506D01*
X577924Y734555D01*
X578564Y735752D01*
X578958Y737051D01*
X579091Y738402D01*
X578958Y739752D01*
X578564Y741051D01*
X577924Y742248D01*
X577063Y743297D01*
X576014Y744158D01*
X574817Y744798D01*
X573518Y745192D01*
X572168Y745325D01*
D02*
G37*
G36*
X807457Y737010D02*
X806106Y736877D01*
X804807Y736483D01*
X803610Y735843D01*
X802561Y734982D01*
X801700Y733933D01*
X801061Y732736D01*
X800667Y731437D01*
X800534Y730087D01*
X800667Y728736D01*
X801061Y727437D01*
X801700Y726240D01*
X802561Y725191D01*
X803610Y724330D01*
X804807Y723691D01*
X806106Y723297D01*
X807457Y723164D01*
X808807Y723297D01*
X810106Y723691D01*
X811303Y724330D01*
X812352Y725191D01*
X813213Y726240D01*
X813853Y727437D01*
X814247Y728736D01*
X814380Y730087D01*
X814247Y731437D01*
X813853Y732736D01*
X813213Y733933D01*
X812352Y734982D01*
X811303Y735843D01*
X810106Y736483D01*
X808807Y736877D01*
X807457Y737010D01*
D02*
G37*
G36*
X609736Y737782D02*
X608193Y737630D01*
X606708Y737180D01*
X605340Y736449D01*
X604142Y735465D01*
X603158Y734266D01*
X602426Y732898D01*
X601976Y731414D01*
X601824Y729870D01*
X601976Y728327D01*
X602426Y726842D01*
X603158Y725474D01*
X604142Y724275D01*
X605340Y723291D01*
X606708Y722560D01*
X608193Y722110D01*
X609736Y721958D01*
X611280Y722110D01*
X612764Y722560D01*
X614132Y723291D01*
X615331Y724275D01*
X616315Y725474D01*
X617046Y726842D01*
X617496Y728327D01*
X617648Y729870D01*
X617496Y731414D01*
X617046Y732898D01*
X616315Y734266D01*
X615331Y735465D01*
X614132Y736449D01*
X612764Y737180D01*
X611280Y737630D01*
X609736Y737782D01*
D02*
G37*
G36*
X766476Y696510D02*
X765126Y696377D01*
X763827Y695983D01*
X762630Y695343D01*
X761581Y694482D01*
X760720Y693433D01*
X760080Y692236D01*
X759686Y690937D01*
X759553Y689587D01*
X759686Y688236D01*
X760080Y686937D01*
X760720Y685740D01*
X761581Y684691D01*
X762630Y683830D01*
X763827Y683190D01*
X765126Y682797D01*
X766476Y682663D01*
X767827Y682797D01*
X769126Y683190D01*
X770323Y683830D01*
X771372Y684691D01*
X772233Y685740D01*
X772872Y686937D01*
X773266Y688236D01*
X773399Y689587D01*
X773266Y690937D01*
X772872Y692236D01*
X772233Y693433D01*
X771372Y694482D01*
X770323Y695343D01*
X769126Y695983D01*
X767827Y696377D01*
X766476Y696510D01*
D02*
G37*
G36*
X807087Y700824D02*
X805233Y700678D01*
X803426Y700244D01*
X801708Y699533D01*
X800123Y698561D01*
X798709Y697354D01*
X797502Y695940D01*
X796530Y694355D01*
X795819Y692637D01*
X795385Y690830D01*
X795239Y688976D01*
X795385Y687123D01*
X795819Y685315D01*
X796530Y683598D01*
X797502Y682013D01*
X798709Y680599D01*
X800123Y679391D01*
X801708Y678420D01*
X803426Y677709D01*
X805233Y677275D01*
X807087Y677129D01*
X808940Y677275D01*
X810748Y677709D01*
X812465Y678420D01*
X814050Y679391D01*
X815464Y680599D01*
X816671Y682013D01*
X817643Y683598D01*
X818354Y685315D01*
X818788Y687123D01*
X818934Y688976D01*
X818788Y690830D01*
X818354Y692637D01*
X817643Y694355D01*
X816671Y695940D01*
X815464Y697354D01*
X814050Y698561D01*
X812465Y699533D01*
X810748Y700244D01*
X808940Y700678D01*
X807087Y700824D01*
D02*
G37*
G36*
X570866D02*
X569013Y700678D01*
X567205Y700244D01*
X565487Y699533D01*
X563902Y698561D01*
X562489Y697354D01*
X561281Y695940D01*
X560310Y694355D01*
X559598Y692637D01*
X559164Y690830D01*
X559019Y688976D01*
X559164Y687123D01*
X559598Y685315D01*
X560310Y683598D01*
X561281Y682013D01*
X562489Y680599D01*
X563902Y679391D01*
X565487Y678420D01*
X567205Y677709D01*
X569013Y677275D01*
X570866Y677129D01*
X572719Y677275D01*
X574527Y677709D01*
X576245Y678420D01*
X577830Y679391D01*
X579244Y680599D01*
X580451Y682013D01*
X581422Y683598D01*
X582134Y685315D01*
X582568Y687123D01*
X582714Y688976D01*
X582568Y690830D01*
X582134Y692637D01*
X581422Y694355D01*
X580451Y695940D01*
X579244Y697354D01*
X577830Y698561D01*
X576245Y699533D01*
X574527Y700244D01*
X572719Y700678D01*
X570866Y700824D01*
D02*
G37*
G36*
X531496Y937044D02*
X529643Y936899D01*
X527835Y936465D01*
X526117Y935753D01*
X524532Y934782D01*
X523119Y933574D01*
X521911Y932161D01*
X520940Y930575D01*
X520228Y928858D01*
X519794Y927050D01*
X519649Y925197D01*
X519794Y923343D01*
X520228Y921536D01*
X520940Y919818D01*
X521911Y918233D01*
X523119Y916819D01*
X524532Y915612D01*
X526117Y914641D01*
X527835Y913929D01*
X529643Y913495D01*
X531496Y913349D01*
X533349Y913495D01*
X535157Y913929D01*
X536875Y914641D01*
X538460Y915612D01*
X539874Y916819D01*
X541081Y918233D01*
X542052Y919818D01*
X542764Y921536D01*
X543198Y923343D01*
X543344Y925197D01*
X543198Y927050D01*
X542764Y928858D01*
X542052Y930575D01*
X541081Y932161D01*
X539874Y933574D01*
X538460Y934782D01*
X536875Y935753D01*
X535157Y936465D01*
X533349Y936899D01*
X531496Y937044D01*
D02*
G37*
G36*
X295276D02*
X293422Y936899D01*
X291615Y936465D01*
X289897Y935753D01*
X288312Y934782D01*
X286898Y933574D01*
X285691Y932161D01*
X284719Y930575D01*
X284008Y928858D01*
X283574Y927050D01*
X283428Y925197D01*
X283574Y923343D01*
X284008Y921536D01*
X284719Y919818D01*
X285691Y918233D01*
X286898Y916819D01*
X288312Y915612D01*
X289897Y914641D01*
X291615Y913929D01*
X293422Y913495D01*
X295276Y913349D01*
X297129Y913495D01*
X298937Y913929D01*
X300654Y914641D01*
X302239Y915612D01*
X303653Y916819D01*
X304860Y918233D01*
X305832Y919818D01*
X306543Y921536D01*
X306977Y923343D01*
X307123Y925197D01*
X306977Y927050D01*
X306543Y928858D01*
X305832Y930575D01*
X304860Y932161D01*
X303653Y933574D01*
X302239Y934782D01*
X300654Y935753D01*
X298937Y936465D01*
X297129Y936899D01*
X295276Y937044D01*
D02*
G37*
G36*
X464886Y923646D02*
X463447Y923457D01*
X462106Y922901D01*
X461007Y922058D01*
X444886D01*
X443858Y921922D01*
X442900Y921526D01*
X442078Y920895D01*
X405741Y884558D01*
X339386D01*
X338358Y884422D01*
X337400Y884026D01*
X336578Y883395D01*
X320741Y867558D01*
X310767D01*
X310582Y867783D01*
X309683Y868521D01*
X308657Y869069D01*
X307543Y869407D01*
X306386Y869521D01*
X305228Y869407D01*
X304115Y869069D01*
X303089Y868521D01*
X302190Y867783D01*
X301452Y866883D01*
X300904Y865858D01*
X300566Y864744D01*
X300452Y863587D01*
X300566Y862429D01*
X300904Y861316D01*
X301452Y860290D01*
X302190Y859391D01*
X302415Y859206D01*
Y820587D01*
X302550Y819559D01*
X302947Y818601D01*
X303578Y817779D01*
X318578Y802779D01*
X319400Y802148D01*
X320358Y801751D01*
X321386Y801616D01*
X353241D01*
X371078Y783779D01*
X371900Y783148D01*
X372858Y782751D01*
X373886Y782616D01*
X419886D01*
X420914Y782751D01*
X421871Y783148D01*
X422694Y783779D01*
X425951Y787036D01*
X427325Y787217D01*
X428665Y787772D01*
X429817Y788656D01*
X430700Y789807D01*
X431256Y791148D01*
X431445Y792587D01*
X431256Y794026D01*
X430700Y795366D01*
X429817Y796518D01*
X428665Y797401D01*
X427325Y797957D01*
X425886Y798146D01*
X424447Y797957D01*
X423106Y797401D01*
X421955Y796518D01*
X421071Y795366D01*
X420516Y794026D01*
X420335Y792652D01*
X418241Y790558D01*
X375531D01*
X357694Y808395D01*
X356871Y809026D01*
X355914Y809422D01*
X354886Y809558D01*
X323031D01*
X310357Y822231D01*
Y859206D01*
X310582Y859391D01*
X310767Y859616D01*
X322386D01*
X323414Y859751D01*
X324371Y860148D01*
X325194Y860779D01*
X341031Y876616D01*
X407386D01*
X408414Y876751D01*
X409371Y877148D01*
X410194Y877779D01*
X446531Y914116D01*
X461007D01*
X462106Y913272D01*
X463447Y912717D01*
X464886Y912527D01*
X466325Y912717D01*
X467665Y913272D01*
X468817Y914156D01*
X469700Y915307D01*
X470256Y916648D01*
X470445Y918087D01*
X470256Y919526D01*
X469700Y920866D01*
X468817Y922018D01*
X467665Y922901D01*
X466325Y923457D01*
X464886Y923646D01*
D02*
G37*
G36*
X507181Y909662D02*
X506023Y909548D01*
X504910Y909211D01*
X503884Y908662D01*
X502985Y907924D01*
X502247Y907025D01*
X501699Y905999D01*
X501361Y904886D01*
X501247Y903728D01*
X501361Y902571D01*
X501699Y901458D01*
X502247Y900432D01*
X502985Y899532D01*
X503884Y898794D01*
X504910Y898246D01*
X506023Y897908D01*
X507181Y897794D01*
X508339Y897908D01*
X509452Y898246D01*
X510478Y898794D01*
X511377Y899532D01*
X512115Y900432D01*
X512664Y901458D01*
X513001Y902571D01*
X513115Y903728D01*
X513001Y904886D01*
X512664Y905999D01*
X512115Y907025D01*
X511377Y907924D01*
X510478Y908662D01*
X509452Y909211D01*
X508339Y909548D01*
X507181Y909662D01*
D02*
G37*
G36*
X481591D02*
X480433Y909548D01*
X479320Y909211D01*
X478294Y908662D01*
X477394Y907924D01*
X476656Y907025D01*
X476108Y905999D01*
X475771Y904886D01*
X475657Y903728D01*
X475771Y902571D01*
X476108Y901458D01*
X476656Y900432D01*
X477394Y899532D01*
X478294Y898794D01*
X479320Y898246D01*
X480433Y897908D01*
X481591Y897794D01*
X482748Y897908D01*
X483861Y898246D01*
X484887Y898794D01*
X485787Y899532D01*
X486525Y900432D01*
X487073Y901458D01*
X487411Y902571D01*
X487525Y903728D01*
X487411Y904886D01*
X487073Y905999D01*
X486525Y907025D01*
X485787Y907924D01*
X484887Y908662D01*
X483861Y909211D01*
X482748Y909548D01*
X481591Y909662D01*
D02*
G37*
G36*
X313386Y904146D02*
X311947Y903957D01*
X310606Y903401D01*
X309455Y902518D01*
X308571Y901366D01*
X308016Y900025D01*
X307826Y898587D01*
X308016Y897148D01*
X308571Y895807D01*
X309455Y894656D01*
Y892518D01*
X308571Y891366D01*
X308016Y890026D01*
X307826Y888587D01*
X308016Y887148D01*
X308571Y885807D01*
X309455Y884656D01*
Y882518D01*
X308571Y881366D01*
X308016Y880025D01*
X307826Y878587D01*
X308016Y877148D01*
X308571Y875807D01*
X309455Y874656D01*
X310606Y873772D01*
X311947Y873217D01*
X313386Y873027D01*
X314825Y873217D01*
X316165Y873772D01*
X317317Y874656D01*
X318200Y875807D01*
X318756Y877148D01*
X318945Y878587D01*
X318756Y880025D01*
X318200Y881366D01*
X317317Y882518D01*
Y884656D01*
X318200Y885807D01*
X318756Y887148D01*
X318945Y888587D01*
X318756Y890026D01*
X318200Y891366D01*
X317317Y892518D01*
Y894656D01*
X318200Y895807D01*
X318756Y897148D01*
X318945Y898587D01*
X318756Y900025D01*
X318200Y901366D01*
X317317Y902518D01*
X316165Y903401D01*
X314825Y903957D01*
X313386Y904146D01*
D02*
G37*
G36*
X439961Y866367D02*
X438803Y866253D01*
X437690Y865915D01*
X436664Y865367D01*
X435765Y864629D01*
X435027Y863730D01*
X434478Y862704D01*
X434141Y861591D01*
X434027Y860433D01*
X434141Y859275D01*
X434478Y858162D01*
X435027Y857136D01*
X435765Y856237D01*
X436664Y855499D01*
X437690Y854951D01*
X438803Y854613D01*
X439961Y854499D01*
X441118Y854613D01*
X442232Y854951D01*
X443257Y855499D01*
X444157Y856237D01*
X444895Y857136D01*
X445443Y858162D01*
X445781Y859275D01*
X445895Y860433D01*
X445781Y861591D01*
X445443Y862704D01*
X444895Y863730D01*
X444157Y864629D01*
X443257Y865367D01*
X442232Y865915D01*
X441118Y866253D01*
X439961Y866367D01*
D02*
G37*
G36*
X492126Y848197D02*
X490687Y848008D01*
X489346Y847452D01*
X488195Y846569D01*
X487311Y845417D01*
X486756Y844077D01*
X486567Y842638D01*
X486756Y841199D01*
X487311Y839858D01*
X488195Y838707D01*
X489346Y837823D01*
X490687Y837268D01*
X492126Y837078D01*
X493565Y837268D01*
X494906Y837823D01*
X496057Y838707D01*
X496941Y839858D01*
X497496Y841199D01*
X497685Y842638D01*
X497496Y844077D01*
X496941Y845417D01*
X496057Y846569D01*
X494906Y847452D01*
X493565Y848008D01*
X492126Y848197D01*
D02*
G37*
G36*
X340551Y860485D02*
X338698Y860340D01*
X336890Y859906D01*
X335173Y859194D01*
X333587Y858223D01*
X332174Y857015D01*
X330966Y855602D01*
X329995Y854016D01*
X329283Y852299D01*
X328850Y850491D01*
X328704Y848638D01*
X328850Y846784D01*
X329283Y844977D01*
X329995Y843259D01*
X330966Y841674D01*
X332174Y840260D01*
X333587Y839053D01*
X335173Y838082D01*
X336890Y837370D01*
X338698Y836936D01*
X340551Y836790D01*
X342405Y836936D01*
X344212Y837370D01*
X345930Y838082D01*
X347515Y839053D01*
X348929Y840260D01*
X350136Y841674D01*
X351107Y843259D01*
X351819Y844977D01*
X352253Y846784D01*
X352399Y848638D01*
X352253Y850491D01*
X351819Y852299D01*
X351107Y854016D01*
X350136Y855602D01*
X348929Y857015D01*
X347515Y858223D01*
X345930Y859194D01*
X344212Y859906D01*
X342405Y860340D01*
X340551Y860485D01*
D02*
G37*
G36*
X516886Y881558D02*
X432386D01*
X431358Y881422D01*
X430400Y881026D01*
X429578Y880394D01*
X400792Y851609D01*
X383187D01*
X382604Y853016D01*
X381632Y854602D01*
X380425Y856015D01*
X379011Y857223D01*
X377426Y858194D01*
X375708Y858906D01*
X373901Y859340D01*
X372047Y859485D01*
X370194Y859340D01*
X368386Y858906D01*
X366669Y858194D01*
X365083Y857223D01*
X363670Y856015D01*
X362462Y854602D01*
X361491Y853016D01*
X360780Y851299D01*
X360346Y849491D01*
X360200Y847638D01*
X360346Y845784D01*
X360780Y843977D01*
X361491Y842259D01*
X362462Y840674D01*
X363670Y839260D01*
X365083Y838053D01*
X366669Y837082D01*
X368386Y836370D01*
X370194Y835936D01*
X372047Y835790D01*
X373901Y835936D01*
X375708Y836370D01*
X377426Y837082D01*
X379011Y838053D01*
X380425Y839260D01*
X381632Y840674D01*
X382604Y842259D01*
X383187Y843667D01*
X402437D01*
X403465Y843802D01*
X404423Y844199D01*
X405245Y844830D01*
X434031Y873616D01*
X515241D01*
X533415Y855442D01*
Y845966D01*
X532571Y844866D01*
X532016Y843526D01*
X531826Y842087D01*
X532016Y840648D01*
X532571Y839307D01*
X533455Y838156D01*
X534606Y837272D01*
X535947Y836717D01*
X537386Y836527D01*
X538825Y836717D01*
X540166Y837272D01*
X541317Y838156D01*
X542200Y839307D01*
X542756Y840648D01*
X542945Y842087D01*
X542756Y843526D01*
X542200Y844866D01*
X541357Y845966D01*
Y857087D01*
X541222Y858114D01*
X540825Y859072D01*
X540194Y859894D01*
X519694Y880394D01*
X518871Y881026D01*
X517914Y881422D01*
X516886Y881558D01*
D02*
G37*
G36*
X439961Y840777D02*
X438803Y840663D01*
X437690Y840325D01*
X436664Y839777D01*
X435765Y839039D01*
X435027Y838139D01*
X434478Y837113D01*
X434141Y836000D01*
X434027Y834842D01*
X434141Y833685D01*
X434478Y832572D01*
X435027Y831546D01*
X435765Y830647D01*
X436664Y829908D01*
X437690Y829360D01*
X438803Y829023D01*
X439961Y828908D01*
X441118Y829023D01*
X442232Y829360D01*
X443257Y829908D01*
X444157Y830647D01*
X444895Y831546D01*
X445443Y832572D01*
X445781Y833685D01*
X445895Y834842D01*
X445781Y836000D01*
X445443Y837113D01*
X444895Y838139D01*
X444157Y839039D01*
X443257Y839777D01*
X442232Y840325D01*
X441118Y840663D01*
X439961Y840777D01*
D02*
G37*
G36*
X526378Y832706D02*
X525220Y832592D01*
X524107Y832254D01*
X523081Y831706D01*
X522182Y830968D01*
X521444Y830068D01*
X520896Y829043D01*
X520558Y827929D01*
X520444Y826772D01*
X520558Y825614D01*
X520896Y824501D01*
X521444Y823475D01*
X522182Y822576D01*
X523081Y821838D01*
X524107Y821289D01*
X525220Y820952D01*
X526378Y820838D01*
X527536Y820952D01*
X528649Y821289D01*
X529675Y821838D01*
X530574Y822576D01*
X531312Y823475D01*
X531860Y824501D01*
X532198Y825614D01*
X532312Y826772D01*
X532198Y827929D01*
X531860Y829043D01*
X531312Y830068D01*
X530574Y830968D01*
X529675Y831706D01*
X528649Y832254D01*
X527536Y832592D01*
X526378Y832706D01*
D02*
G37*
G36*
X486221D02*
X485063Y832592D01*
X483950Y832254D01*
X482924Y831706D01*
X482024Y830968D01*
X481286Y830068D01*
X480738Y829043D01*
X480400Y827929D01*
X480286Y826772D01*
X480400Y825614D01*
X480738Y824501D01*
X481286Y823475D01*
X482024Y822576D01*
X482924Y821838D01*
X483950Y821289D01*
X485063Y820952D01*
X486221Y820838D01*
X487378Y820952D01*
X488491Y821289D01*
X489517Y821838D01*
X490416Y822576D01*
X491154Y823475D01*
X491703Y824501D01*
X492040Y825614D01*
X492155Y826772D01*
X492040Y827929D01*
X491703Y829043D01*
X491154Y830068D01*
X490416Y830968D01*
X489517Y831706D01*
X488491Y832254D01*
X487378Y832592D01*
X486221Y832706D01*
D02*
G37*
G36*
X457677Y840777D02*
X456520Y840663D01*
X455406Y840325D01*
X454380Y839777D01*
X453481Y839039D01*
X452743Y838139D01*
X452195Y837113D01*
X451857Y836000D01*
X451743Y834842D01*
X451857Y833685D01*
X452195Y832572D01*
X452675Y831673D01*
X452749Y831478D01*
X452803Y830836D01*
X452473Y828498D01*
X452101Y827705D01*
X451856Y827518D01*
X450973Y826366D01*
X450418Y825025D01*
X450228Y823587D01*
X450418Y822148D01*
X450973Y820807D01*
X451856Y819656D01*
X453008Y818772D01*
X454349Y818217D01*
X455787Y818027D01*
X457226Y818217D01*
X458567Y818772D01*
X459719Y819656D01*
X460602Y820807D01*
X461157Y822148D01*
X461347Y823587D01*
X461157Y825025D01*
X460638Y826278D01*
X460585Y826444D01*
X460533Y826684D01*
X460917Y829494D01*
X461362Y830227D01*
X461873Y830647D01*
X462611Y831546D01*
X463160Y832572D01*
X463497Y833685D01*
X463611Y834842D01*
X463497Y836000D01*
X463160Y837113D01*
X462611Y838139D01*
X461873Y839039D01*
X460974Y839777D01*
X459948Y840325D01*
X458835Y840663D01*
X457677Y840777D01*
D02*
G37*
G36*
X333886Y824646D02*
X332447Y824457D01*
X331106Y823901D01*
X329955Y823018D01*
X329071Y821866D01*
X328516Y820525D01*
X328327Y819087D01*
X328516Y817648D01*
X329071Y816307D01*
X329955Y815156D01*
X331106Y814272D01*
X332447Y813717D01*
X333886Y813527D01*
X335325Y813717D01*
X336666Y814272D01*
X337817Y815156D01*
X338700Y816307D01*
X339256Y817648D01*
X339445Y819087D01*
X339256Y820525D01*
X338700Y821866D01*
X337817Y823018D01*
X336666Y823901D01*
X335325Y824457D01*
X333886Y824646D01*
D02*
G37*
G36*
X476378Y813021D02*
X475220Y812907D01*
X474107Y812569D01*
X473081Y812021D01*
X472182Y811283D01*
X471444Y810383D01*
X470896Y809357D01*
X470558Y808244D01*
X470444Y807087D01*
X470558Y805929D01*
X470896Y804816D01*
X471444Y803790D01*
X472182Y802891D01*
X473081Y802153D01*
X474107Y801604D01*
X475220Y801267D01*
X476378Y801153D01*
X477536Y801267D01*
X478649Y801604D01*
X479675Y802153D01*
X480574Y802891D01*
X481312Y803790D01*
X481860Y804816D01*
X482198Y805929D01*
X482312Y807087D01*
X482198Y808244D01*
X481860Y809357D01*
X481312Y810383D01*
X480574Y811283D01*
X479675Y812021D01*
X478649Y812569D01*
X477536Y812907D01*
X476378Y813021D01*
D02*
G37*
G36*
X407228Y808249D02*
X405892Y808073D01*
X404647Y807557D01*
X403578Y806737D01*
X402758Y805668D01*
X402242Y804423D01*
X402066Y803087D01*
X402242Y801750D01*
X402758Y800506D01*
X403578Y799436D01*
X404647Y798616D01*
X405892Y798100D01*
X407228Y797924D01*
X408564Y798100D01*
X409809Y798616D01*
X410879Y799436D01*
X411699Y800506D01*
X412215Y801750D01*
X412391Y803087D01*
X412215Y804423D01*
X411699Y805668D01*
X410879Y806737D01*
X409809Y807557D01*
X408564Y808073D01*
X407228Y808249D01*
D02*
G37*
G36*
X455787Y796146D02*
X454449Y795970D01*
X454259Y795961D01*
X451299Y796098D01*
Y796098D01*
X440276D01*
Y785075D01*
X451299D01*
X451299Y785075D01*
X454259Y785213D01*
X454449Y785204D01*
X455787Y785027D01*
X457226Y785217D01*
X458567Y785772D01*
X459719Y786656D01*
X460602Y787807D01*
X461157Y789148D01*
X461347Y790587D01*
X461157Y792026D01*
X460602Y793366D01*
X459719Y794518D01*
X458567Y795401D01*
X457226Y795957D01*
X455787Y796146D01*
D02*
G37*
G36*
X334646Y798282D02*
X333102Y798130D01*
X331618Y797680D01*
X330250Y796949D01*
X329051Y795965D01*
X328067Y794766D01*
X327336Y793398D01*
X326886Y791914D01*
X326734Y790370D01*
X326886Y788827D01*
X327336Y787342D01*
X328067Y785974D01*
X329051Y784775D01*
X330250Y783791D01*
X331618Y783060D01*
X333102Y782610D01*
X334646Y782458D01*
X336189Y782610D01*
X337673Y783060D01*
X339041Y783791D01*
X340240Y784775D01*
X341224Y785974D01*
X341955Y787342D01*
X342406Y788827D01*
X342558Y790370D01*
X342406Y791914D01*
X341955Y793398D01*
X341224Y794766D01*
X340240Y795965D01*
X339041Y796949D01*
X337673Y797680D01*
X336189Y798130D01*
X334646Y798282D01*
D02*
G37*
G36*
X526378Y793336D02*
X525220Y793222D01*
X524107Y792884D01*
X523081Y792336D01*
X522182Y791598D01*
X521444Y790698D01*
X520896Y789673D01*
X520558Y788559D01*
X520444Y787402D01*
X520558Y786244D01*
X520896Y785131D01*
X521444Y784105D01*
X522182Y783206D01*
X523081Y782468D01*
X524107Y781919D01*
X525220Y781581D01*
X526378Y781467D01*
X527536Y781581D01*
X528649Y781919D01*
X529675Y782468D01*
X530574Y783206D01*
X531312Y784105D01*
X531860Y785131D01*
X532198Y786244D01*
X532312Y787402D01*
X532198Y788559D01*
X531860Y789673D01*
X531312Y790698D01*
X530574Y791598D01*
X529675Y792336D01*
X528649Y792884D01*
X527536Y793222D01*
X526378Y793336D01*
D02*
G37*
G36*
X486221D02*
X485063Y793222D01*
X483950Y792884D01*
X482924Y792336D01*
X482024Y791598D01*
X481286Y790698D01*
X480738Y789673D01*
X480400Y788559D01*
X480286Y787402D01*
X480400Y786244D01*
X480738Y785131D01*
X481286Y784105D01*
X482024Y783206D01*
X482924Y782468D01*
X483950Y781919D01*
X485063Y781581D01*
X486221Y781467D01*
X487378Y781581D01*
X488491Y781919D01*
X489517Y782468D01*
X490416Y783206D01*
X491154Y784105D01*
X491703Y785131D01*
X492040Y786244D01*
X492155Y787402D01*
X492040Y788559D01*
X491703Y789673D01*
X491154Y790698D01*
X490416Y791598D01*
X489517Y792336D01*
X488491Y792884D01*
X487378Y793222D01*
X486221Y793336D01*
D02*
G37*
G36*
X296577Y784695D02*
X295227Y784562D01*
X293928Y784168D01*
X292731Y783528D01*
X291682Y782667D01*
X290821Y781618D01*
X290181Y780421D01*
X289787Y779122D01*
X289654Y777772D01*
X289787Y776421D01*
X290181Y775122D01*
X290821Y773925D01*
X291682Y772876D01*
X292731Y772015D01*
X293928Y771376D01*
X295227Y770982D01*
X296577Y770849D01*
X297928Y770982D01*
X299226Y771376D01*
X300423Y772015D01*
X301472Y772876D01*
X302333Y773925D01*
X302973Y775122D01*
X303367Y776421D01*
X303500Y777772D01*
X303367Y779122D01*
X302973Y780421D01*
X302333Y781618D01*
X301472Y782667D01*
X300423Y783528D01*
X299226Y784168D01*
X297928Y784562D01*
X296577Y784695D01*
D02*
G37*
G36*
X497126Y770520D02*
X495687Y770331D01*
X494346Y769775D01*
X493195Y768892D01*
X491057D01*
X489906Y769775D01*
X488565Y770331D01*
X487126Y770520D01*
X485687Y770331D01*
X484346Y769775D01*
X483195Y768892D01*
X482311Y767740D01*
X481756Y766399D01*
X481567Y764961D01*
X481756Y763522D01*
X482311Y762181D01*
X483195Y761030D01*
X484346Y760146D01*
X485687Y759591D01*
X487126Y759401D01*
X488565Y759591D01*
X489906Y760146D01*
X491057Y761030D01*
X493195D01*
X494346Y760146D01*
X495687Y759591D01*
X497126Y759401D01*
X498565Y759591D01*
X499906Y760146D01*
X501057Y761030D01*
X501940Y762181D01*
X502496Y763522D01*
X502685Y764961D01*
X502496Y766399D01*
X501940Y767740D01*
X501057Y768892D01*
X499906Y769775D01*
X498565Y770331D01*
X497126Y770520D01*
D02*
G37*
G36*
X377953Y775520D02*
X376514Y775331D01*
X375173Y774775D01*
X374022Y773892D01*
X373138Y772740D01*
X372583Y771399D01*
X372393Y769961D01*
X372583Y768522D01*
X373138Y767181D01*
X374022Y766030D01*
X375173Y765146D01*
X376514Y764591D01*
X377953Y764401D01*
X379392Y764591D01*
X380732Y765146D01*
X381884Y766030D01*
X382767Y767181D01*
X383323Y768522D01*
X383512Y769961D01*
X383323Y771399D01*
X382767Y772740D01*
X381884Y773892D01*
X380732Y774775D01*
X379392Y775331D01*
X377953Y775520D01*
D02*
G37*
G36*
X318898Y775247D02*
X314961D01*
X313933Y775111D01*
X312975Y774715D01*
X312153Y774084D01*
X311522Y773261D01*
X311125Y772303D01*
X310990Y771276D01*
Y759465D01*
X311125Y758437D01*
X311522Y757479D01*
X312153Y756657D01*
X312975Y756026D01*
X313933Y755629D01*
X314961Y755494D01*
X318898D01*
X319925Y755629D01*
X320883Y756026D01*
X321706Y756657D01*
X322337Y757479D01*
X322733Y758437D01*
X322869Y759465D01*
Y771276D01*
X322733Y772303D01*
X322337Y773261D01*
X321706Y774084D01*
X320883Y774715D01*
X319925Y775111D01*
X318898Y775247D01*
D02*
G37*
G36*
X448819Y775520D02*
X447380Y775331D01*
X446039Y774775D01*
X444888Y773892D01*
X444004Y772740D01*
X443449Y771399D01*
X443259Y769961D01*
X443449Y768522D01*
X444004Y767181D01*
X444888Y766030D01*
Y763892D01*
X444004Y762740D01*
X443449Y761400D01*
X443259Y759961D01*
X443449Y758522D01*
X444004Y757181D01*
X444888Y756030D01*
X446039Y755146D01*
X447380Y754591D01*
X448819Y754401D01*
X450258Y754591D01*
X451599Y755146D01*
X452750Y756030D01*
X453633Y757181D01*
X454189Y758522D01*
X454378Y759961D01*
X454189Y761400D01*
X453633Y762740D01*
X452750Y763892D01*
Y766030D01*
X453633Y767181D01*
X454189Y768522D01*
X454378Y769961D01*
X454189Y771399D01*
X453633Y772740D01*
X452750Y773892D01*
X451599Y774775D01*
X450258Y775331D01*
X448819Y775520D01*
D02*
G37*
G36*
X412886Y765646D02*
X411447Y765456D01*
X410106Y764901D01*
X408955Y764018D01*
X408071Y762866D01*
X407516Y761525D01*
X407335Y760152D01*
X399241Y752058D01*
X365765D01*
X364666Y752901D01*
X363325Y753456D01*
X361886Y753646D01*
X360447Y753456D01*
X359106Y752901D01*
X357955Y752018D01*
X357071Y750866D01*
X356516Y749525D01*
X356327Y748087D01*
X356516Y746648D01*
X357071Y745307D01*
X357955Y744156D01*
X359106Y743272D01*
X360447Y742717D01*
X361886Y742527D01*
X363325Y742717D01*
X364666Y743272D01*
X365765Y744116D01*
X400886D01*
X401914Y744251D01*
X402871Y744648D01*
X403694Y745279D01*
X412951Y754536D01*
X414325Y754717D01*
X415665Y755272D01*
X416817Y756156D01*
X417700Y757307D01*
X418256Y758648D01*
X418445Y760087D01*
X418256Y761525D01*
X417700Y762866D01*
X416817Y764018D01*
X415665Y764901D01*
X414325Y765456D01*
X412886Y765646D01*
D02*
G37*
G36*
X296577Y745325D02*
X295227Y745192D01*
X293928Y744798D01*
X292731Y744158D01*
X291682Y743297D01*
X290821Y742248D01*
X290181Y741051D01*
X289787Y739752D01*
X289654Y738402D01*
X289787Y737051D01*
X290181Y735752D01*
X290821Y734555D01*
X291682Y733506D01*
X292731Y732645D01*
X293928Y732006D01*
X295227Y731611D01*
X296577Y731479D01*
X297928Y731611D01*
X299226Y732006D01*
X300423Y732645D01*
X301472Y733506D01*
X302333Y734555D01*
X302973Y735752D01*
X303367Y737051D01*
X303500Y738402D01*
X303367Y739752D01*
X302973Y741051D01*
X302333Y742248D01*
X301472Y743297D01*
X300423Y744158D01*
X299226Y744798D01*
X297928Y745192D01*
X296577Y745325D01*
D02*
G37*
G36*
X531866Y737010D02*
X530515Y736877D01*
X529217Y736483D01*
X528020Y735843D01*
X526971Y734982D01*
X526110Y733933D01*
X525470Y732736D01*
X525076Y731437D01*
X524943Y730087D01*
X525076Y728736D01*
X525470Y727437D01*
X526110Y726240D01*
X526971Y725191D01*
X528020Y724330D01*
X529217Y723691D01*
X530515Y723297D01*
X531866Y723164D01*
X533217Y723297D01*
X534515Y723691D01*
X535712Y724330D01*
X536762Y725191D01*
X537622Y726240D01*
X538262Y727437D01*
X538656Y728736D01*
X538789Y730087D01*
X538656Y731437D01*
X538262Y732736D01*
X537622Y733933D01*
X536762Y734982D01*
X535712Y735843D01*
X534515Y736483D01*
X533217Y736877D01*
X531866Y737010D01*
D02*
G37*
G36*
X334146Y737782D02*
X332602Y737630D01*
X331118Y737180D01*
X329750Y736449D01*
X328551Y735465D01*
X327567Y734266D01*
X326836Y732898D01*
X326386Y731414D01*
X326234Y729870D01*
X326386Y728327D01*
X326836Y726842D01*
X327567Y725474D01*
X328551Y724275D01*
X329750Y723291D01*
X331118Y722560D01*
X332602Y722110D01*
X334146Y721958D01*
X335689Y722110D01*
X337174Y722560D01*
X338541Y723291D01*
X339740Y724275D01*
X340724Y725474D01*
X341456Y726842D01*
X341906Y728327D01*
X342058Y729870D01*
X341906Y731414D01*
X341456Y732898D01*
X340724Y734266D01*
X339740Y735465D01*
X338541Y736449D01*
X337174Y737180D01*
X335689Y737630D01*
X334146Y737782D01*
D02*
G37*
G36*
X490886Y696510D02*
X489535Y696377D01*
X488237Y695983D01*
X487040Y695343D01*
X485990Y694482D01*
X485129Y693433D01*
X484490Y692236D01*
X484096Y690937D01*
X483963Y689587D01*
X484096Y688236D01*
X484490Y686937D01*
X485129Y685740D01*
X485990Y684691D01*
X487040Y683830D01*
X488237Y683190D01*
X489535Y682797D01*
X490886Y682663D01*
X492237Y682797D01*
X493535Y683190D01*
X494732Y683830D01*
X495781Y684691D01*
X496642Y685740D01*
X497282Y686937D01*
X497676Y688236D01*
X497809Y689587D01*
X497676Y690937D01*
X497282Y692236D01*
X496642Y693433D01*
X495781Y694482D01*
X494732Y695343D01*
X493535Y695983D01*
X492237Y696377D01*
X490886Y696510D01*
D02*
G37*
G36*
X531496Y700824D02*
X529643Y700678D01*
X527835Y700244D01*
X526117Y699533D01*
X524532Y698561D01*
X523119Y697354D01*
X521911Y695940D01*
X520940Y694355D01*
X520228Y692637D01*
X519794Y690830D01*
X519649Y688976D01*
X519794Y687123D01*
X520228Y685315D01*
X520940Y683598D01*
X521911Y682013D01*
X523119Y680599D01*
X524532Y679391D01*
X526117Y678420D01*
X527835Y677709D01*
X529643Y677275D01*
X531496Y677129D01*
X533349Y677275D01*
X535157Y677709D01*
X536875Y678420D01*
X538460Y679391D01*
X539874Y680599D01*
X541081Y682013D01*
X542052Y683598D01*
X542764Y685315D01*
X543198Y687123D01*
X543344Y688976D01*
X543198Y690830D01*
X542764Y692637D01*
X542052Y694355D01*
X541081Y695940D01*
X539874Y697354D01*
X538460Y698561D01*
X536875Y699533D01*
X535157Y700244D01*
X533349Y700678D01*
X531496Y700824D01*
D02*
G37*
G36*
X295276D02*
X293422Y700678D01*
X291615Y700244D01*
X289897Y699533D01*
X288312Y698561D01*
X286898Y697354D01*
X285691Y695940D01*
X284719Y694355D01*
X284008Y692637D01*
X283574Y690830D01*
X283428Y688976D01*
X283574Y687123D01*
X284008Y685315D01*
X284719Y683598D01*
X285691Y682013D01*
X286898Y680599D01*
X288312Y679391D01*
X289897Y678420D01*
X291615Y677709D01*
X293422Y677275D01*
X295276Y677129D01*
X297129Y677275D01*
X298937Y677709D01*
X300654Y678420D01*
X302239Y679391D01*
X303653Y680599D01*
X304860Y682013D01*
X305832Y683598D01*
X306543Y685315D01*
X306977Y687123D01*
X307123Y688976D01*
X306977Y690830D01*
X306543Y692637D01*
X305832Y694355D01*
X304860Y695940D01*
X303653Y697354D01*
X302239Y698561D01*
X300654Y699533D01*
X298937Y700244D01*
X297129Y700678D01*
X295276Y700824D01*
D02*
G37*
G36*
X1082677Y645706D02*
X1080824Y645560D01*
X1079016Y645126D01*
X1077299Y644415D01*
X1075713Y643443D01*
X1074300Y642236D01*
X1073092Y640822D01*
X1072121Y639237D01*
X1071410Y637519D01*
X1070975Y635712D01*
X1070830Y633858D01*
X1070975Y632005D01*
X1071410Y630197D01*
X1072121Y628480D01*
X1073092Y626895D01*
X1074300Y625481D01*
X1075713Y624273D01*
X1077299Y623302D01*
X1079016Y622591D01*
X1080824Y622157D01*
X1082677Y622011D01*
X1084531Y622157D01*
X1086338Y622591D01*
X1088056Y623302D01*
X1089641Y624273D01*
X1091055Y625481D01*
X1092262Y626895D01*
X1093233Y628480D01*
X1093945Y630197D01*
X1094379Y632005D01*
X1094525Y633858D01*
X1094379Y635712D01*
X1093945Y637519D01*
X1093233Y639237D01*
X1092262Y640822D01*
X1091055Y642236D01*
X1089641Y643443D01*
X1088056Y644415D01*
X1086338Y645126D01*
X1084531Y645560D01*
X1082677Y645706D01*
D02*
G37*
G36*
X846457D02*
X844603Y645560D01*
X842796Y645126D01*
X841078Y644415D01*
X839493Y643443D01*
X838079Y642236D01*
X836872Y640822D01*
X835900Y639237D01*
X835189Y637519D01*
X834755Y635712D01*
X834609Y633858D01*
X834755Y632005D01*
X835189Y630197D01*
X835900Y628480D01*
X836872Y626895D01*
X838079Y625481D01*
X839493Y624273D01*
X841078Y623302D01*
X842796Y622591D01*
X844603Y622157D01*
X846457Y622011D01*
X848310Y622157D01*
X850118Y622591D01*
X851835Y623302D01*
X853421Y624273D01*
X854834Y625481D01*
X856042Y626895D01*
X857013Y628480D01*
X857724Y630197D01*
X858158Y632005D01*
X858304Y633858D01*
X858158Y635712D01*
X857724Y637519D01*
X857013Y639237D01*
X856042Y640822D01*
X854834Y642236D01*
X853421Y643443D01*
X851835Y644415D01*
X850118Y645126D01*
X848310Y645560D01*
X846457Y645706D01*
D02*
G37*
G36*
X1016067Y632307D02*
X1014628Y632118D01*
X1013287Y631563D01*
X1012188Y630719D01*
X996067D01*
X995039Y630584D01*
X994081Y630187D01*
X993259Y629556D01*
X956922Y593219D01*
X890567D01*
X889539Y593084D01*
X888581Y592687D01*
X887759Y592056D01*
X871922Y576219D01*
X861948D01*
X861763Y576444D01*
X860864Y577182D01*
X859838Y577730D01*
X858725Y578068D01*
X857567Y578182D01*
X856409Y578068D01*
X855296Y577730D01*
X854270Y577182D01*
X853371Y576444D01*
X852633Y575545D01*
X852085Y574519D01*
X851747Y573406D01*
X851633Y572248D01*
X851747Y571090D01*
X852085Y569977D01*
X852633Y568951D01*
X853371Y568052D01*
X853596Y567867D01*
Y529248D01*
X853731Y528220D01*
X854128Y527263D01*
X854759Y526440D01*
X869759Y511440D01*
X870582Y510809D01*
X871539Y510412D01*
X872567Y510277D01*
X904422D01*
X922259Y492440D01*
X923081Y491809D01*
X924039Y491412D01*
X925067Y491277D01*
X971067D01*
X972095Y491412D01*
X973052Y491809D01*
X973875Y492440D01*
X977132Y495697D01*
X978506Y495878D01*
X979847Y496433D01*
X980998Y497317D01*
X981882Y498468D01*
X982437Y499809D01*
X982626Y501248D01*
X982437Y502687D01*
X981882Y504028D01*
X980998Y505179D01*
X979847Y506063D01*
X978506Y506618D01*
X977067Y506807D01*
X975628Y506618D01*
X974287Y506063D01*
X973136Y505179D01*
X972252Y504028D01*
X971697Y502687D01*
X971516Y501313D01*
X969422Y499219D01*
X926712D01*
X908875Y517056D01*
X908052Y517687D01*
X907095Y518084D01*
X906067Y518219D01*
X874212D01*
X861538Y530893D01*
Y567867D01*
X861763Y568052D01*
X861948Y568277D01*
X873567D01*
X874595Y568412D01*
X875552Y568809D01*
X876375Y569440D01*
X892212Y585277D01*
X958567D01*
X959595Y585412D01*
X960552Y585809D01*
X961375Y586440D01*
X997712Y622777D01*
X1012188D01*
X1013287Y621934D01*
X1014628Y621378D01*
X1016067Y621189D01*
X1017506Y621378D01*
X1018847Y621934D01*
X1019998Y622817D01*
X1020881Y623968D01*
X1021437Y625309D01*
X1021626Y626748D01*
X1021437Y628187D01*
X1020881Y629528D01*
X1019998Y630679D01*
X1018847Y631563D01*
X1017506Y632118D01*
X1016067Y632307D01*
D02*
G37*
G36*
X1058362Y618324D02*
X1057205Y618210D01*
X1056091Y617872D01*
X1055065Y617324D01*
X1054166Y616586D01*
X1053428Y615687D01*
X1052880Y614661D01*
X1052542Y613548D01*
X1052428Y612390D01*
X1052542Y611232D01*
X1052880Y610119D01*
X1053428Y609093D01*
X1054166Y608194D01*
X1055065Y607456D01*
X1056091Y606907D01*
X1057205Y606570D01*
X1058362Y606456D01*
X1059520Y606570D01*
X1060633Y606907D01*
X1061659Y607456D01*
X1062558Y608194D01*
X1063296Y609093D01*
X1063845Y610119D01*
X1064182Y611232D01*
X1064296Y612390D01*
X1064182Y613548D01*
X1063845Y614661D01*
X1063296Y615687D01*
X1062558Y616586D01*
X1061659Y617324D01*
X1060633Y617872D01*
X1059520Y618210D01*
X1058362Y618324D01*
D02*
G37*
G36*
X1032772D02*
X1031614Y618210D01*
X1030501Y617872D01*
X1029475Y617324D01*
X1028576Y616586D01*
X1027838Y615687D01*
X1027289Y614661D01*
X1026952Y613548D01*
X1026838Y612390D01*
X1026952Y611232D01*
X1027289Y610119D01*
X1027838Y609093D01*
X1028576Y608194D01*
X1029475Y607456D01*
X1030501Y606907D01*
X1031614Y606570D01*
X1032772Y606456D01*
X1033929Y606570D01*
X1035042Y606907D01*
X1036068Y607456D01*
X1036968Y608194D01*
X1037706Y609093D01*
X1038254Y610119D01*
X1038592Y611232D01*
X1038706Y612390D01*
X1038592Y613548D01*
X1038254Y614661D01*
X1037706Y615687D01*
X1036968Y616586D01*
X1036068Y617324D01*
X1035042Y617872D01*
X1033929Y618210D01*
X1032772Y618324D01*
D02*
G37*
G36*
X864567Y612807D02*
X863128Y612618D01*
X861787Y612063D01*
X860636Y611179D01*
X859752Y610028D01*
X859197Y608687D01*
X859008Y607248D01*
X859197Y605809D01*
X859752Y604468D01*
X860636Y603317D01*
Y601179D01*
X859752Y600028D01*
X859197Y598687D01*
X859008Y597248D01*
X859197Y595809D01*
X859752Y594468D01*
X860636Y593317D01*
Y591179D01*
X859752Y590028D01*
X859197Y588687D01*
X859008Y587248D01*
X859197Y585809D01*
X859752Y584468D01*
X860636Y583317D01*
X861787Y582434D01*
X863128Y581878D01*
X864567Y581689D01*
X866006Y581878D01*
X867347Y582434D01*
X868498Y583317D01*
X869382Y584468D01*
X869937Y585809D01*
X870126Y587248D01*
X869937Y588687D01*
X869382Y590028D01*
X868498Y591179D01*
Y593317D01*
X869382Y594468D01*
X869937Y595809D01*
X870126Y597248D01*
X869937Y598687D01*
X869382Y600028D01*
X868498Y601179D01*
Y603317D01*
X869382Y604468D01*
X869937Y605809D01*
X870126Y607248D01*
X869937Y608687D01*
X869382Y610028D01*
X868498Y611179D01*
X867347Y612063D01*
X866006Y612618D01*
X864567Y612807D01*
D02*
G37*
G36*
X991142Y575029D02*
X989984Y574915D01*
X988871Y574577D01*
X987845Y574028D01*
X986946Y573290D01*
X986208Y572391D01*
X985659Y571365D01*
X985322Y570252D01*
X985208Y569095D01*
X985322Y567937D01*
X985659Y566824D01*
X986208Y565798D01*
X986946Y564898D01*
X987845Y564160D01*
X988871Y563612D01*
X989984Y563274D01*
X991142Y563160D01*
X992299Y563274D01*
X993413Y563612D01*
X994438Y564160D01*
X995338Y564898D01*
X996076Y565798D01*
X996624Y566824D01*
X996962Y567937D01*
X997076Y569095D01*
X996962Y570252D01*
X996624Y571365D01*
X996076Y572391D01*
X995338Y573290D01*
X994438Y574028D01*
X993413Y574577D01*
X992299Y574915D01*
X991142Y575029D01*
D02*
G37*
G36*
X1043307Y556859D02*
X1041868Y556669D01*
X1040527Y556114D01*
X1039376Y555230D01*
X1038492Y554079D01*
X1037937Y552738D01*
X1037748Y551299D01*
X1037937Y549860D01*
X1038492Y548520D01*
X1039376Y547368D01*
X1040527Y546485D01*
X1041868Y545929D01*
X1043307Y545740D01*
X1044746Y545929D01*
X1046087Y546485D01*
X1047238Y547368D01*
X1048122Y548520D01*
X1048677Y549860D01*
X1048866Y551299D01*
X1048677Y552738D01*
X1048122Y554079D01*
X1047238Y555230D01*
X1046087Y556114D01*
X1044746Y556669D01*
X1043307Y556859D01*
D02*
G37*
G36*
X891732Y569147D02*
X889879Y569001D01*
X888071Y568567D01*
X886354Y567856D01*
X884768Y566884D01*
X883355Y565677D01*
X882147Y564263D01*
X881176Y562678D01*
X880465Y560960D01*
X880031Y559153D01*
X879885Y557299D01*
X880031Y555446D01*
X880465Y553638D01*
X881176Y551921D01*
X882147Y550335D01*
X883355Y548922D01*
X884768Y547714D01*
X886354Y546743D01*
X888071Y546032D01*
X889879Y545598D01*
X891732Y545452D01*
X893586Y545598D01*
X895393Y546032D01*
X897111Y546743D01*
X898696Y547714D01*
X900110Y548922D01*
X901317Y550335D01*
X902289Y551921D01*
X903000Y553638D01*
X903434Y555446D01*
X903580Y557299D01*
X903434Y559153D01*
X903000Y560960D01*
X902289Y562678D01*
X901317Y564263D01*
X900110Y565677D01*
X898696Y566884D01*
X897111Y567856D01*
X895393Y568567D01*
X893586Y569001D01*
X891732Y569147D01*
D02*
G37*
G36*
X1068067Y590219D02*
X983567D01*
X982539Y590084D01*
X981581Y589687D01*
X980759Y589056D01*
X951973Y560270D01*
X934368D01*
X933785Y561678D01*
X932813Y563263D01*
X931606Y564677D01*
X930192Y565884D01*
X928607Y566855D01*
X926889Y567567D01*
X925082Y568001D01*
X923228Y568147D01*
X921375Y568001D01*
X919567Y567567D01*
X917850Y566855D01*
X916265Y565884D01*
X914851Y564677D01*
X913643Y563263D01*
X912672Y561678D01*
X911961Y559960D01*
X911527Y558153D01*
X911381Y556299D01*
X911527Y554446D01*
X911961Y552638D01*
X912672Y550921D01*
X913643Y549335D01*
X914851Y547922D01*
X916265Y546714D01*
X917850Y545743D01*
X919567Y545031D01*
X921375Y544597D01*
X923228Y544452D01*
X925082Y544597D01*
X926889Y545031D01*
X928607Y545743D01*
X930192Y546714D01*
X931606Y547922D01*
X932813Y549335D01*
X933785Y550921D01*
X934368Y552328D01*
X953618D01*
X954646Y552464D01*
X955604Y552860D01*
X956426Y553491D01*
X985212Y582277D01*
X1066422D01*
X1084596Y564103D01*
Y554627D01*
X1083752Y553528D01*
X1083197Y552187D01*
X1083008Y550748D01*
X1083197Y549309D01*
X1083752Y547968D01*
X1084636Y546817D01*
X1085787Y545933D01*
X1087128Y545378D01*
X1088567Y545189D01*
X1090006Y545378D01*
X1091347Y545933D01*
X1092498Y546817D01*
X1093382Y547968D01*
X1093937Y549309D01*
X1094126Y550748D01*
X1093937Y552187D01*
X1093382Y553528D01*
X1092538Y554627D01*
Y565748D01*
X1092403Y566776D01*
X1092006Y567733D01*
X1091375Y568556D01*
X1070875Y589056D01*
X1070052Y589687D01*
X1069095Y590084D01*
X1068067Y590219D01*
D02*
G37*
G36*
X991142Y549438D02*
X989984Y549324D01*
X988871Y548986D01*
X987845Y548438D01*
X986946Y547700D01*
X986208Y546801D01*
X985659Y545775D01*
X985322Y544662D01*
X985208Y543504D01*
X985322Y542346D01*
X985659Y541233D01*
X986208Y540207D01*
X986946Y539308D01*
X987845Y538570D01*
X988871Y538022D01*
X989984Y537684D01*
X991142Y537570D01*
X992299Y537684D01*
X993413Y538022D01*
X994438Y538570D01*
X995338Y539308D01*
X996076Y540207D01*
X996624Y541233D01*
X996962Y542346D01*
X997076Y543504D01*
X996962Y544662D01*
X996624Y545775D01*
X996076Y546801D01*
X995338Y547700D01*
X994438Y548438D01*
X993413Y548986D01*
X992299Y549324D01*
X991142Y549438D01*
D02*
G37*
G36*
X1077559Y541367D02*
X1076401Y541253D01*
X1075288Y540915D01*
X1074262Y540367D01*
X1073363Y539629D01*
X1072625Y538730D01*
X1072077Y537704D01*
X1071739Y536591D01*
X1071625Y535433D01*
X1071739Y534275D01*
X1072077Y533162D01*
X1072625Y532136D01*
X1073363Y531237D01*
X1074262Y530499D01*
X1075288Y529951D01*
X1076401Y529613D01*
X1077559Y529499D01*
X1078717Y529613D01*
X1079830Y529951D01*
X1080856Y530499D01*
X1081755Y531237D01*
X1082493Y532136D01*
X1083041Y533162D01*
X1083379Y534275D01*
X1083493Y535433D01*
X1083379Y536591D01*
X1083041Y537704D01*
X1082493Y538730D01*
X1081755Y539629D01*
X1080856Y540367D01*
X1079830Y540915D01*
X1078717Y541253D01*
X1077559Y541367D01*
D02*
G37*
G36*
X1037402D02*
X1036244Y541253D01*
X1035131Y540915D01*
X1034105Y540367D01*
X1033206Y539629D01*
X1032468Y538730D01*
X1031919Y537704D01*
X1031581Y536591D01*
X1031468Y535433D01*
X1031581Y534275D01*
X1031919Y533162D01*
X1032468Y532136D01*
X1033206Y531237D01*
X1034105Y530499D01*
X1035131Y529951D01*
X1036244Y529613D01*
X1037402Y529499D01*
X1038559Y529613D01*
X1039672Y529951D01*
X1040698Y530499D01*
X1041598Y531237D01*
X1042336Y532136D01*
X1042884Y533162D01*
X1043222Y534275D01*
X1043336Y535433D01*
X1043222Y536591D01*
X1042884Y537704D01*
X1042336Y538730D01*
X1041598Y539629D01*
X1040698Y540367D01*
X1039672Y540915D01*
X1038559Y541253D01*
X1037402Y541367D01*
D02*
G37*
G36*
X1008858Y549438D02*
X1007701Y549324D01*
X1006587Y548986D01*
X1005562Y548438D01*
X1004662Y547700D01*
X1003924Y546801D01*
X1003376Y545775D01*
X1003038Y544662D01*
X1002924Y543504D01*
X1003038Y542346D01*
X1003376Y541233D01*
X1003856Y540334D01*
X1003930Y540139D01*
X1003984Y539497D01*
X1003654Y537159D01*
X1003282Y536367D01*
X1003037Y536179D01*
X1002154Y535028D01*
X1001599Y533687D01*
X1001409Y532248D01*
X1001599Y530809D01*
X1002154Y529468D01*
X1003037Y528317D01*
X1004189Y527433D01*
X1005530Y526878D01*
X1006968Y526689D01*
X1008407Y526878D01*
X1009748Y527433D01*
X1010900Y528317D01*
X1011783Y529468D01*
X1012338Y530809D01*
X1012528Y532248D01*
X1012338Y533687D01*
X1011819Y534940D01*
X1011766Y535105D01*
X1011714Y535346D01*
X1012098Y538155D01*
X1012543Y538888D01*
X1013054Y539308D01*
X1013792Y540207D01*
X1014341Y541233D01*
X1014678Y542346D01*
X1014792Y543504D01*
X1014678Y544662D01*
X1014341Y545775D01*
X1013792Y546801D01*
X1013054Y547700D01*
X1012155Y548438D01*
X1011129Y548986D01*
X1010016Y549324D01*
X1008858Y549438D01*
D02*
G37*
G36*
X885067Y533307D02*
X883628Y533118D01*
X882287Y532563D01*
X881136Y531679D01*
X880252Y530528D01*
X879697Y529187D01*
X879508Y527748D01*
X879697Y526309D01*
X880252Y524968D01*
X881136Y523817D01*
X882287Y522933D01*
X883628Y522378D01*
X885067Y522189D01*
X886506Y522378D01*
X887847Y522933D01*
X888998Y523817D01*
X889882Y524968D01*
X890437Y526309D01*
X890626Y527748D01*
X890437Y529187D01*
X889882Y530528D01*
X888998Y531679D01*
X887847Y532563D01*
X886506Y533118D01*
X885067Y533307D01*
D02*
G37*
G36*
X1027559Y521682D02*
X1026401Y521568D01*
X1025288Y521230D01*
X1024262Y520682D01*
X1023363Y519944D01*
X1022625Y519045D01*
X1022077Y518019D01*
X1021739Y516906D01*
X1021625Y515748D01*
X1021739Y514590D01*
X1022077Y513477D01*
X1022625Y512451D01*
X1023363Y511552D01*
X1024262Y510814D01*
X1025288Y510266D01*
X1026401Y509928D01*
X1027559Y509814D01*
X1028717Y509928D01*
X1029830Y510266D01*
X1030856Y510814D01*
X1031755Y511552D01*
X1032493Y512451D01*
X1033041Y513477D01*
X1033379Y514590D01*
X1033493Y515748D01*
X1033379Y516906D01*
X1033041Y518019D01*
X1032493Y519045D01*
X1031755Y519944D01*
X1030856Y520682D01*
X1029830Y521230D01*
X1028717Y521568D01*
X1027559Y521682D01*
D02*
G37*
G36*
X958409Y516910D02*
X957073Y516734D01*
X955828Y516219D01*
X954759Y515398D01*
X953939Y514329D01*
X953423Y513084D01*
X953247Y511748D01*
X953423Y510412D01*
X953939Y509167D01*
X954759Y508098D01*
X955828Y507277D01*
X957073Y506762D01*
X958409Y506586D01*
X959746Y506762D01*
X960991Y507277D01*
X962060Y508098D01*
X962880Y509167D01*
X963396Y510412D01*
X963572Y511748D01*
X963396Y513084D01*
X962880Y514329D01*
X962060Y515398D01*
X960991Y516219D01*
X959746Y516734D01*
X958409Y516910D01*
D02*
G37*
G36*
X1006968Y504807D02*
X1005630Y504631D01*
X1005441Y504622D01*
X1002480Y504760D01*
Y504760D01*
X991457D01*
Y493736D01*
X1002480D01*
X1002480Y493736D01*
X1005441Y493874D01*
X1005630Y493865D01*
X1006968Y493689D01*
X1008407Y493878D01*
X1009748Y494433D01*
X1010900Y495317D01*
X1011783Y496468D01*
X1012338Y497809D01*
X1012528Y499248D01*
X1012338Y500687D01*
X1011783Y502028D01*
X1010900Y503179D01*
X1009748Y504063D01*
X1008407Y504618D01*
X1006968Y504807D01*
D02*
G37*
G36*
X885827Y506944D02*
X884283Y506792D01*
X882799Y506341D01*
X881431Y505610D01*
X880232Y504626D01*
X879248Y503427D01*
X878517Y502059D01*
X878067Y500575D01*
X877915Y499031D01*
X878067Y497488D01*
X878517Y496004D01*
X879248Y494636D01*
X880232Y493437D01*
X881431Y492453D01*
X882799Y491722D01*
X884283Y491271D01*
X885827Y491119D01*
X887370Y491271D01*
X888855Y491722D01*
X890222Y492453D01*
X891422Y493437D01*
X892406Y494636D01*
X893137Y496004D01*
X893587Y497488D01*
X893739Y499031D01*
X893587Y500575D01*
X893137Y502059D01*
X892406Y503427D01*
X891422Y504626D01*
X890222Y505610D01*
X888855Y506341D01*
X887370Y506792D01*
X885827Y506944D01*
D02*
G37*
G36*
X1077559Y501997D02*
X1076401Y501883D01*
X1075288Y501545D01*
X1074262Y500997D01*
X1073363Y500259D01*
X1072625Y499360D01*
X1072077Y498334D01*
X1071739Y497221D01*
X1071625Y496063D01*
X1071739Y494905D01*
X1072077Y493792D01*
X1072625Y492766D01*
X1073363Y491867D01*
X1074262Y491129D01*
X1075288Y490581D01*
X1076401Y490243D01*
X1077559Y490129D01*
X1078717Y490243D01*
X1079830Y490581D01*
X1080856Y491129D01*
X1081755Y491867D01*
X1082493Y492766D01*
X1083041Y493792D01*
X1083379Y494905D01*
X1083493Y496063D01*
X1083379Y497221D01*
X1083041Y498334D01*
X1082493Y499360D01*
X1081755Y500259D01*
X1080856Y500997D01*
X1079830Y501545D01*
X1078717Y501883D01*
X1077559Y501997D01*
D02*
G37*
G36*
X1037402D02*
X1036244Y501883D01*
X1035131Y501545D01*
X1034105Y500997D01*
X1033206Y500259D01*
X1032468Y499360D01*
X1031919Y498334D01*
X1031581Y497221D01*
X1031468Y496063D01*
X1031581Y494905D01*
X1031919Y493792D01*
X1032468Y492766D01*
X1033206Y491867D01*
X1034105Y491129D01*
X1035131Y490581D01*
X1036244Y490243D01*
X1037402Y490129D01*
X1038559Y490243D01*
X1039672Y490581D01*
X1040698Y491129D01*
X1041598Y491867D01*
X1042336Y492766D01*
X1042884Y493792D01*
X1043222Y494905D01*
X1043336Y496063D01*
X1043222Y497221D01*
X1042884Y498334D01*
X1042336Y499360D01*
X1041598Y500259D01*
X1040698Y500997D01*
X1039672Y501545D01*
X1038559Y501883D01*
X1037402Y501997D01*
D02*
G37*
G36*
X847758Y493356D02*
X846408Y493223D01*
X845109Y492829D01*
X843912Y492189D01*
X842863Y491328D01*
X842002Y490279D01*
X841362Y489082D01*
X840968Y487784D01*
X840835Y486433D01*
X840968Y485082D01*
X841362Y483784D01*
X842002Y482587D01*
X842863Y481538D01*
X843912Y480677D01*
X845109Y480037D01*
X846408Y479643D01*
X847758Y479510D01*
X849109Y479643D01*
X850408Y480037D01*
X851604Y480677D01*
X852654Y481538D01*
X853515Y482587D01*
X854154Y483784D01*
X854548Y485082D01*
X854681Y486433D01*
X854548Y487784D01*
X854154Y489082D01*
X853515Y490279D01*
X852654Y491328D01*
X851604Y492189D01*
X850408Y492829D01*
X849109Y493223D01*
X847758Y493356D01*
D02*
G37*
G36*
X1048307Y479181D02*
X1046868Y478992D01*
X1045527Y478437D01*
X1044376Y477553D01*
X1042238D01*
X1041087Y478437D01*
X1039746Y478992D01*
X1038307Y479181D01*
X1036868Y478992D01*
X1035527Y478437D01*
X1034376Y477553D01*
X1033492Y476402D01*
X1032937Y475061D01*
X1032748Y473622D01*
X1032937Y472183D01*
X1033492Y470842D01*
X1034376Y469691D01*
X1035527Y468808D01*
X1036868Y468252D01*
X1038307Y468063D01*
X1039746Y468252D01*
X1041087Y468808D01*
X1042238Y469691D01*
X1044376D01*
X1045527Y468808D01*
X1046868Y468252D01*
X1048307Y468063D01*
X1049746Y468252D01*
X1051087Y468808D01*
X1052238Y469691D01*
X1053122Y470842D01*
X1053677Y472183D01*
X1053866Y473622D01*
X1053677Y475061D01*
X1053122Y476402D01*
X1052238Y477553D01*
X1051087Y478437D01*
X1049746Y478992D01*
X1048307Y479181D01*
D02*
G37*
G36*
X929134Y484181D02*
X927695Y483992D01*
X926354Y483437D01*
X925203Y482553D01*
X924319Y481402D01*
X923764Y480061D01*
X923575Y478622D01*
X923764Y477183D01*
X924319Y475842D01*
X925203Y474691D01*
X926354Y473807D01*
X927695Y473252D01*
X929134Y473063D01*
X930573Y473252D01*
X931913Y473807D01*
X933065Y474691D01*
X933948Y475842D01*
X934504Y477183D01*
X934693Y478622D01*
X934504Y480061D01*
X933948Y481402D01*
X933065Y482553D01*
X931913Y483437D01*
X930573Y483992D01*
X929134Y484181D01*
D02*
G37*
G36*
X870079Y483908D02*
X866142D01*
X865114Y483773D01*
X864156Y483376D01*
X863334Y482745D01*
X862703Y481922D01*
X862306Y480965D01*
X862171Y479937D01*
Y468126D01*
X862306Y467098D01*
X862703Y466141D01*
X863334Y465318D01*
X864156Y464687D01*
X865114Y464290D01*
X866142Y464155D01*
X870079D01*
X871107Y464290D01*
X872064Y464687D01*
X872887Y465318D01*
X873518Y466141D01*
X873914Y467098D01*
X874050Y468126D01*
Y479937D01*
X873914Y480965D01*
X873518Y481922D01*
X872887Y482745D01*
X872064Y483376D01*
X871107Y483773D01*
X870079Y483908D01*
D02*
G37*
G36*
X1000000Y484181D02*
X998561Y483992D01*
X997220Y483437D01*
X996069Y482553D01*
X995185Y481402D01*
X994630Y480061D01*
X994441Y478622D01*
X994630Y477183D01*
X995185Y475842D01*
X996069Y474691D01*
Y472553D01*
X995185Y471402D01*
X994630Y470061D01*
X994441Y468622D01*
X994630Y467183D01*
X995185Y465842D01*
X996069Y464691D01*
X997220Y463807D01*
X998561Y463252D01*
X1000000Y463063D01*
X1001439Y463252D01*
X1002780Y463807D01*
X1003931Y464691D01*
X1004815Y465842D01*
X1005370Y467183D01*
X1005559Y468622D01*
X1005370Y470061D01*
X1004815Y471402D01*
X1003931Y472553D01*
Y474691D01*
X1004815Y475842D01*
X1005370Y477183D01*
X1005559Y478622D01*
X1005370Y480061D01*
X1004815Y481402D01*
X1003931Y482553D01*
X1002780Y483437D01*
X1001439Y483992D01*
X1000000Y484181D01*
D02*
G37*
G36*
X964067Y474307D02*
X962628Y474118D01*
X961287Y473563D01*
X960136Y472679D01*
X959252Y471528D01*
X958697Y470187D01*
X958516Y468813D01*
X950422Y460719D01*
X916946D01*
X915847Y461563D01*
X914506Y462118D01*
X913067Y462307D01*
X911628Y462118D01*
X910287Y461563D01*
X909136Y460679D01*
X908252Y459528D01*
X907697Y458187D01*
X907508Y456748D01*
X907697Y455309D01*
X908252Y453968D01*
X909136Y452817D01*
X910287Y451933D01*
X911628Y451378D01*
X913067Y451189D01*
X914506Y451378D01*
X915847Y451933D01*
X916946Y452777D01*
X952067D01*
X953095Y452912D01*
X954052Y453309D01*
X954875Y453940D01*
X964132Y463197D01*
X965506Y463378D01*
X966847Y463934D01*
X967998Y464817D01*
X968882Y465968D01*
X969437Y467309D01*
X969626Y468748D01*
X969437Y470187D01*
X968882Y471528D01*
X967998Y472679D01*
X966847Y473563D01*
X965506Y474118D01*
X964067Y474307D01*
D02*
G37*
G36*
X847758Y453986D02*
X846408Y453853D01*
X845109Y453459D01*
X843912Y452819D01*
X842863Y451958D01*
X842002Y450909D01*
X841362Y449712D01*
X840968Y448414D01*
X840835Y447063D01*
X840968Y445712D01*
X841362Y444414D01*
X842002Y443217D01*
X842863Y442168D01*
X843912Y441307D01*
X845109Y440667D01*
X846408Y440273D01*
X847758Y440140D01*
X849109Y440273D01*
X850408Y440667D01*
X851604Y441307D01*
X852654Y442168D01*
X853515Y443217D01*
X854154Y444414D01*
X854548Y445712D01*
X854681Y447063D01*
X854548Y448414D01*
X854154Y449712D01*
X853515Y450909D01*
X852654Y451958D01*
X851604Y452819D01*
X850408Y453459D01*
X849109Y453853D01*
X847758Y453986D01*
D02*
G37*
G36*
X1083047Y445671D02*
X1081697Y445538D01*
X1080398Y445144D01*
X1079201Y444504D01*
X1078152Y443643D01*
X1077291Y442594D01*
X1076651Y441397D01*
X1076257Y440099D01*
X1076124Y438748D01*
X1076257Y437397D01*
X1076651Y436099D01*
X1077291Y434902D01*
X1078152Y433853D01*
X1079201Y432992D01*
X1080398Y432352D01*
X1081697Y431958D01*
X1083047Y431825D01*
X1084398Y431958D01*
X1085697Y432352D01*
X1086893Y432992D01*
X1087943Y433853D01*
X1088804Y434902D01*
X1089443Y436099D01*
X1089837Y437397D01*
X1089970Y438748D01*
X1089837Y440099D01*
X1089443Y441397D01*
X1088804Y442594D01*
X1087943Y443643D01*
X1086893Y444504D01*
X1085697Y445144D01*
X1084398Y445538D01*
X1083047Y445671D01*
D02*
G37*
G36*
X885327Y446444D02*
X883783Y446292D01*
X882299Y445841D01*
X880931Y445110D01*
X879732Y444126D01*
X878748Y442927D01*
X878017Y441559D01*
X877567Y440075D01*
X877415Y438531D01*
X877567Y436988D01*
X878017Y435504D01*
X878748Y434136D01*
X879732Y432937D01*
X880931Y431953D01*
X882299Y431222D01*
X883783Y430771D01*
X885327Y430619D01*
X886870Y430771D01*
X888355Y431222D01*
X889723Y431953D01*
X890921Y432937D01*
X891905Y434136D01*
X892637Y435504D01*
X893087Y436988D01*
X893239Y438531D01*
X893087Y440075D01*
X892637Y441559D01*
X891905Y442927D01*
X890921Y444126D01*
X889723Y445110D01*
X888355Y445841D01*
X886870Y446292D01*
X885327Y446444D01*
D02*
G37*
G36*
X1042067Y405171D02*
X1040716Y405038D01*
X1039418Y404644D01*
X1038221Y404004D01*
X1037172Y403143D01*
X1036311Y402094D01*
X1035671Y400897D01*
X1035277Y399599D01*
X1035144Y398248D01*
X1035277Y396897D01*
X1035671Y395599D01*
X1036311Y394402D01*
X1037172Y393353D01*
X1038221Y392492D01*
X1039418Y391852D01*
X1040716Y391458D01*
X1042067Y391325D01*
X1043418Y391458D01*
X1044716Y391852D01*
X1045913Y392492D01*
X1046962Y393353D01*
X1047823Y394402D01*
X1048463Y395599D01*
X1048857Y396897D01*
X1048990Y398248D01*
X1048857Y399599D01*
X1048463Y400897D01*
X1047823Y402094D01*
X1046962Y403143D01*
X1045913Y404004D01*
X1044716Y404644D01*
X1043418Y405038D01*
X1042067Y405171D01*
D02*
G37*
G36*
X1082677Y409485D02*
X1080824Y409340D01*
X1079016Y408906D01*
X1077299Y408194D01*
X1075713Y407223D01*
X1074300Y406015D01*
X1073092Y404602D01*
X1072121Y403017D01*
X1071410Y401299D01*
X1070975Y399491D01*
X1070830Y397638D01*
X1070975Y395784D01*
X1071410Y393977D01*
X1072121Y392259D01*
X1073092Y390674D01*
X1074300Y389260D01*
X1075713Y388053D01*
X1077299Y387082D01*
X1079016Y386370D01*
X1080824Y385936D01*
X1082677Y385790D01*
X1084531Y385936D01*
X1086338Y386370D01*
X1088056Y387082D01*
X1089641Y388053D01*
X1091055Y389260D01*
X1092262Y390674D01*
X1093233Y392259D01*
X1093945Y393977D01*
X1094379Y395784D01*
X1094525Y397638D01*
X1094379Y399491D01*
X1093945Y401299D01*
X1093233Y403017D01*
X1092262Y404602D01*
X1091055Y406015D01*
X1089641Y407223D01*
X1088056Y408194D01*
X1086338Y408906D01*
X1084531Y409340D01*
X1082677Y409485D01*
D02*
G37*
G36*
X846457D02*
X844603Y409340D01*
X842796Y408906D01*
X841078Y408194D01*
X839493Y407223D01*
X838079Y406015D01*
X836872Y404602D01*
X835900Y403017D01*
X835189Y401299D01*
X834755Y399491D01*
X834609Y397638D01*
X834755Y395784D01*
X835189Y393977D01*
X835900Y392259D01*
X836872Y390674D01*
X838079Y389260D01*
X839493Y388053D01*
X841078Y387082D01*
X842796Y386370D01*
X844603Y385936D01*
X846457Y385790D01*
X848310Y385936D01*
X850118Y386370D01*
X851835Y387082D01*
X853421Y388053D01*
X854834Y389260D01*
X856042Y390674D01*
X857013Y392259D01*
X857724Y393977D01*
X858158Y395784D01*
X858304Y397638D01*
X858158Y399491D01*
X857724Y401299D01*
X857013Y403017D01*
X856042Y404602D01*
X854834Y406015D01*
X853421Y407223D01*
X851835Y408194D01*
X850118Y408906D01*
X848310Y409340D01*
X846457Y409485D01*
D02*
G37*
G36*
X807087Y645706D02*
X805233Y645560D01*
X803426Y645126D01*
X801708Y644415D01*
X800123Y643443D01*
X798709Y642236D01*
X797502Y640822D01*
X796530Y639237D01*
X795819Y637519D01*
X795385Y635712D01*
X795239Y633858D01*
X795385Y632005D01*
X795819Y630197D01*
X796530Y628480D01*
X797502Y626895D01*
X798709Y625481D01*
X800123Y624273D01*
X801708Y623302D01*
X803426Y622591D01*
X805233Y622157D01*
X807087Y622011D01*
X808940Y622157D01*
X810748Y622591D01*
X812465Y623302D01*
X814050Y624273D01*
X815464Y625481D01*
X816671Y626895D01*
X817643Y628480D01*
X818354Y630197D01*
X818788Y632005D01*
X818934Y633858D01*
X818788Y635712D01*
X818354Y637519D01*
X817643Y639237D01*
X816671Y640822D01*
X815464Y642236D01*
X814050Y643443D01*
X812465Y644415D01*
X810748Y645126D01*
X808940Y645560D01*
X807087Y645706D01*
D02*
G37*
G36*
X570866D02*
X569013Y645560D01*
X567205Y645126D01*
X565487Y644415D01*
X563902Y643443D01*
X562489Y642236D01*
X561281Y640822D01*
X560310Y639237D01*
X559598Y637519D01*
X559164Y635712D01*
X559019Y633858D01*
X559164Y632005D01*
X559598Y630197D01*
X560310Y628480D01*
X561281Y626895D01*
X562489Y625481D01*
X563902Y624273D01*
X565487Y623302D01*
X567205Y622591D01*
X569013Y622157D01*
X570866Y622011D01*
X572719Y622157D01*
X574527Y622591D01*
X576245Y623302D01*
X577830Y624273D01*
X579244Y625481D01*
X580451Y626895D01*
X581422Y628480D01*
X582134Y630197D01*
X582568Y632005D01*
X582714Y633858D01*
X582568Y635712D01*
X582134Y637519D01*
X581422Y639237D01*
X580451Y640822D01*
X579244Y642236D01*
X577830Y643443D01*
X576245Y644415D01*
X574527Y645126D01*
X572719Y645560D01*
X570866Y645706D01*
D02*
G37*
G36*
X740476Y632307D02*
X739038Y632118D01*
X737697Y631563D01*
X736597Y630719D01*
X720476D01*
X719449Y630584D01*
X718491Y630187D01*
X717668Y629556D01*
X681331Y593219D01*
X614976D01*
X613949Y593084D01*
X612991Y592687D01*
X612169Y592056D01*
X596332Y576219D01*
X586357D01*
X586172Y576444D01*
X585273Y577182D01*
X584247Y577730D01*
X583134Y578068D01*
X581976Y578182D01*
X580819Y578068D01*
X579705Y577730D01*
X578680Y577182D01*
X577780Y576444D01*
X577042Y575545D01*
X576494Y574519D01*
X576156Y573406D01*
X576042Y572248D01*
X576156Y571090D01*
X576494Y569977D01*
X577042Y568951D01*
X577780Y568052D01*
X578005Y567867D01*
Y529248D01*
X578141Y528220D01*
X578537Y527263D01*
X579169Y526440D01*
X594169Y511440D01*
X594991Y510809D01*
X595949Y510412D01*
X596976Y510277D01*
X628831D01*
X646668Y492440D01*
X647491Y491809D01*
X648449Y491412D01*
X649476Y491277D01*
X695476D01*
X696504Y491412D01*
X697462Y491809D01*
X698284Y492440D01*
X701541Y495697D01*
X702915Y495878D01*
X704256Y496433D01*
X705407Y497317D01*
X706291Y498468D01*
X706846Y499809D01*
X707036Y501248D01*
X706846Y502687D01*
X706291Y504028D01*
X705407Y505179D01*
X704256Y506063D01*
X702915Y506618D01*
X701476Y506807D01*
X700037Y506618D01*
X698697Y506063D01*
X697545Y505179D01*
X696662Y504028D01*
X696106Y502687D01*
X695926Y501313D01*
X693831Y499219D01*
X651121D01*
X633284Y517056D01*
X632462Y517687D01*
X631504Y518084D01*
X630476Y518219D01*
X598621D01*
X585947Y530893D01*
Y567867D01*
X586172Y568052D01*
X586357Y568277D01*
X597976D01*
X599004Y568412D01*
X599962Y568809D01*
X600784Y569440D01*
X616621Y585277D01*
X682976D01*
X684004Y585412D01*
X684962Y585809D01*
X685784Y586440D01*
X722121Y622777D01*
X736597D01*
X737697Y621934D01*
X739038Y621378D01*
X740476Y621189D01*
X741915Y621378D01*
X743256Y621934D01*
X744407Y622817D01*
X745291Y623968D01*
X745846Y625309D01*
X746036Y626748D01*
X745846Y628187D01*
X745291Y629528D01*
X744407Y630679D01*
X743256Y631563D01*
X741915Y632118D01*
X740476Y632307D01*
D02*
G37*
G36*
X782772Y618324D02*
X781614Y618210D01*
X780501Y617872D01*
X779475Y617324D01*
X778576Y616586D01*
X777838Y615687D01*
X777289Y614661D01*
X776952Y613548D01*
X776838Y612390D01*
X776952Y611232D01*
X777289Y610119D01*
X777838Y609093D01*
X778576Y608194D01*
X779475Y607456D01*
X780501Y606907D01*
X781614Y606570D01*
X782772Y606456D01*
X783929Y606570D01*
X785042Y606907D01*
X786068Y607456D01*
X786968Y608194D01*
X787706Y609093D01*
X788254Y610119D01*
X788592Y611232D01*
X788706Y612390D01*
X788592Y613548D01*
X788254Y614661D01*
X787706Y615687D01*
X786968Y616586D01*
X786068Y617324D01*
X785042Y617872D01*
X783929Y618210D01*
X782772Y618324D01*
D02*
G37*
G36*
X757181D02*
X756023Y618210D01*
X754910Y617872D01*
X753884Y617324D01*
X752985Y616586D01*
X752247Y615687D01*
X751699Y614661D01*
X751361Y613548D01*
X751247Y612390D01*
X751361Y611232D01*
X751699Y610119D01*
X752247Y609093D01*
X752985Y608194D01*
X753884Y607456D01*
X754910Y606907D01*
X756023Y606570D01*
X757181Y606456D01*
X758339Y606570D01*
X759452Y606907D01*
X760478Y607456D01*
X761377Y608194D01*
X762115Y609093D01*
X762664Y610119D01*
X763001Y611232D01*
X763115Y612390D01*
X763001Y613548D01*
X762664Y614661D01*
X762115Y615687D01*
X761377Y616586D01*
X760478Y617324D01*
X759452Y617872D01*
X758339Y618210D01*
X757181Y618324D01*
D02*
G37*
G36*
X588976Y612807D02*
X587537Y612618D01*
X586197Y612063D01*
X585045Y611179D01*
X584162Y610028D01*
X583606Y608687D01*
X583417Y607248D01*
X583606Y605809D01*
X584162Y604468D01*
X585045Y603317D01*
Y601179D01*
X584162Y600028D01*
X583606Y598687D01*
X583417Y597248D01*
X583606Y595809D01*
X584162Y594468D01*
X585045Y593317D01*
Y591179D01*
X584162Y590028D01*
X583606Y588687D01*
X583417Y587248D01*
X583606Y585809D01*
X584162Y584468D01*
X585045Y583317D01*
X586197Y582434D01*
X587537Y581878D01*
X588976Y581689D01*
X590415Y581878D01*
X591756Y582434D01*
X592907Y583317D01*
X593791Y584468D01*
X594346Y585809D01*
X594536Y587248D01*
X594346Y588687D01*
X593791Y590028D01*
X592907Y591179D01*
Y593317D01*
X593791Y594468D01*
X594346Y595809D01*
X594536Y597248D01*
X594346Y598687D01*
X593791Y600028D01*
X592907Y601179D01*
Y603317D01*
X593791Y604468D01*
X594346Y605809D01*
X594536Y607248D01*
X594346Y608687D01*
X593791Y610028D01*
X592907Y611179D01*
X591756Y612063D01*
X590415Y612618D01*
X588976Y612807D01*
D02*
G37*
G36*
X715551Y575029D02*
X714394Y574915D01*
X713280Y574577D01*
X712254Y574028D01*
X711355Y573290D01*
X710617Y572391D01*
X710069Y571365D01*
X709731Y570252D01*
X709617Y569095D01*
X709731Y567937D01*
X710069Y566824D01*
X710617Y565798D01*
X711355Y564898D01*
X712254Y564160D01*
X713280Y563612D01*
X714394Y563274D01*
X715551Y563160D01*
X716709Y563274D01*
X717822Y563612D01*
X718848Y564160D01*
X719747Y564898D01*
X720485Y565798D01*
X721034Y566824D01*
X721371Y567937D01*
X721485Y569095D01*
X721371Y570252D01*
X721034Y571365D01*
X720485Y572391D01*
X719747Y573290D01*
X718848Y574028D01*
X717822Y574577D01*
X716709Y574915D01*
X715551Y575029D01*
D02*
G37*
G36*
X767717Y556859D02*
X766278Y556669D01*
X764937Y556114D01*
X763786Y555230D01*
X762902Y554079D01*
X762347Y552738D01*
X762157Y551299D01*
X762347Y549860D01*
X762902Y548520D01*
X763786Y547368D01*
X764937Y546485D01*
X766278Y545929D01*
X767717Y545740D01*
X769155Y545929D01*
X770496Y546485D01*
X771648Y547368D01*
X772531Y548520D01*
X773087Y549860D01*
X773276Y551299D01*
X773087Y552738D01*
X772531Y554079D01*
X771648Y555230D01*
X770496Y556114D01*
X769155Y556669D01*
X767717Y556859D01*
D02*
G37*
G36*
X616142Y569147D02*
X614288Y569001D01*
X612481Y568567D01*
X610763Y567856D01*
X609178Y566884D01*
X607764Y565677D01*
X606557Y564263D01*
X605585Y562678D01*
X604874Y560960D01*
X604440Y559153D01*
X604294Y557299D01*
X604440Y555446D01*
X604874Y553638D01*
X605585Y551921D01*
X606557Y550335D01*
X607764Y548922D01*
X609178Y547714D01*
X610763Y546743D01*
X612481Y546032D01*
X614288Y545598D01*
X616142Y545452D01*
X617995Y545598D01*
X619803Y546032D01*
X621520Y546743D01*
X623105Y547714D01*
X624519Y548922D01*
X625727Y550335D01*
X626698Y551921D01*
X627409Y553638D01*
X627843Y555446D01*
X627989Y557299D01*
X627843Y559153D01*
X627409Y560960D01*
X626698Y562678D01*
X625727Y564263D01*
X624519Y565677D01*
X623105Y566884D01*
X621520Y567856D01*
X619803Y568567D01*
X617995Y569001D01*
X616142Y569147D01*
D02*
G37*
G36*
X792476Y590219D02*
X707976D01*
X706949Y590084D01*
X705991Y589687D01*
X705168Y589056D01*
X676383Y560270D01*
X658777D01*
X658194Y561678D01*
X657223Y563263D01*
X656015Y564677D01*
X654602Y565884D01*
X653017Y566855D01*
X651299Y567567D01*
X649491Y568001D01*
X647638Y568147D01*
X645784Y568001D01*
X643977Y567567D01*
X642259Y566855D01*
X640674Y565884D01*
X639260Y564677D01*
X638053Y563263D01*
X637082Y561678D01*
X636370Y559960D01*
X635936Y558153D01*
X635790Y556299D01*
X635936Y554446D01*
X636370Y552638D01*
X637082Y550921D01*
X638053Y549335D01*
X639260Y547922D01*
X640674Y546714D01*
X642259Y545743D01*
X643977Y545031D01*
X645784Y544597D01*
X647638Y544452D01*
X649491Y544597D01*
X651299Y545031D01*
X653017Y545743D01*
X654602Y546714D01*
X656015Y547922D01*
X657223Y549335D01*
X658194Y550921D01*
X658777Y552328D01*
X678028D01*
X679055Y552464D01*
X680013Y552860D01*
X680835Y553491D01*
X709621Y582277D01*
X790832D01*
X809005Y564103D01*
Y554627D01*
X808162Y553528D01*
X807607Y552187D01*
X807417Y550748D01*
X807607Y549309D01*
X808162Y547968D01*
X809045Y546817D01*
X810197Y545933D01*
X811537Y545378D01*
X812976Y545189D01*
X814415Y545378D01*
X815756Y545933D01*
X816907Y546817D01*
X817791Y547968D01*
X818346Y549309D01*
X818536Y550748D01*
X818346Y552187D01*
X817791Y553528D01*
X816947Y554627D01*
Y565748D01*
X816812Y566776D01*
X816415Y567733D01*
X815784Y568556D01*
X795284Y589056D01*
X794462Y589687D01*
X793504Y590084D01*
X792476Y590219D01*
D02*
G37*
G36*
X715551Y549438D02*
X714394Y549324D01*
X713280Y548986D01*
X712254Y548438D01*
X711355Y547700D01*
X710617Y546801D01*
X710069Y545775D01*
X709731Y544662D01*
X709617Y543504D01*
X709731Y542346D01*
X710069Y541233D01*
X710617Y540207D01*
X711355Y539308D01*
X712254Y538570D01*
X713280Y538022D01*
X714394Y537684D01*
X715551Y537570D01*
X716709Y537684D01*
X717822Y538022D01*
X718848Y538570D01*
X719747Y539308D01*
X720485Y540207D01*
X721034Y541233D01*
X721371Y542346D01*
X721485Y543504D01*
X721371Y544662D01*
X721034Y545775D01*
X720485Y546801D01*
X719747Y547700D01*
X718848Y548438D01*
X717822Y548986D01*
X716709Y549324D01*
X715551Y549438D01*
D02*
G37*
G36*
X801968Y541367D02*
X800811Y541253D01*
X799698Y540915D01*
X798672Y540367D01*
X797773Y539629D01*
X797035Y538730D01*
X796486Y537704D01*
X796148Y536591D01*
X796034Y535433D01*
X796148Y534275D01*
X796486Y533162D01*
X797035Y532136D01*
X797773Y531237D01*
X798672Y530499D01*
X799698Y529951D01*
X800811Y529613D01*
X801968Y529499D01*
X803126Y529613D01*
X804239Y529951D01*
X805265Y530499D01*
X806164Y531237D01*
X806903Y532136D01*
X807451Y533162D01*
X807789Y534275D01*
X807903Y535433D01*
X807789Y536591D01*
X807451Y537704D01*
X806903Y538730D01*
X806164Y539629D01*
X805265Y540367D01*
X804239Y540915D01*
X803126Y541253D01*
X801968Y541367D01*
D02*
G37*
G36*
X761811D02*
X760653Y541253D01*
X759540Y540915D01*
X758514Y540367D01*
X757615Y539629D01*
X756877Y538730D01*
X756329Y537704D01*
X755991Y536591D01*
X755877Y535433D01*
X755991Y534275D01*
X756329Y533162D01*
X756877Y532136D01*
X757615Y531237D01*
X758514Y530499D01*
X759540Y529951D01*
X760653Y529613D01*
X761811Y529499D01*
X762969Y529613D01*
X764082Y529951D01*
X765108Y530499D01*
X766007Y531237D01*
X766745Y532136D01*
X767293Y533162D01*
X767631Y534275D01*
X767745Y535433D01*
X767631Y536591D01*
X767293Y537704D01*
X766745Y538730D01*
X766007Y539629D01*
X765108Y540367D01*
X764082Y540915D01*
X762969Y541253D01*
X761811Y541367D01*
D02*
G37*
G36*
X733268Y549438D02*
X732110Y549324D01*
X730997Y548986D01*
X729971Y548438D01*
X729072Y547700D01*
X728334Y546801D01*
X727785Y545775D01*
X727448Y544662D01*
X727334Y543504D01*
X727448Y542346D01*
X727785Y541233D01*
X728266Y540334D01*
X728339Y540139D01*
X728393Y539497D01*
X728063Y537159D01*
X727691Y536367D01*
X727447Y536179D01*
X726563Y535028D01*
X726008Y533687D01*
X725819Y532248D01*
X726008Y530809D01*
X726563Y529468D01*
X727447Y528317D01*
X728598Y527433D01*
X729939Y526878D01*
X731378Y526689D01*
X732817Y526878D01*
X734158Y527433D01*
X735309Y528317D01*
X736193Y529468D01*
X736748Y530809D01*
X736937Y532248D01*
X736748Y533687D01*
X736229Y534940D01*
X736176Y535105D01*
X736123Y535346D01*
X736508Y538155D01*
X736952Y538888D01*
X737464Y539308D01*
X738202Y540207D01*
X738750Y541233D01*
X739088Y542346D01*
X739202Y543504D01*
X739088Y544662D01*
X738750Y545775D01*
X738202Y546801D01*
X737464Y547700D01*
X736564Y548438D01*
X735539Y548986D01*
X734425Y549324D01*
X733268Y549438D01*
D02*
G37*
G36*
X609476Y533307D02*
X608038Y533118D01*
X606697Y532563D01*
X605545Y531679D01*
X604662Y530528D01*
X604107Y529187D01*
X603917Y527748D01*
X604107Y526309D01*
X604662Y524968D01*
X605545Y523817D01*
X606697Y522933D01*
X608038Y522378D01*
X609476Y522189D01*
X610915Y522378D01*
X612256Y522933D01*
X613407Y523817D01*
X614291Y524968D01*
X614846Y526309D01*
X615036Y527748D01*
X614846Y529187D01*
X614291Y530528D01*
X613407Y531679D01*
X612256Y532563D01*
X610915Y533118D01*
X609476Y533307D01*
D02*
G37*
G36*
X751968Y521682D02*
X750811Y521568D01*
X749698Y521230D01*
X748672Y520682D01*
X747773Y519944D01*
X747035Y519045D01*
X746486Y518019D01*
X746148Y516906D01*
X746034Y515748D01*
X746148Y514590D01*
X746486Y513477D01*
X747035Y512451D01*
X747773Y511552D01*
X748672Y510814D01*
X749698Y510266D01*
X750811Y509928D01*
X751968Y509814D01*
X753126Y509928D01*
X754239Y510266D01*
X755265Y510814D01*
X756165Y511552D01*
X756903Y512451D01*
X757451Y513477D01*
X757789Y514590D01*
X757903Y515748D01*
X757789Y516906D01*
X757451Y518019D01*
X756903Y519045D01*
X756165Y519944D01*
X755265Y520682D01*
X754239Y521230D01*
X753126Y521568D01*
X751968Y521682D01*
D02*
G37*
G36*
X682819Y516910D02*
X681483Y516734D01*
X680238Y516219D01*
X679169Y515398D01*
X678348Y514329D01*
X677833Y513084D01*
X677657Y511748D01*
X677833Y510412D01*
X678348Y509167D01*
X679169Y508098D01*
X680238Y507277D01*
X681483Y506762D01*
X682819Y506586D01*
X684155Y506762D01*
X685400Y507277D01*
X686469Y508098D01*
X687289Y509167D01*
X687805Y510412D01*
X687981Y511748D01*
X687805Y513084D01*
X687289Y514329D01*
X686469Y515398D01*
X685400Y516219D01*
X684155Y516734D01*
X682819Y516910D01*
D02*
G37*
G36*
X731378Y504807D02*
X730039Y504631D01*
X729850Y504622D01*
X726890Y504760D01*
Y504760D01*
X715866D01*
Y493736D01*
X726890D01*
X726890Y493736D01*
X729850Y493874D01*
X730039Y493865D01*
X731378Y493689D01*
X732817Y493878D01*
X734158Y494433D01*
X735309Y495317D01*
X736193Y496468D01*
X736748Y497809D01*
X736937Y499248D01*
X736748Y500687D01*
X736193Y502028D01*
X735309Y503179D01*
X734158Y504063D01*
X732817Y504618D01*
X731378Y504807D01*
D02*
G37*
G36*
X610236Y506944D02*
X608693Y506792D01*
X607208Y506341D01*
X605840Y505610D01*
X604641Y504626D01*
X603657Y503427D01*
X602926Y502059D01*
X602476Y500575D01*
X602324Y499031D01*
X602476Y497488D01*
X602926Y496004D01*
X603657Y494636D01*
X604641Y493437D01*
X605840Y492453D01*
X607208Y491722D01*
X608693Y491271D01*
X610236Y491119D01*
X611780Y491271D01*
X613264Y491722D01*
X614632Y492453D01*
X615831Y493437D01*
X616815Y494636D01*
X617546Y496004D01*
X617996Y497488D01*
X618148Y499031D01*
X617996Y500575D01*
X617546Y502059D01*
X616815Y503427D01*
X615831Y504626D01*
X614632Y505610D01*
X613264Y506341D01*
X611780Y506792D01*
X610236Y506944D01*
D02*
G37*
G36*
X801968Y501997D02*
X800811Y501883D01*
X799698Y501545D01*
X798672Y500997D01*
X797773Y500259D01*
X797035Y499360D01*
X796486Y498334D01*
X796148Y497221D01*
X796034Y496063D01*
X796148Y494905D01*
X796486Y493792D01*
X797035Y492766D01*
X797773Y491867D01*
X798672Y491129D01*
X799698Y490581D01*
X800811Y490243D01*
X801968Y490129D01*
X803126Y490243D01*
X804239Y490581D01*
X805265Y491129D01*
X806164Y491867D01*
X806903Y492766D01*
X807451Y493792D01*
X807789Y494905D01*
X807903Y496063D01*
X807789Y497221D01*
X807451Y498334D01*
X806903Y499360D01*
X806164Y500259D01*
X805265Y500997D01*
X804239Y501545D01*
X803126Y501883D01*
X801968Y501997D01*
D02*
G37*
G36*
X761811D02*
X760653Y501883D01*
X759540Y501545D01*
X758514Y500997D01*
X757615Y500259D01*
X756877Y499360D01*
X756329Y498334D01*
X755991Y497221D01*
X755877Y496063D01*
X755991Y494905D01*
X756329Y493792D01*
X756877Y492766D01*
X757615Y491867D01*
X758514Y491129D01*
X759540Y490581D01*
X760653Y490243D01*
X761811Y490129D01*
X762969Y490243D01*
X764082Y490581D01*
X765108Y491129D01*
X766007Y491867D01*
X766745Y492766D01*
X767293Y493792D01*
X767631Y494905D01*
X767745Y496063D01*
X767631Y497221D01*
X767293Y498334D01*
X766745Y499360D01*
X766007Y500259D01*
X765108Y500997D01*
X764082Y501545D01*
X762969Y501883D01*
X761811Y501997D01*
D02*
G37*
G36*
X572168Y493356D02*
X570817Y493223D01*
X569518Y492829D01*
X568321Y492189D01*
X567272Y491328D01*
X566411Y490279D01*
X565772Y489082D01*
X565378Y487784D01*
X565245Y486433D01*
X565378Y485082D01*
X565772Y483784D01*
X566411Y482587D01*
X567272Y481538D01*
X568321Y480677D01*
X569518Y480037D01*
X570817Y479643D01*
X572168Y479510D01*
X573518Y479643D01*
X574817Y480037D01*
X576014Y480677D01*
X577063Y481538D01*
X577924Y482587D01*
X578564Y483784D01*
X578958Y485082D01*
X579091Y486433D01*
X578958Y487784D01*
X578564Y489082D01*
X577924Y490279D01*
X577063Y491328D01*
X576014Y492189D01*
X574817Y492829D01*
X573518Y493223D01*
X572168Y493356D01*
D02*
G37*
G36*
X772717Y479181D02*
X771278Y478992D01*
X769937Y478437D01*
X768785Y477553D01*
X766648D01*
X765496Y478437D01*
X764155Y478992D01*
X762716Y479181D01*
X761278Y478992D01*
X759937Y478437D01*
X758785Y477553D01*
X757902Y476402D01*
X757347Y475061D01*
X757157Y473622D01*
X757347Y472183D01*
X757902Y470842D01*
X758785Y469691D01*
X759937Y468808D01*
X761278Y468252D01*
X762716Y468063D01*
X764155Y468252D01*
X765496Y468808D01*
X766648Y469691D01*
X768785D01*
X769937Y468808D01*
X771278Y468252D01*
X772717Y468063D01*
X774155Y468252D01*
X775496Y468808D01*
X776648Y469691D01*
X777531Y470842D01*
X778087Y472183D01*
X778276Y473622D01*
X778087Y475061D01*
X777531Y476402D01*
X776648Y477553D01*
X775496Y478437D01*
X774155Y478992D01*
X772717Y479181D01*
D02*
G37*
G36*
X653543Y484181D02*
X652104Y483992D01*
X650764Y483437D01*
X649612Y482553D01*
X648729Y481402D01*
X648173Y480061D01*
X647984Y478622D01*
X648173Y477183D01*
X648729Y475842D01*
X649612Y474691D01*
X650764Y473807D01*
X652104Y473252D01*
X653543Y473063D01*
X654982Y473252D01*
X656323Y473807D01*
X657474Y474691D01*
X658358Y475842D01*
X658913Y477183D01*
X659103Y478622D01*
X658913Y480061D01*
X658358Y481402D01*
X657474Y482553D01*
X656323Y483437D01*
X654982Y483992D01*
X653543Y484181D01*
D02*
G37*
G36*
X594488Y483908D02*
X590551D01*
X589523Y483773D01*
X588566Y483376D01*
X587743Y482745D01*
X587112Y481922D01*
X586716Y480965D01*
X586580Y479937D01*
Y468126D01*
X586716Y467098D01*
X587112Y466141D01*
X587743Y465318D01*
X588566Y464687D01*
X589523Y464290D01*
X590551Y464155D01*
X594488D01*
X595516Y464290D01*
X596474Y464687D01*
X597296Y465318D01*
X597927Y466141D01*
X598324Y467098D01*
X598459Y468126D01*
Y479937D01*
X598324Y480965D01*
X597927Y481922D01*
X597296Y482745D01*
X596474Y483376D01*
X595516Y483773D01*
X594488Y483908D01*
D02*
G37*
G36*
X724409Y484181D02*
X722971Y483992D01*
X721630Y483437D01*
X720478Y482553D01*
X719595Y481402D01*
X719039Y480061D01*
X718850Y478622D01*
X719039Y477183D01*
X719595Y475842D01*
X720478Y474691D01*
Y472553D01*
X719595Y471402D01*
X719039Y470061D01*
X718850Y468622D01*
X719039Y467183D01*
X719595Y465842D01*
X720478Y464691D01*
X721630Y463807D01*
X722971Y463252D01*
X724409Y463063D01*
X725848Y463252D01*
X727189Y463807D01*
X728340Y464691D01*
X729224Y465842D01*
X729779Y467183D01*
X729969Y468622D01*
X729779Y470061D01*
X729224Y471402D01*
X728340Y472553D01*
Y474691D01*
X729224Y475842D01*
X729779Y477183D01*
X729969Y478622D01*
X729779Y480061D01*
X729224Y481402D01*
X728340Y482553D01*
X727189Y483437D01*
X725848Y483992D01*
X724409Y484181D01*
D02*
G37*
G36*
X688476Y474307D02*
X687038Y474118D01*
X685697Y473563D01*
X684545Y472679D01*
X683662Y471528D01*
X683107Y470187D01*
X682926Y468813D01*
X674831Y460719D01*
X641355D01*
X640256Y461563D01*
X638915Y462118D01*
X637476Y462307D01*
X636037Y462118D01*
X634697Y461563D01*
X633545Y460679D01*
X632662Y459528D01*
X632106Y458187D01*
X631917Y456748D01*
X632106Y455309D01*
X632662Y453968D01*
X633545Y452817D01*
X634697Y451933D01*
X636037Y451378D01*
X637476Y451189D01*
X638915Y451378D01*
X640256Y451933D01*
X641355Y452777D01*
X676476D01*
X677504Y452912D01*
X678462Y453309D01*
X679284Y453940D01*
X688541Y463197D01*
X689915Y463378D01*
X691256Y463934D01*
X692407Y464817D01*
X693291Y465968D01*
X693846Y467309D01*
X694036Y468748D01*
X693846Y470187D01*
X693291Y471528D01*
X692407Y472679D01*
X691256Y473563D01*
X689915Y474118D01*
X688476Y474307D01*
D02*
G37*
G36*
X572168Y453986D02*
X570817Y453853D01*
X569518Y453459D01*
X568321Y452819D01*
X567272Y451958D01*
X566411Y450909D01*
X565772Y449712D01*
X565378Y448414D01*
X565245Y447063D01*
X565378Y445712D01*
X565772Y444414D01*
X566411Y443217D01*
X567272Y442168D01*
X568321Y441307D01*
X569518Y440667D01*
X570817Y440273D01*
X572168Y440140D01*
X573518Y440273D01*
X574817Y440667D01*
X576014Y441307D01*
X577063Y442168D01*
X577924Y443217D01*
X578564Y444414D01*
X578958Y445712D01*
X579091Y447063D01*
X578958Y448414D01*
X578564Y449712D01*
X577924Y450909D01*
X577063Y451958D01*
X576014Y452819D01*
X574817Y453459D01*
X573518Y453853D01*
X572168Y453986D01*
D02*
G37*
G36*
X807457Y445671D02*
X806106Y445538D01*
X804807Y445144D01*
X803610Y444504D01*
X802561Y443643D01*
X801700Y442594D01*
X801061Y441397D01*
X800667Y440099D01*
X800534Y438748D01*
X800667Y437397D01*
X801061Y436099D01*
X801700Y434902D01*
X802561Y433853D01*
X803610Y432992D01*
X804807Y432352D01*
X806106Y431958D01*
X807457Y431825D01*
X808807Y431958D01*
X810106Y432352D01*
X811303Y432992D01*
X812352Y433853D01*
X813213Y434902D01*
X813853Y436099D01*
X814247Y437397D01*
X814380Y438748D01*
X814247Y440099D01*
X813853Y441397D01*
X813213Y442594D01*
X812352Y443643D01*
X811303Y444504D01*
X810106Y445144D01*
X808807Y445538D01*
X807457Y445671D01*
D02*
G37*
G36*
X609736Y446444D02*
X608193Y446292D01*
X606708Y445841D01*
X605340Y445110D01*
X604142Y444126D01*
X603158Y442927D01*
X602426Y441559D01*
X601976Y440075D01*
X601824Y438531D01*
X601976Y436988D01*
X602426Y435504D01*
X603158Y434136D01*
X604142Y432937D01*
X605340Y431953D01*
X606708Y431222D01*
X608193Y430771D01*
X609736Y430619D01*
X611280Y430771D01*
X612764Y431222D01*
X614132Y431953D01*
X615331Y432937D01*
X616315Y434136D01*
X617046Y435504D01*
X617496Y436988D01*
X617648Y438531D01*
X617496Y440075D01*
X617046Y441559D01*
X616315Y442927D01*
X615331Y444126D01*
X614132Y445110D01*
X612764Y445841D01*
X611280Y446292D01*
X609736Y446444D01*
D02*
G37*
G36*
X766476Y405171D02*
X765126Y405038D01*
X763827Y404644D01*
X762630Y404004D01*
X761581Y403143D01*
X760720Y402094D01*
X760080Y400897D01*
X759686Y399599D01*
X759553Y398248D01*
X759686Y396897D01*
X760080Y395599D01*
X760720Y394402D01*
X761581Y393353D01*
X762630Y392492D01*
X763827Y391852D01*
X765126Y391458D01*
X766476Y391325D01*
X767827Y391458D01*
X769126Y391852D01*
X770323Y392492D01*
X771372Y393353D01*
X772233Y394402D01*
X772872Y395599D01*
X773266Y396897D01*
X773399Y398248D01*
X773266Y399599D01*
X772872Y400897D01*
X772233Y402094D01*
X771372Y403143D01*
X770323Y404004D01*
X769126Y404644D01*
X767827Y405038D01*
X766476Y405171D01*
D02*
G37*
G36*
X807087Y409485D02*
X805233Y409340D01*
X803426Y408906D01*
X801708Y408194D01*
X800123Y407223D01*
X798709Y406015D01*
X797502Y404602D01*
X796530Y403017D01*
X795819Y401299D01*
X795385Y399491D01*
X795239Y397638D01*
X795385Y395784D01*
X795819Y393977D01*
X796530Y392259D01*
X797502Y390674D01*
X798709Y389260D01*
X800123Y388053D01*
X801708Y387082D01*
X803426Y386370D01*
X805233Y385936D01*
X807087Y385790D01*
X808940Y385936D01*
X810748Y386370D01*
X812465Y387082D01*
X814050Y388053D01*
X815464Y389260D01*
X816671Y390674D01*
X817643Y392259D01*
X818354Y393977D01*
X818788Y395784D01*
X818934Y397638D01*
X818788Y399491D01*
X818354Y401299D01*
X817643Y403017D01*
X816671Y404602D01*
X815464Y406015D01*
X814050Y407223D01*
X812465Y408194D01*
X810748Y408906D01*
X808940Y409340D01*
X807087Y409485D01*
D02*
G37*
G36*
X570866D02*
X569013Y409340D01*
X567205Y408906D01*
X565487Y408194D01*
X563902Y407223D01*
X562489Y406015D01*
X561281Y404602D01*
X560310Y403017D01*
X559598Y401299D01*
X559164Y399491D01*
X559019Y397638D01*
X559164Y395784D01*
X559598Y393977D01*
X560310Y392259D01*
X561281Y390674D01*
X562489Y389260D01*
X563902Y388053D01*
X565487Y387082D01*
X567205Y386370D01*
X569013Y385936D01*
X570866Y385790D01*
X572719Y385936D01*
X574527Y386370D01*
X576245Y387082D01*
X577830Y388053D01*
X579244Y389260D01*
X580451Y390674D01*
X581422Y392259D01*
X582134Y393977D01*
X582568Y395784D01*
X582714Y397638D01*
X582568Y399491D01*
X582134Y401299D01*
X581422Y403017D01*
X580451Y404602D01*
X579244Y406015D01*
X577830Y407223D01*
X576245Y408194D01*
X574527Y408906D01*
X572719Y409340D01*
X570866Y409485D01*
D02*
G37*
G36*
X531496Y645706D02*
X529643Y645560D01*
X527835Y645126D01*
X526117Y644415D01*
X524532Y643443D01*
X523119Y642236D01*
X521911Y640822D01*
X520940Y639237D01*
X520228Y637519D01*
X519794Y635712D01*
X519649Y633858D01*
X519794Y632005D01*
X520228Y630197D01*
X520940Y628480D01*
X521911Y626895D01*
X523119Y625481D01*
X524532Y624273D01*
X526117Y623302D01*
X527835Y622591D01*
X529643Y622157D01*
X531496Y622011D01*
X533349Y622157D01*
X535157Y622591D01*
X536875Y623302D01*
X538460Y624273D01*
X539874Y625481D01*
X541081Y626895D01*
X542052Y628480D01*
X542764Y630197D01*
X543198Y632005D01*
X543344Y633858D01*
X543198Y635712D01*
X542764Y637519D01*
X542052Y639237D01*
X541081Y640822D01*
X539874Y642236D01*
X538460Y643443D01*
X536875Y644415D01*
X535157Y645126D01*
X533349Y645560D01*
X531496Y645706D01*
D02*
G37*
G36*
X295276D02*
X293422Y645560D01*
X291615Y645126D01*
X289897Y644415D01*
X288312Y643443D01*
X286898Y642236D01*
X285691Y640822D01*
X284719Y639237D01*
X284008Y637519D01*
X283574Y635712D01*
X283428Y633858D01*
X283574Y632005D01*
X284008Y630197D01*
X284719Y628480D01*
X285691Y626895D01*
X286898Y625481D01*
X288312Y624273D01*
X289897Y623302D01*
X291615Y622591D01*
X293422Y622157D01*
X295276Y622011D01*
X297129Y622157D01*
X298937Y622591D01*
X300654Y623302D01*
X302239Y624273D01*
X303653Y625481D01*
X304860Y626895D01*
X305832Y628480D01*
X306543Y630197D01*
X306977Y632005D01*
X307123Y633858D01*
X306977Y635712D01*
X306543Y637519D01*
X305832Y639237D01*
X304860Y640822D01*
X303653Y642236D01*
X302239Y643443D01*
X300654Y644415D01*
X298937Y645126D01*
X297129Y645560D01*
X295276Y645706D01*
D02*
G37*
G36*
X464886Y632307D02*
X463447Y632118D01*
X462106Y631563D01*
X461007Y630719D01*
X444886D01*
X443858Y630584D01*
X442900Y630187D01*
X442078Y629556D01*
X405741Y593219D01*
X339386D01*
X338358Y593084D01*
X337400Y592687D01*
X336578Y592056D01*
X320741Y576219D01*
X310767D01*
X310582Y576444D01*
X309683Y577182D01*
X308657Y577730D01*
X307543Y578068D01*
X306386Y578182D01*
X305228Y578068D01*
X304115Y577730D01*
X303089Y577182D01*
X302190Y576444D01*
X301452Y575545D01*
X300904Y574519D01*
X300566Y573406D01*
X300452Y572248D01*
X300566Y571090D01*
X300904Y569977D01*
X301452Y568951D01*
X302190Y568052D01*
X302415Y567867D01*
Y529248D01*
X302550Y528220D01*
X302947Y527263D01*
X303578Y526440D01*
X318578Y511440D01*
X319400Y510809D01*
X320358Y510412D01*
X321386Y510277D01*
X353241D01*
X371078Y492440D01*
X371900Y491809D01*
X372858Y491412D01*
X373886Y491277D01*
X419886D01*
X420914Y491412D01*
X421871Y491809D01*
X422694Y492440D01*
X425951Y495697D01*
X427325Y495878D01*
X428665Y496433D01*
X429817Y497317D01*
X430700Y498468D01*
X431256Y499809D01*
X431445Y501248D01*
X431256Y502687D01*
X430700Y504028D01*
X429817Y505179D01*
X428665Y506063D01*
X427325Y506618D01*
X425886Y506807D01*
X424447Y506618D01*
X423106Y506063D01*
X421955Y505179D01*
X421071Y504028D01*
X420516Y502687D01*
X420335Y501313D01*
X418241Y499219D01*
X375531D01*
X357694Y517056D01*
X356871Y517687D01*
X355914Y518084D01*
X354886Y518219D01*
X323031D01*
X310357Y530893D01*
Y567867D01*
X310582Y568052D01*
X310767Y568277D01*
X322386D01*
X323414Y568412D01*
X324371Y568809D01*
X325194Y569440D01*
X341031Y585277D01*
X407386D01*
X408414Y585412D01*
X409371Y585809D01*
X410194Y586440D01*
X446531Y622777D01*
X461007D01*
X462106Y621934D01*
X463447Y621378D01*
X464886Y621189D01*
X466325Y621378D01*
X467665Y621934D01*
X468817Y622817D01*
X469700Y623968D01*
X470256Y625309D01*
X470445Y626748D01*
X470256Y628187D01*
X469700Y629528D01*
X468817Y630679D01*
X467665Y631563D01*
X466325Y632118D01*
X464886Y632307D01*
D02*
G37*
G36*
X507181Y618324D02*
X506023Y618210D01*
X504910Y617872D01*
X503884Y617324D01*
X502985Y616586D01*
X502247Y615687D01*
X501699Y614661D01*
X501361Y613548D01*
X501247Y612390D01*
X501361Y611232D01*
X501699Y610119D01*
X502247Y609093D01*
X502985Y608194D01*
X503884Y607456D01*
X504910Y606907D01*
X506023Y606570D01*
X507181Y606456D01*
X508339Y606570D01*
X509452Y606907D01*
X510478Y607456D01*
X511377Y608194D01*
X512115Y609093D01*
X512664Y610119D01*
X513001Y611232D01*
X513115Y612390D01*
X513001Y613548D01*
X512664Y614661D01*
X512115Y615687D01*
X511377Y616586D01*
X510478Y617324D01*
X509452Y617872D01*
X508339Y618210D01*
X507181Y618324D01*
D02*
G37*
G36*
X481591D02*
X480433Y618210D01*
X479320Y617872D01*
X478294Y617324D01*
X477394Y616586D01*
X476656Y615687D01*
X476108Y614661D01*
X475771Y613548D01*
X475657Y612390D01*
X475771Y611232D01*
X476108Y610119D01*
X476656Y609093D01*
X477394Y608194D01*
X478294Y607456D01*
X479320Y606907D01*
X480433Y606570D01*
X481591Y606456D01*
X482748Y606570D01*
X483861Y606907D01*
X484887Y607456D01*
X485787Y608194D01*
X486525Y609093D01*
X487073Y610119D01*
X487411Y611232D01*
X487525Y612390D01*
X487411Y613548D01*
X487073Y614661D01*
X486525Y615687D01*
X485787Y616586D01*
X484887Y617324D01*
X483861Y617872D01*
X482748Y618210D01*
X481591Y618324D01*
D02*
G37*
G36*
X313386Y612807D02*
X311947Y612618D01*
X310606Y612063D01*
X309455Y611179D01*
X308571Y610028D01*
X308016Y608687D01*
X307826Y607248D01*
X308016Y605809D01*
X308571Y604468D01*
X309455Y603317D01*
Y601179D01*
X308571Y600028D01*
X308016Y598687D01*
X307826Y597248D01*
X308016Y595809D01*
X308571Y594468D01*
X309455Y593317D01*
Y591179D01*
X308571Y590028D01*
X308016Y588687D01*
X307826Y587248D01*
X308016Y585809D01*
X308571Y584468D01*
X309455Y583317D01*
X310606Y582434D01*
X311947Y581878D01*
X313386Y581689D01*
X314825Y581878D01*
X316165Y582434D01*
X317317Y583317D01*
X318200Y584468D01*
X318756Y585809D01*
X318945Y587248D01*
X318756Y588687D01*
X318200Y590028D01*
X317317Y591179D01*
Y593317D01*
X318200Y594468D01*
X318756Y595809D01*
X318945Y597248D01*
X318756Y598687D01*
X318200Y600028D01*
X317317Y601179D01*
Y603317D01*
X318200Y604468D01*
X318756Y605809D01*
X318945Y607248D01*
X318756Y608687D01*
X318200Y610028D01*
X317317Y611179D01*
X316165Y612063D01*
X314825Y612618D01*
X313386Y612807D01*
D02*
G37*
G36*
X439961Y575029D02*
X438803Y574915D01*
X437690Y574577D01*
X436664Y574028D01*
X435765Y573290D01*
X435027Y572391D01*
X434478Y571365D01*
X434141Y570252D01*
X434027Y569095D01*
X434141Y567937D01*
X434478Y566824D01*
X435027Y565798D01*
X435765Y564898D01*
X436664Y564160D01*
X437690Y563612D01*
X438803Y563274D01*
X439961Y563160D01*
X441118Y563274D01*
X442232Y563612D01*
X443257Y564160D01*
X444157Y564898D01*
X444895Y565798D01*
X445443Y566824D01*
X445781Y567937D01*
X445895Y569095D01*
X445781Y570252D01*
X445443Y571365D01*
X444895Y572391D01*
X444157Y573290D01*
X443257Y574028D01*
X442232Y574577D01*
X441118Y574915D01*
X439961Y575029D01*
D02*
G37*
G36*
X492126Y556859D02*
X490687Y556669D01*
X489346Y556114D01*
X488195Y555230D01*
X487311Y554079D01*
X486756Y552738D01*
X486567Y551299D01*
X486756Y549860D01*
X487311Y548520D01*
X488195Y547368D01*
X489346Y546485D01*
X490687Y545929D01*
X492126Y545740D01*
X493565Y545929D01*
X494906Y546485D01*
X496057Y547368D01*
X496941Y548520D01*
X497496Y549860D01*
X497685Y551299D01*
X497496Y552738D01*
X496941Y554079D01*
X496057Y555230D01*
X494906Y556114D01*
X493565Y556669D01*
X492126Y556859D01*
D02*
G37*
G36*
X340551Y569147D02*
X338698Y569001D01*
X336890Y568567D01*
X335173Y567856D01*
X333587Y566884D01*
X332174Y565677D01*
X330966Y564263D01*
X329995Y562678D01*
X329283Y560960D01*
X328850Y559153D01*
X328704Y557299D01*
X328850Y555446D01*
X329283Y553638D01*
X329995Y551921D01*
X330966Y550335D01*
X332174Y548922D01*
X333587Y547714D01*
X335173Y546743D01*
X336890Y546032D01*
X338698Y545598D01*
X340551Y545452D01*
X342405Y545598D01*
X344212Y546032D01*
X345930Y546743D01*
X347515Y547714D01*
X348929Y548922D01*
X350136Y550335D01*
X351107Y551921D01*
X351819Y553638D01*
X352253Y555446D01*
X352399Y557299D01*
X352253Y559153D01*
X351819Y560960D01*
X351107Y562678D01*
X350136Y564263D01*
X348929Y565677D01*
X347515Y566884D01*
X345930Y567856D01*
X344212Y568567D01*
X342405Y569001D01*
X340551Y569147D01*
D02*
G37*
G36*
X516886Y590219D02*
X432386D01*
X431358Y590084D01*
X430400Y589687D01*
X429578Y589056D01*
X400792Y560270D01*
X383187D01*
X382604Y561678D01*
X381632Y563263D01*
X380425Y564677D01*
X379011Y565884D01*
X377426Y566855D01*
X375708Y567567D01*
X373901Y568001D01*
X372047Y568147D01*
X370194Y568001D01*
X368386Y567567D01*
X366669Y566855D01*
X365083Y565884D01*
X363670Y564677D01*
X362462Y563263D01*
X361491Y561678D01*
X360780Y559960D01*
X360346Y558153D01*
X360200Y556299D01*
X360346Y554446D01*
X360780Y552638D01*
X361491Y550921D01*
X362462Y549335D01*
X363670Y547922D01*
X365083Y546714D01*
X366669Y545743D01*
X368386Y545031D01*
X370194Y544597D01*
X372047Y544452D01*
X373901Y544597D01*
X375708Y545031D01*
X377426Y545743D01*
X379011Y546714D01*
X380425Y547922D01*
X381632Y549335D01*
X382604Y550921D01*
X383187Y552328D01*
X402437D01*
X403465Y552464D01*
X404423Y552860D01*
X405245Y553491D01*
X434031Y582277D01*
X515241D01*
X533415Y564103D01*
Y554627D01*
X532571Y553528D01*
X532016Y552187D01*
X531826Y550748D01*
X532016Y549309D01*
X532571Y547968D01*
X533455Y546817D01*
X534606Y545933D01*
X535947Y545378D01*
X537386Y545189D01*
X538825Y545378D01*
X540166Y545933D01*
X541317Y546817D01*
X542200Y547968D01*
X542756Y549309D01*
X542945Y550748D01*
X542756Y552187D01*
X542200Y553528D01*
X541357Y554627D01*
Y565748D01*
X541222Y566776D01*
X540825Y567733D01*
X540194Y568556D01*
X519694Y589056D01*
X518871Y589687D01*
X517914Y590084D01*
X516886Y590219D01*
D02*
G37*
G36*
X439961Y549438D02*
X438803Y549324D01*
X437690Y548986D01*
X436664Y548438D01*
X435765Y547700D01*
X435027Y546801D01*
X434478Y545775D01*
X434141Y544662D01*
X434027Y543504D01*
X434141Y542346D01*
X434478Y541233D01*
X435027Y540207D01*
X435765Y539308D01*
X436664Y538570D01*
X437690Y538022D01*
X438803Y537684D01*
X439961Y537570D01*
X441118Y537684D01*
X442232Y538022D01*
X443257Y538570D01*
X444157Y539308D01*
X444895Y540207D01*
X445443Y541233D01*
X445781Y542346D01*
X445895Y543504D01*
X445781Y544662D01*
X445443Y545775D01*
X444895Y546801D01*
X444157Y547700D01*
X443257Y548438D01*
X442232Y548986D01*
X441118Y549324D01*
X439961Y549438D01*
D02*
G37*
G36*
X526378Y541367D02*
X525220Y541253D01*
X524107Y540915D01*
X523081Y540367D01*
X522182Y539629D01*
X521444Y538730D01*
X520896Y537704D01*
X520558Y536591D01*
X520444Y535433D01*
X520558Y534275D01*
X520896Y533162D01*
X521444Y532136D01*
X522182Y531237D01*
X523081Y530499D01*
X524107Y529951D01*
X525220Y529613D01*
X526378Y529499D01*
X527536Y529613D01*
X528649Y529951D01*
X529675Y530499D01*
X530574Y531237D01*
X531312Y532136D01*
X531860Y533162D01*
X532198Y534275D01*
X532312Y535433D01*
X532198Y536591D01*
X531860Y537704D01*
X531312Y538730D01*
X530574Y539629D01*
X529675Y540367D01*
X528649Y540915D01*
X527536Y541253D01*
X526378Y541367D01*
D02*
G37*
G36*
X486221D02*
X485063Y541253D01*
X483950Y540915D01*
X482924Y540367D01*
X482024Y539629D01*
X481286Y538730D01*
X480738Y537704D01*
X480400Y536591D01*
X480286Y535433D01*
X480400Y534275D01*
X480738Y533162D01*
X481286Y532136D01*
X482024Y531237D01*
X482924Y530499D01*
X483950Y529951D01*
X485063Y529613D01*
X486221Y529499D01*
X487378Y529613D01*
X488491Y529951D01*
X489517Y530499D01*
X490416Y531237D01*
X491154Y532136D01*
X491703Y533162D01*
X492040Y534275D01*
X492155Y535433D01*
X492040Y536591D01*
X491703Y537704D01*
X491154Y538730D01*
X490416Y539629D01*
X489517Y540367D01*
X488491Y540915D01*
X487378Y541253D01*
X486221Y541367D01*
D02*
G37*
G36*
X457677Y549438D02*
X456520Y549324D01*
X455406Y548986D01*
X454380Y548438D01*
X453481Y547700D01*
X452743Y546801D01*
X452195Y545775D01*
X451857Y544662D01*
X451743Y543504D01*
X451857Y542346D01*
X452195Y541233D01*
X452675Y540334D01*
X452749Y540139D01*
X452803Y539497D01*
X452473Y537159D01*
X452101Y536367D01*
X451856Y536179D01*
X450973Y535028D01*
X450418Y533687D01*
X450228Y532248D01*
X450418Y530809D01*
X450973Y529468D01*
X451856Y528317D01*
X453008Y527433D01*
X454349Y526878D01*
X455787Y526689D01*
X457226Y526878D01*
X458567Y527433D01*
X459719Y528317D01*
X460602Y529468D01*
X461157Y530809D01*
X461347Y532248D01*
X461157Y533687D01*
X460638Y534940D01*
X460585Y535105D01*
X460533Y535346D01*
X460917Y538155D01*
X461362Y538888D01*
X461873Y539308D01*
X462611Y540207D01*
X463160Y541233D01*
X463497Y542346D01*
X463611Y543504D01*
X463497Y544662D01*
X463160Y545775D01*
X462611Y546801D01*
X461873Y547700D01*
X460974Y548438D01*
X459948Y548986D01*
X458835Y549324D01*
X457677Y549438D01*
D02*
G37*
G36*
X333886Y533307D02*
X332447Y533118D01*
X331106Y532563D01*
X329955Y531679D01*
X329071Y530528D01*
X328516Y529187D01*
X328327Y527748D01*
X328516Y526309D01*
X329071Y524968D01*
X329955Y523817D01*
X331106Y522933D01*
X332447Y522378D01*
X333886Y522189D01*
X335325Y522378D01*
X336666Y522933D01*
X337817Y523817D01*
X338700Y524968D01*
X339256Y526309D01*
X339445Y527748D01*
X339256Y529187D01*
X338700Y530528D01*
X337817Y531679D01*
X336666Y532563D01*
X335325Y533118D01*
X333886Y533307D01*
D02*
G37*
G36*
X476378Y521682D02*
X475220Y521568D01*
X474107Y521230D01*
X473081Y520682D01*
X472182Y519944D01*
X471444Y519045D01*
X470896Y518019D01*
X470558Y516906D01*
X470444Y515748D01*
X470558Y514590D01*
X470896Y513477D01*
X471444Y512451D01*
X472182Y511552D01*
X473081Y510814D01*
X474107Y510266D01*
X475220Y509928D01*
X476378Y509814D01*
X477536Y509928D01*
X478649Y510266D01*
X479675Y510814D01*
X480574Y511552D01*
X481312Y512451D01*
X481860Y513477D01*
X482198Y514590D01*
X482312Y515748D01*
X482198Y516906D01*
X481860Y518019D01*
X481312Y519045D01*
X480574Y519944D01*
X479675Y520682D01*
X478649Y521230D01*
X477536Y521568D01*
X476378Y521682D01*
D02*
G37*
G36*
X407228Y516910D02*
X405892Y516734D01*
X404647Y516219D01*
X403578Y515398D01*
X402758Y514329D01*
X402242Y513084D01*
X402066Y511748D01*
X402242Y510412D01*
X402758Y509167D01*
X403578Y508098D01*
X404647Y507277D01*
X405892Y506762D01*
X407228Y506586D01*
X408564Y506762D01*
X409809Y507277D01*
X410879Y508098D01*
X411699Y509167D01*
X412215Y510412D01*
X412391Y511748D01*
X412215Y513084D01*
X411699Y514329D01*
X410879Y515398D01*
X409809Y516219D01*
X408564Y516734D01*
X407228Y516910D01*
D02*
G37*
G36*
X455787Y504807D02*
X454449Y504631D01*
X454259Y504622D01*
X451299Y504760D01*
Y504760D01*
X440276D01*
Y493736D01*
X451299D01*
X451299Y493736D01*
X454259Y493874D01*
X454449Y493865D01*
X455787Y493689D01*
X457226Y493878D01*
X458567Y494433D01*
X459719Y495317D01*
X460602Y496468D01*
X461157Y497809D01*
X461347Y499248D01*
X461157Y500687D01*
X460602Y502028D01*
X459719Y503179D01*
X458567Y504063D01*
X457226Y504618D01*
X455787Y504807D01*
D02*
G37*
G36*
X334646Y506944D02*
X333102Y506792D01*
X331618Y506341D01*
X330250Y505610D01*
X329051Y504626D01*
X328067Y503427D01*
X327336Y502059D01*
X326886Y500575D01*
X326734Y499031D01*
X326886Y497488D01*
X327336Y496004D01*
X328067Y494636D01*
X329051Y493437D01*
X330250Y492453D01*
X331618Y491722D01*
X333102Y491271D01*
X334646Y491119D01*
X336189Y491271D01*
X337673Y491722D01*
X339041Y492453D01*
X340240Y493437D01*
X341224Y494636D01*
X341955Y496004D01*
X342406Y497488D01*
X342558Y499031D01*
X342406Y500575D01*
X341955Y502059D01*
X341224Y503427D01*
X340240Y504626D01*
X339041Y505610D01*
X337673Y506341D01*
X336189Y506792D01*
X334646Y506944D01*
D02*
G37*
G36*
X526378Y501997D02*
X525220Y501883D01*
X524107Y501545D01*
X523081Y500997D01*
X522182Y500259D01*
X521444Y499360D01*
X520896Y498334D01*
X520558Y497221D01*
X520444Y496063D01*
X520558Y494905D01*
X520896Y493792D01*
X521444Y492766D01*
X522182Y491867D01*
X523081Y491129D01*
X524107Y490581D01*
X525220Y490243D01*
X526378Y490129D01*
X527536Y490243D01*
X528649Y490581D01*
X529675Y491129D01*
X530574Y491867D01*
X531312Y492766D01*
X531860Y493792D01*
X532198Y494905D01*
X532312Y496063D01*
X532198Y497221D01*
X531860Y498334D01*
X531312Y499360D01*
X530574Y500259D01*
X529675Y500997D01*
X528649Y501545D01*
X527536Y501883D01*
X526378Y501997D01*
D02*
G37*
G36*
X486221D02*
X485063Y501883D01*
X483950Y501545D01*
X482924Y500997D01*
X482024Y500259D01*
X481286Y499360D01*
X480738Y498334D01*
X480400Y497221D01*
X480286Y496063D01*
X480400Y494905D01*
X480738Y493792D01*
X481286Y492766D01*
X482024Y491867D01*
X482924Y491129D01*
X483950Y490581D01*
X485063Y490243D01*
X486221Y490129D01*
X487378Y490243D01*
X488491Y490581D01*
X489517Y491129D01*
X490416Y491867D01*
X491154Y492766D01*
X491703Y493792D01*
X492040Y494905D01*
X492155Y496063D01*
X492040Y497221D01*
X491703Y498334D01*
X491154Y499360D01*
X490416Y500259D01*
X489517Y500997D01*
X488491Y501545D01*
X487378Y501883D01*
X486221Y501997D01*
D02*
G37*
G36*
X296577Y493356D02*
X295227Y493223D01*
X293928Y492829D01*
X292731Y492189D01*
X291682Y491328D01*
X290821Y490279D01*
X290181Y489082D01*
X289787Y487784D01*
X289654Y486433D01*
X289787Y485082D01*
X290181Y483784D01*
X290821Y482587D01*
X291682Y481538D01*
X292731Y480677D01*
X293928Y480037D01*
X295227Y479643D01*
X296577Y479510D01*
X297928Y479643D01*
X299226Y480037D01*
X300423Y480677D01*
X301472Y481538D01*
X302333Y482587D01*
X302973Y483784D01*
X303367Y485082D01*
X303500Y486433D01*
X303367Y487784D01*
X302973Y489082D01*
X302333Y490279D01*
X301472Y491328D01*
X300423Y492189D01*
X299226Y492829D01*
X297928Y493223D01*
X296577Y493356D01*
D02*
G37*
G36*
X497126Y479181D02*
X495687Y478992D01*
X494346Y478437D01*
X493195Y477553D01*
X491057D01*
X489906Y478437D01*
X488565Y478992D01*
X487126Y479181D01*
X485687Y478992D01*
X484346Y478437D01*
X483195Y477553D01*
X482311Y476402D01*
X481756Y475061D01*
X481567Y473622D01*
X481756Y472183D01*
X482311Y470842D01*
X483195Y469691D01*
X484346Y468808D01*
X485687Y468252D01*
X487126Y468063D01*
X488565Y468252D01*
X489906Y468808D01*
X491057Y469691D01*
X493195D01*
X494346Y468808D01*
X495687Y468252D01*
X497126Y468063D01*
X498565Y468252D01*
X499906Y468808D01*
X501057Y469691D01*
X501940Y470842D01*
X502496Y472183D01*
X502685Y473622D01*
X502496Y475061D01*
X501940Y476402D01*
X501057Y477553D01*
X499906Y478437D01*
X498565Y478992D01*
X497126Y479181D01*
D02*
G37*
G36*
X377953Y484181D02*
X376514Y483992D01*
X375173Y483437D01*
X374022Y482553D01*
X373138Y481402D01*
X372583Y480061D01*
X372393Y478622D01*
X372583Y477183D01*
X373138Y475842D01*
X374022Y474691D01*
X375173Y473807D01*
X376514Y473252D01*
X377953Y473063D01*
X379392Y473252D01*
X380732Y473807D01*
X381884Y474691D01*
X382767Y475842D01*
X383323Y477183D01*
X383512Y478622D01*
X383323Y480061D01*
X382767Y481402D01*
X381884Y482553D01*
X380732Y483437D01*
X379392Y483992D01*
X377953Y484181D01*
D02*
G37*
G36*
X318898Y483908D02*
X314961D01*
X313933Y483773D01*
X312975Y483376D01*
X312153Y482745D01*
X311522Y481922D01*
X311125Y480965D01*
X310990Y479937D01*
Y468126D01*
X311125Y467098D01*
X311522Y466141D01*
X312153Y465318D01*
X312975Y464687D01*
X313933Y464290D01*
X314961Y464155D01*
X318898D01*
X319925Y464290D01*
X320883Y464687D01*
X321706Y465318D01*
X322337Y466141D01*
X322733Y467098D01*
X322869Y468126D01*
Y479937D01*
X322733Y480965D01*
X322337Y481922D01*
X321706Y482745D01*
X320883Y483376D01*
X319925Y483773D01*
X318898Y483908D01*
D02*
G37*
G36*
X448819Y484181D02*
X447380Y483992D01*
X446039Y483437D01*
X444888Y482553D01*
X444004Y481402D01*
X443449Y480061D01*
X443259Y478622D01*
X443449Y477183D01*
X444004Y475842D01*
X444888Y474691D01*
Y472553D01*
X444004Y471402D01*
X443449Y470061D01*
X443259Y468622D01*
X443449Y467183D01*
X444004Y465842D01*
X444888Y464691D01*
X446039Y463807D01*
X447380Y463252D01*
X448819Y463063D01*
X450258Y463252D01*
X451599Y463807D01*
X452750Y464691D01*
X453633Y465842D01*
X454189Y467183D01*
X454378Y468622D01*
X454189Y470061D01*
X453633Y471402D01*
X452750Y472553D01*
Y474691D01*
X453633Y475842D01*
X454189Y477183D01*
X454378Y478622D01*
X454189Y480061D01*
X453633Y481402D01*
X452750Y482553D01*
X451599Y483437D01*
X450258Y483992D01*
X448819Y484181D01*
D02*
G37*
G36*
X412886Y474307D02*
X411447Y474118D01*
X410106Y473563D01*
X408955Y472679D01*
X408071Y471528D01*
X407516Y470187D01*
X407335Y468813D01*
X399241Y460719D01*
X365765D01*
X364666Y461563D01*
X363325Y462118D01*
X361886Y462307D01*
X360447Y462118D01*
X359106Y461563D01*
X357955Y460679D01*
X357071Y459528D01*
X356516Y458187D01*
X356327Y456748D01*
X356516Y455309D01*
X357071Y453968D01*
X357955Y452817D01*
X359106Y451933D01*
X360447Y451378D01*
X361886Y451189D01*
X363325Y451378D01*
X364666Y451933D01*
X365765Y452777D01*
X400886D01*
X401914Y452912D01*
X402871Y453309D01*
X403694Y453940D01*
X412951Y463197D01*
X414325Y463378D01*
X415665Y463934D01*
X416817Y464817D01*
X417700Y465968D01*
X418256Y467309D01*
X418445Y468748D01*
X418256Y470187D01*
X417700Y471528D01*
X416817Y472679D01*
X415665Y473563D01*
X414325Y474118D01*
X412886Y474307D01*
D02*
G37*
G36*
X296577Y453986D02*
X295227Y453853D01*
X293928Y453459D01*
X292731Y452819D01*
X291682Y451958D01*
X290821Y450909D01*
X290181Y449712D01*
X289787Y448414D01*
X289654Y447063D01*
X289787Y445712D01*
X290181Y444414D01*
X290821Y443217D01*
X291682Y442168D01*
X292731Y441307D01*
X293928Y440667D01*
X295227Y440273D01*
X296577Y440140D01*
X297928Y440273D01*
X299226Y440667D01*
X300423Y441307D01*
X301472Y442168D01*
X302333Y443217D01*
X302973Y444414D01*
X303367Y445712D01*
X303500Y447063D01*
X303367Y448414D01*
X302973Y449712D01*
X302333Y450909D01*
X301472Y451958D01*
X300423Y452819D01*
X299226Y453459D01*
X297928Y453853D01*
X296577Y453986D01*
D02*
G37*
G36*
X531866Y445671D02*
X530515Y445538D01*
X529217Y445144D01*
X528020Y444504D01*
X526971Y443643D01*
X526110Y442594D01*
X525470Y441397D01*
X525076Y440099D01*
X524943Y438748D01*
X525076Y437397D01*
X525470Y436099D01*
X526110Y434902D01*
X526971Y433853D01*
X528020Y432992D01*
X529217Y432352D01*
X530515Y431958D01*
X531866Y431825D01*
X533217Y431958D01*
X534515Y432352D01*
X535712Y432992D01*
X536762Y433853D01*
X537622Y434902D01*
X538262Y436099D01*
X538656Y437397D01*
X538789Y438748D01*
X538656Y440099D01*
X538262Y441397D01*
X537622Y442594D01*
X536762Y443643D01*
X535712Y444504D01*
X534515Y445144D01*
X533217Y445538D01*
X531866Y445671D01*
D02*
G37*
G36*
X334146Y446444D02*
X332602Y446292D01*
X331118Y445841D01*
X329750Y445110D01*
X328551Y444126D01*
X327567Y442927D01*
X326836Y441559D01*
X326386Y440075D01*
X326234Y438531D01*
X326386Y436988D01*
X326836Y435504D01*
X327567Y434136D01*
X328551Y432937D01*
X329750Y431953D01*
X331118Y431222D01*
X332602Y430771D01*
X334146Y430619D01*
X335689Y430771D01*
X337174Y431222D01*
X338541Y431953D01*
X339740Y432937D01*
X340724Y434136D01*
X341456Y435504D01*
X341906Y436988D01*
X342058Y438531D01*
X341906Y440075D01*
X341456Y441559D01*
X340724Y442927D01*
X339740Y444126D01*
X338541Y445110D01*
X337174Y445841D01*
X335689Y446292D01*
X334146Y446444D01*
D02*
G37*
G36*
X490886Y405171D02*
X489535Y405038D01*
X488237Y404644D01*
X487040Y404004D01*
X485990Y403143D01*
X485129Y402094D01*
X484490Y400897D01*
X484096Y399599D01*
X483963Y398248D01*
X484096Y396897D01*
X484490Y395599D01*
X485129Y394402D01*
X485990Y393353D01*
X487040Y392492D01*
X488237Y391852D01*
X489535Y391458D01*
X490886Y391325D01*
X492237Y391458D01*
X493535Y391852D01*
X494732Y392492D01*
X495781Y393353D01*
X496642Y394402D01*
X497282Y395599D01*
X497676Y396897D01*
X497809Y398248D01*
X497676Y399599D01*
X497282Y400897D01*
X496642Y402094D01*
X495781Y403143D01*
X494732Y404004D01*
X493535Y404644D01*
X492237Y405038D01*
X490886Y405171D01*
D02*
G37*
G36*
X531496Y409485D02*
X529643Y409340D01*
X527835Y408906D01*
X526117Y408194D01*
X524532Y407223D01*
X523119Y406015D01*
X521911Y404602D01*
X520940Y403017D01*
X520228Y401299D01*
X519794Y399491D01*
X519649Y397638D01*
X519794Y395784D01*
X520228Y393977D01*
X520940Y392259D01*
X521911Y390674D01*
X523119Y389260D01*
X524532Y388053D01*
X526117Y387082D01*
X527835Y386370D01*
X529643Y385936D01*
X531496Y385790D01*
X533349Y385936D01*
X535157Y386370D01*
X536875Y387082D01*
X538460Y388053D01*
X539874Y389260D01*
X541081Y390674D01*
X542052Y392259D01*
X542764Y393977D01*
X543198Y395784D01*
X543344Y397638D01*
X543198Y399491D01*
X542764Y401299D01*
X542052Y403017D01*
X541081Y404602D01*
X539874Y406015D01*
X538460Y407223D01*
X536875Y408194D01*
X535157Y408906D01*
X533349Y409340D01*
X531496Y409485D01*
D02*
G37*
G36*
X295276D02*
X293422Y409340D01*
X291615Y408906D01*
X289897Y408194D01*
X288312Y407223D01*
X286898Y406015D01*
X285691Y404602D01*
X284719Y403017D01*
X284008Y401299D01*
X283574Y399491D01*
X283428Y397638D01*
X283574Y395784D01*
X284008Y393977D01*
X284719Y392259D01*
X285691Y390674D01*
X286898Y389260D01*
X288312Y388053D01*
X289897Y387082D01*
X291615Y386370D01*
X293422Y385936D01*
X295276Y385790D01*
X297129Y385936D01*
X298937Y386370D01*
X300654Y387082D01*
X302239Y388053D01*
X303653Y389260D01*
X304860Y390674D01*
X305832Y392259D01*
X306543Y393977D01*
X306977Y395784D01*
X307123Y397638D01*
X306977Y399491D01*
X306543Y401299D01*
X305832Y403017D01*
X304860Y404602D01*
X303653Y406015D01*
X302239Y407223D01*
X300654Y408194D01*
X298937Y408906D01*
X297129Y409340D01*
X295276Y409485D01*
D02*
G37*
%LPD*%
D10*
X340551Y557299D02*
D03*
X372047Y556299D02*
D03*
X616142Y557299D02*
D03*
X647638Y556299D02*
D03*
X891732Y557299D02*
D03*
X923228Y556299D02*
D03*
X340551Y848638D02*
D03*
X372047Y847638D02*
D03*
X616142Y848638D02*
D03*
X647638Y847638D02*
D03*
X891732Y848638D02*
D03*
X923228Y847638D02*
D03*
X295276Y397638D02*
D03*
X531496D02*
D03*
Y633858D02*
D03*
X295276D02*
D03*
X570866Y397638D02*
D03*
X807087D02*
D03*
Y633858D02*
D03*
X570866D02*
D03*
X846457Y397638D02*
D03*
X1082677D02*
D03*
Y633858D02*
D03*
X846457D02*
D03*
X295276Y688976D02*
D03*
X531496D02*
D03*
Y925197D02*
D03*
X295276D02*
D03*
X570866Y688976D02*
D03*
X807087D02*
D03*
Y925197D02*
D03*
X570866D02*
D03*
X846457Y688976D02*
D03*
X1082677D02*
D03*
Y925197D02*
D03*
X846457D02*
D03*
D11*
X407386Y589248D02*
X444886Y626748D01*
X372047Y556299D02*
X402437D01*
X432386Y586248D01*
X516886D01*
X537386Y565748D01*
Y550748D02*
Y565748D01*
X444886Y626748D02*
X464886D01*
X361886Y456748D02*
X400886D01*
X412886Y468748D01*
X321386Y514248D02*
X354886D01*
X306386Y529248D02*
X321386Y514248D01*
X306386Y529248D02*
Y572248D01*
X322386D01*
X339386Y589248D01*
X407386D01*
X354886Y514248D02*
X373886Y495248D01*
X419886D01*
X425886Y501248D01*
X682976Y589248D02*
X720476Y626748D01*
X647638Y556299D02*
X678028D01*
X707976Y586248D01*
X792476D01*
X812976Y565748D01*
Y550748D02*
Y565748D01*
X720476Y626748D02*
X740476D01*
X637476Y456748D02*
X676476D01*
X688476Y468748D01*
X596976Y514248D02*
X630476D01*
X581976Y529248D02*
X596976Y514248D01*
X581976Y529248D02*
Y572248D01*
X597976D01*
X614976Y589248D01*
X682976D01*
X630476Y514248D02*
X649476Y495248D01*
X695476D01*
X701476Y501248D01*
X958567Y589248D02*
X996067Y626748D01*
X923228Y556299D02*
X953618D01*
X983567Y586248D01*
X1068067D01*
X1088567Y565748D01*
Y550748D02*
Y565748D01*
X996067Y626748D02*
X1016067D01*
X913067Y456748D02*
X952067D01*
X964067Y468748D01*
X872567Y514248D02*
X906067D01*
X857567Y529248D02*
X872567Y514248D01*
X857567Y529248D02*
Y572248D01*
X873567D01*
X890567Y589248D01*
X958567D01*
X906067Y514248D02*
X925067Y495248D01*
X971067D01*
X977067Y501248D01*
X407386Y880587D02*
X444886Y918087D01*
X372047Y847638D02*
X402437D01*
X432386Y877587D01*
X516886D01*
X537386Y857087D01*
Y842087D02*
Y857087D01*
X444886Y918087D02*
X464886D01*
X361886Y748087D02*
X400886D01*
X412886Y760087D01*
X321386Y805587D02*
X354886D01*
X306386Y820587D02*
X321386Y805587D01*
X306386Y820587D02*
Y863587D01*
X322386D01*
X339386Y880587D01*
X407386D01*
X354886Y805587D02*
X373886Y786587D01*
X419886D01*
X425886Y792587D01*
X682976Y880587D02*
X720476Y918087D01*
X647638Y847638D02*
X678028D01*
X707976Y877587D01*
X792476D01*
X812976Y857087D01*
Y842087D02*
Y857087D01*
X720476Y918087D02*
X740476D01*
X637476Y748087D02*
X676476D01*
X688476Y760087D01*
X596976Y805587D02*
X630476D01*
X581976Y820587D02*
X596976Y805587D01*
X581976Y820587D02*
Y863587D01*
X597976D01*
X614976Y880587D01*
X682976D01*
X630476Y805587D02*
X649476Y786587D01*
X695476D01*
X701476Y792587D01*
X958567Y880587D02*
X996067Y918087D01*
X923228Y847638D02*
X953618D01*
X983567Y877587D01*
X1068067D01*
X1088567Y857087D01*
Y842087D02*
Y857087D01*
X996067Y918087D02*
X1016067D01*
X913067Y748087D02*
X952067D01*
X964067Y760087D01*
X872567Y805587D02*
X906067D01*
X857567Y820587D02*
X872567Y805587D01*
X857567Y820587D02*
Y863587D01*
X873567D01*
X890567Y880587D01*
X958567D01*
X906067Y805587D02*
X925067Y786587D01*
X971067D01*
X977067Y792587D01*
D12*
X328136Y556748D02*
D03*
X603726D02*
D03*
X879317D02*
D03*
X328136Y848087D02*
D03*
X603726D02*
D03*
X879317D02*
D03*
D13*
X314961Y960630D02*
D03*
X1062992D02*
D03*
X314961Y362205D02*
D03*
X1062992D02*
D03*
D14*
X334646Y960630D02*
D03*
X295276D02*
D03*
X1043307D02*
D03*
X1082677D02*
D03*
X295276Y362205D02*
D03*
X334646D02*
D03*
X1082677D02*
D03*
X1043307D02*
D03*
X329146Y451532D02*
D03*
X330709D02*
D03*
X332677D02*
D03*
X326772D02*
D03*
X324803D02*
D03*
X333303Y464032D02*
D03*
X335272D02*
D03*
X341177D02*
D03*
X339209D02*
D03*
X337646D02*
D03*
X316929Y469689D02*
D03*
Y471658D02*
D03*
Y477563D02*
D03*
Y475595D02*
D03*
Y474031D02*
D03*
X463386Y488748D02*
D03*
X359386Y527748D02*
D03*
X604736Y451532D02*
D03*
X606299D02*
D03*
X608268D02*
D03*
X602362D02*
D03*
X600394D02*
D03*
X608894Y464032D02*
D03*
X610862D02*
D03*
X616768D02*
D03*
X614799D02*
D03*
X613236D02*
D03*
X592520Y469689D02*
D03*
Y471658D02*
D03*
Y477563D02*
D03*
Y475595D02*
D03*
Y474031D02*
D03*
X738976Y488748D02*
D03*
X634976Y527748D02*
D03*
X880327Y451532D02*
D03*
X881890D02*
D03*
X883858D02*
D03*
X877953D02*
D03*
X875984D02*
D03*
X884484Y464032D02*
D03*
X886453D02*
D03*
X892358D02*
D03*
X890390D02*
D03*
X888827D02*
D03*
X868110Y469689D02*
D03*
Y471658D02*
D03*
Y477563D02*
D03*
Y475595D02*
D03*
Y474031D02*
D03*
X1014567Y488748D02*
D03*
X910567Y527748D02*
D03*
X329146Y742870D02*
D03*
X330709D02*
D03*
X332677D02*
D03*
X326772D02*
D03*
X324803D02*
D03*
X333303Y755370D02*
D03*
X335272D02*
D03*
X341177D02*
D03*
X339209D02*
D03*
X337646D02*
D03*
X316929Y761028D02*
D03*
Y762996D02*
D03*
Y768902D02*
D03*
Y766933D02*
D03*
Y765370D02*
D03*
X463386Y780087D02*
D03*
X359386Y819087D02*
D03*
X604736Y742870D02*
D03*
X606299D02*
D03*
X608268D02*
D03*
X602362D02*
D03*
X600394D02*
D03*
X608894Y755370D02*
D03*
X610862D02*
D03*
X616768D02*
D03*
X614799D02*
D03*
X613236D02*
D03*
X592520Y761028D02*
D03*
Y762996D02*
D03*
Y768902D02*
D03*
Y766933D02*
D03*
Y765370D02*
D03*
X738976Y780087D02*
D03*
X634976Y819087D02*
D03*
X880327Y742870D02*
D03*
X881890D02*
D03*
X883858D02*
D03*
X877953D02*
D03*
X875984D02*
D03*
X884484Y755370D02*
D03*
X886453D02*
D03*
X892358D02*
D03*
X890390D02*
D03*
X888827D02*
D03*
X868110Y761028D02*
D03*
Y762996D02*
D03*
Y768902D02*
D03*
Y766933D02*
D03*
Y765370D02*
D03*
X1014567Y780087D02*
D03*
X910567Y819087D02*
D03*
D15*
X377953Y478622D02*
D03*
Y468622D02*
D03*
X487126Y473622D02*
D03*
X497126D02*
D03*
X448819Y468622D02*
D03*
Y478622D02*
D03*
X492126Y551299D02*
D03*
Y561299D02*
D03*
X455787Y499248D02*
D03*
X445787Y532248D02*
D03*
X455787D02*
D03*
X313386Y607248D02*
D03*
Y587248D02*
D03*
Y597248D02*
D03*
Y617248D02*
D03*
X333886Y527748D02*
D03*
X343886D02*
D03*
X361886Y456748D02*
D03*
X537386Y550748D02*
D03*
X464886Y626748D02*
D03*
X425886Y501248D02*
D03*
X412886Y468748D02*
D03*
X653543Y478622D02*
D03*
Y468622D02*
D03*
X762716Y473622D02*
D03*
X772717D02*
D03*
X724409Y468622D02*
D03*
Y478622D02*
D03*
X767717Y551299D02*
D03*
Y561299D02*
D03*
X731378Y499248D02*
D03*
X721378Y532248D02*
D03*
X731378D02*
D03*
X588976Y607248D02*
D03*
Y587248D02*
D03*
Y597248D02*
D03*
Y617248D02*
D03*
X609476Y527748D02*
D03*
X619476D02*
D03*
X637476Y456748D02*
D03*
X812976Y550748D02*
D03*
X740476Y626748D02*
D03*
X701476Y501248D02*
D03*
X688476Y468748D02*
D03*
X929134Y478622D02*
D03*
Y468622D02*
D03*
X1038307Y473622D02*
D03*
X1048307D02*
D03*
X1000000Y468622D02*
D03*
Y478622D02*
D03*
X1043307Y551299D02*
D03*
Y561299D02*
D03*
X1006968Y499248D02*
D03*
X996968Y532248D02*
D03*
X1006968D02*
D03*
X864567Y607248D02*
D03*
Y587248D02*
D03*
Y597248D02*
D03*
Y617248D02*
D03*
X885067Y527748D02*
D03*
X895067D02*
D03*
X913067Y456748D02*
D03*
X1088567Y550748D02*
D03*
X1016067Y626748D02*
D03*
X977067Y501248D02*
D03*
X964067Y468748D02*
D03*
X377953Y769961D02*
D03*
Y759961D02*
D03*
X487126Y764961D02*
D03*
X497126D02*
D03*
X448819Y759961D02*
D03*
Y769961D02*
D03*
X492126Y842638D02*
D03*
Y852638D02*
D03*
X455787Y790587D02*
D03*
X445787Y823587D02*
D03*
X455787D02*
D03*
X313386Y898587D02*
D03*
Y878587D02*
D03*
Y888587D02*
D03*
Y908587D02*
D03*
X333886Y819087D02*
D03*
X343886D02*
D03*
X361886Y748087D02*
D03*
X537386Y842087D02*
D03*
X464886Y918087D02*
D03*
X425886Y792587D02*
D03*
X412886Y760087D02*
D03*
X653543Y769961D02*
D03*
Y759961D02*
D03*
X762716Y764961D02*
D03*
X772717D02*
D03*
X724409Y759961D02*
D03*
Y769961D02*
D03*
X767717Y842638D02*
D03*
Y852638D02*
D03*
X731378Y790587D02*
D03*
X721378Y823587D02*
D03*
X731378D02*
D03*
X588976Y898587D02*
D03*
Y878587D02*
D03*
Y888587D02*
D03*
Y908587D02*
D03*
X609476Y819087D02*
D03*
X619476D02*
D03*
X637476Y748087D02*
D03*
X812976Y842087D02*
D03*
X740476Y918087D02*
D03*
X701476Y792587D02*
D03*
X688476Y760087D02*
D03*
X929134Y769961D02*
D03*
Y759961D02*
D03*
X1038307Y764961D02*
D03*
X1048307D02*
D03*
X1000000Y759961D02*
D03*
Y769961D02*
D03*
X1043307Y842638D02*
D03*
Y852638D02*
D03*
X1006968Y790587D02*
D03*
X996968Y823587D02*
D03*
X1006968D02*
D03*
X864567Y898587D02*
D03*
Y878587D02*
D03*
Y888587D02*
D03*
Y908587D02*
D03*
X885067Y819087D02*
D03*
X895067D02*
D03*
X913067Y748087D02*
D03*
X1088567Y842087D02*
D03*
X1016067Y918087D02*
D03*
X977067Y792587D02*
D03*
X964067Y760087D02*
D03*
D16*
X457677Y569095D02*
D03*
Y543504D02*
D03*
X439961Y569095D02*
D03*
Y543504D02*
D03*
X476378Y515748D02*
D03*
X486221Y535433D02*
D03*
Y496063D02*
D03*
X526378Y535433D02*
D03*
Y496063D02*
D03*
X481591Y630106D02*
D03*
X507181D02*
D03*
X481591Y612390D02*
D03*
X507181D02*
D03*
X306386Y572248D02*
D03*
X733268Y569095D02*
D03*
Y543504D02*
D03*
X715551Y569095D02*
D03*
Y543504D02*
D03*
X751968Y515748D02*
D03*
X761811Y535433D02*
D03*
Y496063D02*
D03*
X801968Y535433D02*
D03*
Y496063D02*
D03*
X757181Y630106D02*
D03*
X782772D02*
D03*
X757181Y612390D02*
D03*
X782772D02*
D03*
X581976Y572248D02*
D03*
X1008858Y569095D02*
D03*
Y543504D02*
D03*
X991142Y569095D02*
D03*
Y543504D02*
D03*
X1027559Y515748D02*
D03*
X1037402Y535433D02*
D03*
Y496063D02*
D03*
X1077559Y535433D02*
D03*
Y496063D02*
D03*
X1032772Y630106D02*
D03*
X1058362D02*
D03*
X1032772Y612390D02*
D03*
X1058362D02*
D03*
X857567Y572248D02*
D03*
X457677Y860433D02*
D03*
Y834842D02*
D03*
X439961Y860433D02*
D03*
Y834842D02*
D03*
X476378Y807087D02*
D03*
X486221Y826772D02*
D03*
Y787402D02*
D03*
X526378Y826772D02*
D03*
Y787402D02*
D03*
X481591Y921445D02*
D03*
X507181D02*
D03*
X481591Y903728D02*
D03*
X507181D02*
D03*
X306386Y863587D02*
D03*
X733268Y860433D02*
D03*
Y834842D02*
D03*
X715551Y860433D02*
D03*
Y834842D02*
D03*
X751968Y807087D02*
D03*
X761811Y826772D02*
D03*
Y787402D02*
D03*
X801968Y826772D02*
D03*
Y787402D02*
D03*
X757181Y921445D02*
D03*
X782772D02*
D03*
X757181Y903728D02*
D03*
X782772D02*
D03*
X581976Y863587D02*
D03*
X1008858Y860433D02*
D03*
Y834842D02*
D03*
X991142Y860433D02*
D03*
Y834842D02*
D03*
X1027559Y807087D02*
D03*
X1037402Y826772D02*
D03*
Y787402D02*
D03*
X1077559Y826772D02*
D03*
Y787402D02*
D03*
X1032772Y921445D02*
D03*
X1058362D02*
D03*
X1032772Y903728D02*
D03*
X1058362D02*
D03*
X857567Y863587D02*
D03*
D17*
X316929Y474031D02*
D03*
X592520D02*
D03*
X868110D02*
D03*
X316929Y765370D02*
D03*
X592520D02*
D03*
X868110D02*
D03*
D18*
X337646Y464032D02*
D03*
X329146Y451532D02*
D03*
X613236Y464032D02*
D03*
X604736Y451532D02*
D03*
X888827Y464032D02*
D03*
X880327Y451532D02*
D03*
X337646Y755370D02*
D03*
X329146Y742870D02*
D03*
X613236Y755370D02*
D03*
X604736Y742870D02*
D03*
X888827Y755370D02*
D03*
X880327Y742870D02*
D03*
D19*
X334646Y499031D02*
D03*
X334146Y438531D02*
D03*
X610236Y499031D02*
D03*
X609736Y438531D02*
D03*
X885827Y499031D02*
D03*
X885327Y438531D02*
D03*
X334646Y790370D02*
D03*
X334146Y729870D02*
D03*
X610236Y790370D02*
D03*
X609736Y729870D02*
D03*
X885827Y790370D02*
D03*
X885327Y729870D02*
D03*
D20*
X445787Y499248D02*
D03*
X721378D02*
D03*
X996968D02*
D03*
X445787Y790587D02*
D03*
X721378D02*
D03*
X996968D02*
D03*
D21*
X296577Y486433D02*
D03*
Y447063D02*
D03*
X490886Y398248D02*
D03*
X333405D02*
D03*
X531866Y438748D02*
D03*
X374386D02*
D03*
X572168Y486433D02*
D03*
Y447063D02*
D03*
X766476Y398248D02*
D03*
X608996D02*
D03*
X807457Y438748D02*
D03*
X649976D02*
D03*
X847758Y486433D02*
D03*
Y447063D02*
D03*
X1042067Y398248D02*
D03*
X884587D02*
D03*
X1083047Y438748D02*
D03*
X925567D02*
D03*
X296577Y777772D02*
D03*
Y738402D02*
D03*
X490886Y689587D02*
D03*
X333405D02*
D03*
X531866Y730087D02*
D03*
X374386D02*
D03*
X572168Y777772D02*
D03*
Y738402D02*
D03*
X766476Y689587D02*
D03*
X608996D02*
D03*
X807457Y730087D02*
D03*
X649976D02*
D03*
X847758Y777772D02*
D03*
Y738402D02*
D03*
X1042067Y689587D02*
D03*
X884587D02*
D03*
X1083047Y730087D02*
D03*
X925567D02*
D03*
D22*
X387543Y511748D02*
D03*
X407228D02*
D03*
X663134D02*
D03*
X682819D02*
D03*
X938724D02*
D03*
X958409D02*
D03*
X387543Y803087D02*
D03*
X407228D02*
D03*
X663134D02*
D03*
X682819D02*
D03*
X938724D02*
D03*
X958409D02*
D03*
M02*
