G04 Layer_Color=127485*
%FSLAX25Y25*%
%MOIN*%
G70*
G01*
G75*
%ADD37C,0.00787*%
%ADD38C,0.01000*%
%ADD39C,0.00984*%
%ADD40C,0.02362*%
%ADD41C,0.00394*%
D37*
X389764Y473622D02*
G03*
X389764Y473622I-11811J0D01*
G01*
X503937D02*
G03*
X503937Y473622I-11811J0D01*
G01*
X460630D02*
G03*
X460630Y473622I-11811J0D01*
G01*
X503937Y556299D02*
G03*
X503937Y556299I-11811J0D01*
G01*
X440143Y513219D02*
G03*
X440143Y518219I0J2500D01*
G01*
X417071Y511748D02*
G03*
X417071Y511748I-19685J0D01*
G01*
X377953Y479528D02*
X382858D01*
X498032Y468717D02*
Y473622D01*
X443913Y467717D02*
X448819D01*
X487220Y550394D02*
X492126D01*
X440143Y505286D02*
X460221D01*
X440143Y526152D02*
X460221D01*
X440143Y505286D02*
Y513219D01*
Y518219D02*
Y526152D01*
X460221Y505286D02*
Y526152D01*
X403386Y506780D02*
X400762D01*
X402074Y505468D02*
Y508092D01*
X665354Y473622D02*
G03*
X665354Y473622I-11811J0D01*
G01*
X779528D02*
G03*
X779528Y473622I-11811J0D01*
G01*
X736221D02*
G03*
X736221Y473622I-11811J0D01*
G01*
X779528Y556299D02*
G03*
X779528Y556299I-11811J0D01*
G01*
X715733Y513219D02*
G03*
X715733Y518219I0J2500D01*
G01*
X692661Y511748D02*
G03*
X692661Y511748I-19685J0D01*
G01*
X653543Y479528D02*
X658449D01*
X773622Y468717D02*
Y473622D01*
X719504Y467717D02*
X724409D01*
X762811Y550394D02*
X767717D01*
X715733Y505286D02*
X735812D01*
X715733Y526152D02*
X735812D01*
X715733Y505286D02*
Y513219D01*
Y518219D02*
Y526152D01*
X735812Y505286D02*
Y526152D01*
X678976Y506780D02*
X676353D01*
X677665Y505468D02*
Y508092D01*
X940945Y473622D02*
G03*
X940945Y473622I-11811J0D01*
G01*
X1055118D02*
G03*
X1055118Y473622I-11811J0D01*
G01*
X1011811D02*
G03*
X1011811Y473622I-11811J0D01*
G01*
X1055118Y556299D02*
G03*
X1055118Y556299I-11811J0D01*
G01*
X991324Y513219D02*
G03*
X991324Y518219I0J2500D01*
G01*
X968252Y511748D02*
G03*
X968252Y511748I-19685J0D01*
G01*
X929134Y479528D02*
X934039D01*
X1049213Y468717D02*
Y473622D01*
X995094Y467717D02*
X1000000D01*
X1038402Y550394D02*
X1043307D01*
X991324Y505286D02*
X1011403D01*
X991324Y526152D02*
X1011403D01*
X991324Y505286D02*
Y513219D01*
Y518219D02*
Y526152D01*
X1011403Y505286D02*
Y526152D01*
X954567Y506780D02*
X951943D01*
X953255Y505468D02*
Y508092D01*
X389764Y764961D02*
G03*
X389764Y764961I-11811J0D01*
G01*
X503937D02*
G03*
X503937Y764961I-11811J0D01*
G01*
X460630D02*
G03*
X460630Y764961I-11811J0D01*
G01*
X503937Y847638D02*
G03*
X503937Y847638I-11811J0D01*
G01*
X440143Y804557D02*
G03*
X440143Y809557I0J2500D01*
G01*
X417071Y803087D02*
G03*
X417071Y803087I-19685J0D01*
G01*
X377953Y770866D02*
X382858D01*
X498032Y760055D02*
Y764961D01*
X443913Y759055D02*
X448819D01*
X487220Y841732D02*
X492126D01*
X440143Y796624D02*
X460221D01*
X440143Y817490D02*
X460221D01*
X440143Y796624D02*
Y804557D01*
Y809557D02*
Y817490D01*
X460221Y796624D02*
Y817490D01*
X403386Y798119D02*
X400762D01*
X402074Y796807D02*
Y799431D01*
X665354Y764961D02*
G03*
X665354Y764961I-11811J0D01*
G01*
X779528D02*
G03*
X779528Y764961I-11811J0D01*
G01*
X736221D02*
G03*
X736221Y764961I-11811J0D01*
G01*
X779528Y847638D02*
G03*
X779528Y847638I-11811J0D01*
G01*
X715733Y804557D02*
G03*
X715733Y809557I0J2500D01*
G01*
X692661Y803087D02*
G03*
X692661Y803087I-19685J0D01*
G01*
X653543Y770866D02*
X658449D01*
X773622Y760055D02*
Y764961D01*
X719504Y759055D02*
X724409D01*
X762811Y841732D02*
X767717D01*
X715733Y796624D02*
X735812D01*
X715733Y817490D02*
X735812D01*
X715733Y796624D02*
Y804557D01*
Y809557D02*
Y817490D01*
X735812Y796624D02*
Y817490D01*
X678976Y798119D02*
X676353D01*
X677665Y796807D02*
Y799431D01*
X940945Y764961D02*
G03*
X940945Y764961I-11811J0D01*
G01*
X1055118D02*
G03*
X1055118Y764961I-11811J0D01*
G01*
X1011811D02*
G03*
X1011811Y764961I-11811J0D01*
G01*
X1055118Y847638D02*
G03*
X1055118Y847638I-11811J0D01*
G01*
X991324Y804557D02*
G03*
X991324Y809557I0J2500D01*
G01*
X968252Y803087D02*
G03*
X968252Y803087I-19685J0D01*
G01*
X929134Y770866D02*
X934039D01*
X1049213Y760055D02*
Y764961D01*
X995094Y759055D02*
X1000000D01*
X1038402Y841732D02*
X1043307D01*
X991324Y796624D02*
X1011403D01*
X991324Y817490D02*
X1011403D01*
X991324Y796624D02*
Y804557D01*
Y809557D02*
Y817490D01*
X1011403Y796624D02*
Y817490D01*
X954567Y798119D02*
X951943D01*
X953255Y796807D02*
Y799431D01*
D38*
X455709Y556299D02*
G03*
X455709Y556299I-6890J0D01*
G01*
X501276Y621248D02*
G03*
X501276Y621248I-6890J0D01*
G01*
X437008Y544488D02*
X460630D01*
Y568110D01*
X437008D02*
X460630D01*
X437008Y544488D02*
Y568110D01*
X316929Y429032D02*
X352362D01*
X316929D02*
Y509031D01*
X352362Y429032D02*
Y509031D01*
X316929D02*
X352362D01*
X470472Y540158D02*
X531496D01*
X470472Y491339D02*
Y540158D01*
Y491339D02*
X531496D01*
Y540158D01*
X506197Y609437D02*
Y633059D01*
X482575D02*
X506197D01*
X482575Y609437D02*
Y633059D01*
Y609437D02*
X506197D01*
X318886Y602748D02*
Y610433D01*
X307886Y602748D02*
Y610933D01*
X318886Y610433D02*
Y622748D01*
X307886D02*
X318886D01*
X307886Y610933D02*
Y622748D01*
X318886Y581748D02*
Y588433D01*
X307886Y581748D02*
Y588933D01*
Y581748D02*
X318886D01*
Y588433D02*
Y591748D01*
X307886Y588933D02*
Y591748D01*
Y599933D02*
Y602748D01*
X318886Y599433D02*
Y602748D01*
X307886Y591748D02*
Y599933D01*
X318886Y591748D02*
Y599433D01*
X328386Y522248D02*
X348807D01*
X328386Y533248D02*
X348807D01*
Y522248D02*
Y533248D01*
X328386Y522248D02*
Y533248D01*
X339311Y417748D02*
X484980D01*
Y378748D02*
Y417748D01*
X339311Y378748D02*
Y417748D01*
Y378748D02*
X484980D01*
X380291Y458248D02*
X525961D01*
Y419248D02*
Y458248D01*
X380291Y419248D02*
Y458248D01*
Y419248D02*
X525961D01*
X731299Y556299D02*
G03*
X731299Y556299I-6890J0D01*
G01*
X776866Y621248D02*
G03*
X776866Y621248I-6890J0D01*
G01*
X712598Y544488D02*
X736221D01*
Y568110D01*
X712598D02*
X736221D01*
X712598Y544488D02*
Y568110D01*
X592520Y429032D02*
X627953D01*
X592520D02*
Y509031D01*
X627953Y429032D02*
Y509031D01*
X592520D02*
X627953D01*
X746063Y540158D02*
X807087D01*
X746063Y491339D02*
Y540158D01*
Y491339D02*
X807087D01*
Y540158D01*
X781787Y609437D02*
Y633059D01*
X758165D02*
X781787D01*
X758165Y609437D02*
Y633059D01*
Y609437D02*
X781787D01*
X594476Y602748D02*
Y610433D01*
X583476Y602748D02*
Y610933D01*
X594476Y610433D02*
Y622748D01*
X583476D02*
X594476D01*
X583476Y610933D02*
Y622748D01*
X594476Y581748D02*
Y588433D01*
X583476Y581748D02*
Y588933D01*
Y581748D02*
X594476D01*
Y588433D02*
Y591748D01*
X583476Y588933D02*
Y591748D01*
Y599933D02*
Y602748D01*
X594476Y599433D02*
Y602748D01*
X583476Y591748D02*
Y599933D01*
X594476Y591748D02*
Y599433D01*
X603976Y522248D02*
X624397D01*
X603976Y533248D02*
X624397D01*
Y522248D02*
Y533248D01*
X603976Y522248D02*
Y533248D01*
X614902Y417748D02*
X760571D01*
Y378748D02*
Y417748D01*
X614902Y378748D02*
Y417748D01*
Y378748D02*
X760571D01*
X655882Y458248D02*
X801551D01*
Y419248D02*
Y458248D01*
X655882Y419248D02*
Y458248D01*
Y419248D02*
X801551D01*
X1006890Y556299D02*
G03*
X1006890Y556299I-6890J0D01*
G01*
X1052457Y621248D02*
G03*
X1052457Y621248I-6890J0D01*
G01*
X988189Y544488D02*
X1011811D01*
Y568110D01*
X988189D02*
X1011811D01*
X988189Y544488D02*
Y568110D01*
X868110Y429032D02*
X903543D01*
X868110D02*
Y509031D01*
X903543Y429032D02*
Y509031D01*
X868110D02*
X903543D01*
X1021653Y540158D02*
X1082677D01*
X1021653Y491339D02*
Y540158D01*
Y491339D02*
X1082677D01*
Y540158D01*
X1057378Y609437D02*
Y633059D01*
X1033756D02*
X1057378D01*
X1033756Y609437D02*
Y633059D01*
Y609437D02*
X1057378D01*
X870067Y602748D02*
Y610433D01*
X859067Y602748D02*
Y610933D01*
X870067Y610433D02*
Y622748D01*
X859067D02*
X870067D01*
X859067Y610933D02*
Y622748D01*
X870067Y581748D02*
Y588433D01*
X859067Y581748D02*
Y588933D01*
Y581748D02*
X870067D01*
Y588433D02*
Y591748D01*
X859067Y588933D02*
Y591748D01*
Y599933D02*
Y602748D01*
X870067Y599433D02*
Y602748D01*
X859067Y591748D02*
Y599933D01*
X870067Y591748D02*
Y599433D01*
X879567Y522248D02*
X899988D01*
X879567Y533248D02*
X899988D01*
Y522248D02*
Y533248D01*
X879567Y522248D02*
Y533248D01*
X890492Y417748D02*
X1036161D01*
Y378748D02*
Y417748D01*
X890492Y378748D02*
Y417748D01*
Y378748D02*
X1036161D01*
X931472Y458248D02*
X1077142D01*
Y419248D02*
Y458248D01*
X931472Y419248D02*
Y458248D01*
Y419248D02*
X1077142D01*
X455709Y847638D02*
G03*
X455709Y847638I-6890J0D01*
G01*
X501276Y912587D02*
G03*
X501276Y912587I-6890J0D01*
G01*
X437008Y835827D02*
X460630D01*
Y859449D01*
X437008D02*
X460630D01*
X437008Y835827D02*
Y859449D01*
X316929Y720370D02*
X352362D01*
X316929D02*
Y800370D01*
X352362Y720370D02*
Y800370D01*
X316929D02*
X352362D01*
X470472Y831496D02*
X531496D01*
X470472Y782677D02*
Y831496D01*
Y782677D02*
X531496D01*
Y831496D01*
X506197Y900776D02*
Y924398D01*
X482575D02*
X506197D01*
X482575Y900776D02*
Y924398D01*
Y900776D02*
X506197D01*
X318886Y894087D02*
Y901772D01*
X307886Y894087D02*
Y902272D01*
X318886Y901772D02*
Y914087D01*
X307886D02*
X318886D01*
X307886Y902272D02*
Y914087D01*
X318886Y873087D02*
Y879772D01*
X307886Y873087D02*
Y880272D01*
Y873087D02*
X318886D01*
Y879772D02*
Y883087D01*
X307886Y880272D02*
Y883087D01*
Y891272D02*
Y894087D01*
X318886Y890772D02*
Y894087D01*
X307886Y883087D02*
Y891272D01*
X318886Y883087D02*
Y890772D01*
X328386Y813587D02*
X348807D01*
X328386Y824587D02*
X348807D01*
Y813587D02*
Y824587D01*
X328386Y813587D02*
Y824587D01*
X339311Y709087D02*
X484980D01*
Y670087D02*
Y709087D01*
X339311Y670087D02*
Y709087D01*
Y670087D02*
X484980D01*
X380291Y749587D02*
X525961D01*
Y710587D02*
Y749587D01*
X380291Y710587D02*
Y749587D01*
Y710587D02*
X525961D01*
X731299Y847638D02*
G03*
X731299Y847638I-6890J0D01*
G01*
X776866Y912587D02*
G03*
X776866Y912587I-6890J0D01*
G01*
X712598Y835827D02*
X736221D01*
Y859449D01*
X712598D02*
X736221D01*
X712598Y835827D02*
Y859449D01*
X592520Y720370D02*
X627953D01*
X592520D02*
Y800370D01*
X627953Y720370D02*
Y800370D01*
X592520D02*
X627953D01*
X746063Y831496D02*
X807087D01*
X746063Y782677D02*
Y831496D01*
Y782677D02*
X807087D01*
Y831496D01*
X781787Y900776D02*
Y924398D01*
X758165D02*
X781787D01*
X758165Y900776D02*
Y924398D01*
Y900776D02*
X781787D01*
X594476Y894087D02*
Y901772D01*
X583476Y894087D02*
Y902272D01*
X594476Y901772D02*
Y914087D01*
X583476D02*
X594476D01*
X583476Y902272D02*
Y914087D01*
X594476Y873087D02*
Y879772D01*
X583476Y873087D02*
Y880272D01*
Y873087D02*
X594476D01*
Y879772D02*
Y883087D01*
X583476Y880272D02*
Y883087D01*
Y891272D02*
Y894087D01*
X594476Y890772D02*
Y894087D01*
X583476Y883087D02*
Y891272D01*
X594476Y883087D02*
Y890772D01*
X603976Y813587D02*
X624397D01*
X603976Y824587D02*
X624397D01*
Y813587D02*
Y824587D01*
X603976Y813587D02*
Y824587D01*
X614902Y709087D02*
X760571D01*
Y670087D02*
Y709087D01*
X614902Y670087D02*
Y709087D01*
Y670087D02*
X760571D01*
X655882Y749587D02*
X801551D01*
Y710587D02*
Y749587D01*
X655882Y710587D02*
Y749587D01*
Y710587D02*
X801551D01*
X1006890Y847638D02*
G03*
X1006890Y847638I-6890J0D01*
G01*
X1052457Y912587D02*
G03*
X1052457Y912587I-6890J0D01*
G01*
X988189Y835827D02*
X1011811D01*
Y859449D01*
X988189D02*
X1011811D01*
X988189Y835827D02*
Y859449D01*
X868110Y720370D02*
X903543D01*
X868110D02*
Y800370D01*
X903543Y720370D02*
Y800370D01*
X868110D02*
X903543D01*
X1021653Y831496D02*
X1082677D01*
X1021653Y782677D02*
Y831496D01*
Y782677D02*
X1082677D01*
Y831496D01*
X1057378Y900776D02*
Y924398D01*
X1033756D02*
X1057378D01*
X1033756Y900776D02*
Y924398D01*
Y900776D02*
X1057378D01*
X870067Y894087D02*
Y901772D01*
X859067Y894087D02*
Y902272D01*
X870067Y901772D02*
Y914087D01*
X859067D02*
X870067D01*
X859067Y902272D02*
Y914087D01*
X870067Y873087D02*
Y879772D01*
X859067Y873087D02*
Y880272D01*
Y873087D02*
X870067D01*
Y879772D02*
Y883087D01*
X859067Y880272D02*
Y883087D01*
Y891272D02*
Y894087D01*
X870067Y890772D02*
Y894087D01*
X859067Y883087D02*
Y891272D01*
X870067Y883087D02*
Y890772D01*
X879567Y813587D02*
X899988D01*
X879567Y824587D02*
X899988D01*
Y813587D02*
Y824587D01*
X879567Y813587D02*
Y824587D01*
X890492Y709087D02*
X1036161D01*
Y670087D02*
Y709087D01*
X890492Y670087D02*
Y709087D01*
Y670087D02*
X1036161D01*
X931472Y749587D02*
X1077142D01*
Y710587D02*
Y749587D01*
X931472Y710587D02*
Y749587D01*
Y710587D02*
X1077142D01*
D39*
X440556Y500719D02*
G03*
X440556Y500719I-492J0D01*
G01*
X716147D02*
G03*
X716147Y500719I-492J0D01*
G01*
X991737D02*
G03*
X991737Y500719I-492J0D01*
G01*
X440556Y792057D02*
G03*
X440556Y792057I-492J0D01*
G01*
X716147D02*
G03*
X716147Y792057I-492J0D01*
G01*
X991737D02*
G03*
X991737Y792057I-492J0D01*
G01*
D40*
X445261Y509223D02*
G03*
X445261Y509223I-1181J0D01*
G01*
X720851D02*
G03*
X720851Y509223I-1181J0D01*
G01*
X996442D02*
G03*
X996442Y509223I-1181J0D01*
G01*
X445261Y800561D02*
G03*
X445261Y800561I-1181J0D01*
G01*
X720851D02*
G03*
X720851Y800561I-1181J0D01*
G01*
X996442D02*
G03*
X996442Y800561I-1181J0D01*
G01*
D41*
X492010Y639028D02*
X491354Y639684D01*
X490042D01*
X489386Y639028D01*
Y638372D01*
X490042Y637716D01*
X491354D01*
X492010Y637060D01*
Y636404D01*
X491354Y635748D01*
X490042D01*
X489386Y636404D01*
X493322Y639684D02*
Y635748D01*
X494633Y637060D01*
X495945Y635748D01*
Y639684D01*
X499881Y635748D02*
X497257D01*
X499881Y638372D01*
Y639028D01*
X499225Y639684D01*
X497913D01*
X497257Y639028D01*
X354886Y524748D02*
X350950D01*
Y526716D01*
X351606Y527372D01*
X352918D01*
X353574Y526716D01*
Y524748D01*
X354886Y531308D02*
Y528684D01*
X352262Y531308D01*
X351606D01*
X350950Y530652D01*
Y529340D01*
X351606Y528684D01*
X305577Y474184D02*
Y470248D01*
X307545D01*
X308201Y470904D01*
Y473528D01*
X307545Y474184D01*
X305577D01*
X309513Y470248D02*
X310825D01*
X310169D01*
Y474184D01*
X309513Y473528D01*
X364386Y491684D02*
Y487748D01*
X367010D01*
X368322Y491684D02*
Y487748D01*
X370289D01*
X370945Y488404D01*
Y491028D01*
X370289Y491684D01*
X368322D01*
X372257Y487748D02*
X373569D01*
X372913D01*
Y491684D01*
X372257Y491028D01*
X504886Y483684D02*
Y479748D01*
X507510D01*
X508822Y483684D02*
Y479748D01*
X510789D01*
X511445Y480404D01*
Y483028D01*
X510789Y483684D01*
X508822D01*
X515381Y479748D02*
X512757D01*
X515381Y482372D01*
Y483028D01*
X514725Y483684D01*
X513413D01*
X512757Y483028D01*
X461886Y484184D02*
Y480248D01*
X464510D01*
X465822Y484184D02*
Y480248D01*
X467789D01*
X468445Y480904D01*
Y483528D01*
X467789Y484184D01*
X465822D01*
X469757Y483528D02*
X470413Y484184D01*
X471725D01*
X472381Y483528D01*
Y482872D01*
X471725Y482216D01*
X471069D01*
X471725D01*
X472381Y481560D01*
Y480904D01*
X471725Y480248D01*
X470413D01*
X469757Y480904D01*
X495386Y574684D02*
Y570748D01*
X498010D01*
X499322Y574684D02*
Y570748D01*
X501289D01*
X501945Y571404D01*
Y574028D01*
X501289Y574684D01*
X499322D01*
X505225Y570748D02*
Y574684D01*
X503257Y572716D01*
X505881D01*
X300386Y615748D02*
Y619684D01*
X302354D01*
X303010Y619028D01*
Y617716D01*
X302354Y617060D01*
X300386D01*
X304322Y615748D02*
X305633D01*
X304977D01*
Y619684D01*
X304322Y619028D01*
X435510Y505904D02*
Y508528D01*
X434854Y509184D01*
X433542D01*
X432886Y508528D01*
Y505904D01*
X433542Y505248D01*
X434854D01*
X434198Y506560D02*
X435510Y505248D01*
X434854D02*
X435510Y505904D01*
X436822Y505248D02*
X438133D01*
X437477D01*
Y509184D01*
X436822Y508528D01*
X439510Y579028D02*
X438854Y579684D01*
X437542D01*
X436886Y579028D01*
Y578372D01*
X437542Y577716D01*
X438854D01*
X439510Y577060D01*
Y576404D01*
X438854Y575748D01*
X437542D01*
X436886Y576404D01*
X440822Y579684D02*
Y575748D01*
X442134Y577060D01*
X443445Y575748D01*
Y579684D01*
X444757Y575748D02*
X446069D01*
X445413D01*
Y579684D01*
X444757Y579028D01*
X327386Y422748D02*
Y426684D01*
X329354D01*
X330010Y426028D01*
Y424716D01*
X329354Y424060D01*
X327386D01*
X333289Y422748D02*
Y426684D01*
X331322Y424716D01*
X333945D01*
X507878Y543063D02*
Y546999D01*
X509846D01*
X510502Y546343D01*
Y545031D01*
X509846Y544375D01*
X507878D01*
X509190D02*
X510502Y543063D01*
X514437Y546999D02*
X511814D01*
Y543063D01*
X514437D01*
X511814Y545031D02*
X513126D01*
X515749Y546999D02*
Y543063D01*
X518373D01*
X522309Y546999D02*
X519685D01*
Y543063D01*
X522309D01*
X519685Y545031D02*
X520997D01*
X523621Y543063D02*
X524933D01*
X524277D01*
Y546999D01*
X523621Y546343D01*
X490886Y384248D02*
Y388184D01*
X492854D01*
X493510Y387528D01*
Y386216D01*
X492854Y385560D01*
X490886D01*
X492198D02*
X493510Y384248D01*
X494822D02*
X496134D01*
X495477D01*
Y388184D01*
X494822Y387528D01*
X498101Y384248D02*
X499413D01*
X498757D01*
Y388184D01*
X498101Y387528D01*
X523386Y461248D02*
Y465184D01*
X525354D01*
X526010Y464528D01*
Y463216D01*
X525354Y462560D01*
X523386D01*
X524698D02*
X526010Y461248D01*
X527322D02*
X528633D01*
X527978D01*
Y465184D01*
X527322Y464528D01*
X533225Y461248D02*
X530601D01*
X533225Y463872D01*
Y464528D01*
X532569Y465184D01*
X531257D01*
X530601Y464528D01*
X370010Y514528D02*
X369354Y515184D01*
X368042D01*
X367386Y514528D01*
Y511904D01*
X368042Y511248D01*
X369354D01*
X370010Y511904D01*
X373289Y511248D02*
Y515184D01*
X371322Y513216D01*
X373945D01*
X767600Y639028D02*
X766944Y639684D01*
X765632D01*
X764976Y639028D01*
Y638372D01*
X765632Y637716D01*
X766944D01*
X767600Y637060D01*
Y636404D01*
X766944Y635748D01*
X765632D01*
X764976Y636404D01*
X768912Y639684D02*
Y635748D01*
X770224Y637060D01*
X771536Y635748D01*
Y639684D01*
X775472Y635748D02*
X772848D01*
X775472Y638372D01*
Y639028D01*
X774816Y639684D01*
X773504D01*
X772848Y639028D01*
X630476Y524748D02*
X626541D01*
Y526716D01*
X627197Y527372D01*
X628509D01*
X629165Y526716D01*
Y524748D01*
X630476Y531308D02*
Y528684D01*
X627853Y531308D01*
X627197D01*
X626541Y530652D01*
Y529340D01*
X627197Y528684D01*
X581168Y474184D02*
Y470248D01*
X583136D01*
X583791Y470904D01*
Y473528D01*
X583136Y474184D01*
X581168D01*
X585103Y470248D02*
X586415D01*
X585759D01*
Y474184D01*
X585103Y473528D01*
X639976Y491684D02*
Y487748D01*
X642600D01*
X643912Y491684D02*
Y487748D01*
X645880D01*
X646536Y488404D01*
Y491028D01*
X645880Y491684D01*
X643912D01*
X647848Y487748D02*
X649160D01*
X648504D01*
Y491684D01*
X647848Y491028D01*
X780476Y483684D02*
Y479748D01*
X783100D01*
X784412Y483684D02*
Y479748D01*
X786380D01*
X787036Y480404D01*
Y483028D01*
X786380Y483684D01*
X784412D01*
X790972Y479748D02*
X788348D01*
X790972Y482372D01*
Y483028D01*
X790316Y483684D01*
X789004D01*
X788348Y483028D01*
X737476Y484184D02*
Y480248D01*
X740100D01*
X741412Y484184D02*
Y480248D01*
X743380D01*
X744036Y480904D01*
Y483528D01*
X743380Y484184D01*
X741412D01*
X745348Y483528D02*
X746004Y484184D01*
X747316D01*
X747972Y483528D01*
Y482872D01*
X747316Y482216D01*
X746660D01*
X747316D01*
X747972Y481560D01*
Y480904D01*
X747316Y480248D01*
X746004D01*
X745348Y480904D01*
X770976Y574684D02*
Y570748D01*
X773600D01*
X774912Y574684D02*
Y570748D01*
X776880D01*
X777536Y571404D01*
Y574028D01*
X776880Y574684D01*
X774912D01*
X780816Y570748D02*
Y574684D01*
X778848Y572716D01*
X781472D01*
X575976Y615748D02*
Y619684D01*
X577944D01*
X578600Y619028D01*
Y617716D01*
X577944Y617060D01*
X575976D01*
X579912Y615748D02*
X581224D01*
X580568D01*
Y619684D01*
X579912Y619028D01*
X711100Y505904D02*
Y508528D01*
X710444Y509184D01*
X709132D01*
X708476Y508528D01*
Y505904D01*
X709132Y505248D01*
X710444D01*
X709788Y506560D02*
X711100Y505248D01*
X710444D02*
X711100Y505904D01*
X712412Y505248D02*
X713724D01*
X713068D01*
Y509184D01*
X712412Y508528D01*
X715100Y579028D02*
X714444Y579684D01*
X713132D01*
X712476Y579028D01*
Y578372D01*
X713132Y577716D01*
X714444D01*
X715100Y577060D01*
Y576404D01*
X714444Y575748D01*
X713132D01*
X712476Y576404D01*
X716412Y579684D02*
Y575748D01*
X717724Y577060D01*
X719036Y575748D01*
Y579684D01*
X720348Y575748D02*
X721660D01*
X721004D01*
Y579684D01*
X720348Y579028D01*
X602976Y422748D02*
Y426684D01*
X604944D01*
X605600Y426028D01*
Y424716D01*
X604944Y424060D01*
X602976D01*
X608880Y422748D02*
Y426684D01*
X606912Y424716D01*
X609536D01*
X783468Y543063D02*
Y546999D01*
X785436D01*
X786092Y546343D01*
Y545031D01*
X785436Y544375D01*
X783468D01*
X784780D02*
X786092Y543063D01*
X790028Y546999D02*
X787404D01*
Y543063D01*
X790028D01*
X787404Y545031D02*
X788716D01*
X791340Y546999D02*
Y543063D01*
X793964D01*
X797899Y546999D02*
X795276D01*
Y543063D01*
X797899D01*
X795276Y545031D02*
X796588D01*
X799212Y543063D02*
X800523D01*
X799867D01*
Y546999D01*
X799212Y546343D01*
X766476Y384248D02*
Y388184D01*
X768444D01*
X769100Y387528D01*
Y386216D01*
X768444Y385560D01*
X766476D01*
X767788D02*
X769100Y384248D01*
X770412D02*
X771724D01*
X771068D01*
Y388184D01*
X770412Y387528D01*
X773692Y384248D02*
X775004D01*
X774348D01*
Y388184D01*
X773692Y387528D01*
X798976Y461248D02*
Y465184D01*
X800944D01*
X801600Y464528D01*
Y463216D01*
X800944Y462560D01*
X798976D01*
X800288D02*
X801600Y461248D01*
X802912D02*
X804224D01*
X803568D01*
Y465184D01*
X802912Y464528D01*
X808816Y461248D02*
X806192D01*
X808816Y463872D01*
Y464528D01*
X808160Y465184D01*
X806848D01*
X806192Y464528D01*
X645600Y514528D02*
X644944Y515184D01*
X643632D01*
X642976Y514528D01*
Y511904D01*
X643632Y511248D01*
X644944D01*
X645600Y511904D01*
X648880Y511248D02*
Y515184D01*
X646912Y513216D01*
X649536D01*
X1043191Y639028D02*
X1042535Y639684D01*
X1041223D01*
X1040567Y639028D01*
Y638372D01*
X1041223Y637716D01*
X1042535D01*
X1043191Y637060D01*
Y636404D01*
X1042535Y635748D01*
X1041223D01*
X1040567Y636404D01*
X1044503Y639684D02*
Y635748D01*
X1045815Y637060D01*
X1047126Y635748D01*
Y639684D01*
X1051062Y635748D02*
X1048438D01*
X1051062Y638372D01*
Y639028D01*
X1050406Y639684D01*
X1049094D01*
X1048438Y639028D01*
X906067Y524748D02*
X902131D01*
Y526716D01*
X902787Y527372D01*
X904099D01*
X904755Y526716D01*
Y524748D01*
X906067Y531308D02*
Y528684D01*
X903443Y531308D01*
X902787D01*
X902131Y530652D01*
Y529340D01*
X902787Y528684D01*
X856758Y474184D02*
Y470248D01*
X858726D01*
X859382Y470904D01*
Y473528D01*
X858726Y474184D01*
X856758D01*
X860694Y470248D02*
X862006D01*
X861350D01*
Y474184D01*
X860694Y473528D01*
X915567Y491684D02*
Y487748D01*
X918191D01*
X919503Y491684D02*
Y487748D01*
X921471D01*
X922126Y488404D01*
Y491028D01*
X921471Y491684D01*
X919503D01*
X923438Y487748D02*
X924750D01*
X924094D01*
Y491684D01*
X923438Y491028D01*
X1056067Y483684D02*
Y479748D01*
X1058691D01*
X1060003Y483684D02*
Y479748D01*
X1061971D01*
X1062626Y480404D01*
Y483028D01*
X1061971Y483684D01*
X1060003D01*
X1066562Y479748D02*
X1063938D01*
X1066562Y482372D01*
Y483028D01*
X1065906Y483684D01*
X1064594D01*
X1063938Y483028D01*
X1013067Y484184D02*
Y480248D01*
X1015691D01*
X1017003Y484184D02*
Y480248D01*
X1018970D01*
X1019627Y480904D01*
Y483528D01*
X1018970Y484184D01*
X1017003D01*
X1020938Y483528D02*
X1021594Y484184D01*
X1022906D01*
X1023562Y483528D01*
Y482872D01*
X1022906Y482216D01*
X1022250D01*
X1022906D01*
X1023562Y481560D01*
Y480904D01*
X1022906Y480248D01*
X1021594D01*
X1020938Y480904D01*
X1046567Y574684D02*
Y570748D01*
X1049191D01*
X1050503Y574684D02*
Y570748D01*
X1052470D01*
X1053127Y571404D01*
Y574028D01*
X1052470Y574684D01*
X1050503D01*
X1056406Y570748D02*
Y574684D01*
X1054438Y572716D01*
X1057062D01*
X851567Y615748D02*
Y619684D01*
X853535D01*
X854191Y619028D01*
Y617716D01*
X853535Y617060D01*
X851567D01*
X855503Y615748D02*
X856815D01*
X856159D01*
Y619684D01*
X855503Y619028D01*
X986691Y505904D02*
Y508528D01*
X986035Y509184D01*
X984723D01*
X984067Y508528D01*
Y505904D01*
X984723Y505248D01*
X986035D01*
X985379Y506560D02*
X986691Y505248D01*
X986035D02*
X986691Y505904D01*
X988003Y505248D02*
X989315D01*
X988659D01*
Y509184D01*
X988003Y508528D01*
X990691Y579028D02*
X990035Y579684D01*
X988723D01*
X988067Y579028D01*
Y578372D01*
X988723Y577716D01*
X990035D01*
X990691Y577060D01*
Y576404D01*
X990035Y575748D01*
X988723D01*
X988067Y576404D01*
X992003Y579684D02*
Y575748D01*
X993315Y577060D01*
X994627Y575748D01*
Y579684D01*
X995938Y575748D02*
X997250D01*
X996594D01*
Y579684D01*
X995938Y579028D01*
X878567Y422748D02*
Y426684D01*
X880535D01*
X881191Y426028D01*
Y424716D01*
X880535Y424060D01*
X878567D01*
X884470Y422748D02*
Y426684D01*
X882503Y424716D01*
X885126D01*
X1059059Y543063D02*
Y546999D01*
X1061027D01*
X1061683Y546343D01*
Y545031D01*
X1061027Y544375D01*
X1059059D01*
X1060371D02*
X1061683Y543063D01*
X1065619Y546999D02*
X1062995D01*
Y543063D01*
X1065619D01*
X1062995Y545031D02*
X1064307D01*
X1066930Y546999D02*
Y543063D01*
X1069554D01*
X1073490Y546999D02*
X1070866D01*
Y543063D01*
X1073490D01*
X1070866Y545031D02*
X1072178D01*
X1074802Y543063D02*
X1076114D01*
X1075458D01*
Y546999D01*
X1074802Y546343D01*
X1042067Y384248D02*
Y388184D01*
X1044035D01*
X1044691Y387528D01*
Y386216D01*
X1044035Y385560D01*
X1042067D01*
X1043379D02*
X1044691Y384248D01*
X1046003D02*
X1047315D01*
X1046659D01*
Y388184D01*
X1046003Y387528D01*
X1049282Y384248D02*
X1050594D01*
X1049938D01*
Y388184D01*
X1049282Y387528D01*
X1074567Y461248D02*
Y465184D01*
X1076535D01*
X1077191Y464528D01*
Y463216D01*
X1076535Y462560D01*
X1074567D01*
X1075879D02*
X1077191Y461248D01*
X1078503D02*
X1079815D01*
X1079159D01*
Y465184D01*
X1078503Y464528D01*
X1084406Y461248D02*
X1081783D01*
X1084406Y463872D01*
Y464528D01*
X1083750Y465184D01*
X1082438D01*
X1081783Y464528D01*
X921191Y514528D02*
X920535Y515184D01*
X919223D01*
X918567Y514528D01*
Y511904D01*
X919223Y511248D01*
X920535D01*
X921191Y511904D01*
X924471Y511248D02*
Y515184D01*
X922503Y513216D01*
X925126D01*
X492010Y930366D02*
X491354Y931022D01*
X490042D01*
X489386Y930366D01*
Y929710D01*
X490042Y929055D01*
X491354D01*
X492010Y928399D01*
Y927743D01*
X491354Y927087D01*
X490042D01*
X489386Y927743D01*
X493322Y931022D02*
Y927087D01*
X494633Y928399D01*
X495945Y927087D01*
Y931022D01*
X499881Y927087D02*
X497257D01*
X499881Y929710D01*
Y930366D01*
X499225Y931022D01*
X497913D01*
X497257Y930366D01*
X354886Y816087D02*
X350950D01*
Y818054D01*
X351606Y818710D01*
X352918D01*
X353574Y818054D01*
Y816087D01*
X354886Y822646D02*
Y820022D01*
X352262Y822646D01*
X351606D01*
X350950Y821990D01*
Y820678D01*
X351606Y820022D01*
X305577Y765522D02*
Y761587D01*
X307545D01*
X308201Y762243D01*
Y764866D01*
X307545Y765522D01*
X305577D01*
X309513Y761587D02*
X310825D01*
X310169D01*
Y765522D01*
X309513Y764866D01*
X364386Y783022D02*
Y779087D01*
X367010D01*
X368322Y783022D02*
Y779087D01*
X370289D01*
X370945Y779743D01*
Y782366D01*
X370289Y783022D01*
X368322D01*
X372257Y779087D02*
X373569D01*
X372913D01*
Y783022D01*
X372257Y782366D01*
X504886Y775022D02*
Y771087D01*
X507510D01*
X508822Y775022D02*
Y771087D01*
X510789D01*
X511445Y771743D01*
Y774366D01*
X510789Y775022D01*
X508822D01*
X515381Y771087D02*
X512757D01*
X515381Y773710D01*
Y774366D01*
X514725Y775022D01*
X513413D01*
X512757Y774366D01*
X461886Y775522D02*
Y771587D01*
X464510D01*
X465822Y775522D02*
Y771587D01*
X467789D01*
X468445Y772243D01*
Y774866D01*
X467789Y775522D01*
X465822D01*
X469757Y774866D02*
X470413Y775522D01*
X471725D01*
X472381Y774866D01*
Y774210D01*
X471725Y773555D01*
X471069D01*
X471725D01*
X472381Y772898D01*
Y772243D01*
X471725Y771587D01*
X470413D01*
X469757Y772243D01*
X495386Y866022D02*
Y862087D01*
X498010D01*
X499322Y866022D02*
Y862087D01*
X501289D01*
X501945Y862743D01*
Y865366D01*
X501289Y866022D01*
X499322D01*
X505225Y862087D02*
Y866022D01*
X503257Y864054D01*
X505881D01*
X300386Y907087D02*
Y911022D01*
X302354D01*
X303010Y910366D01*
Y909054D01*
X302354Y908399D01*
X300386D01*
X304322Y907087D02*
X305633D01*
X304977D01*
Y911022D01*
X304322Y910366D01*
X435510Y797243D02*
Y799866D01*
X434854Y800522D01*
X433542D01*
X432886Y799866D01*
Y797243D01*
X433542Y796587D01*
X434854D01*
X434198Y797898D02*
X435510Y796587D01*
X434854D02*
X435510Y797243D01*
X436822Y796587D02*
X438133D01*
X437477D01*
Y800522D01*
X436822Y799866D01*
X439510Y870366D02*
X438854Y871022D01*
X437542D01*
X436886Y870366D01*
Y869710D01*
X437542Y869055D01*
X438854D01*
X439510Y868398D01*
Y867743D01*
X438854Y867087D01*
X437542D01*
X436886Y867743D01*
X440822Y871022D02*
Y867087D01*
X442134Y868398D01*
X443445Y867087D01*
Y871022D01*
X444757Y867087D02*
X446069D01*
X445413D01*
Y871022D01*
X444757Y870366D01*
X327386Y714087D02*
Y718022D01*
X329354D01*
X330010Y717366D01*
Y716054D01*
X329354Y715399D01*
X327386D01*
X333289Y714087D02*
Y718022D01*
X331322Y716054D01*
X333945D01*
X507878Y834402D02*
Y838337D01*
X509846D01*
X510502Y837681D01*
Y836369D01*
X509846Y835713D01*
X507878D01*
X509190D02*
X510502Y834402D01*
X514437Y838337D02*
X511814D01*
Y834402D01*
X514437D01*
X511814Y836369D02*
X513126D01*
X515749Y838337D02*
Y834402D01*
X518373D01*
X522309Y838337D02*
X519685D01*
Y834402D01*
X522309D01*
X519685Y836369D02*
X520997D01*
X523621Y834402D02*
X524933D01*
X524277D01*
Y838337D01*
X523621Y837681D01*
X490886Y675587D02*
Y679522D01*
X492854D01*
X493510Y678866D01*
Y677555D01*
X492854Y676898D01*
X490886D01*
X492198D02*
X493510Y675587D01*
X494822D02*
X496134D01*
X495477D01*
Y679522D01*
X494822Y678866D01*
X498101Y675587D02*
X499413D01*
X498757D01*
Y679522D01*
X498101Y678866D01*
X523386Y752587D02*
Y756522D01*
X525354D01*
X526010Y755866D01*
Y754555D01*
X525354Y753898D01*
X523386D01*
X524698D02*
X526010Y752587D01*
X527322D02*
X528633D01*
X527978D01*
Y756522D01*
X527322Y755866D01*
X533225Y752587D02*
X530601D01*
X533225Y755210D01*
Y755866D01*
X532569Y756522D01*
X531257D01*
X530601Y755866D01*
X370010Y805866D02*
X369354Y806522D01*
X368042D01*
X367386Y805866D01*
Y803243D01*
X368042Y802587D01*
X369354D01*
X370010Y803243D01*
X373289Y802587D02*
Y806522D01*
X371322Y804554D01*
X373945D01*
X767600Y930366D02*
X766944Y931022D01*
X765632D01*
X764976Y930366D01*
Y929710D01*
X765632Y929055D01*
X766944D01*
X767600Y928399D01*
Y927743D01*
X766944Y927087D01*
X765632D01*
X764976Y927743D01*
X768912Y931022D02*
Y927087D01*
X770224Y928399D01*
X771536Y927087D01*
Y931022D01*
X775472Y927087D02*
X772848D01*
X775472Y929710D01*
Y930366D01*
X774816Y931022D01*
X773504D01*
X772848Y930366D01*
X630476Y816087D02*
X626541D01*
Y818054D01*
X627197Y818710D01*
X628509D01*
X629165Y818054D01*
Y816087D01*
X630476Y822646D02*
Y820022D01*
X627853Y822646D01*
X627197D01*
X626541Y821990D01*
Y820678D01*
X627197Y820022D01*
X581168Y765522D02*
Y761587D01*
X583136D01*
X583791Y762243D01*
Y764866D01*
X583136Y765522D01*
X581168D01*
X585103Y761587D02*
X586415D01*
X585759D01*
Y765522D01*
X585103Y764866D01*
X639976Y783022D02*
Y779087D01*
X642600D01*
X643912Y783022D02*
Y779087D01*
X645880D01*
X646536Y779743D01*
Y782366D01*
X645880Y783022D01*
X643912D01*
X647848Y779087D02*
X649160D01*
X648504D01*
Y783022D01*
X647848Y782366D01*
X780476Y775022D02*
Y771087D01*
X783100D01*
X784412Y775022D02*
Y771087D01*
X786380D01*
X787036Y771743D01*
Y774366D01*
X786380Y775022D01*
X784412D01*
X790972Y771087D02*
X788348D01*
X790972Y773710D01*
Y774366D01*
X790316Y775022D01*
X789004D01*
X788348Y774366D01*
X737476Y775522D02*
Y771587D01*
X740100D01*
X741412Y775522D02*
Y771587D01*
X743380D01*
X744036Y772243D01*
Y774866D01*
X743380Y775522D01*
X741412D01*
X745348Y774866D02*
X746004Y775522D01*
X747316D01*
X747972Y774866D01*
Y774210D01*
X747316Y773555D01*
X746660D01*
X747316D01*
X747972Y772898D01*
Y772243D01*
X747316Y771587D01*
X746004D01*
X745348Y772243D01*
X770976Y866022D02*
Y862087D01*
X773600D01*
X774912Y866022D02*
Y862087D01*
X776880D01*
X777536Y862743D01*
Y865366D01*
X776880Y866022D01*
X774912D01*
X780816Y862087D02*
Y866022D01*
X778848Y864054D01*
X781472D01*
X575976Y907087D02*
Y911022D01*
X577944D01*
X578600Y910366D01*
Y909054D01*
X577944Y908399D01*
X575976D01*
X579912Y907087D02*
X581224D01*
X580568D01*
Y911022D01*
X579912Y910366D01*
X711100Y797243D02*
Y799866D01*
X710444Y800522D01*
X709132D01*
X708476Y799866D01*
Y797243D01*
X709132Y796587D01*
X710444D01*
X709788Y797898D02*
X711100Y796587D01*
X710444D02*
X711100Y797243D01*
X712412Y796587D02*
X713724D01*
X713068D01*
Y800522D01*
X712412Y799866D01*
X715100Y870366D02*
X714444Y871022D01*
X713132D01*
X712476Y870366D01*
Y869710D01*
X713132Y869055D01*
X714444D01*
X715100Y868398D01*
Y867743D01*
X714444Y867087D01*
X713132D01*
X712476Y867743D01*
X716412Y871022D02*
Y867087D01*
X717724Y868398D01*
X719036Y867087D01*
Y871022D01*
X720348Y867087D02*
X721660D01*
X721004D01*
Y871022D01*
X720348Y870366D01*
X602976Y714087D02*
Y718022D01*
X604944D01*
X605600Y717366D01*
Y716054D01*
X604944Y715399D01*
X602976D01*
X608880Y714087D02*
Y718022D01*
X606912Y716054D01*
X609536D01*
X783468Y834402D02*
Y838337D01*
X785436D01*
X786092Y837681D01*
Y836369D01*
X785436Y835713D01*
X783468D01*
X784780D02*
X786092Y834402D01*
X790028Y838337D02*
X787404D01*
Y834402D01*
X790028D01*
X787404Y836369D02*
X788716D01*
X791340Y838337D02*
Y834402D01*
X793964D01*
X797899Y838337D02*
X795276D01*
Y834402D01*
X797899D01*
X795276Y836369D02*
X796588D01*
X799212Y834402D02*
X800523D01*
X799867D01*
Y838337D01*
X799212Y837681D01*
X766476Y675587D02*
Y679522D01*
X768444D01*
X769100Y678866D01*
Y677555D01*
X768444Y676898D01*
X766476D01*
X767788D02*
X769100Y675587D01*
X770412D02*
X771724D01*
X771068D01*
Y679522D01*
X770412Y678866D01*
X773692Y675587D02*
X775004D01*
X774348D01*
Y679522D01*
X773692Y678866D01*
X798976Y752587D02*
Y756522D01*
X800944D01*
X801600Y755866D01*
Y754555D01*
X800944Y753898D01*
X798976D01*
X800288D02*
X801600Y752587D01*
X802912D02*
X804224D01*
X803568D01*
Y756522D01*
X802912Y755866D01*
X808816Y752587D02*
X806192D01*
X808816Y755210D01*
Y755866D01*
X808160Y756522D01*
X806848D01*
X806192Y755866D01*
X645600Y805866D02*
X644944Y806522D01*
X643632D01*
X642976Y805866D01*
Y803243D01*
X643632Y802587D01*
X644944D01*
X645600Y803243D01*
X648880Y802587D02*
Y806522D01*
X646912Y804554D01*
X649536D01*
X1043191Y930366D02*
X1042535Y931022D01*
X1041223D01*
X1040567Y930366D01*
Y929710D01*
X1041223Y929055D01*
X1042535D01*
X1043191Y928399D01*
Y927743D01*
X1042535Y927087D01*
X1041223D01*
X1040567Y927743D01*
X1044503Y931022D02*
Y927087D01*
X1045815Y928399D01*
X1047126Y927087D01*
Y931022D01*
X1051062Y927087D02*
X1048438D01*
X1051062Y929710D01*
Y930366D01*
X1050406Y931022D01*
X1049094D01*
X1048438Y930366D01*
X906067Y816087D02*
X902131D01*
Y818054D01*
X902787Y818710D01*
X904099D01*
X904755Y818054D01*
Y816087D01*
X906067Y822646D02*
Y820022D01*
X903443Y822646D01*
X902787D01*
X902131Y821990D01*
Y820678D01*
X902787Y820022D01*
X856758Y765522D02*
Y761587D01*
X858726D01*
X859382Y762243D01*
Y764866D01*
X858726Y765522D01*
X856758D01*
X860694Y761587D02*
X862006D01*
X861350D01*
Y765522D01*
X860694Y764866D01*
X915567Y783022D02*
Y779087D01*
X918191D01*
X919503Y783022D02*
Y779087D01*
X921471D01*
X922126Y779743D01*
Y782366D01*
X921471Y783022D01*
X919503D01*
X923438Y779087D02*
X924750D01*
X924094D01*
Y783022D01*
X923438Y782366D01*
X1056067Y775022D02*
Y771087D01*
X1058691D01*
X1060003Y775022D02*
Y771087D01*
X1061971D01*
X1062626Y771743D01*
Y774366D01*
X1061971Y775022D01*
X1060003D01*
X1066562Y771087D02*
X1063938D01*
X1066562Y773710D01*
Y774366D01*
X1065906Y775022D01*
X1064594D01*
X1063938Y774366D01*
X1013067Y775522D02*
Y771587D01*
X1015691D01*
X1017003Y775522D02*
Y771587D01*
X1018970D01*
X1019627Y772243D01*
Y774866D01*
X1018970Y775522D01*
X1017003D01*
X1020938Y774866D02*
X1021594Y775522D01*
X1022906D01*
X1023562Y774866D01*
Y774210D01*
X1022906Y773555D01*
X1022250D01*
X1022906D01*
X1023562Y772898D01*
Y772243D01*
X1022906Y771587D01*
X1021594D01*
X1020938Y772243D01*
X1046567Y866022D02*
Y862087D01*
X1049191D01*
X1050503Y866022D02*
Y862087D01*
X1052470D01*
X1053127Y862743D01*
Y865366D01*
X1052470Y866022D01*
X1050503D01*
X1056406Y862087D02*
Y866022D01*
X1054438Y864054D01*
X1057062D01*
X851567Y907087D02*
Y911022D01*
X853535D01*
X854191Y910366D01*
Y909054D01*
X853535Y908399D01*
X851567D01*
X855503Y907087D02*
X856815D01*
X856159D01*
Y911022D01*
X855503Y910366D01*
X986691Y797243D02*
Y799866D01*
X986035Y800522D01*
X984723D01*
X984067Y799866D01*
Y797243D01*
X984723Y796587D01*
X986035D01*
X985379Y797898D02*
X986691Y796587D01*
X986035D02*
X986691Y797243D01*
X988003Y796587D02*
X989315D01*
X988659D01*
Y800522D01*
X988003Y799866D01*
X990691Y870366D02*
X990035Y871022D01*
X988723D01*
X988067Y870366D01*
Y869710D01*
X988723Y869055D01*
X990035D01*
X990691Y868398D01*
Y867743D01*
X990035Y867087D01*
X988723D01*
X988067Y867743D01*
X992003Y871022D02*
Y867087D01*
X993315Y868398D01*
X994627Y867087D01*
Y871022D01*
X995938Y867087D02*
X997250D01*
X996594D01*
Y871022D01*
X995938Y870366D01*
X878567Y714087D02*
Y718022D01*
X880535D01*
X881191Y717366D01*
Y716054D01*
X880535Y715399D01*
X878567D01*
X884470Y714087D02*
Y718022D01*
X882503Y716054D01*
X885126D01*
X1059059Y834402D02*
Y838337D01*
X1061027D01*
X1061683Y837681D01*
Y836369D01*
X1061027Y835713D01*
X1059059D01*
X1060371D02*
X1061683Y834402D01*
X1065619Y838337D02*
X1062995D01*
Y834402D01*
X1065619D01*
X1062995Y836369D02*
X1064307D01*
X1066930Y838337D02*
Y834402D01*
X1069554D01*
X1073490Y838337D02*
X1070866D01*
Y834402D01*
X1073490D01*
X1070866Y836369D02*
X1072178D01*
X1074802Y834402D02*
X1076114D01*
X1075458D01*
Y838337D01*
X1074802Y837681D01*
X1042067Y675587D02*
Y679522D01*
X1044035D01*
X1044691Y678866D01*
Y677555D01*
X1044035Y676898D01*
X1042067D01*
X1043379D02*
X1044691Y675587D01*
X1046003D02*
X1047315D01*
X1046659D01*
Y679522D01*
X1046003Y678866D01*
X1049282Y675587D02*
X1050594D01*
X1049938D01*
Y679522D01*
X1049282Y678866D01*
X1074567Y752587D02*
Y756522D01*
X1076535D01*
X1077191Y755866D01*
Y754555D01*
X1076535Y753898D01*
X1074567D01*
X1075879D02*
X1077191Y752587D01*
X1078503D02*
X1079815D01*
X1079159D01*
Y756522D01*
X1078503Y755866D01*
X1084406Y752587D02*
X1081783D01*
X1084406Y755210D01*
Y755866D01*
X1083750Y756522D01*
X1082438D01*
X1081783Y755866D01*
X921191Y805866D02*
X920535Y806522D01*
X919223D01*
X918567Y805866D01*
Y803243D01*
X919223Y802587D01*
X920535D01*
X921191Y803243D01*
X924471Y802587D02*
Y806522D01*
X922503Y804554D01*
X925126D01*
M02*
