G04 Layer_Color=8388736*
%FSLAX25Y25*%
%MOIN*%
G70*
G01*
G75*
%ADD42C,0.20485*%
%ADD43C,0.04737*%
%ADD44C,0.13874*%
%ADD45C,0.06800*%
%ADD46C,0.07887*%
%ADD47C,0.08674*%
G04:AMPARAMS|DCode=48|XSize=165.48mil|YSize=86.74mil|CornerRadius=23.68mil|HoleSize=0mil|Usage=FLASHONLY|Rotation=90.000|XOffset=0mil|YOffset=0mil|HoleType=Round|Shape=RoundedRectangle|*
%AMROUNDEDRECTD48*
21,1,0.16548,0.03937,0,0,90.0*
21,1,0.11811,0.08674,0,0,90.0*
1,1,0.04737,0.01968,0.05905*
1,1,0.04737,0.01968,-0.05905*
1,1,0.04737,-0.01968,-0.05905*
1,1,0.04737,-0.01968,0.05905*
%
%ADD48ROUNDEDRECTD48*%
G04:AMPARAMS|DCode=49|XSize=165.48mil|YSize=86.74mil|CornerRadius=23.68mil|HoleSize=0mil|Usage=FLASHONLY|Rotation=0.000|XOffset=0mil|YOffset=0mil|HoleType=Round|Shape=RoundedRectangle|*
%AMROUNDEDRECTD49*
21,1,0.16548,0.03937,0,0,0.0*
21,1,0.11811,0.08674,0,0,0.0*
1,1,0.04737,0.05905,-0.01968*
1,1,0.04737,-0.05905,-0.01968*
1,1,0.04737,-0.05905,0.01968*
1,1,0.04737,0.05905,0.01968*
%
%ADD49ROUNDEDRECTD49*%
%ADD50C,0.12611*%
%ADD51R,0.07887X0.07887*%
%ADD52C,0.10642*%
%ADD53C,0.07099*%
D42*
X340551Y557299D02*
D03*
X372047Y556299D02*
D03*
X616142Y557299D02*
D03*
X647638Y556299D02*
D03*
X891732Y557299D02*
D03*
X923228Y556299D02*
D03*
X340551Y848638D02*
D03*
X372047Y847638D02*
D03*
X616142Y848638D02*
D03*
X647638Y847638D02*
D03*
X891732Y848638D02*
D03*
X923228Y847638D02*
D03*
X295276Y397638D02*
D03*
X531496D02*
D03*
Y633858D02*
D03*
X295276D02*
D03*
X570866Y397638D02*
D03*
X807087D02*
D03*
Y633858D02*
D03*
X570866D02*
D03*
X846457Y397638D02*
D03*
X1082677D02*
D03*
Y633858D02*
D03*
X846457D02*
D03*
X295276Y688976D02*
D03*
X531496D02*
D03*
Y925197D02*
D03*
X295276D02*
D03*
X570866Y688976D02*
D03*
X807087D02*
D03*
Y925197D02*
D03*
X570866D02*
D03*
X846457Y688976D02*
D03*
X1082677D02*
D03*
Y925197D02*
D03*
X846457D02*
D03*
D43*
X314961Y960630D02*
D03*
X1062992D02*
D03*
X314961Y362205D02*
D03*
X1062992D02*
D03*
D44*
X334646Y960630D02*
D03*
X1043307D02*
D03*
X334646Y362205D02*
D03*
X1043307D02*
D03*
D45*
X295276Y960630D02*
D03*
X1082677D02*
D03*
X295276Y362205D02*
D03*
X1082677D02*
D03*
X329146Y451532D02*
D03*
X330709D02*
D03*
X332677D02*
D03*
X326772D02*
D03*
X324803D02*
D03*
X333303Y464032D02*
D03*
X335272D02*
D03*
X341177D02*
D03*
X339209D02*
D03*
X337646D02*
D03*
X316929Y469689D02*
D03*
Y471658D02*
D03*
Y477563D02*
D03*
Y475595D02*
D03*
Y474031D02*
D03*
X463386Y488748D02*
D03*
X359386Y527748D02*
D03*
X604736Y451532D02*
D03*
X606299D02*
D03*
X608268D02*
D03*
X602362D02*
D03*
X600394D02*
D03*
X608894Y464032D02*
D03*
X610862D02*
D03*
X616768D02*
D03*
X614799D02*
D03*
X613236D02*
D03*
X592520Y469689D02*
D03*
Y471658D02*
D03*
Y477563D02*
D03*
Y475595D02*
D03*
Y474031D02*
D03*
X738976Y488748D02*
D03*
X634976Y527748D02*
D03*
X880327Y451532D02*
D03*
X881890D02*
D03*
X883858D02*
D03*
X877953D02*
D03*
X875984D02*
D03*
X884484Y464032D02*
D03*
X886453D02*
D03*
X892358D02*
D03*
X890390D02*
D03*
X888827D02*
D03*
X868110Y469689D02*
D03*
Y471658D02*
D03*
Y477563D02*
D03*
Y475595D02*
D03*
Y474031D02*
D03*
X1014567Y488748D02*
D03*
X910567Y527748D02*
D03*
X329146Y742870D02*
D03*
X330709D02*
D03*
X332677D02*
D03*
X326772D02*
D03*
X324803D02*
D03*
X333303Y755370D02*
D03*
X335272D02*
D03*
X341177D02*
D03*
X339209D02*
D03*
X337646D02*
D03*
X316929Y761028D02*
D03*
Y762996D02*
D03*
Y768902D02*
D03*
Y766933D02*
D03*
Y765370D02*
D03*
X463386Y780087D02*
D03*
X359386Y819087D02*
D03*
X604736Y742870D02*
D03*
X606299D02*
D03*
X608268D02*
D03*
X602362D02*
D03*
X600394D02*
D03*
X608894Y755370D02*
D03*
X610862D02*
D03*
X616768D02*
D03*
X614799D02*
D03*
X613236D02*
D03*
X592520Y761028D02*
D03*
Y762996D02*
D03*
Y768902D02*
D03*
Y766933D02*
D03*
Y765370D02*
D03*
X738976Y780087D02*
D03*
X634976Y819087D02*
D03*
X880327Y742870D02*
D03*
X881890D02*
D03*
X883858D02*
D03*
X877953D02*
D03*
X875984D02*
D03*
X884484Y755370D02*
D03*
X886453D02*
D03*
X892358D02*
D03*
X890390D02*
D03*
X888827D02*
D03*
X868110Y761028D02*
D03*
Y762996D02*
D03*
Y768902D02*
D03*
Y766933D02*
D03*
Y765370D02*
D03*
X1014567Y780087D02*
D03*
X910567Y819087D02*
D03*
D46*
X377953Y478622D02*
D03*
Y468622D02*
D03*
X487126Y473622D02*
D03*
X497126D02*
D03*
X448819Y468622D02*
D03*
Y478622D02*
D03*
X492126Y551299D02*
D03*
Y561299D02*
D03*
X455787Y499248D02*
D03*
X445787Y532248D02*
D03*
X455787D02*
D03*
X313386Y607248D02*
D03*
Y587248D02*
D03*
Y597248D02*
D03*
Y617248D02*
D03*
X333886Y527748D02*
D03*
X343886D02*
D03*
X361886Y456748D02*
D03*
X537386Y550748D02*
D03*
X464886Y626748D02*
D03*
X425886Y501248D02*
D03*
X412886Y468748D02*
D03*
X653543Y478622D02*
D03*
Y468622D02*
D03*
X762716Y473622D02*
D03*
X772717D02*
D03*
X724409Y468622D02*
D03*
Y478622D02*
D03*
X767717Y551299D02*
D03*
Y561299D02*
D03*
X731378Y499248D02*
D03*
X721378Y532248D02*
D03*
X731378D02*
D03*
X588976Y607248D02*
D03*
Y587248D02*
D03*
Y597248D02*
D03*
Y617248D02*
D03*
X609476Y527748D02*
D03*
X619476D02*
D03*
X637476Y456748D02*
D03*
X812976Y550748D02*
D03*
X740476Y626748D02*
D03*
X701476Y501248D02*
D03*
X688476Y468748D02*
D03*
X929134Y478622D02*
D03*
Y468622D02*
D03*
X1038307Y473622D02*
D03*
X1048307D02*
D03*
X1000000Y468622D02*
D03*
Y478622D02*
D03*
X1043307Y551299D02*
D03*
Y561299D02*
D03*
X1006968Y499248D02*
D03*
X996968Y532248D02*
D03*
X1006968D02*
D03*
X864567Y607248D02*
D03*
Y587248D02*
D03*
Y597248D02*
D03*
Y617248D02*
D03*
X885067Y527748D02*
D03*
X895067D02*
D03*
X913067Y456748D02*
D03*
X1088567Y550748D02*
D03*
X1016067Y626748D02*
D03*
X977067Y501248D02*
D03*
X964067Y468748D02*
D03*
X377953Y769961D02*
D03*
Y759961D02*
D03*
X487126Y764961D02*
D03*
X497126D02*
D03*
X448819Y759961D02*
D03*
Y769961D02*
D03*
X492126Y842638D02*
D03*
Y852638D02*
D03*
X455787Y790587D02*
D03*
X445787Y823587D02*
D03*
X455787D02*
D03*
X313386Y898587D02*
D03*
Y878587D02*
D03*
Y888587D02*
D03*
Y908587D02*
D03*
X333886Y819087D02*
D03*
X343886D02*
D03*
X361886Y748087D02*
D03*
X537386Y842087D02*
D03*
X464886Y918087D02*
D03*
X425886Y792587D02*
D03*
X412886Y760087D02*
D03*
X653543Y769961D02*
D03*
Y759961D02*
D03*
X762716Y764961D02*
D03*
X772717D02*
D03*
X724409Y759961D02*
D03*
Y769961D02*
D03*
X767717Y842638D02*
D03*
Y852638D02*
D03*
X731378Y790587D02*
D03*
X721378Y823587D02*
D03*
X731378D02*
D03*
X588976Y898587D02*
D03*
Y878587D02*
D03*
Y888587D02*
D03*
Y908587D02*
D03*
X609476Y819087D02*
D03*
X619476D02*
D03*
X637476Y748087D02*
D03*
X812976Y842087D02*
D03*
X740476Y918087D02*
D03*
X701476Y792587D02*
D03*
X688476Y760087D02*
D03*
X929134Y769961D02*
D03*
Y759961D02*
D03*
X1038307Y764961D02*
D03*
X1048307D02*
D03*
X1000000Y759961D02*
D03*
Y769961D02*
D03*
X1043307Y842638D02*
D03*
Y852638D02*
D03*
X1006968Y790587D02*
D03*
X996968Y823587D02*
D03*
X1006968D02*
D03*
X864567Y898587D02*
D03*
Y878587D02*
D03*
Y888587D02*
D03*
Y908587D02*
D03*
X885067Y819087D02*
D03*
X895067D02*
D03*
X913067Y748087D02*
D03*
X1088567Y842087D02*
D03*
X1016067Y918087D02*
D03*
X977067Y792587D02*
D03*
X964067Y760087D02*
D03*
D47*
X457677Y569095D02*
D03*
Y543504D02*
D03*
X439961Y569095D02*
D03*
Y543504D02*
D03*
X476378Y515748D02*
D03*
X486221Y535433D02*
D03*
Y496063D02*
D03*
X526378Y535433D02*
D03*
Y496063D02*
D03*
X481591Y630106D02*
D03*
X507181D02*
D03*
X481591Y612390D02*
D03*
X507181D02*
D03*
X306386Y572248D02*
D03*
X733268Y569095D02*
D03*
Y543504D02*
D03*
X715551Y569095D02*
D03*
Y543504D02*
D03*
X751968Y515748D02*
D03*
X761811Y535433D02*
D03*
Y496063D02*
D03*
X801968Y535433D02*
D03*
Y496063D02*
D03*
X757181Y630106D02*
D03*
X782772D02*
D03*
X757181Y612390D02*
D03*
X782772D02*
D03*
X581976Y572248D02*
D03*
X1008858Y569095D02*
D03*
Y543504D02*
D03*
X991142Y569095D02*
D03*
Y543504D02*
D03*
X1027559Y515748D02*
D03*
X1037402Y535433D02*
D03*
Y496063D02*
D03*
X1077559Y535433D02*
D03*
Y496063D02*
D03*
X1032772Y630106D02*
D03*
X1058362D02*
D03*
X1032772Y612390D02*
D03*
X1058362D02*
D03*
X857567Y572248D02*
D03*
X457677Y860433D02*
D03*
Y834842D02*
D03*
X439961Y860433D02*
D03*
Y834842D02*
D03*
X476378Y807087D02*
D03*
X486221Y826772D02*
D03*
Y787402D02*
D03*
X526378Y826772D02*
D03*
Y787402D02*
D03*
X481591Y921445D02*
D03*
X507181D02*
D03*
X481591Y903728D02*
D03*
X507181D02*
D03*
X306386Y863587D02*
D03*
X733268Y860433D02*
D03*
Y834842D02*
D03*
X715551Y860433D02*
D03*
Y834842D02*
D03*
X751968Y807087D02*
D03*
X761811Y826772D02*
D03*
Y787402D02*
D03*
X801968Y826772D02*
D03*
Y787402D02*
D03*
X757181Y921445D02*
D03*
X782772D02*
D03*
X757181Y903728D02*
D03*
X782772D02*
D03*
X581976Y863587D02*
D03*
X1008858Y860433D02*
D03*
Y834842D02*
D03*
X991142Y860433D02*
D03*
Y834842D02*
D03*
X1027559Y807087D02*
D03*
X1037402Y826772D02*
D03*
Y787402D02*
D03*
X1077559Y826772D02*
D03*
Y787402D02*
D03*
X1032772Y921445D02*
D03*
X1058362D02*
D03*
X1032772Y903728D02*
D03*
X1058362D02*
D03*
X857567Y863587D02*
D03*
D48*
X316929Y474031D02*
D03*
X592520D02*
D03*
X868110D02*
D03*
X316929Y765370D02*
D03*
X592520D02*
D03*
X868110D02*
D03*
D49*
X337646Y464032D02*
D03*
X329146Y451532D02*
D03*
X613236Y464032D02*
D03*
X604736Y451532D02*
D03*
X888827Y464032D02*
D03*
X880327Y451532D02*
D03*
X337646Y755370D02*
D03*
X329146Y742870D02*
D03*
X613236Y755370D02*
D03*
X604736Y742870D02*
D03*
X888827Y755370D02*
D03*
X880327Y742870D02*
D03*
D50*
X334646Y499031D02*
D03*
X334146Y438531D02*
D03*
X610236Y499031D02*
D03*
X609736Y438531D02*
D03*
X885827Y499031D02*
D03*
X885327Y438531D02*
D03*
X334646Y790370D02*
D03*
X334146Y729870D02*
D03*
X610236Y790370D02*
D03*
X609736Y729870D02*
D03*
X885827Y790370D02*
D03*
X885327Y729870D02*
D03*
D51*
X445787Y499248D02*
D03*
X721378D02*
D03*
X996968D02*
D03*
X445787Y790587D02*
D03*
X721378D02*
D03*
X996968D02*
D03*
D52*
X296577Y486433D02*
D03*
Y447063D02*
D03*
X490886Y398248D02*
D03*
X333405D02*
D03*
X531866Y438748D02*
D03*
X374386D02*
D03*
X572168Y486433D02*
D03*
Y447063D02*
D03*
X766476Y398248D02*
D03*
X608996D02*
D03*
X807457Y438748D02*
D03*
X649976D02*
D03*
X847758Y486433D02*
D03*
Y447063D02*
D03*
X1042067Y398248D02*
D03*
X884587D02*
D03*
X1083047Y438748D02*
D03*
X925567D02*
D03*
X296577Y777772D02*
D03*
Y738402D02*
D03*
X490886Y689587D02*
D03*
X333405D02*
D03*
X531866Y730087D02*
D03*
X374386D02*
D03*
X572168Y777772D02*
D03*
Y738402D02*
D03*
X766476Y689587D02*
D03*
X608996D02*
D03*
X807457Y730087D02*
D03*
X649976D02*
D03*
X847758Y777772D02*
D03*
Y738402D02*
D03*
X1042067Y689587D02*
D03*
X884587D02*
D03*
X1083047Y730087D02*
D03*
X925567D02*
D03*
D53*
X387543Y511748D02*
D03*
X407228D02*
D03*
X663134D02*
D03*
X682819D02*
D03*
X938724D02*
D03*
X958409D02*
D03*
X387543Y803087D02*
D03*
X407228D02*
D03*
X663134D02*
D03*
X682819D02*
D03*
X938724D02*
D03*
X958409D02*
D03*
M02*
