G04 Layer_Color=128*
%FSLAX25Y25*%
%MOIN*%
G70*
G01*
G75*
%ADD23R,0.05905X0.05118*%
%ADD24R,0.05118X0.05905*%
%ADD25R,0.19685X0.19685*%
%ADD26R,0.03543X0.09842*%
%ADD27R,0.09842X0.03543*%
%ADD28R,0.03150X0.04724*%
%ADD29R,0.04724X0.03150*%
%ADD30R,0.06299X0.11811*%
%ADD31R,0.23622X0.27559*%
D23*
X455886Y594776D02*
D03*
Y585720D02*
D03*
X468886Y603221D02*
D03*
Y612276D02*
D03*
X455386Y641776D02*
D03*
Y632721D02*
D03*
Y621276D02*
D03*
Y612220D02*
D03*
X425646Y552303D02*
D03*
Y543248D02*
D03*
X496886Y458776D02*
D03*
Y449720D02*
D03*
X471386Y585776D02*
D03*
Y576721D02*
D03*
X487886D02*
D03*
Y585776D02*
D03*
X412886Y538276D02*
D03*
Y529220D02*
D03*
X731476Y594776D02*
D03*
Y585720D02*
D03*
X744476Y603221D02*
D03*
Y612276D02*
D03*
X730976Y641776D02*
D03*
Y632721D02*
D03*
Y621276D02*
D03*
Y612220D02*
D03*
X701236Y552303D02*
D03*
Y543248D02*
D03*
X772476Y458776D02*
D03*
Y449720D02*
D03*
X746976Y585776D02*
D03*
Y576721D02*
D03*
X763476D02*
D03*
Y585776D02*
D03*
X688476Y538276D02*
D03*
Y529220D02*
D03*
X1007067Y594776D02*
D03*
Y585720D02*
D03*
X1020067Y603221D02*
D03*
Y612276D02*
D03*
X1006567Y641776D02*
D03*
Y632721D02*
D03*
Y621276D02*
D03*
Y612220D02*
D03*
X976827Y552303D02*
D03*
Y543248D02*
D03*
X1048067Y458776D02*
D03*
Y449720D02*
D03*
X1022567Y585776D02*
D03*
Y576721D02*
D03*
X1039067D02*
D03*
Y585776D02*
D03*
X964067Y538276D02*
D03*
Y529220D02*
D03*
X455886Y886114D02*
D03*
Y877059D02*
D03*
X468886Y894559D02*
D03*
Y903614D02*
D03*
X455386Y933114D02*
D03*
Y924059D02*
D03*
Y912614D02*
D03*
Y903559D02*
D03*
X425646Y843642D02*
D03*
Y834587D02*
D03*
X496886Y750114D02*
D03*
Y741059D02*
D03*
X471386Y877114D02*
D03*
Y868059D02*
D03*
X487886D02*
D03*
Y877114D02*
D03*
X412886Y829614D02*
D03*
Y820559D02*
D03*
X731476Y886114D02*
D03*
Y877059D02*
D03*
X744476Y894559D02*
D03*
Y903614D02*
D03*
X730976Y933114D02*
D03*
Y924059D02*
D03*
Y912614D02*
D03*
Y903559D02*
D03*
X701236Y843642D02*
D03*
Y834587D02*
D03*
X772476Y750114D02*
D03*
Y741059D02*
D03*
X746976Y877114D02*
D03*
Y868059D02*
D03*
X763476D02*
D03*
Y877114D02*
D03*
X688476Y829614D02*
D03*
Y820559D02*
D03*
X1007067Y886114D02*
D03*
Y877059D02*
D03*
X1020067Y894559D02*
D03*
Y903614D02*
D03*
X1006567Y933114D02*
D03*
Y924059D02*
D03*
Y912614D02*
D03*
Y903559D02*
D03*
X976827Y843642D02*
D03*
Y834587D02*
D03*
X1048067Y750114D02*
D03*
Y741059D02*
D03*
X1022567Y877114D02*
D03*
Y868059D02*
D03*
X1039067D02*
D03*
Y877114D02*
D03*
X964067Y829614D02*
D03*
Y820559D02*
D03*
D24*
X305913Y500248D02*
D03*
X296858D02*
D03*
X287358Y432248D02*
D03*
X296413D02*
D03*
X368858Y489748D02*
D03*
X377913D02*
D03*
X516858Y551248D02*
D03*
X525913D02*
D03*
X453358Y515748D02*
D03*
X462413D02*
D03*
X435413Y468748D02*
D03*
X426358D02*
D03*
X412913Y479748D02*
D03*
X403858D02*
D03*
X426358Y457248D02*
D03*
X435413D02*
D03*
X581504Y500248D02*
D03*
X572449D02*
D03*
X562949Y432248D02*
D03*
X572004D02*
D03*
X644449Y489748D02*
D03*
X653504D02*
D03*
X792449Y551248D02*
D03*
X801504D02*
D03*
X728949Y515748D02*
D03*
X738004D02*
D03*
X711004Y468748D02*
D03*
X701949D02*
D03*
X688504Y479748D02*
D03*
X679449D02*
D03*
X701949Y457248D02*
D03*
X711004D02*
D03*
X857094Y500248D02*
D03*
X848039D02*
D03*
X838539Y432248D02*
D03*
X847595D02*
D03*
X920039Y489748D02*
D03*
X929095D02*
D03*
X1068039Y551248D02*
D03*
X1077094D02*
D03*
X1004539Y515748D02*
D03*
X1013595D02*
D03*
X986594Y468748D02*
D03*
X977539D02*
D03*
X964095Y479748D02*
D03*
X955039D02*
D03*
X977539Y457248D02*
D03*
X986594D02*
D03*
X305913Y791587D02*
D03*
X296858D02*
D03*
X287358Y723587D02*
D03*
X296413D02*
D03*
X368858Y781087D02*
D03*
X377913D02*
D03*
X516858Y842587D02*
D03*
X525913D02*
D03*
X453358Y807087D02*
D03*
X462413D02*
D03*
X435413Y760087D02*
D03*
X426358D02*
D03*
X412913Y771087D02*
D03*
X403858D02*
D03*
X426358Y748587D02*
D03*
X435413D02*
D03*
X581504Y791587D02*
D03*
X572449D02*
D03*
X562949Y723587D02*
D03*
X572004D02*
D03*
X644449Y781087D02*
D03*
X653504D02*
D03*
X792449Y842587D02*
D03*
X801504D02*
D03*
X728949Y807087D02*
D03*
X738004D02*
D03*
X711004Y760087D02*
D03*
X701949D02*
D03*
X688504Y771087D02*
D03*
X679449D02*
D03*
X701949Y748587D02*
D03*
X711004D02*
D03*
X857094Y791587D02*
D03*
X848039D02*
D03*
X838539Y723587D02*
D03*
X847595D02*
D03*
X920039Y781087D02*
D03*
X929095D02*
D03*
X1068039Y842587D02*
D03*
X1077094D02*
D03*
X1004539Y807087D02*
D03*
X1013595D02*
D03*
X986594Y760087D02*
D03*
X977539D02*
D03*
X964095Y771087D02*
D03*
X955039D02*
D03*
X977539Y748587D02*
D03*
X986594D02*
D03*
D25*
X373228Y594882D02*
D03*
X648819D02*
D03*
X924409D02*
D03*
X373228Y886220D02*
D03*
X648819D02*
D03*
X924409D02*
D03*
D26*
X389921Y550433D02*
D03*
X394921D02*
D03*
X369921Y550394D02*
D03*
X374921D02*
D03*
X379921D02*
D03*
X384921D02*
D03*
X364921D02*
D03*
X359921D02*
D03*
X354921D02*
D03*
X349921D02*
D03*
X665512Y550433D02*
D03*
X670512D02*
D03*
X645512Y550394D02*
D03*
X650512D02*
D03*
X655512D02*
D03*
X660512D02*
D03*
X640512D02*
D03*
X635512D02*
D03*
X630512D02*
D03*
X625512D02*
D03*
X941102Y550433D02*
D03*
X946102D02*
D03*
X921102Y550394D02*
D03*
X926102D02*
D03*
X931102D02*
D03*
X936102D02*
D03*
X916102D02*
D03*
X911102D02*
D03*
X906102D02*
D03*
X901102D02*
D03*
X389921Y841772D02*
D03*
X394921D02*
D03*
X369921Y841732D02*
D03*
X374921D02*
D03*
X379921D02*
D03*
X384921D02*
D03*
X364921D02*
D03*
X359921D02*
D03*
X354921D02*
D03*
X349921D02*
D03*
X665512Y841772D02*
D03*
X670512D02*
D03*
X645512Y841732D02*
D03*
X650512D02*
D03*
X655512D02*
D03*
X660512D02*
D03*
X640512D02*
D03*
X635512D02*
D03*
X630512D02*
D03*
X625512D02*
D03*
X941102Y841772D02*
D03*
X946102D02*
D03*
X921102Y841732D02*
D03*
X926102D02*
D03*
X931102D02*
D03*
X936102D02*
D03*
X916102D02*
D03*
X911102D02*
D03*
X906102D02*
D03*
X901102D02*
D03*
D27*
X408622Y622087D02*
D03*
Y617087D02*
D03*
Y612087D02*
D03*
Y607087D02*
D03*
Y587087D02*
D03*
Y592087D02*
D03*
Y597087D02*
D03*
Y602087D02*
D03*
X408661Y562087D02*
D03*
Y557087D02*
D03*
Y567087D02*
D03*
Y572087D02*
D03*
Y577087D02*
D03*
Y582087D02*
D03*
X336221D02*
D03*
Y577087D02*
D03*
Y572087D02*
D03*
Y567087D02*
D03*
Y557087D02*
D03*
Y562087D02*
D03*
X336181Y602087D02*
D03*
Y597087D02*
D03*
Y592087D02*
D03*
Y587087D02*
D03*
Y607087D02*
D03*
Y612087D02*
D03*
Y617087D02*
D03*
Y622087D02*
D03*
X684213D02*
D03*
Y617087D02*
D03*
Y612087D02*
D03*
Y607087D02*
D03*
Y587087D02*
D03*
Y592087D02*
D03*
Y597087D02*
D03*
Y602087D02*
D03*
X684252Y562087D02*
D03*
Y557087D02*
D03*
Y567087D02*
D03*
Y572087D02*
D03*
Y577087D02*
D03*
Y582087D02*
D03*
X611811D02*
D03*
Y577087D02*
D03*
Y572087D02*
D03*
Y567087D02*
D03*
Y557087D02*
D03*
Y562087D02*
D03*
X611772Y602087D02*
D03*
Y597087D02*
D03*
Y592087D02*
D03*
Y587087D02*
D03*
Y607087D02*
D03*
Y612087D02*
D03*
Y617087D02*
D03*
Y622087D02*
D03*
X959803D02*
D03*
Y617087D02*
D03*
Y612087D02*
D03*
Y607087D02*
D03*
Y587087D02*
D03*
Y592087D02*
D03*
Y597087D02*
D03*
Y602087D02*
D03*
X959842Y562087D02*
D03*
Y557087D02*
D03*
Y567087D02*
D03*
Y572087D02*
D03*
Y577087D02*
D03*
Y582087D02*
D03*
X887402D02*
D03*
Y577087D02*
D03*
Y572087D02*
D03*
Y567087D02*
D03*
Y557087D02*
D03*
Y562087D02*
D03*
X887362Y602087D02*
D03*
Y597087D02*
D03*
Y592087D02*
D03*
Y587087D02*
D03*
Y607087D02*
D03*
Y612087D02*
D03*
Y617087D02*
D03*
Y622087D02*
D03*
X408622Y913425D02*
D03*
Y908425D02*
D03*
Y903425D02*
D03*
Y898425D02*
D03*
Y878425D02*
D03*
Y883425D02*
D03*
Y888425D02*
D03*
Y893425D02*
D03*
X408661Y853425D02*
D03*
Y848425D02*
D03*
Y858425D02*
D03*
Y863425D02*
D03*
Y868425D02*
D03*
Y873425D02*
D03*
X336221D02*
D03*
Y868425D02*
D03*
Y863425D02*
D03*
Y858425D02*
D03*
Y848425D02*
D03*
Y853425D02*
D03*
X336181Y893425D02*
D03*
Y888425D02*
D03*
Y883425D02*
D03*
Y878425D02*
D03*
Y898425D02*
D03*
Y903425D02*
D03*
Y908425D02*
D03*
Y913425D02*
D03*
X684213D02*
D03*
Y908425D02*
D03*
Y903425D02*
D03*
Y898425D02*
D03*
Y878425D02*
D03*
Y883425D02*
D03*
Y888425D02*
D03*
Y893425D02*
D03*
X684252Y853425D02*
D03*
Y848425D02*
D03*
Y858425D02*
D03*
Y863425D02*
D03*
Y868425D02*
D03*
Y873425D02*
D03*
X611811D02*
D03*
Y868425D02*
D03*
Y863425D02*
D03*
Y858425D02*
D03*
Y848425D02*
D03*
Y853425D02*
D03*
X611772Y893425D02*
D03*
Y888425D02*
D03*
Y883425D02*
D03*
Y878425D02*
D03*
Y898425D02*
D03*
Y903425D02*
D03*
Y908425D02*
D03*
Y913425D02*
D03*
X959803D02*
D03*
Y908425D02*
D03*
Y903425D02*
D03*
Y898425D02*
D03*
Y878425D02*
D03*
Y883425D02*
D03*
Y888425D02*
D03*
Y893425D02*
D03*
X959842Y853425D02*
D03*
Y848425D02*
D03*
Y858425D02*
D03*
Y863425D02*
D03*
Y868425D02*
D03*
Y873425D02*
D03*
X887402D02*
D03*
Y868425D02*
D03*
Y863425D02*
D03*
Y858425D02*
D03*
Y848425D02*
D03*
Y853425D02*
D03*
X887362Y893425D02*
D03*
Y888425D02*
D03*
Y883425D02*
D03*
Y878425D02*
D03*
Y898425D02*
D03*
Y903425D02*
D03*
Y908425D02*
D03*
Y913425D02*
D03*
D28*
X468146Y474858D02*
D03*
X475626D02*
D03*
X471886Y463638D02*
D03*
X425646Y526858D02*
D03*
X433126D02*
D03*
X429386Y515638D02*
D03*
X743736Y474858D02*
D03*
X751217D02*
D03*
X747476Y463638D02*
D03*
X701236Y526858D02*
D03*
X708716D02*
D03*
X704976Y515638D02*
D03*
X1019327Y474858D02*
D03*
X1026807D02*
D03*
X1023067Y463638D02*
D03*
X976827Y526858D02*
D03*
X984307D02*
D03*
X980567Y515638D02*
D03*
X468146Y766197D02*
D03*
X475626D02*
D03*
X471886Y754976D02*
D03*
X425646Y818197D02*
D03*
X433126D02*
D03*
X429386Y806976D02*
D03*
X743736Y766197D02*
D03*
X751217D02*
D03*
X747476Y754976D02*
D03*
X701236Y818197D02*
D03*
X708716D02*
D03*
X704976Y806976D02*
D03*
X1019327Y766197D02*
D03*
X1026807D02*
D03*
X1023067Y754976D02*
D03*
X976827Y818197D02*
D03*
X984307D02*
D03*
X980567Y806976D02*
D03*
D29*
X427276Y480008D02*
D03*
Y487488D02*
D03*
X438496Y483748D02*
D03*
X702866Y480008D02*
D03*
Y487488D02*
D03*
X714087Y483748D02*
D03*
X978457Y480008D02*
D03*
Y487488D02*
D03*
X989677Y483748D02*
D03*
X427276Y771347D02*
D03*
Y778827D02*
D03*
X438496Y775087D02*
D03*
X702866Y771347D02*
D03*
Y778827D02*
D03*
X714087Y775087D02*
D03*
X978457Y771347D02*
D03*
Y778827D02*
D03*
X989677Y775087D02*
D03*
D30*
X314882Y517063D02*
D03*
X296890D02*
D03*
X590472D02*
D03*
X572480D02*
D03*
X866063D02*
D03*
X848071D02*
D03*
X314882Y808402D02*
D03*
X296890D02*
D03*
X590472D02*
D03*
X572480D02*
D03*
X866063D02*
D03*
X848071D02*
D03*
D31*
X305886Y547748D02*
D03*
X581476D02*
D03*
X857067D02*
D03*
X305886Y839087D02*
D03*
X581476D02*
D03*
X857067D02*
D03*
M02*
