G04 Layer_Color=16711935*
%FSLAX25Y25*%
%MOIN*%
G70*
G01*
G75*
%ADD38C,0.01000*%
%ADD63C,0.01378*%
%ADD64C,0.02756*%
%ADD65C,0.01500*%
%ADD66C,0.00100*%
%ADD67C,0.00600*%
%ADD68C,0.01575*%
%ADD69C,0.01968*%
D38*
X322835Y657480D02*
G03*
X318898Y653543I0J-3937D01*
G01*
Y629921D02*
G03*
X322835Y625984I3937J0D01*
G01*
X429134Y653543D02*
G03*
X425197Y657480I-3937J0D01*
G01*
Y625984D02*
G03*
X429134Y629921I0J3937D01*
G01*
X322835Y948819D02*
G03*
X318898Y944882I0J-3937D01*
G01*
Y921260D02*
G03*
X322835Y917323I3937J0D01*
G01*
X429134Y944882D02*
G03*
X425197Y948819I-3937J0D01*
G01*
Y917323D02*
G03*
X429134Y921260I0J3937D01*
G01*
X598425Y948819D02*
G03*
X594488Y944882I0J-3937D01*
G01*
Y921260D02*
G03*
X598425Y917323I3937J0D01*
G01*
X704724Y944882D02*
G03*
X700787Y948819I-3937J0D01*
G01*
Y917323D02*
G03*
X704724Y921260I0J3937D01*
G01*
X874016Y948819D02*
G03*
X870079Y944882I0J-3937D01*
G01*
Y921260D02*
G03*
X874016Y917323I3937J0D01*
G01*
X980315Y944882D02*
G03*
X976378Y948819I-3937J0D01*
G01*
Y917323D02*
G03*
X980315Y921260I0J3937D01*
G01*
X598425Y657480D02*
G03*
X594488Y653543I0J-3937D01*
G01*
Y629921D02*
G03*
X598425Y625984I3937J0D01*
G01*
X704724Y653543D02*
G03*
X700787Y657480I-3937J0D01*
G01*
Y625984D02*
G03*
X704724Y629921I0J3937D01*
G01*
X874016Y657480D02*
G03*
X870079Y653543I0J-3937D01*
G01*
Y629921D02*
G03*
X874016Y625984I3937J0D01*
G01*
X980315Y653543D02*
G03*
X976378Y657480I-3937J0D01*
G01*
Y625984D02*
G03*
X980315Y629921I0J3937D01*
G01*
X295276Y969504D02*
Y1006835D01*
X275590Y978067D02*
Y1006835D01*
X285433Y1005835D02*
X295276D01*
X275590D02*
X285433D01*
X289276Y1007835D02*
X295276Y1005835D01*
X289276Y1003835D02*
X295276Y1005835D01*
X275590D02*
X281591Y1003835D01*
X275590Y1005835D02*
X281591Y1007835D01*
X314961Y964583D02*
Y1006835D01*
X295276Y969504D02*
Y1006835D01*
X305118Y1005835D02*
X314961D01*
X295276D02*
X305118D01*
X308961Y1007835D02*
X314961Y1005835D01*
X308961Y1003835D02*
X314961Y1005835D01*
X295276D02*
X301276Y1003835D01*
X295276Y1005835D02*
X301276Y1007835D01*
X334646Y968567D02*
Y1006835D01*
X314961Y964583D02*
Y1006835D01*
X324803Y1005835D02*
X334646D01*
X314961D02*
X324803D01*
X328646Y1007835D02*
X334646Y1005835D01*
X328646Y1003835D02*
X334646Y1005835D01*
X314961D02*
X320961Y1003835D01*
X314961Y1005835D02*
X320961Y1007835D01*
X254000Y377953D02*
X273902D01*
X254000Y346457D02*
X273902D01*
X255000Y362205D02*
Y377953D01*
Y346457D02*
Y362205D01*
X253000Y371953D02*
X255000Y377953D01*
X257000Y371953D01*
X255000Y346457D02*
X257000Y352457D01*
X253000D02*
X255000Y346457D01*
X254000Y653543D02*
X274590D01*
X254000Y377953D02*
X273902D01*
X255000Y515748D02*
Y653543D01*
Y377953D02*
Y515748D01*
X253000Y647543D02*
X255000Y653543D01*
X257000Y647543D01*
X255000Y377953D02*
X257000Y383953D01*
X253000D02*
X255000Y377953D01*
X254000Y669291D02*
X274590D01*
X254000Y653543D02*
X274590D01*
X255000Y661417D02*
Y669291D01*
Y653543D02*
Y661417D01*
X253000Y663291D02*
X255000Y669291D01*
X257000Y663291D01*
X255000Y653543D02*
X257000Y659543D01*
X253000D02*
X255000Y653543D01*
X254000Y669291D02*
X274590D01*
X254000Y944882D02*
X273902D01*
X255000Y669291D02*
Y807087D01*
Y944882D01*
Y669291D02*
X257000Y675291D01*
X253000D02*
X255000Y669291D01*
X253000Y938882D02*
X255000Y944882D01*
X257000Y938882D01*
X254000Y976378D02*
X273902D01*
X254000Y944882D02*
X273902D01*
X255000Y960630D02*
Y976378D01*
Y944882D02*
Y960630D01*
X253000Y970378D02*
X255000Y976378D01*
X257000Y970378D01*
X255000Y944882D02*
X257000Y950882D01*
X253000D02*
X255000Y944882D01*
X231500Y976378D02*
X273902D01*
X231500Y346457D02*
X273902D01*
X232500Y661417D02*
Y976378D01*
Y346457D02*
Y661417D01*
X230500Y970378D02*
X232500Y976378D01*
X234500Y970378D01*
X232500Y346457D02*
X234500Y352457D01*
X230500D02*
X232500Y346457D01*
X551181Y321500D02*
Y344768D01*
X275591Y321500D02*
Y344768D01*
X413386Y322500D02*
X551181D01*
X275591D02*
X413386D01*
X545181Y324500D02*
X551181Y322500D01*
X545181Y320500D02*
X551181Y322500D01*
X275591D02*
X281591Y320500D01*
X275591Y322500D02*
X281591Y324500D01*
X826772Y321500D02*
Y344768D01*
X551181Y321500D02*
Y344768D01*
X688976Y322500D02*
X826772D01*
X551181D02*
X688976D01*
X820772Y324500D02*
X826772Y322500D01*
X820772Y320500D02*
X826772Y322500D01*
X551181D02*
X557181Y320500D01*
X551181Y322500D02*
X557181Y324500D01*
X1102362Y321500D02*
Y344768D01*
X826772Y321500D02*
Y344768D01*
X964567Y322500D02*
X1102362D01*
X826772D02*
X964567D01*
X1096362Y324500D02*
X1102362Y322500D01*
X1096362Y320500D02*
X1102362Y322500D01*
X826772D02*
X832772Y320500D01*
X826772Y322500D02*
X832772Y324500D01*
X1102362Y299000D02*
Y344768D01*
X275591Y299000D02*
Y344768D01*
X688976Y300000D02*
X1102362D01*
X275591D02*
X688976D01*
X1096362Y302000D02*
X1102362Y300000D01*
X1096362Y298000D02*
X1102362Y300000D01*
X275591D02*
X281591Y298000D01*
X275591Y300000D02*
X281591Y302000D01*
X1104051Y346457D02*
X1129500D01*
X1091551Y362205D02*
X1129500D01*
X1128500Y346457D02*
Y354331D01*
Y362205D01*
Y346457D02*
X1130500Y352457D01*
X1126500D02*
X1128500Y346457D01*
X1126500Y356205D02*
X1128500Y362205D01*
X1130500Y356205D01*
X0Y0D02*
X1653543D01*
X0D02*
Y1169291D01*
X1653543D01*
Y0D02*
Y1169291D01*
X318898Y629921D02*
Y653543D01*
X429134Y629921D02*
Y653543D01*
X322835Y625984D02*
X425197D01*
X322835Y657480D02*
X425197D01*
X318898Y921260D02*
Y944882D01*
X429134Y921260D02*
Y944882D01*
X322835Y917323D02*
X425197D01*
X322835Y948819D02*
X425197D01*
X594488Y921260D02*
Y944882D01*
X704724Y921260D02*
Y944882D01*
X598425Y917323D02*
X700787D01*
X598425Y948819D02*
X700787D01*
X870079Y921260D02*
Y944882D01*
X980315Y921260D02*
Y944882D01*
X874016Y917323D02*
X976378D01*
X874016Y948819D02*
X976378D01*
X594488Y629921D02*
Y653543D01*
X704724Y629921D02*
Y653543D01*
X598425Y625984D02*
X700787D01*
X598425Y657480D02*
X700787D01*
X870079Y629921D02*
Y653543D01*
X980315Y629921D02*
Y653543D01*
X874016Y625984D02*
X976378D01*
X874016Y657480D02*
X976378D01*
X1188976Y55118D02*
Y59054D01*
X1190944Y61022D01*
X1192912Y59054D01*
Y55118D01*
Y58070D01*
X1188976D01*
X1194880Y55118D02*
Y61022D01*
X1198816Y55118D01*
Y61022D01*
X1204719Y60038D02*
X1203735Y61022D01*
X1201768D01*
X1200784Y60038D01*
Y56102D01*
X1201768Y55118D01*
X1203735D01*
X1204719Y56102D01*
Y58070D01*
X1202751D01*
X1206687Y61022D02*
Y56102D01*
X1207671Y55118D01*
X1209639D01*
X1210623Y56102D01*
Y61022D01*
X1212591D02*
Y55118D01*
X1216527D01*
X1218494D02*
Y59054D01*
X1220462Y61022D01*
X1222430Y59054D01*
Y55118D01*
Y58070D01*
X1218494D01*
X1224398Y55118D02*
Y61022D01*
X1227350D01*
X1228334Y60038D01*
Y58070D01*
X1227350Y57086D01*
X1224398D01*
X1226366D02*
X1228334Y55118D01*
X1236205D02*
X1238173D01*
X1237189D01*
Y61022D01*
X1236205Y60038D01*
X1188976Y80707D02*
Y74803D01*
X1192912D01*
X1194880Y80707D02*
X1196848D01*
X1195864D01*
Y74803D01*
X1194880D01*
X1196848D01*
X1199800D02*
Y80707D01*
X1203735Y74803D01*
Y80707D01*
X1209639D02*
X1205703D01*
Y74803D01*
X1209639D01*
X1205703Y77755D02*
X1207671D01*
X1211607Y74803D02*
Y78739D01*
X1213575Y80707D01*
X1215543Y78739D01*
Y74803D01*
Y77755D01*
X1211607D01*
X1217510Y74803D02*
Y80707D01*
X1220462D01*
X1221446Y79723D01*
Y77755D01*
X1220462Y76771D01*
X1217510D01*
X1219478D02*
X1221446Y74803D01*
X1235221Y79723D02*
X1236205Y80707D01*
X1238173D01*
X1239157Y79723D01*
Y75787D01*
X1238173Y74803D01*
X1236205D01*
X1235221Y75787D01*
Y79723D01*
X1242109Y73819D02*
X1243093Y74803D01*
Y75787D01*
X1242109D01*
Y74803D01*
X1243093D01*
X1242109Y73819D01*
X1241125Y72835D01*
X1250964Y74803D02*
X1247028D01*
X1250964Y78739D01*
Y79723D01*
X1249980Y80707D01*
X1248012D01*
X1247028Y79723D01*
X1252932Y74803D02*
Y78739D01*
X1253916D01*
X1254900Y77755D01*
Y74803D01*
Y77755D01*
X1255884Y78739D01*
X1256868Y77755D01*
Y74803D01*
X1258836D02*
Y78739D01*
X1259820D01*
X1260804Y77755D01*
Y74803D01*
Y77755D01*
X1261787Y78739D01*
X1262771Y77755D01*
Y74803D01*
X1191928Y100392D02*
X1189960D01*
X1188976Y99408D01*
Y95472D01*
X1189960Y94488D01*
X1191928D01*
X1192912Y95472D01*
Y99408D01*
X1191928Y100392D01*
X1194880D02*
X1198816D01*
X1196848D01*
Y94488D01*
X1200784Y100392D02*
Y94488D01*
Y97440D01*
X1204719D01*
Y100392D01*
Y94488D01*
X1210623Y100392D02*
X1206687D01*
Y94488D01*
X1210623D01*
X1206687Y97440D02*
X1208655D01*
X1212591Y94488D02*
Y100392D01*
X1215543D01*
X1216527Y99408D01*
Y97440D01*
X1215543Y96456D01*
X1212591D01*
X1214559D02*
X1216527Y94488D01*
X1218494Y100392D02*
Y94488D01*
X1220462Y96456D01*
X1222430Y94488D01*
Y100392D01*
X1224398D02*
X1226366D01*
X1225382D01*
Y94488D01*
X1224398D01*
X1226366D01*
X1233253Y99408D02*
X1232269Y100392D01*
X1230302D01*
X1229318Y99408D01*
Y98424D01*
X1230302Y97440D01*
X1232269D01*
X1233253Y96456D01*
Y95472D01*
X1232269Y94488D01*
X1230302D01*
X1229318Y95472D01*
X1239157Y100392D02*
X1235221D01*
Y94488D01*
X1239157D01*
X1235221Y97440D02*
X1237189D01*
X1247028Y94488D02*
Y100392D01*
X1250964Y94488D01*
Y100392D01*
X1255884D02*
X1253916D01*
X1252932Y99408D01*
Y95472D01*
X1253916Y94488D01*
X1255884D01*
X1256868Y95472D01*
Y99408D01*
X1255884Y100392D01*
X1258836D02*
X1262771D01*
X1260804D01*
Y94488D01*
X1268675Y100392D02*
X1264739D01*
Y94488D01*
X1268675D01*
X1264739Y97440D02*
X1266707D01*
X1270643Y100392D02*
Y94488D01*
X1273595D01*
X1274579Y95472D01*
Y99408D01*
X1273595Y100392D01*
X1270643D01*
X1188976Y112203D02*
X1192912D01*
X1190944D01*
Y106299D01*
X1197832Y112203D02*
X1195864D01*
X1194880Y111219D01*
Y107283D01*
X1195864Y106299D01*
X1197832D01*
X1198816Y107283D01*
Y111219D01*
X1197832Y112203D01*
X1200784D02*
Y106299D01*
X1204719D01*
X1210623Y112203D02*
X1206687D01*
Y106299D01*
X1210623D01*
X1206687Y109251D02*
X1208655D01*
X1212591Y106299D02*
Y112203D01*
X1215543D01*
X1216527Y111219D01*
Y109251D01*
X1215543Y108267D01*
X1212591D01*
X1214559D02*
X1216527Y106299D01*
X1218494D02*
Y110235D01*
X1220462Y112203D01*
X1222430Y110235D01*
Y106299D01*
Y109251D01*
X1218494D01*
X1224398Y106299D02*
Y112203D01*
X1228334Y106299D01*
Y112203D01*
X1234237Y111219D02*
X1233253Y112203D01*
X1231285D01*
X1230302Y111219D01*
Y107283D01*
X1231285Y106299D01*
X1233253D01*
X1234237Y107283D01*
X1240141Y112203D02*
X1236205D01*
Y106299D01*
X1240141D01*
X1236205Y109251D02*
X1238173D01*
X1246045Y111219D02*
X1245061Y112203D01*
X1243093D01*
X1242109Y111219D01*
Y110235D01*
X1243093Y109251D01*
X1245061D01*
X1246045Y108267D01*
Y107283D01*
X1245061Y106299D01*
X1243093D01*
X1242109Y107283D01*
X1253916Y112203D02*
Y107283D01*
X1254900Y106299D01*
X1256868D01*
X1257852Y107283D01*
Y112203D01*
X1259820Y106299D02*
Y112203D01*
X1263755Y106299D01*
Y112203D01*
X1265723D02*
Y106299D01*
X1269659D01*
X1275562Y112203D02*
X1271627D01*
Y106299D01*
X1275562D01*
X1271627Y109251D02*
X1273595D01*
X1281466Y111219D02*
X1280482Y112203D01*
X1278514D01*
X1277530Y111219D01*
Y110235D01*
X1278514Y109251D01*
X1280482D01*
X1281466Y108267D01*
Y107283D01*
X1280482Y106299D01*
X1278514D01*
X1277530Y107283D01*
X1287370Y111219D02*
X1286386Y112203D01*
X1284418D01*
X1283434Y111219D01*
Y110235D01*
X1284418Y109251D01*
X1286386D01*
X1287370Y108267D01*
Y107283D01*
X1286386Y106299D01*
X1284418D01*
X1283434Y107283D01*
X1110236Y106299D02*
X1112204D01*
X1111220D01*
Y112203D01*
X1110236Y111219D01*
X1118108Y106299D02*
Y112203D01*
X1115156Y109251D01*
X1119092D01*
X1121060Y106299D02*
Y107283D01*
X1122043D01*
Y106299D01*
X1121060D01*
X1125979Y111219D02*
X1126963Y112203D01*
X1128931D01*
X1129915Y111219D01*
Y107283D01*
X1128931Y106299D01*
X1126963D01*
X1125979Y107283D01*
Y111219D01*
X1135818Y112203D02*
X1131883D01*
Y109251D01*
X1133851Y110235D01*
X1134835D01*
X1135818Y109251D01*
Y107283D01*
X1134835Y106299D01*
X1132867D01*
X1131883Y107283D01*
X1137786Y106299D02*
Y107283D01*
X1138770D01*
Y106299D01*
X1137786D01*
X1146642D02*
X1142706D01*
X1146642Y110235D01*
Y111219D01*
X1145658Y112203D01*
X1143690D01*
X1142706Y111219D01*
X1148610D02*
X1149594Y112203D01*
X1151561D01*
X1152545Y111219D01*
Y107283D01*
X1151561Y106299D01*
X1149594D01*
X1148610Y107283D01*
Y111219D01*
X1158449Y106299D02*
X1154513D01*
X1158449Y110235D01*
Y111219D01*
X1157465Y112203D01*
X1155497D01*
X1154513Y111219D01*
X1160417Y106299D02*
X1162385D01*
X1161401D01*
Y112203D01*
X1160417Y111219D01*
X992126Y112203D02*
Y106299D01*
X996062D01*
X998030Y110235D02*
Y107283D01*
X999014Y106299D01*
X1001965D01*
Y110235D01*
X1007869D02*
X1004917D01*
X1003933Y109251D01*
Y107283D01*
X1004917Y106299D01*
X1007869D01*
X1009837D02*
X1011805D01*
X1010821D01*
Y110235D01*
X1009837D01*
X1015740D02*
X1017708D01*
X1018692Y109251D01*
Y106299D01*
X1015740D01*
X1014756Y107283D01*
X1015740Y108267D01*
X1018692D01*
X1020660Y106299D02*
Y110235D01*
X1023612D01*
X1024596Y109251D01*
Y106299D01*
X1027548D02*
X1029515D01*
X1030499Y107283D01*
Y109251D01*
X1029515Y110235D01*
X1027548D01*
X1026564Y109251D01*
Y107283D01*
X1027548Y106299D01*
X1038371D02*
Y110235D01*
X1040339Y112203D01*
X1042307Y110235D01*
Y106299D01*
Y109251D01*
X1038371D01*
X1046242Y104331D02*
X1047226D01*
X1048210Y105315D01*
Y110235D01*
X1045258D01*
X1044275Y109251D01*
Y107283D01*
X1045258Y106299D01*
X1048210D01*
X1050178Y110235D02*
Y107283D01*
X1051162Y106299D01*
X1054114D01*
Y110235D01*
X1059033Y106299D02*
X1057066D01*
X1056082Y107283D01*
Y109251D01*
X1057066Y110235D01*
X1059033D01*
X1060017Y109251D01*
Y108267D01*
X1056082D01*
X1061985Y110235D02*
Y106299D01*
Y108267D01*
X1062969Y109251D01*
X1063953Y110235D01*
X1064937D01*
X1067889D02*
Y106299D01*
Y108267D01*
X1068873Y109251D01*
X1069857Y110235D01*
X1070841D01*
X1076744Y106299D02*
X1074776D01*
X1073792Y107283D01*
Y109251D01*
X1074776Y110235D01*
X1076744D01*
X1077728Y109251D01*
Y108267D01*
X1073792D01*
X933071Y112203D02*
Y106299D01*
X936023D01*
X937007Y107283D01*
Y111219D01*
X936023Y112203D01*
X933071D01*
X938974Y106299D02*
Y112203D01*
X941926D01*
X942910Y111219D01*
Y109251D01*
X941926Y108267D01*
X938974D01*
X940942D02*
X942910Y106299D01*
X944878D02*
Y110235D01*
X946846Y112203D01*
X948814Y110235D01*
Y106299D01*
Y109251D01*
X944878D01*
X950782Y112203D02*
Y106299D01*
X952750Y108267D01*
X954717Y106299D01*
Y112203D01*
X956685Y106299D02*
Y112203D01*
X960621Y106299D01*
Y112203D01*
X937007Y91534D02*
X936023Y92518D01*
X934055D01*
X933071Y91534D01*
Y87598D01*
X934055Y86614D01*
X936023D01*
X937007Y87598D01*
X938974Y92518D02*
Y86614D01*
Y89566D01*
X942910D01*
Y92518D01*
Y86614D01*
X948814Y92518D02*
X944878D01*
Y86614D01*
X948814D01*
X944878Y89566D02*
X946846D01*
X954717Y91534D02*
X953734Y92518D01*
X951766D01*
X950782Y91534D01*
Y87598D01*
X951766Y86614D01*
X953734D01*
X954717Y87598D01*
X956685Y92518D02*
Y86614D01*
Y88582D01*
X960621Y92518D01*
X957669Y89566D01*
X960621Y86614D01*
X966525Y92518D02*
X962589D01*
Y86614D01*
X966525D01*
X962589Y89566D02*
X964557D01*
X968493Y92518D02*
Y86614D01*
X971444D01*
X972428Y87598D01*
Y91534D01*
X971444Y92518D01*
X968493D01*
X933071Y66929D02*
Y70865D01*
X935039Y72833D01*
X937007Y70865D01*
Y66929D01*
Y69881D01*
X933071D01*
X938974Y66929D02*
Y72833D01*
X941926D01*
X942910Y71849D01*
Y69881D01*
X941926Y68897D01*
X938974D01*
X944878Y66929D02*
Y72833D01*
X947830D01*
X948814Y71849D01*
Y69881D01*
X947830Y68897D01*
X944878D01*
X950782Y66929D02*
Y72833D01*
X953734D01*
X954717Y71849D01*
Y69881D01*
X953734Y68897D01*
X950782D01*
X952750D02*
X954717Y66929D01*
X959637Y72833D02*
X957669D01*
X956685Y71849D01*
Y67913D01*
X957669Y66929D01*
X959637D01*
X960621Y67913D01*
Y71849D01*
X959637Y72833D01*
X962589D02*
Y68897D01*
X964557Y66929D01*
X966525Y68897D01*
Y72833D01*
X972428D02*
X968493D01*
Y66929D01*
X972428D01*
X968493Y69881D02*
X970460D01*
X974396Y72833D02*
Y66929D01*
X977348D01*
X978332Y67913D01*
Y71849D01*
X977348Y72833D01*
X974396D01*
X933071Y47244D02*
Y51180D01*
X935039Y53148D01*
X937007Y51180D01*
Y47244D01*
Y50196D01*
X933071D01*
X938974Y47244D02*
Y53148D01*
X941926D01*
X942910Y52164D01*
Y50196D01*
X941926Y49212D01*
X938974D01*
X944878Y47244D02*
Y53148D01*
X947830D01*
X948814Y52164D01*
Y50196D01*
X947830Y49212D01*
X944878D01*
X950782Y47244D02*
Y53148D01*
X953734D01*
X954717Y52164D01*
Y50196D01*
X953734Y49212D01*
X950782D01*
X952750D02*
X954717Y47244D01*
X959637Y53148D02*
X957669D01*
X956685Y52164D01*
Y48228D01*
X957669Y47244D01*
X959637D01*
X960621Y48228D01*
Y52164D01*
X959637Y53148D01*
X962589D02*
Y49212D01*
X964557Y47244D01*
X966525Y49212D01*
Y53148D01*
X972428D02*
X968493D01*
Y47244D01*
X972428D01*
X968493Y50196D02*
X970460D01*
X974396Y53148D02*
Y47244D01*
X977348D01*
X978332Y48228D01*
Y52164D01*
X977348Y53148D01*
X974396D01*
X1316500Y123500D02*
Y133339D01*
X1319780Y130060D01*
X1323060Y133339D01*
Y123500D01*
X1331259Y133339D02*
X1327979D01*
X1326339Y131700D01*
Y125140D01*
X1327979Y123500D01*
X1331259D01*
X1332899Y125140D01*
Y131700D01*
X1331259Y133339D01*
X1336179D02*
Y123500D01*
X1341098D01*
X1342738Y125140D01*
Y131700D01*
X1341098Y133339D01*
X1336179D01*
X1346018D02*
Y125140D01*
X1347658Y123500D01*
X1350938D01*
X1352578Y125140D01*
Y133339D01*
X1355857D02*
Y123500D01*
X1362417D01*
X1370616Y133339D02*
X1367337D01*
X1365697Y131700D01*
Y125140D01*
X1367337Y123500D01*
X1370616D01*
X1372256Y125140D01*
Y131700D01*
X1370616Y133339D01*
X1385375D02*
Y123500D01*
X1390295D01*
X1391935Y125140D01*
Y131700D01*
X1390295Y133339D01*
X1385375D01*
X1401774D02*
X1395215D01*
Y123500D01*
X1401774D01*
X1395215Y128420D02*
X1398495D01*
X1414893Y133339D02*
X1421453D01*
X1418173D01*
Y123500D01*
X1431292Y133339D02*
X1424733D01*
Y123500D01*
X1431292D01*
X1424733Y128420D02*
X1428012D01*
X1441132Y131700D02*
X1439492Y133339D01*
X1436212D01*
X1434572Y131700D01*
Y130060D01*
X1436212Y128420D01*
X1439492D01*
X1441132Y126780D01*
Y125140D01*
X1439492Y123500D01*
X1436212D01*
X1434572Y125140D01*
X1444411Y133339D02*
X1450971D01*
X1447691D01*
Y123500D01*
X1460810Y133339D02*
X1454251D01*
Y123500D01*
X1460810D01*
X1454251Y128420D02*
X1457530D01*
X1469010Y133339D02*
X1465730D01*
X1464090Y131700D01*
Y125140D01*
X1465730Y123500D01*
X1469010D01*
X1470650Y125140D01*
Y131700D01*
X1469010Y133339D01*
X1483769Y123500D02*
Y133339D01*
X1488688D01*
X1490328Y131700D01*
Y128420D01*
X1488688Y126780D01*
X1483769D01*
X1493608Y123500D02*
Y130060D01*
X1496888Y133339D01*
X1500168Y130060D01*
Y123500D01*
Y128420D01*
X1493608D01*
X1503448Y123500D02*
Y133339D01*
X1508367D01*
X1510007Y131700D01*
Y128420D01*
X1508367Y126780D01*
X1503448D01*
X1506727D02*
X1510007Y123500D01*
X1513287D02*
Y130060D01*
X1516567Y133339D01*
X1519846Y130060D01*
Y123500D01*
Y128420D01*
X1513287D01*
X1532965Y133339D02*
Y123500D01*
X1537885D01*
X1539525Y125140D01*
Y126780D01*
X1537885Y128420D01*
X1532965D01*
X1537885D01*
X1539525Y130060D01*
Y131700D01*
X1537885Y133339D01*
X1532965D01*
X1542805D02*
Y125140D01*
X1544445Y123500D01*
X1547725D01*
X1549364Y125140D01*
Y133339D01*
X1552644Y123500D02*
Y133339D01*
X1557564D01*
X1559204Y131700D01*
Y128420D01*
X1557564Y126780D01*
X1552644D01*
X1555924D02*
X1559204Y123500D01*
X1562484D02*
Y133339D01*
X1569043Y123500D01*
Y133339D01*
X1582162D02*
X1585442D01*
X1583802D01*
Y123500D01*
X1582162D01*
X1585442D01*
X1590362D02*
Y133339D01*
X1596921Y123500D01*
Y133339D01*
X1305118Y151573D02*
X1309054D01*
X1307086D01*
Y145669D01*
X1311022Y151573D02*
X1312990D01*
X1312006D01*
Y145669D01*
X1311022D01*
X1312990D01*
X1315941Y151573D02*
X1319877D01*
X1317909D01*
Y145669D01*
X1321845Y151573D02*
Y145669D01*
X1325781D01*
X1331684Y151573D02*
X1327749D01*
Y145669D01*
X1331684D01*
X1327749Y148621D02*
X1329716D01*
X1318898Y62992D02*
Y69552D01*
X1322177Y72831D01*
X1325457Y69552D01*
Y62992D01*
Y67912D01*
X1318898D01*
X1328737Y71192D02*
X1330377Y72831D01*
X1333657D01*
X1335297Y71192D01*
Y69552D01*
X1333657Y67912D01*
X1332017D01*
X1333657D01*
X1335297Y66272D01*
Y64632D01*
X1333657Y62992D01*
X1330377D01*
X1328737Y64632D01*
X1305118Y92518D02*
Y86614D01*
X1308070D01*
X1309054Y87598D01*
Y91534D01*
X1308070Y92518D01*
X1305118D01*
X1311022D02*
Y86614D01*
X1312990Y88582D01*
X1314957Y86614D01*
Y92518D01*
X1320861Y91534D02*
X1319877Y92518D01*
X1317909D01*
X1316925Y91534D01*
Y87598D01*
X1317909Y86614D01*
X1319877D01*
X1320861Y87598D01*
Y89566D01*
X1318893D01*
X1332668Y91534D02*
X1331684Y92518D01*
X1329716D01*
X1328732Y91534D01*
Y90550D01*
X1329716Y89566D01*
X1331684D01*
X1332668Y88582D01*
Y87598D01*
X1331684Y86614D01*
X1329716D01*
X1328732Y87598D01*
X1334636Y92518D02*
X1336604D01*
X1335620D01*
Y86614D01*
X1334636D01*
X1336604D01*
X1339556Y92518D02*
X1343491D01*
Y91534D01*
X1339556Y87598D01*
Y86614D01*
X1343491D01*
X1349395Y92518D02*
X1345459D01*
Y86614D01*
X1349395D01*
X1345459Y89566D02*
X1347427D01*
X1574803Y62992D02*
Y69552D01*
X1578083Y72831D01*
X1581363Y69552D01*
Y62992D01*
Y67912D01*
X1574803D01*
X1472440Y56101D02*
X1471456Y57085D01*
X1469488D01*
X1468504Y56101D01*
Y55117D01*
X1469488Y54133D01*
X1471456D01*
X1472440Y53149D01*
Y52165D01*
X1471456Y51181D01*
X1469488D01*
X1468504Y52165D01*
X1474407Y57085D02*
Y51181D01*
Y54133D01*
X1478343D01*
Y57085D01*
Y51181D01*
X1484247Y57085D02*
X1480311D01*
Y51181D01*
X1484247D01*
X1480311Y54133D02*
X1482279D01*
X1490151Y57085D02*
X1486215D01*
Y51181D01*
X1490151D01*
X1486215Y54133D02*
X1488183D01*
X1492118Y57085D02*
X1496054D01*
X1494086D01*
Y51181D01*
X1503926D02*
X1505893D01*
X1504910D01*
Y57085D01*
X1503926Y56101D01*
X1517701Y57085D02*
X1515733D01*
X1514749Y56101D01*
Y52165D01*
X1515733Y51181D01*
X1517701D01*
X1518684Y52165D01*
Y56101D01*
X1517701Y57085D01*
X1524588D02*
X1520652D01*
Y54133D01*
X1522620D01*
X1520652D01*
Y51181D01*
X1532460D02*
X1534428D01*
X1533444D01*
Y57085D01*
X1532460Y56101D01*
X1381888D02*
X1380905Y57085D01*
X1378937D01*
X1377953Y56101D01*
Y55117D01*
X1378937Y54133D01*
X1380905D01*
X1381888Y53149D01*
Y52165D01*
X1380905Y51181D01*
X1378937D01*
X1377953Y52165D01*
X1387792Y56101D02*
X1386808Y57085D01*
X1384840D01*
X1383856Y56101D01*
Y52165D01*
X1384840Y51181D01*
X1386808D01*
X1387792Y52165D01*
X1389760Y51181D02*
Y55117D01*
X1391728Y57085D01*
X1393696Y55117D01*
Y51181D01*
Y54133D01*
X1389760D01*
X1395664Y57085D02*
Y51181D01*
X1399599D01*
X1405503Y57085D02*
X1401567D01*
Y51181D01*
X1405503D01*
X1401567Y54133D02*
X1403535D01*
X1413374Y51181D02*
X1415342D01*
X1414358D01*
Y57085D01*
X1413374Y56101D01*
X1418294Y55117D02*
X1419278D01*
Y54133D01*
X1418294D01*
Y55117D01*
Y52165D02*
X1419278D01*
Y51181D01*
X1418294D01*
Y52165D01*
X1423214Y51181D02*
X1425182D01*
X1424198D01*
Y57085D01*
X1423214Y56101D01*
X1404000Y84339D02*
X1410560D01*
X1407280D01*
Y74500D01*
X1420399Y84339D02*
X1413839D01*
Y74500D01*
X1420399D01*
X1413839Y79420D02*
X1417119D01*
X1430238Y82700D02*
X1428598Y84339D01*
X1425319D01*
X1423679Y82700D01*
Y81060D01*
X1425319Y79420D01*
X1428598D01*
X1430238Y77780D01*
Y76140D01*
X1428598Y74500D01*
X1425319D01*
X1423679Y76140D01*
X1433518Y84339D02*
X1440078D01*
X1436798D01*
Y74500D01*
X1443357Y79420D02*
X1449917D01*
X1453197Y74500D02*
Y84339D01*
X1456476Y81060D01*
X1459756Y84339D01*
Y74500D01*
X1467956Y84339D02*
X1464676D01*
X1463036Y82700D01*
Y76140D01*
X1464676Y74500D01*
X1467956D01*
X1469596Y76140D01*
Y82700D01*
X1467956Y84339D01*
X1472875D02*
Y74500D01*
X1477795D01*
X1479435Y76140D01*
Y82700D01*
X1477795Y84339D01*
X1472875D01*
X1482715D02*
Y76140D01*
X1484355Y74500D01*
X1487634D01*
X1489274Y76140D01*
Y84339D01*
X1492554D02*
Y74500D01*
X1499114D01*
X1508953Y84339D02*
X1502393D01*
Y74500D01*
X1508953D01*
X1502393Y79420D02*
X1505673D01*
X1512233D02*
X1518792D01*
X1528632Y84339D02*
X1522072D01*
Y74500D01*
X1528632D01*
X1522072Y79420D02*
X1525352D01*
X1538471Y82700D02*
X1536831Y84339D01*
X1533551D01*
X1531911Y82700D01*
Y76140D01*
X1533551Y74500D01*
X1536831D01*
X1538471Y76140D01*
X1546670Y84339D02*
X1543391D01*
X1541751Y82700D01*
Y76140D01*
X1543391Y74500D01*
X1546670D01*
X1548310Y76140D01*
Y82700D01*
X1546670Y84339D01*
X1362205Y86614D02*
Y92518D01*
X1365156D01*
X1366140Y91534D01*
Y89566D01*
X1365156Y88582D01*
X1362205D01*
X1368108Y86614D02*
Y90550D01*
X1370076Y92518D01*
X1372044Y90550D01*
Y86614D01*
Y89566D01*
X1368108D01*
X1374012Y86614D02*
Y92518D01*
X1376964D01*
X1377948Y91534D01*
Y89566D01*
X1376964Y88582D01*
X1374012D01*
X1375980D02*
X1377948Y86614D01*
X1379916Y92518D02*
X1383851D01*
X1381883D01*
Y86614D01*
X1391723D02*
Y92518D01*
X1395658Y86614D01*
Y92518D01*
X1398610Y86614D02*
Y92518D01*
X1400578D02*
Y86614D01*
X1397626Y90550D02*
X1400578D01*
X1401562D01*
X1397626Y88582D02*
X1401562D01*
X1574803Y86614D02*
Y93305D01*
X1578148D01*
X1579264Y92190D01*
Y89960D01*
X1578148Y88844D01*
X1574803D01*
X1577033D02*
X1579264Y86614D01*
X1585954Y93305D02*
X1581494D01*
Y86614D01*
X1585954D01*
X1581494Y89960D02*
X1583724D01*
X1588185Y93305D02*
Y88844D01*
X1590415Y86614D01*
X1592645Y88844D01*
Y93305D01*
X547247Y1019685D02*
X552494D01*
X555118Y1022309D01*
X552494Y1024933D01*
X547247D01*
X551182Y1027557D02*
Y1032804D01*
X548559Y1040676D02*
X547247Y1039364D01*
Y1036740D01*
X548559Y1035428D01*
X553806D01*
X555118Y1036740D01*
Y1039364D01*
X553806Y1040676D01*
X551182D01*
Y1038052D01*
X555118Y1043299D02*
X547247D01*
Y1047235D01*
X548559Y1048547D01*
X551182D01*
X552494Y1047235D01*
Y1043299D01*
Y1045923D02*
X555118Y1048547D01*
X547247Y1055107D02*
Y1052483D01*
X548559Y1051171D01*
X553806D01*
X555118Y1052483D01*
Y1055107D01*
X553806Y1056419D01*
X548559D01*
X547247Y1055107D01*
Y1062978D02*
Y1060354D01*
X548559Y1059042D01*
X553806D01*
X555118Y1060354D01*
Y1062978D01*
X553806Y1064290D01*
X548559D01*
X547247Y1062978D01*
Y1066914D02*
X552494D01*
X555118Y1069538D01*
X552494Y1072162D01*
X547247D01*
Y1080033D02*
Y1074785D01*
X555118D01*
Y1080033D01*
X551182Y1074785D02*
Y1077409D01*
X823447Y1019685D02*
X828694D01*
X831318Y1022309D01*
X828694Y1024933D01*
X823447D01*
X827382Y1027557D02*
Y1032804D01*
X824759Y1040676D02*
X823447Y1039364D01*
Y1036740D01*
X824759Y1035428D01*
X830006D01*
X831318Y1036740D01*
Y1039364D01*
X830006Y1040676D01*
X827382D01*
Y1038052D01*
X831318Y1043299D02*
X823447D01*
Y1047235D01*
X824759Y1048547D01*
X827382D01*
X828694Y1047235D01*
Y1043299D01*
Y1045923D02*
X831318Y1048547D01*
X823447Y1055107D02*
Y1052483D01*
X824759Y1051171D01*
X830006D01*
X831318Y1052483D01*
Y1055107D01*
X830006Y1056419D01*
X824759D01*
X823447Y1055107D01*
Y1062978D02*
Y1060354D01*
X824759Y1059042D01*
X830006D01*
X831318Y1060354D01*
Y1062978D01*
X830006Y1064290D01*
X824759D01*
X823447Y1062978D01*
Y1066914D02*
X828694D01*
X831318Y1069538D01*
X828694Y1072162D01*
X823447D01*
Y1080033D02*
Y1074785D01*
X831318D01*
Y1080033D01*
X827382Y1074785D02*
Y1077409D01*
X1147638Y949526D02*
Y944278D01*
X1150262Y941654D01*
X1152885Y944278D01*
Y949526D01*
X1155509Y945590D02*
X1160757D01*
X1168628Y948214D02*
X1167317Y949526D01*
X1164693D01*
X1163381Y948214D01*
Y942966D01*
X1164693Y941654D01*
X1167317D01*
X1168628Y942966D01*
Y945590D01*
X1166005D01*
X1171252Y941654D02*
Y949526D01*
X1175188D01*
X1176500Y948214D01*
Y945590D01*
X1175188Y944278D01*
X1171252D01*
X1173876D02*
X1176500Y941654D01*
X1183059Y949526D02*
X1180436D01*
X1179124Y948214D01*
Y942966D01*
X1180436Y941654D01*
X1183059D01*
X1184371Y942966D01*
Y948214D01*
X1183059Y949526D01*
X1190931D02*
X1188307D01*
X1186995Y948214D01*
Y942966D01*
X1188307Y941654D01*
X1190931D01*
X1192243Y942966D01*
Y948214D01*
X1190931Y949526D01*
X1194867D02*
Y944278D01*
X1197491Y941654D01*
X1200114Y944278D01*
Y949526D01*
X1207986D02*
X1202738D01*
Y941654D01*
X1207986D01*
X1202738Y945590D02*
X1205362D01*
X1147638Y674144D02*
Y668896D01*
X1150262Y666272D01*
X1152885Y668896D01*
Y674144D01*
X1155509Y670208D02*
X1160757D01*
X1168628Y672832D02*
X1167317Y674144D01*
X1164693D01*
X1163381Y672832D01*
Y667584D01*
X1164693Y666272D01*
X1167317D01*
X1168628Y667584D01*
Y670208D01*
X1166005D01*
X1171252Y666272D02*
Y674144D01*
X1175188D01*
X1176500Y672832D01*
Y670208D01*
X1175188Y668896D01*
X1171252D01*
X1173876D02*
X1176500Y666272D01*
X1183060Y674144D02*
X1180436D01*
X1179124Y672832D01*
Y667584D01*
X1180436Y666272D01*
X1183060D01*
X1184371Y667584D01*
Y672832D01*
X1183060Y674144D01*
X1190931D02*
X1188307D01*
X1186995Y672832D01*
Y667584D01*
X1188307Y666272D01*
X1190931D01*
X1192243Y667584D01*
Y672832D01*
X1190931Y674144D01*
X1194867D02*
Y668896D01*
X1197491Y666272D01*
X1200114Y668896D01*
Y674144D01*
X1207986D02*
X1202738D01*
Y666272D01*
X1207986D01*
X1202738Y670208D02*
X1205362D01*
X1147638Y658144D02*
Y652896D01*
X1150262Y650272D01*
X1152885Y652896D01*
Y658144D01*
X1155509Y654208D02*
X1160757D01*
X1168628Y656832D02*
X1167317Y658144D01*
X1164693D01*
X1163381Y656832D01*
Y651584D01*
X1164693Y650272D01*
X1167317D01*
X1168628Y651584D01*
Y654208D01*
X1166005D01*
X1171252Y650272D02*
Y658144D01*
X1175188D01*
X1176500Y656832D01*
Y654208D01*
X1175188Y652896D01*
X1171252D01*
X1173876D02*
X1176500Y650272D01*
X1183060Y658144D02*
X1180436D01*
X1179124Y656832D01*
Y651584D01*
X1180436Y650272D01*
X1183060D01*
X1184371Y651584D01*
Y656832D01*
X1183060Y658144D01*
X1190931D02*
X1188307D01*
X1186995Y656832D01*
Y651584D01*
X1188307Y650272D01*
X1190931D01*
X1192243Y651584D01*
Y656832D01*
X1190931Y658144D01*
X1194867D02*
Y652896D01*
X1197491Y650272D01*
X1200114Y652896D01*
Y658144D01*
X1207986D02*
X1202738D01*
Y650272D01*
X1207986D01*
X1202738Y654208D02*
X1205362D01*
X1147638Y382597D02*
Y377349D01*
X1150262Y374725D01*
X1152885Y377349D01*
Y382597D01*
X1155509Y378661D02*
X1160757D01*
X1168628Y381285D02*
X1167317Y382597D01*
X1164693D01*
X1163381Y381285D01*
Y376037D01*
X1164693Y374725D01*
X1167317D01*
X1168628Y376037D01*
Y378661D01*
X1166005D01*
X1171252Y374725D02*
Y382597D01*
X1175188D01*
X1176500Y381285D01*
Y378661D01*
X1175188Y377349D01*
X1171252D01*
X1173876D02*
X1176500Y374725D01*
X1183060Y382597D02*
X1180436D01*
X1179124Y381285D01*
Y376037D01*
X1180436Y374725D01*
X1183060D01*
X1184371Y376037D01*
Y381285D01*
X1183060Y382597D01*
X1190931D02*
X1188307D01*
X1186995Y381285D01*
Y376037D01*
X1188307Y374725D01*
X1190931D01*
X1192243Y376037D01*
Y381285D01*
X1190931Y382597D01*
X1194867D02*
Y377349D01*
X1197491Y374725D01*
X1200114Y377349D01*
Y382597D01*
X1207986D02*
X1202738D01*
Y374725D01*
X1207986D01*
X1202738Y378661D02*
X1205362D01*
X389500Y183498D02*
Y177500D01*
X393499D01*
X396498Y181499D02*
X398497D01*
X399497Y180499D01*
Y177500D01*
X396498D01*
X395498Y178500D01*
X396498Y179499D01*
X399497D01*
X401496Y181499D02*
Y178500D01*
X402496Y177500D01*
X405495D01*
Y176500D01*
X404495Y175501D01*
X403496D01*
X405495Y177500D02*
Y181499D01*
X410493Y177500D02*
X408494D01*
X407494Y178500D01*
Y180499D01*
X408494Y181499D01*
X410493D01*
X411493Y180499D01*
Y179499D01*
X407494D01*
X413492Y181499D02*
Y177500D01*
Y179499D01*
X414492Y180499D01*
X415492Y181499D01*
X416491D01*
X389500Y99498D02*
X393499D01*
Y98498D01*
X389500Y94500D01*
Y93500D01*
X393499Y111498D02*
X391499Y110498D01*
X389500Y108499D01*
Y106500D01*
X390500Y105500D01*
X392499D01*
X393499Y106500D01*
Y107499D01*
X392499Y108499D01*
X389500D01*
X393499Y123498D02*
X389500D01*
Y120499D01*
X391499Y121499D01*
X392499D01*
X393499Y120499D01*
Y118500D01*
X392499Y117500D01*
X390500D01*
X389500Y118500D01*
X392499Y129500D02*
Y135498D01*
X389500Y132499D01*
X393499D01*
X389500Y146498D02*
X390500Y147498D01*
X392499D01*
X393499Y146498D01*
Y145499D01*
X392499Y144499D01*
X391499D01*
X392499D01*
X393499Y143499D01*
Y142500D01*
X392499Y141500D01*
X390500D01*
X389500Y142500D01*
X393499Y153500D02*
X389500D01*
X393499Y157499D01*
Y158498D01*
X392499Y159498D01*
X390500D01*
X389500Y158498D01*
Y165500D02*
X391499D01*
X390500D01*
Y171498D01*
X389500Y170498D01*
X430491Y177500D02*
Y183498D01*
X434490Y177500D01*
Y183498D01*
X437489Y181499D02*
X439488D01*
X440488Y180499D01*
Y177500D01*
X437489D01*
X436489Y178500D01*
X437489Y179499D01*
X440488D01*
X442487Y177500D02*
Y181499D01*
X443487D01*
X444487Y180499D01*
Y177500D01*
Y180499D01*
X445486Y181499D01*
X446486Y180499D01*
Y177500D01*
X451484D02*
X449485D01*
X448486Y178500D01*
Y180499D01*
X449485Y181499D01*
X451484D01*
X452484Y180499D01*
Y179499D01*
X448486D01*
X430491Y99498D02*
Y93500D01*
X433490D01*
X434490Y94500D01*
Y95499D01*
X433490Y96499D01*
X430491D01*
X433490D01*
X434490Y97499D01*
Y98498D01*
X433490Y99498D01*
X430491D01*
X437489Y93500D02*
X439488D01*
X440488Y94500D01*
Y96499D01*
X439488Y97499D01*
X437489D01*
X436489Y96499D01*
Y94500D01*
X437489Y93500D01*
X443487Y98498D02*
Y97499D01*
X442487D01*
X444487D01*
X443487D01*
Y94500D01*
X444487Y93500D01*
X448486Y98498D02*
Y97499D01*
X447486D01*
X449485D01*
X448486D01*
Y94500D01*
X449485Y93500D01*
X453484D02*
X455483D01*
X456483Y94500D01*
Y96499D01*
X455483Y97499D01*
X453484D01*
X452484Y96499D01*
Y94500D01*
X453484Y93500D01*
X458482D02*
Y97499D01*
X459482D01*
X460482Y96499D01*
Y93500D01*
Y96499D01*
X461481Y97499D01*
X462481Y96499D01*
Y93500D01*
X473477Y99498D02*
X471478D01*
X470478Y98498D01*
Y94500D01*
X471478Y93500D01*
X473477D01*
X474477Y94500D01*
Y98498D01*
X473477Y99498D01*
X476476Y97499D02*
X478476Y93500D01*
X480475Y97499D01*
X485473Y93500D02*
X483474D01*
X482474Y94500D01*
Y96499D01*
X483474Y97499D01*
X485473D01*
X486473Y96499D01*
Y95499D01*
X482474D01*
X488473Y97499D02*
Y93500D01*
Y95499D01*
X489472Y96499D01*
X490472Y97499D01*
X491471D01*
X494471Y93500D02*
X496470D01*
X495470D01*
Y99498D01*
X494471D01*
X500469Y97499D02*
X502468D01*
X503468Y96499D01*
Y93500D01*
X500469D01*
X499469Y94500D01*
X500469Y95499D01*
X503468D01*
X505467Y97499D02*
Y94500D01*
X506467Y93500D01*
X509466D01*
Y92500D01*
X508466Y91501D01*
X507466D01*
X509466Y93500D02*
Y97499D01*
X430491Y111498D02*
Y105500D01*
X433490D01*
X434490Y106500D01*
Y107499D01*
X433490Y108499D01*
X430491D01*
X433490D01*
X434490Y109499D01*
Y110498D01*
X433490Y111498D01*
X430491D01*
X437489Y105500D02*
X439488D01*
X440488Y106500D01*
Y108499D01*
X439488Y109499D01*
X437489D01*
X436489Y108499D01*
Y106500D01*
X437489Y105500D01*
X443487Y110498D02*
Y109499D01*
X442487D01*
X444487D01*
X443487D01*
Y106500D01*
X444487Y105500D01*
X448486Y110498D02*
Y109499D01*
X447486D01*
X449485D01*
X448486D01*
Y106500D01*
X449485Y105500D01*
X453484D02*
X455483D01*
X456483Y106500D01*
Y108499D01*
X455483Y109499D01*
X453484D01*
X452484Y108499D01*
Y106500D01*
X453484Y105500D01*
X458482D02*
Y109499D01*
X459482D01*
X460482Y108499D01*
Y105500D01*
Y108499D01*
X461481Y109499D01*
X462481Y108499D01*
Y105500D01*
X474477Y110498D02*
X473477Y111498D01*
X471478D01*
X470478Y110498D01*
Y109499D01*
X471478Y108499D01*
X473477D01*
X474477Y107499D01*
Y106500D01*
X473477Y105500D01*
X471478D01*
X470478Y106500D01*
X477476Y105500D02*
X479475D01*
X480475Y106500D01*
Y108499D01*
X479475Y109499D01*
X477476D01*
X476476Y108499D01*
Y106500D01*
X477476Y105500D01*
X482474D02*
X484474D01*
X483474D01*
Y111498D01*
X482474D01*
X491471D02*
Y105500D01*
X488473D01*
X487473Y106500D01*
Y108499D01*
X488473Y109499D01*
X491471D01*
X496470Y105500D02*
X494471D01*
X493471Y106500D01*
Y108499D01*
X494471Y109499D01*
X496470D01*
X497470Y108499D01*
Y107499D01*
X493471D01*
X499469Y109499D02*
Y105500D01*
Y107499D01*
X500469Y108499D01*
X501468Y109499D01*
X502468D01*
X430491Y123498D02*
Y117500D01*
X433490D01*
X434490Y118500D01*
Y119499D01*
X433490Y120499D01*
X430491D01*
X433490D01*
X434490Y121499D01*
Y122498D01*
X433490Y123498D01*
X430491D01*
X437489Y117500D02*
X439488D01*
X440488Y118500D01*
Y120499D01*
X439488Y121499D01*
X437489D01*
X436489Y120499D01*
Y118500D01*
X437489Y117500D01*
X443487Y122498D02*
Y121499D01*
X442487D01*
X444487D01*
X443487D01*
Y118500D01*
X444487Y117500D01*
X448486Y122498D02*
Y121499D01*
X447486D01*
X449485D01*
X448486D01*
Y118500D01*
X449485Y117500D01*
X453484D02*
X455483D01*
X456483Y118500D01*
Y120499D01*
X455483Y121499D01*
X453484D01*
X452484Y120499D01*
Y118500D01*
X453484Y117500D01*
X458482D02*
Y121499D01*
X459482D01*
X460482Y120499D01*
Y117500D01*
Y120499D01*
X461481Y121499D01*
X462481Y120499D01*
Y117500D01*
X470478Y123498D02*
Y117500D01*
X474477D01*
X477476Y121499D02*
X479475D01*
X480475Y120499D01*
Y117500D01*
X477476D01*
X476476Y118500D01*
X477476Y119499D01*
X480475D01*
X482474Y121499D02*
Y118500D01*
X483474Y117500D01*
X486473D01*
Y116500D01*
X485473Y115501D01*
X484474D01*
X486473Y117500D02*
Y121499D01*
X491471Y117500D02*
X489472D01*
X488473Y118500D01*
Y120499D01*
X489472Y121499D01*
X491471D01*
X492471Y120499D01*
Y119499D01*
X488473D01*
X494471Y121499D02*
Y117500D01*
Y119499D01*
X495470Y120499D01*
X496470Y121499D01*
X497470D01*
X430491Y135498D02*
Y129500D01*
X433490D01*
X434490Y130500D01*
Y134498D01*
X433490Y135498D01*
X430491D01*
X436489Y129500D02*
X438489D01*
X437489D01*
Y133499D01*
X436489D01*
X444487Y129500D02*
X442487D01*
X441488Y130500D01*
Y132499D01*
X442487Y133499D01*
X444487D01*
X445486Y132499D01*
Y131499D01*
X441488D01*
X447486Y129500D02*
X449485D01*
X448486D01*
Y135498D01*
X447486D01*
X455483Y129500D02*
X453484D01*
X452484Y130500D01*
Y132499D01*
X453484Y133499D01*
X455483D01*
X456483Y132499D01*
Y131499D01*
X452484D01*
X462481Y133499D02*
X459482D01*
X458482Y132499D01*
Y130500D01*
X459482Y129500D01*
X462481D01*
X465480Y134498D02*
Y133499D01*
X464480D01*
X466480D01*
X465480D01*
Y130500D01*
X466480Y129500D01*
X469479Y133499D02*
Y129500D01*
Y131499D01*
X470478Y132499D01*
X471478Y133499D01*
X472478D01*
X475477Y129500D02*
X477476D01*
X476476D01*
Y133499D01*
X475477D01*
X484474D02*
X481475D01*
X480475Y132499D01*
Y130500D01*
X481475Y129500D01*
X484474D01*
X492471D02*
X494471D01*
X493471D01*
Y135498D01*
X492471Y134498D01*
X430491Y147498D02*
X434490D01*
X432491D01*
Y141500D01*
X437489D02*
X439488D01*
X440488Y142500D01*
Y144499D01*
X439488Y145499D01*
X437489D01*
X436489Y144499D01*
Y142500D01*
X437489Y141500D01*
X442487Y139501D02*
Y145499D01*
X445486D01*
X446486Y144499D01*
Y142500D01*
X445486Y141500D01*
X442487D01*
X454484Y147498D02*
Y141500D01*
X458482D01*
X461481Y145499D02*
X463481D01*
X464480Y144499D01*
Y141500D01*
X461481D01*
X460482Y142500D01*
X461481Y143499D01*
X464480D01*
X466480Y145499D02*
Y142500D01*
X467479Y141500D01*
X470478D01*
Y140500D01*
X469479Y139501D01*
X468479D01*
X470478Y141500D02*
Y145499D01*
X475477Y141500D02*
X473477D01*
X472478Y142500D01*
Y144499D01*
X473477Y145499D01*
X475477D01*
X476476Y144499D01*
Y143499D01*
X472478D01*
X478476Y145499D02*
Y141500D01*
Y143499D01*
X479475Y144499D01*
X480475Y145499D01*
X481475D01*
X430491Y159498D02*
X434490D01*
X432491D01*
Y153500D01*
X437489D02*
X439488D01*
X440488Y154500D01*
Y156499D01*
X439488Y157499D01*
X437489D01*
X436489Y156499D01*
Y154500D01*
X437489Y153500D01*
X442487Y151501D02*
Y157499D01*
X445486D01*
X446486Y156499D01*
Y154500D01*
X445486Y153500D01*
X442487D01*
X458482Y158498D02*
X457482Y159498D01*
X455483D01*
X454484Y158498D01*
Y157499D01*
X455483Y156499D01*
X457482D01*
X458482Y155499D01*
Y154500D01*
X457482Y153500D01*
X455483D01*
X454484Y154500D01*
X461481Y153500D02*
X463481D01*
X464480Y154500D01*
Y156499D01*
X463481Y157499D01*
X461481D01*
X460482Y156499D01*
Y154500D01*
X461481Y153500D01*
X466480D02*
X468479D01*
X467479D01*
Y159498D01*
X466480D01*
X475477D02*
Y153500D01*
X472478D01*
X471478Y154500D01*
Y156499D01*
X472478Y157499D01*
X475477D01*
X480475Y153500D02*
X478476D01*
X477476Y154500D01*
Y156499D01*
X478476Y157499D01*
X480475D01*
X481475Y156499D01*
Y155499D01*
X477476D01*
X483474Y157499D02*
Y153500D01*
Y155499D01*
X484474Y156499D01*
X485473Y157499D01*
X486473D01*
X430491Y171498D02*
X434490D01*
X432491D01*
Y165500D01*
X437489D02*
X439488D01*
X440488Y166500D01*
Y168499D01*
X439488Y169499D01*
X437489D01*
X436489Y168499D01*
Y166500D01*
X437489Y165500D01*
X442487Y163501D02*
Y169499D01*
X445486D01*
X446486Y168499D01*
Y166500D01*
X445486Y165500D01*
X442487D01*
X457482Y171498D02*
X455483D01*
X454484Y170498D01*
Y166500D01*
X455483Y165500D01*
X457482D01*
X458482Y166500D01*
Y170498D01*
X457482Y171498D01*
X460482Y169499D02*
X462481Y165500D01*
X464480Y169499D01*
X469479Y165500D02*
X467479D01*
X466480Y166500D01*
Y168499D01*
X467479Y169499D01*
X469479D01*
X470478Y168499D01*
Y167499D01*
X466480D01*
X472478Y169499D02*
Y165500D01*
Y167499D01*
X473477Y168499D01*
X474477Y169499D01*
X475477D01*
X478476Y165500D02*
X480475D01*
X479475D01*
Y171498D01*
X478476D01*
X484474Y169499D02*
X486473D01*
X487473Y168499D01*
Y165500D01*
X484474D01*
X483474Y166500D01*
X484474Y167499D01*
X487473D01*
X489472Y169499D02*
Y166500D01*
X490472Y165500D01*
X493471D01*
Y164500D01*
X492471Y163501D01*
X491471D01*
X493471Y165500D02*
Y169499D01*
X523466Y177500D02*
Y183498D01*
X525465Y181499D01*
X527464Y183498D01*
Y177500D01*
X530464Y181499D02*
X532463D01*
X533462Y180499D01*
Y177500D01*
X530464D01*
X529464Y178500D01*
X530464Y179499D01*
X533462D01*
X536461Y182498D02*
Y181499D01*
X535462D01*
X537461D01*
X536461D01*
Y178500D01*
X537461Y177500D01*
X543459D02*
X541460D01*
X540460Y178500D01*
Y180499D01*
X541460Y181499D01*
X543459D01*
X544459Y180499D01*
Y179499D01*
X540460D01*
X546458Y181499D02*
Y177500D01*
Y179499D01*
X547458Y180499D01*
X548458Y181499D01*
X549457D01*
X552456Y177500D02*
X554456D01*
X553456D01*
Y181499D01*
X552456D01*
X558454D02*
X560454D01*
X561453Y180499D01*
Y177500D01*
X558454D01*
X557455Y178500D01*
X558454Y179499D01*
X561453D01*
X563453Y177500D02*
X565452D01*
X564453D01*
Y183498D01*
X563453D01*
X527464Y110498D02*
X526465Y111498D01*
X524465D01*
X523466Y110498D01*
Y109499D01*
X524465Y108499D01*
X526465D01*
X527464Y107499D01*
Y106500D01*
X526465Y105500D01*
X524465D01*
X523466Y106500D01*
X530464Y105500D02*
X532463D01*
X533462Y106500D01*
Y108499D01*
X532463Y109499D01*
X530464D01*
X529464Y108499D01*
Y106500D01*
X530464Y105500D01*
X535462D02*
X537461D01*
X536461D01*
Y111498D01*
X535462D01*
X544459D02*
Y105500D01*
X541460D01*
X540460Y106500D01*
Y108499D01*
X541460Y109499D01*
X544459D01*
X549457Y105500D02*
X547458D01*
X546458Y106500D01*
Y108499D01*
X547458Y109499D01*
X549457D01*
X550457Y108499D01*
Y107499D01*
X546458D01*
X552456Y109499D02*
Y105500D01*
Y107499D01*
X553456Y108499D01*
X554456Y109499D01*
X555455D01*
X564453Y105500D02*
Y111498D01*
X567451D01*
X568451Y110498D01*
Y108499D01*
X567451Y107499D01*
X564453D01*
X566452D02*
X568451Y105500D01*
X573450D02*
X571450D01*
X570450Y106500D01*
Y108499D01*
X571450Y109499D01*
X573450D01*
X574449Y108499D01*
Y107499D01*
X570450D01*
X576449Y105500D02*
X579448D01*
X580447Y106500D01*
X579448Y107499D01*
X577448D01*
X576449Y108499D01*
X577448Y109499D01*
X580447D01*
X582447Y105500D02*
X584446D01*
X583446D01*
Y109499D01*
X582447D01*
X587445Y105500D02*
X590444D01*
X591444Y106500D01*
X590444Y107499D01*
X588445D01*
X587445Y108499D01*
X588445Y109499D01*
X591444D01*
X594443Y110498D02*
Y109499D01*
X593443D01*
X595442D01*
X594443D01*
Y106500D01*
X595442Y105500D01*
X527464Y122498D02*
X526465Y123498D01*
X524465D01*
X523466Y122498D01*
Y118500D01*
X524465Y117500D01*
X526465D01*
X527464Y118500D01*
X530464Y117500D02*
X532463D01*
X533462Y118500D01*
Y120499D01*
X532463Y121499D01*
X530464D01*
X529464Y120499D01*
Y118500D01*
X530464Y117500D01*
X535462Y115501D02*
Y121499D01*
X538461D01*
X539461Y120499D01*
Y118500D01*
X538461Y117500D01*
X535462D01*
X541460Y115501D02*
Y121499D01*
X544459D01*
X545459Y120499D01*
Y118500D01*
X544459Y117500D01*
X541460D01*
X550457D02*
X548458D01*
X547458Y118500D01*
Y120499D01*
X548458Y121499D01*
X550457D01*
X551457Y120499D01*
Y119499D01*
X547458D01*
X553456Y121499D02*
Y117500D01*
Y119499D01*
X554456Y120499D01*
X555455Y121499D01*
X556455D01*
X527464Y135498D02*
X523466D01*
Y132499D01*
X525465D01*
X523466D01*
Y129500D01*
X529464D02*
Y135498D01*
X532463D01*
X533462Y134498D01*
Y132499D01*
X532463Y131499D01*
X529464D01*
X531463D02*
X533462Y129500D01*
X535462Y132499D02*
X539461D01*
X544459Y129500D02*
Y135498D01*
X541460Y132499D01*
X545459D01*
X527464Y146498D02*
X526465Y147498D01*
X524465D01*
X523466Y146498D01*
Y142500D01*
X524465Y141500D01*
X526465D01*
X527464Y142500D01*
X530464Y141500D02*
X532463D01*
X533462Y142500D01*
Y144499D01*
X532463Y145499D01*
X530464D01*
X529464Y144499D01*
Y142500D01*
X530464Y141500D01*
X535462Y139501D02*
Y145499D01*
X538461D01*
X539461Y144499D01*
Y142500D01*
X538461Y141500D01*
X535462D01*
X541460Y139501D02*
Y145499D01*
X544459D01*
X545459Y144499D01*
Y142500D01*
X544459Y141500D01*
X541460D01*
X550457D02*
X548458D01*
X547458Y142500D01*
Y144499D01*
X548458Y145499D01*
X550457D01*
X551457Y144499D01*
Y143499D01*
X547458D01*
X553456Y145499D02*
Y141500D01*
Y143499D01*
X554456Y144499D01*
X555455Y145499D01*
X556455D01*
X527464Y158498D02*
X526465Y159498D01*
X524465D01*
X523466Y158498D01*
Y157499D01*
X524465Y156499D01*
X526465D01*
X527464Y155499D01*
Y154500D01*
X526465Y153500D01*
X524465D01*
X523466Y154500D01*
X530464Y153500D02*
X532463D01*
X533462Y154500D01*
Y156499D01*
X532463Y157499D01*
X530464D01*
X529464Y156499D01*
Y154500D01*
X530464Y153500D01*
X535462D02*
X537461D01*
X536461D01*
Y159498D01*
X535462D01*
X544459D02*
Y153500D01*
X541460D01*
X540460Y154500D01*
Y156499D01*
X541460Y157499D01*
X544459D01*
X549457Y153500D02*
X547458D01*
X546458Y154500D01*
Y156499D01*
X547458Y157499D01*
X549457D01*
X550457Y156499D01*
Y155499D01*
X546458D01*
X552456Y157499D02*
Y153500D01*
Y155499D01*
X553456Y156499D01*
X554456Y157499D01*
X555455D01*
X564453Y153500D02*
Y159498D01*
X567451D01*
X568451Y158498D01*
Y156499D01*
X567451Y155499D01*
X564453D01*
X566452D02*
X568451Y153500D01*
X573450D02*
X571450D01*
X570450Y154500D01*
Y156499D01*
X571450Y157499D01*
X573450D01*
X574449Y156499D01*
Y155499D01*
X570450D01*
X576449Y153500D02*
X579448D01*
X580447Y154500D01*
X579448Y155499D01*
X577448D01*
X576449Y156499D01*
X577448Y157499D01*
X580447D01*
X582447Y153500D02*
X584446D01*
X583446D01*
Y157499D01*
X582447D01*
X587445Y153500D02*
X590444D01*
X591444Y154500D01*
X590444Y155499D01*
X588445D01*
X587445Y156499D01*
X588445Y157499D01*
X591444D01*
X594443Y158498D02*
Y157499D01*
X593443D01*
X595442D01*
X594443D01*
Y154500D01*
X595442Y153500D01*
X609442Y183498D02*
X613441D01*
X611442D01*
Y177500D01*
X615441Y183498D02*
Y177500D01*
Y180499D01*
X616440Y181499D01*
X618439D01*
X619439Y180499D01*
Y177500D01*
X621439D02*
X623438D01*
X622438D01*
Y181499D01*
X621439D01*
X630436D02*
X627437D01*
X626437Y180499D01*
Y178500D01*
X627437Y177500D01*
X630436D01*
X632435D02*
Y183498D01*
Y179499D02*
X635434Y181499D01*
X632435Y179499D02*
X635434Y177500D01*
X638433D02*
Y181499D01*
X641432D01*
X642432Y180499D01*
Y177500D01*
X647430D02*
X645431D01*
X644431Y178500D01*
Y180499D01*
X645431Y181499D01*
X647430D01*
X648430Y180499D01*
Y179499D01*
X644431D01*
X650429Y177500D02*
X653428D01*
X654428Y178500D01*
X653428Y179499D01*
X651429D01*
X650429Y180499D01*
X651429Y181499D01*
X654428D01*
X656427Y177500D02*
X659426D01*
X660426Y178500D01*
X659426Y179499D01*
X657427D01*
X656427Y180499D01*
X657427Y181499D01*
X660426D01*
X609442Y110498D02*
X610442Y111498D01*
X612441D01*
X613441Y110498D01*
Y106500D01*
X612441Y105500D01*
X610442D01*
X609442Y106500D01*
Y110498D01*
X616440Y104500D02*
X617440Y105500D01*
Y106500D01*
X616440D01*
Y105500D01*
X617440D01*
X616440Y104500D01*
X615441Y103501D01*
X621439Y110498D02*
X622438Y111498D01*
X624438D01*
X625437Y110498D01*
Y106500D01*
X624438Y105500D01*
X622438D01*
X621439Y106500D01*
Y110498D01*
X627437Y105500D02*
X629436D01*
X628436D01*
Y111498D01*
X627437Y110498D01*
X632435D02*
X633435Y111498D01*
X635434D01*
X636434Y110498D01*
Y106500D01*
X635434Y105500D01*
X633435D01*
X632435Y106500D01*
Y110498D01*
X638433Y105500D02*
Y109499D01*
X639433D01*
X640432Y108499D01*
Y105500D01*
Y108499D01*
X641432Y109499D01*
X642432Y108499D01*
Y105500D01*
X644431D02*
Y109499D01*
X645431D01*
X646430Y108499D01*
Y105500D01*
Y108499D01*
X647430Y109499D01*
X648430Y108499D01*
Y105500D01*
X609442Y122498D02*
X610442Y123498D01*
X612441D01*
X613441Y122498D01*
Y118500D01*
X612441Y117500D01*
X610442D01*
X609442Y118500D01*
Y122498D01*
X616440Y116500D02*
X617440Y117500D01*
Y118500D01*
X616440D01*
Y117500D01*
X617440D01*
X616440Y116500D01*
X615441Y115501D01*
X621439Y122498D02*
X622438Y123498D01*
X624438D01*
X625437Y122498D01*
Y118500D01*
X624438Y117500D01*
X622438D01*
X621439Y118500D01*
Y122498D01*
X627437D02*
X628436Y123498D01*
X630436D01*
X631435Y122498D01*
Y121499D01*
X630436Y120499D01*
X629436D01*
X630436D01*
X631435Y119499D01*
Y118500D01*
X630436Y117500D01*
X628436D01*
X627437Y118500D01*
X637433Y123498D02*
X635434Y122498D01*
X633435Y120499D01*
Y118500D01*
X634434Y117500D01*
X636434D01*
X637433Y118500D01*
Y119499D01*
X636434Y120499D01*
X633435D01*
X639433Y117500D02*
Y121499D01*
X640432D01*
X641432Y120499D01*
Y117500D01*
Y120499D01*
X642432Y121499D01*
X643431Y120499D01*
Y117500D01*
X645431D02*
Y121499D01*
X646430D01*
X647430Y120499D01*
Y117500D01*
Y120499D01*
X648430Y121499D01*
X649430Y120499D01*
Y117500D01*
X609442Y129500D02*
X611442D01*
X610442D01*
Y135498D01*
X609442Y134498D01*
X615441Y128500D02*
X616440Y129500D01*
Y130500D01*
X615441D01*
Y129500D01*
X616440D01*
X615441Y128500D01*
X614441Y127501D01*
X624438Y135498D02*
X620439D01*
Y132499D01*
X622438Y133499D01*
X623438D01*
X624438Y132499D01*
Y130500D01*
X623438Y129500D01*
X621439D01*
X620439Y130500D01*
X626437Y134498D02*
X627437Y135498D01*
X629436D01*
X630436Y134498D01*
Y130500D01*
X629436Y129500D01*
X627437D01*
X626437Y130500D01*
Y134498D01*
X632435D02*
X633435Y135498D01*
X635434D01*
X636434Y134498D01*
Y130500D01*
X635434Y129500D01*
X633435D01*
X632435Y130500D01*
Y134498D01*
X638433Y129500D02*
Y133499D01*
X639433D01*
X640432Y132499D01*
Y129500D01*
Y132499D01*
X641432Y133499D01*
X642432Y132499D01*
Y129500D01*
X644431D02*
Y133499D01*
X645431D01*
X646430Y132499D01*
Y129500D01*
Y132499D01*
X647430Y133499D01*
X648430Y132499D01*
Y129500D01*
X609442Y146498D02*
X610442Y147498D01*
X612441D01*
X613441Y146498D01*
Y142500D01*
X612441Y141500D01*
X610442D01*
X609442Y142500D01*
Y146498D01*
X616440Y140500D02*
X617440Y141500D01*
Y142500D01*
X616440D01*
Y141500D01*
X617440D01*
X616440Y140500D01*
X615441Y139501D01*
X621439Y146498D02*
X622438Y147498D01*
X624438D01*
X625437Y146498D01*
Y142500D01*
X624438Y141500D01*
X622438D01*
X621439Y142500D01*
Y146498D01*
X627437D02*
X628436Y147498D01*
X630436D01*
X631435Y146498D01*
Y145499D01*
X630436Y144499D01*
X629436D01*
X630436D01*
X631435Y143499D01*
Y142500D01*
X630436Y141500D01*
X628436D01*
X627437Y142500D01*
X637433Y147498D02*
X635434Y146498D01*
X633435Y144499D01*
Y142500D01*
X634434Y141500D01*
X636434D01*
X637433Y142500D01*
Y143499D01*
X636434Y144499D01*
X633435D01*
X639433Y141500D02*
Y145499D01*
X640432D01*
X641432Y144499D01*
Y141500D01*
Y144499D01*
X642432Y145499D01*
X643431Y144499D01*
Y141500D01*
X645431D02*
Y145499D01*
X646430D01*
X647430Y144499D01*
Y141500D01*
Y144499D01*
X648430Y145499D01*
X649430Y144499D01*
Y141500D01*
X609442Y158498D02*
X610442Y159498D01*
X612441D01*
X613441Y158498D01*
Y154500D01*
X612441Y153500D01*
X610442D01*
X609442Y154500D01*
Y158498D01*
X616440Y152500D02*
X617440Y153500D01*
Y154500D01*
X616440D01*
Y153500D01*
X617440D01*
X616440Y152500D01*
X615441Y151501D01*
X621439Y158498D02*
X622438Y159498D01*
X624438D01*
X625437Y158498D01*
Y154500D01*
X624438Y153500D01*
X622438D01*
X621439Y154500D01*
Y158498D01*
X627437Y153500D02*
X629436D01*
X628436D01*
Y159498D01*
X627437Y158498D01*
X632435D02*
X633435Y159498D01*
X635434D01*
X636434Y158498D01*
Y154500D01*
X635434Y153500D01*
X633435D01*
X632435Y154500D01*
Y158498D01*
X638433Y153500D02*
Y157499D01*
X639433D01*
X640432Y156499D01*
Y153500D01*
Y156499D01*
X641432Y157499D01*
X642432Y156499D01*
Y153500D01*
X644431D02*
Y157499D01*
X645431D01*
X646430Y156499D01*
Y153500D01*
Y156499D01*
X647430Y157499D01*
X648430Y156499D01*
Y153500D01*
X678425Y182498D02*
X677425Y183498D01*
X675426D01*
X674426Y182498D01*
Y178500D01*
X675426Y177500D01*
X677425D01*
X678425Y178500D01*
X681424Y177500D02*
X683423D01*
X684423Y178500D01*
Y180499D01*
X683423Y181499D01*
X681424D01*
X680424Y180499D01*
Y178500D01*
X681424Y177500D01*
X686422D02*
Y181499D01*
X689421D01*
X690421Y180499D01*
Y177500D01*
X692420D02*
X695419D01*
X696419Y178500D01*
X695419Y179499D01*
X693420D01*
X692420Y180499D01*
X693420Y181499D01*
X696419D01*
X699418Y182498D02*
Y181499D01*
X698418D01*
X700418D01*
X699418D01*
Y178500D01*
X700418Y177500D01*
X704416Y181499D02*
X706416D01*
X707415Y180499D01*
Y177500D01*
X704416D01*
X703417Y178500D01*
X704416Y179499D01*
X707415D01*
X709415Y177500D02*
Y181499D01*
X712414D01*
X713413Y180499D01*
Y177500D01*
X716412Y182498D02*
Y181499D01*
X715413D01*
X717412D01*
X716412D01*
Y178500D01*
X717412Y177500D01*
X674426Y110498D02*
X675426Y111498D01*
X677425D01*
X678425Y110498D01*
Y109499D01*
X677425Y108499D01*
X676425D01*
X677425D01*
X678425Y107499D01*
Y106500D01*
X677425Y105500D01*
X675426D01*
X674426Y106500D01*
X681424Y104500D02*
X682423Y105500D01*
Y106500D01*
X681424D01*
Y105500D01*
X682423D01*
X681424Y104500D01*
X680424Y103501D01*
X690421Y111498D02*
X686422D01*
Y108499D01*
X688421Y109499D01*
X689421D01*
X690421Y108499D01*
Y106500D01*
X689421Y105500D01*
X687422D01*
X686422Y106500D01*
X677425Y129500D02*
Y135498D01*
X674426Y132499D01*
X678425D01*
X681424Y128500D02*
X682423Y129500D01*
Y130500D01*
X681424D01*
Y129500D01*
X682423D01*
X681424Y128500D01*
X680424Y127501D01*
X686422Y134498D02*
X687422Y135498D01*
X689421D01*
X690421Y134498D01*
Y133499D01*
X689421Y132499D01*
X690421Y131499D01*
Y130500D01*
X689421Y129500D01*
X687422D01*
X686422Y130500D01*
Y131499D01*
X687422Y132499D01*
X686422Y133499D01*
Y134498D01*
X687422Y132499D02*
X689421D01*
X674426Y158498D02*
X675426Y159498D01*
X677425D01*
X678425Y158498D01*
Y157499D01*
X677425Y156499D01*
X676425D01*
X677425D01*
X678425Y155499D01*
Y154500D01*
X677425Y153500D01*
X675426D01*
X674426Y154500D01*
X681424Y152500D02*
X682423Y153500D01*
Y154500D01*
X681424D01*
Y153500D01*
X682423D01*
X681424Y152500D01*
X680424Y151501D01*
X690421Y159498D02*
X686422D01*
Y156499D01*
X688421Y157499D01*
X689421D01*
X690421Y156499D01*
Y154500D01*
X689421Y153500D01*
X687422D01*
X686422Y154500D01*
X731412Y183498D02*
Y177500D01*
X734411D01*
X735411Y178500D01*
Y179499D01*
X734411Y180499D01*
X731412D01*
X734411D01*
X735411Y181499D01*
Y182498D01*
X734411Y183498D01*
X731412D01*
X738410Y177500D02*
X740409D01*
X741409Y178500D01*
Y180499D01*
X740409Y181499D01*
X738410D01*
X737410Y180499D01*
Y178500D01*
X738410Y177500D01*
X744408Y181499D02*
X746407D01*
X747407Y180499D01*
Y177500D01*
X744408D01*
X743408Y178500D01*
X744408Y179499D01*
X747407D01*
X749406Y181499D02*
Y177500D01*
Y179499D01*
X750406Y180499D01*
X751406Y181499D01*
X752405D01*
X759403Y183498D02*
Y177500D01*
X756404D01*
X755404Y178500D01*
Y180499D01*
X756404Y181499D01*
X759403D01*
X767400Y183498D02*
Y177500D01*
X771399D01*
X774398Y181499D02*
X776398D01*
X777397Y180499D01*
Y177500D01*
X774398D01*
X773398Y178500D01*
X774398Y179499D01*
X777397D01*
X779396Y181499D02*
Y178500D01*
X780396Y177500D01*
X783395D01*
Y176500D01*
X782396Y175501D01*
X781396D01*
X783395Y177500D02*
Y181499D01*
X788394Y177500D02*
X786394D01*
X785395Y178500D01*
Y180499D01*
X786394Y181499D01*
X788394D01*
X789393Y180499D01*
Y179499D01*
X785395D01*
X791393Y181499D02*
Y177500D01*
Y179499D01*
X792392Y180499D01*
X793392Y181499D01*
X794392D01*
X807388Y182498D02*
X806388Y183498D01*
X804388D01*
X803389Y182498D01*
Y181499D01*
X804388Y180499D01*
X806388D01*
X807388Y179499D01*
Y178500D01*
X806388Y177500D01*
X804388D01*
X803389Y178500D01*
X810386Y182498D02*
Y181499D01*
X809387D01*
X811386D01*
X810386D01*
Y178500D01*
X811386Y177500D01*
X815385Y181499D02*
X817384D01*
X818384Y180499D01*
Y177500D01*
X815385D01*
X814385Y178500D01*
X815385Y179499D01*
X818384D01*
X824382Y181499D02*
X821383D01*
X820383Y180499D01*
Y178500D01*
X821383Y177500D01*
X824382D01*
X826381D02*
Y183498D01*
Y179499D02*
X829380Y181499D01*
X826381Y179499D02*
X829380Y177500D01*
X275590Y377953D02*
X551181D01*
Y653543D01*
X275590Y377953D02*
Y653543D01*
X551181D01*
X551181Y377953D02*
X826772D01*
Y653543D01*
X551181Y377953D02*
Y653543D01*
X826772D01*
X826772Y377953D02*
X1102362D01*
Y653543D01*
X826772Y377953D02*
Y653543D01*
X1102362D01*
X275590Y669291D02*
X551181D01*
Y944882D01*
X275590Y669291D02*
Y944882D01*
X551181D01*
X551181Y669291D02*
X826772D01*
Y944882D01*
X551181Y669291D02*
Y944882D01*
X826772D01*
X826772Y669291D02*
X1102362D01*
Y944882D01*
X826772Y669291D02*
Y944882D01*
X1102362D01*
D63*
X1244500Y1039063D02*
X1417728D01*
X1102362Y39370D02*
Y118110D01*
X984252Y39370D02*
Y118110D01*
X925197Y98425D02*
X1181102D01*
X925197Y78740D02*
X1181102D01*
X925197Y59055D02*
X1181102D01*
Y39370D02*
Y118110D01*
X925197D02*
X1299213D01*
X1456693Y39370D02*
Y68898D01*
X1358268D02*
X1555118D01*
X1358268Y39370D02*
Y98425D01*
X1555118Y39370D02*
Y98425D01*
Y157480D02*
Y196850D01*
X1299213Y98425D02*
X1614173D01*
X1299213Y157480D02*
X1614173D01*
X1299213Y39370D02*
Y196850D01*
X275590Y944882D02*
X1104331D01*
X275590D02*
Y976378D01*
X1102362Y944882D02*
Y976378D01*
X275590D02*
X1102362D01*
X551181D02*
Y1015748D01*
X826772Y976378D02*
Y1015748D01*
X1102500Y944882D02*
X1143701D01*
X275591Y346457D02*
X1102362D01*
X275591D02*
Y377953D01*
X1102362Y346457D02*
Y377953D01*
X275590D02*
X1102362D01*
X275590D02*
Y944882D01*
X551181Y346457D02*
Y976378D01*
X826772Y346457D02*
Y976378D01*
X1102362Y377953D02*
Y944744D01*
X1102362Y669291D02*
X1143701D01*
X1102362Y653543D02*
X1143701D01*
X1102362Y377953D02*
X1143701D01*
D64*
X925197Y39370D02*
Y196850D01*
X1614173D01*
X98425Y39370D02*
Y1129921D01*
X1614173D01*
Y39370D02*
Y1129921D01*
X98425Y39370D02*
X1614173D01*
D65*
X383500Y174500D02*
X837380D01*
X383500Y186500D02*
X837380D01*
X383500Y90500D02*
Y186500D01*
Y90500D02*
X424491D01*
X383500Y102500D02*
X424491D01*
X383500Y114500D02*
X424491D01*
X383500Y126500D02*
X424491D01*
X383500Y138500D02*
X424491D01*
X383500Y150500D02*
X424491D01*
X383500Y162500D02*
X424491D01*
Y90500D02*
Y186500D01*
Y90500D02*
X517466D01*
X424491Y102500D02*
X517466D01*
X424491Y114500D02*
X517466D01*
X424491Y126500D02*
X517466D01*
X424491Y138500D02*
X517466D01*
X424491Y150500D02*
X517466D01*
X424491Y162500D02*
X517466D01*
Y90500D02*
Y186500D01*
Y90500D02*
X603442D01*
X517466Y102500D02*
X603442D01*
X517466Y114500D02*
X603442D01*
X517466Y126500D02*
X603442D01*
X517466Y138500D02*
X603442D01*
X517466Y150500D02*
X603442D01*
X517466Y162500D02*
X603442D01*
Y90500D02*
Y186500D01*
Y90500D02*
X668426D01*
X603442Y102500D02*
X668426D01*
X603442Y114500D02*
X668426D01*
X603442Y126500D02*
X668426D01*
X603442Y138500D02*
X668426D01*
X603442Y150500D02*
X668426D01*
X603442Y162500D02*
X668426D01*
Y90500D02*
Y186500D01*
Y90500D02*
X725412D01*
X668426Y102500D02*
X725412D01*
X668426Y114500D02*
X725412D01*
X668426Y126500D02*
X725412D01*
X668426Y138500D02*
X725412D01*
X668426Y150500D02*
X725412D01*
X668426Y162500D02*
X725412D01*
Y90500D02*
Y186500D01*
Y90500D02*
X837380D01*
X725412Y102500D02*
X837380D01*
X725412Y114500D02*
X837380D01*
X725412Y126500D02*
X837380D01*
X725412Y138500D02*
X837380D01*
X725412Y150500D02*
X837380D01*
X725412Y162500D02*
X837380D01*
Y90500D02*
Y186500D01*
D66*
X831380Y90500D02*
X837380Y96500D01*
X825380Y90500D02*
X837380Y102500D01*
X819380Y90500D02*
X831380Y102500D01*
X813380Y90500D02*
X825380Y102500D01*
X807380Y90500D02*
X819380Y102500D01*
X801380Y90500D02*
X813380Y102500D01*
X795380Y90500D02*
X807380Y102500D01*
X789380Y90500D02*
X801380Y102500D01*
X783380Y90500D02*
X795380Y102500D01*
X777380Y90500D02*
X789380Y102500D01*
X771380Y90500D02*
X783380Y102500D01*
X765380Y90500D02*
X777380Y102500D01*
X759380Y90500D02*
X771380Y102500D01*
X753380Y90500D02*
X765380Y102500D01*
X747380Y90500D02*
X759380Y102500D01*
X741380Y90500D02*
X753380Y102500D01*
X735380Y90500D02*
X747380Y102500D01*
X729380Y90500D02*
X741380Y102500D01*
X725412Y92532D02*
X735380Y102500D01*
X725412Y98532D02*
X729380Y102500D01*
X831380D02*
X837380Y108500D01*
X825380Y102500D02*
X837380Y114500D01*
X819380Y102500D02*
X831380Y114500D01*
X813380Y102500D02*
X825380Y114500D01*
X807380Y102500D02*
X819380Y114500D01*
X801380Y102500D02*
X813380Y114500D01*
X795380Y102500D02*
X807380Y114500D01*
X789380Y102500D02*
X801380Y114500D01*
X783380Y102500D02*
X795380Y114500D01*
X777380Y102500D02*
X789380Y114500D01*
X771380Y102500D02*
X783380Y114500D01*
X765380Y102500D02*
X777380Y114500D01*
X759380Y102500D02*
X771380Y114500D01*
X753380Y102500D02*
X765380Y114500D01*
X747380Y102500D02*
X759380Y114500D01*
X741380Y102500D02*
X753380Y114500D01*
X735380Y102500D02*
X747380Y114500D01*
X729380Y102500D02*
X741380Y114500D01*
X725412Y104532D02*
X735380Y114500D01*
X725412Y110532D02*
X729380Y114500D01*
X831380D02*
X837380Y120500D01*
X825380Y114500D02*
X837380Y126500D01*
X819380Y114500D02*
X831380Y126500D01*
X813380Y114500D02*
X825380Y126500D01*
X807380Y114500D02*
X819380Y126500D01*
X801380Y114500D02*
X813380Y126500D01*
X795380Y114500D02*
X807380Y126500D01*
X789380Y114500D02*
X801380Y126500D01*
X783380Y114500D02*
X795380Y126500D01*
X777380Y114500D02*
X789380Y126500D01*
X771380Y114500D02*
X783380Y126500D01*
X765380Y114500D02*
X777380Y126500D01*
X759380Y114500D02*
X771380Y126500D01*
X753380Y114500D02*
X765380Y126500D01*
X747380Y114500D02*
X759380Y126500D01*
X741380Y114500D02*
X753380Y126500D01*
X735380Y114500D02*
X747380Y126500D01*
X729380Y114500D02*
X741380Y126500D01*
X725412Y116532D02*
X735380Y126500D01*
X725412Y122532D02*
X729380Y126500D01*
X831380D02*
X837380Y132500D01*
X825380Y126500D02*
X837380Y138500D01*
X819380Y126500D02*
X831380Y138500D01*
X813380Y126500D02*
X825380Y138500D01*
X807380Y126500D02*
X819380Y138500D01*
X801380Y126500D02*
X813380Y138500D01*
X795380Y126500D02*
X807380Y138500D01*
X789380Y126500D02*
X801380Y138500D01*
X783380Y126500D02*
X795380Y138500D01*
X777380Y126500D02*
X789380Y138500D01*
X771380Y126500D02*
X783380Y138500D01*
X765380Y126500D02*
X777380Y138500D01*
X759380Y126500D02*
X771380Y138500D01*
X753380Y126500D02*
X765380Y138500D01*
X747380Y126500D02*
X759380Y138500D01*
X741380Y126500D02*
X753380Y138500D01*
X735380Y126500D02*
X747380Y138500D01*
X729380Y126500D02*
X741380Y138500D01*
X725412Y128532D02*
X735380Y138500D01*
X725412Y134532D02*
X729380Y138500D01*
X831380D02*
X837380Y144500D01*
X825380Y138500D02*
X837380Y150500D01*
X819380Y138500D02*
X831380Y150500D01*
X813380Y138500D02*
X825380Y150500D01*
X807380Y138500D02*
X819380Y150500D01*
X801380Y138500D02*
X813380Y150500D01*
X795380Y138500D02*
X807380Y150500D01*
X789380Y138500D02*
X801380Y150500D01*
X783380Y138500D02*
X795380Y150500D01*
X777380Y138500D02*
X789380Y150500D01*
X771380Y138500D02*
X783380Y150500D01*
X765380Y138500D02*
X777380Y150500D01*
X759380Y138500D02*
X771380Y150500D01*
X753380Y138500D02*
X765380Y150500D01*
X747380Y138500D02*
X759380Y150500D01*
X741380Y138500D02*
X753380Y150500D01*
X735380Y138500D02*
X747380Y150500D01*
X729380Y138500D02*
X741380Y150500D01*
X725412Y140532D02*
X735380Y150500D01*
X725412Y146532D02*
X729380Y150500D01*
X831380D02*
X837380Y156500D01*
X825380Y150500D02*
X837380Y162500D01*
X819380Y150500D02*
X831380Y162500D01*
X813380Y150500D02*
X825380Y162500D01*
X807380Y150500D02*
X819380Y162500D01*
X801380Y150500D02*
X813380Y162500D01*
X795380Y150500D02*
X807380Y162500D01*
X789380Y150500D02*
X801380Y162500D01*
X783380Y150500D02*
X795380Y162500D01*
X777380Y150500D02*
X789380Y162500D01*
X771380Y150500D02*
X783380Y162500D01*
X765380Y150500D02*
X777380Y162500D01*
X759380Y150500D02*
X771380Y162500D01*
X753380Y150500D02*
X765380Y162500D01*
X747380Y150500D02*
X759380Y162500D01*
X741380Y150500D02*
X753380Y162500D01*
X735380Y150500D02*
X747380Y162500D01*
X729380Y150500D02*
X741380Y162500D01*
X725412Y152532D02*
X735380Y162500D01*
X725412Y158532D02*
X729380Y162500D01*
X831380D02*
X837380Y168500D01*
X825380Y162500D02*
X837380Y174500D01*
X819380Y162500D02*
X831380Y174500D01*
X813380Y162500D02*
X825380Y174500D01*
X807380Y162500D02*
X819380Y174500D01*
X801380Y162500D02*
X813380Y174500D01*
X795380Y162500D02*
X807380Y174500D01*
X789380Y162500D02*
X801380Y174500D01*
X783380Y162500D02*
X795380Y174500D01*
X777380Y162500D02*
X789380Y174500D01*
X771380Y162500D02*
X783380Y174500D01*
X765380Y162500D02*
X777380Y174500D01*
X759380Y162500D02*
X771380Y174500D01*
X753380Y162500D02*
X765380Y174500D01*
X747380Y162500D02*
X759380Y174500D01*
X741380Y162500D02*
X753380Y174500D01*
X735380Y162500D02*
X747380Y174500D01*
X729380Y162500D02*
X741380Y174500D01*
X725412Y164532D02*
X735380Y174500D01*
X725412Y170532D02*
X729380Y174500D01*
D67*
X285832Y1019031D02*
X281834D01*
Y1016032D01*
X283833Y1017031D01*
X284833D01*
X285832Y1016032D01*
Y1014032D01*
X284833Y1013033D01*
X282833D01*
X281834Y1014032D01*
X305518Y1019031D02*
X301519D01*
Y1016032D01*
X303518Y1017031D01*
X304518D01*
X305518Y1016032D01*
Y1014032D01*
X304518Y1013033D01*
X302518D01*
X301519Y1014032D01*
X325202Y1019031D02*
X321204D01*
Y1016032D01*
X323203Y1017031D01*
X324203D01*
X325202Y1016032D01*
Y1014032D01*
X324203Y1013033D01*
X322203D01*
X321204Y1014032D01*
X242804Y358605D02*
X241804Y359605D01*
Y361604D01*
X242804Y362604D01*
X243803D01*
X244803Y361604D01*
X245803Y362604D01*
X246802D01*
X247802Y361604D01*
Y359605D01*
X246802Y358605D01*
X245803D01*
X244803Y359605D01*
X243803Y358605D01*
X242804D01*
X244803Y359605D02*
Y361604D01*
X241804Y509150D02*
Y513148D01*
X242804D01*
X246802Y509150D01*
X247802D01*
X242804Y515148D02*
X241804Y516147D01*
Y518147D01*
X242804Y519146D01*
X246802D01*
X247802Y518147D01*
Y516147D01*
X246802Y515148D01*
X242804D01*
X247802Y660817D02*
X241804D01*
X244803Y657818D01*
Y661817D01*
X241804Y800488D02*
Y804487D01*
X242804D01*
X246802Y800488D01*
X247802D01*
X242804Y806486D02*
X241804Y807486D01*
Y809485D01*
X242804Y810485D01*
X246802D01*
X247802Y809485D01*
Y807486D01*
X246802Y806486D01*
X242804D01*
Y957031D02*
X241804Y958030D01*
Y960030D01*
X242804Y961029D01*
X243803D01*
X244803Y960030D01*
X245803Y961029D01*
X246802D01*
X247802Y960030D01*
Y958030D01*
X246802Y957031D01*
X245803D01*
X244803Y958030D01*
X243803Y957031D01*
X242804D01*
X244803Y958030D02*
Y960030D01*
X225302Y652320D02*
Y654319D01*
Y653319D01*
X219304D01*
X220304Y652320D01*
X219304Y661317D02*
X220304Y659317D01*
X222303Y657318D01*
X224302D01*
X225302Y658318D01*
Y660317D01*
X224302Y661317D01*
X223303D01*
X222303Y660317D01*
Y657318D01*
X220304Y663316D02*
X219304Y664316D01*
Y666315D01*
X220304Y667315D01*
X224302D01*
X225302Y666315D01*
Y664316D01*
X224302Y663316D01*
X220304D01*
X406787Y335696D02*
X410786D01*
Y334696D01*
X406787Y330698D01*
Y329698D01*
X412785Y334696D02*
X413785Y335696D01*
X415785D01*
X416784Y334696D01*
Y330698D01*
X415785Y329698D01*
X413785D01*
X412785Y330698D01*
Y334696D01*
X682378Y335696D02*
X686377D01*
Y334696D01*
X682378Y330698D01*
Y329698D01*
X688376Y334696D02*
X689376Y335696D01*
X691375D01*
X692375Y334696D01*
Y330698D01*
X691375Y329698D01*
X689376D01*
X688376Y330698D01*
Y334696D01*
X957969Y335696D02*
X961967D01*
Y334696D01*
X957969Y330698D01*
Y329698D01*
X963967Y334696D02*
X964966Y335696D01*
X966966D01*
X967965Y334696D01*
Y330698D01*
X966966Y329698D01*
X964966D01*
X963967Y330698D01*
Y334696D01*
X683878Y307198D02*
X679879D01*
X683878Y311197D01*
Y312196D01*
X682878Y313196D01*
X680878D01*
X679879Y312196D01*
X685877Y307198D02*
X687876D01*
X686877D01*
Y313196D01*
X685877Y312196D01*
X690875D02*
X691875Y313196D01*
X693874D01*
X694874Y312196D01*
Y308198D01*
X693874Y307198D01*
X691875D01*
X690875Y308198D01*
Y312196D01*
X1121302Y353730D02*
X1115304D01*
X1118303Y350731D01*
Y354730D01*
D68*
X1266154Y972131D02*
X1271401D01*
X1268777D01*
Y964260D01*
X1274025Y972131D02*
X1276649D01*
X1275337D01*
Y964260D01*
X1274025D01*
X1276649D01*
X1285832Y970819D02*
X1284520Y972131D01*
X1281896D01*
X1280585Y970819D01*
Y965572D01*
X1281896Y964260D01*
X1284520D01*
X1285832Y965572D01*
X1288456Y972131D02*
Y964260D01*
Y966884D01*
X1293704Y972131D01*
X1289768Y968196D01*
X1293704Y964260D01*
X1296327D02*
Y972131D01*
X1301575Y964260D01*
Y972131D01*
X1309447D02*
X1304199D01*
Y964260D01*
X1309447D01*
X1304199Y968196D02*
X1306823D01*
X1317318Y970819D02*
X1316006Y972131D01*
X1313382D01*
X1312070Y970819D01*
Y969508D01*
X1313382Y968196D01*
X1316006D01*
X1317318Y966884D01*
Y965572D01*
X1316006Y964260D01*
X1313382D01*
X1312070Y965572D01*
X1325190Y970819D02*
X1323878Y972131D01*
X1321254D01*
X1319942Y970819D01*
Y969508D01*
X1321254Y968196D01*
X1323878D01*
X1325190Y966884D01*
Y965572D01*
X1323878Y964260D01*
X1321254D01*
X1319942Y965572D01*
X1327814Y969508D02*
X1329125D01*
Y968196D01*
X1327814D01*
Y969508D01*
Y965572D02*
X1329125D01*
Y964260D01*
X1327814D01*
Y965572D01*
X1342245Y964260D02*
X1344868D01*
X1343556D01*
Y972131D01*
X1342245Y970819D01*
X1350116Y962948D02*
X1351428Y964260D01*
Y965572D01*
X1350116D01*
Y964260D01*
X1351428D01*
X1350116Y962948D01*
X1348804Y961636D01*
X1361923Y972131D02*
X1359299Y970819D01*
X1356676Y968196D01*
Y965572D01*
X1357987Y964260D01*
X1360611D01*
X1361923Y965572D01*
Y966884D01*
X1360611Y968196D01*
X1356676D01*
X1372418Y964260D02*
Y969508D01*
X1373730D01*
X1375042Y968196D01*
Y964260D01*
Y968196D01*
X1376354Y969508D01*
X1377666Y968196D01*
Y964260D01*
X1380290D02*
Y969508D01*
X1381602D01*
X1382914Y968196D01*
Y964260D01*
Y968196D01*
X1384226Y969508D01*
X1385538Y968196D01*
Y964260D01*
X1266154Y629614D02*
Y637486D01*
X1270089D01*
X1271401Y636174D01*
Y633550D01*
X1270089Y632238D01*
X1266154D01*
X1274025Y629614D02*
Y634862D01*
X1276649Y637486D01*
X1279273Y634862D01*
Y629614D01*
Y633550D01*
X1274025D01*
X1287144Y636174D02*
X1285832Y637486D01*
X1283208D01*
X1281896Y636174D01*
Y630926D01*
X1283208Y629614D01*
X1285832D01*
X1287144Y630926D01*
X1289768Y637486D02*
Y629614D01*
Y632238D01*
X1295016Y637486D01*
X1291080Y633550D01*
X1295016Y629614D01*
X1297639D02*
Y634862D01*
X1300263Y637486D01*
X1302887Y634862D01*
Y629614D01*
Y633550D01*
X1297639D01*
X1310759Y636174D02*
X1309447Y637486D01*
X1306823D01*
X1305511Y636174D01*
Y630926D01*
X1306823Y629614D01*
X1309447D01*
X1310759Y630926D01*
Y633550D01*
X1308135D01*
X1318630Y637486D02*
X1313382D01*
Y629614D01*
X1318630D01*
X1313382Y633550D02*
X1316006D01*
X1321254Y637486D02*
Y629614D01*
X1325190D01*
X1326501Y630926D01*
Y636174D01*
X1325190Y637486D01*
X1321254D01*
X1336997D02*
X1339621D01*
X1338309D01*
Y629614D01*
X1336997D01*
X1339621D01*
X1343556D02*
Y637486D01*
X1348804Y629614D01*
Y637486D01*
X1359299D02*
Y632238D01*
X1361923Y629614D01*
X1364547Y632238D01*
Y637486D01*
X1367171Y629614D02*
Y634862D01*
X1369795Y637486D01*
X1372418Y634862D01*
Y629614D01*
Y633550D01*
X1367171D01*
X1380290Y636174D02*
X1378978Y637486D01*
X1376354D01*
X1375042Y636174D01*
Y630926D01*
X1376354Y629614D01*
X1378978D01*
X1380290Y630926D01*
X1382914Y637486D02*
Y630926D01*
X1384226Y629614D01*
X1386850D01*
X1388161Y630926D01*
Y637486D01*
X1390785D02*
Y630926D01*
X1392097Y629614D01*
X1394721D01*
X1396033Y630926D01*
Y637486D01*
X1398657Y629614D02*
Y637486D01*
X1401281Y634862D01*
X1403904Y637486D01*
Y629614D01*
X1419647Y636174D02*
X1418336Y637486D01*
X1415712D01*
X1414400Y636174D01*
Y634862D01*
X1415712Y633550D01*
X1418336D01*
X1419647Y632238D01*
Y630926D01*
X1418336Y629614D01*
X1415712D01*
X1414400Y630926D01*
X1427519Y637486D02*
X1422271D01*
Y629614D01*
X1427519D01*
X1422271Y633550D02*
X1424895D01*
X1430143Y629614D02*
Y634862D01*
X1432767Y637486D01*
X1435390Y634862D01*
Y629614D01*
Y633550D01*
X1430143D01*
X1438014Y637486D02*
Y629614D01*
X1443262D01*
X1451133Y637486D02*
X1445886D01*
Y629614D01*
X1451133D01*
X1445886Y633550D02*
X1448510D01*
X1453757Y637486D02*
Y629614D01*
X1457693D01*
X1459005Y630926D01*
Y636174D01*
X1457693Y637486D01*
X1453757D01*
X1469500D02*
X1472124D01*
X1470812D01*
Y629614D01*
X1469500D01*
X1472124D01*
X1476060D02*
Y637486D01*
X1481307Y629614D01*
Y637486D01*
X1483931Y629614D02*
Y637486D01*
X1489179Y629614D01*
Y637486D01*
X1497050D02*
X1491803D01*
Y629614D01*
X1497050D01*
X1491803Y633550D02*
X1494426D01*
X1499674Y629614D02*
Y637486D01*
X1503610D01*
X1504922Y636174D01*
Y633550D01*
X1503610Y632238D01*
X1499674D01*
X1502298D02*
X1504922Y629614D01*
X1520665Y636174D02*
X1519353Y637486D01*
X1516729D01*
X1515417Y636174D01*
Y630926D01*
X1516729Y629614D01*
X1519353D01*
X1520665Y630926D01*
X1527224Y637486D02*
X1524600D01*
X1523289Y636174D01*
Y630926D01*
X1524600Y629614D01*
X1527224D01*
X1528536Y630926D01*
Y636174D01*
X1527224Y637486D01*
X1531160Y629614D02*
Y637486D01*
X1536408Y629614D01*
Y637486D01*
X1539032D02*
X1544279D01*
X1541655D01*
Y629614D01*
X1546903D02*
Y634862D01*
X1549527Y637486D01*
X1552151Y634862D01*
Y629614D01*
Y633550D01*
X1546903D01*
X1554774Y637486D02*
X1557398D01*
X1556086D01*
Y629614D01*
X1554774D01*
X1557398D01*
X1561334D02*
Y637486D01*
X1566582Y629614D01*
Y637486D01*
X1574453D02*
X1569205D01*
Y629614D01*
X1574453D01*
X1569205Y633550D02*
X1571829D01*
X1577077Y629614D02*
Y637486D01*
X1581013D01*
X1582325Y636174D01*
Y633550D01*
X1581013Y632238D01*
X1577077D01*
X1579701D02*
X1582325Y629614D01*
X1590196Y636174D02*
X1588884Y637486D01*
X1586260D01*
X1584949Y636174D01*
Y634862D01*
X1586260Y633550D01*
X1588884D01*
X1590196Y632238D01*
Y630926D01*
X1588884Y629614D01*
X1586260D01*
X1584949Y630926D01*
X1271401Y735911D02*
X1266154D01*
Y728039D01*
X1271401D01*
X1266154Y731975D02*
X1268777D01*
X1274025Y728039D02*
Y735911D01*
X1277961D01*
X1279273Y734599D01*
Y731975D01*
X1277961Y730663D01*
X1274025D01*
X1285832Y735911D02*
X1283208D01*
X1281896Y734599D01*
Y729351D01*
X1283208Y728039D01*
X1285832D01*
X1287144Y729351D01*
Y734599D01*
X1285832Y735911D01*
X1289768D02*
X1295016Y728039D01*
Y735911D02*
X1289768Y728039D01*
X1297639Y735911D02*
Y734599D01*
X1300263Y731975D01*
X1302887Y734599D01*
Y735911D01*
X1300263Y731975D02*
Y728039D01*
X1313382D02*
Y735911D01*
X1318630Y728039D01*
Y735911D01*
X1325190D02*
X1322566D01*
X1321254Y734599D01*
Y729351D01*
X1322566Y728039D01*
X1325190D01*
X1326501Y729351D01*
Y734599D01*
X1325190Y735911D01*
X1329125Y728039D02*
Y735911D01*
X1334373Y728039D01*
Y735911D01*
X1350116Y734599D02*
X1348804Y735911D01*
X1346180D01*
X1344868Y734599D01*
Y729351D01*
X1346180Y728039D01*
X1348804D01*
X1350116Y729351D01*
X1356676Y735911D02*
X1354052D01*
X1352740Y734599D01*
Y729351D01*
X1354052Y728039D01*
X1356676D01*
X1357987Y729351D01*
Y734599D01*
X1356676Y735911D01*
X1360611Y728039D02*
Y735911D01*
X1365859Y728039D01*
Y735911D01*
X1368483D02*
Y728039D01*
X1372418D01*
X1373730Y729351D01*
Y734599D01*
X1372418Y735911D01*
X1368483D01*
X1376354D02*
Y729351D01*
X1377666Y728039D01*
X1380290D01*
X1381602Y729351D01*
Y735911D01*
X1389473Y734599D02*
X1388161Y735911D01*
X1385538D01*
X1384226Y734599D01*
Y729351D01*
X1385538Y728039D01*
X1388161D01*
X1389473Y729351D01*
X1392097Y735911D02*
X1397345D01*
X1394721D01*
Y728039D01*
X1399969Y735911D02*
X1402592D01*
X1401281D01*
Y728039D01*
X1399969D01*
X1402592D01*
X1406528Y735911D02*
Y730663D01*
X1409152Y728039D01*
X1411776Y730663D01*
Y735911D01*
X1419647D02*
X1414400D01*
Y728039D01*
X1419647D01*
X1414400Y731975D02*
X1417024D01*
X1266154Y834336D02*
Y826465D01*
X1271401D01*
X1274025Y834336D02*
X1276649D01*
X1275337D01*
Y826465D01*
X1274025D01*
X1276649D01*
X1285832Y827777D02*
Y833024D01*
X1284520Y834336D01*
X1281896D01*
X1280585Y833024D01*
Y827777D01*
X1281896Y826465D01*
X1284520D01*
X1283208Y829088D02*
X1285832Y826465D01*
X1284520D02*
X1285832Y827777D01*
X1288456Y834336D02*
Y827777D01*
X1289768Y826465D01*
X1292392D01*
X1293704Y827777D01*
Y834336D01*
X1296327D02*
X1298951D01*
X1297639D01*
Y826465D01*
X1296327D01*
X1298951D01*
X1302887Y834336D02*
Y826465D01*
X1306823D01*
X1308135Y827777D01*
Y833024D01*
X1306823Y834336D01*
X1302887D01*
X1318630Y826465D02*
Y834336D01*
X1322566D01*
X1323878Y833024D01*
Y830400D01*
X1322566Y829088D01*
X1318630D01*
X1326501Y834336D02*
Y826465D01*
Y830400D01*
X1331749D01*
Y834336D01*
Y826465D01*
X1338309Y834336D02*
X1335685D01*
X1334373Y833024D01*
Y827777D01*
X1335685Y826465D01*
X1338309D01*
X1339621Y827777D01*
Y833024D01*
X1338309Y834336D01*
X1342245D02*
X1347492D01*
X1344868D01*
Y826465D01*
X1354052Y834336D02*
X1351428D01*
X1350116Y833024D01*
Y827777D01*
X1351428Y826465D01*
X1354052D01*
X1355364Y827777D01*
Y833024D01*
X1354052Y834336D01*
X1357987Y830400D02*
X1363235D01*
X1365859Y834336D02*
X1368483D01*
X1367171D01*
Y826465D01*
X1365859D01*
X1368483D01*
X1372418D02*
Y834336D01*
X1375042Y831712D01*
X1377666Y834336D01*
Y826465D01*
X1380290D02*
Y831712D01*
X1382914Y834336D01*
X1385538Y831712D01*
Y826465D01*
Y830400D01*
X1380290D01*
X1393409Y833024D02*
X1392097Y834336D01*
X1389473D01*
X1388161Y833024D01*
Y827777D01*
X1389473Y826465D01*
X1392097D01*
X1393409Y827777D01*
Y830400D01*
X1390785D01*
X1401281Y834336D02*
X1396033D01*
Y826465D01*
X1401281D01*
X1396033Y830400D02*
X1398657D01*
X1403904Y826465D02*
Y831712D01*
X1406528Y834336D01*
X1409152Y831712D01*
Y826465D01*
Y830400D01*
X1403904D01*
X1411776Y834336D02*
Y826465D01*
X1415712D01*
X1417024Y827777D01*
Y829088D01*
X1415712Y830400D01*
X1411776D01*
X1415712D01*
X1417024Y831712D01*
Y833024D01*
X1415712Y834336D01*
X1411776D01*
X1419647D02*
Y826465D01*
X1424895D01*
X1432767Y834336D02*
X1427519D01*
Y826465D01*
X1432767D01*
X1427519Y830400D02*
X1430143D01*
X1445886Y826465D02*
X1443262Y829088D01*
Y831712D01*
X1445886Y834336D01*
X1449821D02*
Y826465D01*
X1455069D01*
X1457693D02*
Y834336D01*
X1461629D01*
X1462941Y833024D01*
Y830400D01*
X1461629Y829088D01*
X1457693D01*
X1465564Y834336D02*
X1468188D01*
X1466876D01*
Y826465D01*
X1465564D01*
X1468188D01*
X1472124D02*
X1474748Y829088D01*
Y831712D01*
X1472124Y834336D01*
X1271401Y852709D02*
X1270089Y854021D01*
X1267465D01*
X1266154Y852709D01*
Y851397D01*
X1267465Y850085D01*
X1270089D01*
X1271401Y848773D01*
Y847462D01*
X1270089Y846150D01*
X1267465D01*
X1266154Y847462D01*
X1277961Y854021D02*
X1275337D01*
X1274025Y852709D01*
Y847462D01*
X1275337Y846150D01*
X1277961D01*
X1279273Y847462D01*
Y852709D01*
X1277961Y854021D01*
X1281896D02*
Y846150D01*
X1287144D01*
X1289768Y854021D02*
Y846150D01*
X1293704D01*
X1295016Y847462D01*
Y852709D01*
X1293704Y854021D01*
X1289768D01*
X1302887D02*
X1297639D01*
Y846150D01*
X1302887D01*
X1297639Y850085D02*
X1300263D01*
X1305511Y846150D02*
Y854021D01*
X1309447D01*
X1310759Y852709D01*
Y850085D01*
X1309447Y848773D01*
X1305511D01*
X1308135D02*
X1310759Y846150D01*
X1313382D02*
Y854021D01*
X1316006Y851397D01*
X1318630Y854021D01*
Y846150D01*
X1321254D02*
Y851397D01*
X1323878Y854021D01*
X1326501Y851397D01*
Y846150D01*
Y850085D01*
X1321254D01*
X1334373Y852709D02*
X1333061Y854021D01*
X1330437D01*
X1329125Y852709D01*
Y851397D01*
X1330437Y850085D01*
X1333061D01*
X1334373Y848773D01*
Y847462D01*
X1333061Y846150D01*
X1330437D01*
X1329125Y847462D01*
X1336997Y854021D02*
Y846150D01*
Y848773D01*
X1342245Y854021D01*
X1338309Y850085D01*
X1342245Y846150D01*
X1356676Y854021D02*
X1354052D01*
X1352740Y852709D01*
Y847462D01*
X1354052Y846150D01*
X1356676D01*
X1357987Y847462D01*
Y852709D01*
X1356676Y854021D01*
X1360611D02*
Y848773D01*
X1363235Y846150D01*
X1365859Y848773D01*
Y854021D01*
X1373730D02*
X1368483D01*
Y846150D01*
X1373730D01*
X1368483Y850085D02*
X1371107D01*
X1376354Y846150D02*
Y854021D01*
X1380290D01*
X1381602Y852709D01*
Y850085D01*
X1380290Y848773D01*
X1376354D01*
X1378978D02*
X1381602Y846150D01*
X1392097Y854021D02*
Y846150D01*
X1396033D01*
X1397345Y847462D01*
Y848773D01*
X1396033Y850085D01*
X1392097D01*
X1396033D01*
X1397345Y851397D01*
Y852709D01*
X1396033Y854021D01*
X1392097D01*
X1399969Y846150D02*
Y851397D01*
X1402592Y854021D01*
X1405216Y851397D01*
Y846150D01*
Y850085D01*
X1399969D01*
X1407840Y846150D02*
Y854021D01*
X1411776D01*
X1413088Y852709D01*
Y850085D01*
X1411776Y848773D01*
X1407840D01*
X1410464D02*
X1413088Y846150D01*
X1420959Y854021D02*
X1415712D01*
Y846150D01*
X1420959D01*
X1415712Y850085D02*
X1418336D01*
X1436702Y852709D02*
X1435390Y854021D01*
X1432767D01*
X1431455Y852709D01*
Y847462D01*
X1432767Y846150D01*
X1435390D01*
X1436702Y847462D01*
X1443262Y854021D02*
X1440638D01*
X1439326Y852709D01*
Y847462D01*
X1440638Y846150D01*
X1443262D01*
X1444574Y847462D01*
Y852709D01*
X1443262Y854021D01*
X1447198Y846150D02*
Y854021D01*
X1451133D01*
X1452445Y852709D01*
Y850085D01*
X1451133Y848773D01*
X1447198D01*
X1455069Y846150D02*
Y854021D01*
X1459005D01*
X1460317Y852709D01*
Y850085D01*
X1459005Y848773D01*
X1455069D01*
X1468188Y854021D02*
X1462941D01*
Y846150D01*
X1468188D01*
X1462941Y850085D02*
X1465564D01*
X1470812Y846150D02*
Y854021D01*
X1474748D01*
X1476060Y852709D01*
Y850085D01*
X1474748Y848773D01*
X1470812D01*
X1473436D02*
X1476060Y846150D01*
X1249748Y657171D02*
X1244500D01*
Y653235D01*
X1247124Y654547D01*
X1248436D01*
X1249748Y653235D01*
Y650611D01*
X1248436Y649299D01*
X1245812D01*
X1244500Y650611D01*
X1252372Y649299D02*
Y650611D01*
X1253683D01*
Y649299D01*
X1252372D01*
X1266803D02*
Y657171D01*
X1270738D01*
X1272050Y655859D01*
Y653235D01*
X1270738Y651923D01*
X1266803D01*
X1274674Y649299D02*
Y654547D01*
X1277298Y657171D01*
X1279922Y654547D01*
Y649299D01*
Y653235D01*
X1274674D01*
X1287793Y655859D02*
X1286481Y657171D01*
X1283857D01*
X1282545Y655859D01*
Y650611D01*
X1283857Y649299D01*
X1286481D01*
X1287793Y650611D01*
X1290417Y657171D02*
Y649299D01*
Y651923D01*
X1295665Y657171D01*
X1291729Y653235D01*
X1295665Y649299D01*
X1298288D02*
Y654547D01*
X1300912Y657171D01*
X1303536Y654547D01*
Y649299D01*
Y653235D01*
X1298288D01*
X1311408Y655859D02*
X1310096Y657171D01*
X1307472D01*
X1306160Y655859D01*
Y650611D01*
X1307472Y649299D01*
X1310096D01*
X1311408Y650611D01*
Y653235D01*
X1308784D01*
X1314031Y657171D02*
X1316655D01*
X1315343D01*
Y649299D01*
X1314031D01*
X1316655D01*
X1320591D02*
Y657171D01*
X1325839Y649299D01*
Y657171D01*
X1333710Y655859D02*
X1332398Y657171D01*
X1329774D01*
X1328462Y655859D01*
Y650611D01*
X1329774Y649299D01*
X1332398D01*
X1333710Y650611D01*
Y653235D01*
X1331086D01*
X1344205Y649299D02*
Y657171D01*
X1348141D01*
X1349453Y655859D01*
Y653235D01*
X1348141Y651923D01*
X1344205D01*
X1346829D02*
X1349453Y649299D01*
X1357325Y657171D02*
X1352077D01*
Y649299D01*
X1357325D01*
X1352077Y653235D02*
X1354701D01*
X1365196Y650611D02*
Y655859D01*
X1363884Y657171D01*
X1361260D01*
X1359948Y655859D01*
Y650611D01*
X1361260Y649299D01*
X1363884D01*
X1362572Y651923D02*
X1365196Y649299D01*
X1363884D02*
X1365196Y650611D01*
X1367820Y657171D02*
Y650611D01*
X1369132Y649299D01*
X1371756D01*
X1373067Y650611D01*
Y657171D01*
X1375691D02*
X1378315D01*
X1377003D01*
Y649299D01*
X1375691D01*
X1378315D01*
X1382251D02*
Y657171D01*
X1386187D01*
X1387498Y655859D01*
Y653235D01*
X1386187Y651923D01*
X1382251D01*
X1384875D02*
X1387498Y649299D01*
X1395370Y657171D02*
X1390122D01*
Y649299D01*
X1395370D01*
X1390122Y653235D02*
X1392746D01*
X1397994Y649299D02*
Y657171D01*
X1400618Y654547D01*
X1403242Y657171D01*
Y649299D01*
X1411113Y657171D02*
X1405865D01*
Y649299D01*
X1411113D01*
X1405865Y653235D02*
X1408489D01*
X1413737Y649299D02*
Y657171D01*
X1418984Y649299D01*
Y657171D01*
X1421608D02*
X1426856D01*
X1424232D01*
Y649299D01*
X1434727Y655859D02*
X1433416Y657171D01*
X1430792D01*
X1429480Y655859D01*
Y654547D01*
X1430792Y653235D01*
X1433416D01*
X1434727Y651923D01*
Y650611D01*
X1433416Y649299D01*
X1430792D01*
X1429480Y650611D01*
X1248436Y747724D02*
Y755596D01*
X1244500Y751660D01*
X1249748D01*
X1252372Y747724D02*
Y749036D01*
X1253683D01*
Y747724D01*
X1252372D01*
X1272050Y754284D02*
X1270738Y755596D01*
X1268114D01*
X1266803Y754284D01*
Y752972D01*
X1268114Y751660D01*
X1270738D01*
X1272050Y750348D01*
Y749036D01*
X1270738Y747724D01*
X1268114D01*
X1266803Y749036D01*
X1274674Y755596D02*
X1277298D01*
X1275986D01*
Y747724D01*
X1274674D01*
X1277298D01*
X1281234Y755596D02*
Y747724D01*
X1286481D01*
X1289105Y755596D02*
Y747724D01*
Y750348D01*
X1294353Y755596D01*
X1290417Y751660D01*
X1294353Y747724D01*
X1302224Y754284D02*
X1300912Y755596D01*
X1298288D01*
X1296976Y754284D01*
Y752972D01*
X1298288Y751660D01*
X1300912D01*
X1302224Y750348D01*
Y749036D01*
X1300912Y747724D01*
X1298288D01*
X1296976Y749036D01*
X1310096Y754284D02*
X1308784Y755596D01*
X1306160D01*
X1304848Y754284D01*
Y749036D01*
X1306160Y747724D01*
X1308784D01*
X1310096Y749036D01*
X1312720Y747724D02*
Y755596D01*
X1316655D01*
X1317967Y754284D01*
Y751660D01*
X1316655Y750348D01*
X1312720D01*
X1315343D02*
X1317967Y747724D01*
X1325839Y755596D02*
X1320591D01*
Y747724D01*
X1325839D01*
X1320591Y751660D02*
X1323215D01*
X1333710Y755596D02*
X1328462D01*
Y747724D01*
X1333710D01*
X1328462Y751660D02*
X1331086D01*
X1336334Y747724D02*
Y755596D01*
X1341582Y747724D01*
Y755596D01*
X1244500Y872394D02*
X1245812Y873706D01*
X1248436D01*
X1249748Y872394D01*
Y871082D01*
X1248436Y869770D01*
X1247124D01*
X1248436D01*
X1249748Y868458D01*
Y867147D01*
X1248436Y865835D01*
X1245812D01*
X1244500Y867147D01*
X1252372Y865835D02*
Y867147D01*
X1253683D01*
Y865835D01*
X1252372D01*
X1272050Y872394D02*
X1270738Y873706D01*
X1268114D01*
X1266803Y872394D01*
Y871082D01*
X1268114Y869770D01*
X1270738D01*
X1272050Y868458D01*
Y867147D01*
X1270738Y865835D01*
X1268114D01*
X1266803Y867147D01*
X1278610Y873706D02*
X1275986D01*
X1274674Y872394D01*
Y867147D01*
X1275986Y865835D01*
X1278610D01*
X1279922Y867147D01*
Y872394D01*
X1278610Y873706D01*
X1282545D02*
Y865835D01*
X1287793D01*
X1290417Y873706D02*
Y865835D01*
X1294353D01*
X1295665Y867147D01*
Y872394D01*
X1294353Y873706D01*
X1290417D01*
X1303536D02*
X1298288D01*
Y865835D01*
X1303536D01*
X1298288Y869770D02*
X1300912D01*
X1306160Y865835D02*
Y873706D01*
X1310096D01*
X1311408Y872394D01*
Y869770D01*
X1310096Y868458D01*
X1306160D01*
X1308784D02*
X1311408Y865835D01*
X1314031D02*
Y873706D01*
X1316655Y871082D01*
X1319279Y873706D01*
Y865835D01*
X1321903D02*
Y871082D01*
X1324527Y873706D01*
X1327151Y871082D01*
Y865835D01*
Y869770D01*
X1321903D01*
X1335022Y872394D02*
X1333710Y873706D01*
X1331086D01*
X1329774Y872394D01*
Y871082D01*
X1331086Y869770D01*
X1333710D01*
X1335022Y868458D01*
Y867147D01*
X1333710Y865835D01*
X1331086D01*
X1329774Y867147D01*
X1337646Y873706D02*
Y865835D01*
Y868458D01*
X1342894Y873706D01*
X1338958Y869770D01*
X1342894Y865835D01*
X1249748Y924890D02*
X1244500D01*
X1249748Y930137D01*
Y931449D01*
X1248436Y932761D01*
X1245812D01*
X1244500Y931449D01*
X1252372Y924890D02*
Y926202D01*
X1253683D01*
Y924890D01*
X1252372D01*
X1272050Y931449D02*
X1270738Y932761D01*
X1268114D01*
X1266803Y931449D01*
Y930137D01*
X1268114Y928825D01*
X1270738D01*
X1272050Y927514D01*
Y926202D01*
X1270738Y924890D01*
X1268114D01*
X1266803Y926202D01*
X1274674Y932761D02*
Y926202D01*
X1275986Y924890D01*
X1278610D01*
X1279922Y926202D01*
Y932761D01*
X1287793D02*
X1282545D01*
Y928825D01*
X1285169D01*
X1282545D01*
Y924890D01*
X1290417D02*
Y930137D01*
X1293041Y932761D01*
X1295665Y930137D01*
Y924890D01*
Y928825D01*
X1290417D01*
X1303536Y931449D02*
X1302224Y932761D01*
X1299600D01*
X1298288Y931449D01*
Y926202D01*
X1299600Y924890D01*
X1302224D01*
X1303536Y926202D01*
X1311408Y932761D02*
X1306160D01*
Y924890D01*
X1311408D01*
X1306160Y928825D02*
X1308784D01*
X1327151Y932761D02*
X1321903D01*
Y928825D01*
X1324527D01*
X1321903D01*
Y924890D01*
X1329774Y932761D02*
X1332398D01*
X1331086D01*
Y924890D01*
X1329774D01*
X1332398D01*
X1336334D02*
Y932761D01*
X1341582Y924890D01*
Y932761D01*
X1344205D02*
X1346829D01*
X1345517D01*
Y924890D01*
X1344205D01*
X1346829D01*
X1356013Y931449D02*
X1354701Y932761D01*
X1352077D01*
X1350765Y931449D01*
Y930137D01*
X1352077Y928825D01*
X1354701D01*
X1356013Y927514D01*
Y926202D01*
X1354701Y924890D01*
X1352077D01*
X1350765Y926202D01*
X1358636Y932761D02*
Y924890D01*
Y928825D01*
X1363884D01*
Y932761D01*
Y924890D01*
X1244500Y1003630D02*
X1247124D01*
X1245812D01*
Y1011501D01*
X1244500Y1010190D01*
X1251060Y1003630D02*
Y1004942D01*
X1252372D01*
Y1003630D01*
X1251060D01*
X1265491D02*
Y1011501D01*
X1268114Y1008878D01*
X1270738Y1011501D01*
Y1003630D01*
X1273362D02*
Y1008878D01*
X1275986Y1011501D01*
X1278610Y1008878D01*
Y1003630D01*
Y1007566D01*
X1273362D01*
X1281234Y1011501D02*
X1286481D01*
X1283857D01*
Y1003630D01*
X1294353Y1011501D02*
X1289105D01*
Y1003630D01*
X1294353D01*
X1289105Y1007566D02*
X1291729D01*
X1296976Y1003630D02*
Y1011501D01*
X1300912D01*
X1302224Y1010190D01*
Y1007566D01*
X1300912Y1006254D01*
X1296976D01*
X1299600D02*
X1302224Y1003630D01*
X1304848Y1011501D02*
X1307472D01*
X1306160D01*
Y1003630D01*
X1304848D01*
X1307472D01*
X1311408D02*
Y1008878D01*
X1314031Y1011501D01*
X1316655Y1008878D01*
Y1003630D01*
Y1007566D01*
X1311408D01*
X1319279Y1011501D02*
Y1003630D01*
X1324527D01*
X1271401Y911764D02*
X1270089Y913076D01*
X1267465D01*
X1266154Y911764D01*
Y910452D01*
X1267465Y909140D01*
X1270089D01*
X1271401Y907829D01*
Y906517D01*
X1270089Y905205D01*
X1267465D01*
X1266154Y906517D01*
X1279273Y913076D02*
X1274025D01*
Y905205D01*
X1279273D01*
X1274025Y909140D02*
X1276649D01*
X1281896Y913076D02*
Y905205D01*
X1287144D01*
X1295016Y913076D02*
X1289768D01*
Y905205D01*
X1295016D01*
X1289768Y909140D02*
X1292392D01*
X1302887Y911764D02*
X1301575Y913076D01*
X1298951D01*
X1297639Y911764D01*
Y906517D01*
X1298951Y905205D01*
X1301575D01*
X1302887Y906517D01*
X1305511Y913076D02*
X1310759D01*
X1308135D01*
Y905205D01*
X1313382Y913076D02*
X1316006D01*
X1314694D01*
Y905205D01*
X1313382D01*
X1316006D01*
X1319942Y913076D02*
Y907829D01*
X1322566Y905205D01*
X1325190Y907829D01*
Y913076D01*
X1333061D02*
X1327814D01*
Y905205D01*
X1333061D01*
X1327814Y909140D02*
X1330437D01*
X1348804Y911764D02*
X1347492Y913076D01*
X1344868D01*
X1343556Y911764D01*
Y910452D01*
X1344868Y909140D01*
X1347492D01*
X1348804Y907829D01*
Y906517D01*
X1347492Y905205D01*
X1344868D01*
X1343556Y906517D01*
X1351428Y905205D02*
Y913076D01*
X1356676Y905205D01*
Y913076D01*
X1367171Y909140D02*
X1372418D01*
X1382914Y905205D02*
Y913076D01*
X1386850D01*
X1388161Y911764D01*
Y909140D01*
X1386850Y907829D01*
X1382914D01*
X1390785Y913076D02*
Y905205D01*
X1394721D01*
X1396033Y906517D01*
Y907829D01*
X1394721Y909140D01*
X1390785D01*
X1394721D01*
X1396033Y910452D01*
Y911764D01*
X1394721Y913076D01*
X1390785D01*
X1266154Y696541D02*
Y688669D01*
X1270089D01*
X1271401Y689981D01*
Y691293D01*
X1270089Y692605D01*
X1266154D01*
X1270089D01*
X1271401Y693917D01*
Y695229D01*
X1270089Y696541D01*
X1266154D01*
X1277961D02*
X1275337D01*
X1274025Y695229D01*
Y689981D01*
X1275337Y688669D01*
X1277961D01*
X1279273Y689981D01*
Y695229D01*
X1277961Y696541D01*
X1281896D02*
X1287144D01*
X1284520D01*
Y688669D01*
X1289768Y696541D02*
X1295016D01*
X1292392D01*
Y688669D01*
X1301575Y696541D02*
X1298951D01*
X1297639Y695229D01*
Y689981D01*
X1298951Y688669D01*
X1301575D01*
X1302887Y689981D01*
Y695229D01*
X1301575Y696541D01*
X1305511Y688669D02*
Y696541D01*
X1308135Y693917D01*
X1310759Y696541D01*
Y688669D01*
X1326501Y695229D02*
X1325190Y696541D01*
X1322566D01*
X1321254Y695229D01*
Y689981D01*
X1322566Y688669D01*
X1325190D01*
X1326501Y689981D01*
X1333061Y696541D02*
X1330437D01*
X1329125Y695229D01*
Y689981D01*
X1330437Y688669D01*
X1333061D01*
X1334373Y689981D01*
Y695229D01*
X1333061Y696541D01*
X1336997D02*
Y688669D01*
X1342245D01*
X1348804Y696541D02*
X1346180D01*
X1344868Y695229D01*
Y689981D01*
X1346180Y688669D01*
X1348804D01*
X1350116Y689981D01*
Y695229D01*
X1348804Y696541D01*
X1352740Y688669D02*
Y696541D01*
X1356676D01*
X1357987Y695229D01*
Y692605D01*
X1356676Y691293D01*
X1352740D01*
X1355364D02*
X1357987Y688669D01*
X1360611Y693917D02*
X1361923D01*
Y692605D01*
X1360611D01*
Y693917D01*
Y689981D02*
X1361923D01*
Y688669D01*
X1360611D01*
Y689981D01*
X1375042Y696541D02*
Y688669D01*
X1377666Y691293D01*
X1380290Y688669D01*
Y696541D01*
X1382914D02*
Y688669D01*
Y692605D01*
X1388161D01*
Y696541D01*
Y688669D01*
X1390785Y696541D02*
X1393409D01*
X1392097D01*
Y688669D01*
X1390785D01*
X1393409D01*
X1397345Y696541D02*
X1402592D01*
X1399969D01*
Y688669D01*
X1410464Y696541D02*
X1405216D01*
Y688669D01*
X1410464D01*
X1405216Y692605D02*
X1407840D01*
X1266154Y814651D02*
X1271401D01*
X1268777D01*
Y806779D01*
X1277961Y814651D02*
X1275337D01*
X1274025Y813339D01*
Y808091D01*
X1275337Y806779D01*
X1277961D01*
X1279273Y808091D01*
Y813339D01*
X1277961Y814651D01*
X1281896Y806779D02*
Y814651D01*
X1285832D01*
X1287144Y813339D01*
Y810715D01*
X1285832Y809403D01*
X1281896D01*
X1302887Y813339D02*
X1301575Y814651D01*
X1298951D01*
X1297639Y813339D01*
Y808091D01*
X1298951Y806779D01*
X1301575D01*
X1302887Y808091D01*
X1309447Y814651D02*
X1306823D01*
X1305511Y813339D01*
Y808091D01*
X1306823Y806779D01*
X1309447D01*
X1310759Y808091D01*
Y813339D01*
X1309447Y814651D01*
X1313382D02*
Y806779D01*
X1318630D01*
X1325190Y814651D02*
X1322566D01*
X1321254Y813339D01*
Y808091D01*
X1322566Y806779D01*
X1325190D01*
X1326501Y808091D01*
Y813339D01*
X1325190Y814651D01*
X1329125Y806779D02*
Y814651D01*
X1333061D01*
X1334373Y813339D01*
Y810715D01*
X1333061Y809403D01*
X1329125D01*
X1331749D02*
X1334373Y806779D01*
X1336997Y812027D02*
X1338309D01*
Y810715D01*
X1336997D01*
Y812027D01*
Y808091D02*
X1338309D01*
Y806779D01*
X1336997D01*
Y808091D01*
X1356676Y813339D02*
X1355364Y814651D01*
X1352740D01*
X1351428Y813339D01*
Y808091D01*
X1352740Y806779D01*
X1355364D01*
X1356676Y808091D01*
Y810715D01*
X1354052D01*
X1359299Y806779D02*
Y814651D01*
X1363235D01*
X1364547Y813339D01*
Y810715D01*
X1363235Y809403D01*
X1359299D01*
X1361923D02*
X1364547Y806779D01*
X1372418Y814651D02*
X1367171D01*
Y806779D01*
X1372418D01*
X1367171Y810715D02*
X1369795D01*
X1380290Y814651D02*
X1375042D01*
Y806779D01*
X1380290D01*
X1375042Y810715D02*
X1377666D01*
X1382914Y806779D02*
Y814651D01*
X1388161Y806779D01*
Y814651D01*
X1266154Y716226D02*
X1271401D01*
X1268777D01*
Y708354D01*
X1277961Y716226D02*
X1275337D01*
X1274025Y714914D01*
Y709666D01*
X1275337Y708354D01*
X1277961D01*
X1279273Y709666D01*
Y714914D01*
X1277961Y716226D01*
X1281896Y708354D02*
Y716226D01*
X1285832D01*
X1287144Y714914D01*
Y712290D01*
X1285832Y710978D01*
X1281896D01*
X1302887Y714914D02*
X1301575Y716226D01*
X1298951D01*
X1297639Y714914D01*
Y709666D01*
X1298951Y708354D01*
X1301575D01*
X1302887Y709666D01*
X1309447Y716226D02*
X1306823D01*
X1305511Y714914D01*
Y709666D01*
X1306823Y708354D01*
X1309447D01*
X1310759Y709666D01*
Y714914D01*
X1309447Y716226D01*
X1313382D02*
Y708354D01*
X1318630D01*
X1325190Y716226D02*
X1322566D01*
X1321254Y714914D01*
Y709666D01*
X1322566Y708354D01*
X1325190D01*
X1326501Y709666D01*
Y714914D01*
X1325190Y716226D01*
X1329125Y708354D02*
Y716226D01*
X1333061D01*
X1334373Y714914D01*
Y712290D01*
X1333061Y710978D01*
X1329125D01*
X1331749D02*
X1334373Y708354D01*
X1336997Y713602D02*
X1338309D01*
Y712290D01*
X1336997D01*
Y713602D01*
Y709666D02*
X1338309D01*
Y708354D01*
X1336997D01*
Y709666D01*
X1351428Y716226D02*
Y708354D01*
X1354052Y710978D01*
X1356676Y708354D01*
Y716226D01*
X1359299D02*
Y708354D01*
Y712290D01*
X1364547D01*
Y716226D01*
Y708354D01*
X1367171Y716226D02*
X1369795D01*
X1368483D01*
Y708354D01*
X1367171D01*
X1369795D01*
X1373730Y716226D02*
X1378978D01*
X1376354D01*
Y708354D01*
X1386850Y716226D02*
X1381602D01*
Y708354D01*
X1386850D01*
X1381602Y712290D02*
X1384226D01*
X1266154Y794966D02*
Y787094D01*
X1270089D01*
X1271401Y788406D01*
Y789718D01*
X1270089Y791030D01*
X1266154D01*
X1270089D01*
X1271401Y792342D01*
Y793654D01*
X1270089Y794966D01*
X1266154D01*
X1277961D02*
X1275337D01*
X1274025Y793654D01*
Y788406D01*
X1275337Y787094D01*
X1277961D01*
X1279273Y788406D01*
Y793654D01*
X1277961Y794966D01*
X1281896D02*
X1287144D01*
X1284520D01*
Y787094D01*
X1289768Y794966D02*
X1295016D01*
X1292392D01*
Y787094D01*
X1301575Y794966D02*
X1298951D01*
X1297639Y793654D01*
Y788406D01*
X1298951Y787094D01*
X1301575D01*
X1302887Y788406D01*
Y793654D01*
X1301575Y794966D01*
X1305511Y787094D02*
Y794966D01*
X1308135Y792342D01*
X1310759Y794966D01*
Y787094D01*
X1326501Y793654D02*
X1325190Y794966D01*
X1322566D01*
X1321254Y793654D01*
Y788406D01*
X1322566Y787094D01*
X1325190D01*
X1326501Y788406D01*
X1333061Y794966D02*
X1330437D01*
X1329125Y793654D01*
Y788406D01*
X1330437Y787094D01*
X1333061D01*
X1334373Y788406D01*
Y793654D01*
X1333061Y794966D01*
X1336997D02*
Y787094D01*
X1342245D01*
X1348804Y794966D02*
X1346180D01*
X1344868Y793654D01*
Y788406D01*
X1346180Y787094D01*
X1348804D01*
X1350116Y788406D01*
Y793654D01*
X1348804Y794966D01*
X1352740Y787094D02*
Y794966D01*
X1356676D01*
X1357987Y793654D01*
Y791030D01*
X1356676Y789718D01*
X1352740D01*
X1355364D02*
X1357987Y787094D01*
X1360611Y792342D02*
X1361923D01*
Y791030D01*
X1360611D01*
Y792342D01*
Y788406D02*
X1361923D01*
Y787094D01*
X1360611D01*
Y788406D01*
X1380290Y793654D02*
X1378978Y794966D01*
X1376354D01*
X1375042Y793654D01*
Y788406D01*
X1376354Y787094D01*
X1378978D01*
X1380290Y788406D01*
Y791030D01*
X1377666D01*
X1382914Y787094D02*
Y794966D01*
X1386850D01*
X1388161Y793654D01*
Y791030D01*
X1386850Y789718D01*
X1382914D01*
X1385538D02*
X1388161Y787094D01*
X1396033Y794966D02*
X1390785D01*
Y787094D01*
X1396033D01*
X1390785Y791030D02*
X1393409D01*
X1403904Y794966D02*
X1398657D01*
Y787094D01*
X1403904D01*
X1398657Y791030D02*
X1401281D01*
X1406528Y787094D02*
Y794966D01*
X1411776Y787094D01*
Y794966D01*
X1271401Y991816D02*
X1266154D01*
Y987881D01*
X1268777D01*
X1266154D01*
Y983945D01*
X1274025D02*
Y991816D01*
X1277961D01*
X1279273Y990504D01*
Y987881D01*
X1277961Y986569D01*
X1274025D01*
X1276649D02*
X1279273Y983945D01*
X1285832D02*
Y991816D01*
X1281896Y987881D01*
X1287144D01*
X1297639D02*
X1302887D01*
X1313382Y991816D02*
Y983945D01*
X1318630D01*
X1321254D02*
Y989192D01*
X1323878Y991816D01*
X1326501Y989192D01*
Y983945D01*
Y987881D01*
X1321254D01*
X1329125Y991816D02*
Y990504D01*
X1331749Y987881D01*
X1334373Y990504D01*
Y991816D01*
X1331749Y987881D02*
Y983945D01*
X1342245Y991816D02*
X1336997D01*
Y983945D01*
X1342245D01*
X1336997Y987881D02*
X1339621D01*
X1344868Y983945D02*
Y991816D01*
X1348804D01*
X1350116Y990504D01*
Y987881D01*
X1348804Y986569D01*
X1344868D01*
X1347492D02*
X1350116Y983945D01*
X1357987Y990504D02*
X1356676Y991816D01*
X1354052D01*
X1352740Y990504D01*
Y989192D01*
X1354052Y987881D01*
X1356676D01*
X1357987Y986569D01*
Y985257D01*
X1356676Y983945D01*
X1354052D01*
X1352740Y985257D01*
X1360611Y989192D02*
X1361923D01*
Y987881D01*
X1360611D01*
Y989192D01*
Y985257D02*
X1361923D01*
Y983945D01*
X1360611D01*
Y985257D01*
X1380290Y983945D02*
X1375042D01*
X1380290Y989192D01*
Y990504D01*
X1378978Y991816D01*
X1376354D01*
X1375042Y990504D01*
X1390785Y987881D02*
X1396033D01*
X1411776Y990504D02*
X1410464Y991816D01*
X1407840D01*
X1406528Y990504D01*
Y985257D01*
X1407840Y983945D01*
X1410464D01*
X1411776Y985257D01*
X1414400Y991816D02*
Y985257D01*
X1415712Y983945D01*
X1418336D01*
X1419647Y985257D01*
Y991816D01*
X1422271Y989192D02*
X1423583D01*
Y987881D01*
X1422271D01*
Y989192D01*
Y985257D02*
X1423583D01*
Y983945D01*
X1422271D01*
Y985257D01*
X1436702Y983945D02*
X1439326D01*
X1438014D01*
Y991816D01*
X1436702Y990504D01*
X1447198Y991816D02*
X1444574D01*
X1443262Y990504D01*
Y985257D01*
X1444574Y983945D01*
X1447198D01*
X1448510Y985257D01*
Y990504D01*
X1447198Y991816D01*
X1451133D02*
X1456381D01*
Y990504D01*
X1451133Y985257D01*
Y983945D01*
X1456381D01*
D69*
X1251060Y1052839D02*
X1244500D01*
Y1047920D01*
X1247780D01*
X1244500D01*
Y1043000D01*
X1254339D02*
Y1049560D01*
X1257619Y1052839D01*
X1260899Y1049560D01*
Y1043000D01*
Y1047920D01*
X1254339D01*
X1264179Y1052839D02*
Y1043000D01*
X1269098D01*
X1270738Y1044640D01*
Y1046280D01*
X1269098Y1047920D01*
X1264179D01*
X1269098D01*
X1270738Y1049560D01*
Y1051200D01*
X1269098Y1052839D01*
X1264179D01*
X1274018Y1043000D02*
Y1052839D01*
X1278938D01*
X1280578Y1051200D01*
Y1047920D01*
X1278938Y1046280D01*
X1274018D01*
X1277298D02*
X1280578Y1043000D01*
X1283857Y1052839D02*
X1287137D01*
X1285497D01*
Y1043000D01*
X1283857D01*
X1287137D01*
X1298616Y1051200D02*
X1296976Y1052839D01*
X1293697D01*
X1292057Y1051200D01*
Y1044640D01*
X1293697Y1043000D01*
X1296976D01*
X1298616Y1044640D01*
X1301896Y1043000D02*
Y1049560D01*
X1305176Y1052839D01*
X1308456Y1049560D01*
Y1043000D01*
Y1047920D01*
X1301896D01*
X1311736Y1052839D02*
X1318295D01*
X1315015D01*
Y1043000D01*
X1321575Y1052839D02*
X1324855D01*
X1323215D01*
Y1043000D01*
X1321575D01*
X1324855D01*
X1334694Y1052839D02*
X1331414D01*
X1329774Y1051200D01*
Y1044640D01*
X1331414Y1043000D01*
X1334694D01*
X1336334Y1044640D01*
Y1051200D01*
X1334694Y1052839D01*
X1339614Y1043000D02*
Y1052839D01*
X1346173Y1043000D01*
Y1052839D01*
X1356013Y1051200D02*
X1354373Y1052839D01*
X1351093D01*
X1349453Y1051200D01*
Y1049560D01*
X1351093Y1047920D01*
X1354373D01*
X1356013Y1046280D01*
Y1044640D01*
X1354373Y1043000D01*
X1351093D01*
X1349453Y1044640D01*
X1369132Y1043000D02*
Y1052839D01*
X1375691Y1043000D01*
Y1052839D01*
X1383891D02*
X1380611D01*
X1378971Y1051200D01*
Y1044640D01*
X1380611Y1043000D01*
X1383891D01*
X1385530Y1044640D01*
Y1051200D01*
X1383891Y1052839D01*
X1388810D02*
X1395370D01*
X1392090D01*
Y1043000D01*
X1405209Y1052839D02*
X1398650D01*
Y1043000D01*
X1405209D01*
X1398650Y1047920D02*
X1401929D01*
X1415049Y1051200D02*
X1413409Y1052839D01*
X1410129D01*
X1408489Y1051200D01*
Y1049560D01*
X1410129Y1047920D01*
X1413409D01*
X1415049Y1046280D01*
Y1044640D01*
X1413409Y1043000D01*
X1410129D01*
X1408489Y1044640D01*
X592091Y1062174D02*
X598650D01*
X595370D01*
Y1052335D01*
X606850Y1062174D02*
X603570D01*
X601930Y1060534D01*
Y1053975D01*
X603570Y1052335D01*
X606850D01*
X608490Y1053975D01*
Y1060534D01*
X606850Y1062174D01*
X611769Y1052335D02*
Y1062174D01*
X616689D01*
X618329Y1060534D01*
Y1057254D01*
X616689Y1055614D01*
X611769D01*
X631448Y1062174D02*
Y1052335D01*
X638007D01*
X641287D02*
Y1058894D01*
X644567Y1062174D01*
X647847Y1058894D01*
Y1052335D01*
Y1057254D01*
X641287D01*
X651127Y1062174D02*
Y1060534D01*
X654406Y1057254D01*
X657686Y1060534D01*
Y1062174D01*
X654406Y1057254D02*
Y1052335D01*
X667525Y1062174D02*
X660966D01*
Y1052335D01*
X667525D01*
X660966Y1057254D02*
X664246D01*
X670805Y1052335D02*
Y1062174D01*
X675725D01*
X677365Y1060534D01*
Y1057254D01*
X675725Y1055614D01*
X670805D01*
X674085D02*
X677365Y1052335D01*
X690484Y1062174D02*
Y1055614D01*
X693764Y1052335D01*
X697044Y1055614D01*
Y1062174D01*
X700323D02*
X703603D01*
X701963D01*
Y1052335D01*
X700323D01*
X703603D01*
X715082Y1062174D02*
X708523D01*
Y1052335D01*
X715082D01*
X708523Y1057254D02*
X711802D01*
X718362Y1062174D02*
Y1052335D01*
X721642Y1055614D01*
X724922Y1052335D01*
Y1062174D01*
M02*
