G04 Layer_Color=32896*
%FSLAX25Y25*%
%MOIN*%
G70*
G01*
G75*
%ADD37C,0.00787*%
%ADD38C,0.01000*%
%ADD39C,0.00984*%
%ADD41C,0.00394*%
D37*
X451949Y582374D02*
X459823D01*
X451949Y598122D02*
X459823D01*
X451949Y582374D02*
Y598122D01*
X459823Y582374D02*
Y598122D01*
X293512Y496311D02*
Y504185D01*
X309260Y496311D02*
Y504185D01*
X293512D02*
X309260D01*
X293512Y496311D02*
X309260D01*
X299760Y428311D02*
Y436185D01*
X284012Y428311D02*
Y436185D01*
Y428311D02*
X299760D01*
X284012Y436185D02*
X299760D01*
X365512Y485811D02*
X381260D01*
X365512Y493685D02*
X381260D01*
Y485811D02*
Y493685D01*
X365512Y485811D02*
Y493685D01*
X337008Y551181D02*
Y651575D01*
Y551181D02*
X407874D01*
Y651575D01*
X337008D02*
X407874D01*
X337008Y624409D02*
X407874D01*
X464949Y615622D02*
X472823D01*
X464949Y599874D02*
X472823D01*
Y615622D01*
X464949Y599874D02*
Y615622D01*
X451449Y629374D02*
X459323D01*
X451449Y645122D02*
X459323D01*
X451449Y629374D02*
Y645122D01*
X459323Y629374D02*
Y645122D01*
X465980Y466492D02*
Y470035D01*
Y466492D02*
X469130D01*
X477791D02*
Y470035D01*
X474642Y466492D02*
X477791D01*
X432098Y477843D02*
X435642D01*
Y480992D01*
X432098Y489653D02*
X435642D01*
Y486504D02*
Y489653D01*
X451449Y608874D02*
Y624622D01*
X459323Y608874D02*
Y624622D01*
X451449Y608874D02*
X459323D01*
X451449Y624622D02*
X459323D01*
X529260Y547311D02*
Y555185D01*
X513512Y547311D02*
Y555185D01*
Y547311D02*
X529260D01*
X513512Y555185D02*
X529260D01*
X465760Y511811D02*
Y519685D01*
X450012Y511811D02*
Y519685D01*
Y511811D02*
X465760D01*
X450012Y519685D02*
X465760D01*
X421709Y539902D02*
X429583D01*
X421709Y555650D02*
X429583D01*
X421709Y539902D02*
Y555650D01*
X429583Y539902D02*
Y555650D01*
X492949Y446374D02*
X500823D01*
X492949Y462122D02*
X500823D01*
X492949Y446374D02*
Y462122D01*
X500823Y446374D02*
Y462122D01*
X423012Y464811D02*
Y472685D01*
X438760Y464811D02*
Y472685D01*
X423012D02*
X438760D01*
X423012Y464811D02*
X438760D01*
X400512Y475811D02*
Y483685D01*
X416260Y475811D02*
Y483685D01*
X400512D02*
X416260D01*
X400512Y475811D02*
X416260D01*
X438760Y453311D02*
Y461185D01*
X423012Y453311D02*
Y461185D01*
Y453311D02*
X438760D01*
X423012Y461185D02*
X438760D01*
X467449Y573374D02*
X475323D01*
X467449Y589122D02*
X475323D01*
X467449Y573374D02*
Y589122D01*
X475323Y573374D02*
Y589122D01*
X483949D02*
X491823D01*
X483949Y573374D02*
X491823D01*
Y589122D01*
X483949Y573374D02*
Y589122D01*
X408949Y525874D02*
X416823D01*
X408949Y541622D02*
X416823D01*
X408949Y525874D02*
Y541622D01*
X416823Y525874D02*
Y541622D01*
X423480Y518492D02*
Y522035D01*
Y518492D02*
X426630D01*
X435291D02*
Y522035D01*
X432142Y518492D02*
X435291D01*
X727539Y582374D02*
X735413D01*
X727539Y598122D02*
X735413D01*
X727539Y582374D02*
Y598122D01*
X735413Y582374D02*
Y598122D01*
X569102Y496311D02*
Y504185D01*
X584850Y496311D02*
Y504185D01*
X569102D02*
X584850D01*
X569102Y496311D02*
X584850D01*
X575350Y428311D02*
Y436185D01*
X559602Y428311D02*
Y436185D01*
Y428311D02*
X575350D01*
X559602Y436185D02*
X575350D01*
X641102Y485811D02*
X656850D01*
X641102Y493685D02*
X656850D01*
Y485811D02*
Y493685D01*
X641102Y485811D02*
Y493685D01*
X612598Y551181D02*
Y651575D01*
Y551181D02*
X683465D01*
Y651575D01*
X612598D02*
X683465D01*
X612598Y624409D02*
X683465D01*
X740539Y615622D02*
X748413D01*
X740539Y599874D02*
X748413D01*
Y615622D01*
X740539Y599874D02*
Y615622D01*
X727039Y629374D02*
X734913D01*
X727039Y645122D02*
X734913D01*
X727039Y629374D02*
Y645122D01*
X734913Y629374D02*
Y645122D01*
X741571Y466492D02*
Y470035D01*
Y466492D02*
X744721D01*
X753382D02*
Y470035D01*
X750232Y466492D02*
X753382D01*
X707689Y477843D02*
X711232D01*
Y480992D01*
X707689Y489653D02*
X711232D01*
Y486504D02*
Y489653D01*
X727039Y608874D02*
Y624622D01*
X734913Y608874D02*
Y624622D01*
X727039Y608874D02*
X734913D01*
X727039Y624622D02*
X734913D01*
X804850Y547311D02*
Y555185D01*
X789102Y547311D02*
Y555185D01*
Y547311D02*
X804850D01*
X789102Y555185D02*
X804850D01*
X741350Y511811D02*
Y519685D01*
X725602Y511811D02*
Y519685D01*
Y511811D02*
X741350D01*
X725602Y519685D02*
X741350D01*
X697299Y539902D02*
X705173D01*
X697299Y555650D02*
X705173D01*
X697299Y539902D02*
Y555650D01*
X705173Y539902D02*
Y555650D01*
X768539Y446374D02*
X776413D01*
X768539Y462122D02*
X776413D01*
X768539Y446374D02*
Y462122D01*
X776413Y446374D02*
Y462122D01*
X698602Y464811D02*
Y472685D01*
X714350Y464811D02*
Y472685D01*
X698602D02*
X714350D01*
X698602Y464811D02*
X714350D01*
X676102Y475811D02*
Y483685D01*
X691850Y475811D02*
Y483685D01*
X676102D02*
X691850D01*
X676102Y475811D02*
X691850D01*
X714350Y453311D02*
Y461185D01*
X698602Y453311D02*
Y461185D01*
Y453311D02*
X714350D01*
X698602Y461185D02*
X714350D01*
X743039Y573374D02*
X750913D01*
X743039Y589122D02*
X750913D01*
X743039Y573374D02*
Y589122D01*
X750913Y573374D02*
Y589122D01*
X759539D02*
X767413D01*
X759539Y573374D02*
X767413D01*
Y589122D01*
X759539Y573374D02*
Y589122D01*
X684539Y525874D02*
X692413D01*
X684539Y541622D02*
X692413D01*
X684539Y525874D02*
Y541622D01*
X692413Y525874D02*
Y541622D01*
X699071Y518492D02*
Y522035D01*
Y518492D02*
X702220D01*
X710882D02*
Y522035D01*
X707732Y518492D02*
X710882D01*
X1003130Y582374D02*
X1011004D01*
X1003130Y598122D02*
X1011004D01*
X1003130Y582374D02*
Y598122D01*
X1011004Y582374D02*
Y598122D01*
X844693Y496311D02*
Y504185D01*
X860441Y496311D02*
Y504185D01*
X844693D02*
X860441D01*
X844693Y496311D02*
X860441D01*
X850941Y428311D02*
Y436185D01*
X835193Y428311D02*
Y436185D01*
Y428311D02*
X850941D01*
X835193Y436185D02*
X850941D01*
X916693Y485811D02*
X932441D01*
X916693Y493685D02*
X932441D01*
Y485811D02*
Y493685D01*
X916693Y485811D02*
Y493685D01*
X888189Y551181D02*
Y651575D01*
Y551181D02*
X959055D01*
Y651575D01*
X888189D02*
X959055D01*
X888189Y624409D02*
X959055D01*
X1016130Y615622D02*
X1024004D01*
X1016130Y599874D02*
X1024004D01*
Y615622D01*
X1016130Y599874D02*
Y615622D01*
X1002630Y629374D02*
X1010504D01*
X1002630Y645122D02*
X1010504D01*
X1002630Y629374D02*
Y645122D01*
X1010504Y629374D02*
Y645122D01*
X1017161Y466492D02*
Y470035D01*
Y466492D02*
X1020311D01*
X1028972D02*
Y470035D01*
X1025823Y466492D02*
X1028972D01*
X983280Y477843D02*
X986823D01*
Y480992D01*
X983280Y489653D02*
X986823D01*
Y486504D02*
Y489653D01*
X1002630Y608874D02*
Y624622D01*
X1010504Y608874D02*
Y624622D01*
X1002630Y608874D02*
X1010504D01*
X1002630Y624622D02*
X1010504D01*
X1080441Y547311D02*
Y555185D01*
X1064693Y547311D02*
Y555185D01*
Y547311D02*
X1080441D01*
X1064693Y555185D02*
X1080441D01*
X1016941Y511811D02*
Y519685D01*
X1001193Y511811D02*
Y519685D01*
Y511811D02*
X1016941D01*
X1001193Y519685D02*
X1016941D01*
X972890Y539902D02*
X980764D01*
X972890Y555650D02*
X980764D01*
X972890Y539902D02*
Y555650D01*
X980764Y539902D02*
Y555650D01*
X1044130Y446374D02*
X1052004D01*
X1044130Y462122D02*
X1052004D01*
X1044130Y446374D02*
Y462122D01*
X1052004Y446374D02*
Y462122D01*
X974193Y464811D02*
Y472685D01*
X989941Y464811D02*
Y472685D01*
X974193D02*
X989941D01*
X974193Y464811D02*
X989941D01*
X951693Y475811D02*
Y483685D01*
X967441Y475811D02*
Y483685D01*
X951693D02*
X967441D01*
X951693Y475811D02*
X967441D01*
X989941Y453311D02*
Y461185D01*
X974193Y453311D02*
Y461185D01*
Y453311D02*
X989941D01*
X974193Y461185D02*
X989941D01*
X1018630Y573374D02*
X1026504D01*
X1018630Y589122D02*
X1026504D01*
X1018630Y573374D02*
Y589122D01*
X1026504Y573374D02*
Y589122D01*
X1035130D02*
X1043004D01*
X1035130Y573374D02*
X1043004D01*
Y589122D01*
X1035130Y573374D02*
Y589122D01*
X960130Y525874D02*
X968004D01*
X960130Y541622D02*
X968004D01*
X960130Y525874D02*
Y541622D01*
X968004Y525874D02*
Y541622D01*
X974661Y518492D02*
Y522035D01*
Y518492D02*
X977811D01*
X986472D02*
Y522035D01*
X983323Y518492D02*
X986472D01*
X451949Y873713D02*
X459823D01*
X451949Y889461D02*
X459823D01*
X451949Y873713D02*
Y889461D01*
X459823Y873713D02*
Y889461D01*
X293512Y787650D02*
Y795524D01*
X309260Y787650D02*
Y795524D01*
X293512D02*
X309260D01*
X293512Y787650D02*
X309260D01*
X299760Y719650D02*
Y727524D01*
X284012Y719650D02*
Y727524D01*
Y719650D02*
X299760D01*
X284012Y727524D02*
X299760D01*
X365512Y777150D02*
X381260D01*
X365512Y785024D02*
X381260D01*
Y777150D02*
Y785024D01*
X365512Y777150D02*
Y785024D01*
X337008Y842520D02*
Y942913D01*
Y842520D02*
X407874D01*
Y942913D01*
X337008D02*
X407874D01*
X337008Y915748D02*
X407874D01*
X464949Y906961D02*
X472823D01*
X464949Y891213D02*
X472823D01*
Y906961D01*
X464949Y891213D02*
Y906961D01*
X451449Y920713D02*
X459323D01*
X451449Y936461D02*
X459323D01*
X451449Y920713D02*
Y936461D01*
X459323Y920713D02*
Y936461D01*
X465980Y757831D02*
Y761374D01*
Y757831D02*
X469130D01*
X477791D02*
Y761374D01*
X474642Y757831D02*
X477791D01*
X432098Y769181D02*
X435642D01*
Y772331D01*
X432098Y780992D02*
X435642D01*
Y777843D02*
Y780992D01*
X451449Y900213D02*
Y915961D01*
X459323Y900213D02*
Y915961D01*
X451449Y900213D02*
X459323D01*
X451449Y915961D02*
X459323D01*
X529260Y838650D02*
Y846524D01*
X513512Y838650D02*
Y846524D01*
Y838650D02*
X529260D01*
X513512Y846524D02*
X529260D01*
X465760Y803150D02*
Y811024D01*
X450012Y803150D02*
Y811024D01*
Y803150D02*
X465760D01*
X450012Y811024D02*
X465760D01*
X421709Y831240D02*
X429583D01*
X421709Y846988D02*
X429583D01*
X421709Y831240D02*
Y846988D01*
X429583Y831240D02*
Y846988D01*
X492949Y737713D02*
X500823D01*
X492949Y753461D02*
X500823D01*
X492949Y737713D02*
Y753461D01*
X500823Y737713D02*
Y753461D01*
X423012Y756150D02*
Y764024D01*
X438760Y756150D02*
Y764024D01*
X423012D02*
X438760D01*
X423012Y756150D02*
X438760D01*
X400512Y767150D02*
Y775024D01*
X416260Y767150D02*
Y775024D01*
X400512D02*
X416260D01*
X400512Y767150D02*
X416260D01*
X438760Y744650D02*
Y752524D01*
X423012Y744650D02*
Y752524D01*
Y744650D02*
X438760D01*
X423012Y752524D02*
X438760D01*
X467449Y864713D02*
X475323D01*
X467449Y880461D02*
X475323D01*
X467449Y864713D02*
Y880461D01*
X475323Y864713D02*
Y880461D01*
X483949D02*
X491823D01*
X483949Y864713D02*
X491823D01*
Y880461D01*
X483949Y864713D02*
Y880461D01*
X408949Y817213D02*
X416823D01*
X408949Y832961D02*
X416823D01*
X408949Y817213D02*
Y832961D01*
X416823Y817213D02*
Y832961D01*
X423480Y809831D02*
Y813374D01*
Y809831D02*
X426630D01*
X435291D02*
Y813374D01*
X432142Y809831D02*
X435291D01*
X727539Y873713D02*
X735413D01*
X727539Y889461D02*
X735413D01*
X727539Y873713D02*
Y889461D01*
X735413Y873713D02*
Y889461D01*
X569102Y787650D02*
Y795524D01*
X584850Y787650D02*
Y795524D01*
X569102D02*
X584850D01*
X569102Y787650D02*
X584850D01*
X575350Y719650D02*
Y727524D01*
X559602Y719650D02*
Y727524D01*
Y719650D02*
X575350D01*
X559602Y727524D02*
X575350D01*
X641102Y777150D02*
X656850D01*
X641102Y785024D02*
X656850D01*
Y777150D02*
Y785024D01*
X641102Y777150D02*
Y785024D01*
X612598Y842520D02*
Y942913D01*
Y842520D02*
X683465D01*
Y942913D01*
X612598D02*
X683465D01*
X612598Y915748D02*
X683465D01*
X740539Y906961D02*
X748413D01*
X740539Y891213D02*
X748413D01*
Y906961D01*
X740539Y891213D02*
Y906961D01*
X727039Y920713D02*
X734913D01*
X727039Y936461D02*
X734913D01*
X727039Y920713D02*
Y936461D01*
X734913Y920713D02*
Y936461D01*
X741571Y757831D02*
Y761374D01*
Y757831D02*
X744721D01*
X753382D02*
Y761374D01*
X750232Y757831D02*
X753382D01*
X707689Y769181D02*
X711232D01*
Y772331D01*
X707689Y780992D02*
X711232D01*
Y777843D02*
Y780992D01*
X727039Y900213D02*
Y915961D01*
X734913Y900213D02*
Y915961D01*
X727039Y900213D02*
X734913D01*
X727039Y915961D02*
X734913D01*
X804850Y838650D02*
Y846524D01*
X789102Y838650D02*
Y846524D01*
Y838650D02*
X804850D01*
X789102Y846524D02*
X804850D01*
X741350Y803150D02*
Y811024D01*
X725602Y803150D02*
Y811024D01*
Y803150D02*
X741350D01*
X725602Y811024D02*
X741350D01*
X697299Y831240D02*
X705173D01*
X697299Y846988D02*
X705173D01*
X697299Y831240D02*
Y846988D01*
X705173Y831240D02*
Y846988D01*
X768539Y737713D02*
X776413D01*
X768539Y753461D02*
X776413D01*
X768539Y737713D02*
Y753461D01*
X776413Y737713D02*
Y753461D01*
X698602Y756150D02*
Y764024D01*
X714350Y756150D02*
Y764024D01*
X698602D02*
X714350D01*
X698602Y756150D02*
X714350D01*
X676102Y767150D02*
Y775024D01*
X691850Y767150D02*
Y775024D01*
X676102D02*
X691850D01*
X676102Y767150D02*
X691850D01*
X714350Y744650D02*
Y752524D01*
X698602Y744650D02*
Y752524D01*
Y744650D02*
X714350D01*
X698602Y752524D02*
X714350D01*
X743039Y864713D02*
X750913D01*
X743039Y880461D02*
X750913D01*
X743039Y864713D02*
Y880461D01*
X750913Y864713D02*
Y880461D01*
X759539D02*
X767413D01*
X759539Y864713D02*
X767413D01*
Y880461D01*
X759539Y864713D02*
Y880461D01*
X684539Y817213D02*
X692413D01*
X684539Y832961D02*
X692413D01*
X684539Y817213D02*
Y832961D01*
X692413Y817213D02*
Y832961D01*
X699071Y809831D02*
Y813374D01*
Y809831D02*
X702220D01*
X710882D02*
Y813374D01*
X707732Y809831D02*
X710882D01*
X1003130Y873713D02*
X1011004D01*
X1003130Y889461D02*
X1011004D01*
X1003130Y873713D02*
Y889461D01*
X1011004Y873713D02*
Y889461D01*
X844693Y787650D02*
Y795524D01*
X860441Y787650D02*
Y795524D01*
X844693D02*
X860441D01*
X844693Y787650D02*
X860441D01*
X850941Y719650D02*
Y727524D01*
X835193Y719650D02*
Y727524D01*
Y719650D02*
X850941D01*
X835193Y727524D02*
X850941D01*
X916693Y777150D02*
X932441D01*
X916693Y785024D02*
X932441D01*
Y777150D02*
Y785024D01*
X916693Y777150D02*
Y785024D01*
X888189Y842520D02*
Y942913D01*
Y842520D02*
X959055D01*
Y942913D01*
X888189D02*
X959055D01*
X888189Y915748D02*
X959055D01*
X1016130Y906961D02*
X1024004D01*
X1016130Y891213D02*
X1024004D01*
Y906961D01*
X1016130Y891213D02*
Y906961D01*
X1002630Y920713D02*
X1010504D01*
X1002630Y936461D02*
X1010504D01*
X1002630Y920713D02*
Y936461D01*
X1010504Y920713D02*
Y936461D01*
X1017161Y757831D02*
Y761374D01*
Y757831D02*
X1020311D01*
X1028972D02*
Y761374D01*
X1025823Y757831D02*
X1028972D01*
X983280Y769181D02*
X986823D01*
Y772331D01*
X983280Y780992D02*
X986823D01*
Y777843D02*
Y780992D01*
X1002630Y900213D02*
Y915961D01*
X1010504Y900213D02*
Y915961D01*
X1002630Y900213D02*
X1010504D01*
X1002630Y915961D02*
X1010504D01*
X1080441Y838650D02*
Y846524D01*
X1064693Y838650D02*
Y846524D01*
Y838650D02*
X1080441D01*
X1064693Y846524D02*
X1080441D01*
X1016941Y803150D02*
Y811024D01*
X1001193Y803150D02*
Y811024D01*
Y803150D02*
X1016941D01*
X1001193Y811024D02*
X1016941D01*
X972890Y831240D02*
X980764D01*
X972890Y846988D02*
X980764D01*
X972890Y831240D02*
Y846988D01*
X980764Y831240D02*
Y846988D01*
X1044130Y737713D02*
X1052004D01*
X1044130Y753461D02*
X1052004D01*
X1044130Y737713D02*
Y753461D01*
X1052004Y737713D02*
Y753461D01*
X974193Y756150D02*
Y764024D01*
X989941Y756150D02*
Y764024D01*
X974193D02*
X989941D01*
X974193Y756150D02*
X989941D01*
X951693Y767150D02*
Y775024D01*
X967441Y767150D02*
Y775024D01*
X951693D02*
X967441D01*
X951693Y767150D02*
X967441D01*
X989941Y744650D02*
Y752524D01*
X974193Y744650D02*
Y752524D01*
Y744650D02*
X989941D01*
X974193Y752524D02*
X989941D01*
X1018630Y864713D02*
X1026504D01*
X1018630Y880461D02*
X1026504D01*
X1018630Y864713D02*
Y880461D01*
X1026504Y864713D02*
Y880461D01*
X1035130D02*
X1043004D01*
X1035130Y864713D02*
X1043004D01*
Y880461D01*
X1035130Y864713D02*
Y880461D01*
X960130Y817213D02*
X968004D01*
X960130Y832961D02*
X968004D01*
X960130Y817213D02*
Y832961D01*
X968004Y817213D02*
Y832961D01*
X974661Y809831D02*
Y813374D01*
Y809831D02*
X977811D01*
X986472D02*
Y813374D01*
X983323Y809831D02*
X986472D01*
D38*
X291886Y552748D02*
X319886D01*
X291886Y527248D02*
Y552748D01*
Y527248D02*
X319886D01*
Y552748D01*
X567476D02*
X595476D01*
X567476Y527248D02*
Y552748D01*
Y527248D02*
X595476D01*
Y552748D01*
X843067D02*
X871067D01*
X843067Y527248D02*
Y552748D01*
Y527248D02*
X871067D01*
Y552748D01*
X291886Y844087D02*
X319886D01*
X291886Y818587D02*
Y844087D01*
Y818587D02*
X319886D01*
Y844087D01*
X567476D02*
X595476D01*
X567476Y818587D02*
Y844087D01*
Y818587D02*
X595476D01*
Y844087D01*
X843067D02*
X871067D01*
X843067Y818587D02*
Y844087D01*
Y818587D02*
X871067D01*
Y844087D01*
D39*
X465291Y473677D02*
G03*
X465291Y473677I-492J0D01*
G01*
X428949Y476661D02*
G03*
X428949Y476661I-492J0D01*
G01*
X422791Y525677D02*
G03*
X422791Y525677I-492J0D01*
G01*
X740882Y473677D02*
G03*
X740882Y473677I-492J0D01*
G01*
X704539Y476661D02*
G03*
X704539Y476661I-492J0D01*
G01*
X698382Y525677D02*
G03*
X698382Y525677I-492J0D01*
G01*
X1016472Y473677D02*
G03*
X1016472Y473677I-492J0D01*
G01*
X980130Y476661D02*
G03*
X980130Y476661I-492J0D01*
G01*
X973972Y525677D02*
G03*
X973972Y525677I-492J0D01*
G01*
X465291Y765016D02*
G03*
X465291Y765016I-492J0D01*
G01*
X428949Y768000D02*
G03*
X428949Y768000I-492J0D01*
G01*
X422791Y817016D02*
G03*
X422791Y817016I-492J0D01*
G01*
X740882Y765016D02*
G03*
X740882Y765016I-492J0D01*
G01*
X704539Y768000D02*
G03*
X704539Y768000I-492J0D01*
G01*
X698382Y817016D02*
G03*
X698382Y817016I-492J0D01*
G01*
X1016472Y765016D02*
G03*
X1016472Y765016I-492J0D01*
G01*
X980130Y768000D02*
G03*
X980130Y768000I-492J0D01*
G01*
X973972Y817016D02*
G03*
X973972Y817016I-492J0D01*
G01*
D41*
X447762Y595028D02*
X448418Y595684D01*
X449730D01*
X450386Y595028D01*
Y592404D01*
X449730Y591748D01*
X448418D01*
X447762Y592404D01*
X443826Y595684D02*
X445138Y595028D01*
X446450Y593716D01*
Y592404D01*
X445794Y591748D01*
X444482D01*
X443826Y592404D01*
Y593060D01*
X444482Y593716D01*
X446450D01*
X371886Y541184D02*
Y537904D01*
X371230Y537248D01*
X369918D01*
X369262Y537904D01*
Y541184D01*
X367950Y537248D02*
X366638D01*
X367294D01*
Y541184D01*
X367950Y540528D01*
X491886Y593248D02*
Y597184D01*
X489918D01*
X489262Y596528D01*
Y595216D01*
X489918Y594560D01*
X491886D01*
X490574D02*
X489262Y593248D01*
X487950D02*
X486638D01*
X487294D01*
Y597184D01*
X487950Y596528D01*
X484670D02*
X484014Y597184D01*
X482702D01*
X482047Y596528D01*
Y593904D01*
X482702Y593248D01*
X484014D01*
X484670Y593904D01*
Y596528D01*
X390386Y487748D02*
Y491684D01*
X388418D01*
X387762Y491028D01*
Y489716D01*
X388418Y489060D01*
X390386D01*
X389074D02*
X387762Y487748D01*
X384482D02*
Y491684D01*
X386450Y489716D01*
X383826D01*
X302762Y425528D02*
X303418Y426184D01*
X304730D01*
X305386Y425528D01*
Y422904D01*
X304730Y422248D01*
X303418D01*
X302762Y422904D01*
X298826Y426184D02*
X301450D01*
Y424216D01*
X300138Y424872D01*
X299482D01*
X298826Y424216D01*
Y422904D01*
X299482Y422248D01*
X300794D01*
X301450Y422904D01*
X309262Y493528D02*
X309918Y494184D01*
X311230D01*
X311886Y493528D01*
Y490904D01*
X311230Y490248D01*
X309918D01*
X309262Y490904D01*
X307950Y493528D02*
X307294Y494184D01*
X305982D01*
X305326Y493528D01*
Y492872D01*
X305982Y492216D01*
X306638D01*
X305982D01*
X305326Y491560D01*
Y490904D01*
X305982Y490248D01*
X307294D01*
X307950Y490904D01*
X469262Y621528D02*
X469918Y622184D01*
X471230D01*
X471886Y621528D01*
Y618904D01*
X471230Y618248D01*
X469918D01*
X469262Y618904D01*
X465326Y618248D02*
X467950D01*
X465326Y620872D01*
Y621528D01*
X465982Y622184D01*
X467294D01*
X467950Y621528D01*
X463762Y639028D02*
X464418Y639684D01*
X465730D01*
X466386Y639028D01*
Y636404D01*
X465730Y635748D01*
X464418D01*
X463762Y636404D01*
X462450Y635748D02*
X461138D01*
X461794D01*
Y639684D01*
X462450Y639028D01*
X472262Y454904D02*
Y457528D01*
X472918Y458184D01*
X474230D01*
X474886Y457528D01*
Y454904D01*
X474230Y454248D01*
X472918D01*
X473574Y455560D02*
X472262Y454248D01*
X472918D02*
X472262Y454904D01*
X468326Y454248D02*
X470950D01*
X468326Y456872D01*
Y457528D01*
X468982Y458184D01*
X470294D01*
X470950Y457528D01*
X437262Y493904D02*
Y496528D01*
X437918Y497184D01*
X439230D01*
X439886Y496528D01*
Y493904D01*
X439230Y493248D01*
X437918D01*
X438574Y494560D02*
X437262Y493248D01*
X437918D02*
X437262Y493904D01*
X435950Y496528D02*
X435294Y497184D01*
X433982D01*
X433326Y496528D01*
Y495872D01*
X433982Y495216D01*
X434638D01*
X433982D01*
X433326Y494560D01*
Y493904D01*
X433982Y493248D01*
X435294D01*
X435950Y493904D01*
X456386Y602748D02*
Y606684D01*
X454418D01*
X453762Y606028D01*
Y604716D01*
X454418Y604060D01*
X456386D01*
X455074D02*
X453762Y602748D01*
X452450D02*
X451138D01*
X451794D01*
Y606684D01*
X452450Y606028D01*
X528886Y557748D02*
Y561684D01*
X526918D01*
X526262Y561028D01*
Y559716D01*
X526918Y559060D01*
X528886D01*
X527574D02*
X526262Y557748D01*
X524950Y561028D02*
X524294Y561684D01*
X522982D01*
X522326Y561028D01*
Y560372D01*
X522982Y559716D01*
X523638D01*
X522982D01*
X522326Y559060D01*
Y558404D01*
X522982Y557748D01*
X524294D01*
X524950Y558404D01*
X468386Y506248D02*
Y510184D01*
X466418D01*
X465762Y509528D01*
Y508216D01*
X466418Y507560D01*
X468386D01*
X467074D02*
X465762Y506248D01*
X464450D02*
X463138D01*
X463794D01*
Y510184D01*
X464450Y509528D01*
X461170D02*
X460514Y510184D01*
X459202D01*
X458546Y509528D01*
Y508872D01*
X459202Y508216D01*
X459858D01*
X459202D01*
X458546Y507560D01*
Y506904D01*
X459202Y506248D01*
X460514D01*
X461170Y506904D01*
X430146Y557776D02*
Y561711D01*
X428178D01*
X427522Y561055D01*
Y559743D01*
X428178Y559088D01*
X430146D01*
X428834D02*
X427522Y557776D01*
X426210D02*
X424898D01*
X425554D01*
Y561711D01*
X426210Y561055D01*
X420962Y557776D02*
Y561711D01*
X422930Y559743D01*
X420306D01*
X474886Y592748D02*
Y596684D01*
X472918D01*
X472262Y596028D01*
Y594716D01*
X472918Y594060D01*
X474886D01*
X473574D02*
X472262Y592748D01*
X470950Y593404D02*
X470294Y592748D01*
X468982D01*
X468326Y593404D01*
Y596028D01*
X468982Y596684D01*
X470294D01*
X470950Y596028D01*
Y595372D01*
X470294Y594716D01*
X468326D01*
X486386Y446776D02*
X490322D01*
Y448743D01*
X489666Y449399D01*
X488354D01*
X487698Y448743D01*
Y446776D01*
Y448088D02*
X486386Y449399D01*
X490322Y453335D02*
Y450711D01*
X488354D01*
X489010Y452023D01*
Y452679D01*
X488354Y453335D01*
X487042D01*
X486386Y452679D01*
Y451367D01*
X487042Y450711D01*
X419886Y458748D02*
Y462684D01*
X417918D01*
X417262Y462028D01*
Y460716D01*
X417918Y460060D01*
X419886D01*
X418574D02*
X417262Y458748D01*
X415950Y462684D02*
X413326D01*
Y462028D01*
X415950Y459404D01*
Y458748D01*
X415886Y485748D02*
Y489684D01*
X413918D01*
X413262Y489028D01*
Y487716D01*
X413918Y487060D01*
X415886D01*
X414574D02*
X413262Y485748D01*
X411950Y489028D02*
X411294Y489684D01*
X409982D01*
X409326Y489028D01*
Y488372D01*
X409982Y487716D01*
X409326Y487060D01*
Y486404D01*
X409982Y485748D01*
X411294D01*
X411950Y486404D01*
Y487060D01*
X411294Y487716D01*
X411950Y488372D01*
Y489028D01*
X411294Y487716D02*
X409982D01*
X438386Y447248D02*
Y451184D01*
X436418D01*
X435762Y450528D01*
Y449216D01*
X436418Y448560D01*
X438386D01*
X437074D02*
X435762Y447248D01*
X431826Y451184D02*
X433138Y450528D01*
X434450Y449216D01*
Y447904D01*
X433794Y447248D01*
X432482D01*
X431826Y447904D01*
Y448560D01*
X432482Y449216D01*
X434450D01*
X425762Y507904D02*
Y510528D01*
X426418Y511184D01*
X427730D01*
X428386Y510528D01*
Y507904D01*
X427730Y507248D01*
X426418D01*
X427074Y508560D02*
X425762Y507248D01*
X426418D02*
X425762Y507904D01*
X422482Y507248D02*
Y511184D01*
X424450Y509216D01*
X421826D01*
X416886Y519248D02*
Y523184D01*
X414918D01*
X414262Y522528D01*
Y521216D01*
X414918Y520560D01*
X416886D01*
X415574D02*
X414262Y519248D01*
X412950D02*
X411638D01*
X412294D01*
Y523184D01*
X412950Y522528D01*
X407047Y523184D02*
X408358Y522528D01*
X409670Y521216D01*
Y519904D01*
X409014Y519248D01*
X407702D01*
X407047Y519904D01*
Y520560D01*
X407702Y521216D01*
X409670D01*
X297886Y569684D02*
Y566404D01*
X297230Y565748D01*
X295918D01*
X295262Y566404D01*
Y569684D01*
X291326Y565748D02*
X293950D01*
X291326Y568372D01*
Y569028D01*
X291982Y569684D01*
X293294D01*
X293950Y569028D01*
X723353Y595028D02*
X724009Y595684D01*
X725320D01*
X725976Y595028D01*
Y592404D01*
X725320Y591748D01*
X724009D01*
X723353Y592404D01*
X719417Y595684D02*
X720729Y595028D01*
X722041Y593716D01*
Y592404D01*
X721385Y591748D01*
X720073D01*
X719417Y592404D01*
Y593060D01*
X720073Y593716D01*
X722041D01*
X647476Y541184D02*
Y537904D01*
X646820Y537248D01*
X645508D01*
X644853Y537904D01*
Y541184D01*
X643541Y537248D02*
X642229D01*
X642885D01*
Y541184D01*
X643541Y540528D01*
X767476Y593248D02*
Y597184D01*
X765509D01*
X764853Y596528D01*
Y595216D01*
X765509Y594560D01*
X767476D01*
X766164D02*
X764853Y593248D01*
X763541D02*
X762229D01*
X762885D01*
Y597184D01*
X763541Y596528D01*
X760261D02*
X759605Y597184D01*
X758293D01*
X757637Y596528D01*
Y593904D01*
X758293Y593248D01*
X759605D01*
X760261Y593904D01*
Y596528D01*
X665976Y487748D02*
Y491684D01*
X664009D01*
X663353Y491028D01*
Y489716D01*
X664009Y489060D01*
X665976D01*
X664665D02*
X663353Y487748D01*
X660073D02*
Y491684D01*
X662041Y489716D01*
X659417D01*
X578353Y425528D02*
X579008Y426184D01*
X580320D01*
X580976Y425528D01*
Y422904D01*
X580320Y422248D01*
X579008D01*
X578353Y422904D01*
X574417Y426184D02*
X577041D01*
Y424216D01*
X575729Y424872D01*
X575073D01*
X574417Y424216D01*
Y422904D01*
X575073Y422248D01*
X576385D01*
X577041Y422904D01*
X584853Y493528D02*
X585508Y494184D01*
X586820D01*
X587476Y493528D01*
Y490904D01*
X586820Y490248D01*
X585508D01*
X584853Y490904D01*
X583541Y493528D02*
X582885Y494184D01*
X581573D01*
X580917Y493528D01*
Y492872D01*
X581573Y492216D01*
X582229D01*
X581573D01*
X580917Y491560D01*
Y490904D01*
X581573Y490248D01*
X582885D01*
X583541Y490904D01*
X744853Y621528D02*
X745508Y622184D01*
X746820D01*
X747476Y621528D01*
Y618904D01*
X746820Y618248D01*
X745508D01*
X744853Y618904D01*
X740917Y618248D02*
X743541D01*
X740917Y620872D01*
Y621528D01*
X741573Y622184D01*
X742885D01*
X743541Y621528D01*
X739353Y639028D02*
X740008Y639684D01*
X741320D01*
X741976Y639028D01*
Y636404D01*
X741320Y635748D01*
X740008D01*
X739353Y636404D01*
X738041Y635748D02*
X736729D01*
X737385D01*
Y639684D01*
X738041Y639028D01*
X747853Y454904D02*
Y457528D01*
X748509Y458184D01*
X749820D01*
X750476Y457528D01*
Y454904D01*
X749820Y454248D01*
X748509D01*
X749164Y455560D02*
X747853Y454248D01*
X748509D02*
X747853Y454904D01*
X743917Y454248D02*
X746541D01*
X743917Y456872D01*
Y457528D01*
X744573Y458184D01*
X745885D01*
X746541Y457528D01*
X712853Y493904D02*
Y496528D01*
X713509Y497184D01*
X714820D01*
X715476Y496528D01*
Y493904D01*
X714820Y493248D01*
X713509D01*
X714164Y494560D02*
X712853Y493248D01*
X713509D02*
X712853Y493904D01*
X711541Y496528D02*
X710885Y497184D01*
X709573D01*
X708917Y496528D01*
Y495872D01*
X709573Y495216D01*
X710229D01*
X709573D01*
X708917Y494560D01*
Y493904D01*
X709573Y493248D01*
X710885D01*
X711541Y493904D01*
X731976Y602748D02*
Y606684D01*
X730009D01*
X729353Y606028D01*
Y604716D01*
X730009Y604060D01*
X731976D01*
X730664D02*
X729353Y602748D01*
X728041D02*
X726729D01*
X727385D01*
Y606684D01*
X728041Y606028D01*
X804476Y557748D02*
Y561684D01*
X802509D01*
X801853Y561028D01*
Y559716D01*
X802509Y559060D01*
X804476D01*
X803164D02*
X801853Y557748D01*
X800541Y561028D02*
X799885Y561684D01*
X798573D01*
X797917Y561028D01*
Y560372D01*
X798573Y559716D01*
X799229D01*
X798573D01*
X797917Y559060D01*
Y558404D01*
X798573Y557748D01*
X799885D01*
X800541Y558404D01*
X743976Y506248D02*
Y510184D01*
X742008D01*
X741353Y509528D01*
Y508216D01*
X742008Y507560D01*
X743976D01*
X742664D02*
X741353Y506248D01*
X740041D02*
X738729D01*
X739385D01*
Y510184D01*
X740041Y509528D01*
X736761D02*
X736105Y510184D01*
X734793D01*
X734137Y509528D01*
Y508872D01*
X734793Y508216D01*
X735449D01*
X734793D01*
X734137Y507560D01*
Y506904D01*
X734793Y506248D01*
X736105D01*
X736761Y506904D01*
X705736Y557776D02*
Y561711D01*
X703768D01*
X703112Y561055D01*
Y559743D01*
X703768Y559088D01*
X705736D01*
X704424D02*
X703112Y557776D01*
X701800D02*
X700489D01*
X701145D01*
Y561711D01*
X701800Y561055D01*
X696553Y557776D02*
Y561711D01*
X698521Y559743D01*
X695897D01*
X750476Y592748D02*
Y596684D01*
X748509D01*
X747853Y596028D01*
Y594716D01*
X748509Y594060D01*
X750476D01*
X749164D02*
X747853Y592748D01*
X746541Y593404D02*
X745885Y592748D01*
X744573D01*
X743917Y593404D01*
Y596028D01*
X744573Y596684D01*
X745885D01*
X746541Y596028D01*
Y595372D01*
X745885Y594716D01*
X743917D01*
X761976Y446776D02*
X765912D01*
Y448743D01*
X765256Y449399D01*
X763944D01*
X763288Y448743D01*
Y446776D01*
Y448088D02*
X761976Y449399D01*
X765912Y453335D02*
Y450711D01*
X763944D01*
X764600Y452023D01*
Y452679D01*
X763944Y453335D01*
X762632D01*
X761976Y452679D01*
Y451367D01*
X762632Y450711D01*
X695476Y458748D02*
Y462684D01*
X693508D01*
X692853Y462028D01*
Y460716D01*
X693508Y460060D01*
X695476D01*
X694165D02*
X692853Y458748D01*
X691541Y462684D02*
X688917D01*
Y462028D01*
X691541Y459404D01*
Y458748D01*
X691476Y485748D02*
Y489684D01*
X689508D01*
X688853Y489028D01*
Y487716D01*
X689508Y487060D01*
X691476D01*
X690165D02*
X688853Y485748D01*
X687541Y489028D02*
X686885Y489684D01*
X685573D01*
X684917Y489028D01*
Y488372D01*
X685573Y487716D01*
X684917Y487060D01*
Y486404D01*
X685573Y485748D01*
X686885D01*
X687541Y486404D01*
Y487060D01*
X686885Y487716D01*
X687541Y488372D01*
Y489028D01*
X686885Y487716D02*
X685573D01*
X713976Y447248D02*
Y451184D01*
X712008D01*
X711353Y450528D01*
Y449216D01*
X712008Y448560D01*
X713976D01*
X712665D02*
X711353Y447248D01*
X707417Y451184D02*
X708729Y450528D01*
X710041Y449216D01*
Y447904D01*
X709385Y447248D01*
X708073D01*
X707417Y447904D01*
Y448560D01*
X708073Y449216D01*
X710041D01*
X701353Y507904D02*
Y510528D01*
X702008Y511184D01*
X703320D01*
X703976Y510528D01*
Y507904D01*
X703320Y507248D01*
X702008D01*
X702665Y508560D02*
X701353Y507248D01*
X702008D02*
X701353Y507904D01*
X698073Y507248D02*
Y511184D01*
X700041Y509216D01*
X697417D01*
X692476Y519248D02*
Y523184D01*
X690509D01*
X689853Y522528D01*
Y521216D01*
X690509Y520560D01*
X692476D01*
X691164D02*
X689853Y519248D01*
X688541D02*
X687229D01*
X687885D01*
Y523184D01*
X688541Y522528D01*
X682637Y523184D02*
X683949Y522528D01*
X685261Y521216D01*
Y519904D01*
X684605Y519248D01*
X683293D01*
X682637Y519904D01*
Y520560D01*
X683293Y521216D01*
X685261D01*
X573476Y569684D02*
Y566404D01*
X572820Y565748D01*
X571509D01*
X570853Y566404D01*
Y569684D01*
X566917Y565748D02*
X569541D01*
X566917Y568372D01*
Y569028D01*
X567573Y569684D01*
X568885D01*
X569541Y569028D01*
X998943Y595028D02*
X999599Y595684D01*
X1000911D01*
X1001567Y595028D01*
Y592404D01*
X1000911Y591748D01*
X999599D01*
X998943Y592404D01*
X995007Y595684D02*
X996319Y595028D01*
X997631Y593716D01*
Y592404D01*
X996975Y591748D01*
X995663D01*
X995007Y592404D01*
Y593060D01*
X995663Y593716D01*
X997631D01*
X923067Y541184D02*
Y537904D01*
X922411Y537248D01*
X921099D01*
X920443Y537904D01*
Y541184D01*
X919131Y537248D02*
X917819D01*
X918475D01*
Y541184D01*
X919131Y540528D01*
X1043067Y593248D02*
Y597184D01*
X1041099D01*
X1040443Y596528D01*
Y595216D01*
X1041099Y594560D01*
X1043067D01*
X1041755D02*
X1040443Y593248D01*
X1039131D02*
X1037819D01*
X1038475D01*
Y597184D01*
X1039131Y596528D01*
X1035851D02*
X1035195Y597184D01*
X1033883D01*
X1033228Y596528D01*
Y593904D01*
X1033883Y593248D01*
X1035195D01*
X1035851Y593904D01*
Y596528D01*
X941567Y487748D02*
Y491684D01*
X939599D01*
X938943Y491028D01*
Y489716D01*
X939599Y489060D01*
X941567D01*
X940255D02*
X938943Y487748D01*
X935663D02*
Y491684D01*
X937631Y489716D01*
X935007D01*
X853943Y425528D02*
X854599Y426184D01*
X855911D01*
X856567Y425528D01*
Y422904D01*
X855911Y422248D01*
X854599D01*
X853943Y422904D01*
X850007Y426184D02*
X852631D01*
Y424216D01*
X851319Y424872D01*
X850663D01*
X850007Y424216D01*
Y422904D01*
X850663Y422248D01*
X851975D01*
X852631Y422904D01*
X860443Y493528D02*
X861099Y494184D01*
X862411D01*
X863067Y493528D01*
Y490904D01*
X862411Y490248D01*
X861099D01*
X860443Y490904D01*
X859131Y493528D02*
X858475Y494184D01*
X857163D01*
X856507Y493528D01*
Y492872D01*
X857163Y492216D01*
X857819D01*
X857163D01*
X856507Y491560D01*
Y490904D01*
X857163Y490248D01*
X858475D01*
X859131Y490904D01*
X1020443Y621528D02*
X1021099Y622184D01*
X1022411D01*
X1023067Y621528D01*
Y618904D01*
X1022411Y618248D01*
X1021099D01*
X1020443Y618904D01*
X1016507Y618248D02*
X1019131D01*
X1016507Y620872D01*
Y621528D01*
X1017163Y622184D01*
X1018475D01*
X1019131Y621528D01*
X1014943Y639028D02*
X1015599Y639684D01*
X1016911D01*
X1017567Y639028D01*
Y636404D01*
X1016911Y635748D01*
X1015599D01*
X1014943Y636404D01*
X1013631Y635748D02*
X1012319D01*
X1012975D01*
Y639684D01*
X1013631Y639028D01*
X1023443Y454904D02*
Y457528D01*
X1024099Y458184D01*
X1025411D01*
X1026067Y457528D01*
Y454904D01*
X1025411Y454248D01*
X1024099D01*
X1024755Y455560D02*
X1023443Y454248D01*
X1024099D02*
X1023443Y454904D01*
X1019507Y454248D02*
X1022131D01*
X1019507Y456872D01*
Y457528D01*
X1020163Y458184D01*
X1021475D01*
X1022131Y457528D01*
X988443Y493904D02*
Y496528D01*
X989099Y497184D01*
X990411D01*
X991067Y496528D01*
Y493904D01*
X990411Y493248D01*
X989099D01*
X989755Y494560D02*
X988443Y493248D01*
X989099D02*
X988443Y493904D01*
X987131Y496528D02*
X986475Y497184D01*
X985163D01*
X984507Y496528D01*
Y495872D01*
X985163Y495216D01*
X985819D01*
X985163D01*
X984507Y494560D01*
Y493904D01*
X985163Y493248D01*
X986475D01*
X987131Y493904D01*
X1007567Y602748D02*
Y606684D01*
X1005599D01*
X1004943Y606028D01*
Y604716D01*
X1005599Y604060D01*
X1007567D01*
X1006255D02*
X1004943Y602748D01*
X1003631D02*
X1002319D01*
X1002975D01*
Y606684D01*
X1003631Y606028D01*
X1080067Y557748D02*
Y561684D01*
X1078099D01*
X1077443Y561028D01*
Y559716D01*
X1078099Y559060D01*
X1080067D01*
X1078755D02*
X1077443Y557748D01*
X1076131Y561028D02*
X1075475Y561684D01*
X1074163D01*
X1073507Y561028D01*
Y560372D01*
X1074163Y559716D01*
X1074819D01*
X1074163D01*
X1073507Y559060D01*
Y558404D01*
X1074163Y557748D01*
X1075475D01*
X1076131Y558404D01*
X1019567Y506248D02*
Y510184D01*
X1017599D01*
X1016943Y509528D01*
Y508216D01*
X1017599Y507560D01*
X1019567D01*
X1018255D02*
X1016943Y506248D01*
X1015631D02*
X1014319D01*
X1014975D01*
Y510184D01*
X1015631Y509528D01*
X1012351D02*
X1011695Y510184D01*
X1010384D01*
X1009728Y509528D01*
Y508872D01*
X1010384Y508216D01*
X1011040D01*
X1010384D01*
X1009728Y507560D01*
Y506904D01*
X1010384Y506248D01*
X1011695D01*
X1012351Y506904D01*
X981327Y557776D02*
Y561711D01*
X979359D01*
X978703Y561055D01*
Y559743D01*
X979359Y559088D01*
X981327D01*
X980015D02*
X978703Y557776D01*
X977391D02*
X976079D01*
X976735D01*
Y561711D01*
X977391Y561055D01*
X972143Y557776D02*
Y561711D01*
X974111Y559743D01*
X971487D01*
X1026067Y592748D02*
Y596684D01*
X1024099D01*
X1023443Y596028D01*
Y594716D01*
X1024099Y594060D01*
X1026067D01*
X1024755D02*
X1023443Y592748D01*
X1022131Y593404D02*
X1021475Y592748D01*
X1020163D01*
X1019507Y593404D01*
Y596028D01*
X1020163Y596684D01*
X1021475D01*
X1022131Y596028D01*
Y595372D01*
X1021475Y594716D01*
X1019507D01*
X1037567Y446776D02*
X1041503D01*
Y448743D01*
X1040847Y449399D01*
X1039535D01*
X1038879Y448743D01*
Y446776D01*
Y448088D02*
X1037567Y449399D01*
X1041503Y453335D02*
Y450711D01*
X1039535D01*
X1040191Y452023D01*
Y452679D01*
X1039535Y453335D01*
X1038223D01*
X1037567Y452679D01*
Y451367D01*
X1038223Y450711D01*
X971067Y458748D02*
Y462684D01*
X969099D01*
X968443Y462028D01*
Y460716D01*
X969099Y460060D01*
X971067D01*
X969755D02*
X968443Y458748D01*
X967131Y462684D02*
X964507D01*
Y462028D01*
X967131Y459404D01*
Y458748D01*
X967067Y485748D02*
Y489684D01*
X965099D01*
X964443Y489028D01*
Y487716D01*
X965099Y487060D01*
X967067D01*
X965755D02*
X964443Y485748D01*
X963131Y489028D02*
X962475Y489684D01*
X961163D01*
X960507Y489028D01*
Y488372D01*
X961163Y487716D01*
X960507Y487060D01*
Y486404D01*
X961163Y485748D01*
X962475D01*
X963131Y486404D01*
Y487060D01*
X962475Y487716D01*
X963131Y488372D01*
Y489028D01*
X962475Y487716D02*
X961163D01*
X989567Y447248D02*
Y451184D01*
X987599D01*
X986943Y450528D01*
Y449216D01*
X987599Y448560D01*
X989567D01*
X988255D02*
X986943Y447248D01*
X983007Y451184D02*
X984319Y450528D01*
X985631Y449216D01*
Y447904D01*
X984975Y447248D01*
X983663D01*
X983007Y447904D01*
Y448560D01*
X983663Y449216D01*
X985631D01*
X976943Y507904D02*
Y510528D01*
X977599Y511184D01*
X978911D01*
X979567Y510528D01*
Y507904D01*
X978911Y507248D01*
X977599D01*
X978255Y508560D02*
X976943Y507248D01*
X977599D02*
X976943Y507904D01*
X973663Y507248D02*
Y511184D01*
X975631Y509216D01*
X973007D01*
X968067Y519248D02*
Y523184D01*
X966099D01*
X965443Y522528D01*
Y521216D01*
X966099Y520560D01*
X968067D01*
X966755D02*
X965443Y519248D01*
X964131D02*
X962819D01*
X963475D01*
Y523184D01*
X964131Y522528D01*
X958228Y523184D02*
X959540Y522528D01*
X960851Y521216D01*
Y519904D01*
X960195Y519248D01*
X958883D01*
X958228Y519904D01*
Y520560D01*
X958883Y521216D01*
X960851D01*
X849067Y569684D02*
Y566404D01*
X848411Y565748D01*
X847099D01*
X846443Y566404D01*
Y569684D01*
X842507Y565748D02*
X845131D01*
X842507Y568372D01*
Y569028D01*
X843163Y569684D01*
X844475D01*
X845131Y569028D01*
X447762Y886366D02*
X448418Y887022D01*
X449730D01*
X450386Y886366D01*
Y883743D01*
X449730Y883087D01*
X448418D01*
X447762Y883743D01*
X443826Y887022D02*
X445138Y886366D01*
X446450Y885054D01*
Y883743D01*
X445794Y883087D01*
X444482D01*
X443826Y883743D01*
Y884398D01*
X444482Y885054D01*
X446450D01*
X371886Y832522D02*
Y829243D01*
X371230Y828587D01*
X369918D01*
X369262Y829243D01*
Y832522D01*
X367950Y828587D02*
X366638D01*
X367294D01*
Y832522D01*
X367950Y831866D01*
X491886Y884587D02*
Y888522D01*
X489918D01*
X489262Y887866D01*
Y886555D01*
X489918Y885898D01*
X491886D01*
X490574D02*
X489262Y884587D01*
X487950D02*
X486638D01*
X487294D01*
Y888522D01*
X487950Y887866D01*
X484670D02*
X484014Y888522D01*
X482702D01*
X482047Y887866D01*
Y885243D01*
X482702Y884587D01*
X484014D01*
X484670Y885243D01*
Y887866D01*
X390386Y779087D02*
Y783022D01*
X388418D01*
X387762Y782366D01*
Y781054D01*
X388418Y780399D01*
X390386D01*
X389074D02*
X387762Y779087D01*
X384482D02*
Y783022D01*
X386450Y781054D01*
X383826D01*
X302762Y716866D02*
X303418Y717522D01*
X304730D01*
X305386Y716866D01*
Y714243D01*
X304730Y713587D01*
X303418D01*
X302762Y714243D01*
X298826Y717522D02*
X301450D01*
Y715555D01*
X300138Y716210D01*
X299482D01*
X298826Y715555D01*
Y714243D01*
X299482Y713587D01*
X300794D01*
X301450Y714243D01*
X309262Y784866D02*
X309918Y785522D01*
X311230D01*
X311886Y784866D01*
Y782243D01*
X311230Y781587D01*
X309918D01*
X309262Y782243D01*
X307950Y784866D02*
X307294Y785522D01*
X305982D01*
X305326Y784866D01*
Y784210D01*
X305982Y783555D01*
X306638D01*
X305982D01*
X305326Y782899D01*
Y782243D01*
X305982Y781587D01*
X307294D01*
X307950Y782243D01*
X469262Y912866D02*
X469918Y913522D01*
X471230D01*
X471886Y912866D01*
Y910243D01*
X471230Y909587D01*
X469918D01*
X469262Y910243D01*
X465326Y909587D02*
X467950D01*
X465326Y912210D01*
Y912866D01*
X465982Y913522D01*
X467294D01*
X467950Y912866D01*
X463762Y930366D02*
X464418Y931022D01*
X465730D01*
X466386Y930366D01*
Y927743D01*
X465730Y927087D01*
X464418D01*
X463762Y927743D01*
X462450Y927087D02*
X461138D01*
X461794D01*
Y931022D01*
X462450Y930366D01*
X472262Y746243D02*
Y748866D01*
X472918Y749522D01*
X474230D01*
X474886Y748866D01*
Y746243D01*
X474230Y745587D01*
X472918D01*
X473574Y746899D02*
X472262Y745587D01*
X472918D02*
X472262Y746243D01*
X468326Y745587D02*
X470950D01*
X468326Y748210D01*
Y748866D01*
X468982Y749522D01*
X470294D01*
X470950Y748866D01*
X437262Y785243D02*
Y787866D01*
X437918Y788522D01*
X439230D01*
X439886Y787866D01*
Y785243D01*
X439230Y784587D01*
X437918D01*
X438574Y785898D02*
X437262Y784587D01*
X437918D02*
X437262Y785243D01*
X435950Y787866D02*
X435294Y788522D01*
X433982D01*
X433326Y787866D01*
Y787210D01*
X433982Y786554D01*
X434638D01*
X433982D01*
X433326Y785898D01*
Y785243D01*
X433982Y784587D01*
X435294D01*
X435950Y785243D01*
X456386Y894087D02*
Y898022D01*
X454418D01*
X453762Y897366D01*
Y896054D01*
X454418Y895399D01*
X456386D01*
X455074D02*
X453762Y894087D01*
X452450D02*
X451138D01*
X451794D01*
Y898022D01*
X452450Y897366D01*
X528886Y849087D02*
Y853022D01*
X526918D01*
X526262Y852366D01*
Y851054D01*
X526918Y850399D01*
X528886D01*
X527574D02*
X526262Y849087D01*
X524950Y852366D02*
X524294Y853022D01*
X522982D01*
X522326Y852366D01*
Y851710D01*
X522982Y851054D01*
X523638D01*
X522982D01*
X522326Y850399D01*
Y849743D01*
X522982Y849087D01*
X524294D01*
X524950Y849743D01*
X468386Y797587D02*
Y801522D01*
X466418D01*
X465762Y800866D01*
Y799554D01*
X466418Y798899D01*
X468386D01*
X467074D02*
X465762Y797587D01*
X464450D02*
X463138D01*
X463794D01*
Y801522D01*
X464450Y800866D01*
X461170D02*
X460514Y801522D01*
X459202D01*
X458546Y800866D01*
Y800210D01*
X459202Y799554D01*
X459858D01*
X459202D01*
X458546Y798899D01*
Y798243D01*
X459202Y797587D01*
X460514D01*
X461170Y798243D01*
X430146Y849114D02*
Y853050D01*
X428178D01*
X427522Y852394D01*
Y851082D01*
X428178Y850426D01*
X430146D01*
X428834D02*
X427522Y849114D01*
X426210D02*
X424898D01*
X425554D01*
Y853050D01*
X426210Y852394D01*
X420962Y849114D02*
Y853050D01*
X422930Y851082D01*
X420306D01*
X474886Y884087D02*
Y888022D01*
X472918D01*
X472262Y887366D01*
Y886055D01*
X472918Y885398D01*
X474886D01*
X473574D02*
X472262Y884087D01*
X470950Y884743D02*
X470294Y884087D01*
X468982D01*
X468326Y884743D01*
Y887366D01*
X468982Y888022D01*
X470294D01*
X470950Y887366D01*
Y886710D01*
X470294Y886055D01*
X468326D01*
X486386Y738114D02*
X490322D01*
Y740082D01*
X489666Y740738D01*
X488354D01*
X487698Y740082D01*
Y738114D01*
Y739426D02*
X486386Y740738D01*
X490322Y744674D02*
Y742050D01*
X488354D01*
X489010Y743362D01*
Y744018D01*
X488354Y744674D01*
X487042D01*
X486386Y744018D01*
Y742706D01*
X487042Y742050D01*
X419886Y750087D02*
Y754022D01*
X417918D01*
X417262Y753366D01*
Y752055D01*
X417918Y751399D01*
X419886D01*
X418574D02*
X417262Y750087D01*
X415950Y754022D02*
X413326D01*
Y753366D01*
X415950Y750743D01*
Y750087D01*
X415886Y777087D02*
Y781022D01*
X413918D01*
X413262Y780366D01*
Y779054D01*
X413918Y778399D01*
X415886D01*
X414574D02*
X413262Y777087D01*
X411950Y780366D02*
X411294Y781022D01*
X409982D01*
X409326Y780366D01*
Y779710D01*
X409982Y779054D01*
X409326Y778399D01*
Y777743D01*
X409982Y777087D01*
X411294D01*
X411950Y777743D01*
Y778399D01*
X411294Y779054D01*
X411950Y779710D01*
Y780366D01*
X411294Y779054D02*
X409982D01*
X438386Y738587D02*
Y742522D01*
X436418D01*
X435762Y741866D01*
Y740555D01*
X436418Y739898D01*
X438386D01*
X437074D02*
X435762Y738587D01*
X431826Y742522D02*
X433138Y741866D01*
X434450Y740555D01*
Y739243D01*
X433794Y738587D01*
X432482D01*
X431826Y739243D01*
Y739898D01*
X432482Y740555D01*
X434450D01*
X425762Y799243D02*
Y801866D01*
X426418Y802522D01*
X427730D01*
X428386Y801866D01*
Y799243D01*
X427730Y798587D01*
X426418D01*
X427074Y799898D02*
X425762Y798587D01*
X426418D02*
X425762Y799243D01*
X422482Y798587D02*
Y802522D01*
X424450Y800554D01*
X421826D01*
X416886Y810587D02*
Y814522D01*
X414918D01*
X414262Y813866D01*
Y812554D01*
X414918Y811899D01*
X416886D01*
X415574D02*
X414262Y810587D01*
X412950D02*
X411638D01*
X412294D01*
Y814522D01*
X412950Y813866D01*
X407047Y814522D02*
X408358Y813866D01*
X409670Y812554D01*
Y811243D01*
X409014Y810587D01*
X407702D01*
X407047Y811243D01*
Y811899D01*
X407702Y812554D01*
X409670D01*
X297886Y861022D02*
Y857743D01*
X297230Y857087D01*
X295918D01*
X295262Y857743D01*
Y861022D01*
X291326Y857087D02*
X293950D01*
X291326Y859710D01*
Y860366D01*
X291982Y861022D01*
X293294D01*
X293950Y860366D01*
X723353Y886366D02*
X724009Y887022D01*
X725320D01*
X725976Y886366D01*
Y883743D01*
X725320Y883087D01*
X724009D01*
X723353Y883743D01*
X719417Y887022D02*
X720729Y886366D01*
X722041Y885054D01*
Y883743D01*
X721385Y883087D01*
X720073D01*
X719417Y883743D01*
Y884398D01*
X720073Y885054D01*
X722041D01*
X647476Y832522D02*
Y829243D01*
X646820Y828587D01*
X645508D01*
X644853Y829243D01*
Y832522D01*
X643541Y828587D02*
X642229D01*
X642885D01*
Y832522D01*
X643541Y831866D01*
X767476Y884587D02*
Y888522D01*
X765509D01*
X764853Y887866D01*
Y886555D01*
X765509Y885898D01*
X767476D01*
X766164D02*
X764853Y884587D01*
X763541D02*
X762229D01*
X762885D01*
Y888522D01*
X763541Y887866D01*
X760261D02*
X759605Y888522D01*
X758293D01*
X757637Y887866D01*
Y885243D01*
X758293Y884587D01*
X759605D01*
X760261Y885243D01*
Y887866D01*
X665976Y779087D02*
Y783022D01*
X664009D01*
X663353Y782366D01*
Y781054D01*
X664009Y780399D01*
X665976D01*
X664665D02*
X663353Y779087D01*
X660073D02*
Y783022D01*
X662041Y781054D01*
X659417D01*
X578353Y716866D02*
X579008Y717522D01*
X580320D01*
X580976Y716866D01*
Y714243D01*
X580320Y713587D01*
X579008D01*
X578353Y714243D01*
X574417Y717522D02*
X577041D01*
Y715555D01*
X575729Y716210D01*
X575073D01*
X574417Y715555D01*
Y714243D01*
X575073Y713587D01*
X576385D01*
X577041Y714243D01*
X584853Y784866D02*
X585508Y785522D01*
X586820D01*
X587476Y784866D01*
Y782243D01*
X586820Y781587D01*
X585508D01*
X584853Y782243D01*
X583541Y784866D02*
X582885Y785522D01*
X581573D01*
X580917Y784866D01*
Y784210D01*
X581573Y783555D01*
X582229D01*
X581573D01*
X580917Y782899D01*
Y782243D01*
X581573Y781587D01*
X582885D01*
X583541Y782243D01*
X744853Y912866D02*
X745508Y913522D01*
X746820D01*
X747476Y912866D01*
Y910243D01*
X746820Y909587D01*
X745508D01*
X744853Y910243D01*
X740917Y909587D02*
X743541D01*
X740917Y912210D01*
Y912866D01*
X741573Y913522D01*
X742885D01*
X743541Y912866D01*
X739353Y930366D02*
X740008Y931022D01*
X741320D01*
X741976Y930366D01*
Y927743D01*
X741320Y927087D01*
X740008D01*
X739353Y927743D01*
X738041Y927087D02*
X736729D01*
X737385D01*
Y931022D01*
X738041Y930366D01*
X747853Y746243D02*
Y748866D01*
X748509Y749522D01*
X749820D01*
X750476Y748866D01*
Y746243D01*
X749820Y745587D01*
X748509D01*
X749164Y746899D02*
X747853Y745587D01*
X748509D02*
X747853Y746243D01*
X743917Y745587D02*
X746541D01*
X743917Y748210D01*
Y748866D01*
X744573Y749522D01*
X745885D01*
X746541Y748866D01*
X712853Y785243D02*
Y787866D01*
X713509Y788522D01*
X714820D01*
X715476Y787866D01*
Y785243D01*
X714820Y784587D01*
X713509D01*
X714164Y785898D02*
X712853Y784587D01*
X713509D02*
X712853Y785243D01*
X711541Y787866D02*
X710885Y788522D01*
X709573D01*
X708917Y787866D01*
Y787210D01*
X709573Y786554D01*
X710229D01*
X709573D01*
X708917Y785898D01*
Y785243D01*
X709573Y784587D01*
X710885D01*
X711541Y785243D01*
X731976Y894087D02*
Y898022D01*
X730009D01*
X729353Y897366D01*
Y896054D01*
X730009Y895399D01*
X731976D01*
X730664D02*
X729353Y894087D01*
X728041D02*
X726729D01*
X727385D01*
Y898022D01*
X728041Y897366D01*
X804476Y849087D02*
Y853022D01*
X802509D01*
X801853Y852366D01*
Y851054D01*
X802509Y850399D01*
X804476D01*
X803164D02*
X801853Y849087D01*
X800541Y852366D02*
X799885Y853022D01*
X798573D01*
X797917Y852366D01*
Y851710D01*
X798573Y851054D01*
X799229D01*
X798573D01*
X797917Y850399D01*
Y849743D01*
X798573Y849087D01*
X799885D01*
X800541Y849743D01*
X743976Y797587D02*
Y801522D01*
X742008D01*
X741353Y800866D01*
Y799554D01*
X742008Y798899D01*
X743976D01*
X742664D02*
X741353Y797587D01*
X740041D02*
X738729D01*
X739385D01*
Y801522D01*
X740041Y800866D01*
X736761D02*
X736105Y801522D01*
X734793D01*
X734137Y800866D01*
Y800210D01*
X734793Y799554D01*
X735449D01*
X734793D01*
X734137Y798899D01*
Y798243D01*
X734793Y797587D01*
X736105D01*
X736761Y798243D01*
X705736Y849114D02*
Y853050D01*
X703768D01*
X703112Y852394D01*
Y851082D01*
X703768Y850426D01*
X705736D01*
X704424D02*
X703112Y849114D01*
X701800D02*
X700489D01*
X701145D01*
Y853050D01*
X701800Y852394D01*
X696553Y849114D02*
Y853050D01*
X698521Y851082D01*
X695897D01*
X750476Y884087D02*
Y888022D01*
X748509D01*
X747853Y887366D01*
Y886055D01*
X748509Y885398D01*
X750476D01*
X749164D02*
X747853Y884087D01*
X746541Y884743D02*
X745885Y884087D01*
X744573D01*
X743917Y884743D01*
Y887366D01*
X744573Y888022D01*
X745885D01*
X746541Y887366D01*
Y886710D01*
X745885Y886055D01*
X743917D01*
X761976Y738114D02*
X765912D01*
Y740082D01*
X765256Y740738D01*
X763944D01*
X763288Y740082D01*
Y738114D01*
Y739426D02*
X761976Y740738D01*
X765912Y744674D02*
Y742050D01*
X763944D01*
X764600Y743362D01*
Y744018D01*
X763944Y744674D01*
X762632D01*
X761976Y744018D01*
Y742706D01*
X762632Y742050D01*
X695476Y750087D02*
Y754022D01*
X693508D01*
X692853Y753366D01*
Y752055D01*
X693508Y751399D01*
X695476D01*
X694165D02*
X692853Y750087D01*
X691541Y754022D02*
X688917D01*
Y753366D01*
X691541Y750743D01*
Y750087D01*
X691476Y777087D02*
Y781022D01*
X689508D01*
X688853Y780366D01*
Y779054D01*
X689508Y778399D01*
X691476D01*
X690165D02*
X688853Y777087D01*
X687541Y780366D02*
X686885Y781022D01*
X685573D01*
X684917Y780366D01*
Y779710D01*
X685573Y779054D01*
X684917Y778399D01*
Y777743D01*
X685573Y777087D01*
X686885D01*
X687541Y777743D01*
Y778399D01*
X686885Y779054D01*
X687541Y779710D01*
Y780366D01*
X686885Y779054D02*
X685573D01*
X713976Y738587D02*
Y742522D01*
X712008D01*
X711353Y741866D01*
Y740555D01*
X712008Y739898D01*
X713976D01*
X712665D02*
X711353Y738587D01*
X707417Y742522D02*
X708729Y741866D01*
X710041Y740555D01*
Y739243D01*
X709385Y738587D01*
X708073D01*
X707417Y739243D01*
Y739898D01*
X708073Y740555D01*
X710041D01*
X701353Y799243D02*
Y801866D01*
X702008Y802522D01*
X703320D01*
X703976Y801866D01*
Y799243D01*
X703320Y798587D01*
X702008D01*
X702665Y799898D02*
X701353Y798587D01*
X702008D02*
X701353Y799243D01*
X698073Y798587D02*
Y802522D01*
X700041Y800554D01*
X697417D01*
X692476Y810587D02*
Y814522D01*
X690509D01*
X689853Y813866D01*
Y812554D01*
X690509Y811899D01*
X692476D01*
X691164D02*
X689853Y810587D01*
X688541D02*
X687229D01*
X687885D01*
Y814522D01*
X688541Y813866D01*
X682637Y814522D02*
X683949Y813866D01*
X685261Y812554D01*
Y811243D01*
X684605Y810587D01*
X683293D01*
X682637Y811243D01*
Y811899D01*
X683293Y812554D01*
X685261D01*
X573476Y861022D02*
Y857743D01*
X572820Y857087D01*
X571509D01*
X570853Y857743D01*
Y861022D01*
X566917Y857087D02*
X569541D01*
X566917Y859710D01*
Y860366D01*
X567573Y861022D01*
X568885D01*
X569541Y860366D01*
X998943Y886366D02*
X999599Y887022D01*
X1000911D01*
X1001567Y886366D01*
Y883743D01*
X1000911Y883087D01*
X999599D01*
X998943Y883743D01*
X995007Y887022D02*
X996319Y886366D01*
X997631Y885054D01*
Y883743D01*
X996975Y883087D01*
X995663D01*
X995007Y883743D01*
Y884398D01*
X995663Y885054D01*
X997631D01*
X923067Y832522D02*
Y829243D01*
X922411Y828587D01*
X921099D01*
X920443Y829243D01*
Y832522D01*
X919131Y828587D02*
X917819D01*
X918475D01*
Y832522D01*
X919131Y831866D01*
X1043067Y884587D02*
Y888522D01*
X1041099D01*
X1040443Y887866D01*
Y886555D01*
X1041099Y885898D01*
X1043067D01*
X1041755D02*
X1040443Y884587D01*
X1039131D02*
X1037819D01*
X1038475D01*
Y888522D01*
X1039131Y887866D01*
X1035851D02*
X1035195Y888522D01*
X1033883D01*
X1033228Y887866D01*
Y885243D01*
X1033883Y884587D01*
X1035195D01*
X1035851Y885243D01*
Y887866D01*
X941567Y779087D02*
Y783022D01*
X939599D01*
X938943Y782366D01*
Y781054D01*
X939599Y780399D01*
X941567D01*
X940255D02*
X938943Y779087D01*
X935663D02*
Y783022D01*
X937631Y781054D01*
X935007D01*
X853943Y716866D02*
X854599Y717522D01*
X855911D01*
X856567Y716866D01*
Y714243D01*
X855911Y713587D01*
X854599D01*
X853943Y714243D01*
X850007Y717522D02*
X852631D01*
Y715555D01*
X851319Y716210D01*
X850663D01*
X850007Y715555D01*
Y714243D01*
X850663Y713587D01*
X851975D01*
X852631Y714243D01*
X860443Y784866D02*
X861099Y785522D01*
X862411D01*
X863067Y784866D01*
Y782243D01*
X862411Y781587D01*
X861099D01*
X860443Y782243D01*
X859131Y784866D02*
X858475Y785522D01*
X857163D01*
X856507Y784866D01*
Y784210D01*
X857163Y783555D01*
X857819D01*
X857163D01*
X856507Y782899D01*
Y782243D01*
X857163Y781587D01*
X858475D01*
X859131Y782243D01*
X1020443Y912866D02*
X1021099Y913522D01*
X1022411D01*
X1023067Y912866D01*
Y910243D01*
X1022411Y909587D01*
X1021099D01*
X1020443Y910243D01*
X1016507Y909587D02*
X1019131D01*
X1016507Y912210D01*
Y912866D01*
X1017163Y913522D01*
X1018475D01*
X1019131Y912866D01*
X1014943Y930366D02*
X1015599Y931022D01*
X1016911D01*
X1017567Y930366D01*
Y927743D01*
X1016911Y927087D01*
X1015599D01*
X1014943Y927743D01*
X1013631Y927087D02*
X1012319D01*
X1012975D01*
Y931022D01*
X1013631Y930366D01*
X1023443Y746243D02*
Y748866D01*
X1024099Y749522D01*
X1025411D01*
X1026067Y748866D01*
Y746243D01*
X1025411Y745587D01*
X1024099D01*
X1024755Y746899D02*
X1023443Y745587D01*
X1024099D02*
X1023443Y746243D01*
X1019507Y745587D02*
X1022131D01*
X1019507Y748210D01*
Y748866D01*
X1020163Y749522D01*
X1021475D01*
X1022131Y748866D01*
X988443Y785243D02*
Y787866D01*
X989099Y788522D01*
X990411D01*
X991067Y787866D01*
Y785243D01*
X990411Y784587D01*
X989099D01*
X989755Y785898D02*
X988443Y784587D01*
X989099D02*
X988443Y785243D01*
X987131Y787866D02*
X986475Y788522D01*
X985163D01*
X984507Y787866D01*
Y787210D01*
X985163Y786554D01*
X985819D01*
X985163D01*
X984507Y785898D01*
Y785243D01*
X985163Y784587D01*
X986475D01*
X987131Y785243D01*
X1007567Y894087D02*
Y898022D01*
X1005599D01*
X1004943Y897366D01*
Y896054D01*
X1005599Y895399D01*
X1007567D01*
X1006255D02*
X1004943Y894087D01*
X1003631D02*
X1002319D01*
X1002975D01*
Y898022D01*
X1003631Y897366D01*
X1080067Y849087D02*
Y853022D01*
X1078099D01*
X1077443Y852366D01*
Y851054D01*
X1078099Y850399D01*
X1080067D01*
X1078755D02*
X1077443Y849087D01*
X1076131Y852366D02*
X1075475Y853022D01*
X1074163D01*
X1073507Y852366D01*
Y851710D01*
X1074163Y851054D01*
X1074819D01*
X1074163D01*
X1073507Y850399D01*
Y849743D01*
X1074163Y849087D01*
X1075475D01*
X1076131Y849743D01*
X1019567Y797587D02*
Y801522D01*
X1017599D01*
X1016943Y800866D01*
Y799554D01*
X1017599Y798899D01*
X1019567D01*
X1018255D02*
X1016943Y797587D01*
X1015631D02*
X1014319D01*
X1014975D01*
Y801522D01*
X1015631Y800866D01*
X1012351D02*
X1011695Y801522D01*
X1010384D01*
X1009728Y800866D01*
Y800210D01*
X1010384Y799554D01*
X1011040D01*
X1010384D01*
X1009728Y798899D01*
Y798243D01*
X1010384Y797587D01*
X1011695D01*
X1012351Y798243D01*
X981327Y849114D02*
Y853050D01*
X979359D01*
X978703Y852394D01*
Y851082D01*
X979359Y850426D01*
X981327D01*
X980015D02*
X978703Y849114D01*
X977391D02*
X976079D01*
X976735D01*
Y853050D01*
X977391Y852394D01*
X972143Y849114D02*
Y853050D01*
X974111Y851082D01*
X971487D01*
X1026067Y884087D02*
Y888022D01*
X1024099D01*
X1023443Y887366D01*
Y886055D01*
X1024099Y885398D01*
X1026067D01*
X1024755D02*
X1023443Y884087D01*
X1022131Y884743D02*
X1021475Y884087D01*
X1020163D01*
X1019507Y884743D01*
Y887366D01*
X1020163Y888022D01*
X1021475D01*
X1022131Y887366D01*
Y886710D01*
X1021475Y886055D01*
X1019507D01*
X1037567Y738114D02*
X1041503D01*
Y740082D01*
X1040847Y740738D01*
X1039535D01*
X1038879Y740082D01*
Y738114D01*
Y739426D02*
X1037567Y740738D01*
X1041503Y744674D02*
Y742050D01*
X1039535D01*
X1040191Y743362D01*
Y744018D01*
X1039535Y744674D01*
X1038223D01*
X1037567Y744018D01*
Y742706D01*
X1038223Y742050D01*
X971067Y750087D02*
Y754022D01*
X969099D01*
X968443Y753366D01*
Y752055D01*
X969099Y751399D01*
X971067D01*
X969755D02*
X968443Y750087D01*
X967131Y754022D02*
X964507D01*
Y753366D01*
X967131Y750743D01*
Y750087D01*
X967067Y777087D02*
Y781022D01*
X965099D01*
X964443Y780366D01*
Y779054D01*
X965099Y778399D01*
X967067D01*
X965755D02*
X964443Y777087D01*
X963131Y780366D02*
X962475Y781022D01*
X961163D01*
X960507Y780366D01*
Y779710D01*
X961163Y779054D01*
X960507Y778399D01*
Y777743D01*
X961163Y777087D01*
X962475D01*
X963131Y777743D01*
Y778399D01*
X962475Y779054D01*
X963131Y779710D01*
Y780366D01*
X962475Y779054D02*
X961163D01*
X989567Y738587D02*
Y742522D01*
X987599D01*
X986943Y741866D01*
Y740555D01*
X987599Y739898D01*
X989567D01*
X988255D02*
X986943Y738587D01*
X983007Y742522D02*
X984319Y741866D01*
X985631Y740555D01*
Y739243D01*
X984975Y738587D01*
X983663D01*
X983007Y739243D01*
Y739898D01*
X983663Y740555D01*
X985631D01*
X976943Y799243D02*
Y801866D01*
X977599Y802522D01*
X978911D01*
X979567Y801866D01*
Y799243D01*
X978911Y798587D01*
X977599D01*
X978255Y799898D02*
X976943Y798587D01*
X977599D02*
X976943Y799243D01*
X973663Y798587D02*
Y802522D01*
X975631Y800554D01*
X973007D01*
X968067Y810587D02*
Y814522D01*
X966099D01*
X965443Y813866D01*
Y812554D01*
X966099Y811899D01*
X968067D01*
X966755D02*
X965443Y810587D01*
X964131D02*
X962819D01*
X963475D01*
Y814522D01*
X964131Y813866D01*
X958228Y814522D02*
X959540Y813866D01*
X960851Y812554D01*
Y811243D01*
X960195Y810587D01*
X958883D01*
X958228Y811243D01*
Y811899D01*
X958883Y812554D01*
X960851D01*
X849067Y861022D02*
Y857743D01*
X848411Y857087D01*
X847099D01*
X846443Y857743D01*
Y861022D01*
X842507Y857087D02*
X845131D01*
X842507Y859710D01*
Y860366D01*
X843163Y861022D01*
X844475D01*
X845131Y860366D01*
M02*
