G04 Layer_Color=16711935*
%FSLAX25Y25*%
%MOIN*%
G70*
G01*
G75*
%ADD35C,0.01000*%
%ADD36C,0.00394*%
D35*
X275590Y253468D02*
Y279500D01*
X0Y253468D02*
Y279500D01*
X151791Y278500D02*
X275590D01*
X0D02*
X120600D01*
X269590Y280500D02*
X275590Y278500D01*
X269590Y276500D02*
X275590Y278500D01*
X0D02*
X6000Y276500D01*
X0Y278500D02*
X6000Y280500D01*
X-24500Y0D02*
X-1500D01*
X-24500Y251969D02*
X-1500D01*
X-23500Y0D02*
Y108789D01*
Y139980D02*
Y251969D01*
Y0D02*
X-21500Y6000D01*
X-25500D02*
X-23500Y0D01*
X-25500Y245969D02*
X-23500Y251969D01*
X-21500Y245969D01*
X275590Y0D02*
Y251969D01*
X0D02*
X275590D01*
X0Y0D02*
Y251969D01*
Y0D02*
X275590D01*
D36*
X122200Y277837D02*
X124824D01*
Y277181D01*
X122200Y274557D01*
Y273901D01*
X126136Y277181D02*
X126792Y277837D01*
X128103D01*
X128759Y277181D01*
Y274557D01*
X128103Y273901D01*
X126792D01*
X126136Y274557D01*
Y277181D01*
X130727Y273245D02*
X131383Y273901D01*
Y274557D01*
X130727D01*
Y273901D01*
X131383D01*
X130727Y273245D01*
X130071Y272589D01*
X134007Y277181D02*
X134663Y277837D01*
X135975D01*
X136631Y277181D01*
Y274557D01*
X135975Y273901D01*
X134663D01*
X134007Y274557D01*
Y277181D01*
X137943D02*
X138599Y277837D01*
X139911D01*
X140567Y277181D01*
Y274557D01*
X139911Y273901D01*
X138599D01*
X137943Y274557D01*
Y277181D01*
X-22837Y113013D02*
X-22181Y111701D01*
X-20869Y110389D01*
X-19557D01*
X-18901Y111045D01*
Y112357D01*
X-19557Y113013D01*
X-20213D01*
X-20869Y112357D01*
Y110389D01*
X-18901Y116292D02*
X-22837D01*
X-20869Y114324D01*
Y116948D01*
X-18245Y118916D02*
X-18901Y119572D01*
X-19557D01*
Y118916D01*
X-18901D01*
Y119572D01*
X-18245Y118916D01*
X-17589Y118260D01*
X-22181Y122196D02*
X-22837Y122852D01*
Y124164D01*
X-22181Y124820D01*
X-19557D01*
X-18901Y124164D01*
Y122852D01*
X-19557Y122196D01*
X-22181D01*
Y126132D02*
X-22837Y126788D01*
Y128100D01*
X-22181Y128755D01*
X-19557D01*
X-18901Y128100D01*
Y126788D01*
X-19557Y126132D01*
X-22181D01*
M02*
