G04 Layer_Color=16711935*
%FSLAX25Y25*%
%MOIN*%
G70*
G01*
G75*
%ADD36C,0.01000*%
%ADD37C,0.00600*%
D36*
X275590Y253468D02*
Y279500D01*
X0Y253468D02*
Y279500D01*
X151791Y278500D02*
X275590D01*
X0D02*
X120600D01*
X269590Y280500D02*
X275590Y278500D01*
X269590Y276500D02*
X275590Y278500D01*
X0D02*
X6000Y276500D01*
X0Y278500D02*
X6000Y280500D01*
X-24500Y0D02*
X-1500D01*
X-24500Y251969D02*
X-1500D01*
X-23500Y0D02*
Y108789D01*
Y139980D02*
Y251969D01*
Y0D02*
X-21500Y6000D01*
X-25500D02*
X-23500Y0D01*
X-25500Y245969D02*
X-23500Y251969D01*
X-21500Y245969D01*
X275590Y0D02*
Y251969D01*
X0D02*
X275590D01*
X0Y0D02*
Y251969D01*
Y0D02*
X275590D01*
D37*
X122200Y279899D02*
X126198D01*
Y278900D01*
X122200Y274901D01*
Y273901D01*
X128198Y278900D02*
X129198Y279899D01*
X131197D01*
X132197Y278900D01*
Y274901D01*
X131197Y273901D01*
X129198D01*
X128198Y274901D01*
Y278900D01*
X135196Y272902D02*
X136195Y273901D01*
Y274901D01*
X135196D01*
Y273901D01*
X136195D01*
X135196Y272902D01*
X134196Y271902D01*
X140194Y278900D02*
X141194Y279899D01*
X143193D01*
X144193Y278900D01*
Y274901D01*
X143193Y273901D01*
X141194D01*
X140194Y274901D01*
Y278900D01*
X146192D02*
X147192Y279899D01*
X149191D01*
X150191Y278900D01*
Y274901D01*
X149191Y273901D01*
X147192D01*
X146192Y274901D01*
Y278900D01*
X-24899Y114388D02*
X-23900Y112388D01*
X-21900Y110389D01*
X-19901D01*
X-18901Y111388D01*
Y113388D01*
X-19901Y114388D01*
X-20901D01*
X-21900Y113388D01*
Y110389D01*
X-18901Y119386D02*
X-24899D01*
X-21900Y116387D01*
Y120386D01*
X-17902Y123385D02*
X-18901Y124384D01*
X-19901D01*
Y123385D01*
X-18901D01*
Y124384D01*
X-17902Y123385D01*
X-16902Y122385D01*
X-23900Y128383D02*
X-24899Y129383D01*
Y131382D01*
X-23900Y132382D01*
X-19901D01*
X-18901Y131382D01*
Y129383D01*
X-19901Y128383D01*
X-23900D01*
Y134381D02*
X-24899Y135381D01*
Y137380D01*
X-23900Y138380D01*
X-19901D01*
X-18901Y137380D01*
Y135381D01*
X-19901Y134381D01*
X-23900D01*
M02*
