G04 Layer_Physical_Order=2*
G04 Layer_Color=16711680*
%FSLAX25Y25*%
%MOIN*%
G70*
G01*
G75*
%ADD10R,0.08268X0.06890*%
%ADD11R,0.05118X0.05905*%
%ADD12R,0.06890X0.08268*%
%ADD13R,0.04724X0.03150*%
%ADD14R,0.03150X0.04724*%
%ADD15R,0.05905X0.05118*%
%ADD16C,0.03937*%
%ADD17C,0.03150*%
%ADD18C,0.09842*%
%ADD19C,0.05905*%
%ADD20C,0.08661*%
%ADD21R,0.13500X1.07000*%
%ADD22R,0.22000X0.26500*%
%ADD23R,0.42500X0.19000*%
%ADD24R,0.85000X0.76000*%
%ADD25C,0.06000*%
%ADD26C,0.05512*%
%ADD27C,0.11024*%
%ADD28C,0.06299*%
%ADD29R,0.07087X0.07087*%
%ADD30C,0.07087*%
%ADD31C,0.09842*%
%ADD32C,0.07874*%
G04:AMPARAMS|DCode=33|XSize=157.48mil|YSize=78.74mil|CornerRadius=19.68mil|HoleSize=0mil|Usage=FLASHONLY|Rotation=90.000|XOffset=0mil|YOffset=0mil|HoleType=Round|Shape=RoundedRectangle|*
%AMROUNDEDRECTD33*
21,1,0.15748,0.03937,0,0,90.0*
21,1,0.11811,0.07874,0,0,90.0*
1,1,0.03937,0.01968,0.05905*
1,1,0.03937,0.01968,-0.05905*
1,1,0.03937,-0.01968,-0.05905*
1,1,0.03937,-0.01968,0.05905*
%
%ADD33ROUNDEDRECTD33*%
G04:AMPARAMS|DCode=34|XSize=157.48mil|YSize=78.74mil|CornerRadius=19.68mil|HoleSize=0mil|Usage=FLASHONLY|Rotation=180.000|XOffset=0mil|YOffset=0mil|HoleType=Round|Shape=RoundedRectangle|*
%AMROUNDEDRECTD34*
21,1,0.15748,0.03937,0,0,180.0*
21,1,0.11811,0.07874,0,0,180.0*
1,1,0.03937,-0.05905,0.01968*
1,1,0.03937,0.05905,0.01968*
1,1,0.03937,0.05905,-0.01968*
1,1,0.03937,-0.05905,-0.01968*
%
%ADD34ROUNDEDRECTD34*%
%ADD35C,0.19685*%
G36*
X252135Y246791D02*
X252952Y244882D01*
X252512Y243819D01*
X252078Y242011D01*
X251932Y240158D01*
X252078Y238304D01*
X252512Y236496D01*
X253223Y234779D01*
X254195Y233194D01*
X255402Y231780D01*
X256816Y230573D01*
X258401Y229601D01*
X260118Y228890D01*
X261926Y228456D01*
X263779Y228310D01*
X265633Y228456D01*
X267441Y228890D01*
X268504Y229330D01*
X270413Y228513D01*
X271654Y227436D01*
Y105043D01*
X271000Y104507D01*
X239921D01*
Y110350D01*
X239921Y113500D01*
X239921Y116650D01*
Y122555D01*
X238971D01*
Y126355D01*
X241645Y129029D01*
X245914D01*
X246117Y128873D01*
X247267Y128397D01*
X248500Y128235D01*
X249733Y128397D01*
X250883Y128873D01*
X251870Y129630D01*
X252627Y130617D01*
X253103Y131767D01*
X253265Y133000D01*
X253103Y134233D01*
X252627Y135383D01*
X251870Y136370D01*
X250883Y137127D01*
X249733Y137603D01*
X248500Y137765D01*
X247267Y137603D01*
X246117Y137127D01*
X245914Y136971D01*
X240000D01*
X238972Y136836D01*
X238015Y136439D01*
X237192Y135808D01*
X232192Y130808D01*
X231561Y129985D01*
X231164Y129028D01*
X231029Y128000D01*
Y122555D01*
X230079D01*
Y116650D01*
X230079Y113500D01*
X230079Y110350D01*
Y104507D01*
X196452D01*
Y130500D01*
X196330Y131735D01*
X195970Y132922D01*
X195385Y134017D01*
X194598Y134976D01*
X193639Y135763D01*
X192544Y136348D01*
X191357Y136708D01*
X190122Y136830D01*
X188887Y136708D01*
X187700Y136348D01*
X186606Y135763D01*
X185646Y134976D01*
X184859Y134017D01*
X184274Y132922D01*
X183914Y131735D01*
X183792Y130500D01*
Y90622D01*
X183914Y89387D01*
X183993Y89127D01*
Y26500D01*
X184146Y25732D01*
X184581Y25081D01*
X185232Y24646D01*
X186000Y24493D01*
X255842D01*
X256766Y21554D01*
X256754Y21343D01*
X255402Y20188D01*
X254195Y18775D01*
X253223Y17190D01*
X252512Y15472D01*
X252078Y13664D01*
X251932Y11811D01*
X252078Y9958D01*
X252512Y8150D01*
X252952Y7087D01*
X252135Y5178D01*
X251059Y3937D01*
X24532D01*
X23456Y5178D01*
X22638Y7087D01*
X23079Y8150D01*
X23513Y9958D01*
X23659Y11811D01*
X23513Y13664D01*
X23079Y15472D01*
X22367Y17190D01*
X21396Y18775D01*
X20188Y20188D01*
X18775Y21396D01*
X17190Y22367D01*
X15472Y23079D01*
X13664Y23513D01*
X11811Y23659D01*
X9958Y23513D01*
X8150Y23079D01*
X7087Y22638D01*
X5178Y23456D01*
X3937Y24532D01*
Y227436D01*
X5178Y228513D01*
X7087Y229330D01*
X8150Y228890D01*
X9958Y228456D01*
X11811Y228310D01*
X13664Y228456D01*
X15472Y228890D01*
X17190Y229601D01*
X18775Y230573D01*
X20188Y231780D01*
X21396Y233194D01*
X22367Y234779D01*
X23079Y236496D01*
X23513Y238304D01*
X23659Y240158D01*
X23513Y242011D01*
X23079Y243819D01*
X22638Y244882D01*
X23456Y246791D01*
X24532Y248031D01*
X251059D01*
X252135Y246791D01*
D02*
G37*
%LPC*%
G36*
X115000Y191434D02*
X113842Y191320D01*
X112729Y190982D01*
X111703Y190434D01*
X110804Y189696D01*
X110066Y188797D01*
X109518Y187771D01*
X109180Y186658D01*
X109066Y185500D01*
X109180Y184342D01*
X109518Y183229D01*
X110066Y182203D01*
X110804Y181304D01*
X111029Y181119D01*
Y174921D01*
X110445D01*
Y165079D01*
X116350D01*
X119500Y165079D01*
X122650Y165079D01*
X128555D01*
Y165903D01*
X131898D01*
Y164461D01*
X144102D01*
Y175287D01*
X131898D01*
Y173845D01*
X128555D01*
Y174921D01*
X122650D01*
X119500Y174921D01*
X118971Y177852D01*
Y181119D01*
X119196Y181304D01*
X119934Y182203D01*
X120482Y183229D01*
X120820Y184342D01*
X120934Y185500D01*
X120820Y186658D01*
X120482Y187771D01*
X119934Y188797D01*
X119196Y189696D01*
X118297Y190434D01*
X117271Y190982D01*
X116158Y191320D01*
X115000Y191434D01*
D02*
G37*
G36*
X166039Y160102D02*
X155213D01*
Y157971D01*
X144102D01*
Y159539D01*
X131898D01*
Y157971D01*
X128555D01*
Y158921D01*
X122650D01*
X119500Y158921D01*
X116350Y158921D01*
X110445D01*
Y149079D01*
X111029D01*
Y142379D01*
X110185Y141280D01*
X109630Y139939D01*
X109441Y138500D01*
X109630Y137061D01*
X110185Y135720D01*
X111069Y134569D01*
X112220Y133685D01*
X113561Y133130D01*
X115000Y132941D01*
X116439Y133130D01*
X117780Y133685D01*
X118931Y134569D01*
X119815Y135720D01*
X120370Y137061D01*
X120559Y138500D01*
X120370Y139939D01*
X119815Y141280D01*
X118971Y142379D01*
Y146148D01*
X119500Y149079D01*
X122650Y149079D01*
X128555D01*
Y150029D01*
X131898D01*
Y148713D01*
X144102D01*
Y150029D01*
X155213D01*
Y147898D01*
X166039D01*
Y160102D01*
D02*
G37*
G36*
X148000Y144059D02*
X146561Y143870D01*
X145220Y143315D01*
X144069Y142431D01*
X143185Y141280D01*
X142630Y139939D01*
X142441Y138500D01*
X142617Y137161D01*
X142626Y136972D01*
X142488Y134012D01*
X142488D01*
Y122988D01*
X153512D01*
Y133505D01*
X165109D01*
X165164Y133482D01*
X166500Y133306D01*
X167836Y133482D01*
X169081Y133998D01*
X170150Y134818D01*
X170971Y135887D01*
X171486Y137132D01*
X171662Y138469D01*
X171486Y139805D01*
X170971Y141050D01*
X170150Y142119D01*
X169081Y142939D01*
X167836Y143455D01*
X166500Y143631D01*
X165164Y143455D01*
X165109Y143432D01*
X150496D01*
X149439Y143870D01*
X148000Y144059D01*
D02*
G37*
G36*
X102500Y242921D02*
X99350Y242921D01*
X93445D01*
Y241511D01*
X86890D01*
X86658Y241480D01*
X82559D01*
Y239166D01*
X80000Y237740D01*
X79409Y237740D01*
X75902D01*
X75669Y237771D01*
X66602D01*
Y239287D01*
X54398D01*
Y238471D01*
X38000D01*
X36972Y238336D01*
X36015Y237939D01*
X35192Y237308D01*
X24192Y226308D01*
X23561Y225485D01*
X23164Y224528D01*
X23029Y223500D01*
Y222086D01*
X22873Y221883D01*
X22397Y220733D01*
X22235Y219500D01*
X22397Y218267D01*
X22873Y217117D01*
X23255Y216621D01*
X23158Y215422D01*
X23057Y215102D01*
X22081Y213350D01*
X21972Y213336D01*
X21014Y212939D01*
X20192Y212308D01*
X15692Y207808D01*
X15061Y206985D01*
X14664Y206028D01*
X14529Y205000D01*
Y179000D01*
X14664Y177972D01*
X15061Y177015D01*
X15692Y176192D01*
X21192Y170692D01*
X22015Y170061D01*
X22972Y169664D01*
X24000Y169529D01*
X39945D01*
Y167579D01*
X46392D01*
X47198Y166309D01*
X47753Y164429D01*
X47646Y164268D01*
X47493Y163500D01*
Y144500D01*
X47646Y143732D01*
X48081Y143081D01*
X48732Y142646D01*
X49500Y142493D01*
X82493D01*
Y119471D01*
X53055D01*
Y120421D01*
X47150D01*
X44000Y120421D01*
X40850Y120421D01*
X34945D01*
Y119471D01*
X25586D01*
X25383Y119627D01*
X24233Y120103D01*
X23000Y120265D01*
X21767Y120103D01*
X20617Y119627D01*
X19631Y118869D01*
X18873Y117883D01*
X18397Y116733D01*
X18235Y115500D01*
X18397Y114267D01*
X18873Y113117D01*
X19631Y112130D01*
X20617Y111373D01*
X21767Y110897D01*
X23000Y110735D01*
X24233Y110897D01*
X25383Y111373D01*
X25586Y111529D01*
X34945D01*
Y110579D01*
X40850D01*
X44000Y110579D01*
X47150Y110579D01*
X53055D01*
Y111529D01*
X84319D01*
X84500Y111493D01*
X98000D01*
X98768Y111646D01*
X99416Y112079D01*
X100000D01*
Y113464D01*
X100007Y113500D01*
Y208577D01*
X108032D01*
X109518Y205487D01*
X109180Y204374D01*
X109066Y203217D01*
X109180Y202059D01*
X109518Y200946D01*
X110066Y199920D01*
X110804Y199021D01*
X111703Y198283D01*
X112729Y197734D01*
X113842Y197397D01*
X115000Y197283D01*
X116158Y197397D01*
X117271Y197734D01*
X118297Y198283D01*
X119196Y199021D01*
X119934Y199920D01*
X120482Y200946D01*
X120820Y202059D01*
X120934Y203217D01*
X120820Y204374D01*
X120482Y205487D01*
X121968Y208577D01*
X133276D01*
X133815Y208110D01*
X135108Y205487D01*
X134771Y204374D01*
X134657Y203217D01*
X134771Y202059D01*
X135108Y200946D01*
X135656Y199920D01*
X136395Y199021D01*
X137294Y198283D01*
X138320Y197734D01*
X139433Y197397D01*
X140591Y197283D01*
X141748Y197397D01*
X142861Y197734D01*
X143887Y198283D01*
X144787Y199021D01*
X145525Y199920D01*
X146073Y200946D01*
X146411Y202059D01*
X146525Y203217D01*
X146411Y204374D01*
X146073Y205487D01*
X147366Y208110D01*
X147906Y208577D01*
X168632D01*
X174077Y203132D01*
Y194500D01*
X174210Y193149D01*
X174604Y191851D01*
X175244Y190654D01*
X176105Y189605D01*
X184105Y181605D01*
X185154Y180744D01*
X186351Y180104D01*
X187649Y179710D01*
X189000Y179577D01*
X208780D01*
Y149290D01*
X205631Y147985D01*
X196808Y156808D01*
X195985Y157439D01*
X195028Y157836D01*
X194000Y157971D01*
X181787D01*
Y160102D01*
X170961D01*
Y147898D01*
X181787D01*
Y150029D01*
X192355D01*
X201029Y141355D01*
Y136000D01*
X201164Y134972D01*
X201561Y134014D01*
X202192Y133192D01*
X207692Y127692D01*
X208514Y127061D01*
X209472Y126664D01*
X210500Y126529D01*
X216500D01*
X217528Y126664D01*
X218485Y127061D01*
X219308Y127692D01*
X226808Y135192D01*
X227439Y136014D01*
X227836Y136972D01*
X227971Y138000D01*
Y148355D01*
X235259Y155643D01*
X245641D01*
X245750Y155438D01*
X246685Y154299D01*
X247824Y153364D01*
X249124Y152670D01*
X250534Y152242D01*
X252000Y152098D01*
X253466Y152242D01*
X254876Y152670D01*
X256176Y153364D01*
X257315Y154299D01*
X258250Y155438D01*
X258944Y156738D01*
X259372Y158148D01*
X259517Y159614D01*
X259372Y161081D01*
X258944Y162491D01*
X258250Y163790D01*
X257315Y164929D01*
X256530Y165573D01*
X256303Y167409D01*
X256530Y169246D01*
X257315Y169890D01*
X258250Y171029D01*
X258944Y172328D01*
X259372Y173738D01*
X259517Y175205D01*
X259372Y176671D01*
X258944Y178081D01*
X258250Y179381D01*
X257315Y180520D01*
X256176Y181455D01*
X254876Y182149D01*
X253466Y182577D01*
X252000Y182721D01*
X250534Y182577D01*
X249124Y182149D01*
X247824Y181455D01*
X246685Y180520D01*
X245750Y179381D01*
X245641Y179176D01*
X234940D01*
X231971Y182145D01*
Y189000D01*
X231836Y190028D01*
X231439Y190986D01*
X230808Y191808D01*
X224971Y197645D01*
Y200945D01*
X225921D01*
Y210000D01*
X217571D01*
X216079Y210000D01*
X214421Y212463D01*
X214421Y213150D01*
Y219055D01*
X204579D01*
Y219055D01*
X201921D01*
Y219055D01*
X192079D01*
Y213150D01*
X192079Y210000D01*
X192079Y206850D01*
Y200945D01*
X193029D01*
Y196750D01*
X190340Y195604D01*
X187923Y197570D01*
Y206000D01*
X187790Y207351D01*
X187396Y208649D01*
X186756Y209846D01*
X185895Y210895D01*
X176395Y220395D01*
X175346Y221256D01*
X174149Y221896D01*
X172851Y222290D01*
X171500Y222423D01*
X98422D01*
X98000Y222507D01*
X84500D01*
X84069Y222421D01*
X79500Y222421D01*
X76350Y222421D01*
X70445D01*
Y221471D01*
X66602D01*
Y223539D01*
X54648D01*
X54398Y223539D01*
Y223539D01*
X51602Y223287D01*
Y223287D01*
X39398D01*
Y212461D01*
X51352D01*
X51602Y212461D01*
Y212461D01*
X54398Y212713D01*
Y212713D01*
X66602D01*
Y213529D01*
X70445D01*
Y212579D01*
X76350D01*
X79500Y212579D01*
X82493Y212200D01*
Y188507D01*
X72464D01*
X69543Y189059D01*
X69543Y191657D01*
Y197721D01*
X67229D01*
X65803Y200279D01*
Y208941D01*
X58716D01*
Y208581D01*
X55610D01*
X54583Y208446D01*
X54407Y208373D01*
X51602Y207539D01*
Y207539D01*
X39398D01*
Y197471D01*
X28586D01*
X28383Y197627D01*
X27233Y198103D01*
X26000Y198265D01*
X25621Y198215D01*
X23391Y199576D01*
X22471Y200561D01*
Y203201D01*
X24617Y205373D01*
X25767Y204897D01*
X27000Y204735D01*
X28233Y204897D01*
X29383Y205373D01*
X30369Y206131D01*
X31127Y207117D01*
X31603Y208267D01*
X31765Y209500D01*
X31603Y210733D01*
X31127Y211883D01*
X30641Y212516D01*
X30369Y213132D01*
Y215868D01*
X30641Y216484D01*
X31127Y217117D01*
X31603Y218267D01*
X31765Y219500D01*
X31603Y220733D01*
X31127Y221883D01*
X31071Y221955D01*
X39645Y230529D01*
X54398D01*
Y228461D01*
X66602D01*
Y230623D01*
X75669D01*
X75902Y230654D01*
X80000D01*
Y232968D01*
X82559Y234394D01*
X83150Y234394D01*
X86658D01*
X86890Y234363D01*
X93445D01*
Y233079D01*
X99350D01*
X102500Y233079D01*
X105650Y233079D01*
X111555D01*
Y234029D01*
X229855D01*
X247529Y216355D01*
Y212393D01*
X246685Y211701D01*
X245750Y210562D01*
X245056Y209262D01*
X244628Y207852D01*
X244483Y206386D01*
X244628Y204919D01*
X245056Y203509D01*
X245750Y202210D01*
X246685Y201071D01*
X247824Y200136D01*
X249124Y199442D01*
X250534Y199014D01*
X252000Y198869D01*
X253466Y199014D01*
X254876Y199442D01*
X256176Y200136D01*
X257315Y201071D01*
X258250Y202210D01*
X258944Y203509D01*
X259372Y204919D01*
X259517Y206386D01*
X259372Y207852D01*
X258944Y209262D01*
X258250Y210562D01*
X257315Y211701D01*
X256176Y212636D01*
X255471Y213012D01*
Y218000D01*
X255336Y219028D01*
X254939Y219986D01*
X254308Y220808D01*
X234308Y240808D01*
X233486Y241439D01*
X232528Y241836D01*
X231500Y241971D01*
X111555D01*
Y242921D01*
X105650D01*
X102500Y242921D01*
D02*
G37*
G36*
X166500Y191662D02*
X165164Y191486D01*
X163919Y190971D01*
X162850Y190150D01*
X162029Y189081D01*
X161514Y187836D01*
X161338Y186500D01*
X161514Y185164D01*
X162029Y183919D01*
X162850Y182850D01*
X163919Y182029D01*
X165164Y181514D01*
X166500Y181338D01*
X167836Y181514D01*
X169081Y182029D01*
X170150Y182850D01*
X170971Y183919D01*
X171486Y185164D01*
X171662Y186500D01*
X171486Y187836D01*
X170971Y189081D01*
X170150Y190150D01*
X169081Y190971D01*
X167836Y191486D01*
X166500Y191662D01*
D02*
G37*
G36*
X140591Y191434D02*
X139433Y191320D01*
X138320Y190982D01*
X137294Y190434D01*
X136395Y189696D01*
X135656Y188797D01*
X135108Y187771D01*
X134771Y186658D01*
X134657Y185500D01*
X134771Y184342D01*
X135108Y183229D01*
X135656Y182203D01*
X136395Y181304D01*
X137294Y180566D01*
X138320Y180018D01*
X139433Y179680D01*
X140591Y179566D01*
X141748Y179680D01*
X142861Y180018D01*
X143887Y180566D01*
X144787Y181304D01*
X145525Y182203D01*
X146073Y183229D01*
X146411Y184342D01*
X146525Y185500D01*
X146411Y186658D01*
X146073Y187771D01*
X145525Y188797D01*
X144787Y189696D01*
X143887Y190434D01*
X142861Y190982D01*
X141748Y191320D01*
X140591Y191434D01*
D02*
G37*
%LPD*%
G36*
X223619Y184749D02*
X224029Y184414D01*
Y180500D01*
X224164Y179472D01*
X224561Y178515D01*
X225192Y177692D01*
X230487Y172397D01*
X231310Y171766D01*
X232267Y171369D01*
X233295Y171234D01*
X245641D01*
X245750Y171029D01*
X246685Y169890D01*
X247470Y169246D01*
X247697Y167409D01*
X247470Y165573D01*
X246685Y164929D01*
X245750Y163790D01*
X245641Y163585D01*
X233614D01*
X232586Y163450D01*
X231629Y163053D01*
X230806Y162422D01*
X221857Y153473D01*
X219378Y154214D01*
X218708Y154734D01*
Y181688D01*
X219500Y182654D01*
X220018Y183623D01*
X220290Y183896D01*
X223276Y184793D01*
X223619Y184749D01*
D02*
G37*
D10*
X60500Y218126D02*
D03*
Y233874D02*
D03*
X45500Y217874D02*
D03*
Y202126D02*
D03*
X138000Y154126D02*
D03*
Y169874D02*
D03*
D11*
X104528Y117000D02*
D03*
X95472D02*
D03*
X39472Y115500D02*
D03*
X48528D02*
D03*
X124028Y170000D02*
D03*
X114972D02*
D03*
Y154000D02*
D03*
X124028D02*
D03*
X44472Y172500D02*
D03*
X53528D02*
D03*
X44472Y183500D02*
D03*
X53528D02*
D03*
X74972Y217500D02*
D03*
X84028D02*
D03*
X107028Y238000D02*
D03*
X97972D02*
D03*
D12*
X160626Y154000D02*
D03*
X176374D02*
D03*
D13*
X86890Y237937D02*
D03*
Y230457D02*
D03*
X75669Y234197D02*
D03*
D14*
X62260Y204610D02*
D03*
X69740D02*
D03*
X66000Y193390D02*
D03*
D15*
X235000Y118028D02*
D03*
Y108972D02*
D03*
X197000Y214528D02*
D03*
Y205472D02*
D03*
X209500D02*
D03*
Y214528D02*
D03*
X221000D02*
D03*
Y205472D02*
D03*
D16*
X18500Y205000D02*
X23000Y209500D01*
X18500Y179000D02*
Y205000D01*
Y179000D02*
X24000Y173500D01*
X44472D01*
X23000Y209500D02*
X27000D01*
X38000Y234500D02*
X60500D01*
X27000Y223500D02*
X38000Y234500D01*
X27000Y219500D02*
Y223500D01*
X60500Y234500D02*
X60803Y234197D01*
X55610Y204610D02*
X61500D01*
X53126Y202126D02*
X55610Y204610D01*
X45500Y202126D02*
X53126D01*
X60248Y217874D02*
X60622Y217500D01*
X74972D01*
X26000Y193500D02*
X65000D01*
X45500Y217874D02*
X60248D01*
X26000Y183500D02*
X44472D01*
X231500Y238000D02*
X251500Y218000D01*
X107028Y238000D02*
X231500D01*
X216500Y130500D02*
X224000Y138000D01*
X210500Y130500D02*
X216500D01*
X205000Y136000D02*
X210500Y130500D01*
X224000Y138000D02*
Y150000D01*
X205000Y136000D02*
Y143000D01*
X194000Y154000D02*
X205000Y143000D01*
X251500Y205500D02*
Y218000D01*
X228000Y180500D02*
Y189000D01*
X221000Y196000D02*
X228000Y189000D01*
X221000Y196000D02*
Y205472D01*
X228000Y180500D02*
X233295Y175205D01*
X209500Y205472D02*
X221000D01*
X233295Y175205D02*
X252000D01*
X233614Y159614D02*
X252000D01*
X224000Y150000D02*
X233614Y159614D01*
X197000Y187000D02*
X197500Y186500D01*
X197000Y187000D02*
Y205472D01*
Y214528D02*
X209500D01*
X176374Y154000D02*
X194000D01*
X124028Y170000D02*
X124153Y169874D01*
X138000D01*
X124028Y154000D02*
X160626D01*
X114972D02*
X115000Y153972D01*
Y138500D02*
Y153972D01*
X114972Y170000D02*
X115000Y170028D01*
Y185500D01*
X148000Y138500D02*
X148031Y138469D01*
X114972Y185472D02*
X115000Y185500D01*
X54028Y172500D02*
X68500D01*
X54028Y183500D02*
X68000D01*
X48528Y115500D02*
X93000D01*
X23000D02*
X39472D01*
X235000Y96000D02*
X235500Y95500D01*
X235000Y96000D02*
Y108972D01*
Y118028D02*
Y128000D01*
X240000Y133000D01*
X189000Y89500D02*
X190122Y90622D01*
X240000Y133000D02*
X248500D01*
D17*
X60803Y234197D02*
X75669D01*
X86890Y237937D02*
X98035D01*
D18*
X197500Y186500D02*
X213744D01*
X189000D02*
X197500D01*
X171500Y215500D02*
X181000Y206000D01*
Y194500D02*
Y206000D01*
Y194500D02*
X189000Y186500D01*
X91500Y215500D02*
X171500D01*
D19*
X213744Y138469D02*
Y186500D01*
X114500Y215500D02*
X115000Y215000D01*
Y203217D02*
Y215000D01*
X148000Y128500D02*
Y138500D01*
X148031Y138469D02*
X166500D01*
D20*
X190122Y90622D02*
Y130500D01*
D21*
X91250Y167000D02*
D03*
D22*
X74500Y173250D02*
D03*
D23*
X70750Y154000D02*
D03*
D24*
X228500Y64500D02*
D03*
D25*
X51430Y134706D02*
D03*
X42835Y134846D02*
D03*
X50106Y134722D02*
D03*
X48750Y134690D02*
D03*
X47725Y134737D02*
D03*
X46748Y134753D02*
D03*
X45707Y134737D02*
D03*
X44446Y134800D02*
D03*
X56691Y149437D02*
D03*
X56831Y158033D02*
D03*
X56706Y150762D02*
D03*
X56675Y152118D02*
D03*
X56722Y153143D02*
D03*
X56738Y154120D02*
D03*
X56722Y155161D02*
D03*
X56785Y156422D02*
D03*
X33862Y149342D02*
D03*
X34002Y157938D02*
D03*
X33877Y150666D02*
D03*
X33846Y152022D02*
D03*
X33893Y153047D02*
D03*
X33909Y154025D02*
D03*
X33893Y155065D02*
D03*
X33956Y156326D02*
D03*
D26*
X23000Y115500D02*
D03*
Y105500D02*
D03*
X27000Y209500D02*
D03*
Y219500D02*
D03*
X26000Y183500D02*
D03*
Y193500D02*
D03*
X248500Y133000D02*
D03*
X258500D02*
D03*
D27*
X252000Y175205D02*
D03*
Y190795D02*
D03*
Y206386D02*
D03*
Y159614D02*
D03*
D28*
X257500Y60500D02*
D03*
X24500Y63000D02*
D03*
X166500Y138469D02*
D03*
X213744D02*
D03*
X166500Y186500D02*
D03*
X213744D02*
D03*
D29*
X148000Y128500D02*
D03*
D30*
Y138500D02*
D03*
X115000Y128500D02*
D03*
Y138500D02*
D03*
D31*
X33701Y32500D02*
D03*
X246299D02*
D03*
X33201Y91000D02*
D03*
X245799D02*
D03*
D32*
X190122Y130595D02*
D03*
X140591Y185500D02*
D03*
X115000D02*
D03*
X140591Y203217D02*
D03*
X115000D02*
D03*
D33*
X56835Y153500D02*
D03*
X34000D02*
D03*
D34*
X47291Y134500D02*
D03*
D35*
X263779Y11811D02*
D03*
X11811D02*
D03*
X263779Y240158D02*
D03*
X11811D02*
D03*
M02*
