M48
;Layer_Color=9474304
;FILE_FORMAT=2:5
INCH,LZ
;TYPE=PLATED
T1F00S00C0.02362
T2F00S00C0.03150
T4F00S00C0.03937
T5F00S00C0.04724
T6F00S00C0.05906
T7F00S00C0.11811
%
T01
X02485Y0133
X02585
X0023Y01155
Y01055
X0026Y01835
Y01935
X0027Y02095
Y02195
T02
X0213744Y0138469
X01665
Y01865
X0213744
T04
X0246299Y00325
X02575Y00605
X0245799Y0091
X0148Y01285
Y01385
X0115
Y01285
X0033201Y0091
X00245Y0063
X0033701Y00325
X0115Y01855
Y0203217
X0140591
Y01855
T05
X0190122Y0130595
T06
X0252Y0159614
Y0175205
Y0190795
Y0206386
T07
X0011811Y0011811
X0263779
X0011811Y0240158
X0263779
M30
