G04 Layer_Physical_Order=2*
G04 Layer_Color=16711680*
%FSLAX25Y25*%
%MOIN*%
G70*
G01*
G75*
%ADD10C,0.11811*%
%ADD11C,0.19685*%
%ADD12C,0.03150*%
%ADD14C,0.06000*%
%ADD15C,0.06299*%
%ADD16C,0.07874*%
%ADD17C,0.07087*%
%ADD18R,0.07087X0.07087*%
%ADD19C,0.09842*%
%ADD20C,0.11811*%
G04:AMPARAMS|DCode=21|XSize=157.48mil|YSize=78.74mil|CornerRadius=19.68mil|HoleSize=0mil|Usage=FLASHONLY|Rotation=0.000|XOffset=0mil|YOffset=0mil|HoleType=Round|Shape=RoundedRectangle|*
%AMROUNDEDRECTD21*
21,1,0.15748,0.03937,0,0,0.0*
21,1,0.11811,0.07874,0,0,0.0*
1,1,0.03937,0.05905,-0.01968*
1,1,0.03937,-0.05905,-0.01968*
1,1,0.03937,-0.05905,0.01968*
1,1,0.03937,0.05905,0.01968*
%
%ADD21ROUNDEDRECTD21*%
G04:AMPARAMS|DCode=22|XSize=157.48mil|YSize=78.74mil|CornerRadius=19.68mil|HoleSize=0mil|Usage=FLASHONLY|Rotation=90.000|XOffset=0mil|YOffset=0mil|HoleType=Round|Shape=RoundedRectangle|*
%AMROUNDEDRECTD22*
21,1,0.15748,0.03937,0,0,90.0*
21,1,0.11811,0.07874,0,0,90.0*
1,1,0.03937,0.01968,0.05905*
1,1,0.03937,0.01968,-0.05905*
1,1,0.03937,-0.01968,-0.05905*
1,1,0.03937,-0.01968,0.05905*
%
%ADD22ROUNDEDRECTD22*%
%ADD23C,0.05512*%
%ADD24C,0.05000*%
%ADD25R,0.12795X0.07480*%
%ADD26R,0.03740X0.07480*%
%ADD27R,0.05118X0.05905*%
%ADD28R,0.05905X0.05118*%
%ADD29R,0.04724X0.03150*%
%ADD30R,0.03150X0.04724*%
%ADD31R,0.08268X0.06890*%
%ADD32R,0.06890X0.08268*%
%ADD33R,0.07874X0.03543*%
%ADD34R,0.03543X0.07874*%
%ADD35R,0.19685X0.19685*%
%ADD36C,0.05905*%
%ADD37C,0.03937*%
%ADD38R,0.21500X0.26500*%
G36*
X30000Y67445D02*
X30741Y66877D01*
X31603Y66520D01*
X32528Y66399D01*
X40079D01*
Y65445D01*
X48441D01*
X49921Y65445D01*
Y65445D01*
X51579Y65472D01*
Y65473D01*
X59795D01*
X60580Y65472D01*
X62945Y63579D01*
X63841Y63579D01*
X63875Y60429D01*
X60366Y56920D01*
X48998D01*
X48487Y57543D01*
X47588Y58280D01*
X46562Y58829D01*
X45449Y59167D01*
X44291Y59281D01*
X43134Y59167D01*
X42020Y58829D01*
X40995Y58280D01*
X40095Y57543D01*
X39357Y56643D01*
X38809Y55617D01*
X38471Y54504D01*
X38357Y53347D01*
X38471Y52189D01*
X38809Y51076D01*
X39357Y50050D01*
X40095Y49150D01*
X40995Y48412D01*
X42020Y47864D01*
X43134Y47526D01*
X44291Y47412D01*
X45449Y47526D01*
X46562Y47864D01*
X47588Y48412D01*
X48487Y49150D01*
X48998Y49773D01*
X54399D01*
Y27528D01*
X54520Y26603D01*
X54877Y25741D01*
X55445Y25001D01*
X60021Y20425D01*
Y2085D01*
X59399Y1574D01*
X58661Y675D01*
X58112Y-351D01*
X57774Y-1464D01*
X57660Y-2622D01*
X57774Y-3780D01*
X58112Y-4893D01*
X58661Y-5919D01*
X59399Y-6818D01*
X60298Y-7556D01*
X61324Y-8104D01*
X62437Y-8442D01*
X63595Y-8556D01*
X64752Y-8442D01*
X65865Y-8104D01*
X66868Y-7568D01*
X73513Y-7533D01*
X96536Y-30556D01*
Y-48579D01*
X91650D01*
X88500Y-48579D01*
X87314Y-45920D01*
Y-45229D01*
X87867Y-44509D01*
X88343Y-43359D01*
X88505Y-42126D01*
X88343Y-40893D01*
X87867Y-39743D01*
X87110Y-38756D01*
X86123Y-37999D01*
X84974Y-37523D01*
X83740Y-37361D01*
X82507Y-37523D01*
X81358Y-37999D01*
X80724Y-38485D01*
X80108Y-38756D01*
X77372D01*
X76756Y-38485D01*
X76123Y-37999D01*
X74973Y-37523D01*
X73740Y-37361D01*
X72507Y-37523D01*
X71358Y-37999D01*
X70371Y-38756D01*
X69613Y-39743D01*
X69137Y-40893D01*
X68975Y-42126D01*
X69137Y-43359D01*
X69613Y-44509D01*
X70166Y-45229D01*
Y-46780D01*
X68409Y-48536D01*
X62043D01*
Y-47780D01*
X59729D01*
X58303Y-45221D01*
X58303Y-44630D01*
Y-41122D01*
X58334Y-40890D01*
X58303Y-40658D01*
Y-36559D01*
X51217D01*
Y-37316D01*
X49610D01*
X48685Y-37438D01*
X47823Y-37795D01*
X47083Y-38363D01*
X47083Y-38363D01*
X42473Y-42973D01*
X42226Y-43295D01*
X42135Y-43344D01*
X41888Y-43381D01*
X40766Y-42525D01*
X39560Y-39509D01*
X40036Y-38359D01*
X40198Y-37126D01*
X40036Y-35893D01*
X39560Y-34743D01*
X38803Y-33757D01*
X37816Y-32999D01*
X36666Y-32523D01*
X35766Y-32405D01*
X32834Y-29473D01*
X32094Y-28905D01*
X31232Y-28548D01*
X30307Y-28426D01*
X25110D01*
X24878Y-28457D01*
X20779D01*
Y-30771D01*
X18221Y-32197D01*
X17630Y-32197D01*
X14122D01*
X13890Y-32166D01*
X4055D01*
Y-31079D01*
X-1850D01*
X-2893Y-31079D01*
X-3158Y-31072D01*
X-4841Y-30491D01*
X-5984Y-29557D01*
X-6537Y-29041D01*
X-6973Y-28473D01*
X-6973Y-28473D01*
X-14426Y-21020D01*
Y10020D01*
X-9473Y14973D01*
X-8905Y15713D01*
X-8548Y16575D01*
X-8426Y17500D01*
Y37598D01*
X3150D01*
Y42598D01*
Y47598D01*
Y52765D01*
X6898D01*
Y50961D01*
X17836D01*
X18828Y50961D01*
X20152Y50532D01*
X21796Y49860D01*
X22379Y49150D01*
X23278Y48412D01*
X24304Y47864D01*
X25417Y47526D01*
X26575Y47412D01*
X27733Y47526D01*
X28846Y47864D01*
X29872Y48412D01*
X30771Y49150D01*
X31509Y50050D01*
X32057Y51076D01*
X32395Y52189D01*
X32509Y53347D01*
X32395Y54504D01*
X32057Y55617D01*
X31509Y56643D01*
X30771Y57543D01*
X29872Y58280D01*
X28846Y58829D01*
X27733Y59167D01*
X26575Y59281D01*
X25417Y59167D01*
X24304Y58829D01*
X23278Y58280D01*
X22379Y57543D01*
X22252Y57388D01*
X19169Y58280D01*
X19102Y58324D01*
Y61787D01*
X6898D01*
Y59913D01*
X3150D01*
Y62598D01*
Y67765D01*
X29681D01*
X30000Y67445D01*
D02*
G37*
G36*
X-91330Y108268D02*
X-91133D01*
X-90939Y108229D01*
X85D01*
X1183Y105972D01*
X434Y105079D01*
X-8701D01*
Y97598D01*
Y92598D01*
Y87598D01*
Y82598D01*
Y77598D01*
Y72598D01*
Y67598D01*
X-8661D01*
Y62598D01*
Y57598D01*
Y54760D01*
X-9448Y54434D01*
X-10188Y53866D01*
X-14527Y49527D01*
X-15095Y48787D01*
X-15452Y47925D01*
X-15574Y47000D01*
Y18980D01*
X-20527Y14027D01*
X-21095Y13287D01*
X-21452Y12425D01*
X-21574Y11500D01*
Y-22500D01*
X-21452Y-23425D01*
X-21095Y-24287D01*
X-20527Y-25027D01*
X-14055Y-31499D01*
Y-40921D01*
X-8150D01*
X-5000Y-40921D01*
X-1092Y-40921D01*
X-101Y-42961D01*
X115Y-44071D01*
X-403Y-44747D01*
X-853Y-45834D01*
X-1007Y-47000D01*
X-853Y-48166D01*
X-403Y-49253D01*
X313Y-50187D01*
X1247Y-50903D01*
X2334Y-51354D01*
X3500Y-51507D01*
X4667Y-51354D01*
X4868Y-51270D01*
X5939Y-51979D01*
X6759Y-54124D01*
X6230Y-54926D01*
X-14520D01*
X-17926Y-51520D01*
Y-38500D01*
X-18048Y-37575D01*
X-18405Y-36713D01*
X-18973Y-35973D01*
X-32926Y-22020D01*
Y10520D01*
X-20937Y22508D01*
X-20937Y22508D01*
X-20369Y23248D01*
X-20129Y23829D01*
X-20012Y24111D01*
X-20012Y24111D01*
X-19891Y25035D01*
X-19724Y26811D01*
X-19724D01*
Y38622D01*
X-27205D01*
Y38583D01*
X-67205D01*
Y26772D01*
X-31237D01*
X-29932Y23622D01*
X-39027Y14527D01*
X-39595Y13787D01*
X-39952Y12925D01*
X-40074Y12000D01*
Y-3088D01*
X-41283Y-3902D01*
X-43224Y-4442D01*
X-43761Y-4029D01*
X-45006Y-3514D01*
X-46343Y-3338D01*
X-47679Y-3514D01*
X-48924Y-4029D01*
X-49993Y-4850D01*
X-50051Y-4926D01*
X-63020D01*
X-68973Y1027D01*
X-69173Y1181D01*
X-69601Y3628D01*
X-69533Y4856D01*
X-68142Y6192D01*
X-66799D01*
X-65982Y5686D01*
X-65573Y5372D01*
X-64328Y4856D01*
X-62992Y4680D01*
X-61656Y4856D01*
X-60411Y5372D01*
X-59342Y6192D01*
X-58521Y7261D01*
X-58006Y8506D01*
X-57830Y9843D01*
X-58006Y11179D01*
X-58521Y12424D01*
X-59342Y13493D01*
X-60411Y14313D01*
X-61656Y14829D01*
X-62992Y15005D01*
X-64328Y14829D01*
X-65573Y14313D01*
X-65982Y13999D01*
X-66799Y13493D01*
X-69186D01*
X-70002Y13999D01*
X-70411Y14313D01*
X-71656Y14829D01*
X-72992Y15005D01*
X-74328Y14829D01*
X-75573Y14313D01*
X-76642Y13493D01*
X-77463Y12424D01*
X-77978Y11179D01*
X-78154Y9843D01*
X-77978Y8506D01*
X-77463Y7261D01*
X-76642Y6192D01*
X-75573Y5372D01*
X-75215Y5223D01*
X-75841Y2074D01*
X-103993D01*
Y23500D01*
X-104146Y24268D01*
X-104581Y24919D01*
X-105232Y25354D01*
X-106000Y25507D01*
X-116352D01*
Y51513D01*
X-116272Y51642D01*
X-114031Y53366D01*
X-113418Y53614D01*
X-112500Y53493D01*
X-111334Y53646D01*
X-110247Y54097D01*
X-107150Y54350D01*
X-106081Y53529D01*
X-104836Y53014D01*
X-103500Y52838D01*
X-102164Y53014D01*
X-100919Y53529D01*
X-99850Y54350D01*
X-99029Y55419D01*
X-98514Y56664D01*
X-98338Y58000D01*
X-98514Y59336D01*
X-99029Y60581D01*
X-99343Y60990D01*
X-99552Y61326D01*
X-99217Y62779D01*
X-98294Y64426D01*
X-93500D01*
X-92575Y64548D01*
X-91713Y64905D01*
X-90973Y65473D01*
X-88228Y68217D01*
X-86418Y67862D01*
X-85039Y66952D01*
Y62598D01*
Y57598D01*
Y52598D01*
Y47598D01*
Y44912D01*
X-99667D01*
X-99850Y45150D01*
X-100919Y45971D01*
X-102164Y46486D01*
X-103500Y46662D01*
X-104836Y46486D01*
X-106081Y45971D01*
X-107150Y45150D01*
X-107971Y44081D01*
X-108486Y42836D01*
X-108662Y41500D01*
X-108486Y40164D01*
X-107971Y38919D01*
X-107150Y37850D01*
X-106081Y37029D01*
X-104836Y36514D01*
X-103500Y36338D01*
X-102164Y36514D01*
X-100919Y37029D01*
X-99961Y37765D01*
X-85039D01*
Y37598D01*
X-73228D01*
Y42598D01*
Y47598D01*
Y52598D01*
Y57598D01*
Y62598D01*
Y70079D01*
X-73268D01*
Y72598D01*
Y77598D01*
Y82598D01*
Y87598D01*
Y92598D01*
Y97598D01*
Y105079D01*
X-85079D01*
Y97598D01*
Y94912D01*
X-89661D01*
X-89661Y94912D01*
X-90586Y94791D01*
X-91448Y94434D01*
X-92309Y94638D01*
X-93779Y95356D01*
X-94488Y96020D01*
Y106019D01*
X-93760Y106925D01*
X-91339Y108269D01*
X-91330Y108268D01*
D02*
G37*
G36*
X94488Y94488D02*
X133858D01*
Y18116D01*
X130709Y16811D01*
X123993Y23527D01*
X123971Y23581D01*
X123471Y24232D01*
Y30000D01*
X123336Y31028D01*
X122939Y31986D01*
X122308Y32808D01*
X116808Y38308D01*
X115986Y38939D01*
X115028Y39336D01*
X114000Y39471D01*
X111055D01*
Y40421D01*
X105150D01*
X102000Y40421D01*
X98850Y40421D01*
X92945D01*
Y39522D01*
X81326D01*
X81123Y39678D01*
X79974Y40154D01*
X78740Y40316D01*
X77507Y40154D01*
X76358Y39678D01*
X75371Y38921D01*
X74613Y37934D01*
X74137Y36784D01*
X73975Y35551D01*
X74137Y34318D01*
X74613Y33169D01*
X75371Y32182D01*
X76358Y31424D01*
X77507Y30948D01*
X78740Y30786D01*
X79974Y30948D01*
X81123Y31424D01*
X81326Y31580D01*
X92945D01*
Y30579D01*
X98850D01*
X102000Y30579D01*
X105150Y30579D01*
X111055D01*
Y30579D01*
X113941Y29943D01*
X115529Y28355D01*
Y24232D01*
X115029Y23581D01*
X114514Y22336D01*
X114338Y21000D01*
X114514Y19664D01*
X115029Y18419D01*
X115850Y17350D01*
X116919Y16529D01*
X116973Y16507D01*
X124536Y8944D01*
Y-19687D01*
X123507Y-20562D01*
X121387Y-21486D01*
X120836Y-21258D01*
X119500Y-21082D01*
X118164Y-21258D01*
X116919Y-21773D01*
X115850Y-22594D01*
X115029Y-23663D01*
X114514Y-24908D01*
X114338Y-26244D01*
X114514Y-27580D01*
X115029Y-28825D01*
X115850Y-29894D01*
X116919Y-30715D01*
X118164Y-31231D01*
X119500Y-31406D01*
X120836Y-31231D01*
X121387Y-31002D01*
X123507Y-31926D01*
X124536Y-32801D01*
Y-79944D01*
X117094Y-87387D01*
X111929D01*
X111145Y-86744D01*
X109949Y-86104D01*
X108650Y-85710D01*
X107299Y-85577D01*
X105949Y-85710D01*
X104650Y-86104D01*
X103453Y-86744D01*
X102404Y-87605D01*
X101543Y-88654D01*
X100903Y-89851D01*
X100509Y-91149D01*
X100376Y-92500D01*
X97550Y-94488D01*
X94488D01*
Y-133858D01*
X-94488D01*
Y-94488D01*
X-133858D01*
Y94488D01*
X-96020D01*
X-94716Y91339D01*
X-97027Y89027D01*
X-97595Y88287D01*
X-97952Y87425D01*
X-98074Y86500D01*
Y84258D01*
X-100025Y83032D01*
X-101224Y82597D01*
X-102164Y82986D01*
X-103500Y83162D01*
X-104836Y82986D01*
X-106081Y82471D01*
X-107150Y81650D01*
X-107971Y80581D01*
X-108486Y79336D01*
X-108662Y78000D01*
X-108486Y76664D01*
X-107971Y75419D01*
X-107657Y75010D01*
X-107150Y74194D01*
Y71806D01*
X-107657Y70990D01*
X-107971Y70581D01*
X-108486Y69336D01*
X-108662Y68000D01*
X-108486Y66664D01*
X-107971Y65419D01*
X-109019Y63203D01*
X-110911Y62179D01*
X-111334Y62353D01*
X-112500Y62507D01*
X-113666Y62353D01*
X-114753Y61903D01*
X-115183Y61574D01*
X-116500D01*
X-117425Y61452D01*
X-118287Y61095D01*
X-119027Y60527D01*
X-122453Y57101D01*
X-123021Y56361D01*
X-123378Y55499D01*
X-123500Y54574D01*
Y25507D01*
X-127500D01*
X-128268Y25354D01*
X-128919Y24919D01*
X-129354Y24268D01*
X-129507Y23500D01*
Y-1802D01*
X-129894Y-4791D01*
X-129894D01*
Y-16209D01*
X-129629D01*
Y-19760D01*
X-129507Y-20685D01*
X-129150Y-21547D01*
X-128582Y-22287D01*
X-123200Y-27669D01*
X-123290Y-27964D01*
X-123423Y-29315D01*
X-123290Y-30666D01*
X-122896Y-31964D01*
X-122256Y-33161D01*
X-121395Y-34210D01*
X-120346Y-35071D01*
X-119149Y-35711D01*
X-117851Y-36105D01*
X-116500Y-36238D01*
X-115149Y-36105D01*
X-113851Y-35711D01*
X-112654Y-35071D01*
X-111605Y-34210D01*
X-110744Y-33161D01*
X-110580Y-32854D01*
X-109917Y-32767D01*
X-109056Y-32410D01*
X-108315Y-31842D01*
X-103895Y-27421D01*
X-99500D01*
Y-17579D01*
X-108555D01*
Y-21973D01*
X-111030Y-24448D01*
X-111605Y-24420D01*
X-112654Y-23559D01*
X-113851Y-22919D01*
X-115149Y-22525D01*
X-116500Y-22392D01*
X-117851Y-22525D01*
X-118146Y-22614D01*
X-121641Y-19120D01*
X-121704Y-18802D01*
X-120098Y-16209D01*
X-118532D01*
X-117925Y-16460D01*
X-117000Y-16582D01*
X-116075Y-16460D01*
X-115468Y-16209D01*
X-113161D01*
Y-5074D01*
X-72980D01*
X-67027Y-11027D01*
X-67027Y-11027D01*
X-66287Y-11595D01*
X-65425Y-11952D01*
X-64500Y-12074D01*
X-50051D01*
X-49993Y-12150D01*
X-48924Y-12971D01*
X-47679Y-13486D01*
X-46343Y-13662D01*
X-45006Y-13486D01*
X-43761Y-12971D01*
X-43224Y-12558D01*
X-41283Y-13098D01*
X-40074Y-13912D01*
Y-23500D01*
X-39952Y-24425D01*
X-39595Y-25287D01*
X-39027Y-26027D01*
X-25074Y-39980D01*
Y-53000D01*
X-24952Y-53925D01*
X-24595Y-54787D01*
X-24027Y-55527D01*
X-18527Y-61027D01*
X-18527Y-61027D01*
X-17787Y-61595D01*
X-16925Y-61952D01*
X-16000Y-62074D01*
X8445D01*
Y-63421D01*
X14350D01*
X17500Y-63421D01*
X20650Y-63421D01*
X26555D01*
Y-62074D01*
X41500D01*
X42425Y-61952D01*
X43287Y-61595D01*
X44027Y-61027D01*
X47527Y-57527D01*
X48095Y-56787D01*
X48452Y-55925D01*
X48574Y-55000D01*
X48574Y-55000D01*
Y-47719D01*
X51187Y-45686D01*
X54077Y-46200D01*
X54957Y-47780D01*
X54957Y-48370D01*
Y-51878D01*
X54926Y-52110D01*
X54957Y-52342D01*
Y-56441D01*
X62043D01*
Y-55684D01*
X69890D01*
X70815Y-55562D01*
X71677Y-55205D01*
X72417Y-54637D01*
X76267Y-50787D01*
X76295Y-50750D01*
X79439Y-51549D01*
X79445Y-51552D01*
Y-58421D01*
X85350D01*
X88500Y-58421D01*
X91650Y-58421D01*
X96536D01*
Y-61944D01*
X86444Y-72036D01*
X-41944D01*
X-46909Y-67071D01*
X-45605Y-63921D01*
X-43150D01*
X-40000Y-63921D01*
X-36850Y-63921D01*
X-30945D01*
Y-54079D01*
X-31859D01*
Y-50229D01*
X-31306Y-49509D01*
X-30830Y-48359D01*
X-30668Y-47126D01*
X-30830Y-45893D01*
X-31306Y-44743D01*
X-32064Y-43756D01*
X-33051Y-42999D01*
X-34200Y-42523D01*
X-35433Y-42361D01*
X-36666Y-42523D01*
X-37816Y-42999D01*
X-38803Y-43756D01*
X-39560Y-44743D01*
X-40036Y-45893D01*
X-40198Y-47126D01*
X-40036Y-48359D01*
X-39560Y-49509D01*
X-39007Y-50229D01*
Y-51341D01*
X-40000Y-54079D01*
X-43150Y-54079D01*
X-48536D01*
Y-45000D01*
X-48705Y-43715D01*
X-49201Y-42518D01*
X-49990Y-41490D01*
X-57990Y-33490D01*
X-59018Y-32701D01*
X-60215Y-32205D01*
X-61500Y-32036D01*
X-86500D01*
X-87785Y-32205D01*
X-88982Y-32701D01*
X-90285Y-33410D01*
X-91680Y-33003D01*
X-92503Y-32372D01*
X-93460Y-31975D01*
X-94488Y-31840D01*
X-98425D01*
X-99453Y-31975D01*
X-100411Y-32372D01*
X-101233Y-33003D01*
X-101864Y-33825D01*
X-102261Y-34783D01*
X-102396Y-35811D01*
Y-37835D01*
X-102744Y-37881D01*
X-103702Y-38278D01*
X-104524Y-38909D01*
X-110808Y-45192D01*
X-111439Y-46014D01*
X-111836Y-46972D01*
X-111971Y-48000D01*
Y-59794D01*
X-112444Y-60421D01*
X-114624Y-62054D01*
X-115149Y-61895D01*
X-116500Y-61762D01*
X-117851Y-61895D01*
X-119149Y-62289D01*
X-120346Y-62929D01*
X-121395Y-63790D01*
X-122256Y-64839D01*
X-122896Y-66036D01*
X-123290Y-67334D01*
X-123423Y-68685D01*
X-123290Y-70036D01*
X-122896Y-71334D01*
X-122256Y-72531D01*
X-121395Y-73580D01*
X-120346Y-74441D01*
X-119149Y-75081D01*
X-117851Y-75475D01*
X-116500Y-75608D01*
X-115149Y-75475D01*
X-113851Y-75081D01*
X-112654Y-74441D01*
X-111605Y-73580D01*
X-110744Y-72531D01*
X-110571Y-72208D01*
X-107421Y-72997D01*
Y-73000D01*
X-97579D01*
Y-63945D01*
X-101045D01*
X-104029Y-62500D01*
Y-51960D01*
X-102318Y-51024D01*
X-100879Y-50701D01*
X-100411Y-51061D01*
X-99453Y-51458D01*
X-98425Y-51593D01*
X-94488D01*
X-93460Y-51458D01*
X-92503Y-51061D01*
X-91680Y-50430D01*
X-91049Y-49608D01*
X-90653Y-48650D01*
X-90517Y-47622D01*
Y-46588D01*
X-89932Y-46511D01*
X-88735Y-46015D01*
X-87707Y-45226D01*
X-84444Y-41964D01*
X-63556D01*
X-58464Y-47056D01*
Y-58638D01*
X-58511Y-59000D01*
X-58464Y-59362D01*
Y-67500D01*
X-58295Y-68785D01*
X-57799Y-69982D01*
X-57010Y-71010D01*
X-47510Y-80510D01*
X-46482Y-81299D01*
X-45285Y-81795D01*
X-44000Y-81964D01*
X88500D01*
X89785Y-81795D01*
X90982Y-81299D01*
X92010Y-80510D01*
X105010Y-67510D01*
X105799Y-66482D01*
X106295Y-65285D01*
X106464Y-64000D01*
Y-53000D01*
Y-28500D01*
X106295Y-27215D01*
X105799Y-26018D01*
X105010Y-24990D01*
X79068Y952D01*
X79058Y960D01*
X79049Y970D01*
X78544Y1354D01*
X78040Y1740D01*
X78028Y1746D01*
X78017Y1754D01*
X77430Y1993D01*
X76843Y2236D01*
X76830Y2238D01*
X76817Y2243D01*
X76187Y2323D01*
X75558Y2405D01*
X75545Y2404D01*
X75532Y2405D01*
X69401Y2373D01*
X67168Y4594D01*
Y13977D01*
X67352Y14249D01*
X70075Y15977D01*
X70318Y15989D01*
X71469Y15838D01*
X72805Y16014D01*
X74050Y16529D01*
X75119Y17350D01*
X75939Y18419D01*
X76455Y19664D01*
X76631Y21000D01*
X76455Y22336D01*
X75939Y23581D01*
X75119Y24650D01*
X74050Y25471D01*
X72805Y25986D01*
X71469Y26162D01*
X70132Y25986D01*
X68887Y25471D01*
X67818Y24650D01*
X65008Y25547D01*
X61546Y29008D01*
Y49773D01*
X61847D01*
X62771Y49894D01*
X63633Y50251D01*
X64374Y50819D01*
X69999Y56445D01*
X70568Y57186D01*
X70925Y58047D01*
X71046Y58972D01*
X71046Y58973D01*
Y60824D01*
X72000Y63579D01*
X75150Y63579D01*
X81055D01*
Y70941D01*
X81055Y73421D01*
X81055D01*
X81028Y74079D01*
X81028D01*
Y83921D01*
X75122D01*
X71973Y83921D01*
X68823Y83921D01*
X64431D01*
X62917Y83921D01*
X62917Y83921D01*
X61421Y83583D01*
Y83583D01*
X51579D01*
X51579Y76963D01*
X49930Y74513D01*
X48441Y74500D01*
X40079D01*
Y73546D01*
X34008D01*
X33689Y73866D01*
X32948Y74434D01*
X32086Y74791D01*
X31161Y74913D01*
X3110D01*
Y77598D01*
Y82598D01*
Y87598D01*
Y92765D01*
X12839D01*
X13764Y92887D01*
X13793Y92899D01*
X17079D01*
Y91945D01*
X25452D01*
X26921Y91945D01*
Y91945D01*
X28579Y92000D01*
Y92000D01*
X38421D01*
Y92954D01*
X41592D01*
X42009Y92446D01*
X42908Y91708D01*
X43934Y91159D01*
X45047Y90822D01*
X46205Y90708D01*
X47362Y90822D01*
X48476Y91159D01*
X49501Y91708D01*
X50401Y92446D01*
X51139Y93345D01*
X51687Y94371D01*
X52025Y95484D01*
X52139Y96642D01*
X52025Y97799D01*
X51687Y98913D01*
X51139Y99938D01*
X50401Y100838D01*
X49501Y101576D01*
X48476Y102124D01*
X47362Y102462D01*
X46205Y102576D01*
X45047Y102462D01*
X43934Y102124D01*
X42908Y101576D01*
X42009Y100838D01*
X38680Y100798D01*
X38421Y101055D01*
Y101055D01*
X30048D01*
X28579Y101055D01*
X26921Y103518D01*
Y110055D01*
X26921D01*
Y111445D01*
X26921D01*
Y120500D01*
X17755D01*
Y133858D01*
X94488D01*
Y94488D01*
D02*
G37*
%LPC*%
G36*
X37000Y-14441D02*
X35561Y-14630D01*
X34220Y-15186D01*
X33069Y-16069D01*
X32185Y-17220D01*
X31630Y-18561D01*
X31441Y-20000D01*
X31630Y-21439D01*
X32185Y-22780D01*
X33069Y-23931D01*
X34220Y-24814D01*
X35561Y-25370D01*
X37000Y-25559D01*
X38339Y-25383D01*
X38528Y-25374D01*
X41488Y-25512D01*
Y-25512D01*
X52512D01*
Y-23971D01*
X63580D01*
X66375Y-26766D01*
X66482Y-27580D01*
X66998Y-28825D01*
X67818Y-29894D01*
X68887Y-30715D01*
X70132Y-31231D01*
X71469Y-31406D01*
X72805Y-31231D01*
X74050Y-30715D01*
X75119Y-29894D01*
X75939Y-28825D01*
X76455Y-27580D01*
X76631Y-26244D01*
X76455Y-24908D01*
X75939Y-23663D01*
X75119Y-22594D01*
X74050Y-21773D01*
X72805Y-21258D01*
X71991Y-21151D01*
X68032Y-17192D01*
X67210Y-16561D01*
X66252Y-16164D01*
X65224Y-16029D01*
X52512D01*
Y-14488D01*
X41488D01*
X41488Y-14488D01*
X38528Y-14626D01*
X38339Y-14617D01*
X37000Y-14441D01*
D02*
G37*
G36*
X26575Y33690D02*
X25417Y33576D01*
X24304Y33238D01*
X23278Y32690D01*
X22379Y31952D01*
X21641Y31053D01*
X21092Y30027D01*
X20755Y28914D01*
X20641Y27756D01*
X20755Y26598D01*
X21092Y25485D01*
X21641Y24459D01*
X22379Y23560D01*
X23278Y22822D01*
X24304Y22274D01*
X25417Y21936D01*
X26575Y21822D01*
X27733Y21936D01*
X28846Y22274D01*
X29872Y22822D01*
X30771Y23560D01*
X31509Y24459D01*
X32057Y25485D01*
X32395Y26598D01*
X32509Y27756D01*
X32395Y28914D01*
X32057Y30027D01*
X31509Y31053D01*
X30771Y31952D01*
X29872Y32690D01*
X28846Y33238D01*
X27733Y33576D01*
X26575Y33690D01*
D02*
G37*
G36*
X19102Y46039D02*
X6898D01*
Y35213D01*
X9426D01*
Y31597D01*
X6277Y30740D01*
X6044Y31044D01*
X5006Y31840D01*
X3797Y32341D01*
X2500Y32511D01*
X1203Y32341D01*
X-6Y31840D01*
X-1044Y31044D01*
X-1840Y30006D01*
X-2341Y28797D01*
X-2511Y27500D01*
X-2341Y26203D01*
X-1840Y24994D01*
X-1074Y23996D01*
Y18555D01*
X-2421D01*
Y12650D01*
X-2421Y9500D01*
X-2421Y6350D01*
Y445D01*
X-1074D01*
Y-2898D01*
X-2787D01*
Y-15102D01*
X8039D01*
Y-2898D01*
X6074D01*
Y445D01*
X7421D01*
Y6276D01*
X10179Y7358D01*
X10571Y7375D01*
X16473Y1473D01*
X17203Y913D01*
X17213Y905D01*
X17485Y252D01*
X15571Y-2728D01*
X15186Y-2898D01*
X12961D01*
Y-15102D01*
X23787D01*
Y-12470D01*
X23925Y-12452D01*
X24787Y-12095D01*
X25527Y-11527D01*
X27527Y-9527D01*
X28095Y-8787D01*
X28452Y-7925D01*
X28574Y-7000D01*
X28574Y-7000D01*
Y-555D01*
X29921D01*
Y5350D01*
X29921Y8500D01*
X32840Y9057D01*
X33085D01*
X34220Y8185D01*
X35561Y7630D01*
X37000Y7441D01*
X38439Y7630D01*
X39780Y8185D01*
X40931Y9069D01*
X41815Y10220D01*
X42370Y11561D01*
X42559Y13000D01*
X42370Y14439D01*
X41815Y15780D01*
X40931Y16931D01*
X39780Y17815D01*
X38439Y18370D01*
X37000Y18559D01*
X35561Y18370D01*
X34220Y17815D01*
X33157Y16998D01*
X29921D01*
Y17555D01*
X20079D01*
Y15833D01*
X16929Y14150D01*
X16574Y14387D01*
Y35213D01*
X19102D01*
Y46039D01*
D02*
G37*
G36*
X44291Y33690D02*
X43134Y33576D01*
X42020Y33238D01*
X40995Y32690D01*
X40095Y31952D01*
X39357Y31053D01*
X38809Y30027D01*
X38471Y28914D01*
X38357Y27756D01*
X38471Y26598D01*
X38809Y25485D01*
X39357Y24459D01*
X40095Y23560D01*
X40995Y22822D01*
X42020Y22274D01*
X43134Y21936D01*
X44291Y21822D01*
X45449Y21936D01*
X46562Y22274D01*
X47588Y22822D01*
X48487Y23560D01*
X49225Y24459D01*
X49774Y25485D01*
X50111Y26598D01*
X50225Y27756D01*
X50111Y28914D01*
X49774Y30027D01*
X49225Y31053D01*
X48487Y31952D01*
X47588Y32690D01*
X46562Y33238D01*
X45449Y33576D01*
X44291Y33690D01*
D02*
G37*
G36*
X-78740Y-8804D02*
X-80284Y-8957D01*
X-81768Y-9407D01*
X-83136Y-10138D01*
X-84335Y-11122D01*
X-85319Y-12321D01*
X-86050Y-13689D01*
X-86500Y-15173D01*
X-86652Y-16716D01*
X-86500Y-18260D01*
X-86050Y-19744D01*
X-85319Y-21112D01*
X-84335Y-22311D01*
X-83136Y-23295D01*
X-81768Y-24026D01*
X-80284Y-24477D01*
X-78740Y-24629D01*
X-77197Y-24477D01*
X-75712Y-24026D01*
X-74344Y-23295D01*
X-73146Y-22311D01*
X-72162Y-21112D01*
X-71430Y-19744D01*
X-70980Y-18260D01*
X-70828Y-16716D01*
X-70980Y-15173D01*
X-71430Y-13689D01*
X-72162Y-12321D01*
X-73146Y-11122D01*
X-74344Y-10138D01*
X-75712Y-9407D01*
X-77197Y-8957D01*
X-78740Y-8804D01*
D02*
G37*
G36*
X-79240Y-69304D02*
X-80784Y-69456D01*
X-82268Y-69907D01*
X-83636Y-70638D01*
X-84835Y-71622D01*
X-85819Y-72821D01*
X-86550Y-74189D01*
X-87000Y-75673D01*
X-87152Y-77217D01*
X-87000Y-78760D01*
X-86550Y-80244D01*
X-85819Y-81612D01*
X-84835Y-82811D01*
X-83636Y-83795D01*
X-82268Y-84526D01*
X-80784Y-84977D01*
X-79240Y-85129D01*
X-77697Y-84977D01*
X-76212Y-84526D01*
X-74844Y-83795D01*
X-73646Y-82811D01*
X-72662Y-81612D01*
X-71930Y-80244D01*
X-71480Y-78760D01*
X-71328Y-77217D01*
X-71480Y-75673D01*
X-71930Y-74189D01*
X-72662Y-72821D01*
X-73646Y-71622D01*
X-74844Y-70638D01*
X-76212Y-69907D01*
X-77697Y-69456D01*
X-79240Y-69304D01*
D02*
G37*
G36*
X71795Y102576D02*
X70638Y102462D01*
X69524Y102124D01*
X68498Y101576D01*
X67599Y100838D01*
X66861Y99938D01*
X66313Y98913D01*
X65975Y97799D01*
X65861Y96642D01*
X65975Y95484D01*
X66313Y94371D01*
X66861Y93345D01*
X67599Y92446D01*
X68498Y91708D01*
X69524Y91159D01*
X70638Y90822D01*
X71795Y90708D01*
X72953Y90822D01*
X74066Y91159D01*
X75092Y91708D01*
X75991Y92446D01*
X76729Y93345D01*
X77278Y94371D01*
X77615Y95484D01*
X77729Y96642D01*
X77615Y97799D01*
X77278Y98913D01*
X76729Y99938D01*
X75991Y100838D01*
X75092Y101576D01*
X74066Y102124D01*
X72953Y102462D01*
X71795Y102576D01*
D02*
G37*
%LPD*%
D10*
X-118110Y88583D02*
G03*
X-93058Y102481I0J29528D01*
G01*
X95312Y-99345D02*
G03*
X88583Y-118110I22798J-18765D01*
G01*
X-88583D02*
G03*
X-118110Y-88583I-29528J0D01*
G01*
X88583Y118110D02*
G03*
X118110Y88583I29528J0D01*
G01*
D11*
X-118110Y118110D02*
D03*
X118110D02*
D03*
Y-118110D02*
D03*
X-118110D02*
D03*
D12*
X-110843Y-29315D02*
X-104028Y-22500D01*
X-116500Y-29315D02*
X-110843D01*
X-126055Y-19760D02*
X-116500Y-29315D01*
X-126055Y-19760D02*
Y-10500D01*
X-104500Y41500D02*
X-103500D01*
X-103339Y41339D01*
X-79134D01*
X-116500Y58000D02*
X-112500D01*
X-119926Y54574D02*
X-116500Y58000D01*
X-119926Y18926D02*
Y54574D01*
Y18926D02*
X-117000Y16000D01*
X-35472Y-59000D02*
X-35433Y-58961D01*
Y-47126D01*
X12972Y-47000D02*
X13000D01*
X3500D02*
X12972D01*
X2500Y14028D02*
Y27500D01*
X19000Y4000D02*
X24972D01*
X13000Y10000D02*
X19000Y4000D01*
X101000Y-53500D02*
X101500Y-53000D01*
X93028Y-53500D02*
X101000D01*
X83740Y-53268D02*
X83972Y-53500D01*
X83740Y-53268D02*
Y-42126D01*
X63595Y-2622D02*
Y21905D01*
X57972Y27528D02*
X63595Y21905D01*
X57972Y27528D02*
Y53347D01*
X63595Y21905D02*
X64500Y21000D01*
X71469D01*
X-9500Y-36000D02*
Y-31000D01*
X-18000Y-22500D02*
X-9500Y-31000D01*
X-18000Y-22500D02*
Y11500D01*
X13000Y10000D02*
Y40626D01*
X2500Y-9000D02*
Y4972D01*
X19000Y-9000D02*
X23000D01*
X25000Y-7000D01*
X0Y-35740D02*
X13890D01*
X30307Y-32000D02*
X35433Y-37126D01*
X25110Y-32000D02*
X30307D01*
X-21500Y-53000D02*
Y-38500D01*
Y-53000D02*
X-16000Y-58500D01*
X12972D01*
X-36500Y-23500D02*
X-21500Y-38500D01*
X-36500Y-23500D02*
Y12000D01*
X-18000Y11500D02*
X-12000Y17500D01*
X-89661Y91339D02*
X-79173D01*
X-94500Y86500D02*
X-89661Y91339D01*
X-94500Y80500D02*
Y86500D01*
X-97000Y78000D02*
X-94500Y80500D01*
X-88000Y85000D02*
X-86661Y86339D01*
X-88000Y73500D02*
Y85000D01*
X-93500Y68000D02*
X-88000Y73500D01*
X-103500Y78000D02*
X-97000D01*
X-103500Y68000D02*
X-93500D01*
X-86661Y86339D02*
X-79173D01*
X-2795Y101339D02*
X6339D01*
X-2795Y96339D02*
X12839D01*
X12972Y96472D02*
X22000D01*
X12839Y96339D02*
X12972Y96472D01*
X-2795Y71339D02*
X31161D01*
X-23465Y25035D02*
Y32717D01*
X-36500Y12000D02*
X-23465Y25035D01*
X-12000Y17500D02*
Y47000D01*
X12965Y56339D02*
X13000Y56374D01*
X-2756Y56339D02*
X12965D01*
X-7661Y51339D02*
X-2756D01*
X-12000Y47000D02*
X-7661Y51339D01*
X22028Y-58500D02*
X41500D01*
X-117000Y-13008D02*
Y16000D01*
X-71500Y-1500D02*
X-64500Y-8500D01*
X-117000Y-1500D02*
X-71500D01*
X6339Y101339D02*
X10528Y105528D01*
X31161Y71339D02*
X32528Y69972D01*
X-16500Y-76000D02*
X-15500Y-77000D01*
X73740Y-48260D02*
Y-42126D01*
X69890Y-52110D02*
X73740Y-48260D01*
X-64500Y-8500D02*
X-46343D01*
X25000Y-7000D02*
Y3972D01*
X32528Y69972D02*
X56500D01*
X67472Y58972D02*
Y68500D01*
X61847Y53347D02*
X67472Y58972D01*
X44291Y53347D02*
X61847D01*
X67390Y79055D02*
X67445Y79000D01*
X56500Y79055D02*
X67390D01*
X10528Y105528D02*
X22000D01*
X33055Y96472D02*
X33445D01*
X22000D02*
X33055D01*
X33445D02*
X33500Y96528D01*
X76500Y68528D02*
X76528Y68500D01*
X76500Y68528D02*
Y79000D01*
X58500Y-52110D02*
X69890D01*
X49610Y-40890D02*
X54760D01*
X45000Y-45500D02*
X49610Y-40890D01*
X45000Y-55000D02*
Y-45500D01*
X41500Y-58500D02*
X45000Y-55000D01*
X22000Y105528D02*
Y115972D01*
X33500Y96528D02*
X46091D01*
D14*
X-96457Y-41717D02*
D03*
Y-40154D02*
D03*
Y-38185D02*
D03*
Y-44091D02*
D03*
Y-46059D02*
D03*
X-75740Y-51717D02*
D03*
X-74177D02*
D03*
X-72209D02*
D03*
X-78114D02*
D03*
X-80083D02*
D03*
X-88583Y-64217D02*
D03*
X-86614D02*
D03*
X-80709D02*
D03*
X-82677D02*
D03*
X-84240D02*
D03*
X-93500Y21000D02*
D03*
X-125000Y84000D02*
D03*
X109500Y76500D02*
D03*
X-53500Y-59000D02*
D03*
X2500Y27500D02*
D03*
D15*
X-46343Y-8500D02*
D03*
X-26658D02*
D03*
X-82992Y9843D02*
D03*
X-62992D02*
D03*
X-72992D02*
D03*
X-92992D02*
D03*
X119500Y21000D02*
D03*
Y-26244D02*
D03*
X71469Y21000D02*
D03*
Y-26244D02*
D03*
X-103500Y88000D02*
D03*
Y68000D02*
D03*
Y58000D02*
D03*
Y78000D02*
D03*
Y31500D02*
D03*
Y41500D02*
D03*
D16*
X63595Y-2622D02*
D03*
X44291Y53347D02*
D03*
Y27756D02*
D03*
X26575Y53347D02*
D03*
Y27756D02*
D03*
X46205Y96642D02*
D03*
X71795D02*
D03*
X46205Y114358D02*
D03*
X71795D02*
D03*
D17*
X37000Y13000D02*
D03*
X47000D02*
D03*
X37000Y-20000D02*
D03*
D18*
X47000D02*
D03*
D19*
X-116500Y-68685D02*
D03*
Y-29315D02*
D03*
X-105299Y-92500D02*
D03*
X107299D02*
D03*
D20*
X-79240Y-77217D02*
D03*
X-78740Y-16716D02*
D03*
D21*
X-84240Y-64217D02*
D03*
X-75740Y-51717D02*
D03*
D22*
X-96457Y-41717D02*
D03*
D23*
X78740Y45551D02*
D03*
Y35551D02*
D03*
X35433Y-37126D02*
D03*
Y-47126D02*
D03*
X83740Y-42126D02*
D03*
X73740D02*
D03*
X-35433Y-37126D02*
D03*
Y-47126D02*
D03*
D24*
X3500Y-47000D02*
D03*
X10528Y105528D02*
D03*
X-112500Y58000D02*
D03*
D25*
X-117000Y13516D02*
D03*
D26*
X-126055Y-10500D02*
D03*
X-117000D02*
D03*
X-107945D02*
D03*
D27*
X22028Y-58500D02*
D03*
X12972D02*
D03*
X-9528Y-36000D02*
D03*
X-472D02*
D03*
X12972Y-47000D02*
D03*
X22028D02*
D03*
X93028Y-53500D02*
D03*
X83972D02*
D03*
X67472Y68500D02*
D03*
X76528D02*
D03*
X106528Y35500D02*
D03*
X97472D02*
D03*
X-35472Y-59000D02*
D03*
X-44528D02*
D03*
X67445Y79000D02*
D03*
X76500D02*
D03*
X-104028Y-22500D02*
D03*
X-94972D02*
D03*
D28*
X25000Y3972D02*
D03*
Y13028D02*
D03*
X2500Y14028D02*
D03*
Y4972D02*
D03*
X22000Y96472D02*
D03*
Y105528D02*
D03*
Y115972D02*
D03*
Y125028D02*
D03*
X33500Y96528D02*
D03*
Y87472D02*
D03*
X45000Y79028D02*
D03*
Y69972D02*
D03*
X56500Y70000D02*
D03*
Y79055D02*
D03*
X-102500Y-68472D02*
D03*
Y-77528D02*
D03*
D29*
X25110Y-32000D02*
D03*
X13890Y-28260D02*
D03*
Y-35740D02*
D03*
D30*
X58500Y-52110D02*
D03*
X62240Y-40890D02*
D03*
X54760D02*
D03*
D31*
X13000Y56374D02*
D03*
Y40626D02*
D03*
D32*
X2626Y-9000D02*
D03*
X18374D02*
D03*
D33*
X-79173Y106339D02*
D03*
Y101339D02*
D03*
Y96339D02*
D03*
Y91339D02*
D03*
Y71339D02*
D03*
Y76339D02*
D03*
Y81339D02*
D03*
Y86339D02*
D03*
X-79134Y46339D02*
D03*
Y41339D02*
D03*
Y51339D02*
D03*
Y56339D02*
D03*
Y61339D02*
D03*
Y66339D02*
D03*
X-2756D02*
D03*
Y61339D02*
D03*
Y56339D02*
D03*
Y51339D02*
D03*
Y41339D02*
D03*
Y46339D02*
D03*
X-2795Y86339D02*
D03*
Y81339D02*
D03*
Y76339D02*
D03*
Y71339D02*
D03*
Y91339D02*
D03*
Y96339D02*
D03*
Y101339D02*
D03*
Y106339D02*
D03*
D34*
X-63465Y32677D02*
D03*
X-58465D02*
D03*
X-53465D02*
D03*
X-48465D02*
D03*
X-28465D02*
D03*
X-33465D02*
D03*
X-38465D02*
D03*
X-43465D02*
D03*
X-18465Y32717D02*
D03*
X-23465D02*
D03*
D35*
X-40157Y79134D02*
D03*
D36*
X-53500Y-59000D02*
Y-45000D01*
Y-67500D02*
Y-59000D01*
X-61500Y-37000D02*
X-53500Y-45000D01*
Y-67500D02*
X-44000Y-77000D01*
X101500Y-64000D02*
Y-53000D01*
X88500Y-77000D02*
X101500Y-64000D01*
X-15500Y-77000D02*
X88500D01*
X101500Y-53000D02*
Y-28500D01*
X75558Y-2558D02*
X101500Y-28500D01*
X63595Y-2622D02*
X75558Y-2558D01*
X-44000Y-77000D02*
X-15500D01*
X-86500Y-37000D02*
X-61500D01*
X-91216Y-41717D02*
X-86500Y-37000D01*
X-96457Y-41717D02*
X-91216D01*
X129500Y-82000D02*
Y11000D01*
X119150Y-92350D02*
X129500Y-82000D01*
X107150Y-92350D02*
X119150D01*
X119500Y21000D02*
X129500Y11000D01*
D37*
X-53500Y-59000D02*
X-44528D01*
X-116500Y-68685D02*
X-114185D01*
X-101716Y-41717D02*
X-96457D01*
X-108000Y-48000D02*
X-101716Y-41717D01*
X-108000Y-62500D02*
Y-48000D01*
X-114185Y-68685D02*
X-108000Y-62500D01*
X33055Y96472D02*
X33500Y96028D01*
X22028Y-47000D02*
X35307D01*
X35433Y-47126D01*
X65224Y-20000D02*
X71469Y-26244D01*
X37000Y-20000D02*
X47000D01*
X65224D01*
X25000Y13028D02*
X36972D01*
X37000Y13000D01*
X119500Y21000D02*
Y30000D01*
X106528Y35500D02*
X114000D01*
X119500Y30000D01*
X78740Y35551D02*
X97421D01*
X97472Y35500D01*
D38*
X-116750Y10250D02*
D03*
M02*
