M48
;Layer_Color=9474304
;FILE_FORMAT=2:5
INCH,LZ
;TYPE=PLATED
T1F00S00C0.02362
T2F00S00C0.03150
T4F00S00C0.03937
T5F00S00C0.04724
T6F00S00C0.07874
T7F00S00C0.19685
%
T01
X008374Y-0042126
X007374
X0035433Y-0037126
Y-0047126
X00035Y-0047
X-0035433Y-0047126
Y-0037126
X-00535Y-0059
X00025Y00275
X007874Y0035551
Y0045551
X-00935Y0021
X-01125Y0058
X-0125Y0084
X0010528Y0105528
X01095Y00765
T02
X01195Y-0026244
Y0021
X0071469
Y-0026244
X-0026658Y-00085
X-0046343
X-0072209Y-0051717
X-0074177
X-007574
X-0078114
X-0080083
X-0080709Y-0064217
X-0082677
X-008424
X-0086614
X-0088583
X-0096457Y-0046059
Y-0044091
Y-0041717
Y-0040154
Y-0038185
T04
X-0105299Y-00925
X0107299
X0047Y-002
X0037
Y0013
X0047
X0044291Y0027756
X0026575
Y0053347
X0044291
X-0062992Y0009843
X-0072992
X-0082992
X-0092992
X-01035Y00315
Y00415
Y0058
Y0068
Y0078
Y0088
X0046205Y0096642
Y0114358
X0071795
Y0096642
T05
X0063595Y-0002622
X-01165Y-0029315
Y-0068685
T06
X-007924Y-0077217
X-007874Y-0016716
T07
X-011811Y-011811
X011811
X-011811Y011811
X011811
M30
