G04 Layer_Physical_Order=1*
G04 Layer_Color=2232046*
%FSLAX25Y25*%
%MOIN*%
G70*
G01*
G75*
%ADD10C,0.11811*%
%ADD11C,0.19685*%
%ADD12C,0.03150*%
%ADD13C,0.04724*%
%ADD14C,0.06000*%
%ADD15C,0.06299*%
%ADD16C,0.07874*%
%ADD17C,0.07087*%
%ADD18R,0.07087X0.07087*%
%ADD19C,0.09842*%
%ADD20C,0.11811*%
G04:AMPARAMS|DCode=21|XSize=157.48mil|YSize=78.74mil|CornerRadius=19.68mil|HoleSize=0mil|Usage=FLASHONLY|Rotation=0.000|XOffset=0mil|YOffset=0mil|HoleType=Round|Shape=RoundedRectangle|*
%AMROUNDEDRECTD21*
21,1,0.15748,0.03937,0,0,0.0*
21,1,0.11811,0.07874,0,0,0.0*
1,1,0.03937,0.05905,-0.01968*
1,1,0.03937,-0.05905,-0.01968*
1,1,0.03937,-0.05905,0.01968*
1,1,0.03937,0.05905,0.01968*
%
%ADD21ROUNDEDRECTD21*%
G04:AMPARAMS|DCode=22|XSize=157.48mil|YSize=78.74mil|CornerRadius=19.68mil|HoleSize=0mil|Usage=FLASHONLY|Rotation=90.000|XOffset=0mil|YOffset=0mil|HoleType=Round|Shape=RoundedRectangle|*
%AMROUNDEDRECTD22*
21,1,0.15748,0.03937,0,0,90.0*
21,1,0.11811,0.07874,0,0,90.0*
1,1,0.03937,0.01968,0.05905*
1,1,0.03937,0.01968,-0.05905*
1,1,0.03937,-0.01968,-0.05905*
1,1,0.03937,-0.01968,0.05905*
%
%ADD22ROUNDEDRECTD22*%
%ADD23C,0.05512*%
%ADD24C,0.05000*%
G36*
X94488Y94488D02*
X133858D01*
Y-94488D01*
X117048D01*
X114222Y-92500D01*
X114089Y-91149D01*
X113695Y-89851D01*
X113056Y-88654D01*
X112195Y-87605D01*
X111145Y-86744D01*
X109949Y-86104D01*
X108650Y-85710D01*
X107299Y-85577D01*
X105949Y-85710D01*
X104650Y-86104D01*
X103453Y-86744D01*
X102404Y-87605D01*
X101971Y-88132D01*
X35809D01*
X23368Y-75691D01*
Y-23500D01*
X23219Y-22369D01*
X22783Y-21316D01*
X22089Y-20411D01*
X-11254Y12931D01*
X-12158Y13625D01*
X-13212Y14062D01*
X-14343Y14211D01*
X-36970D01*
Y29576D01*
X-35960Y29995D01*
X-34375Y30966D01*
X-32961Y32174D01*
X-31754Y33587D01*
X-30782Y35173D01*
X-30071Y36890D01*
X-29637Y38698D01*
X-29491Y40551D01*
X-29637Y42404D01*
X-30071Y44212D01*
X-30782Y45930D01*
X-31754Y47515D01*
X-32961Y48929D01*
X-34375Y50136D01*
X-35960Y51107D01*
X-37677Y51819D01*
X-39485Y52253D01*
X-41339Y52399D01*
X-43192Y52253D01*
X-45000Y51819D01*
X-46717Y51107D01*
X-48302Y50136D01*
X-49716Y48929D01*
X-50923Y47515D01*
X-51895Y45930D01*
X-52606Y44212D01*
X-53040Y42404D01*
X-53186Y40551D01*
X-53040Y38698D01*
X-52606Y36890D01*
X-51895Y35173D01*
X-50923Y33587D01*
X-49716Y32174D01*
X-48302Y30966D01*
X-46717Y29995D01*
X-45707Y29576D01*
Y14211D01*
X-60277D01*
X-60411Y14313D01*
X-61656Y14829D01*
X-62992Y15005D01*
X-64328Y14829D01*
X-65573Y14313D01*
X-65707Y14211D01*
X-70277D01*
X-70411Y14313D01*
X-71656Y14829D01*
X-72992Y15005D01*
X-74328Y14829D01*
X-75573Y14313D01*
X-76642Y13493D01*
X-77463Y12424D01*
X-77978Y11179D01*
X-78154Y9843D01*
X-77978Y8506D01*
X-77463Y7261D01*
X-76642Y6192D01*
X-75573Y5372D01*
X-74328Y4856D01*
X-72992Y4680D01*
X-71656Y4856D01*
X-70411Y5372D01*
X-70277Y5474D01*
X-65707D01*
X-65573Y5372D01*
X-64328Y4856D01*
X-62992Y4680D01*
X-61656Y4856D01*
X-60411Y5372D01*
X-60277Y5474D01*
X-16152D01*
X14632Y-25309D01*
Y-77500D01*
X14781Y-78631D01*
X15217Y-79684D01*
X15911Y-80589D01*
X30911Y-95589D01*
X31816Y-96283D01*
X32869Y-96719D01*
X34000Y-96868D01*
X94488D01*
Y-133858D01*
X-94488D01*
Y-94488D01*
X-133858D01*
Y94488D01*
X-94488D01*
Y106019D01*
X-93760Y106925D01*
X-91339Y108269D01*
X-91330Y108268D01*
X-91133D01*
X-90939Y108229D01*
X3401D01*
X3972Y107913D01*
X6021Y105527D01*
X6174Y104361D01*
X6624Y103274D01*
X6954Y102845D01*
Y91508D01*
X-7480Y77074D01*
X-79500D01*
X-80425Y76952D01*
X-81287Y76595D01*
X-82027Y76027D01*
X-95482Y62572D01*
X-97235Y62755D01*
X-97686Y63237D01*
X-97751Y63343D01*
X-98759Y66071D01*
X-98514Y66664D01*
X-98338Y68000D01*
X-98514Y69336D01*
X-99029Y70581D01*
X-99343Y70990D01*
X-99850Y71806D01*
Y74194D01*
X-99343Y75010D01*
X-99029Y75419D01*
X-98514Y76664D01*
X-98338Y78000D01*
X-98514Y79336D01*
X-99029Y80581D01*
X-99850Y81650D01*
X-100919Y82471D01*
X-102164Y82986D01*
X-103500Y83162D01*
X-104836Y82986D01*
X-106081Y82471D01*
X-107150Y81650D01*
X-107971Y80581D01*
X-108486Y79336D01*
X-108662Y78000D01*
X-108486Y76664D01*
X-107971Y75419D01*
X-107657Y75010D01*
X-107150Y74194D01*
Y71806D01*
X-107657Y70990D01*
X-107971Y70581D01*
X-108486Y69336D01*
X-108662Y68000D01*
X-108486Y66664D01*
X-107971Y65419D01*
X-109198Y62960D01*
X-109497Y62563D01*
X-110532Y62021D01*
X-111334Y62353D01*
X-112500Y62507D01*
X-113666Y62353D01*
X-114753Y61903D01*
X-115687Y61187D01*
X-116403Y60254D01*
X-116853Y59167D01*
X-117007Y58000D01*
X-116853Y56833D01*
X-116403Y55747D01*
X-115687Y54813D01*
X-114753Y54097D01*
X-113666Y53646D01*
X-112500Y53493D01*
X-111334Y53646D01*
X-110247Y54097D01*
X-110152Y54169D01*
X-107150Y54350D01*
X-106081Y53529D01*
X-104836Y53014D01*
X-103500Y52838D01*
X-102164Y53014D01*
X-100919Y53529D01*
X-99850Y54350D01*
X-99791Y54426D01*
X-95000D01*
X-94075Y54548D01*
X-93213Y54905D01*
X-92473Y55473D01*
X-78020Y69926D01*
X-6000D01*
X-5075Y70048D01*
X-4213Y70405D01*
X-3473Y70973D01*
X13055Y87501D01*
X13623Y88241D01*
X13980Y89103D01*
X14101Y90028D01*
Y102845D01*
X14431Y103274D01*
X14881Y104361D01*
X15035Y105528D01*
X14881Y106694D01*
X14431Y107781D01*
X15740Y109696D01*
X16288Y110244D01*
X16398Y110409D01*
X16538Y110548D01*
X16969Y111193D01*
X17044Y111376D01*
X17154Y111540D01*
X17451Y112257D01*
X17490Y112451D01*
X17565Y112633D01*
X17717Y113394D01*
Y113592D01*
X17755Y113786D01*
Y114173D01*
Y133858D01*
X94488D01*
Y94488D01*
D02*
G37*
%LPC*%
G36*
X71469Y-21082D02*
X70132Y-21258D01*
X68887Y-21773D01*
X67818Y-22594D01*
X66998Y-23663D01*
X66482Y-24908D01*
X66306Y-26244D01*
X66482Y-27580D01*
X66998Y-28825D01*
X67818Y-29894D01*
X68887Y-30715D01*
X70132Y-31231D01*
X71469Y-31406D01*
X72805Y-31231D01*
X74050Y-30715D01*
X75119Y-29894D01*
X75939Y-28825D01*
X76455Y-27580D01*
X76631Y-26244D01*
X76455Y-24908D01*
X75939Y-23663D01*
X75119Y-22594D01*
X74050Y-21773D01*
X72805Y-21258D01*
X71469Y-21082D01*
D02*
G37*
G36*
X83740Y-37361D02*
X82507Y-37523D01*
X81358Y-37999D01*
X80724Y-38485D01*
X80108Y-38756D01*
X77372D01*
X76756Y-38485D01*
X76123Y-37999D01*
X74973Y-37523D01*
X73740Y-37361D01*
X72507Y-37523D01*
X71358Y-37999D01*
X70371Y-38756D01*
X69613Y-39743D01*
X69137Y-40893D01*
X68975Y-42126D01*
X69137Y-43359D01*
X69613Y-44509D01*
X70371Y-45496D01*
X71358Y-46253D01*
X72507Y-46729D01*
X73740Y-46891D01*
X74973Y-46729D01*
X76123Y-46253D01*
X76756Y-45767D01*
X77372Y-45496D01*
X80108D01*
X80724Y-45767D01*
X81358Y-46253D01*
X82507Y-46729D01*
X83740Y-46891D01*
X84974Y-46729D01*
X86123Y-46253D01*
X87110Y-45496D01*
X87867Y-44509D01*
X88343Y-43359D01*
X88505Y-42126D01*
X88343Y-40893D01*
X87867Y-39743D01*
X87110Y-38756D01*
X86123Y-37999D01*
X84974Y-37523D01*
X83740Y-37361D01*
D02*
G37*
G36*
X-116500Y-22392D02*
X-117851Y-22525D01*
X-119149Y-22919D01*
X-120346Y-23559D01*
X-121395Y-24420D01*
X-122256Y-25469D01*
X-122896Y-26666D01*
X-123290Y-27964D01*
X-123423Y-29315D01*
X-123290Y-30666D01*
X-122896Y-31964D01*
X-122256Y-33161D01*
X-121395Y-34210D01*
X-120346Y-35071D01*
X-119149Y-35711D01*
X-117851Y-36105D01*
X-116500Y-36238D01*
X-115149Y-36105D01*
X-113851Y-35711D01*
X-112654Y-35071D01*
X-111605Y-34210D01*
X-110744Y-33161D01*
X-110104Y-31964D01*
X-109710Y-30666D01*
X-109577Y-29315D01*
X-109710Y-27964D01*
X-110104Y-26666D01*
X-110744Y-25469D01*
X-111605Y-24420D01*
X-112654Y-23559D01*
X-113851Y-22919D01*
X-115149Y-22525D01*
X-116500Y-22392D01*
D02*
G37*
G36*
X-78740Y-8804D02*
X-80284Y-8957D01*
X-81768Y-9407D01*
X-83136Y-10138D01*
X-84335Y-11122D01*
X-85319Y-12321D01*
X-86050Y-13689D01*
X-86500Y-15173D01*
X-86652Y-16716D01*
X-86500Y-18260D01*
X-86050Y-19744D01*
X-85319Y-21112D01*
X-84335Y-22311D01*
X-83136Y-23295D01*
X-81768Y-24026D01*
X-80284Y-24477D01*
X-78740Y-24629D01*
X-77197Y-24477D01*
X-75712Y-24026D01*
X-74344Y-23295D01*
X-73146Y-22311D01*
X-72162Y-21112D01*
X-71430Y-19744D01*
X-70980Y-18260D01*
X-70828Y-16716D01*
X-70980Y-15173D01*
X-71430Y-13689D01*
X-72162Y-12321D01*
X-73146Y-11122D01*
X-74344Y-10138D01*
X-75712Y-9407D01*
X-77197Y-8957D01*
X-78740Y-8804D01*
D02*
G37*
G36*
X37000Y-14441D02*
X35561Y-14630D01*
X34220Y-15186D01*
X33069Y-16069D01*
X32185Y-17220D01*
X31630Y-18561D01*
X31441Y-20000D01*
X31630Y-21439D01*
X32185Y-22780D01*
X33069Y-23931D01*
X34220Y-24814D01*
X35561Y-25370D01*
X37000Y-25559D01*
X38339Y-25383D01*
X38528Y-25374D01*
X41488Y-25512D01*
Y-25512D01*
X52512D01*
Y-14488D01*
X41488D01*
X41488Y-14488D01*
X38528Y-14626D01*
X38339Y-14617D01*
X37000Y-14441D01*
D02*
G37*
G36*
X119500Y-21082D02*
X118164Y-21258D01*
X116919Y-21773D01*
X115850Y-22594D01*
X115029Y-23663D01*
X114514Y-24908D01*
X114338Y-26244D01*
X114514Y-27580D01*
X115029Y-28825D01*
X115850Y-29894D01*
X116919Y-30715D01*
X118164Y-31231D01*
X119500Y-31406D01*
X120836Y-31231D01*
X122081Y-30715D01*
X123150Y-29894D01*
X123971Y-28825D01*
X124486Y-27580D01*
X124662Y-26244D01*
X124486Y-24908D01*
X123971Y-23663D01*
X123150Y-22594D01*
X122081Y-21773D01*
X120836Y-21258D01*
X119500Y-21082D01*
D02*
G37*
G36*
X3500Y-42493D02*
X2334Y-42647D01*
X1247Y-43097D01*
X313Y-43813D01*
X-403Y-44747D01*
X-853Y-45834D01*
X-924Y-46370D01*
X-9980Y-55426D01*
X-49996D01*
X-50994Y-54660D01*
X-52203Y-54159D01*
X-53500Y-53989D01*
X-54797Y-54159D01*
X-56006Y-54660D01*
X-57044Y-55456D01*
X-57840Y-56494D01*
X-58341Y-57703D01*
X-58511Y-59000D01*
X-58341Y-60297D01*
X-57840Y-61506D01*
X-57044Y-62544D01*
X-56006Y-63340D01*
X-54797Y-63841D01*
X-53500Y-64011D01*
X-52203Y-63841D01*
X-50994Y-63340D01*
X-49996Y-62574D01*
X-8500D01*
X-7575Y-62452D01*
X-6713Y-62095D01*
X-5973Y-61527D01*
X4130Y-51424D01*
X4667Y-51354D01*
X5754Y-50903D01*
X6687Y-50187D01*
X7403Y-49253D01*
X7853Y-48166D01*
X8007Y-47000D01*
X7853Y-45834D01*
X7403Y-44747D01*
X6687Y-43813D01*
X5754Y-43097D01*
X4667Y-42647D01*
X3500Y-42493D01*
D02*
G37*
G36*
X-116500Y-61762D02*
X-117851Y-61895D01*
X-119149Y-62289D01*
X-120346Y-62929D01*
X-121395Y-63790D01*
X-122256Y-64839D01*
X-122896Y-66036D01*
X-123290Y-67334D01*
X-123423Y-68685D01*
X-123290Y-70036D01*
X-122896Y-71334D01*
X-122256Y-72531D01*
X-121395Y-73580D01*
X-120346Y-74441D01*
X-119149Y-75081D01*
X-117851Y-75475D01*
X-116500Y-75608D01*
X-115149Y-75475D01*
X-113851Y-75081D01*
X-112654Y-74441D01*
X-111605Y-73580D01*
X-110744Y-72531D01*
X-110104Y-71334D01*
X-109710Y-70036D01*
X-109577Y-68685D01*
X-109710Y-67334D01*
X-110104Y-66036D01*
X-110744Y-64839D01*
X-111605Y-63790D01*
X-112654Y-62929D01*
X-113851Y-62289D01*
X-115149Y-61895D01*
X-116500Y-61762D01*
D02*
G37*
G36*
X-79240Y-69304D02*
X-80784Y-69456D01*
X-82268Y-69907D01*
X-83636Y-70638D01*
X-84835Y-71622D01*
X-85819Y-72821D01*
X-86550Y-74189D01*
X-87000Y-75673D01*
X-87152Y-77217D01*
X-87000Y-78760D01*
X-86550Y-80244D01*
X-85819Y-81612D01*
X-84835Y-82811D01*
X-83636Y-83795D01*
X-82268Y-84526D01*
X-80784Y-84977D01*
X-79240Y-85129D01*
X-77697Y-84977D01*
X-76212Y-84526D01*
X-74844Y-83795D01*
X-73646Y-82811D01*
X-72662Y-81612D01*
X-71930Y-80244D01*
X-71480Y-78760D01*
X-71328Y-77217D01*
X-71480Y-75673D01*
X-71930Y-74189D01*
X-72662Y-72821D01*
X-73646Y-71622D01*
X-74844Y-70638D01*
X-76212Y-69907D01*
X-77697Y-69456D01*
X-79240Y-69304D01*
D02*
G37*
G36*
X-94488Y-31840D02*
X-98425D01*
X-99453Y-31975D01*
X-100411Y-32372D01*
X-101233Y-33003D01*
X-101864Y-33825D01*
X-102261Y-34783D01*
X-102396Y-35811D01*
Y-47622D01*
X-102261Y-48650D01*
X-101864Y-49608D01*
X-101233Y-50430D01*
X-100411Y-51061D01*
X-99453Y-51458D01*
X-98425Y-51593D01*
X-94488D01*
X-93460Y-51458D01*
X-92503Y-51061D01*
X-91680Y-50430D01*
X-91049Y-49608D01*
X-90653Y-48650D01*
X-90517Y-47622D01*
Y-35811D01*
X-90653Y-34783D01*
X-91049Y-33825D01*
X-91680Y-33003D01*
X-92503Y-32372D01*
X-93460Y-31975D01*
X-94488Y-31840D01*
D02*
G37*
G36*
X35433Y-32361D02*
X34200Y-32523D01*
X33051Y-32999D01*
X32064Y-33757D01*
X31306Y-34743D01*
X30830Y-35893D01*
X30668Y-37126D01*
X30830Y-38359D01*
X31306Y-39509D01*
X31792Y-40142D01*
X31954Y-40509D01*
X32064Y-41026D01*
Y-43225D01*
X31954Y-43743D01*
X31792Y-44110D01*
X31306Y-44743D01*
X30830Y-45893D01*
X30668Y-47126D01*
X30830Y-48359D01*
X31306Y-49509D01*
X32064Y-50495D01*
X33051Y-51253D01*
X34200Y-51729D01*
X35433Y-51891D01*
X36666Y-51729D01*
X37816Y-51253D01*
X38803Y-50495D01*
X39560Y-49509D01*
X40036Y-48359D01*
X40198Y-47126D01*
X40036Y-45893D01*
X39560Y-44743D01*
X39074Y-44110D01*
X38912Y-43743D01*
X38803Y-43225D01*
Y-41026D01*
X38912Y-40509D01*
X39074Y-40142D01*
X39560Y-39509D01*
X40036Y-38359D01*
X40198Y-37126D01*
X40036Y-35893D01*
X39560Y-34743D01*
X38803Y-33757D01*
X37816Y-32999D01*
X36666Y-32523D01*
X35433Y-32361D01*
D02*
G37*
G36*
X-35433Y-42361D02*
X-36666Y-42523D01*
X-37816Y-42999D01*
X-38803Y-43756D01*
X-39560Y-44743D01*
X-40036Y-45893D01*
X-40198Y-47126D01*
X-40036Y-48359D01*
X-39560Y-49509D01*
X-38803Y-50495D01*
X-37816Y-51253D01*
X-36666Y-51729D01*
X-35433Y-51891D01*
X-34200Y-51729D01*
X-33051Y-51253D01*
X-32064Y-50495D01*
X-31306Y-49509D01*
X-30830Y-48359D01*
X-30668Y-47126D01*
X-30830Y-45893D01*
X-31306Y-44743D01*
X-32064Y-43756D01*
X-33051Y-42999D01*
X-34200Y-42523D01*
X-35433Y-42361D01*
D02*
G37*
G36*
X-46343Y-3338D02*
X-47679Y-3514D01*
X-48924Y-4029D01*
X-49993Y-4850D01*
X-50813Y-5919D01*
X-51329Y-7164D01*
X-51505Y-8500D01*
X-51329Y-9836D01*
X-50813Y-11081D01*
X-49993Y-12150D01*
X-48924Y-12971D01*
X-47679Y-13486D01*
X-46343Y-13662D01*
X-45006Y-13486D01*
X-43761Y-12971D01*
X-42692Y-12150D01*
X-41872Y-11081D01*
X-41356Y-9836D01*
X-41180Y-8500D01*
X-41356Y-7164D01*
X-41872Y-5919D01*
X-42692Y-4850D01*
X-43761Y-4029D01*
X-45006Y-3514D01*
X-46343Y-3338D01*
D02*
G37*
G36*
X26575Y59281D02*
X25417Y59167D01*
X24304Y58829D01*
X23278Y58280D01*
X22379Y57543D01*
X21641Y56643D01*
X21092Y55617D01*
X20755Y54504D01*
X20641Y53347D01*
X20755Y52189D01*
X21092Y51076D01*
X21641Y50050D01*
X22379Y49150D01*
X23278Y48412D01*
X24304Y47864D01*
X25417Y47526D01*
X26575Y47412D01*
X27733Y47526D01*
X28846Y47864D01*
X29872Y48412D01*
X30771Y49150D01*
X31509Y50050D01*
X32057Y51076D01*
X32395Y52189D01*
X32509Y53347D01*
X32395Y54504D01*
X32057Y55617D01*
X31509Y56643D01*
X30771Y57543D01*
X29872Y58280D01*
X28846Y58829D01*
X27733Y59167D01*
X26575Y59281D01*
D02*
G37*
G36*
X-103500Y46662D02*
X-104836Y46486D01*
X-106081Y45971D01*
X-107150Y45150D01*
X-107971Y44081D01*
X-108486Y42836D01*
X-108662Y41500D01*
X-108486Y40164D01*
X-107971Y38919D01*
X-107150Y37850D01*
X-106081Y37029D01*
X-104836Y36514D01*
X-103500Y36338D01*
X-102164Y36514D01*
X-100919Y37029D01*
X-99850Y37850D01*
X-99029Y38919D01*
X-98514Y40164D01*
X-98338Y41500D01*
X-98514Y42836D01*
X-99029Y44081D01*
X-99850Y45150D01*
X-100919Y45971D01*
X-102164Y46486D01*
X-103500Y46662D01*
D02*
G37*
G36*
X26575Y33690D02*
X25417Y33576D01*
X24304Y33238D01*
X23278Y32690D01*
X22379Y31952D01*
X21658Y31074D01*
X6004D01*
X5006Y31840D01*
X3797Y32341D01*
X2500Y32511D01*
X1203Y32341D01*
X-6Y31840D01*
X-1044Y31044D01*
X-1840Y30006D01*
X-2341Y28797D01*
X-2511Y27500D01*
X-2341Y26203D01*
X-1840Y24994D01*
X-1044Y23956D01*
X-6Y23160D01*
X1203Y22659D01*
X2500Y22489D01*
X3797Y22659D01*
X5006Y23160D01*
X6004Y23926D01*
X22078D01*
X22379Y23560D01*
X23278Y22822D01*
X24304Y22274D01*
X25417Y21936D01*
X26575Y21822D01*
X27733Y21936D01*
X28846Y22274D01*
X29872Y22822D01*
X30771Y23560D01*
X31509Y24459D01*
X32057Y25485D01*
X32395Y26598D01*
X32509Y27756D01*
X32395Y28914D01*
X32057Y30027D01*
X31509Y31053D01*
X30771Y31952D01*
X29872Y32690D01*
X28846Y33238D01*
X27733Y33576D01*
X26575Y33690D01*
D02*
G37*
G36*
X71795Y102576D02*
X70638Y102462D01*
X69524Y102124D01*
X68498Y101576D01*
X67599Y100838D01*
X66861Y99938D01*
X66313Y98913D01*
X65975Y97799D01*
X65861Y96642D01*
X65975Y95484D01*
X66313Y94371D01*
X66861Y93345D01*
X67599Y92446D01*
X68498Y91708D01*
X69524Y91159D01*
X70638Y90822D01*
X71795Y90708D01*
X72953Y90822D01*
X74066Y91159D01*
X75092Y91708D01*
X75991Y92446D01*
X76729Y93345D01*
X77278Y94371D01*
X77615Y95484D01*
X77729Y96642D01*
X77615Y97799D01*
X77278Y98913D01*
X76729Y99938D01*
X75991Y100838D01*
X75092Y101576D01*
X74066Y102124D01*
X72953Y102462D01*
X71795Y102576D01*
D02*
G37*
G36*
X46205D02*
X45047Y102462D01*
X43934Y102124D01*
X42908Y101576D01*
X42009Y100838D01*
X41271Y99938D01*
X40722Y98913D01*
X40385Y97799D01*
X40271Y96642D01*
X40385Y95484D01*
X40722Y94371D01*
X41271Y93345D01*
X42009Y92446D01*
X42908Y91708D01*
X43934Y91159D01*
X45047Y90822D01*
X46205Y90708D01*
X47362Y90822D01*
X48476Y91159D01*
X49501Y91708D01*
X50401Y92446D01*
X51139Y93345D01*
X51687Y94371D01*
X52025Y95484D01*
X52139Y96642D01*
X52025Y97799D01*
X51687Y98913D01*
X51139Y99938D01*
X50401Y100838D01*
X49501Y101576D01*
X48476Y102124D01*
X47362Y102462D01*
X46205Y102576D01*
D02*
G37*
G36*
X44291Y59281D02*
X43134Y59167D01*
X42020Y58829D01*
X40995Y58280D01*
X40095Y57543D01*
X39357Y56643D01*
X38809Y55617D01*
X38471Y54504D01*
X38357Y53347D01*
X38471Y52189D01*
X38809Y51076D01*
X39357Y50050D01*
X40095Y49150D01*
X40995Y48412D01*
X42020Y47864D01*
X43134Y47526D01*
X44291Y47412D01*
X45449Y47526D01*
X46562Y47864D01*
X47588Y48412D01*
X48487Y49150D01*
X49225Y50050D01*
X49774Y51076D01*
X50111Y52189D01*
X50225Y53347D01*
X50111Y54504D01*
X49774Y55617D01*
X49225Y56643D01*
X48487Y57543D01*
X47588Y58280D01*
X46562Y58829D01*
X45449Y59167D01*
X44291Y59281D01*
D02*
G37*
G36*
X71469Y26162D02*
X70132Y25986D01*
X68887Y25471D01*
X67818Y24650D01*
X66998Y23581D01*
X66482Y22336D01*
X66306Y21000D01*
X66482Y19664D01*
X66998Y18419D01*
X67818Y17350D01*
X68887Y16529D01*
X70132Y16014D01*
X71469Y15838D01*
X72805Y16014D01*
X74050Y16529D01*
X75119Y17350D01*
X75939Y18419D01*
X76455Y19664D01*
X76631Y21000D01*
X76455Y22336D01*
X75939Y23581D01*
X75119Y24650D01*
X74050Y25471D01*
X72805Y25986D01*
X71469Y26162D01*
D02*
G37*
G36*
X37000Y18559D02*
X35561Y18370D01*
X34220Y17815D01*
X33069Y16931D01*
X32185Y15780D01*
X31630Y14439D01*
X31441Y13000D01*
X31630Y11561D01*
X32185Y10220D01*
X33069Y9069D01*
X34220Y8185D01*
X35561Y7630D01*
X37000Y7441D01*
X38439Y7630D01*
X39780Y8185D01*
X40931Y9069D01*
X41815Y10220D01*
X42370Y11561D01*
X42559Y13000D01*
X42370Y14439D01*
X41815Y15780D01*
X40931Y16931D01*
X39780Y17815D01*
X38439Y18370D01*
X37000Y18559D01*
D02*
G37*
G36*
X63595Y3312D02*
X62437Y3198D01*
X61324Y2860D01*
X60298Y2312D01*
X59399Y1574D01*
X58661Y675D01*
X58112Y-351D01*
X57774Y-1464D01*
X57660Y-2622D01*
X57774Y-3780D01*
X58112Y-4893D01*
X58661Y-5919D01*
X59399Y-6818D01*
X60298Y-7556D01*
X61324Y-8104D01*
X62437Y-8442D01*
X63595Y-8556D01*
X64752Y-8442D01*
X65865Y-8104D01*
X66891Y-7556D01*
X67791Y-6818D01*
X68528Y-5919D01*
X69077Y-4893D01*
X69415Y-3780D01*
X69529Y-2622D01*
X69415Y-1464D01*
X69077Y-351D01*
X68528Y675D01*
X67791Y1574D01*
X66891Y2312D01*
X65865Y2860D01*
X64752Y3198D01*
X63595Y3312D01*
D02*
G37*
G36*
X78740Y40316D02*
X77507Y40154D01*
X76358Y39678D01*
X75371Y38921D01*
X74613Y37934D01*
X74137Y36784D01*
X73975Y35551D01*
X74137Y34318D01*
X74613Y33169D01*
X75371Y32182D01*
X76358Y31424D01*
X77507Y30948D01*
X78740Y30786D01*
X79974Y30948D01*
X81123Y31424D01*
X82110Y32182D01*
X82867Y33169D01*
X83343Y34318D01*
X83505Y35551D01*
X83343Y36784D01*
X82867Y37934D01*
X82110Y38921D01*
X81123Y39678D01*
X79974Y40154D01*
X78740Y40316D01*
D02*
G37*
G36*
X44291Y33690D02*
X43134Y33576D01*
X42020Y33238D01*
X40995Y32690D01*
X40095Y31952D01*
X39357Y31053D01*
X38809Y30027D01*
X38471Y28914D01*
X38357Y27756D01*
X38471Y26598D01*
X38809Y25485D01*
X39357Y24459D01*
X40095Y23560D01*
X40995Y22822D01*
X42020Y22274D01*
X43134Y21936D01*
X44291Y21822D01*
X45449Y21936D01*
X46562Y22274D01*
X47588Y22822D01*
X48487Y23560D01*
X49225Y24459D01*
X49774Y25485D01*
X50111Y26598D01*
X50225Y27756D01*
X50111Y28914D01*
X49774Y30027D01*
X49225Y31053D01*
X48487Y31952D01*
X47588Y32690D01*
X46562Y33238D01*
X45449Y33576D01*
X44291Y33690D01*
D02*
G37*
G36*
X119500Y26162D02*
X118164Y25986D01*
X116919Y25471D01*
X115850Y24650D01*
X115029Y23581D01*
X114514Y22336D01*
X114338Y21000D01*
X114514Y19664D01*
X115029Y18419D01*
X115850Y17350D01*
X116919Y16529D01*
X118164Y16014D01*
X119500Y15838D01*
X120836Y16014D01*
X122081Y16529D01*
X123150Y17350D01*
X123971Y18419D01*
X124486Y19664D01*
X124662Y21000D01*
X124486Y22336D01*
X123971Y23581D01*
X123150Y24650D01*
X122081Y25471D01*
X120836Y25986D01*
X119500Y26162D01*
D02*
G37*
%LPD*%
D10*
X-118110Y88583D02*
G03*
X-93058Y102481I0J29528D01*
G01*
X-88583Y-118110D02*
G03*
X-118110Y-88583I-29528J0D01*
G01*
X92947Y-102661D02*
G03*
X88583Y-118110I25163J-15450D01*
G01*
Y118110D02*
G03*
X118110Y88583I29528J0D01*
G01*
D11*
X-41339Y40551D02*
D03*
X-72835Y41551D02*
D03*
X-118110Y118110D02*
D03*
X118110D02*
D03*
Y-118110D02*
D03*
X-118110D02*
D03*
D12*
X-8500Y-59000D02*
X3500Y-47000D01*
X-53500Y-59000D02*
X-8500D01*
X26319Y27500D02*
X26575Y27756D01*
X2500Y27500D02*
X26319D01*
X-6000Y73500D02*
X10528Y90028D01*
Y105528D01*
X-79500Y73500D02*
X-6000D01*
X-95000Y58000D02*
X-79500Y73500D01*
X-112500Y58000D02*
X-95000D01*
D13*
X-14343Y9843D02*
X19000Y-23500D01*
Y-77500D02*
Y-23500D01*
Y-77500D02*
X34000Y-92500D01*
X-72992Y9843D02*
X-14343D01*
X-41339Y10000D02*
Y40551D01*
X34000Y-92500D02*
X107299D01*
D14*
X-96457Y-41717D02*
D03*
Y-40154D02*
D03*
Y-38185D02*
D03*
Y-44091D02*
D03*
Y-46059D02*
D03*
X-75740Y-51717D02*
D03*
X-74177D02*
D03*
X-72209D02*
D03*
X-78114D02*
D03*
X-80083D02*
D03*
X-88583Y-64217D02*
D03*
X-86614D02*
D03*
X-80709D02*
D03*
X-82677D02*
D03*
X-84240D02*
D03*
X-93500Y21000D02*
D03*
X-125000Y84000D02*
D03*
X109500Y76500D02*
D03*
X-53500Y-59000D02*
D03*
X2500Y27500D02*
D03*
D15*
X-46343Y-8500D02*
D03*
X-26658D02*
D03*
X-82992Y9843D02*
D03*
X-62992D02*
D03*
X-72992D02*
D03*
X-92992D02*
D03*
X119500Y21000D02*
D03*
Y-26244D02*
D03*
X71469Y21000D02*
D03*
Y-26244D02*
D03*
X-103500Y88000D02*
D03*
Y68000D02*
D03*
Y58000D02*
D03*
Y78000D02*
D03*
Y31500D02*
D03*
Y41500D02*
D03*
D16*
X63595Y-2622D02*
D03*
X44291Y53347D02*
D03*
Y27756D02*
D03*
X26575Y53347D02*
D03*
Y27756D02*
D03*
X46205Y96642D02*
D03*
X71795D02*
D03*
X46205Y114358D02*
D03*
X71795D02*
D03*
D17*
X37000Y13000D02*
D03*
X47000D02*
D03*
X37000Y-20000D02*
D03*
D18*
X47000D02*
D03*
D19*
X-116500Y-68685D02*
D03*
Y-29315D02*
D03*
X-105299Y-92500D02*
D03*
X107299D02*
D03*
D20*
X-79240Y-77217D02*
D03*
X-78740Y-16716D02*
D03*
D21*
X-84240Y-64217D02*
D03*
X-75740Y-51717D02*
D03*
D22*
X-96457Y-41717D02*
D03*
D23*
X78740Y45551D02*
D03*
Y35551D02*
D03*
X35433Y-37126D02*
D03*
Y-47126D02*
D03*
X83740Y-42126D02*
D03*
X73740D02*
D03*
X-35433Y-37126D02*
D03*
Y-47126D02*
D03*
D24*
X3500Y-47000D02*
D03*
X10528Y105528D02*
D03*
X-112500Y58000D02*
D03*
M02*
