G04 Layer_Physical_Order=1*
G04 Layer_Color=2232046*
%FSLAX25Y25*%
%MOIN*%
G70*
G01*
G75*
%ADD10C,0.19685*%
%ADD11C,0.03937*%
%ADD12R,0.08500X0.06000*%
%ADD13C,0.07087*%
%ADD14C,0.07874*%
G04:AMPARAMS|DCode=15|XSize=157.48mil|YSize=78.74mil|CornerRadius=19.68mil|HoleSize=0mil|Usage=FLASHONLY|Rotation=90.000|XOffset=0mil|YOffset=0mil|HoleType=Round|Shape=RoundedRectangle|*
%AMROUNDEDRECTD15*
21,1,0.15748,0.03937,0,0,90.0*
21,1,0.11811,0.07874,0,0,90.0*
1,1,0.03937,0.01968,0.05905*
1,1,0.03937,0.01968,-0.05905*
1,1,0.03937,-0.01968,-0.05905*
1,1,0.03937,-0.01968,0.05905*
%
%ADD15ROUNDEDRECTD15*%
G04:AMPARAMS|DCode=16|XSize=157.48mil|YSize=78.74mil|CornerRadius=19.68mil|HoleSize=0mil|Usage=FLASHONLY|Rotation=0.000|XOffset=0mil|YOffset=0mil|HoleType=Round|Shape=RoundedRectangle|*
%AMROUNDEDRECTD16*
21,1,0.15748,0.03937,0,0,0.0*
21,1,0.11811,0.07874,0,0,0.0*
1,1,0.03937,0.05905,-0.01968*
1,1,0.03937,-0.05905,-0.01968*
1,1,0.03937,-0.05905,0.01968*
1,1,0.03937,0.05905,0.01968*
%
%ADD16ROUNDEDRECTD16*%
%ADD17C,0.11811*%
%ADD18C,0.06000*%
%ADD19R,0.07087X0.07087*%
%ADD20C,0.09842*%
%ADD21C,0.06299*%
G36*
X133858Y-133858D02*
X-133858D01*
Y133858D01*
X-96495D01*
Y114173D01*
Y113786D01*
X-96457Y113592D01*
Y113394D01*
X-96305Y112633D01*
X-96230Y112451D01*
X-96191Y112257D01*
X-95894Y111540D01*
X-95785Y111376D01*
X-95709Y111193D01*
X-95278Y110548D01*
X-95138Y110409D01*
X-95029Y110244D01*
X-94480Y109696D01*
X-94316Y109586D01*
X-94176Y109446D01*
X-93531Y109016D01*
X-93348Y108940D01*
X-93184Y108830D01*
X-92468Y108533D01*
X-92274Y108495D01*
X-92091Y108419D01*
X-91330Y108268D01*
X-91133D01*
X-90939Y108229D01*
X12199D01*
X12393Y108268D01*
X12590D01*
X13351Y108419D01*
X13534Y108495D01*
X13727Y108533D01*
X14444Y108830D01*
X14608Y108940D01*
X14791Y109016D01*
X15436Y109446D01*
X15576Y109586D01*
X15740Y109696D01*
X16288Y110244D01*
X16398Y110409D01*
X16538Y110548D01*
X16969Y111193D01*
X17044Y111376D01*
X17154Y111540D01*
X17451Y112257D01*
X17490Y112451D01*
X17565Y112633D01*
X17717Y113394D01*
Y113592D01*
X17755Y113786D01*
Y114173D01*
Y133858D01*
X133858D01*
Y-133858D01*
D02*
G37*
%LPC*%
G36*
X83740Y-36567D02*
X82301Y-36756D01*
X80961Y-37311D01*
X79809Y-38195D01*
X77671D01*
X76520Y-37311D01*
X75179Y-36756D01*
X73740Y-36567D01*
X72301Y-36756D01*
X70960Y-37311D01*
X69809Y-38195D01*
X68926Y-39346D01*
X68370Y-40687D01*
X68181Y-42126D01*
X68370Y-43565D01*
X68926Y-44906D01*
X69809Y-46057D01*
X70960Y-46940D01*
X72301Y-47496D01*
X73740Y-47685D01*
X75179Y-47496D01*
X76520Y-46940D01*
X77671Y-46057D01*
X79809D01*
X80961Y-46940D01*
X82301Y-47496D01*
X83740Y-47685D01*
X85179Y-47496D01*
X86520Y-46940D01*
X87671Y-46057D01*
X88555Y-44906D01*
X89110Y-43565D01*
X89299Y-42126D01*
X89110Y-40687D01*
X88555Y-39346D01*
X87671Y-38195D01*
X86520Y-37311D01*
X85179Y-36756D01*
X83740Y-36567D01*
D02*
G37*
G36*
X-116809Y-22392D02*
X-118159Y-22525D01*
X-119458Y-22919D01*
X-120655Y-23559D01*
X-121704Y-24420D01*
X-122565Y-25469D01*
X-123205Y-26666D01*
X-123599Y-27964D01*
X-123732Y-29315D01*
X-123599Y-30666D01*
X-123205Y-31964D01*
X-122565Y-33161D01*
X-121704Y-34210D01*
X-120655Y-35071D01*
X-119458Y-35711D01*
X-118159Y-36105D01*
X-116809Y-36238D01*
X-115458Y-36105D01*
X-114159Y-35711D01*
X-112962Y-35071D01*
X-111913Y-34210D01*
X-111052Y-33161D01*
X-110413Y-31964D01*
X-110019Y-30666D01*
X-109886Y-29315D01*
X-110019Y-27964D01*
X-110413Y-26666D01*
X-111052Y-25469D01*
X-111913Y-24420D01*
X-112962Y-23559D01*
X-114159Y-22919D01*
X-115458Y-22525D01*
X-116809Y-22392D01*
D02*
G37*
G36*
X-94488Y-31840D02*
X-98425D01*
X-99453Y-31975D01*
X-100411Y-32372D01*
X-101233Y-33003D01*
X-101864Y-33825D01*
X-102261Y-34783D01*
X-102396Y-35811D01*
Y-47622D01*
X-102261Y-48650D01*
X-101864Y-49608D01*
X-101233Y-50430D01*
X-100411Y-51061D01*
X-99453Y-51458D01*
X-98425Y-51593D01*
X-94488D01*
X-93460Y-51458D01*
X-92503Y-51061D01*
X-91680Y-50430D01*
X-91049Y-49608D01*
X-90653Y-48650D01*
X-90517Y-47622D01*
Y-35811D01*
X-90653Y-34783D01*
X-91049Y-33825D01*
X-91680Y-33003D01*
X-92503Y-32372D01*
X-93460Y-31975D01*
X-94488Y-31840D01*
D02*
G37*
G36*
X-35433Y-31567D02*
X-36872Y-31756D01*
X-38213Y-32311D01*
X-39364Y-33195D01*
X-40248Y-34346D01*
X-40803Y-35687D01*
X-40992Y-37126D01*
X-40803Y-38565D01*
X-40248Y-39906D01*
X-39364Y-41057D01*
X-38213Y-41941D01*
X-36872Y-42496D01*
X-35433Y-42685D01*
X-33994Y-42496D01*
X-32653Y-41941D01*
X-31502Y-41057D01*
X-30619Y-39906D01*
X-30063Y-38565D01*
X-29874Y-37126D01*
X-30063Y-35687D01*
X-30619Y-34346D01*
X-31502Y-33195D01*
X-32653Y-32311D01*
X-33994Y-31756D01*
X-35433Y-31567D01*
D02*
G37*
G36*
X-78740Y-8804D02*
X-80284Y-8957D01*
X-81768Y-9407D01*
X-83136Y-10138D01*
X-84335Y-11122D01*
X-85319Y-12321D01*
X-86050Y-13689D01*
X-86500Y-15173D01*
X-86652Y-16716D01*
X-86500Y-18260D01*
X-86050Y-19744D01*
X-85319Y-21112D01*
X-84335Y-22311D01*
X-83136Y-23295D01*
X-81768Y-24026D01*
X-80284Y-24477D01*
X-78740Y-24629D01*
X-77197Y-24477D01*
X-75712Y-24026D01*
X-74344Y-23295D01*
X-73146Y-22311D01*
X-72162Y-21112D01*
X-71430Y-19744D01*
X-70980Y-18260D01*
X-70828Y-16716D01*
X-70980Y-15173D01*
X-71430Y-13689D01*
X-72162Y-12321D01*
X-73146Y-11122D01*
X-74344Y-10138D01*
X-75712Y-9407D01*
X-77197Y-8957D01*
X-78740Y-8804D01*
D02*
G37*
G36*
X42402Y-10941D02*
X41063Y-11117D01*
X40874Y-11126D01*
X37913Y-10988D01*
Y-10988D01*
X26890D01*
Y-22012D01*
X37913D01*
X37913Y-22012D01*
X40874Y-21874D01*
X41063Y-21883D01*
X42402Y-22059D01*
X43840Y-21870D01*
X45181Y-21315D01*
X46333Y-20431D01*
X47216Y-19280D01*
X47771Y-17939D01*
X47961Y-16500D01*
X47771Y-15061D01*
X47216Y-13720D01*
X46333Y-12569D01*
X45181Y-11686D01*
X43840Y-11130D01*
X42402Y-10941D01*
D02*
G37*
G36*
X72835Y-13751D02*
X71677Y-13865D01*
X70564Y-14203D01*
X69538Y-14751D01*
X68639Y-15489D01*
X67901Y-16388D01*
X67352Y-17414D01*
X67015Y-18527D01*
X66901Y-19685D01*
X67015Y-20843D01*
X67352Y-21956D01*
X67901Y-22982D01*
X68639Y-23881D01*
X69538Y-24619D01*
X70564Y-25167D01*
X71677Y-25505D01*
X72835Y-25619D01*
X73992Y-25505D01*
X75106Y-25167D01*
X76131Y-24619D01*
X77031Y-23881D01*
X77769Y-22982D01*
X78317Y-21956D01*
X78655Y-20843D01*
X78769Y-19685D01*
X78655Y-18527D01*
X78317Y-17414D01*
X77769Y-16388D01*
X77031Y-15489D01*
X76131Y-14751D01*
X75106Y-14203D01*
X73992Y-13865D01*
X72835Y-13751D01*
D02*
G37*
G36*
X112992D02*
X111834Y-13865D01*
X110721Y-14203D01*
X109695Y-14751D01*
X108796Y-15489D01*
X108058Y-16388D01*
X107510Y-17414D01*
X107172Y-18527D01*
X107058Y-19685D01*
X107172Y-20843D01*
X107510Y-21956D01*
X108058Y-22982D01*
X108796Y-23881D01*
X109695Y-24619D01*
X110721Y-25167D01*
X111834Y-25505D01*
X112992Y-25619D01*
X114150Y-25505D01*
X115263Y-25167D01*
X116289Y-24619D01*
X117188Y-23881D01*
X117926Y-22982D01*
X118474Y-21956D01*
X118812Y-20843D01*
X118926Y-19685D01*
X118812Y-18527D01*
X118474Y-17414D01*
X117926Y-16388D01*
X117188Y-15489D01*
X116289Y-14751D01*
X115263Y-14203D01*
X114150Y-13865D01*
X112992Y-13751D01*
D02*
G37*
G36*
X77500Y-110577D02*
X76149Y-110710D01*
X74851Y-111104D01*
X73654Y-111744D01*
X72605Y-112605D01*
X71744Y-113654D01*
X71104Y-114851D01*
X70710Y-116149D01*
X70577Y-117500D01*
X70710Y-118851D01*
X71104Y-120149D01*
X71744Y-121346D01*
X72605Y-122395D01*
X73654Y-123256D01*
X74851Y-123896D01*
X76149Y-124290D01*
X77500Y-124423D01*
X78851Y-124290D01*
X80149Y-123896D01*
X81346Y-123256D01*
X82395Y-122395D01*
X83256Y-121346D01*
X83896Y-120149D01*
X84290Y-118851D01*
X84423Y-117500D01*
X84290Y-116149D01*
X83896Y-114851D01*
X83256Y-113654D01*
X82395Y-112605D01*
X81346Y-111744D01*
X80149Y-111104D01*
X78851Y-110710D01*
X77500Y-110577D01*
D02*
G37*
G36*
X-79240Y-69304D02*
X-80784Y-69456D01*
X-82268Y-69907D01*
X-83636Y-70638D01*
X-84835Y-71622D01*
X-85819Y-72821D01*
X-86550Y-74189D01*
X-87000Y-75673D01*
X-87152Y-77217D01*
X-87000Y-78760D01*
X-86550Y-80244D01*
X-85819Y-81612D01*
X-84835Y-82811D01*
X-83636Y-83795D01*
X-82268Y-84526D01*
X-80784Y-84977D01*
X-79240Y-85129D01*
X-77697Y-84977D01*
X-76212Y-84526D01*
X-74844Y-83795D01*
X-73646Y-82811D01*
X-72662Y-81612D01*
X-71930Y-80244D01*
X-71480Y-78760D01*
X-71328Y-77217D01*
X-71480Y-75673D01*
X-71930Y-74189D01*
X-72662Y-72821D01*
X-73646Y-71622D01*
X-74844Y-70638D01*
X-76212Y-69907D01*
X-77697Y-69456D01*
X-79240Y-69304D01*
D02*
G37*
G36*
X-118110Y-106263D02*
X-119964Y-106409D01*
X-121771Y-106843D01*
X-123489Y-107554D01*
X-125074Y-108525D01*
X-126488Y-109733D01*
X-127695Y-111146D01*
X-128666Y-112732D01*
X-129378Y-114449D01*
X-129812Y-116257D01*
X-129958Y-118110D01*
X-129812Y-119964D01*
X-129378Y-121771D01*
X-128666Y-123489D01*
X-127695Y-125074D01*
X-126488Y-126488D01*
X-125074Y-127695D01*
X-123489Y-128666D01*
X-121771Y-129378D01*
X-119964Y-129812D01*
X-118110Y-129958D01*
X-116257Y-129812D01*
X-114449Y-129378D01*
X-112732Y-128666D01*
X-111146Y-127695D01*
X-109733Y-126488D01*
X-108525Y-125074D01*
X-107554Y-123489D01*
X-106843Y-121771D01*
X-106409Y-119964D01*
X-106263Y-118110D01*
X-106409Y-116257D01*
X-106843Y-114449D01*
X-107554Y-112732D01*
X-108525Y-111146D01*
X-109733Y-109733D01*
X-111146Y-108525D01*
X-112732Y-107554D01*
X-114449Y-106843D01*
X-116257Y-106409D01*
X-118110Y-106263D01*
D02*
G37*
G36*
X118110D02*
X116257Y-106409D01*
X114449Y-106843D01*
X112732Y-107554D01*
X111146Y-108525D01*
X109733Y-109733D01*
X108525Y-111146D01*
X107554Y-112732D01*
X106843Y-114449D01*
X106409Y-116257D01*
X106263Y-118110D01*
X106409Y-119964D01*
X106843Y-121771D01*
X107554Y-123489D01*
X108525Y-125074D01*
X109733Y-126488D01*
X111146Y-127695D01*
X112732Y-128666D01*
X114449Y-129378D01*
X116257Y-129812D01*
X118110Y-129958D01*
X119964Y-129812D01*
X121771Y-129378D01*
X123489Y-128666D01*
X125074Y-127695D01*
X126488Y-126488D01*
X127695Y-125074D01*
X128666Y-123489D01*
X129378Y-121771D01*
X129812Y-119964D01*
X129958Y-118110D01*
X129812Y-116257D01*
X129378Y-114449D01*
X128666Y-112732D01*
X127695Y-111146D01*
X126488Y-109733D01*
X125074Y-108525D01*
X123489Y-107554D01*
X121771Y-106843D01*
X119964Y-106409D01*
X118110Y-106263D01*
D02*
G37*
G36*
X-500Y-41441D02*
X-1939Y-41630D01*
X-3280Y-42185D01*
X-4431Y-43069D01*
X-5314Y-44220D01*
X-5870Y-45561D01*
X-6051Y-46935D01*
X-14145Y-55029D01*
X-47621D01*
X-48720Y-54185D01*
X-50061Y-53630D01*
X-51500Y-53441D01*
X-52939Y-53630D01*
X-54280Y-54185D01*
X-55431Y-55069D01*
X-56314Y-56220D01*
X-56870Y-57561D01*
X-57059Y-59000D01*
X-56870Y-60439D01*
X-56314Y-61780D01*
X-55431Y-62931D01*
X-54280Y-63815D01*
X-52939Y-64370D01*
X-51500Y-64559D01*
X-50061Y-64370D01*
X-48720Y-63815D01*
X-47621Y-62971D01*
X-12500D01*
X-11472Y-62836D01*
X-10514Y-62439D01*
X-9692Y-61808D01*
X-435Y-52551D01*
X939Y-52370D01*
X2280Y-51815D01*
X3431Y-50931D01*
X4315Y-49780D01*
X4870Y-48439D01*
X5059Y-47000D01*
X4870Y-45561D01*
X4315Y-44220D01*
X3431Y-43069D01*
X2280Y-42185D01*
X939Y-41630D01*
X-500Y-41441D01*
D02*
G37*
G36*
X35433Y-31567D02*
X33994Y-31756D01*
X32653Y-32311D01*
X31502Y-33195D01*
X30619Y-34346D01*
X30063Y-35687D01*
X29874Y-37126D01*
X30063Y-38565D01*
X30619Y-39906D01*
X31502Y-41057D01*
Y-43195D01*
X30619Y-44346D01*
X30063Y-45687D01*
X29874Y-47126D01*
X30063Y-48565D01*
X30619Y-49906D01*
X31502Y-51057D01*
X32653Y-51941D01*
X33994Y-52496D01*
X35433Y-52685D01*
X36872Y-52496D01*
X38213Y-51941D01*
X39364Y-51057D01*
X40248Y-49906D01*
X40803Y-48565D01*
X40992Y-47126D01*
X40803Y-45687D01*
X40248Y-44346D01*
X39364Y-43195D01*
Y-41057D01*
X40248Y-39906D01*
X40803Y-38565D01*
X40992Y-37126D01*
X40803Y-35687D01*
X40248Y-34346D01*
X39364Y-33195D01*
X38213Y-32311D01*
X36872Y-31756D01*
X35433Y-31567D01*
D02*
G37*
G36*
X118480Y-70077D02*
X117130Y-70210D01*
X115831Y-70604D01*
X114634Y-71244D01*
X113585Y-72105D01*
X112724Y-73154D01*
X112084Y-74351D01*
X111690Y-75649D01*
X111557Y-77000D01*
X111690Y-78351D01*
X112084Y-79649D01*
X112724Y-80846D01*
X113585Y-81895D01*
X114634Y-82756D01*
X115831Y-83396D01*
X117130Y-83790D01*
X118480Y-83923D01*
X119831Y-83790D01*
X121130Y-83396D01*
X122327Y-82756D01*
X123376Y-81895D01*
X124237Y-80846D01*
X124876Y-79649D01*
X125270Y-78351D01*
X125403Y-77000D01*
X125270Y-75649D01*
X124876Y-74351D01*
X124237Y-73154D01*
X123376Y-72105D01*
X122327Y-71244D01*
X121130Y-70604D01*
X119831Y-70210D01*
X118480Y-70077D01*
D02*
G37*
G36*
X-116809Y-61762D02*
X-118159Y-61895D01*
X-119458Y-62289D01*
X-120655Y-62929D01*
X-121704Y-63790D01*
X-122565Y-64839D01*
X-123205Y-66036D01*
X-123599Y-67334D01*
X-123732Y-68685D01*
X-123599Y-70036D01*
X-123205Y-71334D01*
X-122565Y-72531D01*
X-121704Y-73580D01*
X-120655Y-74441D01*
X-119458Y-75081D01*
X-118159Y-75475D01*
X-116809Y-75608D01*
X-115458Y-75475D01*
X-114159Y-75081D01*
X-112962Y-74441D01*
X-111913Y-73580D01*
X-111052Y-72531D01*
X-110413Y-71334D01*
X-110019Y-70036D01*
X-109886Y-68685D01*
X-110019Y-67334D01*
X-110413Y-66036D01*
X-111052Y-64839D01*
X-111913Y-63790D01*
X-112962Y-62929D01*
X-114159Y-62289D01*
X-115458Y-61895D01*
X-116809Y-61762D01*
D02*
G37*
G36*
X-6157Y1162D02*
X-7494Y986D01*
X-8739Y471D01*
X-9808Y-350D01*
X-10628Y-1419D01*
X-11144Y-2664D01*
X-11320Y-4000D01*
X-11144Y-5336D01*
X-10628Y-6581D01*
X-9808Y-7650D01*
X-8739Y-8471D01*
X-7494Y-8986D01*
X-6157Y-9162D01*
X-4821Y-8986D01*
X-3576Y-8471D01*
X-2507Y-7650D01*
X-1687Y-6581D01*
X-1171Y-5336D01*
X-995Y-4000D01*
X-1171Y-2664D01*
X-1687Y-1419D01*
X-2507Y-350D01*
X-3576Y471D01*
X-4821Y986D01*
X-6157Y1162D01*
D02*
G37*
G36*
X-100000Y97059D02*
X-101439Y96870D01*
X-102780Y96315D01*
X-103931Y95431D01*
X-104815Y94280D01*
X-105370Y92939D01*
X-105559Y91500D01*
X-105370Y90061D01*
X-104815Y88720D01*
X-103931Y87569D01*
Y85431D01*
X-104815Y84280D01*
X-105370Y82939D01*
X-105559Y81500D01*
X-105370Y80061D01*
X-104815Y78720D01*
X-103931Y77569D01*
Y75431D01*
X-104815Y74280D01*
X-105370Y72939D01*
X-105559Y71500D01*
X-105370Y70061D01*
X-104815Y68720D01*
X-103931Y67569D01*
X-102780Y66685D01*
X-101439Y66130D01*
X-100000Y65941D01*
X-98561Y66130D01*
X-97220Y66685D01*
X-96069Y67569D01*
X-95186Y68720D01*
X-94630Y70061D01*
X-94441Y71500D01*
X-94630Y72939D01*
X-95186Y74280D01*
X-96069Y75431D01*
Y77569D01*
X-95186Y78720D01*
X-94630Y80061D01*
X-94441Y81500D01*
X-94630Y82939D01*
X-95186Y84280D01*
X-96069Y85431D01*
Y87569D01*
X-95186Y88720D01*
X-94630Y90061D01*
X-94441Y91500D01*
X-94630Y92939D01*
X-95186Y94280D01*
X-96069Y95431D01*
X-97220Y96315D01*
X-98561Y96870D01*
X-100000Y97059D01*
D02*
G37*
G36*
X68205Y102576D02*
X67047Y102462D01*
X65934Y102124D01*
X64908Y101576D01*
X64009Y100838D01*
X63271Y99938D01*
X62722Y98913D01*
X62385Y97799D01*
X62271Y96642D01*
X62385Y95484D01*
X62722Y94371D01*
X63271Y93345D01*
X64009Y92446D01*
X64908Y91708D01*
X65934Y91159D01*
X67047Y90822D01*
X68205Y90708D01*
X69362Y90822D01*
X70476Y91159D01*
X71501Y91708D01*
X72401Y92446D01*
X73139Y93345D01*
X73687Y94371D01*
X74025Y95484D01*
X74139Y96642D01*
X74025Y97799D01*
X73687Y98913D01*
X73139Y99938D01*
X72401Y100838D01*
X71501Y101576D01*
X70476Y102124D01*
X69362Y102462D01*
X68205Y102576D01*
D02*
G37*
G36*
X78740Y41111D02*
X77301Y40921D01*
X75960Y40366D01*
X74809Y39482D01*
X73926Y38331D01*
X73370Y36990D01*
X73181Y35551D01*
X73370Y34112D01*
X73926Y32772D01*
X74809Y31620D01*
X75960Y30737D01*
X77301Y30181D01*
X78740Y29992D01*
X80179Y30181D01*
X81520Y30737D01*
X82671Y31620D01*
X83555Y32772D01*
X84110Y34112D01*
X84299Y35551D01*
X84110Y36990D01*
X83555Y38331D01*
X82671Y39482D01*
X81520Y40366D01*
X80179Y40921D01*
X78740Y41111D01*
D02*
G37*
G36*
X26575Y59281D02*
X25417Y59167D01*
X24304Y58829D01*
X23278Y58280D01*
X22379Y57543D01*
X21641Y56643D01*
X21092Y55617D01*
X20755Y54504D01*
X20641Y53347D01*
X20755Y52189D01*
X21092Y51076D01*
X21641Y50050D01*
X22379Y49150D01*
X23278Y48412D01*
X24304Y47864D01*
X25417Y47526D01*
X26575Y47412D01*
X27733Y47526D01*
X28846Y47864D01*
X29872Y48412D01*
X30771Y49150D01*
X31509Y50050D01*
X32057Y51076D01*
X32395Y52189D01*
X32509Y53347D01*
X32395Y54504D01*
X32057Y55617D01*
X31509Y56643D01*
X30771Y57543D01*
X29872Y58280D01*
X28846Y58829D01*
X27733Y59167D01*
X26575Y59281D01*
D02*
G37*
G36*
X-118110Y129958D02*
X-119964Y129812D01*
X-121771Y129378D01*
X-123489Y128666D01*
X-125074Y127695D01*
X-126488Y126488D01*
X-127695Y125074D01*
X-128666Y123489D01*
X-129378Y121771D01*
X-129812Y119964D01*
X-129958Y118110D01*
X-129812Y116257D01*
X-129378Y114449D01*
X-128666Y112732D01*
X-127695Y111146D01*
X-126488Y109733D01*
X-125074Y108525D01*
X-123489Y107554D01*
X-121771Y106843D01*
X-119964Y106409D01*
X-118110Y106263D01*
X-116257Y106409D01*
X-114449Y106843D01*
X-112732Y107554D01*
X-111146Y108525D01*
X-109733Y109733D01*
X-108525Y111146D01*
X-107554Y112732D01*
X-106843Y114449D01*
X-106409Y116257D01*
X-106263Y118110D01*
X-106409Y119964D01*
X-106843Y121771D01*
X-107554Y123489D01*
X-108525Y125074D01*
X-109733Y126488D01*
X-111146Y127695D01*
X-112732Y128666D01*
X-114449Y129378D01*
X-116257Y129812D01*
X-118110Y129958D01*
D02*
G37*
G36*
X118110D02*
X116257Y129812D01*
X114449Y129378D01*
X112732Y128666D01*
X111146Y127695D01*
X109733Y126488D01*
X108525Y125074D01*
X107554Y123489D01*
X106843Y121771D01*
X106409Y119964D01*
X106263Y118110D01*
X106409Y116257D01*
X106843Y114449D01*
X107554Y112732D01*
X108525Y111146D01*
X109733Y109733D01*
X111146Y108525D01*
X112732Y107554D01*
X114449Y106843D01*
X116257Y106409D01*
X118110Y106263D01*
X119964Y106409D01*
X121771Y106843D01*
X123489Y107554D01*
X125074Y108525D01*
X126488Y109733D01*
X127695Y111146D01*
X128666Y112732D01*
X129378Y114449D01*
X129812Y116257D01*
X129958Y118110D01*
X129812Y119964D01*
X129378Y121771D01*
X128666Y123489D01*
X127695Y125074D01*
X126488Y126488D01*
X125074Y127695D01*
X123489Y128666D01*
X121771Y129378D01*
X119964Y129812D01*
X118110Y129958D01*
D02*
G37*
G36*
X93795Y102576D02*
X92638Y102462D01*
X91524Y102124D01*
X90499Y101576D01*
X89599Y100838D01*
X88861Y99938D01*
X88313Y98913D01*
X87975Y97799D01*
X87861Y96642D01*
X87975Y95484D01*
X88313Y94371D01*
X88861Y93345D01*
X89599Y92446D01*
X90499Y91708D01*
X91524Y91159D01*
X92638Y90822D01*
X93795Y90708D01*
X94953Y90822D01*
X96066Y91159D01*
X97092Y91708D01*
X97991Y92446D01*
X98729Y93345D01*
X99278Y94371D01*
X99615Y95484D01*
X99729Y96642D01*
X99615Y97799D01*
X99278Y98913D01*
X98729Y99938D01*
X97991Y100838D01*
X97092Y101576D01*
X96066Y102124D01*
X94953Y102462D01*
X93795Y102576D01*
D02*
G37*
G36*
X51500Y116559D02*
X50061Y116370D01*
X48720Y115815D01*
X47621Y114971D01*
X31500D01*
X30472Y114836D01*
X29515Y114439D01*
X28692Y113808D01*
X-7645Y77471D01*
X-74000D01*
X-75028Y77336D01*
X-75985Y76939D01*
X-76808Y76308D01*
X-92645Y60471D01*
X-102619D01*
X-102804Y60696D01*
X-103703Y61434D01*
X-104729Y61982D01*
X-105842Y62320D01*
X-107000Y62434D01*
X-108158Y62320D01*
X-109271Y61982D01*
X-110297Y61434D01*
X-111196Y60696D01*
X-111934Y59797D01*
X-112482Y58771D01*
X-112820Y57658D01*
X-112934Y56500D01*
X-112820Y55342D01*
X-112482Y54229D01*
X-111934Y53203D01*
X-111196Y52304D01*
X-110971Y52119D01*
Y13500D01*
X-110836Y12472D01*
X-110439Y11514D01*
X-109808Y10692D01*
X-94808Y-4308D01*
X-93985Y-4939D01*
X-93028Y-5336D01*
X-92000Y-5471D01*
X-60145D01*
X-42308Y-23308D01*
X-41486Y-23939D01*
X-40528Y-24336D01*
X-39500Y-24471D01*
X6500D01*
X7528Y-24336D01*
X8485Y-23939D01*
X9308Y-23308D01*
X12565Y-20051D01*
X13939Y-19870D01*
X15280Y-19315D01*
X16431Y-18431D01*
X17314Y-17280D01*
X17870Y-15939D01*
X18059Y-14500D01*
X17870Y-13061D01*
X17314Y-11720D01*
X16431Y-10569D01*
X15280Y-9685D01*
X13939Y-9130D01*
X12500Y-8941D01*
X11061Y-9130D01*
X9720Y-9685D01*
X8569Y-10569D01*
X7685Y-11720D01*
X7130Y-13061D01*
X6949Y-14435D01*
X4855Y-16529D01*
X-37855D01*
X-55692Y1308D01*
X-56515Y1939D01*
X-57472Y2336D01*
X-58500Y2471D01*
X-90355D01*
X-103029Y15145D01*
Y52119D01*
X-102804Y52304D01*
X-102619Y52529D01*
X-91000D01*
X-89972Y52664D01*
X-89015Y53061D01*
X-88192Y53692D01*
X-72355Y69529D01*
X-6000D01*
X-4972Y69664D01*
X-4014Y70061D01*
X-3192Y70692D01*
X33145Y107029D01*
X47621D01*
X48720Y106185D01*
X50061Y105630D01*
X51500Y105441D01*
X52939Y105630D01*
X54280Y106185D01*
X55431Y107069D01*
X56314Y108220D01*
X56870Y109561D01*
X57059Y111000D01*
X56870Y112439D01*
X56314Y113780D01*
X55431Y114931D01*
X54280Y115815D01*
X52939Y116370D01*
X51500Y116559D01*
D02*
G37*
G36*
X44291Y33690D02*
X43134Y33576D01*
X42020Y33238D01*
X40995Y32690D01*
X40095Y31952D01*
X39357Y31053D01*
X38809Y30027D01*
X38471Y28914D01*
X38357Y27756D01*
X38471Y26598D01*
X38809Y25485D01*
X39290Y24586D01*
X39363Y24391D01*
X39417Y23749D01*
X39087Y21411D01*
X38715Y20618D01*
X38471Y20431D01*
X37587Y19280D01*
X37032Y17939D01*
X36842Y16500D01*
X37032Y15061D01*
X37587Y13720D01*
X38471Y12569D01*
X39622Y11686D01*
X40963Y11130D01*
X42402Y10941D01*
X43840Y11130D01*
X45181Y11686D01*
X46333Y12569D01*
X47216Y13720D01*
X47771Y15061D01*
X47961Y16500D01*
X47771Y17939D01*
X47253Y19192D01*
X47199Y19357D01*
X47147Y19598D01*
X47531Y22407D01*
X47976Y23140D01*
X48487Y23560D01*
X49225Y24459D01*
X49774Y25485D01*
X50111Y26598D01*
X50225Y27756D01*
X50111Y28914D01*
X49774Y30027D01*
X49225Y31053D01*
X48487Y31952D01*
X47588Y32690D01*
X46562Y33238D01*
X45449Y33576D01*
X44291Y33690D01*
D02*
G37*
G36*
X72835Y25619D02*
X71677Y25505D01*
X70564Y25167D01*
X69538Y24619D01*
X68639Y23881D01*
X67901Y22982D01*
X67352Y21956D01*
X67015Y20843D01*
X66901Y19685D01*
X67015Y18527D01*
X67352Y17414D01*
X67901Y16388D01*
X68639Y15489D01*
X69538Y14751D01*
X70564Y14203D01*
X71677Y13865D01*
X72835Y13751D01*
X73992Y13865D01*
X75106Y14203D01*
X76131Y14751D01*
X77031Y15489D01*
X77769Y16388D01*
X78317Y17414D01*
X78655Y18527D01*
X78769Y19685D01*
X78655Y20843D01*
X78317Y21956D01*
X77769Y22982D01*
X77031Y23881D01*
X76131Y24619D01*
X75106Y25167D01*
X73992Y25505D01*
X72835Y25619D01*
D02*
G37*
G36*
X62992Y5934D02*
X61835Y5820D01*
X60721Y5482D01*
X59695Y4934D01*
X58796Y4196D01*
X58058Y3297D01*
X57510Y2271D01*
X57172Y1158D01*
X57058Y0D01*
X57172Y-1158D01*
X57510Y-2271D01*
X58058Y-3297D01*
X58796Y-4196D01*
X59695Y-4934D01*
X60721Y-5482D01*
X61835Y-5820D01*
X62992Y-5934D01*
X64150Y-5820D01*
X65263Y-5482D01*
X66289Y-4934D01*
X67188Y-4196D01*
X67926Y-3297D01*
X68475Y-2271D01*
X68812Y-1158D01*
X68926Y0D01*
X68812Y1158D01*
X68475Y2271D01*
X67926Y3297D01*
X67188Y4196D01*
X66289Y4934D01*
X65263Y5482D01*
X64150Y5820D01*
X62992Y5934D01*
D02*
G37*
G36*
X-79500Y17559D02*
X-80939Y17370D01*
X-82280Y16815D01*
X-83431Y15931D01*
X-84315Y14780D01*
X-84870Y13439D01*
X-85059Y12000D01*
X-84870Y10561D01*
X-84315Y9220D01*
X-83431Y8069D01*
X-82280Y7186D01*
X-80939Y6630D01*
X-79500Y6441D01*
X-78061Y6630D01*
X-76720Y7186D01*
X-75569Y8069D01*
X-74686Y9220D01*
X-74130Y10561D01*
X-73941Y12000D01*
X-74130Y13439D01*
X-74686Y14780D01*
X-75569Y15931D01*
X-76720Y16815D01*
X-78061Y17370D01*
X-79500Y17559D01*
D02*
G37*
G36*
X103500Y74471D02*
X19000D01*
X17972Y74336D01*
X17015Y73939D01*
X16192Y73308D01*
X-12594Y44522D01*
X-30199D01*
X-30782Y45930D01*
X-31754Y47515D01*
X-32961Y48929D01*
X-34375Y50136D01*
X-35960Y51107D01*
X-37677Y51819D01*
X-39485Y52253D01*
X-41339Y52399D01*
X-43192Y52253D01*
X-45000Y51819D01*
X-46717Y51107D01*
X-48302Y50136D01*
X-49716Y48929D01*
X-50923Y47515D01*
X-51895Y45930D01*
X-52606Y44212D01*
X-53040Y42404D01*
X-53186Y40551D01*
X-53040Y38698D01*
X-52606Y36890D01*
X-51895Y35173D01*
X-50923Y33587D01*
X-49716Y32174D01*
X-48302Y30966D01*
X-46717Y29995D01*
X-45000Y29283D01*
X-43192Y28850D01*
X-41339Y28704D01*
X-39485Y28850D01*
X-37677Y29283D01*
X-35960Y29995D01*
X-34375Y30966D01*
X-32961Y32174D01*
X-31754Y33587D01*
X-30782Y35173D01*
X-30199Y36580D01*
X-10949D01*
X-9921Y36715D01*
X-8963Y37112D01*
X-8141Y37743D01*
X20645Y66529D01*
X101855D01*
X120029Y48355D01*
Y38879D01*
X119185Y37780D01*
X118630Y36439D01*
X118441Y35000D01*
X118630Y33561D01*
X119185Y32220D01*
X120069Y31069D01*
X121220Y30185D01*
X122561Y29630D01*
X124000Y29441D01*
X125439Y29630D01*
X126780Y30185D01*
X127931Y31069D01*
X128815Y32220D01*
X129370Y33561D01*
X129559Y35000D01*
X129370Y36439D01*
X128815Y37780D01*
X127971Y38879D01*
Y50000D01*
X127836Y51028D01*
X127439Y51986D01*
X126808Y52808D01*
X106308Y73308D01*
X105485Y73939D01*
X104528Y74336D01*
X103500Y74471D01*
D02*
G37*
G36*
X-72835Y53399D02*
X-74688Y53253D01*
X-76496Y52819D01*
X-78213Y52107D01*
X-79799Y51136D01*
X-81212Y49929D01*
X-82420Y48515D01*
X-83391Y46930D01*
X-84102Y45212D01*
X-84536Y43404D01*
X-84682Y41551D01*
X-84536Y39698D01*
X-84102Y37890D01*
X-83391Y36173D01*
X-82420Y34587D01*
X-81212Y33174D01*
X-79799Y31966D01*
X-78213Y30995D01*
X-76496Y30283D01*
X-74688Y29849D01*
X-72835Y29704D01*
X-70981Y29849D01*
X-69174Y30283D01*
X-67456Y30995D01*
X-65871Y31966D01*
X-64457Y33174D01*
X-63250Y34587D01*
X-62278Y36173D01*
X-61567Y37890D01*
X-61133Y39698D01*
X-60987Y41551D01*
X-61133Y43404D01*
X-61567Y45212D01*
X-62278Y46930D01*
X-63250Y48515D01*
X-64457Y49929D01*
X-65871Y51136D01*
X-67456Y52107D01*
X-69174Y52819D01*
X-70981Y53253D01*
X-72835Y53399D01*
D02*
G37*
G36*
X112992Y25619D02*
X111834Y25505D01*
X110721Y25167D01*
X109695Y24619D01*
X108796Y23881D01*
X108058Y22982D01*
X107510Y21956D01*
X107172Y20843D01*
X107058Y19685D01*
X107172Y18527D01*
X107510Y17414D01*
X108058Y16388D01*
X108796Y15489D01*
X109695Y14751D01*
X110721Y14203D01*
X111834Y13865D01*
X112992Y13751D01*
X114150Y13865D01*
X115263Y14203D01*
X116289Y14751D01*
X117188Y15489D01*
X117926Y16388D01*
X118474Y17414D01*
X118812Y18527D01*
X118926Y19685D01*
X118812Y20843D01*
X118474Y21956D01*
X117926Y22982D01*
X117188Y23881D01*
X116289Y24619D01*
X115263Y25167D01*
X114150Y25505D01*
X112992Y25619D01*
D02*
G37*
G36*
X26575Y33690D02*
X25417Y33576D01*
X24304Y33238D01*
X23278Y32690D01*
X22379Y31952D01*
X21641Y31053D01*
X21092Y30027D01*
X20755Y28914D01*
X20641Y27756D01*
X20755Y26598D01*
X21092Y25485D01*
X21641Y24459D01*
X22379Y23560D01*
X23278Y22822D01*
X24304Y22274D01*
X25417Y21936D01*
X26575Y21822D01*
X27733Y21936D01*
X28846Y22274D01*
X29872Y22822D01*
X30771Y23560D01*
X31509Y24459D01*
X32057Y25485D01*
X32395Y26598D01*
X32509Y27756D01*
X32395Y28914D01*
X32057Y30027D01*
X31509Y31053D01*
X30771Y31952D01*
X29872Y32690D01*
X28846Y33238D01*
X27733Y33576D01*
X26575Y33690D01*
D02*
G37*
%LPD*%
D10*
X-72835Y41551D02*
D03*
X-41339Y40551D02*
D03*
X-118110Y-118110D02*
D03*
X118110D02*
D03*
Y118110D02*
D03*
X-118110D02*
D03*
D11*
X-6000Y73500D02*
X31500Y111000D01*
X-41339Y40551D02*
X-10949D01*
X19000Y70500D01*
X103500D01*
X124000Y50000D01*
Y35000D02*
Y50000D01*
X31500Y111000D02*
X51500D01*
X-51500Y-59000D02*
X-12500D01*
X-500Y-47000D01*
X-92000Y-1500D02*
X-58500D01*
X-107000Y13500D02*
X-92000Y-1500D01*
X-107000Y13500D02*
Y56500D01*
X-91000D01*
X-74000Y73500D01*
X-6000D01*
X-58500Y-1500D02*
X-39500Y-20500D01*
X6500D01*
X12500Y-14500D01*
D12*
X-85250Y41000D02*
D03*
D13*
X-35433Y-37126D02*
D03*
Y-47126D02*
D03*
X73740Y-42126D02*
D03*
X83740D02*
D03*
X35433Y-47126D02*
D03*
Y-37126D02*
D03*
X78740Y35551D02*
D03*
Y45551D02*
D03*
X42402Y-16500D02*
D03*
X32402Y16500D02*
D03*
X42402D02*
D03*
X-100000Y91500D02*
D03*
Y71500D02*
D03*
Y81500D02*
D03*
Y101500D02*
D03*
X-79500Y12000D02*
D03*
X-69500D02*
D03*
X-51500Y-59000D02*
D03*
X124000Y35000D02*
D03*
X51500Y111000D02*
D03*
X12500Y-14500D02*
D03*
X-500Y-47000D02*
D03*
D14*
X44291Y53347D02*
D03*
Y27756D02*
D03*
X26575Y53347D02*
D03*
Y27756D02*
D03*
X62992Y0D02*
D03*
X72835Y19685D02*
D03*
Y-19685D02*
D03*
X112992Y19685D02*
D03*
Y-19685D02*
D03*
X68205Y114358D02*
D03*
X93795D02*
D03*
X68205Y96642D02*
D03*
X93795D02*
D03*
X-107000Y56500D02*
D03*
D15*
X-96457Y-41717D02*
D03*
D16*
X-75740Y-51717D02*
D03*
X-84240Y-64217D02*
D03*
D17*
X-78740Y-16716D02*
D03*
X-79240Y-77217D02*
D03*
D18*
X-84240Y-64217D02*
D03*
X-82677D02*
D03*
X-80709D02*
D03*
X-86614D02*
D03*
X-88583D02*
D03*
X-80083Y-51717D02*
D03*
X-78114D02*
D03*
X-72209D02*
D03*
X-74177D02*
D03*
X-75740D02*
D03*
X-96457Y-46059D02*
D03*
Y-44091D02*
D03*
Y-38185D02*
D03*
Y-40154D02*
D03*
Y-41717D02*
D03*
X50000Y-27000D02*
D03*
X-54000Y12000D02*
D03*
D19*
X32402Y-16500D02*
D03*
D20*
X-116809Y-29315D02*
D03*
Y-68685D02*
D03*
X77500Y-117500D02*
D03*
X-79980D02*
D03*
X118480Y-77000D02*
D03*
X-39000D02*
D03*
D21*
X-25842Y-4000D02*
D03*
X-6157D02*
D03*
M02*
