G04 Layer_Physical_Order=2*
G04 Layer_Color=16711680*
%FSLAX25Y25*%
%MOIN*%
G70*
G01*
G75*
%ADD10C,0.19685*%
%ADD11C,0.03937*%
%ADD13C,0.07087*%
%ADD14C,0.07874*%
G04:AMPARAMS|DCode=15|XSize=157.48mil|YSize=78.74mil|CornerRadius=19.68mil|HoleSize=0mil|Usage=FLASHONLY|Rotation=90.000|XOffset=0mil|YOffset=0mil|HoleType=Round|Shape=RoundedRectangle|*
%AMROUNDEDRECTD15*
21,1,0.15748,0.03937,0,0,90.0*
21,1,0.11811,0.07874,0,0,90.0*
1,1,0.03937,0.01968,0.05905*
1,1,0.03937,0.01968,-0.05905*
1,1,0.03937,-0.01968,-0.05905*
1,1,0.03937,-0.01968,0.05905*
%
%ADD15ROUNDEDRECTD15*%
G04:AMPARAMS|DCode=16|XSize=157.48mil|YSize=78.74mil|CornerRadius=19.68mil|HoleSize=0mil|Usage=FLASHONLY|Rotation=0.000|XOffset=0mil|YOffset=0mil|HoleType=Round|Shape=RoundedRectangle|*
%AMROUNDEDRECTD16*
21,1,0.15748,0.03937,0,0,0.0*
21,1,0.11811,0.07874,0,0,0.0*
1,1,0.03937,0.05905,-0.01968*
1,1,0.03937,-0.05905,-0.01968*
1,1,0.03937,-0.05905,0.01968*
1,1,0.03937,0.05905,0.01968*
%
%ADD16ROUNDEDRECTD16*%
%ADD17C,0.11811*%
%ADD18C,0.06000*%
%ADD19R,0.07087X0.07087*%
%ADD20C,0.09842*%
%ADD21C,0.06299*%
%ADD22R,0.05905X0.05118*%
%ADD23R,0.05118X0.05905*%
%ADD24R,0.19685X0.19685*%
%ADD25R,0.03543X0.09842*%
%ADD26R,0.09842X0.03543*%
%ADD27R,0.03150X0.04724*%
%ADD28R,0.04724X0.03150*%
%ADD29R,0.06299X0.11811*%
%ADD30R,0.23622X0.27559*%
%ADD31C,0.03150*%
%ADD32C,0.05905*%
%ADD33C,0.05118*%
%ADD34R,0.17500X0.20000*%
%ADD35R,0.14000X0.05000*%
G36*
X133858Y-133858D02*
X-133858D01*
Y133858D01*
X-96495D01*
Y114173D01*
Y113786D01*
X-96457Y113592D01*
Y113394D01*
X-96305Y112633D01*
X-96230Y112451D01*
X-96191Y112257D01*
X-95894Y111540D01*
X-95785Y111376D01*
X-95709Y111193D01*
X-95278Y110548D01*
X-95138Y110409D01*
X-95029Y110244D01*
X-94480Y109696D01*
X-94316Y109586D01*
X-94176Y109446D01*
X-93531Y109016D01*
X-93348Y108940D01*
X-93184Y108830D01*
X-92468Y108533D01*
X-92274Y108495D01*
X-92091Y108419D01*
X-91330Y108268D01*
X-91133D01*
X-90939Y108229D01*
X12199D01*
X12393Y108268D01*
X12590D01*
X13351Y108419D01*
X13534Y108495D01*
X13727Y108533D01*
X14444Y108830D01*
X14608Y108940D01*
X14791Y109016D01*
X15436Y109446D01*
X15576Y109586D01*
X15740Y109696D01*
X16288Y110244D01*
X16398Y110409D01*
X16538Y110548D01*
X16969Y111193D01*
X17044Y111376D01*
X17154Y111540D01*
X17451Y112257D01*
X17490Y112451D01*
X17565Y112633D01*
X17717Y113394D01*
Y113592D01*
X17755Y113786D01*
Y114173D01*
Y133858D01*
X133858D01*
Y-133858D01*
D02*
G37*
%LPC*%
G36*
X-78740Y-8804D02*
X-80284Y-8957D01*
X-81768Y-9407D01*
X-83136Y-10138D01*
X-84335Y-11122D01*
X-85319Y-12321D01*
X-86050Y-13689D01*
X-86500Y-15173D01*
X-86652Y-16716D01*
X-86500Y-18260D01*
X-86050Y-19744D01*
X-85319Y-21112D01*
X-84335Y-22311D01*
X-83136Y-23295D01*
X-81768Y-24026D01*
X-80284Y-24477D01*
X-78740Y-24629D01*
X-77197Y-24477D01*
X-75712Y-24026D01*
X-74344Y-23295D01*
X-73146Y-22311D01*
X-72162Y-21112D01*
X-71430Y-19744D01*
X-70980Y-18260D01*
X-70828Y-16716D01*
X-70980Y-15173D01*
X-71430Y-13689D01*
X-72162Y-12321D01*
X-73146Y-11122D01*
X-74344Y-10138D01*
X-75712Y-9407D01*
X-77197Y-8957D01*
X-78740Y-8804D01*
D02*
G37*
G36*
X78740Y41111D02*
X77301Y40921D01*
X75960Y40366D01*
X74809Y39482D01*
X73926Y38331D01*
X73370Y36990D01*
X73181Y35551D01*
X73370Y34112D01*
X73926Y32772D01*
X74809Y31620D01*
X75960Y30737D01*
X77301Y30181D01*
X78740Y29992D01*
X80179Y30181D01*
X81520Y30737D01*
X82619Y31580D01*
X98945D01*
Y30579D01*
X104850D01*
X108000Y30579D01*
X111150Y30579D01*
X117055D01*
X117055Y30579D01*
X117277Y30606D01*
X120426Y27819D01*
Y24765D01*
X117277Y23773D01*
X117188Y23881D01*
X116289Y24619D01*
X115263Y25167D01*
X114150Y25505D01*
X112992Y25619D01*
X111834Y25505D01*
X110721Y25167D01*
X109695Y24619D01*
X108796Y23881D01*
X108058Y22982D01*
X107510Y21956D01*
X107172Y20843D01*
X107058Y19685D01*
X107172Y18527D01*
X107510Y17414D01*
X108058Y16388D01*
X108796Y15489D01*
X109695Y14751D01*
X110721Y14203D01*
X111834Y13865D01*
X112992Y13751D01*
X114150Y13865D01*
X115263Y14203D01*
X116289Y14751D01*
X117188Y15489D01*
X117277Y15597D01*
X120426Y14605D01*
Y4480D01*
X110465Y-5481D01*
X109897Y-6221D01*
X109540Y-7083D01*
X109418Y-8008D01*
Y-14978D01*
X108796Y-15489D01*
X108058Y-16388D01*
X107510Y-17414D01*
X107172Y-18527D01*
X107058Y-19685D01*
X107172Y-20843D01*
X107510Y-21956D01*
X108058Y-22982D01*
X108796Y-23881D01*
X109695Y-24619D01*
X110721Y-25167D01*
X111774Y-25487D01*
X113536Y-27249D01*
Y-72164D01*
X112724Y-73154D01*
X112084Y-74351D01*
X111690Y-75649D01*
X111568Y-76893D01*
X77849Y-110611D01*
X77500Y-110577D01*
X76149Y-110710D01*
X74851Y-111104D01*
X73654Y-111744D01*
X72605Y-112605D01*
X71744Y-113654D01*
X71104Y-114851D01*
X70710Y-116149D01*
X70577Y-117500D01*
X70710Y-118851D01*
X71104Y-120149D01*
X71744Y-121346D01*
X72605Y-122395D01*
X73654Y-123256D01*
X74851Y-123896D01*
X76149Y-124290D01*
X77500Y-124423D01*
X78851Y-124290D01*
X80149Y-123896D01*
X81346Y-123256D01*
X82395Y-122395D01*
X83256Y-121346D01*
X83896Y-120149D01*
X84290Y-118851D01*
X84360Y-118140D01*
X118588Y-83912D01*
X119831Y-83790D01*
X121130Y-83396D01*
X122327Y-82756D01*
X123376Y-81895D01*
X124237Y-80846D01*
X124876Y-79649D01*
X125270Y-78351D01*
X125403Y-77000D01*
X125270Y-75649D01*
X124876Y-74351D01*
X124237Y-73154D01*
X123464Y-72212D01*
Y-25193D01*
X123295Y-23908D01*
X122799Y-22711D01*
X122010Y-21683D01*
X118794Y-18467D01*
X118474Y-17414D01*
X117926Y-16388D01*
X117188Y-15489D01*
X116566Y-14978D01*
Y-9488D01*
X126527Y473D01*
X127095Y1213D01*
X127452Y2075D01*
X127574Y3000D01*
Y30795D01*
X127931Y31069D01*
X128815Y32220D01*
X129370Y33561D01*
X129559Y35000D01*
X129370Y36439D01*
X128815Y37780D01*
X127931Y38931D01*
X126780Y39815D01*
X125439Y40370D01*
X124000Y40559D01*
X122561Y40370D01*
X121220Y39815D01*
X120205Y39035D01*
X118042Y39375D01*
X117055Y39592D01*
Y40421D01*
X111150D01*
X108000Y40421D01*
X104850Y40421D01*
X98945D01*
Y39522D01*
X82619D01*
X81520Y40366D01*
X80179Y40921D01*
X78740Y41111D01*
D02*
G37*
G36*
X-79240Y-69304D02*
X-80784Y-69456D01*
X-82268Y-69907D01*
X-83636Y-70638D01*
X-84835Y-71622D01*
X-85819Y-72821D01*
X-86550Y-74189D01*
X-87000Y-75673D01*
X-87152Y-77217D01*
X-87000Y-78760D01*
X-86550Y-80244D01*
X-85819Y-81612D01*
X-84835Y-82811D01*
X-83636Y-83795D01*
X-82268Y-84526D01*
X-80784Y-84977D01*
X-79240Y-85129D01*
X-77697Y-84977D01*
X-76212Y-84526D01*
X-74844Y-83795D01*
X-73646Y-82811D01*
X-72662Y-81612D01*
X-71930Y-80244D01*
X-71480Y-78760D01*
X-71328Y-77217D01*
X-71480Y-75673D01*
X-71930Y-74189D01*
X-72662Y-72821D01*
X-73646Y-71622D01*
X-74844Y-70638D01*
X-76212Y-69907D01*
X-77697Y-69456D01*
X-79240Y-69304D01*
D02*
G37*
G36*
X-118110Y-106263D02*
X-119964Y-106409D01*
X-121771Y-106843D01*
X-123489Y-107554D01*
X-125074Y-108525D01*
X-126488Y-109733D01*
X-127695Y-111146D01*
X-128666Y-112732D01*
X-129378Y-114449D01*
X-129812Y-116257D01*
X-129958Y-118110D01*
X-129812Y-119964D01*
X-129378Y-121771D01*
X-128666Y-123489D01*
X-127695Y-125074D01*
X-126488Y-126488D01*
X-125074Y-127695D01*
X-123489Y-128666D01*
X-121771Y-129378D01*
X-119964Y-129812D01*
X-118110Y-129958D01*
X-116257Y-129812D01*
X-114449Y-129378D01*
X-112732Y-128666D01*
X-111146Y-127695D01*
X-109733Y-126488D01*
X-108525Y-125074D01*
X-107554Y-123489D01*
X-106843Y-121771D01*
X-106409Y-119964D01*
X-106263Y-118110D01*
X-106409Y-116257D01*
X-106843Y-114449D01*
X-107554Y-112732D01*
X-108525Y-111146D01*
X-109733Y-109733D01*
X-111146Y-108525D01*
X-112732Y-107554D01*
X-114449Y-106843D01*
X-116257Y-106409D01*
X-118110Y-106263D01*
D02*
G37*
G36*
X118110D02*
X116257Y-106409D01*
X114449Y-106843D01*
X112732Y-107554D01*
X111146Y-108525D01*
X109733Y-109733D01*
X108525Y-111146D01*
X107554Y-112732D01*
X106843Y-114449D01*
X106409Y-116257D01*
X106263Y-118110D01*
X106409Y-119964D01*
X106843Y-121771D01*
X107554Y-123489D01*
X108525Y-125074D01*
X109733Y-126488D01*
X111146Y-127695D01*
X112732Y-128666D01*
X114449Y-129378D01*
X116257Y-129812D01*
X118110Y-129958D01*
X119964Y-129812D01*
X121771Y-129378D01*
X123489Y-128666D01*
X125074Y-127695D01*
X126488Y-126488D01*
X127695Y-125074D01*
X128666Y-123489D01*
X129378Y-121771D01*
X129812Y-119964D01*
X129958Y-118110D01*
X129812Y-116257D01*
X129378Y-114449D01*
X128666Y-112732D01*
X127695Y-111146D01*
X126488Y-109733D01*
X125074Y-108525D01*
X123489Y-107554D01*
X121771Y-106843D01*
X119964Y-106409D01*
X118110Y-106263D01*
D02*
G37*
G36*
X-118110Y129958D02*
X-119964Y129812D01*
X-121771Y129378D01*
X-123489Y128666D01*
X-125074Y127695D01*
X-126488Y126488D01*
X-127695Y125074D01*
X-128666Y123489D01*
X-129378Y121771D01*
X-129812Y119964D01*
X-129958Y118110D01*
X-129812Y116257D01*
X-129378Y114449D01*
X-128666Y112732D01*
X-127695Y111146D01*
X-126488Y109733D01*
X-125074Y108525D01*
X-123489Y107554D01*
X-121771Y106843D01*
X-119964Y106409D01*
X-118110Y106263D01*
X-116257Y106409D01*
X-114449Y106843D01*
X-112732Y107554D01*
X-111146Y108525D01*
X-109733Y109733D01*
X-108525Y111146D01*
X-107554Y112732D01*
X-106843Y114449D01*
X-106409Y116257D01*
X-106263Y118110D01*
X-106409Y119964D01*
X-106843Y121771D01*
X-107554Y123489D01*
X-108525Y125074D01*
X-109733Y126488D01*
X-111146Y127695D01*
X-112732Y128666D01*
X-114449Y129378D01*
X-116257Y129812D01*
X-118110Y129958D01*
D02*
G37*
G36*
X93795Y102576D02*
X92638Y102462D01*
X91524Y102124D01*
X90499Y101576D01*
X89599Y100838D01*
X88861Y99938D01*
X88313Y98913D01*
X87975Y97799D01*
X87861Y96642D01*
X87975Y95484D01*
X88313Y94371D01*
X88861Y93345D01*
X89599Y92446D01*
X90499Y91708D01*
X91524Y91159D01*
X92638Y90822D01*
X93795Y90708D01*
X94953Y90822D01*
X96066Y91159D01*
X97092Y91708D01*
X97991Y92446D01*
X98729Y93345D01*
X99278Y94371D01*
X99615Y95484D01*
X99729Y96642D01*
X99615Y97799D01*
X99278Y98913D01*
X98729Y99938D01*
X97991Y100838D01*
X97092Y101576D01*
X96066Y102124D01*
X94953Y102462D01*
X93795Y102576D01*
D02*
G37*
G36*
X46921Y121500D02*
X37079D01*
Y112445D01*
X37079D01*
Y112223D01*
X34336Y109074D01*
X33500D01*
X33500Y109074D01*
X32575Y108952D01*
X31713Y108595D01*
X30973Y108027D01*
X27858Y104912D01*
X2126D01*
Y105079D01*
X-11654D01*
Y97598D01*
Y92598D01*
Y87598D01*
Y82598D01*
Y77598D01*
Y72598D01*
Y67598D01*
X-11614D01*
Y62598D01*
Y57598D01*
Y52440D01*
X-14527Y49527D01*
X-15095Y48787D01*
X-15452Y47925D01*
X-15574Y47000D01*
Y22924D01*
X-18723Y21254D01*
X-19891Y22045D01*
Y27795D01*
X-19724D01*
Y41575D01*
X-27205D01*
Y41535D01*
X-67126D01*
X-67205Y41535D01*
X-70276Y41726D01*
Y47598D01*
Y52598D01*
Y57598D01*
Y62598D01*
Y70079D01*
X-70315D01*
Y72598D01*
Y77598D01*
Y82598D01*
Y87598D01*
Y92598D01*
Y97598D01*
Y105079D01*
X-84095D01*
Y97598D01*
Y94912D01*
X-95671D01*
X-96069Y95431D01*
X-97220Y96315D01*
X-98561Y96870D01*
X-100000Y97059D01*
X-101439Y96870D01*
X-102780Y96315D01*
X-103931Y95431D01*
X-104815Y94280D01*
X-105370Y92939D01*
X-105559Y91500D01*
X-105370Y90061D01*
X-104815Y88720D01*
X-103931Y87569D01*
Y85431D01*
X-104815Y84280D01*
X-105370Y82939D01*
X-105559Y81500D01*
X-105370Y80061D01*
X-104815Y78720D01*
X-103931Y77569D01*
Y75431D01*
X-104815Y74280D01*
X-105370Y72939D01*
X-105559Y71500D01*
X-105370Y70061D01*
X-104815Y68720D01*
X-103931Y67569D01*
X-104118Y64542D01*
X-106498Y62385D01*
X-107000Y62434D01*
X-108158Y62320D01*
X-109271Y61982D01*
X-110297Y61434D01*
X-111196Y60696D01*
X-111934Y59797D01*
X-112482Y58771D01*
X-112820Y57658D01*
X-112934Y56500D01*
X-112820Y55342D01*
X-112482Y54229D01*
X-111934Y53203D01*
X-111196Y52304D01*
X-110971Y52119D01*
Y47748D01*
X-121280D01*
Y18000D01*
X-122047D01*
Y7874D01*
X-121614D01*
Y-6559D01*
X-121063D01*
Y-23893D01*
X-121704Y-24420D01*
X-122565Y-25469D01*
X-123205Y-26666D01*
X-123599Y-27964D01*
X-123732Y-29315D01*
X-123599Y-30666D01*
X-123205Y-31964D01*
X-122565Y-33161D01*
X-121704Y-34210D01*
X-120655Y-35071D01*
X-119458Y-35711D01*
X-118159Y-36105D01*
X-116809Y-36238D01*
X-115458Y-36105D01*
X-114159Y-35711D01*
X-112962Y-35071D01*
X-111913Y-34210D01*
X-111052Y-33161D01*
X-110413Y-31964D01*
X-110019Y-30666D01*
X-109886Y-29315D01*
X-110019Y-27964D01*
X-110413Y-26666D01*
X-111052Y-25469D01*
X-111913Y-24420D01*
X-111929Y-24406D01*
Y-6559D01*
X-111378D01*
Y7874D01*
X-93000D01*
Y18000D01*
X-93721D01*
Y47748D01*
X-103029D01*
Y52119D01*
X-102804Y52304D01*
X-102066Y53203D01*
X-101518Y54229D01*
X-101180Y55342D01*
X-101066Y56500D01*
X-101145Y57301D01*
X-97473Y60973D01*
X-97473Y60973D01*
X-96905Y61713D01*
X-96548Y62575D01*
X-96426Y63500D01*
Y67295D01*
X-96069Y67569D01*
X-95186Y68720D01*
X-94630Y70061D01*
X-94441Y71500D01*
X-94630Y72939D01*
X-95186Y74280D01*
X-95567Y74777D01*
X-94865Y76996D01*
X-94149Y77926D01*
X-93500D01*
X-92575Y78048D01*
X-91713Y78405D01*
X-90973Y78973D01*
X-87244Y82702D01*
X-84095Y82613D01*
Y77598D01*
Y72598D01*
Y67598D01*
X-84055D01*
Y62598D01*
Y57598D01*
Y52598D01*
Y47598D01*
Y42598D01*
Y37598D01*
X-83074D01*
Y16205D01*
X-83431Y15931D01*
X-84315Y14780D01*
X-84870Y13439D01*
X-85059Y12000D01*
X-84870Y10561D01*
X-84315Y9220D01*
X-83431Y8069D01*
X-82280Y7186D01*
X-80939Y6630D01*
X-79500Y6441D01*
X-78061Y6630D01*
X-76720Y7186D01*
X-75569Y8069D01*
X-74686Y9220D01*
X-74130Y10561D01*
X-73941Y12000D01*
X-74130Y13439D01*
X-74686Y14780D01*
X-75569Y15931D01*
X-75926Y16205D01*
Y37598D01*
X-70354D01*
X-70276Y37598D01*
X-67205Y37408D01*
Y27756D01*
X-27038D01*
Y18965D01*
X-26917Y18040D01*
X-26560Y17178D01*
X-25992Y16438D01*
X-22074Y12520D01*
Y-40500D01*
X-21952Y-41425D01*
X-21595Y-42287D01*
X-21027Y-43027D01*
X-3027Y-61027D01*
X-3027Y-61027D01*
X-2287Y-61595D01*
X-1425Y-61952D01*
X-500Y-62074D01*
X8445D01*
Y-63421D01*
X14350D01*
X17500Y-63421D01*
X20650Y-63421D01*
X26555D01*
Y-62074D01*
X41500D01*
X42425Y-61952D01*
X43287Y-61595D01*
X44027Y-61027D01*
X47527Y-57527D01*
X48095Y-56787D01*
X48452Y-55925D01*
X48574Y-55000D01*
X48574Y-55000D01*
Y-47719D01*
X51187Y-45686D01*
X54077Y-46200D01*
X54957Y-47780D01*
X54957Y-48370D01*
Y-51878D01*
X54926Y-52110D01*
X54957Y-52342D01*
Y-56441D01*
X62043D01*
Y-55684D01*
X69890D01*
X70815Y-55562D01*
X71677Y-55205D01*
X72417Y-54637D01*
X76009Y-51045D01*
X78568Y-52803D01*
X78579Y-52812D01*
Y-58350D01*
X78579Y-61500D01*
X78579Y-64650D01*
Y-70555D01*
X75836Y-71536D01*
X-16944D01*
X-27490Y-60990D01*
X-28518Y-60201D01*
X-29715Y-59705D01*
X-31000Y-59536D01*
X-43944D01*
X-46279Y-57201D01*
X-46536Y-56580D01*
Y-43000D01*
X-46705Y-41715D01*
X-47201Y-40518D01*
X-47990Y-39490D01*
X-48213Y-39267D01*
X-43713Y-34767D01*
X-42860Y-35037D01*
X-40898Y-36406D01*
X-40992Y-37126D01*
X-40803Y-38565D01*
X-40248Y-39906D01*
X-39364Y-41057D01*
X-38213Y-41941D01*
X-36872Y-42496D01*
X-35433Y-42685D01*
X-33994Y-42496D01*
X-32653Y-41941D01*
X-31502Y-41057D01*
X-30619Y-39906D01*
X-30063Y-38565D01*
X-29874Y-37126D01*
X-30063Y-35687D01*
X-30619Y-34346D01*
X-30858Y-34035D01*
X-30945Y-30921D01*
X-30945D01*
Y-21079D01*
X-36850D01*
X-40000Y-21079D01*
X-43150Y-21079D01*
X-49055D01*
Y-30001D01*
X-53267Y-34213D01*
X-53990Y-33490D01*
X-55018Y-32701D01*
X-56215Y-32205D01*
X-57500Y-32036D01*
X-86500D01*
X-87785Y-32205D01*
X-88982Y-32701D01*
X-90285Y-33410D01*
X-91680Y-33003D01*
X-92503Y-32372D01*
X-93460Y-31975D01*
X-94488Y-31840D01*
X-98425D01*
X-99453Y-31975D01*
X-100411Y-32372D01*
X-101233Y-33003D01*
X-101864Y-33825D01*
X-102261Y-34783D01*
X-102396Y-35811D01*
Y-37150D01*
X-104217D01*
X-105398Y-37306D01*
X-106500Y-37762D01*
X-107446Y-38487D01*
X-120038Y-51080D01*
X-120764Y-52025D01*
X-121220Y-53127D01*
X-121375Y-54309D01*
Y-63520D01*
X-121704Y-63790D01*
X-122565Y-64839D01*
X-123205Y-66036D01*
X-123599Y-67334D01*
X-123732Y-68685D01*
X-123599Y-70036D01*
X-123205Y-71334D01*
X-122565Y-72531D01*
X-121704Y-73580D01*
X-120655Y-74441D01*
X-120383Y-74587D01*
Y-78579D01*
X-121500D01*
Y-88421D01*
X-112445D01*
Y-78579D01*
X-113235D01*
Y-74587D01*
X-112962Y-74441D01*
X-111913Y-73580D01*
X-111052Y-72531D01*
X-110413Y-71334D01*
X-110019Y-70036D01*
X-109886Y-68685D01*
X-110019Y-67334D01*
X-110413Y-66036D01*
X-111052Y-64839D01*
X-111913Y-63790D01*
X-112242Y-63520D01*
Y-56200D01*
X-105281Y-49239D01*
X-104910Y-49167D01*
X-102672Y-49491D01*
X-101574Y-49986D01*
X-101233Y-50430D01*
X-100411Y-51061D01*
X-99453Y-51458D01*
X-98425Y-51593D01*
X-94488D01*
X-93460Y-51458D01*
X-92503Y-51061D01*
X-91680Y-50430D01*
X-91049Y-49608D01*
X-90653Y-48650D01*
X-90517Y-47622D01*
Y-46588D01*
X-89932Y-46511D01*
X-88735Y-46015D01*
X-87707Y-45226D01*
X-84444Y-41964D01*
X-59556D01*
X-56464Y-45056D01*
Y-56580D01*
X-56870Y-57561D01*
X-57059Y-59000D01*
X-56870Y-60439D01*
X-56314Y-61780D01*
X-55431Y-62931D01*
X-54280Y-63815D01*
X-53299Y-64221D01*
X-49510Y-68010D01*
X-48482Y-68799D01*
X-47285Y-69295D01*
X-46000Y-69464D01*
X-33056D01*
X-22510Y-80010D01*
X-21482Y-80799D01*
X-20285Y-81295D01*
X-19000Y-81464D01*
X89500D01*
X90785Y-81295D01*
X91982Y-80799D01*
X93010Y-80010D01*
X102510Y-70510D01*
X103299Y-69482D01*
X103795Y-68285D01*
X103964Y-67000D01*
Y-33500D01*
X103795Y-32215D01*
X103299Y-31018D01*
X102510Y-29990D01*
X95964Y-23444D01*
Y-8500D01*
X95795Y-7215D01*
X95299Y-6018D01*
X94510Y-4990D01*
X86010Y3510D01*
X84982Y4299D01*
X83785Y4795D01*
X82500Y4964D01*
X78507D01*
Y18041D01*
X78655Y18527D01*
X78769Y19685D01*
X78655Y20843D01*
X78317Y21956D01*
X77769Y22982D01*
X77031Y23881D01*
X76131Y24619D01*
X75106Y25167D01*
X73992Y25505D01*
X72835Y25619D01*
X71697Y25507D01*
X64074D01*
Y30000D01*
X63952Y30925D01*
X63595Y31787D01*
X63027Y32527D01*
X61546Y34008D01*
Y53165D01*
X61574Y53374D01*
X61574Y53374D01*
Y56445D01*
X62921D01*
Y62350D01*
X62921Y65500D01*
X65676Y66454D01*
X69579D01*
Y65500D01*
X79421D01*
Y74555D01*
X69579D01*
Y73601D01*
X62921D01*
Y74555D01*
X53079D01*
Y73546D01*
X47421D01*
Y74500D01*
X37579D01*
X37579Y74500D01*
X36586Y74791D01*
X35661Y74913D01*
X2126D01*
Y77598D01*
Y82598D01*
Y87598D01*
Y92765D01*
X12839D01*
X13764Y92887D01*
X13793Y92899D01*
X33445D01*
X33864Y92954D01*
X37079D01*
Y91945D01*
X46921D01*
Y92954D01*
X50579D01*
Y92000D01*
X60421D01*
Y92954D01*
X63592D01*
X64009Y92446D01*
X64908Y91708D01*
X65934Y91159D01*
X67047Y90822D01*
X68205Y90708D01*
X69362Y90822D01*
X70476Y91159D01*
X71501Y91708D01*
X72401Y92446D01*
X73139Y93345D01*
X73687Y94371D01*
X74025Y95484D01*
X74139Y96642D01*
X74025Y97799D01*
X73687Y98913D01*
X73139Y99938D01*
X72401Y100838D01*
X71501Y101576D01*
X70476Y102124D01*
X69362Y102462D01*
X68205Y102576D01*
X67047Y102462D01*
X65934Y102124D01*
X64908Y101576D01*
X64009Y100838D01*
X60680Y100798D01*
X60421Y101055D01*
Y101055D01*
X50579D01*
Y101055D01*
X47718Y100856D01*
X47120Y103935D01*
X47175Y104011D01*
X50061Y105630D01*
X51500Y105441D01*
X52939Y105630D01*
X54280Y106185D01*
X55431Y107069D01*
X56314Y108220D01*
X56870Y109561D01*
X57059Y111000D01*
X56870Y112439D01*
X56314Y113780D01*
X55431Y114931D01*
X54280Y115815D01*
X52939Y116370D01*
X51500Y116559D01*
X50061Y116370D01*
X47175Y117989D01*
X46921Y118345D01*
Y121500D01*
D02*
G37*
G36*
X118110Y129958D02*
X116257Y129812D01*
X114449Y129378D01*
X112732Y128666D01*
X111146Y127695D01*
X109733Y126488D01*
X108525Y125074D01*
X107554Y123489D01*
X106843Y121771D01*
X106409Y119964D01*
X106263Y118110D01*
X106409Y116257D01*
X106843Y114449D01*
X107554Y112732D01*
X108525Y111146D01*
X109733Y109733D01*
X111146Y108525D01*
X112732Y107554D01*
X114449Y106843D01*
X116257Y106409D01*
X118110Y106263D01*
X119964Y106409D01*
X121771Y106843D01*
X123489Y107554D01*
X125074Y108525D01*
X126488Y109733D01*
X127695Y111146D01*
X128666Y112732D01*
X129378Y114449D01*
X129812Y116257D01*
X129958Y118110D01*
X129812Y119964D01*
X129378Y121771D01*
X128666Y123489D01*
X127695Y125074D01*
X126488Y126488D01*
X125074Y127695D01*
X123489Y128666D01*
X121771Y129378D01*
X119964Y129812D01*
X118110Y129958D01*
D02*
G37*
%LPD*%
G36*
X34501Y67445D02*
X35241Y66877D01*
X36103Y66520D01*
X37028Y66399D01*
X37579D01*
Y65445D01*
X47421D01*
Y65910D01*
X50248Y66270D01*
X53079Y64447D01*
X53079Y62350D01*
Y56445D01*
X53966D01*
X54399Y53347D01*
Y32528D01*
X54520Y31603D01*
X54877Y30741D01*
X55445Y30000D01*
X56926Y28520D01*
Y3574D01*
X53555D01*
Y4921D01*
X47650D01*
X45930Y4921D01*
X44625Y8071D01*
X44929Y8375D01*
X45497Y9115D01*
X45854Y9977D01*
X45975Y10902D01*
Y12295D01*
X46333Y12569D01*
X47216Y13720D01*
X47771Y15061D01*
X47961Y16500D01*
X47771Y17939D01*
X47253Y19192D01*
X47199Y19357D01*
X47147Y19598D01*
X47531Y22407D01*
X47976Y23140D01*
X48487Y23560D01*
X49225Y24459D01*
X49774Y25485D01*
X50111Y26598D01*
X50225Y27756D01*
X50111Y28914D01*
X49774Y30027D01*
X49225Y31053D01*
X48487Y31952D01*
X47588Y32690D01*
X46562Y33238D01*
X45449Y33576D01*
X44291Y33690D01*
X43134Y33576D01*
X42020Y33238D01*
X40995Y32690D01*
X40095Y31952D01*
X39357Y31053D01*
X38809Y30027D01*
X38471Y28914D01*
X38357Y27756D01*
X38471Y26598D01*
X38809Y25485D01*
X39290Y24586D01*
X39363Y24391D01*
X39417Y23749D01*
X39087Y21411D01*
X38715Y20618D01*
X38471Y20431D01*
X37587Y19280D01*
X37032Y17939D01*
X36842Y16500D01*
X37032Y15061D01*
X37587Y13720D01*
X38471Y12569D01*
X38504Y12058D01*
X37473Y11027D01*
X36905Y10287D01*
X36548Y9425D01*
X36426Y8500D01*
Y4921D01*
X35445D01*
Y3464D01*
X19543D01*
Y4220D01*
X17229D01*
X15803Y6780D01*
X15803Y7370D01*
Y10878D01*
X15834Y11110D01*
Y22973D01*
X17181D01*
Y23926D01*
X22078D01*
X22379Y23560D01*
X23278Y22822D01*
X24304Y22274D01*
X25417Y21936D01*
X26575Y21822D01*
X27733Y21936D01*
X28846Y22274D01*
X29872Y22822D01*
X30771Y23560D01*
X31509Y24459D01*
X32057Y25485D01*
X32395Y26598D01*
X32509Y27756D01*
X32395Y28914D01*
X32057Y30027D01*
X31509Y31053D01*
X30771Y31952D01*
X29872Y32690D01*
X28846Y33238D01*
X27733Y33576D01*
X26575Y33690D01*
X25417Y33576D01*
X24304Y33238D01*
X23278Y32690D01*
X22379Y31952D01*
X21658Y31074D01*
X19936D01*
X17181Y32028D01*
Y41083D01*
X16074D01*
Y51000D01*
X15952Y51925D01*
X15595Y52787D01*
X15027Y53527D01*
X9689Y58866D01*
X8948Y59434D01*
X8086Y59791D01*
X7161Y59913D01*
X2165D01*
Y62598D01*
Y67765D01*
X34181D01*
X34501Y67445D01*
D02*
G37*
G36*
X8686Y20376D02*
Y11110D01*
X8716Y10878D01*
Y6780D01*
X11031D01*
X12457Y4220D01*
X12457Y3630D01*
Y122D01*
X12426Y-110D01*
X12457Y-342D01*
Y-4441D01*
X19543D01*
Y-3684D01*
X35445D01*
Y-4921D01*
X41350D01*
X44500Y-4921D01*
X47650Y-4921D01*
X53555D01*
Y-3574D01*
X58285D01*
X58796Y-4196D01*
X59695Y-4934D01*
X60721Y-5482D01*
X61835Y-5820D01*
X62992Y-5934D01*
X64150Y-5820D01*
X65263Y-5482D01*
X66233Y-4964D01*
X80444D01*
X86036Y-10556D01*
Y-25500D01*
X86205Y-26785D01*
X86701Y-27982D01*
X87490Y-29010D01*
X94036Y-35556D01*
Y-64944D01*
X91571Y-67409D01*
X88421Y-66105D01*
X88421Y-61500D01*
X88421Y-58350D01*
Y-52445D01*
X87314D01*
Y-46331D01*
X87671Y-46057D01*
X88555Y-44906D01*
X89110Y-43565D01*
X89299Y-42126D01*
X89110Y-40687D01*
X88555Y-39346D01*
X87671Y-38195D01*
X86520Y-37311D01*
X85179Y-36756D01*
X83740Y-36567D01*
X82301Y-36756D01*
X80961Y-37311D01*
X79809Y-38195D01*
X77671D01*
X76520Y-37311D01*
X75179Y-36756D01*
X73740Y-36567D01*
X72301Y-36756D01*
X70960Y-37311D01*
X69809Y-38195D01*
X68926Y-39346D01*
X68370Y-40687D01*
X68181Y-42126D01*
X68370Y-43565D01*
X68926Y-44906D01*
X69707Y-45924D01*
X69227Y-46805D01*
X67880Y-48536D01*
X62043D01*
Y-47780D01*
X59729D01*
X58303Y-45221D01*
X58303Y-44630D01*
Y-41122D01*
X58334Y-40890D01*
X58303Y-40658D01*
Y-36559D01*
X51217D01*
Y-37316D01*
X49610D01*
X48685Y-37438D01*
X47823Y-37795D01*
X47083Y-38363D01*
X47083Y-38363D01*
X44295Y-41151D01*
X40468Y-40678D01*
X40418Y-40608D01*
X40248Y-39906D01*
X40803Y-38565D01*
X40992Y-37126D01*
X40803Y-35687D01*
X40248Y-34346D01*
X39364Y-33195D01*
X38213Y-32311D01*
X36872Y-31756D01*
X35433Y-31567D01*
X34987Y-31625D01*
X32834Y-29473D01*
X32094Y-28905D01*
X31232Y-28548D01*
X30307Y-28426D01*
X25110D01*
X24878Y-28457D01*
X20779D01*
Y-30771D01*
X18221Y-32197D01*
X17630Y-32197D01*
X14122D01*
X13890Y-32166D01*
X4055D01*
Y-31079D01*
X-1850D01*
X-2935Y-31079D01*
X-3155Y-31073D01*
X-4841Y-30491D01*
X-6405Y-29213D01*
X-6973Y-28473D01*
X-6973Y-28473D01*
X-9926Y-25520D01*
Y-11388D01*
X-8801Y-10277D01*
X-6776Y-9081D01*
X-6157Y-9162D01*
X-4821Y-8986D01*
X-3576Y-8471D01*
X-2507Y-7650D01*
X555Y-7609D01*
X6999Y-14054D01*
X6941Y-14500D01*
X7130Y-15939D01*
X7685Y-17280D01*
X8569Y-18431D01*
X9720Y-19315D01*
X11061Y-19870D01*
X12500Y-20059D01*
X13939Y-19870D01*
X15280Y-19315D01*
X16431Y-18431D01*
X17314Y-17280D01*
X17870Y-15939D01*
X18059Y-14500D01*
X17870Y-13061D01*
X17314Y-11720D01*
X16431Y-10569D01*
X15280Y-9685D01*
X13939Y-9130D01*
X12500Y-8941D01*
X12054Y-8999D01*
X4527Y-1473D01*
X3787Y-905D01*
X3074Y-610D01*
Y8945D01*
X4421D01*
Y14850D01*
X4421Y18000D01*
X4421D01*
Y18000D01*
X4421D01*
Y19552D01*
X7571Y21172D01*
X8686Y20376D01*
D02*
G37*
%LPC*%
G36*
X26575Y59281D02*
X25417Y59167D01*
X24304Y58829D01*
X23278Y58280D01*
X22379Y57543D01*
X21641Y56643D01*
X21092Y55617D01*
X20755Y54504D01*
X20641Y53347D01*
X20755Y52189D01*
X21092Y51076D01*
X21641Y50050D01*
X22379Y49150D01*
X23278Y48412D01*
X24304Y47864D01*
X25417Y47526D01*
X26575Y47412D01*
X27733Y47526D01*
X28846Y47864D01*
X29872Y48412D01*
X30771Y49150D01*
X31509Y50050D01*
X32057Y51076D01*
X32395Y52189D01*
X32509Y53347D01*
X32395Y54504D01*
X32057Y55617D01*
X31509Y56643D01*
X30771Y57543D01*
X29872Y58280D01*
X28846Y58829D01*
X27733Y59167D01*
X26575Y59281D01*
D02*
G37*
G36*
X42402Y-10941D02*
X41063Y-11117D01*
X40874Y-11126D01*
X37913Y-10988D01*
X37913Y-10988D01*
X26890D01*
Y-22012D01*
X37913D01*
Y-22012D01*
X40874Y-21874D01*
X41063Y-21883D01*
X42402Y-22059D01*
X43840Y-21870D01*
X45181Y-21315D01*
X46333Y-20431D01*
X46607Y-20074D01*
X58520D01*
X60973Y-22527D01*
X61713Y-23095D01*
X62575Y-23452D01*
X63500Y-23574D01*
X63500Y-23574D01*
X68387D01*
X68639Y-23881D01*
X69538Y-24619D01*
X70564Y-25167D01*
X71677Y-25505D01*
X72835Y-25619D01*
X73992Y-25505D01*
X75106Y-25167D01*
X76131Y-24619D01*
X77031Y-23881D01*
X77769Y-22982D01*
X78317Y-21956D01*
X78655Y-20843D01*
X78769Y-19685D01*
X78655Y-18527D01*
X78317Y-17414D01*
X77769Y-16388D01*
X77031Y-15489D01*
X76131Y-14751D01*
X75106Y-14203D01*
X73992Y-13865D01*
X72835Y-13751D01*
X71677Y-13865D01*
X70564Y-14203D01*
X69538Y-14751D01*
X68639Y-15489D01*
X68043Y-16215D01*
X64879Y-16325D01*
X62527Y-13973D01*
X61787Y-13405D01*
X60925Y-13048D01*
X60000Y-12926D01*
X46607D01*
X46333Y-12569D01*
X45181Y-11686D01*
X43840Y-11130D01*
X42402Y-10941D01*
D02*
G37*
%LPD*%
D10*
X-118110Y-118110D02*
D03*
X118110D02*
D03*
Y118110D02*
D03*
X-118110D02*
D03*
D11*
X35307Y-47000D02*
X35433Y-47126D01*
X22028Y-47000D02*
X35307D01*
X78740Y35551D02*
X103472D01*
X-116500Y-68685D02*
X-114185D01*
X-107000Y31000D02*
Y56500D01*
X83500Y-76500D02*
Y-66028D01*
D13*
X-35433Y-37126D02*
D03*
Y-47126D02*
D03*
X73740Y-42126D02*
D03*
X83740D02*
D03*
X35433Y-47126D02*
D03*
Y-37126D02*
D03*
X78740Y35551D02*
D03*
Y45551D02*
D03*
X42402Y-16500D02*
D03*
X32402Y16500D02*
D03*
X42402D02*
D03*
X-100000Y91500D02*
D03*
Y71500D02*
D03*
Y81500D02*
D03*
Y101500D02*
D03*
X-79500Y12000D02*
D03*
X-69500D02*
D03*
X-51500Y-59000D02*
D03*
X124000Y35000D02*
D03*
X51500Y111000D02*
D03*
X12500Y-14500D02*
D03*
X-500Y-47000D02*
D03*
D14*
X44291Y53347D02*
D03*
Y27756D02*
D03*
X26575Y53347D02*
D03*
Y27756D02*
D03*
X62992Y0D02*
D03*
X72835Y19685D02*
D03*
Y-19685D02*
D03*
X112992Y19685D02*
D03*
Y-19685D02*
D03*
X68205Y114358D02*
D03*
X93795D02*
D03*
X68205Y96642D02*
D03*
X93795D02*
D03*
X-107000Y56500D02*
D03*
D15*
X-96457Y-41717D02*
D03*
D16*
X-75740Y-51717D02*
D03*
X-84240Y-64217D02*
D03*
D17*
X-78740Y-16716D02*
D03*
X-79240Y-77217D02*
D03*
D18*
X-84240Y-64217D02*
D03*
X-82677D02*
D03*
X-80709D02*
D03*
X-86614D02*
D03*
X-88583D02*
D03*
X-80083Y-51717D02*
D03*
X-78114D02*
D03*
X-72209D02*
D03*
X-74177D02*
D03*
X-75740D02*
D03*
X-96457Y-46059D02*
D03*
Y-44091D02*
D03*
Y-38185D02*
D03*
Y-40154D02*
D03*
Y-41717D02*
D03*
X50000Y-27000D02*
D03*
X-54000Y12000D02*
D03*
D19*
X32402Y-16500D02*
D03*
D20*
X-116809Y-29315D02*
D03*
Y-68685D02*
D03*
X77500Y-117500D02*
D03*
X-79980D02*
D03*
X118480Y-77000D02*
D03*
X-39000D02*
D03*
D21*
X-25842Y-4000D02*
D03*
X-6157D02*
D03*
D22*
X42500Y79028D02*
D03*
Y69972D02*
D03*
X55500Y87472D02*
D03*
Y96528D02*
D03*
X42000Y126028D02*
D03*
Y116972D02*
D03*
Y105528D02*
D03*
Y96472D02*
D03*
X12260Y36555D02*
D03*
Y27500D02*
D03*
X83500Y-56972D02*
D03*
Y-66028D02*
D03*
X58000Y70028D02*
D03*
Y60972D02*
D03*
X74500D02*
D03*
Y70028D02*
D03*
X-500Y22528D02*
D03*
Y13472D02*
D03*
D23*
X-107472Y-15500D02*
D03*
X-116528D02*
D03*
X-126028Y-83500D02*
D03*
X-116972D02*
D03*
X-44528Y-26000D02*
D03*
X-35472D02*
D03*
X103472Y35500D02*
D03*
X112528D02*
D03*
X39972Y0D02*
D03*
X49028D02*
D03*
X22028Y-47000D02*
D03*
X12972D02*
D03*
X-472Y-36000D02*
D03*
X-9528D02*
D03*
X12972Y-58500D02*
D03*
X22028D02*
D03*
D24*
X-40157Y79134D02*
D03*
D25*
X-23465Y34685D02*
D03*
X-18465D02*
D03*
X-43465Y34646D02*
D03*
X-38465D02*
D03*
X-33465D02*
D03*
X-28465D02*
D03*
X-48465D02*
D03*
X-53465D02*
D03*
X-58465D02*
D03*
X-63465D02*
D03*
D26*
X-4764Y106339D02*
D03*
Y101339D02*
D03*
Y96339D02*
D03*
Y91339D02*
D03*
Y71339D02*
D03*
Y76339D02*
D03*
Y81339D02*
D03*
Y86339D02*
D03*
X-4724Y46339D02*
D03*
Y41339D02*
D03*
Y51339D02*
D03*
Y56339D02*
D03*
Y61339D02*
D03*
Y66339D02*
D03*
X-77165D02*
D03*
Y61339D02*
D03*
Y56339D02*
D03*
Y51339D02*
D03*
Y41339D02*
D03*
Y46339D02*
D03*
X-77205Y86339D02*
D03*
Y81339D02*
D03*
Y76339D02*
D03*
Y71339D02*
D03*
Y91339D02*
D03*
Y96339D02*
D03*
Y101339D02*
D03*
Y106339D02*
D03*
D27*
X54760Y-40890D02*
D03*
X62240D02*
D03*
X58500Y-52110D02*
D03*
X12260Y11110D02*
D03*
X19740D02*
D03*
X16000Y-110D02*
D03*
D28*
X13890Y-35740D02*
D03*
Y-28260D02*
D03*
X25110Y-32000D02*
D03*
D29*
X-98504Y1315D02*
D03*
X-116496D02*
D03*
D30*
X-107500Y32000D02*
D03*
D31*
X33500Y96528D02*
X68205D01*
X41500Y-58500D02*
X45000Y-55000D01*
Y-45500D01*
X49610Y-40890D01*
X54760D01*
X58500Y-52110D02*
X69890D01*
X33445Y96472D02*
X33500Y96528D01*
X22000Y96472D02*
X33055D01*
X33445D01*
X69890Y-52110D02*
X73740Y-48260D01*
Y-42126D01*
X22028Y-58500D02*
X41500D01*
X-12000Y47000D02*
X-7661Y51339D01*
X-2756D01*
X-12000Y17500D02*
Y47000D01*
X12839Y96339D02*
X12972Y96472D01*
X22000D01*
X-2795Y96339D02*
X12839D01*
X-100000Y91339D02*
X-79173D01*
X25110Y-32000D02*
X30307D01*
X35433Y-37126D01*
X0Y-35740D02*
X13890D01*
X-9500Y-36000D02*
Y-31000D01*
X83740Y-56972D02*
Y-42126D01*
X12972Y-47000D02*
X13000D01*
X58000Y53374D02*
Y60972D01*
X57972Y53347D02*
X58000Y53374D01*
Y70028D02*
X74500D01*
X-2756Y56339D02*
X7161D01*
X12500Y51000D01*
X49028Y0D02*
X62992D01*
X42402Y10902D02*
Y16500D01*
X40000Y8500D02*
X42402Y10902D01*
X40000Y28D02*
Y8500D01*
X39972Y0D02*
X40000Y28D01*
X16000Y-110D02*
X39972D01*
X60000Y-16500D02*
X63500Y-20000D01*
X72520D01*
X72835Y-19685D01*
X32402Y-16500D02*
X42402D01*
X60000D01*
X12260Y11110D02*
Y27500D01*
X-500Y22528D02*
Y28500D01*
X7555Y36555D01*
X12500D02*
Y51000D01*
X57972Y32528D02*
Y53347D01*
X60500Y2492D02*
X62992Y0D01*
X60500Y2492D02*
Y30000D01*
X57972Y32528D02*
X60500Y30000D01*
X-13500Y-27000D02*
X-9500Y-31000D01*
X-13500Y-27000D02*
Y16000D01*
X-12000Y17500D01*
X-23465Y18965D02*
Y32717D01*
Y18965D02*
X-18500Y14000D01*
X-35433Y-37126D02*
Y-26039D01*
X-35472Y-26000D02*
X-35433Y-26039D01*
X-54250Y-40250D02*
X-44528Y-30528D01*
Y-26000D01*
X-116809Y-83336D02*
Y-68685D01*
X-116972Y-83500D02*
X-116809Y-83336D01*
X112992Y-19685D02*
Y-8008D01*
X113028Y35000D02*
X124000D01*
X112528Y35500D02*
X113028Y35000D01*
X112992Y-8008D02*
X124000Y3000D01*
Y35000D01*
X-2795Y101339D02*
X29339D01*
X33500Y105500D01*
X41972D01*
X42000Y105528D01*
Y111000D02*
X51500D01*
X42000Y105528D02*
Y111000D01*
Y116972D01*
X-2795Y71339D02*
X35661D01*
X37028Y69972D01*
X56500D01*
X7555Y36555D02*
X12260D01*
Y27500D02*
X26319D01*
X26575Y27756D01*
X-100000Y81500D02*
X-93500D01*
X-88661Y86339D01*
X-79173D01*
X-500Y-4000D02*
Y13472D01*
Y-47000D02*
X12972D01*
X-6157Y-4000D02*
X2000D01*
X12500Y-14500D01*
X-116809Y-29315D02*
X-116496Y-29002D01*
X-79500Y12000D02*
Y40972D01*
X-79134Y41339D01*
X-100000Y63500D02*
Y71500D01*
X-107000Y56500D02*
X-100000Y63500D01*
X-18500Y-40500D02*
Y14000D01*
Y-40500D02*
X-500Y-58500D01*
X12972D01*
D32*
X-96457Y-41717D02*
X-91216D01*
X-86500Y-37000D01*
X-57500D01*
X-54250Y-40250D02*
X-51500Y-43000D01*
X-57500Y-37000D02*
X-54250Y-40250D01*
X-31000Y-64500D02*
X-19000Y-76500D01*
X-51500Y-59000D02*
Y-43000D01*
Y-59000D02*
X-46000Y-64500D01*
X-31000D01*
X77740Y-117740D02*
X118500Y-76980D01*
Y-25193D01*
X112992Y-19685D02*
X118500Y-25193D01*
X62992Y0D02*
X82500D01*
X91000Y-25500D02*
X99000Y-33500D01*
X91000Y-25500D02*
Y-8500D01*
X82500Y0D02*
X91000Y-8500D01*
X89500Y-76500D02*
X99000Y-67000D01*
Y-33500D01*
X-19000Y-76500D02*
X83500D01*
X89500D01*
D33*
X-104217Y-41717D02*
X-96457D01*
X-116809Y-68685D02*
Y-54309D01*
X-104217Y-41717D01*
X-116496Y-29002D02*
Y1315D01*
D34*
X67750Y10000D02*
D03*
D35*
X66000Y21000D02*
D03*
M02*
