M48
;Layer_Color=9474304
;FILE_FORMAT=2:5
INCH,LZ
;TYPE=PLATED
T1F00S00C0.03150
T3F00S00C0.03937
T4F00S00C0.04724
T5F00S00C0.07874
T6F00S00C0.11811
%
T01
X008374Y-0042126
X0124Y0035
X007874Y0035551
Y0045551
X007374Y-0042126
X005Y-0027
X0035433Y-0037126
Y-0047126
X-00005Y-0047
X-0035433Y-0047126
Y-0037126
X-00515Y-0059
X-0072209Y-0051717
X-0074177
X-0054Y0012
X-0025842Y-0004
X-0006157
X00125Y-00145
X-007574Y-0051717
X-0078114
X-0080083
X-0080709Y-0064217
X-0082677
X-008424
X-0086614
X-0088583
X-0096457Y-0046059
Y-0044091
Y-0041717
Y-0040154
Y-0038185
X-0107Y00565
X00515Y0111
T03
X-007998Y-01175
X00775
X011848Y-0077
X0112992Y-0019685
Y0019685
X0072835
X0062992Y0
X0072835Y-0019685
X0042402Y-00165
X0032402
Y00165
X0042402
X0044291Y0027756
X0026575
Y0053347
X0044291
X-00695Y0012
X-0039Y-0077
X-00795Y0012
X-01Y00715
Y00815
Y00915
Y01015
X0068205Y0096642
Y0114358
X0093795
Y0096642
T04
X-0116809Y-0068685
Y-0029315
T05
X-007924Y-0077217
X-007874Y-0016716
T06
X-011811Y-011811
X011811
X-011811Y011811
X011811
M30
